<?xml version="1.0" standalone="no"?>
<!DOCTYPE svg PUBLIC "-//W3C//DTD SVG 1.1//EN" "http://www.w3.org/Graphics/SVG/1.1/DTD/svg11.dtd" >
<svg xmlns="http://www.w3.org/2000/svg" xmlns:xlink="http://www.w3.org/1999/xlink" version="1.1">
<metadata>
Created by FontForge 20170731 at Fri Oct 21 00:48:14 2016
 By Aleksey,,,
Copyright 2016 BlackFoundry
</metadata>
<defs>
<font id="Drive-Light" horiz-adv-x="500" >
  <font-face 
    font-family="Drive Light"
    font-weight="300"
    font-stretch="normal"
    units-per-em="1000"
    panose-1="2 11 4 3 3 5 0 2 0 4"
    ascent="770"
    descent="-230"
    x-height="481"
    cap-height="648"
    bbox="-134 -226 1030 893"
    underline-thickness="45"
    underline-position="-200"
    unicode-range="U+000D-FB02"
  />
<missing-glyph horiz-adv-x="647" 
d="M550 648v-648h-454v648h454zM161 591v-535h324v535h-324z" />
    <glyph glyph-name="fi" unicode="fi" horiz-adv-x="560" 
d="M174 481h140v-52h-140v-429h-63v429h-87v42l87 10v49q0 75 39.5 116.5t111.5 41.5q42 0 79 -14l-10 -49q-27 9 -63 9q-51 0 -72.5 -23.5t-21.5 -82.5v-47zM483 618q0 -18 -11.5 -30t-30.5 -12t-31 12t-12 30q0 19 12 31t31 12t30.5 -12t11.5 -31zM409 0v481h64v-481h-64z
" />
    <glyph glyph-name="fl" unicode="fl" horiz-adv-x="560" 
d="M174 481h140v-52h-140v-429h-63v429h-87v42l87 10v49q0 75 39.5 116.5t111.5 41.5q42 0 79 -14l-10 -49q-27 9 -63 9q-51 0 -72.5 -23.5t-21.5 -82.5v-47zM409 0v678h64v-678h-64z" />
    <glyph glyph-name=".notdef" horiz-adv-x="647" 
d="M550 648v-648h-454v648h454zM161 591v-535h324v535h-324z" />
    <glyph glyph-name=".null" horiz-adv-x="0" 
 />
    <glyph glyph-name="nonmarkingreturn" horiz-adv-x="333" 
 />
    <glyph glyph-name="NULL" horiz-adv-x="0" 
 />
    <glyph glyph-name="NULL" horiz-adv-x="0" 
 />
    <glyph glyph-name="CR" unicode="&#xd;" horiz-adv-x="0" 
 />
    <glyph glyph-name="space" unicode=" " horiz-adv-x="183" 
 />
    <glyph glyph-name="exclam" unicode="!" horiz-adv-x="254" 
d="M95 490v158h65v-158l-8 -301h-49zM171 33q0 -19 -12.5 -31t-31.5 -12t-31.5 12t-12.5 31t12.5 31.5t31.5 12.5t31.5 -12.5t12.5 -31.5z" />
    <glyph glyph-name="quotedbl" unicode="&#x22;" horiz-adv-x="379" 
d="M139 648v-98l-12 -136h-42l-12 136v98h66zM306 648v-98l-13 -136h-41l-12 136v98h66z" />
    <glyph glyph-name="numbersign" unicode="#" horiz-adv-x="660" 
d="M253 420l-27 -173h175l27 173h-175zM453 191l-29 -191h-61l29 191h-175l-29 -191h-61l29 191h-120v56h129l27 173h-136v56h144l27 172h61l-27 -172h175l27 172h61l-27 -172h127v-56h-135l-27 -173h142v-56h-151z" />
    <glyph glyph-name="dollar" unicode="$" horiz-adv-x="475" 
d="M270 -8v-81h-59v80q-95 6 -175 63l27 51q92 -58 178 -58q57 0 91 30.5t34 83.5q0 41 -26 72q-24 30 -113 71q-82 38 -116 69q-51 47 -51 121q0 64 41.5 108.5t109.5 53.5v81h59v-80q81 -8 150 -58l-26 -50q-80 51 -153 51q-54 0 -86 -28t-32 -74q0 -41 26 -73
q27 -32 115 -72q84 -39 115 -68q51 -45 51 -118q0 -72 -42.5 -118.5t-117.5 -56.5z" />
    <glyph glyph-name="percent" unicode="%" horiz-adv-x="730" 
d="M308 494q0 -78 -35 -120t-99 -42q-134 0 -134 164q0 78 35 120t99 42q134 0 134 -164zM526 648h66l-388 -648h-66zM95 496q0 -116 79 -116t79 114q0 116 -79 116t-79 -114zM690 152q0 -78 -35 -120t-99 -42q-134 0 -134 164q0 78 35 120t99 42q134 0 134 -164zM477 154
q0 -116 79 -116t79 114q0 116 -79 116t-79 -114z" />
    <glyph glyph-name="ampersand" unicode="&#x26;" horiz-adv-x="624" 
d="M554 187q0 -87 -70 -142t-179 -55q-114 0 -184 53q-68 54 -68 146q0 61 38.5 105.5t105.5 61.5q-49 18 -75 54t-26 85q0 75 54.5 119t147.5 44q74 0 144 -22l-15 -56q-67 21 -129 21q-66 0 -101.5 -28.5t-35.5 -80.5q0 -53 33 -81t94 -28h40v-57h-47q-75 0 -118.5 -36.5
t-43.5 -98.5q0 -68 49.5 -106.5t136.5 -38.5q86 0 136 40.5t50 109.5q0 68 -62 118l15 38h168v-55h-102q44 -47 44 -110z" />
    <glyph glyph-name="quotesingle" unicode="'" horiz-adv-x="213" 
d="M139 648v-98l-12 -136h-42l-12 136v98h66z" />
    <glyph glyph-name="parenleft" unicode="(" horiz-adv-x="288" 
d="M63 251v7q0 156 45 271q47 118 124 167l15 10l24 -44l-14 -10q-61 -44 -96 -149t-35 -245v-7q0 -138 35 -245q35 -105 96 -148l14 -10l-24 -44l-15 10q-77 49 -124 166q-45 116 -45 271z" />
    <glyph glyph-name="parenright" unicode=")" horiz-adv-x="288" 
d="M225 258v-7q0 -156 -46 -270q-45 -116 -123 -167l-15 -10l-25 44l14 10q62 44 96 147q35 107 35 246v7q0 139 -35 246q-34 104 -96 148l-14 10l25 44l15 -10q78 -49 123 -167q46 -114 46 -271z" />
    <glyph glyph-name="asterisk" unicode="*" horiz-adv-x="402" 
d="M277 420l45 -63l-44 -33l-46 64l-31 53l-32 -53l-46 -64l-44 33l46 63l40 46l-59 14l-74 25l16 51l75 -24l56 -24l-5 61v79h54v-79l-6 -61l57 24l75 24l16 -51l-74 -25l-60 -14z" />
    <glyph glyph-name="plus" unicode="+" horiz-adv-x="438" 
d="M249 333h159v-56h-159v-165h-61v165h-158v56h158v157h61v-157z" />
    <glyph glyph-name="comma" unicode="," horiz-adv-x="221" 
d="M155 16q0 -93 -76 -153l-23 25q48 47 52 102q-19 1 -30.5 13t-11.5 30q0 19 12 31.5t32 12.5q21 0 33 -16.5t12 -44.5z" />
    <glyph glyph-name="hyphen" unicode="-" horiz-adv-x="420" 
d="M65 299h290v-54h-290v54z" />
    <glyph glyph-name="period" unicode="." horiz-adv-x="220" 
d="M154 33q0 -19 -12.5 -31t-31.5 -12t-31.5 12t-12.5 31t12.5 31.5t31.5 12.5t31.5 -12.5t12.5 -31.5z" />
    <glyph glyph-name="slash" unicode="/" horiz-adv-x="399" 
d="M309 738h64l-283 -828h-64z" />
    <glyph glyph-name="zero" unicode="0" horiz-adv-x="588" 
d="M526 322q0 -159 -60.5 -245.5t-171.5 -86.5q-113 0 -172.5 85.5t-59.5 250.5q0 158 61 245t171 87q113 0 172.5 -85.5t59.5 -250.5zM129 326q0 -277 165 -277q164 0 164 273q0 276 -164 276q-165 0 -165 -272z" />
    <glyph glyph-name="one" unicode="1" horiz-adv-x="383" 
d="M238 56h127v-56h-336v56h144v535h-144v57h209v-592z" />
    <glyph glyph-name="two" unicode="2" horiz-adv-x="463" 
d="M113 56h311v-56h-393v47q177 174 240 262q64 89 64 172q0 56 -35.5 87.5t-98.5 31.5q-68 0 -146 -32l-17 52q89 38 168 38q91 0 143 -46.5t52 -129.5q0 -88 -61 -179q-62 -91 -227 -247z" />
    <glyph glyph-name="three" unicode="3" horiz-adv-x="482" 
d="M427 185q0 -90 -60 -142.5t-163 -52.5q-98 0 -168 35l17 52q73 -30 150 -30q74 0 116 37t42 102q0 55 -39.5 87t-106.5 32h-94v58h89q63 0 99 34t36 92q0 53 -35 82t-98 29q-69 0 -146 -28l-15 50q84 36 161 36q91 0 145 -44.5t54 -118.5q0 -55 -30 -96t-83 -61
q61 -16 95 -56t34 -97z" />
    <glyph glyph-name="four" unicode="4" horiz-adv-x="524" 
d="M404 196h95v-56h-95v-140h-61v140h-311l-7 43q56 114 137 236q85 128 170 229h72v-452zM93 196h250v386q-156 -199 -250 -386z" />
    <glyph glyph-name="five" unicode="5" horiz-adv-x="491" 
d="M443 201q0 -96 -64 -154q-65 -57 -170 -57q-86 0 -164 36l17 52q72 -31 149 -31q78 0 122.5 41t44.5 114q0 64 -41 100.5t-112 36.5q-55 0 -121 -22l-26 17l20 314h317v-57h-265l-13 -213q51 16 97 16q96 0 152.5 -52.5t56.5 -140.5z" />
    <glyph glyph-name="six" unicode="6" horiz-adv-x="510" 
d="M477 209q0 -94 -60 -157q-60 -62 -151 -62q-99 0 -157 67q-59 68 -59 179q0 138 71.5 248.5t205.5 179.5l28 -47q-105 -60 -161 -128t-73 -160q71 78 159 78q87 0 142 -55t55 -143zM266 44q66 0 107 45.5t41 119.5q0 66 -38.5 104.5t-103.5 38.5q-92 0 -159 -102v-21
q0 -83 42 -134t111 -51z" />
    <glyph glyph-name="seven" unicode="7" horiz-adv-x="439" 
d="M220 15v-15h-66v15q0 129 46 258q47 134 151 318h-333v57h398v-46q-104 -183 -150 -321q-46 -135 -46 -266z" />
    <glyph glyph-name="eight" unicode="8" horiz-adv-x="540" 
d="M488 169q0 -78 -61 -129q-62 -50 -157 -50q-99 0 -159 45.5t-60 122.5q0 114 144 180q-120 57 -120 158q0 72 55 117q56 45 144 45q84 0 137 -44t53 -112q0 -93 -124 -162q80 -35 114 -75t34 -96zM274 608q-63 0 -99.5 -29.5t-36.5 -77.5q0 -40 29 -72q31 -30 122 -68
q60 33 86 66t26 75q0 47 -35 76.5t-92 29.5zM116 166q0 -59 42 -93t112 -34q64 0 110 35q45 34 45 93q0 58 -65 97l-27 15q-17 9 -85 36q-70 -33 -101 -67.5t-31 -81.5z" />
    <glyph glyph-name="nine" unicode="9" horiz-adv-x="510" 
d="M460 412q0 -138 -71.5 -249t-205.5 -179l-28 46q105 60 161 128.5t73 160.5q-71 -78 -160 -78q-87 0 -142 55t-55 143q0 93 60 156q62 63 151 63q98 0 157 -68q60 -68 60 -178zM96 439q0 -67 38 -105.5t103 -38.5q90 0 160 103v20q0 83 -42.5 134t-111.5 51
q-65 0 -106 -45.5t-41 -118.5z" />
    <glyph glyph-name="colon" unicode=":" horiz-adv-x="220" 
d="M154 33q0 -19 -12.5 -31t-31.5 -12t-31.5 12t-12.5 31t12.5 31.5t31.5 12.5t31.5 -12.5t12.5 -31.5zM154 446q0 -19 -12.5 -31t-31.5 -12t-31.5 12t-12.5 31t12.5 31.5t31.5 12.5t31.5 -12.5t12.5 -31.5z" />
    <glyph glyph-name="semicolon" unicode=";" horiz-adv-x="221" 
d="M154 446q0 -19 -12.5 -31t-31.5 -12t-31.5 12t-12.5 31t12.5 31.5t31.5 12.5t31.5 -12.5t12.5 -31.5zM155 16q0 -93 -76 -153l-23 25q48 47 52 102q-19 1 -30.5 13t-11.5 30q0 19 12 31.5t32 12.5q21 0 33 -16.5t12 -44.5z" />
    <glyph glyph-name="less" unicode="&#x3c;" horiz-adv-x="438" 
d="M86 329l308 -134v-70l-370 171v61l370 172v-65z" />
    <glyph glyph-name="equal" unicode="=" horiz-adv-x="438" 
d="M30 439h378v-56h-378v56zM30 267h378v-56h-378v56z" />
    <glyph glyph-name="greater" unicode="&#x3e;" horiz-adv-x="438" 
d="M352 325l-308 134v70l370 -171v-61l-370 -172v65z" />
    <glyph glyph-name="question" unicode="?" horiz-adv-x="438" 
d="M229 297l-12 -4l-5 -104h-49l-6 118l16 24l39 14q64 23 92 56.5t28 84.5q0 54 -34 84.5t-94 30.5q-75 0 -148 -33l-18 52q79 38 167 38q89 0 140 -45.5t51 -124.5q0 -67 -40 -113t-127 -78zM230 33q0 -19 -12 -31t-31 -12t-31.5 12t-12.5 31t12.5 31.5t31.5 12.5
t31 -12.5t12 -31.5z" />
    <glyph glyph-name="at" unicode="@" horiz-adv-x="932" 
d="M475 -178q-189 0 -304 111t-115 296q0 189 121 309t312 120q168 0 277 -103q109 -102 109 -262q0 -123 -51 -193q-51 -71 -133 -71q-80 0 -110 56q-67 -61 -145 -61q-58 0 -94.5 33t-36.5 87q0 57 39 90t108 33h111v41q0 53 -22 76t-72 23q-59 0 -129 -39l-18 47
q76 46 155 46q144 0 144 -149v-146q0 -88 74 -88q58 0 90.5 55t32.5 156q0 140 -92 229q-91 88 -237 88q-168 0 -272 -104q-103 -103 -103 -273q0 -163 98 -259t263 -96q139 0 239 58l22 -44q-113 -66 -261 -66zM362 148q0 -37 21.5 -56.5t60.5 -19.5q63 0 122 58
q-3 27 -3 34v57h-111q-90 0 -90 -73z" />
    <glyph glyph-name="A" unicode="A" horiz-adv-x="551" 
d="M274 598l-110 -351h220zM320 648l209 -648h-67l-60 190h-256l-60 -190h-64l209 648h89z" />
    <glyph glyph-name="B" unicode="B" horiz-adv-x="579" 
d="M304 0h-208v648h198q100 0 152.5 -42.5t52.5 -122.5q0 -52 -29.5 -89.5t-84.5 -55.5q139 -35 139 -154q0 -88 -58 -136t-162 -48zM433 482q0 108 -139 108h-133v-228h130q68 0 105 31t37 89zM458 183q0 122 -164 122h-133v-248h143q154 0 154 126z" />
    <glyph glyph-name="C" unicode="C" horiz-adv-x="526" 
d="M320 -10q-126 0 -192.5 86t-66.5 251q0 158 67 244.5t190 86.5q97 0 174 -52l-28 -53q-66 45 -146 45q-189 0 -189 -271q0 -278 191 -278q77 0 154 51l28 -47q-76 -63 -182 -63z" />
    <glyph glyph-name="D" unicode="D" horiz-adv-x="611" 
d="M291 0h-195v648h195q128 0 194 -82.5t66 -242.5q0 -156 -67.5 -239.5t-192.5 -83.5zM483 323q0 265 -192 265h-130v-529h130q192 0 192 264z" />
    <glyph glyph-name="E" unicode="E" horiz-adv-x="504" 
d="M458 57v-57h-362v648h362v-58h-297v-233h247v-58h-247v-242h297z" />
    <glyph glyph-name="F" unicode="F" horiz-adv-x="487" 
d="M161 348h247v-58h-247v-290h-65v648h362v-58h-297v-242z" />
    <glyph glyph-name="G" unicode="G" horiz-adv-x="564" 
d="M440 312h62v-263q-70 -59 -179 -59q-129 0 -195.5 86t-66.5 251q0 158 68.5 244.5t193.5 86.5q97 0 165 -48l-28 -52q-59 40 -137 40q-194 0 -194 -271q0 -278 194 -278q66 0 117 26v237z" />
    <glyph glyph-name="H" unicode="H" horiz-adv-x="647" 
d="M550 648v-648h-65v310h-324v-310h-65v648h65v-281h324v281h65z" />
    <glyph glyph-name="I" unicode="I" horiz-adv-x="258" 
d="M96 648h65v-648h-65v648z" />
    <glyph glyph-name="J" unicode="J" horiz-adv-x="258" 
d="M96 62v586h65v-582q0 -92 -30 -150q-31 -60 -110 -121l-35 45q66 54 88 100q22 44 22 122z" />
    <glyph glyph-name="K" unicode="K" horiz-adv-x="563" 
d="M320 386l231 -386h-76l-199 333l-115 -142v-191h-65v648h65v-370l294 370h72z" />
    <glyph glyph-name="L" unicode="L" horiz-adv-x="483" 
d="M464 57v-57h-368v648h65v-591h303z" />
    <glyph glyph-name="M" unicode="M" horiz-adv-x="758" 
d="M598 562l-192 -382h-53l-193 378v-558h-64v648h81l204 -399l200 399h81v-648h-64v562z" />
    <glyph glyph-name="N" unicode="N" horiz-adv-x="642" 
d="M545 648v-648h-86l-300 566v-566h-63v648h86l301 -567v567h62z" />
    <glyph glyph-name="O" unicode="O" horiz-adv-x="641" 
d="M579 321q0 -158 -67.5 -244.5t-191.5 -86.5q-127 0 -192.5 85.5t-65.5 251.5q0 158 67.5 244.5t190.5 86.5q127 0 193 -86t66 -251zM129 327q0 -278 191 -278t191 272q0 277 -191 277t-191 -271z" />
    <glyph glyph-name="P" unicode="P" horiz-adv-x="543" 
d="M508 457q0 -93 -56.5 -145t-155.5 -52h-135v-260h-65v648h200q99 0 155.5 -50.5t56.5 -140.5zM442 456q0 64 -38.5 99t-107.5 35h-135v-272h135q70 0 108 35.5t38 102.5z" />
    <glyph glyph-name="Q" unicode="Q" horiz-adv-x="641" 
d="M456 25l85 -108l-49 -35l-93 118q-33 -10 -79 -10q-127 0 -192.5 85.5t-65.5 251.5q0 158 67.5 244.5t190.5 86.5q127 0 193 -85.5t66 -249.5q0 -220 -123 -298zM129 327q0 -278 191 -278t191 274q0 275 -191 275t-191 -271z" />
    <glyph glyph-name="R" unicode="R" horiz-adv-x="566" 
d="M442 466q0 59 -37 91.5t-103 32.5h-141v-251h142q64 0 101.5 33.5t37.5 93.5zM365 288l159 -288h-74l-151 281h-138v-281h-65v648h206q96 0 151 -47.5t55 -132.5q0 -69 -38 -116.5t-105 -63.5z" />
    <glyph glyph-name="S" unicode="S" horiz-adv-x="475" 
d="M430 163q0 -80 -53.5 -126.5t-145.5 -46.5q-105 0 -196 63l28 52q86 -58 173 -58q60 0 95 30t35 83q0 39 -26 70q-23 29 -112 74q-84 41 -114 71q-52 48 -52 120q0 70 50 117q50 46 131 46q101 0 180 -58l-27 -51q-80 51 -153 51q-54 0 -86 -28t-32 -74q0 -38 26 -70
q24 -28 112 -73q83 -43 115 -72q52 -49 52 -120z" />
    <glyph glyph-name="T" unicode="T" horiz-adv-x="486" 
d="M16 648h454v-58h-195v-590h-64v590h-195v58z" />
    <glyph glyph-name="U" unicode="U" horiz-adv-x="611" 
d="M305 46q73 0 114 45t41 125v432h65v-432q0 -104 -59 -165t-161 -61t-160.5 60.5t-58.5 165.5v432h64v-432q0 -80 41 -125t114 -45z" />
    <glyph glyph-name="V" unicode="V" horiz-adv-x="551" 
d="M464 648h65l-209 -648h-89l-209 648h67l187 -596z" />
    <glyph glyph-name="W" unicode="W" horiz-adv-x="844" 
d="M812 648l-167 -648h-89l-130 415l-141 -415h-87l-167 648h67l147 -593l152 453l-44 140h68l179 -588l147 588h65z" />
    <glyph glyph-name="X" unicode="X" horiz-adv-x="501" 
d="M286 329l189 -329h-72l-156 273l-152 -273h-66l182 325l-186 323h72l152 -270l154 270h66z" />
    <glyph glyph-name="Y" unicode="Y" horiz-adv-x="504" 
d="M494 648l-209 -394v-254h-65v254l-210 394h70l174 -332l173 332h67z" />
    <glyph glyph-name="Z" unicode="Z" horiz-adv-x="455" 
d="M113 57h310v-57h-392v37l305 553h-300v58h382v-38z" />
    <glyph glyph-name="bracketleft" unicode="[" horiz-adv-x="285" 
d="M258 -134v-52h-162v880h162v-51h-100v-777h100z" />
    <glyph glyph-name="backslash" unicode="\" horiz-adv-x="399" 
d="M90 738l283 -828h-64l-283 828h64z" />
    <glyph glyph-name="bracketright" unicode="]" horiz-adv-x="285" 
d="M188 694v-880h-162v52h101v777h-101v51h162z" />
    <glyph glyph-name="asciicircum" unicode="^" horiz-adv-x="438" 
d="M249 549l158 -430h-69l-122 349l-116 -349h-70l158 430h61z" />
    <glyph glyph-name="underscore" unicode="_" horiz-adv-x="420" 
d="M25 -52h370v-53h-370v53z" />
    <glyph glyph-name="grave" unicode="`" 
d="M220 551l-90 107l50 39l99 -146h-59z" />
    <glyph glyph-name="a" unicode="a" horiz-adv-x="494" 
d="M113 132q0 -42 25 -65.5t69 -23.5q71 0 143 73v102h-126q-53 0 -82 -22.5t-29 -63.5zM413 322v-322h-63v64q-64 -74 -156 -74q-64 0 -103.5 38t-39.5 101q0 65 46 102t129 37h124v53q0 60 -25.5 86.5t-84.5 26.5q-67 0 -149 -46l-21 49q86 54 179 54q84 0 124 -41
t40 -128z" />
    <glyph glyph-name="b" unicode="b" horiz-adv-x="541" 
d="M481 242q0 -124 -55 -188t-160 -64q-102 0 -182 51v637h64v-258q70 71 151 71q88 0 135 -64t47 -185zM263 45q82 0 118 46.5t36 150.5q0 98 -32 145t-99 47q-72 0 -138 -66v-294q56 -29 115 -29z" />
    <glyph glyph-name="c" unicode="c" horiz-adv-x="441" 
d="M273 -10q-109 0 -161 61t-52 188q0 124 54 188t158 64q77 0 139 -37l-22 -52q-56 32 -119 32q-146 0 -146 -195q0 -100 36 -146t113 -46q51 0 113 29l18 -50q-60 -36 -131 -36z" />
    <glyph glyph-name="d" unicode="d" horiz-adv-x="543" 
d="M124 239q0 -99 31.5 -146t98.5 -47q73 0 139 67v291q-60 31 -119 31q-78 0 -114 -47t-36 -149zM456 678v-678h-63v60q-70 -70 -152 -70q-88 0 -134.5 64t-46.5 185q0 120 54 186t150 66q68 0 129 -36v223h63z" />
    <glyph glyph-name="e" unicode="e" 
d="M418 83l21 -45q-68 -48 -164 -48q-106 0 -161 62t-55 181q0 122 53.5 190t148.5 68q85 0 134 -55.5t49 -150.5q0 -16 -3 -40l-19 -22h-301q4 -178 155 -178q70 0 142 38zM261 437q-127 0 -139 -162h263v6q0 156 -124 156z" />
    <glyph glyph-name="f" unicode="f" horiz-adv-x="323" 
d="M174 481h140v-52h-140v-429h-63v429h-87v42l87 10v49q0 75 39.5 116.5t111.5 41.5q42 0 79 -14l-10 -49q-27 9 -63 9q-51 0 -72.5 -23.5t-21.5 -82.5v-47z" />
    <glyph glyph-name="g" unicode="g" horiz-adv-x="505" 
d="M138 331q0 -108 117 -108q57 0 87 28t30 81q0 108 -117 108q-57 0 -87 -28t-30 -81zM478 -34q0 -74 -70 -122q-70 -49 -178 -49q-87 0 -138 34.5t-51 91.5q0 73 80 108q-53 27 -53 80q0 62 73 92q-64 44 -64 130q0 74 48 117t130 43q43 0 76 -11l153 45l14 -52l-113 -28
q48 -42 48 -113q0 -74 -48 -117t-130 -43q-37 0 -64 7l-4 -1q-60 -19 -60 -58q0 -22 17.5 -34.5t47.5 -12.5h145q69 0 105 -27.5t36 -79.5zM101 -71q0 -38 35.5 -61t95.5 -23q80 0 133 32q52 31 52 80q0 57 -79 57h-154q-83 -25 -83 -85z" />
    <glyph glyph-name="h" unicode="h" horiz-adv-x="543" 
d="M305 434q-70 0 -155 -67v-367h-64v678h64v-262q92 75 169 75q69 0 105.5 -41t36.5 -120v-330h-63v330q0 104 -93 104z" />
    <glyph glyph-name="i" unicode="i" horiz-adv-x="236" 
d="M160 618q0 -18 -11.5 -30t-30.5 -12t-31 12t-12 30q0 19 12 31t31 12t30.5 -12t11.5 -31zM86 0v481h64v-481h-64z" />
    <glyph glyph-name="j" unicode="j" horiz-adv-x="236" 
d="M160 618q0 -18 -11.5 -30t-30.5 -12t-31 12t-12 30q0 19 12 31t31 12t30.5 -12t11.5 -31zM86 53v428h64v-424q0 -90 -29 -148t-104 -114l-37 46q61 49 84 94q22 43 22 118z" />
    <glyph glyph-name="k" unicode="k" horiz-adv-x="481" 
d="M287 297l179 -297h-71l-153 252l-92 -100v-152h-64v678h64v-451l231 254h69z" />
    <glyph glyph-name="l" unicode="l" horiz-adv-x="236" 
d="M86 0v678h64v-678h-64z" />
    <glyph glyph-name="m" unicode="m" horiz-adv-x="832" 
d="M294 434q-64 0 -144 -67v-367h-64v481h64v-64q49 41 84 57.5t74 16.5q99 0 130 -82q51 45 89.5 63.5t80.5 18.5q69 0 105.5 -41t36.5 -120v-330h-63v330q0 104 -93 104q-64 0 -146 -69q2 -32 2 -35v-330h-63v330q0 104 -93 104z" />
    <glyph glyph-name="n" unicode="n" horiz-adv-x="543" 
d="M305 434q-70 0 -155 -67v-367h-64v481h64v-65q92 75 169 75q69 0 105.5 -41t36.5 -120v-330h-63v330q0 104 -93 104z" />
    <glyph glyph-name="o" unicode="o" horiz-adv-x="521" 
d="M461 239q0 -119 -52.5 -184t-148.5 -65q-98 0 -149.5 64.5t-51.5 187.5q0 119 52.5 184t148.5 65q98 0 149.5 -64.5t51.5 -187.5zM123 242q0 -197 137 -197t137 194q0 197 -137 197t-137 -194z" />
    <glyph glyph-name="p" unicode="p" horiz-adv-x="543" 
d="M269 45q78 0 114 47.5t36 149.5q0 98 -32 145t-99 47q-72 0 -138 -66v-292q60 -31 119 -31zM483 242q0 -120 -54 -186t-151 -66q-65 0 -128 35v-220h-64v676h64v-61q70 71 151 71q88 0 135 -64t47 -185z" />
    <glyph glyph-name="q" unicode="q" horiz-adv-x="542" 
d="M456 443v-638h-63v255q-70 -70 -152 -70q-88 0 -134.5 64t-46.5 185q0 124 54.5 188t159.5 64q102 0 182 -48zM124 239q0 -99 31.5 -146t98.5 -47q73 0 139 67v294q-61 28 -116 28q-81 0 -117 -46.5t-36 -149.5z" />
    <glyph glyph-name="r" unicode="r" horiz-adv-x="331" 
d="M150 365v-365h-64v481h64v-67q42 43 78.5 60t87.5 17v-60q-53 -2 -89.5 -17t-76.5 -49z" />
    <glyph glyph-name="s" unicode="s" horiz-adv-x="408" 
d="M363 122q0 -61 -43 -96.5t-116 -35.5q-90 0 -164 52l24 49q75 -47 143 -47q45 0 69.5 20t24.5 56q0 27 -20 47q-19 20 -84 49q-83 34 -111 67q-27 33 -27 80q0 57 42 92.5t111 35.5q75 0 145 -43l-24 -50q-61 38 -120 38q-92 0 -92 -72q0 -27 20 -49q19 -21 86 -48
q83 -35 109 -67q27 -32 27 -78z" />
    <glyph glyph-name="t" unicode="t" horiz-adv-x="359" 
d="M331 70l16 -46q-55 -34 -115 -34q-130 0 -130 141v298h-87v42l87 10l15 125h46v-125h165v-52h-165v-295q0 -88 77 -88q42 0 91 24z" />
    <glyph glyph-name="u" unicode="u" horiz-adv-x="536" 
d="M449 481v-481h-63v64q-90 -74 -163 -74q-69 0 -105.5 41t-36.5 119v331h63v-330q0 -104 93 -104q67 0 149 66v368h63z" />
    <glyph glyph-name="v" unicode="v" horiz-adv-x="464" 
d="M444 481l-171 -481h-83l-170 481h66l146 -435l146 435h66z" />
    <glyph glyph-name="w" unicode="w" horiz-adv-x="707" 
d="M354 321l-111 -321h-79l-138 481h64l115 -437l123 355l-28 82h64l137 -435l116 435h63l-138 -481h-79z" />
    <glyph glyph-name="x" unicode="x" horiz-adv-x="431" 
d="M251 247l157 -247h-68l-128 202l-123 -202h-66l154 244l-149 237h69l119 -193l120 193h66z" />
    <glyph glyph-name="y" unicode="y" horiz-adv-x="451" 
d="M365 481h63l-221 -676h-62l65 195h-35l-152 481h63l136 -440z" />
    <glyph glyph-name="z" unicode="z" horiz-adv-x="390" 
d="M108 50h250v-50h-325v38l244 392h-239v51h315v-38z" />
    <glyph glyph-name="braceleft" unicode="{" horiz-adv-x="303" 
d="M220 -139h56v-52h-50q-62 0 -97 31.5t-35 86.5q0 42 26 127q23 74 23 105q0 68 -63 68h-27v56h27q63 0 63 66q0 32 -23 106q-26 85 -26 127q0 55 34 86t94 31h54v-51h-56q-31 0 -48 -18t-17 -51q0 -31 23 -115q24 -88 24 -123q0 -34 -17 -57t-48 -30q65 -13 65 -87
q0 -35 -24 -123q-23 -84 -23 -114q0 -33 17 -51t48 -18z" />
    <glyph glyph-name="bar" unicode="|" horiz-adv-x="258" 
d="M96 678h65v-828h-65v828z" />
    <glyph glyph-name="braceright" unicode="}" horiz-adv-x="303" 
d="M208 -73q0 -55 -34.5 -86.5t-96.5 -31.5h-51v52h56q66 0 66 69q0 30 -23 114q-25 87 -25 123q0 34 17.5 57.5t48.5 30.5q-31 6 -48.5 29t-17.5 57q0 36 25 123q23 84 23 115q0 69 -66 69h-56v51h54q60 0 94 -31t34 -86q0 -42 -26 -127q-22 -71 -22 -106q0 -66 63 -66h27
v-56h-27q-63 0 -63 -68q0 -34 22 -105q26 -85 26 -127z" />
    <glyph glyph-name="asciitilde" unicode="~" horiz-adv-x="438" 
d="M225 342q51 -21 74 -21q34 0 78 33l29 -40q-51 -51 -109 -51q-31 0 -94 26q-46 19 -64 19q-35 0 -79 -34l-29 40q49 52 109 52q29 0 85 -24z" />
    <glyph glyph-name="uni00A0" unicode="&#xa0;" horiz-adv-x="183" 
 />
    <glyph glyph-name="exclamdown" unicode="&#xa1;" horiz-adv-x="254" 
d="M83 447q0 19 12.5 31.5t31.5 12.5t31.5 -12.5t12.5 -31.5t-12.5 -31.5t-31.5 -12.5t-31.5 12.5t-12.5 31.5zM159 -8v-158h-66v158l9 299h49z" />
    <glyph glyph-name="cent" unicode="&#xa2;" horiz-adv-x="428" 
d="M374 176l17 -50q-51 -31 -116 -36v-100h-60v103q-163 23 -163 229t163 232v104h60v-100q66 -5 116 -35l-21 -52q-54 30 -111 30q-144 0 -144 -179q0 -91 35.5 -133t111.5 -42q51 0 112 29z" />
    <glyph glyph-name="sterling" unicode="&#xa3;" horiz-adv-x="510" 
d="M164 54h322v-54h-440v53l22 3q54 9 78 32t24 66q0 49 -32 136h-92v52h73q-27 74 -27 135q0 81 55 130q55 51 145 51q85 0 172 -52l-25 -49q-70 45 -143 45q-68 0 -104 -32.5t-36 -92.5q0 -48 29 -135h231v-52h-213q29 -81 29 -128q0 -83 -68 -108z" />
    <glyph glyph-name="currency" unicode="&#xa4;" horiz-adv-x="473" 
d="M396 201l44 -44l-42 -42l-44 44l-39 48q-35 -24 -79 -24q-42 0 -80 25l-39 -49l-44 -44l-42 42l44 44l48 39q-29 38 -29 86q0 47 29 85l-47 38l-44 44l41 43l44 -45l40 -48q35 24 79 24q41 0 79 -23l39 48l44 44l42 -42l-44 -44l-47 -38q30 -36 30 -86t-30 -87zM150 326
q0 -38 25 -64.5t61 -26.5t61.5 27t25.5 64q0 38 -25 63.5t-62 25.5t-61.5 -25.5t-24.5 -63.5z" />
    <glyph glyph-name="yen" unicode="&#xa5;" horiz-adv-x="540" 
d="M303 243h158v-52h-158v-191h-65v191h-158v52h158v11l-41 76h-137v51h110l-142 267h70l174 -332l173 332h66l-141 -267h111v-51h-138l-40 -76v-11z" />
    <glyph glyph-name="brokenbar" unicode="&#xa6;" horiz-adv-x="258" 
d="M96 678h65v-374h-65v374zM96 224h65v-374h-65v374z" />
    <glyph glyph-name="section" unicode="&#xa7;" horiz-adv-x="480" 
d="M181 352q-56 -24 -56 -84t74 -101q29 -15 61 -31l59 -28q55 28 55 84q0 61 -73 102q-18 11 -62 30q-57 27 -58 28zM428 -38q0 -76 -52.5 -121.5t-140.5 -45.5q-103 0 -198 65l28 51q89 -58 178 -58q55 0 88 27.5t33 75.5q0 35 -26 64q-24 27 -111 68q-82 36 -111 63
q-54 45 -54 111q0 76 71 120q-62 48 -62 122q0 66 50 110q52 44 130 44q96 0 177 -59l-26 -50q-77 51 -151 51q-54 0 -85 -25t-31 -67q0 -37 26 -66q24 -27 111 -68q78 -36 112 -64q53 -46 53 -112q0 -77 -70 -120q61 -46 61 -116z" />
    <glyph glyph-name="dieresis" unicode="&#xa8;" 
d="M211 618q0 -18 -11.5 -30t-30.5 -12t-31 12t-12 30q0 19 12 31t31 12t30.5 -12t11.5 -31zM373 618q0 -18 -12 -30t-31 -12t-30.5 12t-11.5 30q0 19 11.5 31t30.5 12t31 -12t12 -31z" />
    <glyph glyph-name="copyright" unicode="&#xa9;" horiz-adv-x="809" 
d="M68 325q0 137 99 235q100 98 237 98q140 0 238 -95t98 -234t-99 -239t-237 -100q-141 0 -238 97q-98 98 -98 238zM684 329q0 117 -81 197q-82 80 -199 80q-116 0 -198 -82q-81 -82 -81 -199q0 -120 80 -203q81 -81 199 -81q116 0 198 84q82 85 82 204zM419 156
q-71 0 -110.5 45t-39.5 125q0 79 40.5 125.5t109.5 46.5q48 0 91 -25l-14 -45q-44 22 -77 22q-43 0 -69.5 -33.5t-26.5 -90.5t26 -89.5t70 -32.5q35 0 83 21l12 -42q-41 -27 -95 -27z" />
    <glyph glyph-name="ordfeminine" unicode="&#xaa;" horiz-adv-x="373" 
d="M104 441q0 -21 14 -33t38 -12q56 0 93 49v41h-90q-55 0 -55 -45zM301 542v-184h-52v41q-41 -47 -102 -47q-41 0 -67 23.5t-26 62.5q0 40 29 64t79 24h87v15q0 37 -16 53t-54 16q-40 0 -97 -27l-18 41q58 34 119 34q118 0 118 -116z" />
    <glyph glyph-name="guillemotleft" unicode="&#xab;" horiz-adv-x="533" 
d="M324 255l154 -107v-73l-204 146v62l204 146v-68zM95 255l161 -107v-73l-211 146v62l211 146v-68z" />
    <glyph glyph-name="logicalnot" unicode="&#xac;" horiz-adv-x="438" 
d="M30 333h378v-221h-62v165h-316v56z" />
    <glyph glyph-name="uni00AD" unicode="&#xad;" horiz-adv-x="0" 
 />
    <glyph glyph-name="registered" unicode="&#xae;" horiz-adv-x="809" 
d="M68 325q0 137 99 235q100 98 237 98q140 0 238 -95t98 -234t-99 -239t-237 -100q-141 0 -238 97q-98 98 -98 238zM684 329q0 117 -81 197q-82 80 -199 80q-116 0 -198 -82q-81 -82 -81 -199q0 -120 80 -203q81 -81 199 -81q116 0 198 84q82 85 82 204zM488 390
q0 55 -63 55h-75v-115h78q28 0 44 15.5t16 44.5zM474 295l68 -127h-57l-62 120h-73v-120h-51v320h132q50 0 79 -25.5t29 -71.5q0 -72 -65 -96z" />
    <glyph glyph-name="overscore" unicode="&#xaf;" 
d="M126 583v54h247v-54h-247z" />
    <glyph glyph-name="degree" unicode="&#xb0;" horiz-adv-x="307" 
d="M262 550q0 -44 -33 -76q-31 -31 -77 -31q-43 0 -75 32t-32 75q0 45 31 76q32 32 76 32q45 0 77 -32q33 -32 33 -76zM94 550q0 -25 17 -43.5t41 -18.5q26 0 43.5 18t17.5 44q0 28 -17 45.5t-44 17.5q-25 0 -41.5 -18t-16.5 -45z" />
    <glyph glyph-name="plusminus" unicode="&#xb1;" horiz-adv-x="438" 
d="M249 383h159v-56h-159v-165h-61v165h-158v56h158v157h61v-157zM30 56h378v-56h-378v56z" />
    <glyph glyph-name="twosuperior" unicode="&#xb2;" horiz-adv-x="273" 
d="M96 470h144v-46h-221v35q99 83 129 120q31 37 31 74q0 25 -16 39t-44 14q-42 0 -83 -19l-14 43q47 23 101 23q51 0 80 -26t29 -73q0 -44 -28 -81q-27 -36 -108 -103z" />
    <glyph glyph-name="threesuperior" unicode="&#xb3;" horiz-adv-x="283" 
d="M249 516q0 -45 -33 -71t-88 -26t-100 20l13 43q45 -17 89 -17q32 0 50 14.5t18 40.5q0 22 -17.5 35.5t-46.5 13.5h-65v43h63q27 0 42.5 13t15.5 36q0 45 -60 45q-42 0 -82 -17l-13 42q47 22 95 22q52 0 81.5 -22.5t29.5 -62.5q0 -56 -52 -75q28 -9 44 -29.5t16 -47.5z
" />
    <glyph glyph-name="acute" unicode="&#xb4;" 
d="M370 658l-90 -107h-59l99 146z" />
    <glyph glyph-name="mu" unicode="&#xb5;" horiz-adv-x="535" 
d="M226 -10q-56 0 -81 31v-216h-62v676h63v-330q0 -104 93 -104q67 0 149 67v367h64v-481h-64v64q-87 -74 -162 -74z" />
    <glyph glyph-name="paragraph" unicode="&#xb6;" horiz-adv-x="593" 
d="M261 648h68v-648h-64v280h-4q-94 0 -148.5 49.5t-54.5 136.5q0 86 54.5 134t148.5 48zM496 648v-648h-65v648h65z" />
    <glyph glyph-name="middot" unicode="&#xb7;" 
d="M292 348q0 -18 -11.5 -30t-30.5 -12t-31 12t-12 30q0 19 12 31t31 12q18 0 30 -12.5t12 -30.5z" />
    <glyph glyph-name="cedilla" unicode="&#xb8;" 
d="M347 -126q0 -38 -27.5 -60.5t-72.5 -22.5q-48 0 -86 17l13 40q33 -13 66 -13q51 0 51 39q0 33 -46 33q-21 0 -40 -6l-17 23l34 89h45l-20 -65q4 1 13 1q40 0 63.5 -20.5t23.5 -54.5z" />
    <glyph glyph-name="onesuperior" unicode="&#xb9;" horiz-adv-x="244" 
d="M157 470h69v-46h-197v46h76v231h-76v47h128v-278z" />
    <glyph glyph-name="ordmasculine" unicode="&#xba;" horiz-adv-x="362" 
d="M311 504q0 -72 -34 -112t-96 -40q-64 0 -97.5 39.5t-33.5 114.5q0 72 34.5 112t96.5 40q63 0 96.5 -39.5t33.5 -114.5zM104 506q0 -108 77 -108q76 0 76 106q0 107 -76 107q-77 0 -77 -105z" />
    <glyph glyph-name="guillemotright" unicode="&#xbb;" horiz-adv-x="533" 
d="M258 283v-62l-203 -146v68l154 107l-154 107v72zM488 283v-62l-212 -146v68l161 107l-161 107v72z" />
    <glyph glyph-name="onequarter" unicode="&#xbc;" horiz-adv-x="677" 
d="M157 370h69v-46h-197v46h76v231h-76v47h128v-278zM488 648h59l-377 -648h-60zM609 99h47v-42h-47v-57h-49v57h-164l-4 32q28 58 72 124q42 63 89 111h56v-225zM443 99h117v176q-67 -79 -117 -176z" />
    <glyph glyph-name="onehalf" unicode="&#xbd;" horiz-adv-x="691" 
d="M157 370h69v-46h-197v46h76v231h-76v47h128v-278zM488 648h59l-377 -648h-60zM513 46h144v-46h-221v35q99 83 129 120q31 37 31 74q0 25 -16 39t-44 14q-42 0 -83 -19l-14 43q47 23 101 23q51 0 80 -26t29 -73q0 -44 -28 -81q-27 -36 -108 -103z" />
    <glyph glyph-name="threequarters" unicode="&#xbe;" horiz-adv-x="716" 
d="M249 416q0 -45 -33 -71t-88 -26t-100 20l13 43q45 -17 89 -17q32 0 50 14.5t18 40.5q0 22 -17.5 35.5t-46.5 13.5h-65v43h63q27 0 42.5 13t15.5 36q0 45 -60 45q-42 0 -82 -17l-13 42q47 22 95 22q52 0 81.5 -22.5t29.5 -62.5q0 -56 -52 -75q28 -9 44 -29.5t16 -47.5z
M527 648h59l-377 -648h-60zM648 99h47v-42h-47v-57h-49v57h-164l-4 32q28 58 72 124q42 63 89 111h56v-225zM482 99h117v176q-67 -79 -117 -176z" />
    <glyph glyph-name="questiondown" unicode="&#xbf;" horiz-adv-x="438" 
d="M207 447q0 19 12 31.5t32 12.5q19 0 31 -12.5t12 -31.5t-12 -31.5t-31 -12.5q-20 0 -32 12.5t-12 31.5zM232 -176q-90 0 -140.5 45t-50.5 125q0 67 40.5 112.5t126.5 76.5l12 5l5 103h49l6 -118l-16 -23l-39 -14q-63 -23 -91.5 -56.5t-28.5 -84.5q0 -53 34 -83.5
t94 -30.5q75 0 148 33l18 -52q-79 -38 -167 -38z" />
    <glyph glyph-name="Agrave" unicode="&#xc0;" horiz-adv-x="551" 
d="M164 247l110 351l110 -351h-220zM529 0l-209 648h-89l-209 -648h64l60 190h256l60 -190h67zM243 717l-90 107l50 39l99 -146h-59z" />
    <glyph glyph-name="Aacute" unicode="&#xc1;" horiz-adv-x="551" 
d="M274 598l-110 -351h220zM320 648l209 -648h-67l-60 190h-256l-60 -190h-64l209 648h89zM393 824l-90 -107h-59l99 146z" />
    <glyph glyph-name="Acircumflex" unicode="&#xc2;" horiz-adv-x="551" 
d="M274 598l-110 -351h220zM320 648l209 -648h-67l-60 190h-256l-60 -190h-64l209 648h89zM295 859l108 -142h-60l-71 88l-72 -88h-58l108 142h45z" />
    <glyph glyph-name="Atilde" unicode="&#xc3;" horiz-adv-x="551" 
d="M274 598l-110 -351h220zM320 648l209 -648h-67l-60 190h-256l-60 -190h-64l209 648h89zM216 846q29 0 72 -43q29 -29 43 -29q13 0 22 14.5t19 49.5l46 -15q-28 -101 -89 -101q-31 0 -75 43q-27 28 -40 28t-22 -14.5t-19 -49.5l-47 16q30 101 90 101z" />
    <glyph glyph-name="Adieresis" unicode="&#xc4;" horiz-adv-x="551" 
d="M274 598l-110 -351h220zM320 648l209 -648h-67l-60 190h-256l-60 -190h-64l209 648h89zM234 784q0 -18 -11.5 -30t-30.5 -12t-31 12t-12 30q0 19 12 31t31 12t30.5 -12t11.5 -31zM396 784q0 -18 -12 -30t-31 -12t-30.5 12t-11.5 30q0 19 11.5 31t30.5 12t31 -12t12 -31z
" />
    <glyph glyph-name="Aring" unicode="&#xc5;" horiz-adv-x="551" 
d="M274 598l-110 -351h220zM320 648l209 -648h-67l-60 190h-256l-60 -190h-64l209 648h89zM376 801q0 -40 -28.5 -65.5t-74.5 -25.5q-49 0 -76.5 24.5t-27.5 67.5q0 41 28.5 66t75.5 25q49 0 76 -24t27 -68zM220 802q0 -49 53 -49q52 0 52 48q0 49 -52 49q-53 0 -53 -48z
" />
    <glyph glyph-name="AE" unicode="&#xc6;" horiz-adv-x="806" 
d="M327 590l-144 -343h216v343h-72zM760 57v-57h-361v190h-240l-80 -190h-66l276 648h471v-58h-297v-233h247v-58h-247v-242h297z" />
    <glyph glyph-name="Ccedilla" unicode="&#xc7;" horiz-adv-x="526" 
d="M399 -126q0 -38 -27.5 -60.5t-72.5 -22.5q-48 0 -86 17l13 40q33 -13 66 -13q51 0 51 39q0 33 -46 33q-21 0 -40 -6l-17 23l27 70q-206 37 -206 333q0 158 67 244.5t190 86.5q97 0 174 -52l-28 -53q-66 45 -146 45q-189 0 -189 -271q0 -278 191 -278q77 0 154 51l28 -47
q-76 -63 -182 -63h-8l-13 -42q4 1 13 1q40 0 63.5 -20.5t23.5 -54.5z" />
    <glyph glyph-name="Egrave" unicode="&#xc8;" horiz-adv-x="504" 
d="M458 0v57h-297v242h247v58h-247v233h297v58h-362v-648h362zM254 717l-90 107l50 39l99 -146h-59z" />
    <glyph glyph-name="Eacute" unicode="&#xc9;" horiz-adv-x="504" 
d="M458 57v-57h-362v648h362v-58h-297v-233h247v-58h-247v-242h297zM377 824l-90 -107h-59l99 146z" />
    <glyph glyph-name="Ecircumflex" unicode="&#xca;" horiz-adv-x="504" 
d="M458 57v-57h-362v648h362v-58h-297v-233h247v-58h-247v-242h297zM302 859l108 -142h-60l-71 88l-72 -88h-58l108 142h45z" />
    <glyph glyph-name="Edieresis" unicode="&#xcb;" horiz-adv-x="504" 
d="M458 57v-57h-362v648h362v-58h-297v-233h247v-58h-247v-242h297zM241 784q0 -18 -11.5 -30t-30.5 -12t-31 12t-12 30q0 19 12 31t31 12t30.5 -12t11.5 -31zM403 784q0 -18 -12 -30t-31 -12t-30.5 12t-11.5 30q0 19 11.5 31t30.5 12t31 -12t12 -31z" />
    <glyph glyph-name="Igrave" unicode="&#xcc;" horiz-adv-x="258" 
d="M161 648h-65v-648h65v648zM100 717l-90 107l50 39l99 -146h-59z" />
    <glyph glyph-name="Iacute" unicode="&#xcd;" horiz-adv-x="258" 
d="M96 648h65v-648h-65v648zM249 824l-90 -107h-59l99 146z" />
    <glyph glyph-name="Icircumflex" unicode="&#xce;" horiz-adv-x="258" 
d="M96 648h65v-648h-65v648zM152 859l108 -142h-60l-71 88l-72 -88h-58l108 142h45z" />
    <glyph glyph-name="Idieresis" unicode="&#xcf;" horiz-adv-x="258" 
d="M96 648h65v-648h-65v648zM91 784q0 -18 -11.5 -30t-30.5 -12t-31 12t-12 30q0 19 12 31t31 12t30.5 -12t11.5 -31zM253 784q0 -18 -12 -30t-31 -12t-30.5 12t-11.5 30q0 19 11.5 31t30.5 12t31 -12t12 -31z" />
    <glyph glyph-name="Eth" unicode="&#xd0;" horiz-adv-x="627" 
d="M307 0h-195v306h-82v55h82v287h195q128 0 194 -82.5t66 -242.5q0 -156 -67.5 -239.5t-192.5 -83.5zM177 361h152v-55h-152v-247h130q192 0 192 264q0 265 -192 265h-130v-227z" />
    <glyph glyph-name="Ntilde" unicode="&#xd1;" horiz-adv-x="642" 
d="M545 648v-648h-86l-300 566v-566h-63v648h86l301 -567v567h62zM264 846q29 0 72 -43q29 -29 43 -29q13 0 22 14.5t19 49.5l46 -15q-28 -101 -89 -101q-31 0 -75 43q-27 28 -40 28t-22 -14.5t-19 -49.5l-47 16q30 101 90 101z" />
    <glyph glyph-name="Ograve" unicode="&#xd2;" horiz-adv-x="641" 
d="M579 321q0 165 -66 251t-193 86q-123 0 -190.5 -86.5t-67.5 -244.5q0 -166 65.5 -251.5t192.5 -85.5q124 0 191.5 86.5t67.5 244.5zM129 327q0 271 191 271t191 -277q0 -272 -191 -272t-191 278zM291 717l-90 107l50 39l99 -146h-59z" />
    <glyph glyph-name="Oacute" unicode="&#xd3;" horiz-adv-x="641" 
d="M579 321q0 -158 -67.5 -244.5t-191.5 -86.5q-127 0 -192.5 85.5t-65.5 251.5q0 158 67.5 244.5t190.5 86.5q127 0 193 -86t66 -251zM129 327q0 -278 191 -278t191 272q0 277 -191 277t-191 -271zM441 824l-90 -107h-59l99 146z" />
    <glyph glyph-name="Ocircumflex" unicode="&#xd4;" horiz-adv-x="641" 
d="M579 321q0 -158 -67.5 -244.5t-191.5 -86.5q-127 0 -192.5 85.5t-65.5 251.5q0 158 67.5 244.5t190.5 86.5q127 0 193 -86t66 -251zM129 327q0 -278 191 -278t191 272q0 277 -191 277t-191 -271zM343 859l108 -142h-60l-71 88l-72 -88h-58l108 142h45z" />
    <glyph glyph-name="Otilde" unicode="&#xd5;" horiz-adv-x="641" 
d="M579 321q0 -158 -67.5 -244.5t-191.5 -86.5q-127 0 -192.5 85.5t-65.5 251.5q0 158 67.5 244.5t190.5 86.5q127 0 193 -86t66 -251zM129 327q0 -278 191 -278t191 272q0 277 -191 277t-191 -271zM264 846q29 0 72 -43q29 -29 43 -29q13 0 22 14.5t19 49.5l46 -15
q-28 -101 -89 -101q-31 0 -75 43q-27 28 -40 28t-22 -14.5t-19 -49.5l-47 16q30 101 90 101z" />
    <glyph glyph-name="Odieresis" unicode="&#xd6;" horiz-adv-x="641" 
d="M579 321q0 -158 -67.5 -244.5t-191.5 -86.5q-127 0 -192.5 85.5t-65.5 251.5q0 158 67.5 244.5t190.5 86.5q127 0 193 -86t66 -251zM129 327q0 -278 191 -278t191 272q0 277 -191 277t-191 -271zM282 784q0 -18 -11.5 -30t-30.5 -12t-31 12t-12 30q0 19 12 31t31 12
t30.5 -12t11.5 -31zM444 784q0 -18 -12 -30t-31 -12t-30.5 12t-11.5 30q0 19 11.5 31t30.5 12t31 -12t12 -31z" />
    <glyph glyph-name="multiply" unicode="&#xd7;" horiz-adv-x="438" 
d="M261 306l129 -128l-43 -43l-129 128l-128 -129l-41 40l129 129l-127 126l43 43l127 -126l123 124l41 -40z" />
    <glyph glyph-name="Oslash" unicode="&#xd8;" horiz-adv-x="641" 
d="M320 598q-191 0 -191 -271q0 -129 41 -197l269 426q-44 42 -119 42zM320 49q191 0 191 274q0 118 -35 185l-268 -424q45 -35 112 -35zM579 323q0 -160 -67 -246.5t-192 -86.5q-87 0 -146 41l-38 -61l-48 30l44 70q-70 85 -70 257q0 158 67.5 244.5t190.5 86.5
q94 0 154 -47l42 67l48 -30l-49 -78q64 -85 64 -247z" />
    <glyph glyph-name="Ugrave" unicode="&#xd9;" horiz-adv-x="611" 
d="M305 46q-73 0 -114 45t-41 125v432h-64v-432q0 -105 58.5 -165.5t160.5 -60.5t161 61t59 165v432h-65v-432q0 -80 -41 -125t-114 -45zM275 717l-90 107l50 39l99 -146h-59z" />
    <glyph glyph-name="Uacute" unicode="&#xda;" horiz-adv-x="611" 
d="M305 46q73 0 114 45t41 125v432h65v-432q0 -104 -59 -165t-161 -61t-160.5 60.5t-58.5 165.5v432h64v-432q0 -80 41 -125t114 -45zM425 824l-90 -107h-59l99 146z" />
    <glyph glyph-name="Ucircumflex" unicode="&#xdb;" horiz-adv-x="611" 
d="M305 46q73 0 114 45t41 125v432h65v-432q0 -104 -59 -165t-161 -61t-160.5 60.5t-58.5 165.5v432h64v-432q0 -80 41 -125t114 -45zM327 859l108 -142h-60l-71 88l-72 -88h-58l108 142h45z" />
    <glyph glyph-name="Udieresis" unicode="&#xdc;" horiz-adv-x="611" 
d="M305 46q73 0 114 45t41 125v432h65v-432q0 -104 -59 -165t-161 -61t-160.5 60.5t-58.5 165.5v432h64v-432q0 -80 41 -125t114 -45zM266 784q0 -18 -11.5 -30t-30.5 -12t-31 12t-12 30q0 19 12 31t31 12t30.5 -12t11.5 -31zM428 784q0 -18 -12 -30t-31 -12t-30.5 12
t-11.5 30q0 19 11.5 31t30.5 12t31 -12t12 -31z" />
    <glyph glyph-name="Yacute" unicode="&#xdd;" horiz-adv-x="504" 
d="M494 648l-209 -394v-254h-65v254l-210 394h70l174 -332l173 332h67zM375 824l-90 -107h-59l99 146z" />
    <glyph glyph-name="Thorn" unicode="&#xde;" horiz-adv-x="541" 
d="M506 337q0 -93 -56 -145t-155 -52h-134v-140h-65v648h65v-121h134q99 0 155 -50t56 -140zM441 336q0 65 -38 99.5t-108 34.5h-134v-272h135q70 0 107.5 35.5t37.5 102.5z" />
    <glyph glyph-name="germandbls" unicode="&#xdf;" horiz-adv-x="538" 
d="M150 497v-497h-64v497q0 90 48.5 140.5t134.5 50.5q74 0 119 -39.5t45 -102.5q0 -52 -49 -114q-32 -43 -32 -64q0 -13 11 -28.5t44 -47.5q57 -55 76 -91q20 -35 20 -72q0 -63 -41 -101t-108 -38q-74 0 -133 39l23 49q55 -34 112 -34q39 0 62 21t23 57q0 28 -16 56
q-17 28 -66 75q-43 42 -57 63q-13 22 -13 43q0 33 38 85q43 60 43 102q0 40 -28 64t-74 24q-118 0 -118 -137z" />
    <glyph glyph-name="agrave" unicode="&#xe0;" horiz-adv-x="494" 
d="M113 132q0 41 29 63.5t82 22.5h126v-102q-72 -73 -143 -73q-44 0 -69 23.5t-25 65.5zM413 0v322q0 87 -40 128t-124 41q-93 0 -179 -54l21 -49q82 46 149 46q59 0 84.5 -26.5t25.5 -86.5v-53h-124q-83 0 -129 -37t-46 -102q0 -63 39.5 -101t103.5 -38q92 0 156 74v-64h63
zM214 551l-90 107l50 39l99 -146h-59z" />
    <glyph glyph-name="aacute" unicode="&#xe1;" horiz-adv-x="494" 
d="M113 132q0 -42 25 -65.5t69 -23.5q71 0 143 73v102h-126q-53 0 -82 -22.5t-29 -63.5zM413 322v-322h-63v64q-64 -74 -156 -74q-64 0 -103.5 38t-39.5 101q0 65 46 102t129 37h124v53q0 60 -25.5 86.5t-84.5 26.5q-67 0 -149 -46l-21 49q86 54 179 54q84 0 124 -41
t40 -128zM364 658l-90 -107h-59l99 146z" />
    <glyph glyph-name="acircumflex" unicode="&#xe2;" horiz-adv-x="494" 
d="M113 132q0 -42 25 -65.5t69 -23.5q71 0 143 73v102h-126q-53 0 -82 -22.5t-29 -63.5zM413 322v-322h-63v64q-64 -74 -156 -74q-64 0 -103.5 38t-39.5 101q0 65 46 102t129 37h124v53q0 60 -25.5 86.5t-84.5 26.5q-67 0 -149 -46l-21 49q86 54 179 54q84 0 124 -41
t40 -128zM266 693l108 -142h-60l-71 88l-72 -88h-58l108 142h45z" />
    <glyph glyph-name="atilde" unicode="&#xe3;" horiz-adv-x="494" 
d="M113 132q0 -42 25 -65.5t69 -23.5q71 0 143 73v102h-126q-53 0 -82 -22.5t-29 -63.5zM413 322v-322h-63v64q-64 -74 -156 -74q-64 0 -103.5 38t-39.5 101q0 65 46 102t129 37h124v53q0 60 -25.5 86.5t-84.5 26.5q-67 0 -149 -46l-21 49q86 54 179 54q84 0 124 -41
t40 -128zM187 680q29 0 72 -43q29 -29 43 -29q13 0 22 14.5t19 49.5l46 -15q-28 -101 -89 -101q-31 0 -75 43q-27 28 -40 28t-22 -14.5t-19 -49.5l-47 16q30 101 90 101z" />
    <glyph glyph-name="adieresis" unicode="&#xe4;" horiz-adv-x="494" 
d="M113 132q0 -42 25 -65.5t69 -23.5q71 0 143 73v102h-126q-53 0 -82 -22.5t-29 -63.5zM413 322v-322h-63v64q-64 -74 -156 -74q-64 0 -103.5 38t-39.5 101q0 65 46 102t129 37h124v53q0 60 -25.5 86.5t-84.5 26.5q-67 0 -149 -46l-21 49q86 54 179 54q84 0 124 -41
t40 -128zM205 618q0 -18 -11.5 -30t-30.5 -12t-31 12t-12 30q0 19 12 31t31 12t30.5 -12t11.5 -31zM367 618q0 -18 -12 -30t-31 -12t-30.5 12t-11.5 30q0 19 11.5 31t30.5 12t31 -12t12 -31z" />
    <glyph glyph-name="aring" unicode="&#xe5;" horiz-adv-x="494" 
d="M113 132q0 -42 25 -65.5t69 -23.5q71 0 143 73v102h-126q-53 0 -82 -22.5t-29 -63.5zM413 322v-322h-63v64q-64 -74 -156 -74q-64 0 -103.5 38t-39.5 101q0 65 46 102t129 37h124v53q0 60 -25.5 86.5t-84.5 26.5q-67 0 -149 -46l-21 49q86 54 179 54q84 0 124 -41
t40 -128zM347 635q0 -40 -28.5 -65.5t-74.5 -25.5q-49 0 -76.5 24.5t-27.5 67.5q0 41 28.5 66t75.5 25q49 0 76 -24t27 -68zM191 636q0 -49 53 -49q52 0 52 48q0 49 -52 49q-53 0 -53 -48z" />
    <glyph glyph-name="ae" unicode="&#xe6;" horiz-adv-x="771" 
d="M690 83l21 -45q-68 -48 -159 -48q-124 0 -174 89q-80 -89 -179 -89q-66 0 -107 38t-41 101q0 65 45.5 102t126.5 37h120v53q0 60 -25 86.5t-82 26.5q-66 0 -145 -46l-21 49q86 54 175 54q111 0 141 -93q49 93 153 93q82 0 129.5 -55.5t47.5 -150.5q0 -16 -3 -40l-19 -22
h-288q1 -178 148 -178q68 0 136 38zM539 437q-122 0 -132 -163h250q1 163 -118 163zM113 132q0 -42 24.5 -65.5t68.5 -23.5q81 0 151 82q-13 44 -13 93h-123q-52 0 -80 -22.5t-28 -63.5z" />
    <glyph glyph-name="ccedilla" unicode="&#xe7;" horiz-adv-x="441" 
d="M348 -126q0 -38 -27.5 -60.5t-72.5 -22.5q-48 0 -86 17l13 40q33 -13 66 -13q51 0 51 39q0 33 -46 33q-20 0 -40 -6l-17 23l27 71q-156 28 -156 244q0 124 54 188t158 64q77 0 139 -37l-22 -52q-56 32 -119 32q-146 0 -146 -195q0 -100 36 -146t113 -46q51 0 113 29
l18 -50q-60 -36 -131 -36h-12l-13 -42q4 1 13 1q40 0 63.5 -20.5t23.5 -54.5z" />
    <glyph glyph-name="egrave" unicode="&#xe8;" 
d="M418 83q-72 -38 -142 -38q-151 0 -155 178h301l19 22q3 24 3 40q0 95 -49 150.5t-134 55.5q-95 0 -148.5 -68t-53.5 -190q0 -119 55 -181t161 -62q96 0 164 48zM261 437q124 0 124 -156v-6h-263q12 162 139 162zM226 551l-90 107l50 39l99 -146h-59z" />
    <glyph glyph-name="eacute" unicode="&#xe9;" 
d="M418 83l21 -45q-68 -48 -164 -48q-106 0 -161 62t-55 181q0 122 53.5 190t148.5 68q85 0 134 -55.5t49 -150.5q0 -16 -3 -40l-19 -22h-301q4 -178 155 -178q70 0 142 38zM261 437q-127 0 -139 -162h263v6q0 156 -124 156zM370 658l-90 -107h-59l99 146z" />
    <glyph glyph-name="ecircumflex" unicode="&#xea;" 
d="M418 83l21 -45q-68 -48 -164 -48q-106 0 -161 62t-55 181q0 122 53.5 190t148.5 68q85 0 134 -55.5t49 -150.5q0 -16 -3 -40l-19 -22h-301q4 -178 155 -178q70 0 142 38zM261 437q-127 0 -139 -162h263v6q0 156 -124 156zM274 693l108 -142h-60l-71 88l-72 -88h-58
l108 142h45z" />
    <glyph glyph-name="edieresis" unicode="&#xeb;" 
d="M418 83l21 -45q-68 -48 -164 -48q-106 0 -161 62t-55 181q0 122 53.5 190t148.5 68q85 0 134 -55.5t49 -150.5q0 -16 -3 -40l-19 -22h-301q4 -178 155 -178q70 0 142 38zM261 437q-127 0 -139 -162h263v6q0 156 -124 156zM214 618q0 -18 -11.5 -30t-30.5 -12t-31 12
t-12 30q0 19 12 31t31 12t30.5 -12t11.5 -31zM376 618q0 -18 -12 -30t-31 -12t-30.5 12t-11.5 30q0 19 11.5 31t30.5 12t31 -12t12 -31z" />
    <glyph glyph-name="igrave" unicode="&#xec;" horiz-adv-x="236" 
d="M86 481v-481h64v481h-64zM89 551l-90 107l50 39l99 -146h-59z" />
    <glyph glyph-name="iacute" unicode="&#xed;" horiz-adv-x="236" 
d="M86 0v481h64v-481h-64zM239 658l-90 -107h-59l99 146z" />
    <glyph glyph-name="icircumflex" unicode="&#xee;" horiz-adv-x="236" 
d="M86 0v481h64v-481h-64zM141 693l108 -142h-60l-71 88l-72 -88h-58l108 142h45z" />
    <glyph glyph-name="idieresis" unicode="&#xef;" horiz-adv-x="236" 
d="M86 0v481h64v-481h-64zM80 618q0 -18 -11.5 -30t-30.5 -12t-31 12t-12 30q0 19 12 31t31 12t30.5 -12t11.5 -31zM242 618q0 -18 -12 -30t-31 -12t-30.5 12t-11.5 30q0 19 11.5 31t30.5 12t31 -12t12 -31z" />
    <glyph glyph-name="eth" unicode="&#xf0;" horiz-adv-x="533" 
d="M462 277l-1 -58q-1 -110 -53.5 -169.5t-147.5 -59.5q-98 0 -149.5 60.5t-51.5 176.5q0 110 53 171.5t148 61.5q104 0 142 -87q-14 140 -85 207l-71 -56l-28 36l61 48q-44 25 -99 32l15 48q73 -8 129 -44l67 54l29 -36l-60 -47q104 -104 102 -338zM123 227
q0 -182 137 -182t137 179q0 180 -137 180t-137 -177z" />
    <glyph glyph-name="ntilde" unicode="&#xf1;" horiz-adv-x="543" 
d="M305 434q-70 0 -155 -67v-367h-64v481h64v-65q92 75 169 75q69 0 105.5 -41t36.5 -120v-330h-63v330q0 104 -93 104zM215 680q29 0 72 -43q29 -29 43 -29q13 0 22 14.5t19 49.5l46 -15q-28 -101 -89 -101q-31 0 -75 43q-27 28 -40 28t-22 -14.5t-19 -49.5l-47 16
q30 101 90 101z" />
    <glyph glyph-name="ograve" unicode="&#xf2;" horiz-adv-x="521" 
d="M461 239q0 123 -51.5 187.5t-149.5 64.5q-96 0 -148.5 -65t-52.5 -184q0 -123 51.5 -187.5t149.5 -64.5q96 0 148.5 65t52.5 184zM123 242q0 194 137 194t137 -197q0 -194 -137 -194t-137 197zM230 551l-90 107l50 39l99 -146h-59z" />
    <glyph glyph-name="oacute" unicode="&#xf3;" horiz-adv-x="521" 
d="M461 239q0 -119 -52.5 -184t-148.5 -65q-98 0 -149.5 64.5t-51.5 187.5q0 119 52.5 184t148.5 65q98 0 149.5 -64.5t51.5 -187.5zM123 242q0 -197 137 -197t137 194q0 197 -137 197t-137 -194zM380 658l-90 -107h-59l99 146z" />
    <glyph glyph-name="ocircumflex" unicode="&#xf4;" horiz-adv-x="521" 
d="M461 239q0 -119 -52.5 -184t-148.5 -65q-98 0 -149.5 64.5t-51.5 187.5q0 119 52.5 184t148.5 65q98 0 149.5 -64.5t51.5 -187.5zM123 242q0 -197 137 -197t137 194q0 197 -137 197t-137 -194zM282 693l108 -142h-60l-71 88l-72 -88h-58l108 142h45z" />
    <glyph glyph-name="otilde" unicode="&#xf5;" horiz-adv-x="521" 
d="M461 239q0 -119 -52.5 -184t-148.5 -65q-98 0 -149.5 64.5t-51.5 187.5q0 119 52.5 184t148.5 65q98 0 149.5 -64.5t51.5 -187.5zM123 242q0 -197 137 -197t137 194q0 197 -137 197t-137 -194zM203 680q29 0 72 -43q29 -29 43 -29q13 0 22 14.5t19 49.5l46 -15
q-28 -101 -89 -101q-31 0 -75 43q-27 28 -40 28t-22 -14.5t-19 -49.5l-47 16q30 101 90 101z" />
    <glyph glyph-name="odieresis" unicode="&#xf6;" horiz-adv-x="521" 
d="M461 239q0 -119 -52.5 -184t-148.5 -65q-98 0 -149.5 64.5t-51.5 187.5q0 119 52.5 184t148.5 65q98 0 149.5 -64.5t51.5 -187.5zM123 242q0 -197 137 -197t137 194q0 197 -137 197t-137 -194zM221 618q0 -18 -11.5 -30t-30.5 -12t-31 12t-12 30q0 19 12 31t31 12
t30.5 -12t11.5 -31zM383 618q0 -18 -12 -30t-31 -12t-30.5 12t-11.5 30q0 19 11.5 31t30.5 12t31 -12t12 -31z" />
    <glyph glyph-name="divide" unicode="&#xf7;" horiz-adv-x="438" 
d="M262 492q0 -19 -12 -31.5t-31 -12.5t-31.5 12.5t-12.5 31.5t12.5 31.5t31.5 12.5t31 -12.5t12 -31.5zM30 347h378v-56h-378v56zM262 146q0 -19 -12 -31t-31 -12t-31.5 12.5t-12.5 30.5q0 19 12.5 31.5t31.5 12.5t31 -12.5t12 -31.5z" />
    <glyph glyph-name="oslash" unicode="&#xf8;" horiz-adv-x="528" 
d="M264 436q-138 0 -138 -194q0 -87 21 -130l200 301q-29 23 -83 23zM264 44q138 0 138 195q0 79 -20 128l-200 -300q29 -23 82 -23zM465 239q0 -119 -52.5 -184t-148.5 -65q-67 0 -113 31l-33 -49l-45 29l38 57q-48 64 -48 184q0 119 52.5 184t148.5 65q69 0 114 -31l33 49
l45 -29l-38 -59q47 -62 47 -182z" />
    <glyph glyph-name="ugrave" unicode="&#xf9;" horiz-adv-x="536" 
d="M449 0v481h-63v-368q-82 -66 -149 -66q-93 0 -93 104v330h-63v-331q0 -78 36.5 -119t105.5 -41q73 0 163 74v-64h63zM237 551l-90 107l50 39l99 -146h-59z" />
    <glyph glyph-name="uacute" unicode="&#xfa;" horiz-adv-x="536" 
d="M449 481v-481h-63v64q-90 -74 -163 -74q-69 0 -105.5 41t-36.5 119v331h63v-330q0 -104 93 -104q67 0 149 66v368h63zM387 658l-90 -107h-59l99 146z" />
    <glyph glyph-name="ucircumflex" unicode="&#xfb;" horiz-adv-x="536" 
d="M449 481v-481h-63v64q-90 -74 -163 -74q-69 0 -105.5 41t-36.5 119v331h63v-330q0 -104 93 -104q67 0 149 66v368h63zM289 693l108 -142h-60l-71 88l-72 -88h-58l108 142h45z" />
    <glyph glyph-name="udieresis" unicode="&#xfc;" horiz-adv-x="536" 
d="M449 481v-481h-63v64q-90 -74 -163 -74q-69 0 -105.5 41t-36.5 119v331h63v-330q0 -104 93 -104q67 0 149 66v368h63zM228 618q0 -18 -11.5 -30t-30.5 -12t-31 12t-12 30q0 19 12 31t31 12t30.5 -12t11.5 -31zM390 618q0 -18 -12 -30t-31 -12t-30.5 12t-11.5 30
q0 19 11.5 31t30.5 12t31 -12t12 -31z" />
    <glyph glyph-name="yacute" unicode="&#xfd;" horiz-adv-x="451" 
d="M365 481h63l-221 -676h-62l65 195h-35l-152 481h63l136 -440zM346 658l-90 -107h-59l99 146z" />
    <glyph glyph-name="thorn" unicode="&#xfe;" horiz-adv-x="543" 
d="M269 45q78 0 114 47.5t36 149.5q0 98 -32 145t-99 47q-72 0 -138 -66v-292q60 -31 119 -31zM483 242q0 -120 -54 -186t-151 -66q-65 0 -128 35v-220h-64v873h64v-258q70 71 151 71q88 0 135 -64t47 -185z" />
    <glyph glyph-name="ydieresis" unicode="&#xff;" horiz-adv-x="451" 
d="M365 481h63l-221 -676h-62l65 195h-35l-152 481h63l136 -440zM187 618q0 -18 -11.5 -30t-30.5 -12t-31 12t-12 30q0 19 12 31t31 12t30.5 -12t11.5 -31zM349 618q0 -18 -12 -30t-31 -12t-30.5 12t-11.5 30q0 19 11.5 31t30.5 12t31 -12t12 -31z" />
    <glyph glyph-name="Amacron" unicode="&#x100;" horiz-adv-x="551" 
d="M274 598l-110 -351h220zM320 648l209 -648h-67l-60 190h-256l-60 -190h-64l209 648h89zM149 749v54h247v-54h-247z" />
    <glyph glyph-name="amacron" unicode="&#x101;" horiz-adv-x="494" 
d="M113 132q0 -42 25 -65.5t69 -23.5q71 0 143 73v102h-126q-53 0 -82 -22.5t-29 -63.5zM413 322v-322h-63v64q-64 -74 -156 -74q-64 0 -103.5 38t-39.5 101q0 65 46 102t129 37h124v53q0 60 -25.5 86.5t-84.5 26.5q-67 0 -149 -46l-21 49q86 54 179 54q84 0 124 -41
t40 -128zM120 583v54h247v-54h-247z" />
    <glyph glyph-name="Abreve" unicode="&#x102;" horiz-adv-x="551" 
d="M274 598l-110 -351h220zM320 648l209 -648h-67l-60 190h-256l-60 -190h-64l209 648h89zM332 839h52v-21q0 -47 -30 -75.5t-81 -28.5q-54 0 -83 27.5t-29 78.5v19h52v-19q0 -59 60 -59q28 0 43.5 15t15.5 42v21z" />
    <glyph glyph-name="abreve" unicode="&#x103;" horiz-adv-x="494" 
d="M113 132q0 -42 25 -65.5t69 -23.5q71 0 143 73v102h-126q-53 0 -82 -22.5t-29 -63.5zM413 322v-322h-63v64q-64 -74 -156 -74q-64 0 -103.5 38t-39.5 101q0 65 46 102t129 37h124v53q0 60 -25.5 86.5t-84.5 26.5q-67 0 -149 -46l-21 49q86 54 179 54q84 0 124 -41
t40 -128zM303 673h52v-21q0 -47 -30 -75.5t-81 -28.5q-54 0 -83 27.5t-29 78.5v19h52v-19q0 -59 60 -59q28 0 43.5 15t15.5 42v21z" />
    <glyph glyph-name="Aogonek" unicode="&#x104;" horiz-adv-x="551" 
d="M518 -148l11 -38q-29 -13 -53 -13q-43 0 -69.5 23.5t-26.5 63.5q0 66 82 113l-60 189h-256l-60 -190h-64l209 648h89l209 -648l-19 -12q-41 -28 -57 -48.5t-16 -46.5q0 -22 12.5 -34.5t34.5 -12.5q14 0 34 6zM274 598l-110 -351h220z" />
    <glyph glyph-name="aogonek" unicode="&#x105;" horiz-adv-x="494" 
d="M399 -148l11 -38q-29 -13 -53 -13q-43 0 -69.5 23.5t-26.5 63.5q0 68 89 117v59q-64 -74 -156 -74q-64 0 -103.5 38t-39.5 101q0 65 46 102t129 37h124v53q0 60 -25.5 86.5t-84.5 26.5q-67 0 -149 -46l-21 49q86 54 179 54q84 0 124 -41t40 -128v-322h-3l-19 -12
q-41 -28 -57 -48.5t-16 -46.5q0 -22 12.5 -34.5t34.5 -12.5q15 0 34 6zM113 132q0 -42 25 -65.5t69 -23.5q71 0 143 73v102h-126q-53 0 -82 -22.5t-29 -63.5z" />
    <glyph glyph-name="Cacute" unicode="&#x106;" horiz-adv-x="526" 
d="M320 -10q-126 0 -192.5 86t-66.5 251q0 158 67 244.5t190 86.5q97 0 174 -52l-28 -53q-66 45 -146 45q-189 0 -189 -271q0 -278 191 -278q77 0 154 51l28 -47q-76 -63 -182 -63zM389 824l-90 -107h-59l99 146z" />
    <glyph glyph-name="cacute" unicode="&#x107;" horiz-adv-x="441" 
d="M273 -10q-109 0 -161 61t-52 188q0 124 54 188t158 64q77 0 139 -37l-22 -52q-56 32 -119 32q-146 0 -146 -195q0 -100 36 -146t113 -46q51 0 113 29l18 -50q-60 -36 -131 -36zM348 658l-90 -107h-59l99 146z" />
    <glyph glyph-name="Ccircumflex" unicode="&#x108;" horiz-adv-x="526" 
d="M320 -10q-126 0 -192.5 86t-66.5 251q0 158 67 244.5t190 86.5q97 0 174 -52l-28 -53q-66 45 -146 45q-189 0 -189 -271q0 -278 191 -278q77 0 154 51l28 -47q-76 -63 -182 -63zM328 859l108 -142h-60l-71 88l-72 -88h-58l108 142h45z" />
    <glyph glyph-name="ccircumflex" unicode="&#x109;" horiz-adv-x="441" 
d="M273 -10q-109 0 -161 61t-52 188q0 124 54 188t158 64q77 0 139 -37l-22 -52q-56 32 -119 32q-146 0 -146 -195q0 -100 36 -146t113 -46q51 0 113 29l18 -50q-60 -36 -131 -36zM273 693l108 -142h-60l-71 88l-72 -88h-58l108 142h45z" />
    <glyph glyph-name="Cdotaccent" unicode="&#x10a;" horiz-adv-x="526" 
d="M320 -10q-126 0 -192.5 86t-66.5 251q0 158 67 244.5t190 86.5q97 0 174 -52l-28 -53q-66 45 -146 45q-189 0 -189 -271q0 -278 191 -278q77 0 154 51l28 -47q-76 -63 -182 -63zM348 784q0 -18 -11.5 -30t-30.5 -12t-31 12t-12 30q0 19 12 31t31 12t30.5 -12t11.5 -31z
" />
    <glyph glyph-name="cdotaccent" unicode="&#x10b;" horiz-adv-x="441" 
d="M273 -10q-109 0 -161 61t-52 188q0 124 54 188t158 64q77 0 139 -37l-22 -52q-56 32 -119 32q-146 0 -146 -195q0 -100 36 -146t113 -46q51 0 113 29l18 -50q-60 -36 -131 -36zM293 618q0 -18 -11.5 -30t-30.5 -12t-31 12t-12 30q0 19 12 31t31 12t30.5 -12t11.5 -31z
" />
    <glyph glyph-name="Ccaron" unicode="&#x10c;" horiz-adv-x="526" 
d="M320 -10q-126 0 -192.5 86t-66.5 251q0 158 67 244.5t190 86.5q97 0 174 -52l-28 -53q-66 45 -146 45q-189 0 -189 -271q0 -278 191 -278q77 0 154 51l28 -47q-76 -63 -182 -63zM376 859h60l-108 -142h-45l-108 142h58l72 -88z" />
    <glyph glyph-name="ccaron" unicode="&#x10d;" horiz-adv-x="441" 
d="M273 -10q-109 0 -161 61t-52 188q0 124 54 188t158 64q77 0 139 -37l-22 -52q-56 32 -119 32q-146 0 -146 -195q0 -100 36 -146t113 -46q51 0 113 29l18 -50q-60 -36 -131 -36zM321 693h60l-108 -142h-45l-108 142h58l72 -88z" />
    <glyph glyph-name="Dcaron" unicode="&#x10e;" horiz-adv-x="611" 
d="M291 0h-195v648h195q128 0 194 -82.5t66 -242.5q0 -156 -67.5 -239.5t-192.5 -83.5zM483 323q0 265 -192 265h-130v-529h130q192 0 192 264zM374 859h60l-108 -142h-45l-108 142h58l72 -88z" />
    <glyph glyph-name="dcaron" unicode="&#x10f;" horiz-adv-x="619" 
d="M124 239q0 -99 31.5 -146t98.5 -47q73 0 139 67v291q-60 31 -119 31q-78 0 -114 -47t-36 -149zM456 678v-678h-63v60q-70 -70 -152 -70q-88 0 -134.5 64t-46.5 185q0 120 54 186t150 66q68 0 129 -36v223h63zM612 678l-14 -168h-49v168h63z" />
    <glyph glyph-name="Dcroat" unicode="&#x110;" horiz-adv-x="627" 
d="M307 0h-195v306h-82v55h82v287h195q128 0 194 -82.5t66 -242.5q0 -156 -67.5 -239.5t-192.5 -83.5zM177 361h152v-55h-152v-247h130q192 0 192 264q0 265 -192 265h-130v-227z" />
    <glyph glyph-name="dslash" unicode="&#x111;" horiz-adv-x="543" 
d="M124 239q0 -99 31.5 -146t98.5 -47q73 0 139 67v291q-60 31 -119 31q-78 0 -114 -47t-36 -149zM456 547v-547h-63v60q-70 -70 -152 -70q-88 0 -134.5 64t-46.5 185q0 120 54 186t150 66q68 0 129 -36v92h-119v50h119v81h63v-81h73v-50h-73z" />
    <glyph glyph-name="Emacron" unicode="&#x112;" horiz-adv-x="504" 
d="M458 57v-57h-362v648h362v-58h-297v-233h247v-58h-247v-242h297zM156 749v54h247v-54h-247z" />
    <glyph glyph-name="emacron" unicode="&#x113;" 
d="M418 83l21 -45q-68 -48 -164 -48q-106 0 -161 62t-55 181q0 122 53.5 190t148.5 68q85 0 134 -55.5t49 -150.5q0 -16 -3 -40l-19 -22h-301q4 -178 155 -178q70 0 142 38zM261 437q-127 0 -139 -162h263v6q0 156 -124 156zM135 583v54h247v-54h-247z" />
    <glyph glyph-name="Ebreve" unicode="&#x114;" horiz-adv-x="504" 
d="M458 57v-57h-362v648h362v-58h-297v-233h247v-58h-247v-242h297zM339 839h52v-21q0 -47 -30 -75.5t-81 -28.5q-54 0 -83 27.5t-29 78.5v19h52v-19q0 -59 60 -59q28 0 43.5 15t15.5 42v21z" />
    <glyph glyph-name="ebreve" unicode="&#x115;" 
d="M418 83l21 -45q-68 -48 -164 -48q-106 0 -161 62t-55 181q0 122 53.5 190t148.5 68q85 0 134 -55.5t49 -150.5q0 -16 -3 -40l-19 -22h-301q4 -178 155 -178q70 0 142 38zM261 437q-127 0 -139 -162h263v6q0 156 -124 156zM318 673h52v-21q0 -47 -30 -75.5t-81 -28.5
q-54 0 -83 27.5t-29 78.5v19h52v-19q0 -59 60 -59q28 0 43.5 15t15.5 42v21z" />
    <glyph glyph-name="Edotaccent" unicode="&#x116;" horiz-adv-x="504" 
d="M458 57v-57h-362v648h362v-58h-297v-233h247v-58h-247v-242h297zM322 784q0 -18 -11.5 -30t-30.5 -12t-31 12t-12 30q0 19 12 31t31 12t30.5 -12t11.5 -31z" />
    <glyph glyph-name="edotaccent" unicode="&#x117;" 
d="M418 83l21 -45q-68 -48 -164 -48q-106 0 -161 62t-55 181q0 122 53.5 190t148.5 68q85 0 134 -55.5t49 -150.5q0 -16 -3 -40l-19 -22h-301q4 -178 155 -178q70 0 142 38zM261 437q-127 0 -139 -162h263v6q0 156 -124 156zM301 618q0 -18 -11.5 -30t-30.5 -12t-31 12
t-12 30q0 19 12 31t31 12t30.5 -12t11.5 -31z" />
    <glyph glyph-name="Eogonek" unicode="&#x118;" horiz-adv-x="504" 
d="M447 -148l11 -38q-29 -13 -53 -13q-43 0 -69.5 23.5t-26.5 63.5q0 65 80 112h-293v648h362v-58h-297v-233h247v-58h-247v-242h297v-57l-19 -12q-41 -28 -57 -48.5t-16 -46.5q0 -22 12.5 -34.5t34.5 -12.5q15 0 34 6z" />
    <glyph glyph-name="eogonek" unicode="&#x119;" horiz-adv-x="499" 
d="M328 -148l10 -38q-27 -13 -53 -13q-43 0 -69.5 24t-26.5 63q0 59 67 102q-96 5 -147 67t-51 176q0 122 54 190t149 68q85 0 134 -55.5t49 -150.5q0 -16 -3 -40l-20 -22h-300q4 -178 154 -178q70 0 143 38l21 -45q-19 -13 -68 -35q-13 -6 -24 -10.5t-16.5 -7t-6.5 -2.5
q-42 -20 -60 -41t-18 -49q0 -22 12.5 -34.5t34.5 -12.5q15 0 35 6zM261 437q-127 0 -139 -162h263v6q0 156 -124 156z" />
    <glyph glyph-name="Ecaron" unicode="&#x11a;" horiz-adv-x="504" 
d="M458 57v-57h-362v648h362v-58h-297v-233h247v-58h-247v-242h297zM350 859h60l-108 -142h-45l-108 142h58l72 -88z" />
    <glyph glyph-name="ecaron" unicode="&#x11b;" 
d="M418 83l21 -45q-68 -48 -164 -48q-106 0 -161 62t-55 181q0 122 53.5 190t148.5 68q85 0 134 -55.5t49 -150.5q0 -16 -3 -40l-19 -22h-301q4 -178 155 -178q70 0 142 38zM261 437q-127 0 -139 -162h263v6q0 156 -124 156zM329 693h60l-108 -142h-45l-108 142h58l72 -88z
" />
    <glyph glyph-name="Gcircumflex" unicode="&#x11c;" horiz-adv-x="564" 
d="M440 312h62v-263q-70 -59 -179 -59q-129 0 -195.5 86t-66.5 251q0 158 68.5 244.5t193.5 86.5q97 0 165 -48l-28 -52q-59 40 -137 40q-194 0 -194 -271q0 -278 194 -278q66 0 117 26v237zM327 859l108 -142h-60l-71 88l-72 -88h-58l108 142h45z" />
    <glyph glyph-name="gcircumflex" unicode="&#x11d;" horiz-adv-x="505" 
d="M138 331q0 -108 117 -108q57 0 87 28t30 81q0 108 -117 108q-57 0 -87 -28t-30 -81zM478 -34q0 -74 -70 -122q-70 -49 -178 -49q-87 0 -138 34.5t-51 91.5q0 73 80 108q-53 27 -53 80q0 62 73 92q-64 44 -64 130q0 74 48 117t130 43q43 0 76 -11l153 45l14 -52l-113 -28
q48 -42 48 -113q0 -74 -48 -117t-130 -43q-37 0 -64 7l-4 -1q-60 -19 -60 -58q0 -22 17.5 -34.5t47.5 -12.5h145q69 0 105 -27.5t36 -79.5zM101 -71q0 -38 35.5 -61t95.5 -23q80 0 133 32q52 31 52 80q0 57 -79 57h-154q-83 -25 -83 -85zM278 693l108 -142h-60l-71 88
l-72 -88h-58l108 142h45z" />
    <glyph glyph-name="Gbreve" unicode="&#x11e;" horiz-adv-x="564" 
d="M440 312h62v-263q-70 -59 -179 -59q-129 0 -195.5 86t-66.5 251q0 158 68.5 244.5t193.5 86.5q97 0 165 -48l-28 -52q-59 40 -137 40q-194 0 -194 -271q0 -278 194 -278q66 0 117 26v237zM364 839h52v-21q0 -47 -30 -75.5t-81 -28.5q-54 0 -83 27.5t-29 78.5v19h52v-19
q0 -59 60 -59q28 0 43.5 15t15.5 42v21z" />
    <glyph glyph-name="gbreve" unicode="&#x11f;" horiz-adv-x="505" 
d="M138 331q0 -108 117 -108q57 0 87 28t30 81q0 108 -117 108q-57 0 -87 -28t-30 -81zM478 -34q0 -74 -70 -122q-70 -49 -178 -49q-87 0 -138 34.5t-51 91.5q0 73 80 108q-53 27 -53 80q0 62 73 92q-64 44 -64 130q0 74 48 117t130 43q43 0 76 -11l153 45l14 -52l-113 -28
q48 -42 48 -113q0 -74 -48 -117t-130 -43q-37 0 -64 7l-4 -1q-60 -19 -60 -58q0 -22 17.5 -34.5t47.5 -12.5h145q69 0 105 -27.5t36 -79.5zM101 -71q0 -38 35.5 -61t95.5 -23q80 0 133 32q52 31 52 80q0 57 -79 57h-154q-83 -25 -83 -85zM315 673h52v-21q0 -47 -30 -75.5
t-81 -28.5q-54 0 -83 27.5t-29 78.5v19h52v-19q0 -59 60 -59q28 0 43.5 15t15.5 42v21z" />
    <glyph glyph-name="Gdotaccent" unicode="&#x120;" horiz-adv-x="564" 
d="M440 312h62v-263q-70 -59 -179 -59q-129 0 -195.5 86t-66.5 251q0 158 68.5 244.5t193.5 86.5q97 0 165 -48l-28 -52q-59 40 -137 40q-194 0 -194 -271q0 -278 194 -278q66 0 117 26v237zM345 784q0 -18 -11.5 -30t-30.5 -12t-31 12t-12 30q0 19 12 31t31 12t30.5 -12
t11.5 -31z" />
    <glyph glyph-name="gdotaccent" unicode="&#x121;" horiz-adv-x="505" 
d="M138 331q0 -108 117 -108q57 0 87 28t30 81q0 108 -117 108q-57 0 -87 -28t-30 -81zM478 -34q0 -74 -70 -122q-70 -49 -178 -49q-87 0 -138 34.5t-51 91.5q0 73 80 108q-53 27 -53 80q0 62 73 92q-64 44 -64 130q0 74 48 117t130 43q43 0 76 -11l153 45l14 -52l-113 -28
q48 -42 48 -113q0 -74 -48 -117t-130 -43q-37 0 -64 7l-4 -1q-60 -19 -60 -58q0 -22 17.5 -34.5t47.5 -12.5h145q69 0 105 -27.5t36 -79.5zM101 -71q0 -38 35.5 -61t95.5 -23q80 0 133 32q52 31 52 80q0 57 -79 57h-154q-83 -25 -83 -85zM295 618q0 -18 -11.5 -30t-30.5 -12
t-31 12t-12 30q0 19 12 31t31 12t30.5 -12t11.5 -31z" />
    <glyph glyph-name="Gcommaaccent" unicode="&#x122;" horiz-adv-x="564" 
d="M440 312h62v-263q-70 -59 -179 -59q-129 0 -195.5 86t-66.5 251q0 158 68.5 244.5t193.5 86.5q97 0 165 -48l-28 -52q-59 40 -137 40q-194 0 -194 -271q0 -278 194 -278q66 0 117 26v237zM339 -58l-18 -168h-50l5 168h63z" />
    <glyph glyph-name="gcommaaccent" unicode="&#x123;" horiz-adv-x="505" 
d="M138 331q0 -108 117 -108q57 0 87 28t30 81q0 108 -117 108q-57 0 -87 -28t-30 -81zM478 -34q0 -74 -70 -122q-70 -49 -178 -49q-87 0 -138 34.5t-51 91.5q0 73 80 108q-53 27 -53 80q0 62 73 92q-64 44 -64 130q0 74 48 117t130 43q43 0 76 -11l153 45l14 -52l-113 -28
q48 -42 48 -113q0 -74 -48 -117t-130 -43q-37 0 -64 7l-4 -1q-60 -19 -60 -58q0 -22 17.5 -34.5t47.5 -12.5h145q69 0 105 -27.5t36 -79.5zM101 -71q0 -38 35.5 -61t95.5 -23q80 0 133 32q52 31 52 80q0 57 -79 57h-154q-83 -25 -83 -85zM222 550l18 168h50l-5 -168h-63z
" />
    <glyph glyph-name="Hcircumflex" unicode="&#x124;" horiz-adv-x="647" 
d="M550 648v-648h-65v310h-324v-310h-65v648h65v-281h324v281h65zM345 859l108 -142h-60l-71 88l-72 -88h-58l108 142h45z" />
    <glyph glyph-name="hcircumflex" unicode="&#x125;" horiz-adv-x="543" 
d="M305 434q-70 0 -155 -67v-367h-64v678h64v-262q92 75 169 75q69 0 105.5 -41t36.5 -120v-330h-63v330q0 104 -93 104zM240 889l108 -142h-60l-71 88l-72 -88h-58l108 142h45z" />
    <glyph glyph-name="Hbar" unicode="&#x126;" horiz-adv-x="679" 
d="M177 494v-127h324v127h-324zM566 494v-494h-65v310h-324v-310h-65v494h-82v49h82v105h65v-105h324v105h65v-105h83v-49h-83z" />
    <glyph glyph-name="hbar" unicode="&#x127;" horiz-adv-x="543" 
d="M305 434q-70 0 -155 -67v-367h-64v547h-73v50h73v81h64v-81h118v-50h-118v-131q92 75 169 75q69 0 105.5 -41t36.5 -120v-330h-63v330q0 104 -93 104z" />
    <glyph glyph-name="Itilde" unicode="&#x128;" horiz-adv-x="258" 
d="M96 648h65v-648h-65v648zM73 846q29 0 72 -43q29 -29 43 -29q13 0 22 14.5t19 49.5l46 -15q-28 -101 -89 -101q-31 0 -75 43q-27 28 -40 28t-22 -14.5t-19 -49.5l-47 16q30 101 90 101z" />
    <glyph glyph-name="itilde" unicode="&#x129;" horiz-adv-x="236" 
d="M86 0v481h64v-481h-64zM62 680q29 0 72 -43q29 -29 43 -29q13 0 22 14.5t19 49.5l46 -15q-28 -101 -89 -101q-31 0 -75 43q-27 28 -40 28t-22 -14.5t-19 -49.5l-47 16q30 101 90 101z" />
    <glyph glyph-name="Imacron" unicode="&#x12a;" horiz-adv-x="258" 
d="M96 648h65v-648h-65v648zM6 749v54h247v-54h-247z" />
    <glyph glyph-name="imacron" unicode="&#x12b;" horiz-adv-x="236" 
d="M86 0v481h64v-481h-64zM-5 583v54h247v-54h-247z" />
    <glyph glyph-name="Ibreve" unicode="&#x12c;" horiz-adv-x="258" 
d="M96 648h65v-648h-65v648zM189 839h52v-21q0 -47 -30 -75.5t-81 -28.5q-54 0 -83 27.5t-29 78.5v19h52v-19q0 -59 60 -59q28 0 43.5 15t15.5 42v21z" />
    <glyph glyph-name="ibreve" unicode="&#x12d;" horiz-adv-x="236" 
d="M86 0v481h64v-481h-64zM178 673h52v-21q0 -47 -30 -75.5t-81 -28.5q-54 0 -83 27.5t-29 78.5v19h52v-19q0 -59 60 -59q28 0 43.5 15t15.5 42v21z" />
    <glyph glyph-name="Iogonek" unicode="&#x12e;" horiz-adv-x="258" 
d="M109 -199q-43 0 -69.5 23.5t-26.5 63.5q0 66 83 114v646h65v-647l1 -1l-19 -12q-41 -28 -57 -48.5t-16 -46.5q0 -22 12.5 -34.5t34.5 -12.5q15 0 34 6l11 -38q-29 -13 -53 -13z" />
    <glyph glyph-name="iogonek" unicode="&#x12f;" horiz-adv-x="236" 
d="M160 618q0 -18 -11.5 -30t-30.5 -12t-31 12t-12 30q0 19 12 31t31 12t30.5 -12t11.5 -31zM139 -148l11 -38q-29 -13 -53 -13q-43 0 -69.5 23.5t-26.5 63.5q0 66 85 115v478h64v-481l-19 -12q-41 -28 -57 -48.5t-16 -46.5q0 -22 12.5 -34.5t34.5 -12.5q15 0 34 6z" />
    <glyph glyph-name="Idot" unicode="&#x130;" horiz-adv-x="258" 
d="M96 648h65v-648h-65v648zM172 784q0 -18 -11.5 -30t-30.5 -12t-31 12t-12 30q0 19 12 31t31 12t30.5 -12t11.5 -31z" />
    <glyph glyph-name="dotlessi" unicode="&#x131;" horiz-adv-x="236" 
d="M86 0v481h64v-481h-64z" />
    <glyph glyph-name="IJ" unicode="&#x132;" horiz-adv-x="518" 
d="M96 648h65v-648h-65v648zM356 62v586h65v-582q0 -92 -30 -150q-31 -60 -110 -121l-35 45q66 54 88 100q22 44 22 122z" />
    <glyph glyph-name="ij" unicode="&#x133;" horiz-adv-x="468" 
d="M160 618q0 -18 -11.5 -30t-30.5 -12t-31 12t-12 30q0 19 12 31t31 12t30.5 -12t11.5 -31zM86 0v481h64v-481h-64zM391 618q0 -18 -11.5 -30t-30.5 -12t-31 12t-12 30q0 19 12 31t31 12t30.5 -12t11.5 -31zM317 53v428h64v-424q0 -90 -29 -148t-104 -114l-37 46
q61 49 84 94q22 43 22 118z" />
    <glyph glyph-name="Jcircumflex" unicode="&#x134;" horiz-adv-x="258" 
d="M96 62v586h65v-582q0 -92 -30 -150q-31 -60 -110 -121l-35 45q66 54 88 100q22 44 22 122zM152 859l108 -142h-60l-71 88l-72 -88h-58l108 142h45z" />
    <glyph glyph-name="jcircumflex" unicode="&#x135;" horiz-adv-x="236" 
d="M86 53v428h64v-424q0 -90 -29 -148t-104 -114l-37 46q61 49 84 94q22 43 22 118zM142 693l108 -142h-60l-71 88l-72 -88h-58l108 142h45z" />
    <glyph glyph-name="Kcommaaccent" unicode="&#x136;" horiz-adv-x="563" 
d="M320 386l231 -386h-76l-199 333l-115 -142v-191h-65v648h65v-370l294 370h72zM335 -58l-18 -168h-50l5 168h63z" />
    <glyph glyph-name="kcommaaccent" unicode="&#x137;" horiz-adv-x="481" 
d="M287 297l179 -297h-71l-153 252l-92 -100v-152h-64v678h64v-451l231 254h69zM294 -58l-18 -168h-50l5 168h63z" />
    <glyph glyph-name="kgreenlandic" unicode="&#x138;" horiz-adv-x="481" 
d="M286 298l180 -298h-71l-154 253l-91 -99v-154h-64v481h64v-253l228 253h69z" />
    <glyph glyph-name="Lacute" unicode="&#x139;" horiz-adv-x="483" 
d="M464 57v-57h-368v648h65v-591h303zM248 825l-90 -107h-59l99 146z" />
    <glyph glyph-name="lacute" unicode="&#x13a;" horiz-adv-x="236" 
d="M86 0v678h64v-678h-64zM238 854l-90 -107h-59l99 146z" />
    <glyph glyph-name="Lcommaaccent" unicode="&#x13b;" horiz-adv-x="483" 
d="M464 57v-57h-368v648h65v-591h303zM314 -58l-18 -168h-50l5 168h63z" />
    <glyph glyph-name="lcommaaccent" unicode="&#x13c;" horiz-adv-x="236" 
d="M86 0v678h64v-678h-64zM150 -58l-18 -168h-50l5 168h63z" />
    <glyph glyph-name="Lcaron" unicode="&#x13d;" horiz-adv-x="483" 
d="M464 57v-57h-368v648h65v-591h303zM377 648l-14 -168h-49v168h63z" />
    <glyph glyph-name="lcaron" unicode="&#x13e;" horiz-adv-x="313" 
d="M86 0v678h64v-678h-64zM306 678l-14 -168h-49v168h63z" />
    <glyph glyph-name="Ldot" unicode="&#x13f;" horiz-adv-x="483" 
d="M464 57v-57h-368v648h65v-591h303zM408 348q0 -18 -11.5 -30t-30.5 -12t-31 12t-12 30q0 19 12 31t31 12q18 0 30 -12.5t12 -30.5z" />
    <glyph glyph-name="ldot" unicode="&#x140;" horiz-adv-x="364" 
d="M342 348q0 -18 -11.5 -30t-30.5 -12t-31 12t-12 30q0 19 12 31t31 12q18 0 30 -12.5t12 -30.5zM86 0v678h64v-678h-64z" />
    <glyph glyph-name="Lslash" unicode="&#x141;" horiz-adv-x="499" 
d="M481 57v-57h-361v282l-79 -32l-19 48l98 40v310h64v-283l134 55l19 -49l-153 -63v-251h297z" />
    <glyph glyph-name="lslash" unicode="&#x142;" horiz-adv-x="288" 
d="M270 341l-95 -37v-304h-63v279l-66 -26l-20 49l86 33v343h63v-318l77 30z" />
    <glyph glyph-name="Nacute" unicode="&#x143;" horiz-adv-x="642" 
d="M545 648v-648h-86l-300 566v-566h-63v648h86l301 -567v567h62zM441 824l-90 -107h-59l99 146z" />
    <glyph glyph-name="nacute" unicode="&#x144;" horiz-adv-x="543" 
d="M305 434q-70 0 -155 -67v-367h-64v481h64v-65q92 75 169 75q69 0 105.5 -41t36.5 -120v-330h-63v330q0 104 -93 104zM392 658l-90 -107h-59l99 146z" />
    <glyph glyph-name="Ncommaaccent" unicode="&#x145;" horiz-adv-x="642" 
d="M545 648v-648h-86l-300 566v-566h-63v648h86l301 -567v567h62zM352 -58l-18 -168h-50l5 168h63z" />
    <glyph glyph-name="ncommaaccent" unicode="&#x146;" horiz-adv-x="543" 
d="M305 434q-70 0 -155 -67v-367h-64v481h64v-65q92 75 169 75q69 0 105.5 -41t36.5 -120v-330h-63v330q0 104 -93 104zM303 -58l-18 -168h-50l5 168h63z" />
    <glyph glyph-name="Ncaron" unicode="&#x147;" horiz-adv-x="642" 
d="M545 648v-648h-86l-300 566v-566h-63v648h86l301 -567v567h62zM391 859h60l-108 -142h-45l-108 142h58l72 -88z" />
    <glyph glyph-name="ncaron" unicode="&#x148;" horiz-adv-x="543" 
d="M305 434q-70 0 -155 -67v-367h-64v481h64v-65q92 75 169 75q69 0 105.5 -41t36.5 -120v-330h-63v330q0 104 -93 104zM342 693h60l-108 -142h-45l-108 142h58l72 -88z" />
    <glyph glyph-name="napostrophe" unicode="&#x149;" horiz-adv-x="543" 
d="M305 434q-70 0 -155 -67v-367h-64v481h64v-65q92 75 169 75q69 0 105.5 -41t36.5 -120v-330h-63v330q0 104 -93 104zM161 719l-18 -168h-50l5 168h63z" />
    <glyph glyph-name="Eng" unicode="&#x14a;" horiz-adv-x="642" 
d="M406 -205l-37 45q54 43 78 78.5t31 82.5l-319 573v-574h-63v648h86l301 -536v536h62v-582q0 -92 -30 -150q-29 -59 -109 -121z" />
    <glyph glyph-name="eng" unicode="&#x14b;" horiz-adv-x="543" 
d="M329 -205l-38 46q62 49 85 95q22 43 22 117v277q0 104 -93 104q-70 0 -155 -67v-367h-64v481h64v-65q92 75 169 75q69 0 105.5 -41t36.5 -120v-273q0 -91 -29 -147q-28 -57 -103 -115z" />
    <glyph glyph-name="Omacron" unicode="&#x14c;" horiz-adv-x="641" 
d="M579 321q0 -158 -67.5 -244.5t-191.5 -86.5q-127 0 -192.5 85.5t-65.5 251.5q0 158 67.5 244.5t190.5 86.5q127 0 193 -86t66 -251zM129 327q0 -278 191 -278t191 272q0 277 -191 277t-191 -271zM197 749v54h247v-54h-247z" />
    <glyph glyph-name="omacron" unicode="&#x14d;" horiz-adv-x="521" 
d="M461 239q0 -119 -52.5 -184t-148.5 -65q-98 0 -149.5 64.5t-51.5 187.5q0 119 52.5 184t148.5 65q98 0 149.5 -64.5t51.5 -187.5zM123 242q0 -197 137 -197t137 194q0 197 -137 197t-137 -194zM136 583v54h247v-54h-247z" />
    <glyph glyph-name="Obreve" unicode="&#x14e;" horiz-adv-x="641" 
d="M579 321q0 -158 -67.5 -244.5t-191.5 -86.5q-127 0 -192.5 85.5t-65.5 251.5q0 158 67.5 244.5t190.5 86.5q127 0 193 -86t66 -251zM129 327q0 -278 191 -278t191 272q0 277 -191 277t-191 -271zM380 839h52v-21q0 -47 -30 -75.5t-81 -28.5q-54 0 -83 27.5t-29 78.5v19
h52v-19q0 -59 60 -59q28 0 43.5 15t15.5 42v21z" />
    <glyph glyph-name="obreve" unicode="&#x14f;" horiz-adv-x="521" 
d="M461 239q0 -119 -52.5 -184t-148.5 -65q-98 0 -149.5 64.5t-51.5 187.5q0 119 52.5 184t148.5 65q98 0 149.5 -64.5t51.5 -187.5zM123 242q0 -197 137 -197t137 194q0 197 -137 197t-137 -194zM319 673h52v-21q0 -47 -30 -75.5t-81 -28.5q-54 0 -83 27.5t-29 78.5v19h52
v-19q0 -59 60 -59q28 0 43.5 15t15.5 42v21z" />
    <glyph glyph-name="Ohungarumlaut" unicode="&#x150;" horiz-adv-x="641" 
d="M579 321q0 -158 -67.5 -244.5t-191.5 -86.5q-127 0 -192.5 85.5t-65.5 251.5q0 158 67.5 244.5t190.5 86.5q127 0 193 -86t66 -251zM129 327q0 -278 191 -278t191 272q0 277 -191 277t-191 -271zM352 824l-69 -107h-56l76 146zM493 824l-89 -107h-56l96 146z" />
    <glyph glyph-name="ohungarumlaut" unicode="&#x151;" horiz-adv-x="521" 
d="M461 239q0 -119 -52.5 -184t-148.5 -65q-98 0 -149.5 64.5t-51.5 187.5q0 119 52.5 184t148.5 65q98 0 149.5 -64.5t51.5 -187.5zM123 242q0 -197 137 -197t137 194q0 197 -137 197t-137 -194zM291 658l-69 -107h-56l76 146zM432 658l-89 -107h-56l96 146z" />
    <glyph glyph-name="OE" unicode="&#x152;" horiz-adv-x="912" 
d="M129 327q0 -278 188 -278q187 0 187 274q0 275 -187 275q-188 0 -188 -271zM866 57v-57h-362v88q-62 -98 -187 -98t-190 85.5t-65 251.5q0 158 66.5 244.5t188.5 86.5q125 0 187 -95v85h362v-58h-297v-233h247v-58h-247v-242h297z" />
    <glyph glyph-name="oe" unicode="&#x153;" horiz-adv-x="820" 
d="M739 83l21 -45q-68 -48 -159 -48q-134 0 -182 109q-42 -109 -162 -109q-97 0 -147.5 64.5t-50.5 187.5q0 119 52 184t146 65q125 0 167 -116q49 116 164 116q82 0 129.5 -55.5t47.5 -150.5q0 -16 -3 -40l-19 -22h-288q1 -178 148 -178q68 0 136 38zM588 437
q-122 0 -132 -163h250q1 163 -118 163zM123 242q0 -197 134 -197t134 194q0 197 -134 197t-134 -194z" />
    <glyph glyph-name="Racute" unicode="&#x154;" horiz-adv-x="566" 
d="M442 466q0 59 -37 91.5t-103 32.5h-141v-251h142q64 0 101.5 33.5t37.5 93.5zM365 288l159 -288h-74l-151 281h-138v-281h-65v648h206q96 0 151 -47.5t55 -132.5q0 -69 -38 -116.5t-105 -63.5zM405 824l-90 -107h-59l99 146z" />
    <glyph glyph-name="racute" unicode="&#x155;" horiz-adv-x="331" 
d="M150 365v-365h-64v481h64v-67q42 43 78.5 60t87.5 17v-60q-53 -2 -89.5 -17t-76.5 -49zM288 658l-90 -107h-59l99 146z" />
    <glyph glyph-name="Rcommaaccent" unicode="&#x156;" horiz-adv-x="566" 
d="M442 466q0 59 -37 91.5t-103 32.5h-141v-251h142q64 0 101.5 33.5t37.5 93.5zM365 288l159 -288h-74l-151 281h-138v-281h-65v648h206q96 0 151 -47.5t55 -132.5q0 -69 -38 -116.5t-105 -63.5zM326 -58l-18 -168h-50l5 168h63z" />
    <glyph glyph-name="rcommaaccent" unicode="&#x157;" horiz-adv-x="331" 
d="M150 365v-365h-64v481h64v-67q42 43 78.5 60t87.5 17v-60q-53 -2 -89.5 -17t-76.5 -49zM150 -58l-18 -168h-50l5 168h63z" />
    <glyph glyph-name="Rcaron" unicode="&#x158;" horiz-adv-x="566" 
d="M442 466q0 59 -37 91.5t-103 32.5h-141v-251h142q64 0 101.5 33.5t37.5 93.5zM365 288l159 -288h-74l-151 281h-138v-281h-65v648h206q96 0 151 -47.5t55 -132.5q0 -69 -38 -116.5t-105 -63.5zM355 859h60l-108 -142h-45l-108 142h58l72 -88z" />
    <glyph glyph-name="rcaron" unicode="&#x159;" horiz-adv-x="331" 
d="M150 365v-365h-64v481h64v-67q42 43 78.5 60t87.5 17v-60q-53 -2 -89.5 -17t-76.5 -49zM248 693h60l-108 -142h-45l-108 142h58l72 -88z" />
    <glyph glyph-name="Sacute" unicode="&#x15a;" horiz-adv-x="475" 
d="M430 163q0 -80 -53.5 -126.5t-145.5 -46.5q-105 0 -196 63l28 52q86 -58 173 -58q60 0 95 30t35 83q0 39 -26 70q-23 29 -112 74q-84 41 -114 71q-52 48 -52 120q0 70 50 117q50 46 131 46q101 0 180 -58l-27 -51q-80 51 -153 51q-54 0 -86 -28t-32 -74q0 -38 26 -70
q24 -28 112 -73q83 -43 115 -72q52 -49 52 -120zM358 824l-90 -107h-59l99 146z" />
    <glyph glyph-name="sacute" unicode="&#x15b;" horiz-adv-x="408" 
d="M363 122q0 -61 -43 -96.5t-116 -35.5q-90 0 -164 52l24 49q75 -47 143 -47q45 0 69.5 20t24.5 56q0 27 -20 47q-19 20 -84 49q-83 34 -111 67q-27 33 -27 80q0 57 42 92.5t111 35.5q75 0 145 -43l-24 -50q-61 38 -120 38q-92 0 -92 -72q0 -27 20 -49q19 -21 86 -48
q83 -35 109 -67q27 -32 27 -78zM324 658l-90 -107h-59l99 146z" />
    <glyph glyph-name="Scircumflex" unicode="&#x15c;" horiz-adv-x="475" 
d="M430 163q0 -80 -53.5 -126.5t-145.5 -46.5q-105 0 -196 63l28 52q86 -58 173 -58q60 0 95 30t35 83q0 39 -26 70q-23 29 -112 74q-84 41 -114 71q-52 48 -52 120q0 70 50 117q50 46 131 46q101 0 180 -58l-27 -51q-80 51 -153 51q-54 0 -86 -28t-32 -74q0 -38 26 -70
q24 -28 112 -73q83 -43 115 -72q52 -49 52 -120zM260 859l108 -142h-60l-71 88l-72 -88h-58l108 142h45z" />
    <glyph glyph-name="scircumflex" unicode="&#x15d;" horiz-adv-x="408" 
d="M363 122q0 -61 -43 -96.5t-116 -35.5q-90 0 -164 52l24 49q75 -47 143 -47q45 0 69.5 20t24.5 56q0 27 -20 47q-19 20 -84 49q-83 34 -111 67q-27 33 -27 80q0 57 42 92.5t111 35.5q75 0 145 -43l-24 -50q-61 38 -120 38q-92 0 -92 -72q0 -27 20 -49q19 -21 86 -48
q83 -35 109 -67q27 -32 27 -78zM226 693l108 -142h-60l-71 88l-72 -88h-58l108 142h45z" />
    <glyph glyph-name="Scedilla" unicode="&#x15e;" horiz-adv-x="475" 
d="M341 -126q0 -38 -27.5 -60.5t-72.5 -22.5q-48 0 -86 17l13 40q33 -13 66 -13q51 0 51 39q0 33 -46 33q-21 0 -40 -6l-17 23l26 67q-92 6 -173 62l28 52q86 -58 173 -58q60 0 95 30t35 83q0 39 -26 70q-23 29 -112 74q-84 41 -114 71q-52 48 -52 120q0 70 50 117
q50 46 131 46q101 0 180 -58l-27 -51q-80 51 -153 51q-54 0 -86 -28t-32 -74q0 -38 26 -70q24 -28 112 -73q83 -43 115 -72q52 -49 52 -120q0 -74 -47 -120t-129 -52l-13 -43q4 1 13 1q40 0 63.5 -20.5t23.5 -54.5z" />
    <glyph glyph-name="scedilla" unicode="&#x15f;" horiz-adv-x="408" 
d="M312 -126q0 -38 -27.5 -60.5t-72.5 -22.5q-48 0 -86 17l13 40q33 -13 66 -13q51 0 51 39q0 33 -46 33q-20 0 -40 -6l-17 23l26 67q-77 8 -139 51l24 49q75 -47 143 -47q45 0 69.5 20t24.5 56q0 27 -20 47q-19 20 -84 49q-83 34 -111 67q-27 33 -27 80q0 57 42 92.5
t111 35.5q75 0 145 -43l-24 -50q-61 38 -120 38q-92 0 -92 -72q0 -27 20 -49q19 -21 86 -48q83 -35 109 -67q27 -32 27 -78q0 -56 -37 -91t-101 -40l-13 -43q4 1 13 1q40 0 63.5 -20.5t23.5 -54.5z" />
    <glyph glyph-name="Scaron" unicode="&#x160;" horiz-adv-x="475" 
d="M430 163q0 -80 -53.5 -126.5t-145.5 -46.5q-105 0 -196 63l28 52q86 -58 173 -58q60 0 95 30t35 83q0 39 -26 70q-23 29 -112 74q-84 41 -114 71q-52 48 -52 120q0 70 50 117q50 46 131 46q101 0 180 -58l-27 -51q-80 51 -153 51q-54 0 -86 -28t-32 -74q0 -38 26 -70
q24 -28 112 -73q83 -43 115 -72q52 -49 52 -120zM308 859h60l-108 -142h-45l-108 142h58l72 -88z" />
    <glyph glyph-name="scaron" unicode="&#x161;" horiz-adv-x="408" 
d="M363 122q0 -61 -43 -96.5t-116 -35.5q-90 0 -164 52l24 49q75 -47 143 -47q45 0 69.5 20t24.5 56q0 27 -20 47q-19 20 -84 49q-83 34 -111 67q-27 33 -27 80q0 57 42 92.5t111 35.5q75 0 145 -43l-24 -50q-61 38 -120 38q-92 0 -92 -72q0 -27 20 -49q19 -21 86 -48
q83 -35 109 -67q27 -32 27 -78zM274 693h60l-108 -142h-45l-108 142h58l72 -88z" />
    <glyph glyph-name="uni0162" unicode="&#x162;" horiz-adv-x="486" 
d="M16 648h454v-58h-195v-590h-64v590h-195v58zM268 -58l-18 -168h-50l5 168h63z" />
    <glyph glyph-name="uni0163" unicode="&#x163;" horiz-adv-x="359" 
d="M331 70l16 -46q-55 -34 -115 -34q-130 0 -130 141v298h-87v42l87 10l15 125h46v-125h165v-52h-165v-295q0 -88 77 -88q42 0 91 24zM233 -58l-18 -168h-50l5 168h63z" />
    <glyph glyph-name="Tcaron" unicode="&#x164;" horiz-adv-x="486" 
d="M16 648h454v-58h-195v-590h-64v590h-195v58zM300 859h60l-108 -142h-45l-108 142h58l72 -88z" />
    <glyph glyph-name="tcaron" unicode="&#x165;" horiz-adv-x="359" 
d="M331 70l16 -46q-55 -34 -115 -34q-130 0 -130 141v298h-87v42l87 10l15 125h46v-125h165v-52h-165v-295q0 -88 77 -88q42 0 91 24zM314 728l-14 -168h-49v168h63z" />
    <glyph glyph-name="Tbar" unicode="&#x166;" horiz-adv-x="486" 
d="M275 352h127v-56h-127v-296h-64v296h-127v56h127v238h-195v58h454v-58h-195v-238z" />
    <glyph glyph-name="tbar" unicode="&#x167;" horiz-adv-x="359" 
d="M331 70l16 -46q-55 -34 -115 -34q-130 0 -130 141v105h-87v50h87v143h-87v42l87 10l15 125h46v-125h165v-52h-165v-143h135v-50h-135v-102q0 -88 77 -88q42 0 91 24z" />
    <glyph glyph-name="Utilde" unicode="&#x168;" horiz-adv-x="611" 
d="M305 46q73 0 114 45t41 125v432h65v-432q0 -104 -59 -165t-161 -61t-160.5 60.5t-58.5 165.5v432h64v-432q0 -80 41 -125t114 -45zM248 846q29 0 72 -43q29 -29 43 -29q13 0 22 14.5t19 49.5l46 -15q-28 -101 -89 -101q-31 0 -75 43q-27 28 -40 28t-22 -14.5t-19 -49.5
l-47 16q30 101 90 101z" />
    <glyph glyph-name="utilde" unicode="&#x169;" horiz-adv-x="536" 
d="M449 481v-481h-63v64q-90 -74 -163 -74q-69 0 -105.5 41t-36.5 119v331h63v-330q0 -104 93 -104q67 0 149 66v368h63zM210 680q29 0 72 -43q29 -29 43 -29q13 0 22 14.5t19 49.5l46 -15q-28 -101 -89 -101q-31 0 -75 43q-27 28 -40 28t-22 -14.5t-19 -49.5l-47 16
q30 101 90 101z" />
    <glyph glyph-name="Umacron" unicode="&#x16a;" horiz-adv-x="611" 
d="M305 46q73 0 114 45t41 125v432h65v-432q0 -104 -59 -165t-161 -61t-160.5 60.5t-58.5 165.5v432h64v-432q0 -80 41 -125t114 -45zM181 749v54h247v-54h-247z" />
    <glyph glyph-name="umacron" unicode="&#x16b;" horiz-adv-x="536" 
d="M449 481v-481h-63v64q-90 -74 -163 -74q-69 0 -105.5 41t-36.5 119v331h63v-330q0 -104 93 -104q67 0 149 66v368h63zM143 583v54h247v-54h-247z" />
    <glyph glyph-name="Ubreve" unicode="&#x16c;" horiz-adv-x="611" 
d="M305 46q73 0 114 45t41 125v432h65v-432q0 -104 -59 -165t-161 -61t-160.5 60.5t-58.5 165.5v432h64v-432q0 -80 41 -125t114 -45zM364 839h52v-21q0 -47 -30 -75.5t-81 -28.5q-54 0 -83 27.5t-29 78.5v19h52v-19q0 -59 60 -59q28 0 43.5 15t15.5 42v21z" />
    <glyph glyph-name="ubreve" unicode="&#x16d;" horiz-adv-x="536" 
d="M449 481v-481h-63v64q-90 -74 -163 -74q-69 0 -105.5 41t-36.5 119v331h63v-330q0 -104 93 -104q67 0 149 66v368h63zM326 673h52v-21q0 -47 -30 -75.5t-81 -28.5q-54 0 -83 27.5t-29 78.5v19h52v-19q0 -59 60 -59q28 0 43.5 15t15.5 42v21z" />
    <glyph glyph-name="Uring" unicode="&#x16e;" horiz-adv-x="611" 
d="M305 46q73 0 114 45t41 125v432h65v-432q0 -104 -59 -165t-161 -61t-160.5 60.5t-58.5 165.5v432h64v-432q0 -80 41 -125t114 -45zM408 801q0 -40 -28.5 -65.5t-74.5 -25.5q-49 0 -76.5 24.5t-27.5 67.5q0 41 28.5 66t75.5 25q49 0 76 -24t27 -68zM252 802q0 -49 53 -49
q52 0 52 48q0 49 -52 49q-53 0 -53 -48z" />
    <glyph glyph-name="uring" unicode="&#x16f;" horiz-adv-x="536" 
d="M449 481v-481h-63v64q-90 -74 -163 -74q-69 0 -105.5 41t-36.5 119v331h63v-330q0 -104 93 -104q67 0 149 66v368h63zM370 635q0 -40 -28.5 -65.5t-74.5 -25.5q-49 0 -76.5 24.5t-27.5 67.5q0 41 28.5 66t75.5 25q49 0 76 -24t27 -68zM214 636q0 -49 53 -49q52 0 52 48
q0 49 -52 49q-53 0 -53 -48z" />
    <glyph glyph-name="Uhungarumlaut" unicode="&#x170;" horiz-adv-x="611" 
d="M305 46q73 0 114 45t41 125v432h65v-432q0 -104 -59 -165t-161 -61t-160.5 60.5t-58.5 165.5v432h64v-432q0 -80 41 -125t114 -45zM336 824l-69 -107h-56l76 146zM477 824l-89 -107h-56l96 146z" />
    <glyph glyph-name="uhungarumlaut" unicode="&#x171;" horiz-adv-x="536" 
d="M449 481v-481h-63v64q-90 -74 -163 -74q-69 0 -105.5 41t-36.5 119v331h63v-330q0 -104 93 -104q67 0 149 66v368h63zM298 658l-69 -107h-56l76 146zM439 658l-89 -107h-56l96 146z" />
    <glyph glyph-name="Uogonek" unicode="&#x172;" horiz-adv-x="611" 
d="M324 -199q-43 0 -69.5 24t-26.5 63q0 55 68 102q-98 3 -154 63.5t-56 162.5v432h64v-432q0 -80 41 -125t114 -45t114 45t41 125v432h65v-435q0 -85 -39 -137q-31 -43 -113 -87q-55 -30 -72 -50q-16 -19 -16 -46q0 -22 12.5 -34.5t34.5 -12.5q16 0 35 6l10 -38
q-30 -13 -53 -13z" />
    <glyph glyph-name="uogonek" unicode="&#x173;" horiz-adv-x="536" 
d="M437 -148l11 -38q-29 -13 -53 -13q-43 0 -69.5 23.5t-26.5 63.5q0 68 87 116v60q-90 -74 -163 -74q-69 0 -105.5 41t-36.5 119v331h63v-330q0 -104 93 -104q67 0 149 66v368h63v-481h-1l-19 -12q-41 -28 -57 -48.5t-16 -46.5q0 -22 12.5 -34.5t34.5 -12.5q15 0 34 6z" />
    <glyph glyph-name="Wcircumflex" unicode="&#x174;" horiz-adv-x="844" 
d="M812 648l-167 -648h-89l-130 415l-141 -415h-87l-167 648h67l147 -593l152 453l-44 140h68l179 -588l147 588h65zM438 859l108 -142h-60l-71 88l-72 -88h-58l108 142h45z" />
    <glyph glyph-name="wcircumflex" unicode="&#x175;" horiz-adv-x="707" 
d="M354 321l-111 -321h-79l-138 481h64l115 -437l123 355l-28 82h64l137 -435l116 435h63l-138 -481h-79zM370 693l108 -142h-60l-71 88l-72 -88h-58l108 142h45z" />
    <glyph glyph-name="Ycircumflex" unicode="&#x176;" horiz-adv-x="504" 
d="M494 648l-209 -394v-254h-65v254l-210 394h70l174 -332l173 332h67zM271 859l108 -142h-60l-71 88l-72 -88h-58l108 142h45z" />
    <glyph glyph-name="ycircumflex" unicode="&#x177;" horiz-adv-x="451" 
d="M365 481h63l-221 -676h-62l65 195h-35l-152 481h63l136 -440zM248 693l108 -142h-60l-71 88l-72 -88h-58l108 142h45z" />
    <glyph glyph-name="Ydieresis" unicode="&#x178;" horiz-adv-x="504" 
d="M494 648l-209 -394v-254h-65v254l-210 394h70l174 -332l173 332h67zM211 784q0 -18 -11.5 -30t-30.5 -12t-31 12t-12 30q0 19 12 31t31 12t30.5 -12t11.5 -31zM373 784q0 -18 -12 -30t-31 -12t-30.5 12t-11.5 30q0 19 11.5 31t30.5 12t31 -12t12 -31z" />
    <glyph glyph-name="Zacute" unicode="&#x179;" horiz-adv-x="455" 
d="M113 57h310v-57h-392v37l305 553h-300v58h382v-38zM343 824l-90 -107h-59l99 146z" />
    <glyph glyph-name="zacute" unicode="&#x17a;" horiz-adv-x="390" 
d="M108 50h250v-50h-325v38l244 392h-239v51h315v-38zM313 658l-90 -107h-59l99 146z" />
    <glyph glyph-name="Zdotaccent" unicode="&#x17b;" horiz-adv-x="455" 
d="M113 57h310v-57h-392v37l305 553h-300v58h382v-38zM265 784q0 -18 -11.5 -30t-30.5 -12t-31 12t-12 30q0 19 12 31t31 12t30.5 -12t11.5 -31z" />
    <glyph glyph-name="zdotaccent" unicode="&#x17c;" horiz-adv-x="390" 
d="M108 50h250v-50h-325v38l244 392h-239v51h315v-38zM239 618q0 -18 -11.5 -30t-30.5 -12t-31 12t-12 30q0 19 12 31t31 12t30.5 -12t11.5 -31z" />
    <glyph glyph-name="Zcaron" unicode="&#x17d;" horiz-adv-x="455" 
d="M113 57h310v-57h-392v37l305 553h-300v58h382v-38zM293 859h60l-108 -142h-45l-108 142h58l72 -88z" />
    <glyph glyph-name="zcaron" unicode="&#x17e;" horiz-adv-x="390" 
d="M108 50h250v-50h-325v38l244 392h-239v51h315v-38zM267 693h60l-108 -142h-45l-108 142h58l72 -88z" />
    <glyph glyph-name="uni0191" unicode="&#x191;" horiz-adv-x="487" 
d="M408 290h-247v-224q0 -92 -30 -150q-31 -60 -110 -121l-35 45q66 54 88 100q22 44 22 122v586h362v-58h-297v-242h247v-58z" />
    <glyph glyph-name="uni0192" unicode="&#x192;" horiz-adv-x="323" 
d="M314 429h-140v-372q0 -90 -29 -148t-104 -114l-37 46q62 49 85 95q22 43 22 117v376h-87v42l87 10v49q0 75 39.5 116.5t111.5 41.5q42 0 79 -14l-10 -49q-27 9 -63 9q-51 0 -72.5 -23.5t-21.5 -82.5v-47h140v-52z" />
    <glyph glyph-name="uni0218" unicode="&#x218;" horiz-adv-x="475" 
d="M430 163q0 -80 -53.5 -126.5t-145.5 -46.5q-105 0 -196 63l28 52q86 -58 173 -58q60 0 95 30t35 83q0 39 -26 70q-23 29 -112 74q-84 41 -114 71q-52 48 -52 120q0 70 50 117q50 46 131 46q101 0 180 -58l-27 -51q-80 51 -153 51q-54 0 -86 -28t-32 -74q0 -38 26 -70
q24 -28 112 -73q83 -43 115 -72q52 -49 52 -120zM269 -58l-18 -168h-50l5 168h63z" />
    <glyph glyph-name="uni0219" unicode="&#x219;" horiz-adv-x="408" 
d="M363 122q0 -61 -43 -96.5t-116 -35.5q-90 0 -164 52l24 49q75 -47 143 -47q45 0 69.5 20t24.5 56q0 27 -20 47q-19 20 -84 49q-83 34 -111 67q-27 33 -27 80q0 57 42 92.5t111 35.5q75 0 145 -43l-24 -50q-61 38 -120 38q-92 0 -92 -72q0 -27 20 -49q19 -21 86 -48
q83 -35 109 -67q27 -32 27 -78zM235 -58l-18 -168h-50l5 168h63z" />
    <glyph glyph-name="uni021A" unicode="&#x21a;" horiz-adv-x="486" 
d="M16 648h454v-58h-195v-590h-64v590h-195v58zM268 -58l-18 -168h-50l5 168h63z" />
    <glyph glyph-name="uni021B" unicode="&#x21b;" horiz-adv-x="359" 
d="M331 70l16 -46q-55 -34 -115 -34q-130 0 -130 141v298h-87v42l87 10l15 125h46v-125h165v-52h-165v-295q0 -88 77 -88q42 0 91 24zM233 -58l-18 -168h-50l5 168h63z" />
    <glyph glyph-name="dotlessj" unicode="&#x237;" horiz-adv-x="236" 
d="M86 53v428h64v-424q0 -90 -29 -148t-104 -114l-37 46q61 49 84 94q22 43 22 118z" />
    <glyph glyph-name="circumflex" unicode="&#x2c6;" 
d="M272 693l108 -142h-60l-71 88l-72 -88h-58l108 142h45z" />
    <glyph glyph-name="caron" unicode="&#x2c7;" 
d="M320 693h60l-108 -142h-45l-108 142h58l72 -88z" />
    <glyph glyph-name="breve" unicode="&#x2d8;" 
d="M309 673h52v-21q0 -47 -30 -75.5t-81 -28.5q-54 0 -83 27.5t-29 78.5v19h52v-19q0 -59 60 -59q28 0 43.5 15t15.5 42v21z" />
    <glyph glyph-name="dotaccent" unicode="&#x2d9;" 
d="M292 618q0 -18 -11.5 -30t-30.5 -12t-31 12t-12 30q0 19 12 31t31 12t30.5 -12t11.5 -31z" />
    <glyph glyph-name="ring" unicode="&#x2da;" 
d="M353 635q0 -40 -28.5 -65.5t-74.5 -25.5q-49 0 -76.5 24.5t-27.5 67.5q0 41 28.5 66t75.5 25q49 0 76 -24t27 -68zM197 636q0 -49 53 -49q52 0 52 48q0 49 -52 49q-53 0 -53 -48z" />
    <glyph glyph-name="ogonek" unicode="&#x2db;" 
d="M238 -107q0 -22 12.5 -34.5t34.5 -12.5q15 0 34 6l11 -38q-29 -13 -53 -13q-43 0 -69.5 23.5t-26.5 63.5q0 69 98 122l25 13l26 -23l-19 -12q-41 -28 -57 -48.5t-16 -46.5z" />
    <glyph glyph-name="tilde" unicode="&#x2dc;" 
d="M193 680q29 0 72 -43q29 -29 43 -29q13 0 22 14.5t19 49.5l46 -15q-28 -101 -89 -101q-31 0 -75 43q-27 28 -40 28t-22 -14.5t-19 -49.5l-47 16q30 101 90 101z" />
    <glyph glyph-name="hungarumlaut" unicode="&#x2dd;" 
d="M281 658l-69 -107h-56l76 146zM422 658l-89 -107h-56l96 146z" />
    <glyph glyph-name="pi" unicode="&#x3c0;" horiz-adv-x="572" 
d="M554 52l11 -43q-37 -19 -75 -19q-97 0 -97 111v322h-228v-423h-63v423h-81v58h530v-58h-95v-322q0 -60 51 -60q23 0 47 11z" />
    <glyph glyph-name="Wgrave" unicode="&#x1e80;" horiz-adv-x="844" 
d="M645 0l167 648h-65l-147 -588l-179 588h-68l44 -140l-152 -453l-147 593h-67l167 -648h87l141 415l130 -415h89zM386 717l-90 107l50 39l99 -146h-59z" />
    <glyph glyph-name="wgrave" unicode="&#x1e81;" horiz-adv-x="707" 
d="M243 0l111 321l109 -321h79l138 481h-63l-116 -435l-137 435h-64l28 -82l-123 -355l-115 437h-64l138 -481h79zM318 551l-90 107l50 39l99 -146h-59z" />
    <glyph glyph-name="Wacute" unicode="&#x1e82;" horiz-adv-x="844" 
d="M812 648l-167 -648h-89l-130 415l-141 -415h-87l-167 648h67l147 -593l152 453l-44 140h68l179 -588l147 588h65zM536 824l-90 -107h-59l99 146z" />
    <glyph glyph-name="wacute" unicode="&#x1e83;" horiz-adv-x="707" 
d="M354 321l-111 -321h-79l-138 481h64l115 -437l123 355l-28 82h64l137 -435l116 435h63l-138 -481h-79zM468 658l-90 -107h-59l99 146z" />
    <glyph glyph-name="Wdieresis" unicode="&#x1e84;" horiz-adv-x="844" 
d="M812 648l-167 -648h-89l-130 415l-141 -415h-87l-167 648h67l147 -593l152 453l-44 140h68l179 -588l147 588h65zM377 784q0 -18 -11.5 -30t-30.5 -12t-31 12t-12 30q0 19 12 31t31 12t30.5 -12t11.5 -31zM539 784q0 -18 -12 -30t-31 -12t-30.5 12t-11.5 30q0 19 11.5 31
t30.5 12t31 -12t12 -31z" />
    <glyph glyph-name="wdieresis" unicode="&#x1e85;" horiz-adv-x="707" 
d="M354 321l-111 -321h-79l-138 481h64l115 -437l123 355l-28 82h64l137 -435l116 435h63l-138 -481h-79zM309 618q0 -18 -11.5 -30t-30.5 -12t-31 12t-12 30q0 19 12 31t31 12t30.5 -12t11.5 -31zM471 618q0 -18 -12 -30t-31 -12t-30.5 12t-11.5 30q0 19 11.5 31t30.5 12
t31 -12t12 -31z" />
    <glyph glyph-name="uni1E9E" unicode="&#x1e9e;" horiz-adv-x="629" 
d="M584 149q0 -75 -45 -117t-124 -42t-140 39l24 52q58 -34 118 -34q48 0 75 26t27 72q0 57 -41 101q-40 44 -144 106l100 219q-57 29 -123 29q-156 0 -156 -182v-418h-65v418q0 113 58.5 176.5t162.5 63.5q111 0 200 -59l-103 -220q96 -57 136 -109.5t40 -120.5z" />
    <glyph glyph-name="Ygrave" unicode="&#x1ef2;" horiz-adv-x="504" 
d="M285 254l209 394h-67l-173 -332l-174 332h-70l210 -394v-254h65v254zM225 717l-90 107l50 39l99 -146h-59z" />
    <glyph glyph-name="ygrave" unicode="&#x1ef3;" horiz-adv-x="451" 
d="M428 481h-63l-143 -440l-136 440h-63l152 -481h35l-65 -195h62zM204 551l-90 107l50 39l99 -146h-59z" />
    <glyph glyph-name="endash" unicode="&#x2013;" 
d="M65 299h370v-54h-370v54z" />
    <glyph glyph-name="emdash" unicode="&#x2014;" horiz-adv-x="1000" 
d="M65 299h870v-54h-870v54z" />
    <glyph glyph-name="quoteleft" unicode="&#x2018;" horiz-adv-x="221" 
d="M155 501q0 -20 -12.5 -32.5t-31.5 -12.5q-21 0 -33 16.5t-12 45.5q0 82 76 140l24 -26q-48 -42 -52 -88q19 -1 30 -13t11 -30z" />
    <glyph glyph-name="quoteright" unicode="&#x2019;" horiz-adv-x="221" 
d="M155 596q0 -82 -76 -140l-24 26q48 42 52 88q-19 1 -30 13t-11 30q0 20 12.5 32.5t31.5 12.5q21 0 33 -16.5t12 -45.5z" />
    <glyph glyph-name="quotesinglbase" unicode="&#x201a;" horiz-adv-x="221" 
d="M155 16q0 -81 -76 -139l-24 26q48 40 52 87q-18 1 -29.5 13t-11.5 30q0 19 12 31.5t32 12.5q21 0 33 -16.5t12 -44.5z" />
    <glyph glyph-name="quotedblleft" unicode="&#x201c;" horiz-adv-x="385" 
d="M155 501q0 -20 -12.5 -32.5t-31.5 -12.5q-21 0 -33 16.5t-12 45.5q0 82 76 140l24 -26q-48 -42 -52 -88q19 -1 30 -13t11 -30zM318 501q0 -20 -12.5 -32.5t-31.5 -12.5q-21 0 -33 16.5t-12 45.5q0 82 76 140l24 -26q-48 -42 -52 -88q19 -1 30 -13t11 -30z" />
    <glyph glyph-name="quotedblright" unicode="&#x201d;" horiz-adv-x="385" 
d="M155 596q0 -82 -76 -140l-24 26q48 42 52 88q-19 1 -30 13t-11 30q0 20 12.5 32.5t31.5 12.5q21 0 33 -16.5t12 -45.5zM318 596q0 -82 -76 -140l-24 26q48 42 52 88q-19 1 -30 13t-11 30q0 20 12.5 32.5t31.5 12.5q21 0 33 -16.5t12 -45.5z" />
    <glyph glyph-name="quotedblbase" unicode="&#x201e;" horiz-adv-x="385" 
d="M155 16q0 -81 -76 -139l-24 26q48 40 52 87q-18 1 -29.5 13t-11.5 30q0 19 12 31.5t32 12.5q21 0 33 -16.5t12 -44.5zM318 16q0 -81 -76 -139l-24 26q48 40 52 87q-18 1 -29.5 13t-11.5 30q0 19 12 31.5t32 12.5q21 0 33 -16.5t12 -44.5z" />
    <glyph glyph-name="dagger" unicode="&#x2020;" horiz-adv-x="409" 
d="M309 424l-81 10l9 -306v-128h-65v128l9 306l-82 -10h-78v57h78l82 -10l-9 99v78h65v-78l-9 -99l81 10h78v-57h-78z" />
    <glyph glyph-name="daggerdbl" unicode="&#x2021;" horiz-adv-x="435" 
d="M323 163l-81 9l8 -94v-78h-65v78l8 94l-81 -9h-78v56h78l81 -9l-8 110l9 117l-82 -9h-78v56h78l82 -9l-9 95v78h65v-78l-9 -95l82 9h78v-56h-78l-82 9l9 -117l-8 -110l81 9h78v-56h-78z" />
    <glyph glyph-name="bullet" unicode="&#x2022;" horiz-adv-x="250" 
d="M193 336q0 -29 -19.5 -49t-48.5 -20q-28 0 -48.5 20.5t-20.5 48.5t20 47.5t49 19.5t48.5 -19.5t19.5 -47.5z" />
    <glyph glyph-name="ellipsis" unicode="&#x2026;" horiz-adv-x="654" 
d="M154 33q0 -19 -12.5 -31t-31.5 -12t-31.5 12t-12.5 31t12.5 31.5t31.5 12.5t31.5 -12.5t12.5 -31.5zM370 33q0 -19 -12.5 -31t-31.5 -12t-31.5 12t-12.5 31t12.5 31.5t31.5 12.5t31.5 -12.5t12.5 -31.5zM587 33q0 -19 -12.5 -31t-31.5 -12t-31.5 12t-12.5 31t12.5 31.5
t31.5 12.5t31.5 -12.5t12.5 -31.5z" />
    <glyph glyph-name="perthousand" unicode="&#x2030;" horiz-adv-x="1062" 
d="M308 494q0 -78 -35 -120t-99 -42q-134 0 -134 164q0 78 35 120t99 42q134 0 134 -164zM526 648h66l-388 -648h-66zM95 496q0 -116 79 -116t79 114q0 116 -79 116t-79 -114zM690 152q0 -78 -35 -120t-99 -42q-134 0 -134 164q0 78 35 120t99 42q134 0 134 -164zM1030 152
q0 -78 -35 -120t-99 -42q-134 0 -134 164q0 78 35 120t99 42q134 0 134 -164zM477 154q0 -116 79 -116t79 114q0 116 -79 116t-79 -114zM817 154q0 -116 79 -116t79 114q0 116 -79 116t-79 -114z" />
    <glyph glyph-name="guilsinglleft" unicode="&#x2039;" horiz-adv-x="313" 
d="M95 255l163 -107v-73l-213 146v62l213 146v-68z" />
    <glyph glyph-name="guilsinglright" unicode="&#x203a;" horiz-adv-x="313" 
d="M268 283v-62l-213 -146v68l163 106l-163 107v73z" />
    <glyph glyph-name="fraction" unicode="&#x2044;" horiz-adv-x="169" 
d="M244 648h59l-377 -648h-60z" />
    <glyph glyph-name="zerosuperior" unicode="&#x2070;" horiz-adv-x="344" 
d="M308 585q0 -77 -36.5 -121.5t-99.5 -44.5q-64 0 -100 44t-36 124q0 77 36.5 121.5t99.5 44.5q64 0 100 -44t36 -124zM89 587q0 -58 21.5 -89t61.5 -31t61.5 30.5t21.5 87.5q0 58 -21.5 89t-61.5 31t-61.5 -30.5t-21.5 -87.5z" />
    <glyph glyph-name="foursuperior" unicode="&#x2074;" horiz-adv-x="299" 
d="M232 523h47v-42h-47v-57h-49v57h-164l-4 32q28 58 72 124q42 63 89 111h56v-225zM66 523h117v176q-67 -79 -117 -176z" />
    <glyph glyph-name="fivesuperior" unicode="&#x2075;" horiz-adv-x="289" 
d="M258 525q0 -49 -33.5 -77.5t-90.5 -28.5q-53 0 -99 19l15 45q41 -18 82 -18q35 0 55 16t20 44q0 54 -68 54q-31 0 -67 -14l-20 11l11 172h185v-47h-144l-5 -86q26 8 48 8q52 0 81.5 -26t29.5 -72z" />
    <glyph glyph-name="sixsuperior" unicode="&#x2076;" horiz-adv-x="287" 
d="M267 531q0 -49 -33 -80.5t-84 -31.5q-53 0 -86.5 36t-33.5 93q0 64 37.5 117.5t107.5 90.5l22 -36q-95 -51 -112 -122q34 33 78 33q47 0 75.5 -27.5t28.5 -72.5zM150 462q30 0 49 19t19 50q0 26 -17 41.5t-45 15.5q-44 0 -77 -39v-6q0 -36 19.5 -58.5t51.5 -22.5z" />
    <glyph glyph-name="sevensuperior" unicode="&#x2077;" horiz-adv-x="241" 
d="M128 438v-14h-53v14q0 56 21 115.5t71 149.5h-155v45h216v-23q-54 -99 -77 -164.5t-23 -122.5z" />
    <glyph glyph-name="eightsuperior" unicode="&#x2078;" horiz-adv-x="308" 
d="M272 512q0 -41 -33 -67t-85 -26q-54 0 -86.5 24t-32.5 64q0 52 61 81q-48 26 -48 77q0 39 29.5 63.5t76.5 24.5t76.5 -24t29.5 -61q0 -47 -56 -76q68 -28 68 -80zM154 713q-28 0 -44 -13t-16 -35q0 -19 15.5 -32t53.5 -26q51 22 51 58q0 22 -16 35t-44 13zM83 510
q0 -25 19 -38.5t52 -13.5q32 0 51.5 14t19.5 39q0 24 -34 41l-33 12q-20 7 -22 7q-53 -22 -53 -61z" />
    <glyph glyph-name="ninesuperior" unicode="&#x2079;" horiz-adv-x="287" 
d="M20 641q0 49 33 80.5t84 31.5q53 0 86.5 -36t33.5 -93q0 -64 -37.5 -117.5t-107.5 -90.5l-22 36q95 51 112 122q-34 -33 -78 -33q-47 0 -75.5 27.5t-28.5 72.5zM137 710q-30 0 -49 -19t-19 -50q0 -26 17 -41.5t45 -15.5q44 0 77 39v6q0 36 -19.5 58.5t-51.5 22.5z" />
    <glyph glyph-name="zeroinferior" unicode="&#x2080;" horiz-adv-x="344" 
d="M308 61q0 -77 -36.5 -121.5t-99.5 -44.5q-64 0 -100 44t-36 124q0 77 36.5 121.5t99.5 44.5q64 0 100 -44t36 -124zM89 63q0 -58 21.5 -89t61.5 -31t61.5 30.5t21.5 87.5q0 58 -21.5 89t-61.5 31t-61.5 -30.5t-21.5 -87.5z" />
    <glyph glyph-name="oneinferior" unicode="&#x2081;" horiz-adv-x="244" 
d="M157 -54h69v-46h-197v46h76v231h-76v47h128v-278z" />
    <glyph glyph-name="twoinferior" unicode="&#x2082;" horiz-adv-x="273" 
d="M96 -54h144v-46h-221v35q99 83 129 120q31 37 31 74q0 25 -16 39t-44 14q-42 0 -83 -19l-14 43q47 23 101 23q51 0 80 -26t29 -73q0 -44 -28 -81q-27 -36 -108 -103z" />
    <glyph glyph-name="threeinferior" unicode="&#x2083;" horiz-adv-x="283" 
d="M249 -8q0 -45 -33 -71t-88 -26t-100 20l13 43q45 -17 89 -17q32 0 50 14.5t18 40.5q0 22 -17.5 35.5t-46.5 13.5h-65v43h63q27 0 42.5 13t15.5 36q0 45 -60 45q-42 0 -82 -17l-13 42q47 22 95 22q52 0 81.5 -22.5t29.5 -62.5q0 -56 -52 -75q28 -9 44 -29.5t16 -47.5z" />
    <glyph glyph-name="fourinferior" unicode="&#x2084;" horiz-adv-x="299" 
d="M232 -1h47v-42h-47v-57h-49v57h-164l-4 32q28 58 72 124q42 63 89 111h56v-225zM66 -1h117v176q-67 -79 -117 -176z" />
    <glyph glyph-name="fiveinferior" unicode="&#x2085;" horiz-adv-x="289" 
d="M258 1q0 -49 -33.5 -77.5t-90.5 -28.5q-53 0 -99 19l15 45q40 -18 82 -18q35 0 55 16t20 44q0 54 -68 54q-31 0 -67 -14l-20 11l11 172h185v-47h-144l-5 -86q26 8 48 8q52 0 81.5 -26t29.5 -72z" />
    <glyph glyph-name="sixinferior" unicode="&#x2086;" horiz-adv-x="287" 
d="M267 7q0 -49 -33 -80.5t-84 -31.5q-53 0 -86.5 36t-33.5 93q0 64 37.5 117.5t107.5 90.5l22 -36q-95 -51 -112 -122q34 33 78 33q47 0 75.5 -27.5t28.5 -72.5zM150 -62q30 0 49 19t19 50q0 26 -17 41.5t-45 15.5q-44 0 -77 -39v-6q0 -36 19.5 -58.5t51.5 -22.5z" />
    <glyph glyph-name="seveninferior" unicode="&#x2087;" horiz-adv-x="241" 
d="M128 -86v-14h-53v14q0 56 21 115.5t71 149.5h-155v45h216v-23q-54 -99 -77 -164.5t-23 -122.5z" />
    <glyph glyph-name="eightinferior" unicode="&#x2088;" horiz-adv-x="308" 
d="M272 -12q0 -41 -33 -67t-85 -26q-54 0 -86.5 24t-32.5 64q0 52 61 81q-48 26 -48 77q0 39 29.5 63.5t76.5 24.5t76.5 -24t29.5 -61q0 -47 -56 -76q68 -28 68 -80zM154 189q-28 0 -44 -13t-16 -35q0 -19 15.5 -32t53.5 -26q51 22 51 58q0 22 -16 35t-44 13zM83 -14
q0 -25 19 -38.5t52 -13.5q32 0 51.5 14t19.5 39q0 24 -34 41l-33 12q-20 7 -22 7q-53 -22 -53 -61z" />
    <glyph glyph-name="nineinferior" unicode="&#x2089;" horiz-adv-x="287" 
d="M20 117q0 49 33 80.5t84 31.5q53 0 86.5 -36t33.5 -93q0 -64 -37.5 -117.5t-107.5 -90.5l-22 36q95 51 112 122q-34 -33 -78 -33q-47 0 -75.5 27.5t-28.5 72.5zM137 186q-30 0 -49 -19t-19 -50q0 -26 17 -41.5t45 -15.5q44 0 77 39v6q0 36 -19.5 58.5t-51.5 22.5z" />
    <glyph glyph-name="colonmonetary" unicode="&#x20a1;" horiz-adv-x="526" 
d="M474 100l28 -47q-57 -49 -143 -60l-10 -90l-55 5l9 82q-48 5 -70 13l-11 -96l-55 5l13 115q-119 77 -119 300q0 130 46 212t132 108l10 98l55 -5l-9 -83q5 1 23 1q33 0 49 -3l9 86l55 -4l-10 -95q34 -11 71 -36l-28 -53q-66 45 -146 45q-189 0 -189 -271q0 -278 191 -278
q77 0 154 51z" />
    <glyph glyph-name="uni20A9" unicode="&#x20a9;" horiz-adv-x="958" 
d="M760 225l-58 -225h-89l-130 415l-141 -415h-87l-58 225h-139v51h126l-23 87h-123v51h110l-60 234h67l147 -593l152 453l-44 140h68l179 -588l147 588h65l-60 -234h110v-51h-123l-23 -87h126v-51h-139z" />
    <glyph glyph-name="uni20AA" unicode="&#x20aa;" horiz-adv-x="814" 
d="M533 317v-131h-63v131q0 61 -39.5 88.5t-126.5 27.5q-89 0 -167 -32v-401h-64v443q125 48 231 48q117 0 173 -42.5t56 -131.5zM276 163v131h64v-130q0 -61 39.5 -89t126.5 -28q88 0 166 32v402h65v-443q-121 -48 -231 -48q-118 0 -174 42t-56 131z" />
    <glyph glyph-name="dong" unicode="&#x20ab;" horiz-adv-x="557" 
d="M113 239q0 -99 32 -146t99 -47q72 0 138 67v291q-62 31 -119 31q-78 0 -114 -47.5t-36 -148.5zM445 547v-547h-63v60q-69 -70 -151 -70q-88 0 -134.5 64t-46.5 185q0 120 54 186t150 66q68 0 128 -35v91h-119v50h119v81h63v-81h73v-50h-73zM81 -72h364v-54h-364v54z" />
    <glyph glyph-name="Euro" unicode="&#x20ac;" horiz-adv-x="581" 
d="M532 98l25 -45q-80 -63 -182 -63q-107 0 -172 61t-83 179h-94v51h88q-1 11 -1 46q0 32 1 41h-88v51h94q18 116 83.5 177.5t169.5 61.5q92 0 169 -49l-27 -50q-64 41 -142 41q-157 0 -187 -181h253v-51h-259q-1 -9 -1 -41q0 -5 0.5 -10.5t1 -15.5t0.5 -20h238v-51h-233
q32 -183 189 -183q78 0 157 51z" />
    <glyph glyph-name="uni20AD" unicode="&#x20ad;" horiz-adv-x="595" 
d="M357 352l211 -352h-76l-199 333l-108 -136v-197h-64v352h-92v51h92v245h64v-363l289 363h71l-191 -245h173v-51h-170z" />
    <glyph glyph-name="uni20AE" unicode="&#x20ae;" horiz-adv-x="498" 
d="M281 264l113 41l18 -49l-131 -48v-208h-64v184l-113 -41l-19 49l132 48v91l-113 -41l-19 49l132 48v203h-195v58h454v-58h-195v-179l113 41l18 -49l-131 -48v-91z" />
    <glyph glyph-name="uni20B1" unicode="&#x20b1;" horiz-adv-x="676" 
d="M333 260h-135v-260h-65v361h-89v52h89v87h-89v51h89v97h200q142 0 191 -97h120v-51h-103q4 -16 4 -43t-4 -44h83v-52h-99q-50 -101 -192 -101zM479 456q0 64 -38.5 99t-107.5 35h-135v-272h135q71 0 108.5 35.5t37.5 102.5z" />
    <glyph glyph-name="uni20B4" unicode="&#x20b4;" horiz-adv-x="550" 
d="M454 104l29 -51q-88 -63 -197 -63q-92 0 -145 46.5t-53 125.5q0 44 15 71h-59v51h108q29 25 88 55l61 32h-237v52h298q30 35 30 75q0 46 -32 74t-86 28q-75 0 -152 -51l-28 51q82 58 180 58q81 0 131 -46q51 -46 51 -117q0 -41 -17 -72h63v-52h-111q-27 -23 -70 -48
l-40 -20l-35 -19h237v-51h-301q-30 -31 -30 -76q0 -51 35 -81t95 -30q86 0 172 58z" />
    <glyph glyph-name="uni20B5" unicode="&#x20b5;" horiz-adv-x="526" 
d="M474 100l28 -47q-69 -57 -167 -63v-85h-55v87q-107 14 -163 99.5t-56 235.5q0 144 57 229.5t162 99.5v88h55v-86q87 -5 157 -52l-28 -53q-66 45 -146 45q-188 0 -188 -271q0 -278 190 -278q77 0 154 51z" />
    <glyph glyph-name="uni20B8" unicode="&#x20b8;" horiz-adv-x="516" 
d="M31 590v58h453v-58h-453zM31 503h453v-58h-194v-445h-65v445h-194v58z" />
    <glyph glyph-name="uni20B9" unicode="&#x20b9;" horiz-adv-x="546" 
d="M401 493h107v-52h-108q-6 -57 -41.5 -97t-92.5 -55l159 -289h-73l-152 281h-146v58h151q54 0 88.5 27t41.5 75h-281v52h281q-8 46 -43 71.5t-89 25.5h-149v58h474v-52h-178q43 -37 51 -103z" />
    <glyph glyph-name="uni20BA" unicode="&#x20ba;" horiz-adv-x="541" 
d="M383 0h-246v217l-85 -31l-20 49l105 38v91l-85 -31l-20 49l105 38v228h65v-204l140 51l18 -49l-158 -58v-91l140 51l18 -49l-158 -58v-184h183q72 0 72 67v28h58v-28q0 -60 -34 -92t-98 -32z" />
    <glyph glyph-name="uni20BC" unicode="&#x20bc;" horiz-adv-x="788" 
d="M126 250v-250h-64v250q0 229 300 240v158h64v-158q300 -11 300 -240v-250h-65v250q0 88 -57.5 132.5t-177.5 48.5v-351h-64v351q-120 -4 -178 -48.5t-58 -132.5z" />
    <glyph glyph-name="uni20BD" unicode="&#x20bd;" horiz-adv-x="570" 
d="M184 164h196v-51h-196v-113h-65v113h-89v51h89v96h-89v58h89v330h200q99 0 155 -50.5t56 -140.5q0 -93 -56 -145t-155 -52h-135v-96zM465 456q0 64 -38.5 99t-107.5 35h-135v-272h135q70 0 108 35.5t38 102.5z" />
    <glyph glyph-name="uni2113" unicode="&#x2113;" horiz-adv-x="406" 
d="M222 -10q-128 0 -128 144v347q0 82 35 129.5t96 47.5q54 0 85.5 -36.5t31.5 -101.5q0 -92 -48 -170t-137 -133v-80q0 -91 73 -91q38 0 93 27l16 -47q-58 -36 -117 -36zM225 604q-68 0 -68 -125v-202q123 99 123 239q0 88 -55 88z" />
    <glyph glyph-name="uni2116" unicode="&#x2116;" horiz-adv-x="985" 
d="M923 494q0 -78 -34.5 -120t-99.5 -42q-134 0 -134 164q0 78 35 120t99 42q134 0 134 -164zM710 496q0 -116 79 -116t79 114q0 116 -79 116t-79 -114zM545 648v-648h-86l-300 570v-570h-63v648h86l301 -570v570h62zM660 257h258v-54h-258v54z" />
    <glyph glyph-name="trademark" unicode="&#x2122;" horiz-adv-x="620" 
d="M20 648h211v-44h-80v-246h-52v246h-79v44zM521 593l-67 -138h-49l-68 138v-235h-49v290h66l76 -155l75 155h65v-290h-49v235z" />
    <glyph glyph-name="Omega" unicode="&#x2126;" horiz-adv-x="738" 
d="M138 353q0 -95 49 -171t140 -122l-3 -60h-234v51h181q-97 43 -149 121t-52 181q0 127 84 216q86 89 215 89q130 0 214 -90q85 -88 85 -217q0 -202 -199 -300h179v-51h-234l-3 60q88 42 138.5 119t50.5 172q0 107 -66 179q-64 72 -166 72q-100 0 -165 -71t-65 -178z" />
    <glyph glyph-name="estimated" unicode="&#x212e;" horiz-adv-x="712" 
d="M662 264v-7h-496q-4 0 -4 -3v-150q0 -11 7 -18q77 -80 188 -80q116 0 197 90h44q-43 -50 -107 -78.5t-135 -28.5q-126 0 -217 80q-89 81 -89 195q0 115 89 196q90 81 217 81q128 0 216 -81q90 -81 90 -196zM550 276v151q0 11 -8 19q-75 78 -185 78q-112 0 -187 -81
q-8 -6 -8 -19v-148q0 -4 4 -4h381q3 0 3 4z" />
    <glyph glyph-name="onethird" unicode="&#x2153;" horiz-adv-x="701" 
d="M157 370h69v-46h-197v46h76v231h-76v47h128v-278zM488 648h59l-377 -648h-60zM666 92q0 -45 -33 -71t-88 -26t-100 20l13 43q45 -17 89 -17q32 0 50 14.5t18 40.5q0 22 -17.5 35.5t-46.5 13.5h-65v43h63q27 0 42.5 13t15.5 36q0 45 -60 45q-42 0 -82 -17l-13 42
q47 22 95 22q52 0 81.5 -22.5t29.5 -62.5q0 -56 -52 -75q28 -9 44 -29.5t16 -47.5z" />
    <glyph glyph-name="twothirds" unicode="&#x2154;" horiz-adv-x="730" 
d="M96 370h144v-46h-221v35q99 83 129 120q31 37 31 74q0 25 -16 39t-44 14q-42 0 -83 -19l-14 43q47 23 101 23q51 0 80 -26t29 -73q0 -44 -28 -81q-27 -36 -108 -103zM517 648h59l-377 -648h-60zM695 92q0 -45 -33 -71t-88 -26t-100 20l13 43q45 -17 89 -17q32 0 50 14.5
t18 40.5q0 22 -17.5 35.5t-46.5 13.5h-65v43h63q27 0 42.5 13t15.5 36q0 45 -60 45q-42 0 -82 -17l-13 42q47 22 95 22q52 0 81.5 -22.5t29.5 -62.5q0 -56 -52 -75q28 -9 44 -29.5t16 -47.5z" />
    <glyph glyph-name="oneeighth" unicode="&#x215b;" horiz-adv-x="708" 
d="M157 370h69v-46h-197v46h76v231h-76v47h128v-278zM488 648h59l-377 -648h-60zM669 88q0 -41 -33 -67t-85 -26q-54 0 -86.5 24t-32.5 64q0 52 61 81q-48 26 -48 77q0 39 29.5 63.5t76.5 24.5t76.5 -24t29.5 -61q0 -47 -56 -76q68 -28 68 -80zM551 289q-28 0 -44 -13
t-16 -35q0 -19 15.5 -32t53.5 -26q51 22 51 58q0 22 -16 35t-44 13zM480 86q0 -25 19 -38.5t52 -13.5q32 0 51.5 14t19.5 39q0 24 -34 41l-33 12q-20 7 -22 7q-53 -22 -53 -61z" />
    <glyph glyph-name="threeeighths" unicode="&#x215c;" horiz-adv-x="747" 
d="M249 416q0 -45 -33 -71t-88 -26t-100 20l13 43q45 -17 89 -17q32 0 50 14.5t18 40.5q0 22 -17.5 35.5t-46.5 13.5h-65v43h63q27 0 42.5 13t15.5 36q0 45 -60 45q-42 0 -82 -17l-13 42q47 22 95 22q52 0 81.5 -22.5t29.5 -62.5q0 -56 -52 -75q28 -9 44 -29.5t16 -47.5z
M527 648h59l-377 -648h-60zM708 88q0 -41 -33 -67t-85 -26q-54 0 -86.5 24t-32.5 64q0 52 61 81q-48 26 -48 77q0 39 29.5 63.5t76.5 24.5t76.5 -24t29.5 -61q0 -47 -56 -76q68 -28 68 -80zM590 289q-28 0 -44 -13t-16 -35q0 -19 15.5 -32t53.5 -26q51 22 51 58q0 22 -16 35
t-44 13zM519 86q0 -25 19 -38.5t52 -13.5q32 0 51.5 14t19.5 39q0 24 -34 41l-33 12q-20 7 -22 7q-53 -22 -53 -61z" />
    <glyph glyph-name="fiveeighths" unicode="&#x215d;" horiz-adv-x="752" 
d="M258 425q0 -49 -33.5 -77.5t-90.5 -28.5q-53 0 -99 19l15 45q41 -18 82 -18q35 0 55 16t20 44q0 54 -68 54q-31 0 -67 -14l-20 11l11 172h185v-47h-144l-5 -86q26 8 48 8q52 0 81.5 -26t29.5 -72zM533 648h59l-377 -648h-60zM713 88q0 -41 -33 -67t-85 -26
q-54 0 -86.5 24t-32.5 64q0 52 61 81q-48 26 -48 77q0 39 29.5 63.5t76.5 24.5t76.5 -24t29.5 -61q0 -47 -56 -76q68 -28 68 -80zM595 289q-28 0 -44 -13t-16 -35q0 -19 15.5 -32t53.5 -26q51 22 51 58q0 22 -16 35t-44 13zM524 86q0 -25 19 -38.5t52 -13.5q32 0 51.5 14
t19.5 39q0 24 -34 41l-33 12q-20 7 -22 7q-53 -22 -53 -61z" />
    <glyph glyph-name="seveneighths" unicode="&#x215e;" horiz-adv-x="705" 
d="M128 338v-14h-53v14q0 56 21 115.5t71 149.5h-155v45h216v-23q-54 -99 -77 -164.5t-23 -122.5zM485 648h59l-377 -648h-60zM666 88q0 -41 -33 -67t-85 -26q-54 0 -86.5 24t-32.5 64q0 52 61 81q-48 26 -48 77q0 39 29.5 63.5t76.5 24.5t76.5 -24t29.5 -61q0 -47 -56 -76
q68 -28 68 -80zM548 289q-28 0 -44 -13t-16 -35q0 -19 15.5 -32t53.5 -26q51 22 51 58q0 22 -16 35t-44 13zM477 86q0 -25 19 -38.5t52 -13.5q32 0 51.5 14t19.5 39q0 24 -34 41l-33 12q-20 7 -22 7q-53 -22 -53 -61z" />
    <glyph glyph-name="arrowleft" unicode="&#x2190;" horiz-adv-x="502" 
d="M462 307h-347l110 -95l-32 -42l-157 143v44l157 143l32 -42l-110 -95h347v-56z" />
    <glyph glyph-name="arrowup" unicode="&#x2191;" horiz-adv-x="502" 
d="M223 106v347l-95 -110l-42 32l143 157h44l143 -157l-42 -32l-95 110v-347h-56z" />
    <glyph glyph-name="arrowright" unicode="&#x2192;" horiz-adv-x="502" 
d="M40 337h347l-110 95l32 42l157 -143v-44l-157 -143l-32 42l110 95h-347v56z" />
    <glyph glyph-name="arrowdown" unicode="&#x2193;" horiz-adv-x="502" 
d="M279 547v-347l95 110l42 -32l-143 -157h-44l-143 157l42 32l95 -110v347h56z" />
    <glyph glyph-name="uni2194" unicode="&#x2194;" horiz-adv-x="602" 
d="M572 357v-44l-157 -143l-32 41l110 96h-385l110 -96l-32 -41l-156 143v44l156 143l32 -42l-110 -95h385l-110 95l32 42z" />
    <glyph glyph-name="uni2195" unicode="&#x2195;" horiz-adv-x="535" 
d="M391 239l41 -32l-142 -156h-45l-142 156l41 32l96 -111v387l-96 -111l-41 32l142 157h45l142 -157l-41 -32l-96 110v-385z" />
    <glyph glyph-name="uni2196" unicode="&#x2196;" horiz-adv-x="502" 
d="M330 431l-149 3l249 -250l-38 -39l-250 250l4 -156h-52v211l31 32h205v-51z" />
    <glyph glyph-name="uni2197" unicode="&#x2197;" horiz-adv-x="502" 
d="M321 434l-149 -3v51h205l31 -32v-211h-52l4 156l-250 -250l-38 39z" />
    <glyph glyph-name="uni2198" unicode="&#x2198;" horiz-adv-x="502" 
d="M172 197l149 -3l-249 250l38 39l250 -250l-4 156h52v-211l-31 -32h-205v51z" />
    <glyph glyph-name="uni2199" unicode="&#x2199;" horiz-adv-x="502" 
d="M181 194l149 3v-51h-205l-31 32v211h52l-4 -156l250 250l38 -39z" />
    <glyph glyph-name="partialdiff" unicode="&#x2202;" horiz-adv-x="528" 
d="M473 360q0 -177 -61.5 -273.5t-173.5 -96.5q-87 0 -139.5 55t-52.5 146q0 103 64 176t160 73q92 0 142 -71q-2 235 -155 235q-23 0 -47 -7l-7 51q29 10 57 10q213 0 213 -298zM110 195q0 -71 35 -110.5t97 -39.5q64 0 108 60q44 62 44 140q0 65 -33 102t-91 37
q-69 0 -115 -55q-45 -55 -45 -134z" />
    <glyph glyph-name="increment" unicode="&#x2206;" horiz-adv-x="547" 
d="M318 648l207 -648h-503l207 648h89zM272 597l-168 -541h336z" />
    <glyph glyph-name="product" unicode="&#x220f;" horiz-adv-x="647" 
d="M550 648v-770h-65v713h-324v-713h-65v770h454z" />
    <glyph glyph-name="summation" unicode="&#x2211;" horiz-adv-x="485" 
d="M329 266l-213 -331h360v-57h-441v45l221 342l-218 339v44h425v-57h-341z" />
    <glyph glyph-name="minus" unicode="&#x2212;" horiz-adv-x="438" 
d="M30 333h378v-56h-378v56z" />
    <glyph glyph-name="uni2215" unicode="&#x2215;" horiz-adv-x="178" 
d="M244 648h59l-377 -648h-60z" />
    <glyph glyph-name="radical" unicode="&#x221a;" horiz-adv-x="552" 
d="M555 698l-235 -698h-83l-144 416l-72 -23l-15 50l133 40l142 -433l213 648h61z" />
    <glyph glyph-name="infinity" unicode="&#x221e;" horiz-adv-x="702" 
d="M674 322q0 -82 -45 -135q-43 -52 -115 -52q-101 0 -165 130q-36 -70 -74 -100t-87 -30q-72 0 -116 52t-44 137q0 82 45 133q47 51 116 51q101 0 165 -128q36 69 74 98.5t87 29.5q71 0 114 -52q45 -51 45 -134zM85 324q0 -60 28.5 -96t74.5 -36q36 0 67 26q30 27 69 104
q-35 73 -65 101t-70 28q-46 0 -75 -35t-29 -92zM378 322q36 -74 66 -102t70 -28q46 0 74.5 36t28.5 94q0 57 -28.5 93t-73.5 36q-36 0 -68 -26q-29 -25 -69 -103z" />
    <glyph glyph-name="integral" unicode="&#x222b;" horiz-adv-x="410" 
d="M158 -45v545q0 74 40 116t111 42q43 0 80 -14l-11 -49q-27 9 -63 9q-51 0 -72.5 -23.5t-21.5 -82.5v-545q0 -75 -39.5 -116.5t-111.5 -41.5q-42 0 -78 14l9 49q30 -9 63 -9q51 0 72.5 23.5t21.5 82.5z" />
    <glyph glyph-name="approxequal" unicode="&#x2248;" horiz-adv-x="438" 
d="M225 442q51 -21 74 -21q34 0 78 34l29 -40q-49 -52 -109 -52q-31 0 -94 26q-46 19 -64 19q-35 0 -79 -34l-29 41q51 51 109 51q29 0 85 -24zM225 275q51 -21 74 -21q34 0 78 34l29 -41q-51 -51 -109 -51q-31 0 -94 26q-46 19 -64 19q-35 0 -79 -34l-29 41q51 51 109 51
q29 0 85 -24z" />
    <glyph glyph-name="notequal" unicode="&#x2260;" horiz-adv-x="438" 
d="M223 267h185v-56h-206l-43 -113h-57l43 113h-115v56h136l44 116h-180v56h201l40 107h57l-40 -107h120v-56h-141z" />
    <glyph glyph-name="lessequal" unicode="&#x2264;" horiz-adv-x="438" 
d="M91 353l309 -135v-70l-370 172v61l370 172v-66zM30 53h370v-53h-370v53z" />
    <glyph glyph-name="greaterequal" unicode="&#x2265;" horiz-adv-x="438" 
d="M407 381v-61l-370 -172v70l309 135l-309 134v66zM407 53v-53h-370v53h370z" />
    <glyph glyph-name="lozenge" unicode="&#x25ca;" horiz-adv-x="469" 
d="M196 648h76l172 -324l-172 -324h-76l-172 324zM379 324l-144 277l-144 -277l144 -278z" />
    <glyph glyph-name="commaaccent" unicode="&#xf6c3;" 
d="M281 -58l-18 -168h-50l5 168h63z" />
    <glyph glyph-name="kgreenlandic.case" horiz-adv-x="686" 
d="M320 386l231 -386h-76l-199 333l-115 -142v-191h-65v648h65v-370l294 370h72zM651 501q0 -20 -12.5 -32.5t-31.5 -12.5q-21 0 -33 16.5t-12 45.5q0 82 76 140l24 -26q-48 -42 -52 -88q19 -1 30 -13t11 -30z" />
    <glyph glyph-name="napostrophe.case" horiz-adv-x="720" 
d="M623 648v-648h-86l-300 566v-566h-63v648h86l301 -567v567h62zM102 648l-18 -168h-50l5 168h63z" />
    <glyph glyph-name="i.dot" horiz-adv-x="236" 
d="M160 618q0 -18 -11.5 -30t-30.5 -12t-31 12t-12 30q0 19 12 31t31 12t30.5 -12t11.5 -31zM86 0v481h64v-481h-64z" />
    <glyph glyph-name="caron.alt" 
d="M281 678l-14 -168h-49v168h63z" />
    <glyph glyph-name="revcommaaccent" 
d="M219 550l18 168h50l-5 -168h-63z" />
    <glyph glyph-name="zero.tlf" horiz-adv-x="543" 
d="M496 322q0 -162 -58 -247t-167 -85q-224 0 -224 336q0 162 57.5 247t166.5 85q225 0 225 -336zM114 326q0 -141 38.5 -209t118.5 -68t118.5 67t38.5 206q0 141 -38.5 208.5t-118.5 67.5t-118.5 -66.5t-38.5 -205.5z" />
    <glyph glyph-name="one.tlf" horiz-adv-x="543" 
d="M310 56h133v-56h-346v56h148v535h-148v57h213v-592z" />
    <glyph glyph-name="two.tlf" horiz-adv-x="543" 
d="M152 56h311v-56h-393v47q178 175 239 262q64 89 64 172q0 56 -35.5 87.5t-98.5 31.5q-72 0 -146 -32l-17 52q89 38 168 38q91 0 143 -46.5t52 -129.5q0 -89 -61 -178q-63 -93 -226 -248z" />
    <glyph glyph-name="three.tlf" horiz-adv-x="543" 
d="M457 185q0 -90 -60.5 -142.5t-162.5 -52.5q-97 0 -168 35l17 52q73 -30 150 -30q74 0 116 37t42 102q0 55 -39.5 87t-106.5 32h-94v58h89q63 0 99 34t36 92q0 53 -35 82t-98 29q-69 0 -146 -28l-15 50q83 36 161 36q91 0 145 -44.5t54 -118.5q0 -55 -30 -96t-83 -61
q61 -16 95 -56t34 -97z" />
    <glyph glyph-name="four.tlf" horiz-adv-x="543" 
d="M412 196h95v-56h-95v-140h-61v140h-310l-8 43q58 118 137 237q82 124 171 228h71v-452zM102 196h249v386q-156 -195 -249 -386z" />
    <glyph glyph-name="five.tlf" horiz-adv-x="543" 
d="M467 201q0 -97 -63.5 -154t-169.5 -57q-87 0 -165 36l18 52q72 -31 148 -31q79 0 123.5 41t44.5 114q0 63 -41 100t-112 37q-56 0 -121 -22l-26 17l19 314h317v-57h-264l-14 -213q52 16 97 16q96 0 152.5 -52.5t56.5 -140.5z" />
    <glyph glyph-name="six.tlf" horiz-adv-x="543" 
d="M494 209q0 -94 -60 -157q-60 -62 -151 -62q-98 0 -158 67q-59 68 -59 179q0 138 71.5 248.5t206.5 179.5l28 -47q-105 -60 -161.5 -129t-73.5 -159q71 78 160 78q87 0 142 -55t55 -143zM283 44q66 0 107 45.5t41 119.5q0 66 -38.5 104.5t-103.5 38.5q-92 0 -160 -104v-19
q0 -83 42.5 -134t111.5 -51z" />
    <glyph glyph-name="seven.tlf" horiz-adv-x="543" 
d="M270 15v-15h-66v15q0 129 46 258q47 134 151 318h-333v57h398v-46q-103 -181 -150 -320q-46 -135 -46 -267z" />
    <glyph glyph-name="eight.tlf" horiz-adv-x="543" 
d="M490 169q0 -78 -62 -129q-62 -50 -157 -50q-99 0 -159 45.5t-60 122.5q0 113 144 180q-119 57 -119 158q0 72 55 117q56 45 143 45q84 0 137 -44t53 -112q0 -92 -123 -162q80 -35 114 -75t34 -96zM275 608q-62 0 -98.5 -29.5t-36.5 -77.5q0 -40 29 -72q29 -29 121 -67
q112 58 112 140q0 47 -35 76.5t-92 29.5zM117 166q0 -59 42 -93t112 -34q64 0 110 35q45 34 45 93q0 58 -64 97q-13 8 -28 15l-84 36q-70 -33 -101.5 -67.5t-31.5 -81.5z" />
    <glyph glyph-name="nine.tlf" horiz-adv-x="543" 
d="M476 412q0 -138 -72 -249t-206 -179l-28 46q105 60 161.5 129t73.5 159q-71 -77 -160 -77q-87 0 -142 55t-55 143q0 93 60 156q62 63 151 63q98 0 157 -68q60 -68 60 -178zM111 439q0 -67 38.5 -105.5t103.5 -38.5q92 0 160 104v19q0 83 -42.5 134t-111.5 51
q-65 0 -107 -46q-41 -46 -41 -118z" />
    <glyph glyph-name="zero.posf" horiz-adv-x="525" 
d="M473 239q0 -115 -56.5 -182t-154.5 -67q-100 0 -155.5 66t-55.5 186q0 115 56.5 182t154.5 67q100 0 155.5 -66t55.5 -186zM115 242q0 -94 38.5 -145.5t108.5 -51.5t108.5 50.5t38.5 143.5q0 94 -38.5 145.5t-108.5 51.5t-108.5 -51t-38.5 -143z" />
    <glyph glyph-name="one.posf" horiz-adv-x="380" 
d="M240 56h124v-56h-333v56h146v368h-146v57h209v-425z" />
    <glyph glyph-name="two.posf" horiz-adv-x="460" 
d="M135 56h280v-56h-380v47q114 73 176 124t88 89.5t26 82.5q0 43 -31 67t-85 24q-77 0 -150 -33l-18 52q84 38 168 38q85 0 133.5 -38.5t48.5 -107.5q0 -72 -56 -134q-55 -61 -200 -155z" />
    <glyph glyph-name="three.posf" horiz-adv-x="464" 
d="M413 19q0 -90 -60 -142.5t-163 -52.5q-98 0 -168 35l17 52q74 -30 150 -30q74 0 116 37t42 102q0 55 -39.5 87t-106.5 32h-94v58h89q63 0 99 34t36 92q0 53 -35 82t-98 29q-69 0 -146 -28l-15 50q84 36 161 36q91 0 145 -44.5t54 -118.5q0 -55 -30 -96t-83 -61
q61 -16 95 -56t34 -97z" />
    <glyph glyph-name="four.posf" horiz-adv-x="523" 
d="M405 55h95v-55h-95v-166h-61v166h-309l-7 43q49 101 133 223q74 107 172 215h72v-426zM96 55h248v361q-156 -178 -248 -361z" />
    <glyph glyph-name="five.posf" horiz-adv-x="482" 
d="M439 35q0 -96 -64 -153q-64 -58 -170 -58q-86 0 -164 36l17 52q72 -31 149 -31q78 0 122.5 41t44.5 114q0 64 -41 100.5t-112 36.5q-55 0 -121 -22l-26 17l20 314h317v-57h-265l-13 -213q51 16 97 16q96 0 152.5 -52.5t56.5 -140.5z" />
    <glyph glyph-name="six.posf" horiz-adv-x="529" 
d="M484 209q0 -94 -60 -157q-60 -62 -151 -62q-99 0 -157 67q-59 68 -59 179q0 138 71.5 248.5t205.5 179.5l28 -47q-105 -60 -161 -128t-73 -160q70 78 159 78q87 0 142 -55t55 -143zM273 44q66 0 107 45.5t41 119.5q0 66 -38.5 104.5t-103.5 38.5q-91 0 -159 -102v-21
q0 -83 42 -134t111 -51z" />
    <glyph glyph-name="seven.posf" horiz-adv-x="437" 
d="M218 -151v-15h-66v15q0 129 46 258q47 134 151 318h-333v57h398v-46q-104 -183 -150 -321q-46 -135 -46 -266z" />
    <glyph glyph-name="eight.posf" horiz-adv-x="539" 
d="M488 169q0 -78 -61 -129q-62 -50 -157 -50q-99 0 -159 45.5t-60 122.5q0 114 144 180q-120 57 -120 158q0 72 55 117q56 45 144 45q84 0 137 -44t53 -112q0 -93 -124 -162q80 -35 114 -75t34 -96zM274 608q-63 0 -99.5 -29.5t-36.5 -77.5q0 -40 29 -72q31 -30 122 -68
q60 33 86 66t26 75q0 47 -35 76.5t-92 29.5zM116 166q0 -59 42 -93t112 -34q64 0 110 35q45 34 45 93q0 58 -65 97l-27 15q-17 9 -85 36q-70 -33 -101 -67.5t-31 -81.5z" />
    <glyph glyph-name="nine.posf" horiz-adv-x="529" 
d="M471 246q0 -138 -71.5 -249t-205.5 -179l-28 46q105 60 161 128.5t73 160.5q-70 -78 -160 -78q-87 0 -142 55t-55 143q0 93 60 156q61 63 151 63q98 0 157 -68q60 -67 60 -178zM107 273q0 -67 38 -105.5t103 -38.5q90 0 160 103v20q0 83 -42.5 134t-111.5 51
q-65 0 -106 -45.5t-41 -118.5z" />
    <glyph glyph-name="zero.numerator" horiz-adv-x="344" 
d="M308 485q0 -77 -36.5 -121.5t-99.5 -44.5q-64 0 -100 44t-36 124q0 77 36.5 121.5t99.5 44.5q64 0 100 -44t36 -124zM89 487q0 -58 21.5 -89t61.5 -31t61.5 30.5t21.5 87.5q0 58 -21.5 89t-61.5 31t-61.5 -30.5t-21.5 -87.5z" />
    <glyph glyph-name="one.numerator" horiz-adv-x="244" 
d="M157 370h69v-46h-197v46h76v231h-76v47h128v-278z" />
    <glyph glyph-name="two.numerator" horiz-adv-x="273" 
d="M96 370h144v-46h-221v35q99 83 129 120q31 37 31 74q0 25 -16 39t-44 14q-42 0 -83 -19l-14 43q47 23 101 23q51 0 80 -26t29 -73q0 -44 -28 -81q-27 -36 -108 -103z" />
    <glyph glyph-name="three.numerator" horiz-adv-x="283" 
d="M249 416q0 -45 -33 -71t-88 -26t-100 20l13 43q45 -17 89 -17q32 0 50 14.5t18 40.5q0 22 -17.5 35.5t-46.5 13.5h-65v43h63q27 0 42.5 13t15.5 36q0 45 -60 45q-42 0 -82 -17l-13 42q47 22 95 22q52 0 81.5 -22.5t29.5 -62.5q0 -56 -52 -75q28 -9 44 -29.5t16 -47.5z
" />
    <glyph glyph-name="four.numerator" horiz-adv-x="299" 
d="M232 423h47v-42h-47v-57h-49v57h-164l-4 32q28 58 72 124q42 63 89 111h56v-225zM66 423h117v176q-67 -79 -117 -176z" />
    <glyph glyph-name="five.numerator" horiz-adv-x="289" 
d="M258 425q0 -49 -33.5 -77.5t-90.5 -28.5q-53 0 -99 19l15 45q41 -18 82 -18q35 0 55 16t20 44q0 54 -68 54q-31 0 -67 -14l-20 11l11 172h185v-47h-144l-5 -86q26 8 48 8q52 0 81.5 -26t29.5 -72z" />
    <glyph glyph-name="six.numerator" horiz-adv-x="287" 
d="M267 431q0 -49 -33 -80.5t-84 -31.5q-53 0 -86.5 36t-33.5 93q0 64 37.5 117.5t107.5 90.5l22 -36q-95 -51 -112 -122q34 33 78 33q47 0 75.5 -27.5t28.5 -72.5zM150 362q30 0 49 19t19 50q0 26 -17 41.5t-45 15.5q-44 0 -77 -39v-6q0 -36 19.5 -58.5t51.5 -22.5z" />
    <glyph glyph-name="seven.numerator" horiz-adv-x="241" 
d="M128 338v-14h-53v14q0 56 21 115.5t71 149.5h-155v45h216v-23q-54 -99 -77 -164.5t-23 -122.5z" />
    <glyph glyph-name="eight.numerator" horiz-adv-x="308" 
d="M272 412q0 -41 -33 -67t-85 -26q-54 0 -86.5 24t-32.5 64q0 52 61 81q-48 26 -48 77q0 39 29.5 63.5t76.5 24.5t76.5 -24t29.5 -61q0 -47 -56 -76q68 -28 68 -80zM154 613q-28 0 -44 -13t-16 -35q0 -19 15.5 -32t53.5 -26q51 22 51 58q0 22 -16 35t-44 13zM83 410
q0 -25 19 -38.5t52 -13.5q32 0 51.5 14t19.5 39q0 24 -34 41l-33 12q-20 7 -22 7q-53 -22 -53 -61z" />
    <glyph glyph-name="nine.numerator" horiz-adv-x="287" 
d="M20 541q0 49 33 80.5t84 31.5q53 0 86.5 -36t33.5 -93q0 -64 -37.5 -117.5t-107.5 -90.5l-22 36q95 51 112 122q-34 -33 -78 -33q-47 0 -75.5 27.5t-28.5 72.5zM137 610q-30 0 -49 -19t-19 -50q0 -26 17 -41.5t45 -15.5q44 0 77 39v6q0 36 -19.5 58.5t-51.5 22.5z" />
    <glyph glyph-name="zero.denominator" horiz-adv-x="344" 
d="M308 161q0 -77 -36.5 -121.5t-99.5 -44.5q-64 0 -100 44t-36 124q0 77 36.5 121.5t99.5 44.5q64 0 100 -44t36 -124zM89 163q0 -58 21.5 -89t61.5 -31t61.5 30.5t21.5 87.5q0 58 -21.5 89t-61.5 31t-61.5 -30.5t-21.5 -87.5z" />
    <glyph glyph-name="one.denominator" horiz-adv-x="241" 
d="M157 46h69v-46h-197v46h76v231h-76v47h128v-278z" />
    <glyph glyph-name="two.denominator" horiz-adv-x="273" 
d="M96 46h144v-46h-221v35q99 83 129 120q31 37 31 74q0 25 -16 39t-44 14q-42 0 -83 -19l-14 43q47 23 101 23q51 0 80 -26t29 -73q0 -44 -28 -81q-27 -36 -108 -103z" />
    <glyph glyph-name="three.denominator" horiz-adv-x="283" 
d="M249 92q0 -45 -33 -71t-88 -26t-100 20l13 43q45 -17 89 -17q32 0 50 14.5t18 40.5q0 22 -17.5 35.5t-46.5 13.5h-65v43h63q27 0 42.5 13t15.5 36q0 45 -60 45q-42 0 -82 -17l-13 42q47 22 95 22q52 0 81.5 -22.5t29.5 -62.5q0 -56 -52 -75q28 -9 44 -29.5t16 -47.5z" />
    <glyph glyph-name="four.denominator" horiz-adv-x="299" 
d="M232 99h47v-42h-47v-57h-49v57h-164l-4 32q28 58 72 124q42 63 89 111h56v-225zM66 99h117v176q-67 -79 -117 -176z" />
    <glyph glyph-name="five.denominator" horiz-adv-x="289" 
d="M258 101q0 -49 -33.5 -77.5t-90.5 -28.5q-53 0 -99 19l15 45q41 -18 82 -18q35 0 55 16t20 44q0 54 -68 54q-31 0 -67 -14l-20 11l11 172h185v-47h-144l-5 -86q26 8 48 8q52 0 81.5 -26t29.5 -72z" />
    <glyph glyph-name="six.denominator" horiz-adv-x="287" 
d="M267 107q0 -49 -33 -80.5t-84 -31.5q-53 0 -86.5 36t-33.5 93q0 64 37.5 117.5t107.5 90.5l22 -36q-95 -51 -112 -122q34 33 78 33q47 0 75.5 -27.5t28.5 -72.5zM150 38q30 0 49 19t19 50q0 26 -17 41.5t-45 15.5q-44 0 -77 -39v-6q0 -36 19.5 -58.5t51.5 -22.5z" />
    <glyph glyph-name="seven.denominator" horiz-adv-x="241" 
d="M128 14v-14h-53v14q0 56 21 115.5t71 149.5h-155v45h216v-23q-54 -99 -77 -164.5t-23 -122.5z" />
    <glyph glyph-name="eight.denominator" horiz-adv-x="308" 
d="M272 88q0 -41 -33 -67t-85 -26q-54 0 -86.5 24t-32.5 64q0 52 61 81q-48 26 -48 77q0 39 29.5 63.5t76.5 24.5t76.5 -24t29.5 -61q0 -47 -56 -76q68 -28 68 -80zM154 289q-28 0 -44 -13t-16 -35q0 -19 15.5 -32t53.5 -26q51 22 51 58q0 22 -16 35t-44 13zM83 86
q0 -25 19 -38.5t52 -13.5q32 0 51.5 14t19.5 39q0 24 -34 41l-33 12q-20 7 -22 7q-53 -22 -53 -61z" />
    <glyph glyph-name="nine.denominator" horiz-adv-x="287" 
d="M20 217q0 49 33 80.5t84 31.5q53 0 86.5 -36t33.5 -93q0 -64 -37.5 -117.5t-107.5 -90.5l-22 36q95 51 112 122q-34 -33 -78 -33q-47 0 -75.5 27.5t-28.5 72.5zM137 286q-30 0 -49 -19t-19 -50q0 -26 17 -41.5t45 -15.5q44 0 77 39v6q0 36 -19.5 58.5t-51.5 22.5z" />
    <glyph glyph-name="onefifth" horiz-adv-x="699" 
d="M157 370h69v-46h-197v46h76v231h-76v47h128v-278zM488 648h59l-377 -648h-60zM668 101q0 -49 -33.5 -77.5t-90.5 -28.5q-53 0 -99 19l15 45q41 -18 82 -18q35 0 55 16t20 44q0 54 -68 54q-31 0 -67 -14l-20 11l11 172h185v-47h-144l-5 -86q26 8 48 8q52 0 81.5 -26
t29.5 -72z" />
    <glyph glyph-name="onesixth" horiz-adv-x="676" 
d="M157 370h69v-46h-197v46h76v231h-76v47h128v-278zM488 648h59l-377 -648h-60zM654 107q0 -49 -33 -80.5t-84 -31.5q-53 0 -86.5 36t-33.5 93q0 64 37.5 117.5t107.5 90.5l22 -36q-95 -51 -112 -122q34 33 78 33q47 0 75.5 -27.5t28.5 -72.5zM537 38q30 0 49 19t19 50
q0 26 -17 41.5t-45 15.5q-44 0 -77 -39v-6q0 -36 19.5 -58.5t51.5 -22.5z" />
    <glyph glyph-name="oneseventh" horiz-adv-x="665" 
d="M157 370h69v-46h-197v46h76v231h-76v47h128v-278zM488 648h59l-377 -648h-60zM551 14v-14h-53v14q0 56 21 115.5t71 149.5h-155v45h216v-23q-54 -99 -77 -164.5t-23 -122.5z" />
    <glyph glyph-name="oneninth" horiz-adv-x="713" 
d="M157 370h69v-46h-197v46h76v231h-76v47h128v-278zM488 648h59l-377 -648h-60zM443 217q0 49 33 80.5t84 31.5q53 0 86.5 -36t33.5 -93q0 -64 -37.5 -117.5t-107.5 -90.5l-22 36q95 51 112 122q-34 -33 -78 -33q-47 0 -75.5 27.5t-28.5 72.5zM560 286q-30 0 -49 -19
t-19 -50q0 -26 17 -41.5t45 -15.5q44 0 77 39v6q0 36 -19.5 58.5t-51.5 22.5z" />
    <glyph glyph-name="twofifths" horiz-adv-x="728" 
d="M96 370h144v-46h-221v35q99 83 129 120q31 37 31 74q0 25 -16 39t-44 14q-42 0 -83 -19l-14 43q47 23 101 23q51 0 80 -26t29 -73q0 -44 -28 -81q-27 -36 -108 -103zM517 648h59l-377 -648h-60zM697 101q0 -49 -33.5 -77.5t-90.5 -28.5q-53 0 -99 19l15 45q41 -18 82 -18
q35 0 55 16t20 44q0 54 -68 54q-31 0 -67 -14l-20 11l11 172h185v-47h-144l-5 -86q26 8 48 8q52 0 81.5 -26t29.5 -72z" />
    <glyph glyph-name="twosevenths" horiz-adv-x="694" 
d="M96 370h144v-46h-221v35q99 83 129 120q31 37 31 74q0 25 -16 39t-44 14q-42 0 -83 -19l-14 43q47 23 101 23q51 0 80 -26t29 -73q0 -44 -28 -81q-27 -36 -108 -103zM517 648h59l-377 -648h-60zM580 14v-14h-53v14q0 56 21 115.5t71 149.5h-155v45h216v-23
q-54 -99 -77 -164.5t-23 -122.5z" />
    <glyph glyph-name="twoninths" horiz-adv-x="742" 
d="M96 370h144v-46h-221v35q99 83 129 120q31 37 31 74q0 25 -16 39t-44 14q-42 0 -83 -19l-14 43q47 23 101 23q51 0 80 -26t29 -73q0 -44 -28 -81q-27 -36 -108 -103zM517 648h59l-377 -648h-60zM472 217q0 49 33 80.5t84 31.5q53 0 86.5 -36t33.5 -93q0 -64 -37.5 -117.5
t-107.5 -90.5l-22 36q95 51 112 122q-34 -33 -78 -33q-47 0 -75.5 27.5t-28.5 72.5zM589 286q-30 0 -49 -19t-19 -50q0 -26 17 -41.5t45 -15.5q44 0 77 39v6q0 36 -19.5 58.5t-51.5 22.5z" />
    <glyph glyph-name="threefifths" horiz-adv-x="739" 
d="M249 416q0 -45 -33 -71t-88 -26t-100 20l13 43q45 -17 89 -17q32 0 50 14.5t18 40.5q0 22 -17.5 35.5t-46.5 13.5h-65v43h63q27 0 42.5 13t15.5 36q0 45 -60 45q-42 0 -82 -17l-13 42q47 22 95 22q52 0 81.5 -22.5t29.5 -62.5q0 -56 -52 -75q28 -9 44 -29.5t16 -47.5z
M527 648h59l-377 -648h-60zM707 101q0 -49 -33.5 -77.5t-90.5 -28.5q-53 0 -99 19l15 45q41 -18 82 -18q35 0 55 16t20 44q0 54 -68 54q-31 0 -67 -14l-20 11l11 172h185v-47h-144l-5 -86q26 8 48 8q52 0 81.5 -26t29.5 -72z" />
    <glyph glyph-name="threesevenths" horiz-adv-x="704" 
d="M249 416q0 -45 -33 -71t-88 -26t-100 20l13 43q45 -17 89 -17q32 0 50 14.5t18 40.5q0 22 -17.5 35.5t-46.5 13.5h-65v43h63q27 0 42.5 13t15.5 36q0 45 -60 45q-42 0 -82 -17l-13 42q47 22 95 22q52 0 81.5 -22.5t29.5 -62.5q0 -56 -52 -75q28 -9 44 -29.5t16 -47.5z
M527 648h59l-377 -648h-60zM591 14v-14h-53v14q0 56 21 115.5t71 149.5h-155v45h216v-23q-54 -99 -77 -164.5t-23 -122.5z" />
    <glyph glyph-name="fourfifths" horiz-adv-x="758" 
d="M232 423h47v-42h-47v-57h-49v57h-164l-4 32q28 58 72 124q42 63 89 111h56v-225zM66 423h117v176q-67 -79 -117 -176zM547 648h59l-377 -648h-60zM727 101q0 -49 -33.5 -77.5t-90.5 -28.5q-53 0 -99 19l15 45q41 -18 82 -18q35 0 55 16t20 44q0 54 -68 54q-31 0 -67 -14
l-20 11l11 172h185v-47h-144l-5 -86q26 8 48 8q52 0 81.5 -26t29.5 -72z" />
    <glyph glyph-name="foursevenths" horiz-adv-x="724" 
d="M232 423h47v-42h-47v-57h-49v57h-164l-4 32q28 58 72 124q42 63 89 111h56v-225zM66 423h117v176q-67 -79 -117 -176zM547 648h59l-377 -648h-60zM610 14v-14h-53v14q0 56 21 115.5t71 149.5h-155v45h216v-23q-54 -99 -77 -164.5t-23 -122.5z" />
    <glyph glyph-name="fourninths" horiz-adv-x="772" 
d="M232 423h47v-42h-47v-57h-49v57h-164l-4 32q28 58 72 124q42 63 89 111h56v-225zM66 423h117v176q-67 -79 -117 -176zM547 648h59l-377 -648h-60zM502 217q0 49 33 80.5t84 31.5q53 0 86.5 -36t33.5 -93q0 -64 -37.5 -117.5t-107.5 -90.5l-22 36q95 51 112 122
q-34 -33 -78 -33q-47 0 -75.5 27.5t-28.5 72.5zM619 286q-30 0 -49 -19t-19 -50q0 -26 17 -41.5t45 -15.5q44 0 77 39v6q0 36 -19.5 58.5t-51.5 22.5z" />
    <glyph glyph-name="fivesixths" horiz-adv-x="721" 
d="M258 425q0 -49 -33.5 -77.5t-90.5 -28.5q-53 0 -99 19l15 45q41 -18 82 -18q35 0 55 16t20 44q0 54 -68 54q-31 0 -67 -14l-20 11l11 172h185v-47h-144l-5 -86q26 8 48 8q52 0 81.5 -26t29.5 -72zM533 648h59l-377 -648h-60zM698 107q0 -49 -33 -80.5t-84 -31.5
q-53 0 -86.5 36t-33.5 93q0 64 37.5 117.5t107.5 90.5l22 -36q-95 -51 -112 -122q34 33 78 33q47 0 75.5 -27.5t28.5 -72.5zM581 38q30 0 49 19t19 50q0 26 -17 41.5t-45 15.5q-44 0 -77 -39v-6q0 -36 19.5 -58.5t51.5 -22.5z" />
    <glyph glyph-name="fivesevenths" horiz-adv-x="710" 
d="M258 425q0 -49 -33.5 -77.5t-90.5 -28.5q-53 0 -99 19l15 45q41 -18 82 -18q35 0 55 16t20 44q0 54 -68 54q-31 0 -67 -14l-20 11l11 172h185v-47h-144l-5 -86q26 8 48 8q52 0 81.5 -26t29.5 -72zM533 648h59l-377 -648h-60zM596 14v-14h-53v14q0 56 21 115.5t71 149.5
h-155v45h216v-23q-54 -99 -77 -164.5t-23 -122.5z" />
    <glyph glyph-name="fiveninths" horiz-adv-x="757" 
d="M258 425q0 -49 -33.5 -77.5t-90.5 -28.5q-53 0 -99 19l15 45q41 -18 82 -18q35 0 55 16t20 44q0 54 -68 54q-31 0 -67 -14l-20 11l11 172h185v-47h-144l-5 -86q26 8 48 8q52 0 81.5 -26t29.5 -72zM533 648h59l-377 -648h-60zM488 217q0 49 33 80.5t84 31.5q53 0 86.5 -36
t33.5 -93q0 -64 -37.5 -117.5t-107.5 -90.5l-22 36q95 51 112 122q-34 -33 -78 -33q-47 0 -75.5 27.5t-28.5 72.5zM605 286q-30 0 -49 -19t-19 -50q0 -26 17 -41.5t45 -15.5q44 0 77 39v6q0 36 -19.5 58.5t-51.5 22.5z" />
    <glyph glyph-name="sixsevenths" horiz-adv-x="711" 
d="M267 431q0 -49 -33 -80.5t-84 -31.5q-53 0 -86.5 36t-33.5 93q0 64 37.5 117.5t107.5 90.5l22 -36q-95 -51 -112 -122q34 33 78 33q47 0 75.5 -27.5t28.5 -72.5zM150 362q30 0 49 19t19 50q0 26 -17 41.5t-45 15.5q-44 0 -77 -39v-6q0 -36 19.5 -58.5t51.5 -22.5z
M534 648h59l-377 -648h-60zM597 14v-14h-53v14q0 56 21 115.5t71 149.5h-155v45h216v-23q-54 -99 -77 -164.5t-23 -122.5z" />
    <glyph glyph-name="sevenninths" horiz-adv-x="710" 
d="M128 338v-14h-53v14q0 56 21 115.5t71 149.5h-155v45h216v-23q-54 -99 -77 -164.5t-23 -122.5zM485 648h59l-377 -648h-60zM440 217q0 49 33 80.5t84 31.5q53 0 86.5 -36t33.5 -93q0 -64 -37.5 -117.5t-107.5 -90.5l-22 36q95 51 112 122q-34 -33 -78 -33
q-47 0 -75.5 27.5t-28.5 72.5zM557 286q-30 0 -49 -19t-19 -50q0 -26 17 -41.5t45 -15.5q44 0 77 39v6q0 36 -19.5 58.5t-51.5 22.5z" />
    <glyph glyph-name="eightninths" horiz-adv-x="779" 
d="M272 412q0 -41 -33 -67t-85 -26q-54 0 -86.5 24t-32.5 64q0 52 61 81q-48 26 -48 77q0 39 29.5 63.5t76.5 24.5t76.5 -24t29.5 -61q0 -47 -56 -76q68 -28 68 -80zM154 613q-28 0 -44 -13t-16 -35q0 -19 15.5 -32t53.5 -26q51 22 51 58q0 22 -16 35t-44 13zM83 410
q0 -25 19 -38.5t52 -13.5q32 0 51.5 14t19.5 39q0 24 -34 41l-33 12q-20 7 -22 7q-53 -22 -53 -61zM555 648h59l-377 -648h-60zM510 217q0 49 33 80.5t84 31.5q53 0 86.5 -36t33.5 -93q0 -64 -37.5 -117.5t-107.5 -90.5l-22 36q95 51 112 122q-34 -33 -78 -33
q-47 0 -75.5 27.5t-28.5 72.5zM627 286q-30 0 -49 -19t-19 -50q0 -26 17 -41.5t45 -15.5q44 0 77 39v6q0 36 -19.5 58.5t-51.5 22.5z" />
    <glyph glyph-name="at.case" horiz-adv-x="932" 
d="M475 -108q-189 0 -304 111t-115 296q0 189 121 309t312 120q168 0 277 -103q109 -102 109 -262q0 -123 -51 -193q-51 -71 -133 -71q-80 0 -110 56q-67 -61 -145 -61q-58 0 -94.5 33t-36.5 87q0 57 39 90t108 33h111v41q0 53 -22 76t-72 23q-59 0 -129 -39l-18 47
q76 46 155 46q144 0 144 -149v-146q0 -88 74 -88q58 0 90.5 55t32.5 156q0 140 -92 229q-91 88 -237 88q-168 0 -272 -104q-103 -103 -103 -273q0 -163 98 -259t263 -96q139 0 239 58l22 -44q-112 -66 -261 -66zM362 218q0 -37 21.5 -56.5t60.5 -19.5q63 0 122 58
q-3 27 -3 34v57h-111q-90 0 -90 -73z" />
    <glyph glyph-name="questiondown.case" horiz-adv-x="438" 
d="M207 613q0 19 12 31.5t32 12.5q19 0 31 -12.5t12 -31.5t-12 -31.5t-31 -12.5q-20 0 -32 12.5t-12 31.5zM232 -10q-90 0 -140.5 45t-50.5 125q0 67 40.5 112.5t126.5 76.5l12 5l5 103h49l6 -118l-16 -23l-39 -14q-63 -23 -91.5 -56.5t-28.5 -84.5q0 -53 34 -83.5t94 -30.5
q75 0 148 33l18 -52q-79 -38 -167 -38z" />
    <glyph glyph-name="exclamdown.case" horiz-adv-x="254" 
d="M83 613q0 19 12.5 31.5t31.5 12.5t31.5 -12.5t12.5 -31.5t-12.5 -31.5t-31.5 -12.5t-31.5 12.5t-12.5 31.5zM159 158v-158h-66v158l9 299h49z" />
    <glyph glyph-name="parenleft.case" horiz-adv-x="288" 
d="M63 321v7q0 156 45 271q47 118 124 167l15 10l24 -44l-14 -10q-61 -44 -96 -149t-35 -245v-7q0 -138 35 -245q35 -105 96 -148l14 -10l-24 -44l-15 10q-77 49 -124 166q-45 116 -45 271z" />
    <glyph glyph-name="parenright.case" horiz-adv-x="288" 
d="M225 328v-7q0 -156 -46 -270q-45 -116 -123 -167l-15 -10l-25 44l14 10q62 44 96 147q35 107 35 246v7q0 139 -35 246q-34 104 -96 148l-14 10l25 44l15 -10q78 -49 123 -167q46 -114 46 -271z" />
    <glyph glyph-name="braceleft.case" horiz-adv-x="303" 
d="M220 -69h56v-52h-50q-62 0 -97 31.5t-35 86.5q0 42 26 127q23 74 23 105q0 68 -63 68h-27v56h27q63 0 63 66q0 32 -23 106q-26 85 -26 127q0 55 34 86t94 31h54v-51h-56q-31 0 -48 -18t-17 -51q0 -31 23 -115q24 -88 24 -123q0 -34 -17 -57t-48 -30q65 -13 65 -87
q0 -35 -24 -123q-23 -84 -23 -114q0 -33 17 -51t48 -18z" />
    <glyph glyph-name="braceright.case" horiz-adv-x="303" 
d="M208 -3q0 -55 -34.5 -86.5t-96.5 -31.5h-51v52h56q66 0 66 69q0 30 -23 114q-25 87 -25 123q0 34 17.5 57.5t48.5 30.5q-31 6 -48.5 29t-17.5 57q0 36 25 123q23 84 23 115q0 69 -66 69h-56v51h54q60 0 94 -31t34 -86q0 -42 -26 -127q-22 -71 -22 -106q0 -66 63 -66h27
v-56h-27q-63 0 -63 -68q0 -34 22 -105q26 -85 26 -127z" />
    <glyph glyph-name="bracketleft.case" horiz-adv-x="285" 
d="M258 -64v-52h-162v880h162v-51h-100v-777h100z" />
    <glyph glyph-name="bracketright.case" horiz-adv-x="285" 
d="M188 764v-880h-162v52h101v777h-101v51h162z" />
    <glyph glyph-name="hyphen.case" horiz-adv-x="420" 
d="M65 362h290v-54h-290v54z" />
    <glyph glyph-name="endash.case" 
d="M65 362h370v-54h-370v54z" />
    <glyph glyph-name="emdash.case" horiz-adv-x="1000" 
d="M65 362h870v-54h-870v54z" />
    <glyph glyph-name="brokenbar.case" horiz-adv-x="258" 
d="M96 748h65v-374h-65v374zM96 294h65v-374h-65v374z" />
    <glyph glyph-name="bar.case" horiz-adv-x="258" 
d="M96 748h65v-828h-65v828z" />
    <glyph glyph-name="guillemotleft.case" horiz-adv-x="533" 
d="M324 331l154 -107v-73l-204 146v62l204 146v-68zM95 331l161 -107v-73l-211 146v62l211 146v-68z" />
    <glyph glyph-name="guillemotright.case" horiz-adv-x="533" 
d="M258 359v-62l-203 -146v68l154 107l-154 107v72zM488 359v-62l-212 -146v68l161 107l-161 107v72z" />
    <glyph glyph-name="guilsinglleft.case" horiz-adv-x="313" 
d="M95 331l163 -107v-73l-213 146v62l213 146v-68z" />
    <glyph glyph-name="guilsinglright.case" horiz-adv-x="313" 
d="M268 365v-62l-213 -146v68l163 106l-163 107v73z" />
    </font>
</defs>
</svg>
