<?xml version="1.0" standalone="no"?>
<!DOCTYPE svg PUBLIC "-//W3C//DTD SVG 1.1//EN" "http://www.w3.org/Graphics/SVG/1.1/DTD/svg11.dtd" >
<svg xmlns="http://www.w3.org/2000/svg" xmlns:xlink="http://www.w3.org/1999/xlink" version="1.1">
<metadata>
Created by FontForge 20170731 at Fri Oct 21 00:48:53 2016
 By Aleksey,,,
Copyright 2016 BlackFoundry
</metadata>
<defs>
<font id="Drive-Italic" horiz-adv-x="549" >
  <font-face 
    font-family="Drive Italic"
    font-weight="400"
    font-style="italic"
    font-stretch="normal"
    units-per-em="1000"
    panose-1="2 11 5 3 3 5 0 2 0 4"
    ascent="770"
    descent="-230"
    x-height="490"
    cap-height="648"
    bbox="-200 -223 1045 901"
    underline-thickness="45"
    underline-position="-200"
    slope="-11"
    unicode-range="U+000D-FB02"
  />
<missing-glyph horiz-adv-x="654" 
d="M642 648l-126 -648h-474l126 648h474zM242 570l-96 -492h296l96 492h-296z" />
    <glyph glyph-name="fi" unicode="fi" horiz-adv-x="585" 
d="M378 490l-14 -71h-138l-81 -419h-87l81 419h-87l12 57l89 14l5 25q34 173 202 173q44 0 81 -14l-26 -67q-32 8 -58 8q-51 0 -76 -21.5t-36 -77.5l-5 -26h138zM480 612q0 27 16 43.5t42 16.5q22 0 36 -13t14 -33q0 -27 -16 -43.5t-42 -16.5q-22 0 -36 13t-14 33zM370 0
l95 490h87l-95 -490h-87z" />
    <glyph glyph-name="fl" unicode="fl" horiz-adv-x="585" 
d="M378 490l-14 -71h-138l-81 -419h-87l81 419h-87l12 57l89 14l5 25q34 173 202 173q44 0 81 -14l-26 -67q-32 8 -58 8q-51 0 -76 -21.5t-36 -77.5l-5 -26h138zM370 0l132 678h87l-132 -678h-87z" />
    <glyph glyph-name=".notdef" horiz-adv-x="654" 
d="M642 648l-126 -648h-474l126 648h474zM242 570l-96 -492h296l96 492h-296z" />
    <glyph glyph-name=".null" horiz-adv-x="0" 
 />
    <glyph glyph-name="nonmarkingreturn" horiz-adv-x="333" 
 />
    <glyph glyph-name="NULL" horiz-adv-x="0" 
 />
    <glyph glyph-name="NULL" horiz-adv-x="0" 
 />
    <glyph glyph-name="CR" unicode="&#xd;" horiz-adv-x="0" 
 />
    <glyph glyph-name="space" unicode=" " horiz-adv-x="180" 
 />
    <glyph glyph-name="exclam" unicode="!" horiz-adv-x="260" 
d="M132 490l31 158h90l-31 -158l-68 -290h-66zM146 52q0 -26 -17 -44t-43 -18q-22 0 -36 13.5t-14 34.5q0 27 16.5 44.5t42.5 17.5q23 0 37 -13.5t14 -34.5z" />
    <glyph glyph-name="quotedbl" unicode="&#x22;" horiz-adv-x="400" 
d="M238 648l-19 -98l-43 -136h-58l11 136l19 98h90zM408 648l-19 -98l-43 -136h-58l11 136l19 98h90z" />
    <glyph glyph-name="numbersign" unicode="#" horiz-adv-x="671" 
d="M298 413l-55 -157h157l55 157h-157zM458 179l-62 -179h-85l62 179h-157l-62 -179h-85l62 179h-106l15 77h118l55 157h-123l15 77h135l55 158h85l-55 -158h157l55 158h85l-55 -158h113l-15 -77h-125l-55 -157h130l-15 -77h-142z" />
    <glyph glyph-name="dollar" unicode="$" horiz-adv-x="483" 
d="M236 -9l-15 -80h-81l16 83q-87 12 -160 66l47 69q78 -60 167 -60q57 0 91.5 28t34.5 72q0 32 -20 58q-20 28 -85 69q-81 52 -106 90t-25 88q0 74 51 125q50 52 134 58l15 80h81l-16 -83q73 -12 134 -55l-48 -69q-67 49 -146 49q-54 0 -86 -28t-32 -73q0 -28 19 -53
q21 -26 82 -65q83 -53 110 -93q27 -41 27 -90q0 -73 -53 -126t-136 -60z" />
    <glyph glyph-name="percent" unicode="%" horiz-adv-x="741" 
d="M367 527q0 -81 -48 -138q-47 -57 -117 -57q-56 0 -91 36.5t-35 94.5q0 80 47 138q48 57 118 57q56 0 91 -36.5t35 -94.5zM601 648h93l-524 -648h-93zM151 470q0 -73 55 -73q35 0 61 36q25 37 25 87q0 73 -56 73q-35 0 -60 -37q-25 -35 -25 -86zM404 121q0 80 47 138
q48 57 118 57q56 0 91 -36.5t35 -94.5q0 -81 -48 -138q-47 -57 -117 -57q-56 0 -91 36.5t-35 94.5zM620 178q0 73 -56 73q-35 0 -60 -37q-25 -35 -25 -86q0 -73 55 -73q36 0 61 36q25 37 25 87z" />
    <glyph glyph-name="ampersand" unicode="&#x26;" horiz-adv-x="628" 
d="M557 213q0 -98 -78 -161q-77 -62 -200 -62q-108 0 -178 53q-69 54 -69 140q0 69 48 118.5t130 63.5q-78 43 -78 120q0 78 61.5 125.5t164.5 47.5q90 0 160 -25l-33 -74q-66 21 -137 21q-60 0 -93 -26.5t-33 -73.5q0 -42 27 -64.5t78 -22.5h31l-15 -78h-72q-66 0 -107 -35
t-41 -89q0 -57 43.5 -90t118.5 -33q85 0 136.5 42t51.5 111q0 55 -35 90l33 52h170l-15 -76h-91q22 -31 22 -74z" />
    <glyph glyph-name="quotesingle" unicode="'" horiz-adv-x="230" 
d="M238 648l-19 -98l-43 -136h-58l11 136l19 98h90z" />
    <glyph glyph-name="parenleft" unicode="(" horiz-adv-x="305" 
d="M67 251l2 12q26 160 91.5 274.5t159.5 166.5l18 10l31 -60l-16 -10q-69 -43 -122 -145q-52 -100 -75 -236l-2 -12q-48 -288 49 -383l11 -11l-44 -60l-14 11q-70 57 -93 170.5t4 272.5z" />
    <glyph glyph-name="parenright" unicode=")" horiz-adv-x="305" 
d="M242 260l-2 -12q-26 -161 -91.5 -275t-160.5 -166l-18 -10l-31 60l16 10q70 43 123 145q52 102 75 236l2 12q48 287 -50 383l-11 11l44 60l14 -11q70 -57 93.5 -170.5t-3.5 -272.5z" />
    <glyph glyph-name="asterisk" unicode="*" horiz-adv-x="412" 
d="M325 421l37 -67l-65 -38l-34 64l-19 47l-33 -47l-58 -64l-53 45l55 60l45 38l-52 10l-70 26l33 69l71 -25l46 -24l5 54l15 79h73l-15 -79l-18 -54l50 24l78 24l14 -68l-80 -26l-56 -10z" />
    <glyph glyph-name="plus" unicode="+" horiz-adv-x="438" 
d="M280 344h147l-15 -77h-147l-30 -155h-84l30 155h-147l15 77h147l28 146h84z" />
    <glyph glyph-name="comma" unicode="," horiz-adv-x="240" 
d="M134 46q0 -108 -118 -187l-28 35q56 44 72 98q-36 8 -36 46q0 27 16.5 44.5t42.5 17.5q23 0 37 -14.5t14 -39.5z" />
    <glyph glyph-name="hyphen" unicode="-" horiz-adv-x="420" 
d="M78 316h290l-14 -74h-290z" />
    <glyph glyph-name="period" unicode="." horiz-adv-x="240" 
d="M136 52q0 -26 -17 -44t-43 -18q-22 0 -36 13.5t-14 34.5q0 27 16.5 44.5t42.5 17.5q23 0 37 -13.5t14 -34.5z" />
    <glyph glyph-name="slash" unicode="/" horiz-adv-x="427" 
d="M411 738h91l-456 -828h-91z" />
    <glyph glyph-name="zero" unicode="0" horiz-adv-x="596" 
d="M491 145q-42 -75 -100 -115t-124 -40q-95 0 -148.5 62.5t-53.5 173.5q0 153 69 277q42 75 100 115t125 40q94 0 148 -63t54 -174q0 -150 -70 -276zM158 234q0 -162 109 -162q84 0 142 103q59 104 59 238q0 163 -109 163q-82 0 -142 -105q-59 -106 -59 -237z" />
    <glyph glyph-name="one" unicode="1" horiz-adv-x="397" 
d="M226 78h121l-15 -78h-346l15 78h136l96 492h-136l15 78h225z" />
    <glyph glyph-name="two" unicode="2" horiz-adv-x="479" 
d="M128 78h274l-15 -78h-398l13 65q130 100 221 186q80 75 113.5 129t33.5 109q0 43 -28 66.5t-79 23.5q-62 0 -136 -30l-19 73q92 36 163 36q91 0 141.5 -43.5t50.5 -120.5q0 -89 -77 -184q-75 -93 -258 -232z" />
    <glyph glyph-name="three" unicode="3" horiz-adv-x="489" 
d="M426 200q0 -91 -71 -151q-71 -59 -181 -59q-98 0 -179 41l37 72q69 -34 142 -34q75 0 118 35.5t43 98.5q0 44 -29 67.5t-84 23.5h-93l16 80h85q65 0 102.5 32.5t37.5 86.5q0 41 -30 63.5t-85 22.5q-48 0 -123 -26l-19 72q79 33 158 33q89 0 139.5 -41.5t50.5 -114.5
q0 -58 -35 -102t-97 -66q97 -35 97 -134z" />
    <glyph glyph-name="four" unicode="4" horiz-adv-x="536" 
d="M413 215h92l-15 -77h-92l-27 -138h-84l27 138h-300l2 60q75 110 177 230q97 115 205 220h99zM117 215h212l65 337q-165 -172 -277 -337z" />
    <glyph glyph-name="five" unicode="5" horiz-adv-x="504" 
d="M449 225q0 -106 -74 -171q-73 -64 -194 -64q-102 0 -182 37l38 72q73 -30 141 -30q84 0 133 40t49 110q0 107 -123 107q-49 0 -114 -23l-31 22l83 323h330l-15 -78h-258l-47 -182q35 13 74 13q85 0 137 -49q53 -50 53 -127z" />
    <glyph glyph-name="six" unicode="6" horiz-adv-x="522" 
d="M477 224q0 -95 -67 -165q-66 -69 -162 -69q-89 0 -146 60q-56 62 -56 158q0 138 95 260q97 123 269 196l31 -67q-218 -96 -283 -253q69 63 149 63q75 0 122 -51q48 -51 48 -132zM133 205q0 -67 30.5 -103.5t84.5 -36.5q61 0 102 44q40 43 40 113q0 52 -27 81t-75 29
q-79 0 -153 -86q-2 -40 -2 -41z" />
    <glyph glyph-name="seven" unicode="7" horiz-adv-x="444" 
d="M193 16l-3 -16h-91l3 15q25 128 90 250q65 123 201 305h-313l15 78h405l-12 -63q-139 -186 -205 -313q-66 -126 -90 -256z" />
    <glyph glyph-name="eight" unicode="8" 
d="M486 177q0 -79 -67 -133q-66 -54 -169 -54q-92 0 -156 47q-63 47 -63 118q0 63 45.5 113t129.5 79q-84 57 -84 137q0 74 60 124q61 50 150 50q87 0 139.5 -41.5t52.5 -108.5q0 -104 -145 -173q57 -35 82 -72t25 -86zM331 590q-55 0 -88.5 -28.5t-33.5 -74.5
q0 -34 23.5 -60t86.5 -59q64 30 91 61t27 74q0 40 -28 63.5t-78 23.5zM121 162q0 -48 36 -76t96 -28q63 0 104.5 34t41.5 85q0 46 -47 83l-26 17q-13 9 -61 35q-144 -52 -144 -150z" />
    <glyph glyph-name="nine" unicode="9" horiz-adv-x="522" 
d="M75 424q0 95 66 164q67 70 163 70q90 0 145 -61q57 -60 57 -157q0 -138 -96 -260q-95 -122 -268 -196l-31 67q218 96 283 253q-69 -63 -149 -63q-75 0 -123 51q-47 52 -47 132zM419 443q0 67 -30.5 103.5t-84.5 36.5q-61 0 -102 -44q-40 -43 -40 -113q0 -52 27 -81
t75 -29q79 0 153 86q2 40 2 41z" />
    <glyph glyph-name="colon" unicode=":" horiz-adv-x="240" 
d="M136 52q0 -26 -17 -44t-43 -18q-22 0 -36 13.5t-14 34.5q0 27 16.5 44.5t42.5 17.5q23 0 37 -13.5t14 -34.5zM213 452q0 -26 -17 -44t-43 -18q-22 0 -36 13.5t-14 34.5q0 27 16.5 44.5t42.5 17.5q23 0 37 -13.5t14 -34.5z" />
    <glyph glyph-name="semicolon" unicode=";" horiz-adv-x="240" 
d="M134 46q0 -108 -118 -187l-28 35q56 44 72 98q-36 8 -36 46q0 27 16.5 44.5t42.5 17.5q23 0 37 -14.5t14 -39.5zM213 452q0 -26 -17 -44t-43 -18q-22 0 -36 13.5t-14 34.5q0 27 16.5 44.5t42.5 17.5q23 0 37 -13.5t14 -34.5z" />
    <glyph glyph-name="less" unicode="&#x3c;" horiz-adv-x="438" 
d="M126 322l262 -127l-18 -91l-335 179l16 82l405 179l-19 -96z" />
    <glyph glyph-name="equal" unicode="=" horiz-adv-x="438" 
d="M70 454h378l-15 -77h-378zM35 274h378l-15 -77h-378z" />
    <glyph glyph-name="greater" unicode="&#x3e;" horiz-adv-x="438" 
d="M342 326l-262 127l18 91l335 -179l-16 -82l-405 -179l19 96z" />
    <glyph glyph-name="question" unicode="?" horiz-adv-x="438" 
d="M247 293l-10 -3l-25 -90h-66l12 112l28 31l48 16q65 22 95.5 54t30.5 80q0 42 -27.5 64.5t-79.5 22.5q-48 0 -123 -31l-22 71q81 38 150 38q87 0 138.5 -42t51.5 -113q0 -78 -49 -129t-152 -81zM203 52q0 -26 -17 -44t-43 -18q-22 0 -36 13.5t-14 34.5q0 27 16.5 44.5
t42.5 17.5q23 0 37 -13.5t14 -34.5z" />
    <glyph glyph-name="at" unicode="@" horiz-adv-x="926" 
d="M433 -178q-174 0 -280 100t-106 267q0 90 34.5 175.5t96.5 152.5q132 141 322 141q170 0 277 -95q106 -94 106 -247q0 -110 -59 -190q-33 -46 -77.5 -71.5t-90.5 -25.5q-43 0 -73 19t-41 53q-61 -73 -137 -73q-60 0 -97 42.5t-37 111.5q0 114 63 197t150 83q62 0 106 -42
l6 33h79l-56 -288q-14 -69 46 -69q57 0 98 65q42 66 42 155q0 123 -83 197t-222 74q-163 0 -270 -119q-105 -118 -105 -279q0 -137 85 -216q86 -80 227 -80q103 0 206 49l24 -60q-114 -60 -234 -60zM350 184q0 -87 72 -87q63 0 124 96l31 160q-36 41 -93 41t-96 -63
q-38 -62 -38 -147z" />
    <glyph glyph-name="A" unicode="A" horiz-adv-x="562" 
d="M348 583l-160 -325h192zM422 648l74 -648h-90l-18 180h-238l-88 -180h-92l326 648h126z" />
    <glyph glyph-name="B" unicode="B" horiz-adv-x="589" 
d="M279 0h-237l126 648h202q88 0 138.5 -40t50.5 -110q0 -55 -34 -99t-94 -65q97 -35 97 -126q0 -92 -70 -150q-68 -58 -179 -58zM468 484q0 85 -103 85h-123l-38 -196h133q57 0 94 31.5t37 79.5zM437 202q0 93 -121 93h-128l-42 -216h138q69 0 111 34t42 89z" />
    <glyph glyph-name="C" unicode="C" horiz-adv-x="525" 
d="M298 -10q-108 0 -171 68t-63 186q0 175 91 294q92 120 229 120q100 0 176 -56l-49 -69q-62 43 -133 43q-92 0 -157 -98q-63 -98 -63 -232q0 -85 36 -129.5t104 -44.5q64 0 146 47l31 -66q-88 -63 -177 -63z" />
    <glyph glyph-name="D" unicode="D" horiz-adv-x="617" 
d="M271 0h-229l126 648h181q108 0 171 -69q64 -67 64 -182q0 -161 -93 -279q-91 -118 -220 -118zM490 397q0 82 -37 125.5t-106 43.5h-106l-94 -484h126q90 0 153 95q64 94 64 220z" />
    <glyph glyph-name="E" unicode="E" horiz-adv-x="506" 
d="M429 80l-16 -80h-371l126 648h371l-16 -80h-282l-38 -200h235l-16 -80h-235l-40 -208h282z" />
    <glyph glyph-name="F" unicode="F" horiz-adv-x="491" 
d="M201 360h235l-16 -80h-235l-54 -280h-89l126 648h371l-16 -80h-282z" />
    <glyph glyph-name="G" unicode="G" horiz-adv-x="566" 
d="M437 314h86l-52 -267q-77 -57 -169 -57q-111 0 -174.5 67.5t-63.5 186.5q0 172 92 293q93 121 230 121q97 0 176 -56l-49 -69q-61 43 -130 43q-95 0 -160 -98t-65 -232q0 -85 37 -129.5t107 -44.5q53 0 92 20z" />
    <glyph glyph-name="H" unicode="H" horiz-adv-x="654" 
d="M642 648l-126 -648h-89l58 300h-296l-58 -300h-89l126 648h89l-53 -270h296l53 270h89z" />
    <glyph glyph-name="I" unicode="I" horiz-adv-x="269" 
d="M168 648h89l-126 -648h-89z" />
    <glyph glyph-name="J" unicode="J" horiz-adv-x="269" 
d="M55 67l113 581h89l-112 -575q-18 -94 -61 -155q-44 -62 -135 -123l-42 60q72 52 103 98q32 47 45 114z" />
    <glyph glyph-name="K" unicode="K" horiz-adv-x="569" 
d="M355 374l158 -374h-95l-130 311l-120 -120l-37 -191h-89l126 648h89l-64 -331l326 331h102z" />
    <glyph glyph-name="L" unicode="L" horiz-adv-x="491" 
d="M439 80l-16 -80h-381l126 648h89l-110 -568h292z" />
    <glyph glyph-name="M" unicode="M" horiz-adv-x="764" 
d="M641 527l-236 -347h-71l-104 341l-101 -521h-87l126 648h103l113 -369l251 369h117l-126 -648h-87z" />
    <glyph glyph-name="N" unicode="N" horiz-adv-x="649" 
d="M637 648l-126 -648h-118l-160 542l-105 -542h-86l126 648h118l160 -542l105 542h86z" />
    <glyph glyph-name="O" unicode="O" horiz-adv-x="646" 
d="M532 129q-45 -66 -106 -102.5t-127 -36.5q-107 0 -172 71q-63 71 -63 190q0 151 80 268q45 66 106 102.5t127 36.5q108 0 171 -71q64 -70 64 -190q0 -151 -80 -268zM158 251q0 -85 37.5 -132t105.5 -47q90 0 153 98q64 97 64 227q0 86 -37 132.5t-106 46.5
q-89 0 -154 -98q-63 -98 -63 -227z" />
    <glyph glyph-name="P" unicode="P" horiz-adv-x="551" 
d="M561 474q0 -97 -69 -160t-177 -63h-135l-49 -251h-89l126 648h198q87 0 141 -48t54 -126zM470 469q0 47 -27.5 73t-76.5 26h-125l-46 -237h125q66 0 108 38.5t42 99.5z" />
    <glyph glyph-name="Q" unicode="Q" horiz-adv-x="646" 
d="M424 25l54 -100l-76 -46l-61 115q-16 -4 -42 -4q-107 0 -172 71q-63 71 -63 190q0 151 80 268q45 66 106 102.5t127 36.5q108 0 171 -71q64 -70 64 -190q0 -118 -52 -221q-52 -102 -136 -151zM158 251q0 -85 37.5 -132t105.5 -47q90 0 153 98q64 97 64 227
q0 86 -37 132.5t-106 46.5q-89 0 -154 -98q-63 -98 -63 -227z" />
    <glyph glyph-name="R" unicode="R" horiz-adv-x="574" 
d="M475 476q0 44 -27.5 68t-76.5 24h-130l-42 -217h140q60 0 98 35t38 90zM400 280l88 -280h-94l-80 271h-130l-53 -271h-89l126 648h209q85 0 137.5 -45t52.5 -120q0 -74 -45 -128.5t-122 -74.5z" />
    <glyph glyph-name="S" unicode="S" horiz-adv-x="482" 
d="M425 177q0 -82 -61 -134q-61 -53 -154 -53q-122 0 -214 70l47 69q78 -60 167 -60q57 0 91.5 28t34.5 72q0 32 -20 58q-20 28 -85 69q-81 52 -106 90t-25 88q0 79 58 131q59 53 150 53q110 0 191 -59l-48 -69q-67 49 -146 49q-54 0 -86 -28t-32 -73q0 -28 19 -53
q21 -26 82 -65q83 -53 110 -93q27 -41 27 -90z" />
    <glyph glyph-name="T" unicode="T" horiz-adv-x="493" 
d="M93 648h463l-16 -80h-187l-110 -568h-89l110 568h-187z" />
    <glyph glyph-name="U" unicode="U" horiz-adv-x="618" 
d="M289 68q127 0 157 152l83 428h89l-83 -428q-21 -109 -86 -169.5t-160 -60.5q-111 0 -173 69q-61 70 -41 171l81 418h89l-81 -418q-14 -74 19.5 -118t105.5 -44z" />
    <glyph glyph-name="V" unicode="V" horiz-adv-x="562" 
d="M529 648h93l-326 -648h-126l-74 648h90l58 -581z" />
    <glyph glyph-name="W" unicode="W" horiz-adv-x="858" 
d="M908 648l-286 -648h-125l-44 377l-190 -377h-123l-34 648h91l21 -573l220 439l-16 134h92l57 -574l245 574h92z" />
    <glyph glyph-name="X" unicode="X" horiz-adv-x="516" 
d="M323 325l125 -325h-92l-96 255l-186 -255h-97l245 332l-124 316h92l93 -250l187 250h97z" />
    <glyph glyph-name="Y" unicode="Y" horiz-adv-x="516" 
d="M589 648l-284 -394l-49 -254h-89l49 254l-133 394h91l100 -306l218 306h97z" />
    <glyph glyph-name="Z" unicode="Z" horiz-adv-x="466" 
d="M110 76h293l-15 -76h-406l10 52l389 520h-283l15 76h396l-10 -52z" />
    <glyph glyph-name="bracketleft" unicode="[" horiz-adv-x="294" 
d="M197 -124l-14 -70h-179l175 897h179l-14 -70h-95l-147 -757h95z" />
    <glyph glyph-name="backslash" unicode="\" horiz-adv-x="427" 
d="M200 738l142 -828h-85l-142 828h85z" />
    <glyph glyph-name="bracketright" unicode="]" horiz-adv-x="294" 
d="M293 703l-175 -897h-179l14 70h95l147 757h-95l14 70h179z" />
    <glyph glyph-name="asciicircum" unicode="^" horiz-adv-x="438" 
d="M319 549l74 -430h-90l-46 315l-160 -315h-102l242 430h82z" />
    <glyph glyph-name="underscore" unicode="_" horiz-adv-x="420" 
d="M-33 -52h370l-15 -74h-370z" />
    <glyph glyph-name="grave" unicode="`" horiz-adv-x="500" 
d="M266 551l-112 97l58 54l135 -151h-81z" />
    <glyph glyph-name="a" unicode="a" 
d="M135 173q0 -105 89 -105q76 0 145 112l38 194q-43 49 -110 49q-71 0 -117 -73q-45 -74 -45 -177zM516 490l-95 -490h-87l13 65q-65 -75 -143 -75q-69 0 -113 50t-44 131q0 139 72 233q73 96 178 96q73 0 125 -49l7 39h87z" />
    <glyph glyph-name="b" unicode="b" horiz-adv-x="547" 
d="M499 319q0 -139 -73 -234q-72 -95 -177 -95q-114 0 -207 70l120 618h87l-49 -252q63 74 142 74q69 0 113 -50t44 -131zM249 67q71 0 116 73q46 73 46 177q0 105 -89 105q-77 0 -144 -111l-41 -210q46 -34 112 -34z" />
    <glyph glyph-name="c" unicode="c" horiz-adv-x="446" 
d="M243 -10q-90 0 -142 51.5t-52 142.5q0 136 72 226t189 90q85 0 142 -38l-41 -70q-51 30 -106 30q-74 0 -121 -68t-47 -170q0 -55 29 -85t82 -30q47 0 106 27l19 -70q-59 -36 -130 -36z" />
    <glyph glyph-name="d" unicode="d" 
d="M135 173q0 -105 89 -105q76 0 146 113l37 193q-44 49 -110 49q-71 0 -117 -73q-45 -74 -45 -177zM553 678l-132 -678h-87l13 65q-65 -75 -143 -75q-69 0 -113 50t-44 131q0 139 72 233q73 96 178 96q73 0 125 -49l44 227h87z" />
    <glyph glyph-name="e" unicode="e" horiz-adv-x="505" 
d="M384 102l25 -64q-77 -48 -157 -48q-95 0 -150 55t-55 150q0 127 71 216t172 89q80 0 127.5 -47t47.5 -126q0 -44 -15 -84l-28 -27h-287q-1 -5 -1 -21q0 -63 32 -95.5t93 -32.5q54 0 125 35zM384 324q0 102 -96 102q-48 0 -86.5 -37.5t-55.5 -101.5h234q4 20 4 37z" />
    <glyph glyph-name="f" unicode="f" horiz-adv-x="338" 
d="M378 490l-14 -71h-138l-81 -419h-87l81 419h-87l12 57l89 14l5 25q34 173 202 173q44 0 81 -14l-26 -67q-32 8 -58 8q-51 0 -76 -21.5t-36 -77.5l-5 -26h138z" />
    <glyph glyph-name="g" unicode="g" 
d="M135 173q0 -105 89 -105q76 0 145 112l38 194q-43 49 -110 49q-71 0 -117 -73q-45 -74 -45 -177zM174 -205q-99 0 -166 40l35 70q58 -33 131 -33q134 0 162 138l11 55q-65 -75 -143 -75q-69 0 -113 50t-44 131q0 139 72 233q73 96 178 96q73 0 125 -49l7 39h87l-93 -480
q-20 -104 -85 -159.5t-164 -55.5z" />
    <glyph glyph-name="h" unicode="h" horiz-adv-x="548" 
d="M337 422q-59 0 -152 -85l-66 -337h-87l132 678h87l-50 -256q88 78 161 78q71 0 106 -49.5t20 -128.5l-63 -322h-87l63 322q18 100 -64 100z" />
    <glyph glyph-name="i" unicode="i" horiz-adv-x="247" 
d="M142 612q0 27 16 43.5t42 16.5q22 0 36 -13t14 -33q0 -27 -16 -43.5t-42 -16.5q-22 0 -36 13t-14 33zM32 0l95 490h87l-95 -490h-87z" />
    <glyph glyph-name="j" unicode="j" horiz-adv-x="247" 
d="M142 612q0 27 16 43.5t42 16.5q22 0 36 -13t14 -33q0 -27 -16 -43.5t-42 -16.5q-22 0 -36 13t-14 33zM45 67l82 423h87l-81 -417q-20 -96 -61 -155q-40 -60 -135 -123l-43 62q75 54 106 99q32 45 45 111z" />
    <glyph glyph-name="k" unicode="k" horiz-adv-x="490" 
d="M315 295l115 -295h-91l-91 237l-101 -91l-28 -146h-87l132 678h87l-83 -424l253 236h99z" />
    <glyph glyph-name="l" unicode="l" horiz-adv-x="247" 
d="M32 0l132 678h87l-132 -678h-87z" />
    <glyph glyph-name="m" unicode="m" horiz-adv-x="834" 
d="M327 422q-55 0 -140 -74l-68 -348h-87l95 490h87l-13 -67q85 77 151 77q47 0 79.5 -23t44.5 -64q94 87 172 87q71 0 106 -49.5t20 -128.5l-63 -322h-87l63 322q18 100 -64 100q-53 0 -141 -75q-1 -8 -2.5 -16t-1.5 -9l-63 -322h-87l63 322q18 100 -64 100z" />
    <glyph glyph-name="n" unicode="n" horiz-adv-x="548" 
d="M337 422q-59 0 -153 -85l-65 -337h-87l95 490h87l-13 -69q86 79 161 79q71 0 106 -49.5t20 -128.5l-63 -322h-87l63 322q18 100 -64 100z" />
    <glyph glyph-name="o" unicode="o" horiz-adv-x="524" 
d="M474 296q0 -125 -70 -216q-70 -90 -171 -90q-84 0 -134 55.5t-50 148.5q0 128 69 216q70 90 172 90q83 0 133 -56q51 -56 51 -148zM137 194q0 -128 98 -128q64 0 107 67q44 68 44 163q0 128 -98 128q-64 0 -108 -66q-43 -65 -43 -164z" />
    <glyph glyph-name="p" unicode="p" 
d="M251 67q71 0 116 73q46 73 46 177q0 105 -89 105q-77 0 -144 -111l-38 -196q42 -48 109 -48zM501 319q0 -139 -73 -234q-72 -95 -177 -95q-75 0 -124 49l-46 -234h-87l133 685h87l-12 -64q63 74 142 74q69 0 113 -50t44 -131z" />
    <glyph glyph-name="q" unicode="q" horiz-adv-x="548" 
d="M429 490h87l-133 -685h-87l50 259q-63 -74 -142 -74q-69 0 -113 50t-44 131q0 139 72 233q73 96 178 96q73 0 125 -49zM135 173q0 -105 89 -105q76 0 145 112l38 194q-43 49 -110 49q-71 0 -117 -73q-45 -74 -45 -177z" />
    <glyph glyph-name="r" unicode="r" horiz-adv-x="338" 
d="M187 348l-68 -348h-87l95 490h87l-13 -67q52 43 88.5 60t80.5 17l-16 -83q-49 -4 -85 -19t-82 -50z" />
    <glyph glyph-name="s" unicode="s" horiz-adv-x="414" 
d="M352 148q0 -71 -52 -114q-53 -44 -134 -44q-96 0 -168 56l43 67q64 -48 135 -48q42 0 66.5 20t24.5 52q0 19 -15 34.5t-61 39.5q-70 38 -92 67t-22 70q0 66 49 109t128 43q86 0 153 -49l-44 -67q-53 41 -113 41q-41 0 -64.5 -18t-23.5 -49q0 -20 16 -36.5t62 -40.5
q67 -34 90 -65q22 -28 22 -68z" />
    <glyph glyph-name="t" unicode="t" horiz-adv-x="380" 
d="M213 -10q-72 0 -107.5 43.5t-21.5 115.5l53 270h-88l12 57l89 14l47 125h64l-24 -125h156l-14 -71h-156l-53 -270q-9 -42 5.5 -61.5t54.5 -19.5q32 0 80 18l11 -68q-53 -28 -108 -28z" />
    <glyph glyph-name="u" unicode="u" horiz-adv-x="541" 
d="M508 490l-95 -490h-87l13 68q-88 -78 -158 -78q-69 0 -103 50t-19 129l62 321h87l-62 -321q-10 -49 6 -75t54 -26q57 0 150 85l65 337h87z" />
    <glyph glyph-name="v" unicode="v" horiz-adv-x="474" 
d="M507 490l-261 -490h-114l-71 490h89l50 -423l214 423h93z" />
    <glyph glyph-name="w" unicode="w" horiz-adv-x="720" 
d="M371 298l-155 -298h-109l-39 490h86l21 -425l181 351l-9 74h86l39 -426l186 426h88l-229 -490h-109z" />
    <glyph glyph-name="x" unicode="x" horiz-adv-x="444" 
d="M272 248l108 -248h-88l-82 191l-146 -191h-96l204 254l-104 236h89l75 -181l142 181h96z" />
    <glyph glyph-name="y" unicode="y" horiz-adv-x="465" 
d="M405 490h89l-344 -685h-89l102 195h-48l-50 490h85l40 -433z" />
    <glyph glyph-name="z" unicode="z" horiz-adv-x="403" 
d="M105 69h233l-13 -69h-341l10 52l301 369h-224l13 69h331l-10 -52z" />
    <glyph glyph-name="braceleft" unicode="{" horiz-adv-x="323" 
d="M170 -129h55l-14 -70h-42q-68 0 -105.5 30.5t-37.5 85.5q0 24 10 51q12 31 43 90q46 85 46 118q0 41 -46 41h-30l15 77h30q71 0 71 83q0 24 -6 80q-7 71 -7 93q0 72 42 115t113 43h81l-14 -70h-67q-71 0 -71 -88q0 -18 4 -78q5 -61 5 -87q0 -62 -23.5 -92.5t-74.5 -37.5
q60 -12 60 -72q0 -23 -10 -50q-12 -32 -41 -89q-26 -51 -37 -80q-8 -26 -8 -40q0 -53 59 -53z" />
    <glyph glyph-name="bar" unicode="|" horiz-adv-x="269" 
d="M174 678h89l-161 -828h-89z" />
    <glyph glyph-name="braceright" unicode="}" horiz-adv-x="323" 
d="M174 -41q0 -72 -42 -115t-113 -43h-81l14 70h67q71 0 71 88q0 18 -4 78q-5 61 -5 87q0 62 23.5 92.5t74.5 37.5q-60 12 -60 72q0 22 10 49q13 35 41 90t36 80q9 24 9 40q0 53 -59 53h-55l14 70h42q68 0 105.5 -30.5t37.5 -85.5q0 -24 -10 -51q-12 -31 -43 -90
q-46 -85 -46 -118q0 -41 46 -41h30l-15 -77h-30q-71 0 -71 -83q0 -24 6 -80q7 -71 7 -93z" />
    <glyph glyph-name="asciitilde" unicode="~" horiz-adv-x="438" 
d="M237 342q51 -21 76 -21q34 0 79 35l34 -54q-62 -59 -118 -59q-35 0 -96 26q-46 19 -65 19q-30 0 -79 -35l-33 54q65 59 117 59q32 0 85 -24z" />
    <glyph glyph-name="uni00A0" unicode="&#xa0;" horiz-adv-x="180" 
 />
    <glyph glyph-name="exclamdown" unicode="&#xa1;" horiz-adv-x="260" 
d="M112 438q0 26 17 44t43 18q22 0 36 -13.5t14 -34.5q0 -27 -16.5 -44.5t-42.5 -17.5q-23 0 -37 13.5t-14 34.5zM126 0l-31 -158h-90l31 158l68 290h66z" />
    <glyph glyph-name="cent" unicode="&#xa2;" horiz-adv-x="445" 
d="M367 194l19 -70q-61 -34 -125 -34l-20 -100h-81l22 112q-116 39 -116 182q0 104 55 180q55 75 149 92l20 102h81l-20 -100q66 -8 108 -36l-41 -70q-51 30 -106 30q-69 0 -114 -57q-44 -56 -44 -141q0 -56 28.5 -85.5t82.5 -29.5q45 0 102 25z" />
    <glyph glyph-name="sterling" unicode="&#xa3;" horiz-adv-x="515" 
d="M162 75h295l-15 -75h-440l15 75l26 3q111 12 111 128q0 25 -6 74h-92l14 72h67q-6 36 -6 74q0 106 62 169t168 63q95 0 174 -52l-41 -67q-62 42 -133 42q-142 0 -142 -158q0 -36 5 -71h216l-14 -72h-193q6 -37 6 -74q0 -104 -77 -131z" />
    <glyph glyph-name="currency" unicode="&#xa4;" horiz-adv-x="473" 
d="M418 207l45 -44l-58 -57l-44 44l-40 50q-35 -18 -70 -18q-37 0 -70 19l-40 -51l-44 -44l-57 57l44 44l49 39q-25 38 -25 80t25 80l-49 39l-44 44l57 58l44 -45l41 -51q32 18 69 18q39 0 70 -18l40 51l44 45l58 -58l-45 -44l-48 -38q26 -35 26 -81q0 -44 -25 -81zM184 326
q0 -30 19.5 -51t47.5 -21q29 0 49 21t20 51t-19.5 50.5t-49.5 20.5q-29 0 -48 -20t-19 -51z" />
    <glyph glyph-name="yen" unicode="&#xa5;" horiz-adv-x="556" 
d="M330 260h149l-14 -70h-152l-37 -190h-89l37 190h-152l14 70h149l-24 70h-132l14 70h94l-84 248h91l100 -306l218 306h97l-178 -248h95l-14 -70h-132z" />
    <glyph glyph-name="brokenbar" unicode="&#xa6;" horiz-adv-x="269" 
d="M174 678h89l-73 -374h-89zM86 224h89l-73 -374h-89z" />
    <glyph glyph-name="section" unicode="&#xa7;" horiz-adv-x="480" 
d="M202 344q-66 -37 -66 -91q0 -45 61 -82q36 -20 46 -25q35 -18 50 -27q58 36 58 91q0 46 -57 82q-14 9 -47 27l-18 10t-17 9.5t-10 5.5zM382 -19q0 -82 -61 -134q-59 -52 -158 -52q-120 0 -211 66l48 68q82 -55 171 -55q56 0 89 26.5t33 72.5q0 30 -21 54q-19 24 -88 59
q-82 43 -109 78q-26 35 -26 81q0 83 98 140q-40 41 -40 98q0 76 58 125q59 50 148 50q99 0 188 -61l-47 -67q-71 49 -141 49q-54 0 -86 -24.5t-32 -64.5q0 -29 19 -51q21 -24 86 -58q83 -43 111 -80q27 -35 27 -83q0 -82 -90 -144q34 -40 34 -93z" />
    <glyph glyph-name="dieresis" unicode="&#xa8;" horiz-adv-x="500" 
d="M291 626q0 -26 -16.5 -43t-42.5 -17q-22 0 -35.5 13t-13.5 33q0 26 16.5 43t41.5 17q22 0 36 -13t14 -33zM461 626q0 -26 -16.5 -43t-42.5 -17q-22 0 -35.5 13t-13.5 33q0 26 16.5 43t41.5 17q22 0 36 -13t14 -33z" />
    <glyph glyph-name="copyright" unicode="&#xa9;" horiz-adv-x="811" 
d="M653 98q-108 -108 -259 -108q-136 0 -225 86t-89 215q0 151 108 259t259 108q136 0 225 -86t89 -215q0 -151 -108 -259zM684 355q0 103 -67 167q-68 65 -172 65q-124 0 -206 -85t-82 -209q0 -103 67 -167q68 -65 172 -65q123 0 205 85q83 86 83 209zM415 156
q-60 0 -97 39.5t-37 104.5q0 85 49 141q50 57 126 57q49 0 90 -27l-29 -58q-33 20 -69 20q-41 0 -67 -36.5t-26 -92.5q0 -39 18.5 -61t50.5 -22q36 0 74 18l14 -58q-44 -25 -97 -25z" />
    <glyph glyph-name="ordfeminine" unicode="&#xaa;" horiz-adv-x="378" 
d="M154 474q0 -57 50 -57q44 0 84 63l16 86q-25 29 -61 29q-38 0 -63 -37q-26 -37 -26 -84zM391 652l-56 -294h-70l7 38q-38 -44 -88 -44q-45 0 -74 32t-29 85q0 77 48 133q50 56 114 56q42 0 72 -30l5 24h71z" />
    <glyph glyph-name="guillemotleft" unicode="&#xab;" horiz-adv-x="545" 
d="M347 250l125 -97l-18 -93l-181 149l17 88l239 149l-20 -100zM114 249l133 -97l-18 -92l-191 149l17 88l249 149l-19 -101z" />
    <glyph glyph-name="logicalnot" unicode="&#xac;" horiz-adv-x="438" 
d="M49 344h378l-45 -232h-84l30 155h-294z" />
    <glyph glyph-name="uni00AD" unicode="&#xad;" horiz-adv-x="0" 
 />
    <glyph glyph-name="registered" unicode="&#xae;" horiz-adv-x="811" 
d="M653 98q-108 -108 -259 -108q-136 0 -225 86t-89 215q0 151 108 259t259 108q136 0 225 -86t89 -215q0 -151 -108 -259zM157 293q0 -103 67 -167q68 -65 172 -65q123 0 205 85q83 86 83 209q0 103 -67 167q-68 65 -172 65q-124 0 -206 -85t-82 -209zM505 394q0 37 -45 37
h-64l-18 -94h67q60 0 60 57zM495 290l38 -122h-71l-32 114h-63l-22 -114h-68l62 320h125q52 0 80.5 -23.5t28.5 -66.5q0 -38 -20.5 -66.5t-57.5 -41.5z" />
    <glyph glyph-name="overscore" unicode="&#xaf;" horiz-adv-x="500" 
d="M184 574l14 74h260l-14 -74h-260z" />
    <glyph glyph-name="degree" unicode="&#xb0;" horiz-adv-x="314" 
d="M331 556q0 -54 -36 -90t-87 -36q-48 0 -79 28.5t-31 73.5q0 54 36 90t88 36q47 0 78 -29t31 -73zM265 551q0 21 -12.5 34t-32.5 13q-24 0 -40 -17.5t-16 -43.5q0 -21 12 -34t33 -13q23 0 39.5 17.5t16.5 43.5z" />
    <glyph glyph-name="plusminus" unicode="&#xb1;" horiz-adv-x="438" 
d="M290 394h147l-15 -77h-147l-30 -155h-84l30 155h-147l15 77h147l28 146h84zM-3 77h378l-15 -77h-378z" />
    <glyph glyph-name="twosuperior" unicode="&#xb2;" horiz-adv-x="286" 
d="M175 486h123l-12 -62h-227l9 48q102 72 144 113q41 41 41 72q0 34 -43 34q-27 0 -75 -20l-17 58q55 24 100 24q49 0 77.5 -23.5t28.5 -63.5q0 -46 -33 -85.5t-116 -94.5z" />
    <glyph glyph-name="threesuperior" unicode="&#xb3;" horiz-adv-x="288" 
d="M309 526q0 -49 -36.5 -78t-98.5 -29q-54 0 -107 24l28 57q42 -19 81 -19q64 0 64 45q0 35 -43 35h-65l11 58h62q53 0 53 40q0 32 -48 32q-34 0 -71 -15l-12 57q55 20 93 20q52 0 81 -21t29 -60q0 -28 -17 -49.5t-47 -31.5q43 -18 43 -65z" />
    <glyph glyph-name="acute" unicode="&#xb4;" horiz-adv-x="500" 
d="M462 648l-112 -97h-81l135 151z" />
    <glyph glyph-name="mu" unicode="&#xb5;" horiz-adv-x="542" 
d="M181 -10q-41 0 -67 18l-40 -203h-85l132 685h88l-63 -321q-10 -49 6 -75t54 -26q56 0 150 85l65 337h87l-95 -490h-87l14 69q-88 -79 -159 -79z" />
    <glyph glyph-name="paragraph" unicode="&#xb6;" horiz-adv-x="627" 
d="M615 648l-126 -648h-89l126 648h89zM330 648h109l-126 -648h-89l49 252q-81 7 -129 56t-48 126q0 94 65 154q66 60 169 60z" />
    <glyph glyph-name="middot" unicode="&#xb7;" horiz-adv-x="500" 
d="M324 356q0 -26 -16.5 -43t-42.5 -17q-22 0 -35.5 13t-13.5 33q0 26 16.5 43t41.5 17q22 0 36 -13t14 -33z" />
    <glyph glyph-name="cedilla" unicode="&#xb8;" horiz-adv-x="500" 
d="M285 -120q0 -39 -31.5 -64t-82.5 -25q-50 0 -95 20l28 52q26 -14 58 -14q47 0 47 28q0 22 -38 22q-19 0 -38 -6l-16 29l54 96h61l-30 -64q38 -1 60.5 -21t22.5 -53z" />
    <glyph glyph-name="onesuperior" unicode="&#xb9;" horiz-adv-x="253" 
d="M216 486h60l-12 -62h-200l12 62h70l39 200h-70l12 62h140z" />
    <glyph glyph-name="ordmasculine" unicode="&#xba;" horiz-adv-x="362" 
d="M92 474q0 76 45 130t111 54q55 0 88.5 -33.5t33.5 -88.5q0 -76 -45 -130t-111 -54q-55 0 -88.5 33.5t-33.5 88.5zM298 533q0 29 -14.5 45.5t-38.5 16.5q-33 0 -56.5 -35t-23.5 -83q0 -29 14.5 -45.5t38.5 -16.5q33 0 56.5 35t23.5 83z" />
    <glyph glyph-name="guillemotright" unicode="&#xbb;" horiz-adv-x="545" 
d="M275 297l-17 -88l-239 -149l20 100l162 96l-125 97l18 93zM510 297l-17 -88l-249 -149l19 101l171 96l-133 97l18 92z" />
    <glyph glyph-name="onequarter" unicode="&#xbc;" horiz-adv-x="702" 
d="M197 386h60l-12 -62h-200l12 62h70l39 200h-70l12 62h140zM576 648h85l-522 -648h-85zM610 108h45l-11 -56h-45l-10 -52h-66l10 52h-153l3 43q87 130 193 229h76zM459 108h85l28 142q-63 -68 -113 -142z" />
    <glyph glyph-name="onehalf" unicode="&#xbd;" horiz-adv-x="721" 
d="M197 386h60l-12 -62h-200l12 62h70l39 200h-70l12 62h140zM576 648h85l-522 -648h-85zM527 62h123l-12 -62h-227l9 48q102 72 144 113q41 41 41 72q0 34 -43 34q-27 0 -75 -20l-17 58q55 24 100 24q49 0 77.5 -23.5t28.5 -63.5q0 -46 -33 -85.5t-116 -94.5z" />
    <glyph glyph-name="threequarters" unicode="&#xbe;" horiz-adv-x="736" 
d="M289 426q0 -49 -36.5 -78t-98.5 -29q-55 0 -107 24l28 57q42 -19 81 -19q64 0 64 45q0 35 -43 35h-65l11 58h62q53 0 53 40q0 32 -48 32q-34 0 -71 -15l-12 57q55 20 93 20q52 0 81 -21t29 -60q0 -28 -17 -49.5t-47 -31.5q43 -18 43 -65zM610 648h85l-522 -648h-85z
M644 108h45l-11 -56h-45l-10 -52h-66l10 52h-153l3 43q87 130 193 229h76zM493 108h85l28 142q-63 -68 -113 -142z" />
    <glyph glyph-name="questiondown" unicode="&#xbf;" horiz-adv-x="438" 
d="M234 437q0 26 17 44t43 18q22 0 36 -13.5t14 -34.5q0 -27 -16.5 -44.5t-42.5 -17.5q-23 0 -37 13.5t-14 34.5zM179 -169q-87 0 -138.5 42t-51.5 113q0 78 49 129t152 81l10 3l25 90h66l-12 -112l-28 -31l-48 -16q-65 -22 -95.5 -54t-30.5 -80q0 -42 27.5 -64.5
t79.5 -22.5q48 0 123 31l23 -71q-78 -38 -151 -38z" />
    <glyph glyph-name="Agrave" unicode="&#xc0;" horiz-adv-x="562" 
d="M188 258l160 325l32 -325h-192zM496 0l-74 648h-126l-326 -648h92l88 180h238l18 -180h90zM327 709l-112 97l58 54l135 -151h-81z" />
    <glyph glyph-name="Aacute" unicode="&#xc1;" horiz-adv-x="562" 
d="M348 583l-160 -325h192zM422 648l74 -648h-90l-18 180h-238l-88 -180h-92l326 648h126zM523 806l-112 -97h-81l135 151z" />
    <glyph glyph-name="Acircumflex" unicode="&#xc2;" horiz-adv-x="562" 
d="M348 583l-160 -325h192zM422 648l74 -648h-90l-18 180h-238l-88 -180h-92l326 648h126zM430 860l87 -151h-77l-51 77l-81 -77h-85l145 151h62z" />
    <glyph glyph-name="Atilde" unicode="&#xc3;" horiz-adv-x="562" 
d="M348 583l-160 -325h192zM422 648l74 -648h-90l-18 180h-238l-88 -180h-92l326 648h126zM329 841q31 0 74 -31q31 -21 42 -21t20.5 9.5t25.5 36.5l57 -23q-48 -95 -109 -95q-34 0 -78 33q-27 19 -38 19q-12 0 -21 -9t-25 -37l-58 23q27 51 52.5 73t57.5 22z" />
    <glyph glyph-name="Adieresis" unicode="&#xc4;" horiz-adv-x="562" 
d="M348 583l-160 -325h192zM422 648l74 -648h-90l-18 180h-238l-88 -180h-92l326 648h126zM352 784q0 -26 -16.5 -43t-42.5 -17q-22 0 -35.5 13t-13.5 33q0 26 16.5 43t41.5 17q22 0 36 -13t14 -33zM522 784q0 -26 -16.5 -43t-42.5 -17q-22 0 -35.5 13t-13.5 33
q0 26 16.5 43t41.5 17q22 0 36 -13t14 -33z" />
    <glyph glyph-name="Aring" unicode="&#xc5;" horiz-adv-x="562" 
d="M348 583l-160 -325h192zM422 648l74 -648h-90l-18 180h-238l-88 -180h-92l326 648h126zM274 793q0 48 34 78t89 30q46 0 75.5 -25t29.5 -63q0 -48 -34 -78t-89 -30q-46 0 -75.5 25t-29.5 63zM434 806q0 38 -44 38q-20 0 -34 -12.5t-14 -31.5q0 -38 44 -38q20 0 34 12.5
t14 31.5z" />
    <glyph glyph-name="AE" unicode="&#xc6;" horiz-adv-x="799" 
d="M385 568l-180 -310h181l60 310h-61zM722 80l-16 -80h-370l35 180h-211l-105 -180h-95l386 648h486l-16 -80h-282l-38 -200h235l-16 -80h-235l-40 -208h282z" />
    <glyph glyph-name="Ccedilla" unicode="&#xc7;" horiz-adv-x="525" 
d="M328 -120q0 -39 -31.5 -64t-82.5 -25q-50 0 -95 20l28 52q26 -14 58 -14q47 0 47 28q0 22 -38 22q-18 0 -38 -6l-16 29l46 83q-68 25 -105 87t-37 152q0 175 91 294q92 120 229 120q100 0 176 -56l-49 -69q-62 43 -133 43q-92 0 -157 -98q-63 -98 -63 -232
q0 -85 36 -129.5t104 -44.5q64 0 146 47l31 -66q-88 -63 -177 -63q-3 0 -7.5 0.5t-12.5 1t-16 0.5l-17 -38q38 -1 60.5 -21t22.5 -53z" />
    <glyph glyph-name="Egrave" unicode="&#xc8;" horiz-adv-x="506" 
d="M413 0l16 80h-282l40 208h235l16 80h-235l38 200h282l16 80h-371l-126 -648h371zM319 709l-112 97l58 54l135 -151h-81z" />
    <glyph glyph-name="Eacute" unicode="&#xc9;" horiz-adv-x="506" 
d="M429 80l-16 -80h-371l126 648h371l-16 -80h-282l-38 -200h235l-16 -80h-235l-40 -208h282zM495 806l-112 -97h-81l135 151z" />
    <glyph glyph-name="Ecircumflex" unicode="&#xca;" horiz-adv-x="506" 
d="M429 80l-16 -80h-371l126 648h371l-16 -80h-282l-38 -200h235l-16 -80h-235l-40 -208h282zM417 860l87 -151h-77l-51 77l-81 -77h-85l145 151h62z" />
    <glyph glyph-name="Edieresis" unicode="&#xcb;" horiz-adv-x="506" 
d="M429 80l-16 -80h-371l126 648h371l-16 -80h-282l-38 -200h235l-16 -80h-235l-40 -208h282zM339 784q0 -26 -16.5 -43t-42.5 -17q-22 0 -35.5 13t-13.5 33q0 26 16.5 43t41.5 17q22 0 36 -13t14 -33zM509 784q0 -26 -16.5 -43t-42.5 -17q-22 0 -35.5 13t-13.5 33
q0 26 16.5 43t41.5 17q22 0 36 -13t14 -33z" />
    <glyph glyph-name="Igrave" unicode="&#xcc;" horiz-adv-x="269" 
d="M257 648h-89l-126 -648h89zM180 709l-112 97l58 54l135 -151h-81z" />
    <glyph glyph-name="Iacute" unicode="&#xcd;" horiz-adv-x="269" 
d="M168 648h89l-126 -648h-89zM376 806l-112 -97h-81l135 151z" />
    <glyph glyph-name="Icircumflex" unicode="&#xce;" horiz-adv-x="269" 
d="M168 648h89l-126 -648h-89zM283 860l87 -151h-77l-51 77l-81 -77h-85l145 151h62z" />
    <glyph glyph-name="Idieresis" unicode="&#xcf;" horiz-adv-x="269" 
d="M168 648h89l-126 -648h-89zM205 784q0 -26 -16.5 -43t-42.5 -17q-22 0 -35.5 13t-13.5 33q0 26 16.5 43t41.5 17q22 0 36 -13t14 -33zM375 784q0 -26 -16.5 -43t-42.5 -17q-22 0 -35.5 13t-13.5 33q0 26 16.5 43t41.5 17q22 0 36 -13t14 -33z" />
    <glyph glyph-name="Eth" unicode="&#xd0;" horiz-adv-x="636" 
d="M290 0h-229l57 295h-70l15 75h70l54 278h181q108 0 171 -69q64 -67 64 -182q0 -161 -93 -279q-91 -118 -220 -118zM222 370h148l-15 -75h-148l-41 -213h126q90 0 153 95q64 94 64 220q0 82 -37 125.5t-106 43.5h-106z" />
    <glyph glyph-name="Ntilde" unicode="&#xd1;" horiz-adv-x="649" 
d="M637 648l-126 -648h-118l-160 542l-105 -542h-86l126 648h118l160 -542l105 542h86zM373 841q31 0 74 -31q31 -21 42 -21t20.5 9.5t25.5 36.5l57 -23q-48 -95 -109 -95q-34 0 -78 33q-27 19 -38 19q-12 0 -21 -9t-25 -37l-58 23q27 51 52.5 73t57.5 22z" />
    <glyph glyph-name="Ograve" unicode="&#xd2;" horiz-adv-x="646" 
d="M532 129q80 117 80 268q0 120 -64 190q-63 71 -171 71q-66 0 -127 -36.5t-106 -102.5q-80 -117 -80 -268q0 -119 63 -190q65 -71 172 -71q66 0 127 36.5t106 102.5zM158 251q0 129 63 227q65 98 154 98q69 0 106 -46.5t37 -132.5q0 -130 -64 -227q-63 -98 -153 -98
q-68 0 -105.5 47t-37.5 132zM369 709l-112 97l58 54l135 -151h-81z" />
    <glyph glyph-name="Oacute" unicode="&#xd3;" horiz-adv-x="646" 
d="M532 129q-45 -66 -106 -102.5t-127 -36.5q-107 0 -172 71q-63 71 -63 190q0 151 80 268q45 66 106 102.5t127 36.5q108 0 171 -71q64 -70 64 -190q0 -151 -80 -268zM158 251q0 -85 37.5 -132t105.5 -47q90 0 153 98q64 97 64 227q0 86 -37 132.5t-106 46.5
q-89 0 -154 -98q-63 -98 -63 -227zM565 806l-112 -97h-81l135 151z" />
    <glyph glyph-name="Ocircumflex" unicode="&#xd4;" horiz-adv-x="646" 
d="M532 129q-45 -66 -106 -102.5t-127 -36.5q-107 0 -172 71q-63 71 -63 190q0 151 80 268q45 66 106 102.5t127 36.5q108 0 171 -71q64 -70 64 -190q0 -151 -80 -268zM158 251q0 -85 37.5 -132t105.5 -47q90 0 153 98q64 97 64 227q0 86 -37 132.5t-106 46.5
q-89 0 -154 -98q-63 -98 -63 -227zM472 860l87 -151h-77l-51 77l-81 -77h-85l145 151h62z" />
    <glyph glyph-name="Otilde" unicode="&#xd5;" horiz-adv-x="646" 
d="M532 129q-45 -66 -106 -102.5t-127 -36.5q-107 0 -172 71q-63 71 -63 190q0 151 80 268q45 66 106 102.5t127 36.5q108 0 171 -71q64 -70 64 -190q0 -151 -80 -268zM158 251q0 -85 37.5 -132t105.5 -47q90 0 153 98q64 97 64 227q0 86 -37 132.5t-106 46.5
q-89 0 -154 -98q-63 -98 -63 -227zM371 841q31 0 74 -31q31 -21 42 -21t20.5 9.5t25.5 36.5l57 -23q-48 -95 -109 -95q-34 0 -78 33q-27 19 -38 19q-12 0 -21 -9t-25 -37l-58 23q27 51 52.5 73t57.5 22z" />
    <glyph glyph-name="Odieresis" unicode="&#xd6;" horiz-adv-x="646" 
d="M532 129q-45 -66 -106 -102.5t-127 -36.5q-107 0 -172 71q-63 71 -63 190q0 151 80 268q45 66 106 102.5t127 36.5q108 0 171 -71q64 -70 64 -190q0 -151 -80 -268zM158 251q0 -85 37.5 -132t105.5 -47q90 0 153 98q64 97 64 227q0 86 -37 132.5t-106 46.5
q-89 0 -154 -98q-63 -98 -63 -227zM394 784q0 -26 -16.5 -43t-42.5 -17q-22 0 -35.5 13t-13.5 33q0 26 16.5 43t41.5 17q22 0 36 -13t14 -33zM564 784q0 -26 -16.5 -43t-42.5 -17q-22 0 -35.5 13t-13.5 33q0 26 16.5 43t41.5 17q22 0 36 -13t14 -33z" />
    <glyph glyph-name="multiply" unicode="&#xd7;" horiz-adv-x="438" 
d="M284 301l93 -123l-59 -51l-94 124l-148 -124l-46 58l150 124l-91 120l60 50l91 -120l144 120l46 -57z" />
    <glyph glyph-name="Oslash" unicode="&#xd8;" horiz-adv-x="646" 
d="M375 576q-89 0 -154 -98q-63 -98 -63 -227q0 -43 11 -81l304 369q-37 37 -98 37zM301 72q90 0 153 98q64 97 64 227q0 33 -8 70l-300 -364q39 -31 91 -31zM532 129q-45 -66 -106 -102.5t-127 -36.5q-86 0 -144 46l-64 -78l-58 47l72 87q-41 65 -41 159q0 151 80 268
q45 66 106 102.5t127 36.5q93 0 152 -52l69 84l58 -47l-79 -96q35 -62 35 -150q0 -151 -80 -268z" />
    <glyph glyph-name="Ugrave" unicode="&#xd9;" horiz-adv-x="618" 
d="M289 68q-72 0 -105.5 44t-19.5 118l81 418h-89l-81 -418q-20 -101 41 -171q62 -69 173 -69q95 0 160 60.5t86 169.5l83 428h-89l-83 -428q-30 -152 -157 -152zM355 709l-112 97l58 54l135 -151h-81z" />
    <glyph glyph-name="Uacute" unicode="&#xda;" horiz-adv-x="618" 
d="M289 68q127 0 157 152l83 428h89l-83 -428q-21 -109 -86 -169.5t-160 -60.5q-111 0 -173 69q-61 70 -41 171l81 418h89l-81 -418q-14 -74 19.5 -118t105.5 -44zM551 806l-112 -97h-81l135 151z" />
    <glyph glyph-name="Ucircumflex" unicode="&#xdb;" horiz-adv-x="618" 
d="M289 68q127 0 157 152l83 428h89l-83 -428q-21 -109 -86 -169.5t-160 -60.5q-111 0 -173 69q-61 70 -41 171l81 418h89l-81 -418q-14 -74 19.5 -118t105.5 -44zM458 860l87 -151h-77l-51 77l-81 -77h-85l145 151h62z" />
    <glyph glyph-name="Udieresis" unicode="&#xdc;" horiz-adv-x="618" 
d="M289 68q127 0 157 152l83 428h89l-83 -428q-21 -109 -86 -169.5t-160 -60.5q-111 0 -173 69q-61 70 -41 171l81 418h89l-81 -418q-14 -74 19.5 -118t105.5 -44zM380 784q0 -26 -16.5 -43t-42.5 -17q-22 0 -35.5 13t-13.5 33q0 26 16.5 43t41.5 17q22 0 36 -13t14 -33z
M550 784q0 -26 -16.5 -43t-42.5 -17q-22 0 -35.5 13t-13.5 33q0 26 16.5 43t41.5 17q22 0 36 -13t14 -33z" />
    <glyph glyph-name="Yacute" unicode="&#xdd;" horiz-adv-x="516" 
d="M589 648l-284 -394l-49 -254h-89l49 254l-133 394h91l100 -306l218 306h97zM500 806l-112 -97h-81l135 151z" />
    <glyph glyph-name="Thorn" unicode="&#xde;" horiz-adv-x="551" 
d="M538 359q0 -97 -69 -160t-177 -63h-135l-26 -136h-89l126 648h89l-22 -115h108q87 0 141 -48t54 -126zM447 354q0 47 -27.5 73t-76.5 26h-124l-46 -237h124q66 0 108 38.5t42 99.5z" />
    <glyph glyph-name="germandbls" unicode="&#xdf;" horiz-adv-x="537" 
d="M215 494l-96 -494h-87l96 494q18 93 71 143.5t134 50.5q74 0 120 -37.5t46 -97.5q0 -32 -15 -59.5t-56 -65.5q-27 -26 -36 -39t-9 -26q0 -20 37 -71q66 -91 66 -153q0 -65 -46 -107q-45 -42 -117 -42q-80 0 -140 41l38 67q52 -33 101 -33q37 0 57.5 19t20.5 53
q0 25 -11.5 50t-44.5 69q-48 62 -48 95q0 20 11 40t45 54q36 36 48.5 58.5t12.5 45.5q0 30 -21.5 48t-58.5 18q-94 0 -118 -121z" />
    <glyph glyph-name="agrave" unicode="&#xe0;" 
d="M135 173q0 103 45 177q46 73 117 73q67 0 110 -49l-38 -194q-69 -112 -145 -112q-89 0 -89 105zM421 0l95 490h-87l-7 -39q-52 49 -125 49q-105 0 -178 -96q-72 -94 -72 -233q0 -81 44 -131t113 -50q78 0 143 75l-13 -65h87zM291 551l-112 97l58 54l135 -151h-81z" />
    <glyph glyph-name="aacute" unicode="&#xe1;" 
d="M135 173q0 -105 89 -105q76 0 145 112l38 194q-43 49 -110 49q-71 0 -117 -73q-45 -74 -45 -177zM516 490l-95 -490h-87l13 65q-65 -75 -143 -75q-69 0 -113 50t-44 131q0 139 72 233q73 96 178 96q73 0 125 -49l7 39h87zM487 648l-112 -97h-81l135 151z" />
    <glyph glyph-name="acircumflex" unicode="&#xe2;" 
d="M135 173q0 -105 89 -105q76 0 145 112l38 194q-43 49 -110 49q-71 0 -117 -73q-45 -74 -45 -177zM516 490l-95 -490h-87l13 65q-65 -75 -143 -75q-69 0 -113 50t-44 131q0 139 72 233q73 96 178 96q73 0 125 -49l7 39h87zM394 702l87 -151h-77l-51 77l-81 -77h-85
l145 151h62z" />
    <glyph glyph-name="atilde" unicode="&#xe3;" 
d="M135 173q0 -105 89 -105q76 0 145 112l38 194q-43 49 -110 49q-71 0 -117 -73q-45 -74 -45 -177zM516 490l-95 -490h-87l13 65q-65 -75 -143 -75q-69 0 -113 50t-44 131q0 139 72 233q73 96 178 96q73 0 125 -49l7 39h87zM293 683q31 0 74 -31q31 -21 42 -21t20.5 9.5
t25.5 36.5l57 -23q-48 -95 -109 -95q-34 0 -78 33q-27 19 -38 19q-12 0 -21 -9t-25 -37l-58 23q27 51 52.5 73t57.5 22z" />
    <glyph glyph-name="adieresis" unicode="&#xe4;" 
d="M135 173q0 -105 89 -105q76 0 145 112l38 194q-43 49 -110 49q-71 0 -117 -73q-45 -74 -45 -177zM516 490l-95 -490h-87l13 65q-65 -75 -143 -75q-69 0 -113 50t-44 131q0 139 72 233q73 96 178 96q73 0 125 -49l7 39h87zM316 626q0 -26 -16.5 -43t-42.5 -17
q-22 0 -35.5 13t-13.5 33q0 26 16.5 43t41.5 17q22 0 36 -13t14 -33zM486 626q0 -26 -16.5 -43t-42.5 -17q-22 0 -35.5 13t-13.5 33q0 26 16.5 43t41.5 17q22 0 36 -13t14 -33z" />
    <glyph glyph-name="aring" unicode="&#xe5;" 
d="M135 173q0 -105 89 -105q76 0 145 112l38 194q-43 49 -110 49q-71 0 -117 -73q-45 -74 -45 -177zM516 490l-95 -490h-87l13 65q-65 -75 -143 -75q-69 0 -113 50t-44 131q0 139 72 233q73 96 178 96q73 0 125 -49l7 39h87zM238 635q0 48 34 78t89 30q46 0 75.5 -25
t29.5 -63q0 -48 -34 -78t-89 -30q-46 0 -75.5 25t-29.5 63zM398 648q0 38 -44 38q-20 0 -34 -12.5t-14 -31.5q0 -38 44 -38q20 0 34 12.5t14 31.5z" />
    <glyph glyph-name="ae" unicode="&#xe6;" horiz-adv-x="780" 
d="M659 102l25 -64q-76 -48 -150 -48q-114 0 -164 81q-80 -81 -174 -81q-78 0 -124.5 39.5t-46.5 104.5q0 64 48 105.5t125 41.5h148q2 2 2 7l5 27q20 107 -91 107q-57 0 -145 -43l-29 68q95 53 179 53q110 0 151 -72q63 72 147 72q80 0 127.5 -47t47.5 -126q0 -44 -15 -84
l-28 -27h-275q-1 -5 -1 -21q0 -128 120 -128q48 0 118 35zM659 324q0 102 -96 102q-44 0 -79.5 -37.5t-51.5 -101.5h223q4 20 4 37zM111 137q0 -34 24 -53.5t65 -19.5q39 0 71.5 16t71.5 56q-6 26 -6 59v17h-139q-41 0 -64 -20.5t-23 -54.5z" />
    <glyph glyph-name="ccedilla" unicode="&#xe7;" horiz-adv-x="446" 
d="M278 -120q0 -39 -31.5 -64t-82.5 -25q-50 0 -95 20l28 52q26 -14 58 -14q47 0 47 28q0 22 -38 22q-18 0 -38 -6l-16 29l47 83q-108 45 -108 179q0 136 72 226t189 90q85 0 142 -38l-41 -70q-51 30 -106 30q-74 0 -121 -68t-47 -170q0 -55 29 -85t82 -30q47 0 106 27
l19 -70q-59 -36 -130 -36q-6 0 -30 2l-18 -38q38 -1 60.5 -21t22.5 -53z" />
    <glyph glyph-name="egrave" unicode="&#xe8;" horiz-adv-x="505" 
d="M384 102q-71 -35 -125 -35q-61 0 -93 32.5t-32 95.5q0 16 1 21h287l28 27q15 40 15 84q0 79 -47.5 126t-127.5 47q-101 0 -172 -89t-71 -216q0 -95 55 -150t150 -55q80 0 157 48zM384 324q0 -17 -4 -37h-234q17 64 55.5 101.5t86.5 37.5q96 0 96 -102zM268 551l-112 97
l58 54l135 -151h-81z" />
    <glyph glyph-name="eacute" unicode="&#xe9;" horiz-adv-x="505" 
d="M384 102l25 -64q-77 -48 -157 -48q-95 0 -150 55t-55 150q0 127 71 216t172 89q80 0 127.5 -47t47.5 -126q0 -44 -15 -84l-28 -27h-287q-1 -5 -1 -21q0 -63 32 -95.5t93 -32.5q54 0 125 35zM384 324q0 102 -96 102q-48 0 -86.5 -37.5t-55.5 -101.5h234q4 20 4 37z
M464 648l-112 -97h-81l135 151z" />
    <glyph glyph-name="ecircumflex" unicode="&#xea;" horiz-adv-x="505" 
d="M384 102l25 -64q-77 -48 -157 -48q-95 0 -150 55t-55 150q0 127 71 216t172 89q80 0 127.5 -47t47.5 -126q0 -44 -15 -84l-28 -27h-287q-1 -5 -1 -21q0 -63 32 -95.5t93 -32.5q54 0 125 35zM384 324q0 102 -96 102q-48 0 -86.5 -37.5t-55.5 -101.5h234q4 20 4 37z
M371 702l87 -151h-77l-51 77l-81 -77h-85l145 151h62z" />
    <glyph glyph-name="edieresis" unicode="&#xeb;" horiz-adv-x="505" 
d="M384 102l25 -64q-77 -48 -157 -48q-95 0 -150 55t-55 150q0 127 71 216t172 89q80 0 127.5 -47t47.5 -126q0 -44 -15 -84l-28 -27h-287q-1 -5 -1 -21q0 -63 32 -95.5t93 -32.5q54 0 125 35zM384 324q0 102 -96 102q-48 0 -86.5 -37.5t-55.5 -101.5h234q4 20 4 37z
M293 626q0 -26 -16.5 -43t-42.5 -17q-22 0 -35.5 13t-13.5 33q0 26 16.5 43t41.5 17q22 0 36 -13t14 -33zM463 626q0 -26 -16.5 -43t-42.5 -17q-22 0 -35.5 13t-13.5 33q0 26 16.5 43t41.5 17q22 0 36 -13t14 -33z" />
    <glyph glyph-name="igrave" unicode="&#xec;" horiz-adv-x="247" 
d="M127 490l-95 -490h87l95 490h-87zM139 551l-112 97l58 54l135 -151h-81z" />
    <glyph glyph-name="iacute" unicode="&#xed;" horiz-adv-x="247" 
d="M32 0l95 490h87l-95 -490h-87zM335 648l-112 -97h-81l135 151z" />
    <glyph glyph-name="icircumflex" unicode="&#xee;" horiz-adv-x="247" 
d="M32 0l95 490h87l-95 -490h-87zM242 702l87 -151h-77l-51 77l-81 -77h-85l145 151h62z" />
    <glyph glyph-name="idieresis" unicode="&#xef;" horiz-adv-x="247" 
d="M32 0l95 490h87l-95 -490h-87zM164 626q0 -26 -16.5 -43t-42.5 -17q-22 0 -35.5 13t-13.5 33q0 26 16.5 43t41.5 17q22 0 36 -13t14 -33zM334 626q0 -26 -16.5 -43t-42.5 -17q-22 0 -35.5 13t-13.5 33q0 26 16.5 43t41.5 17q22 0 36 -13t14 -33z" />
    <glyph glyph-name="eth" unicode="&#xf0;" horiz-adv-x="537" 
d="M234 -10q-84 0 -136 51q-52 52 -52 137q0 116 68 199q69 83 167 83q91 0 136 -63q8 106 -41 165l-68 -48l-33 46l56 39q-31 19 -75 24l24 65q67 -10 116 -43l76 53l34 -45l-68 -48q84 -107 38 -348l-9 -48q-20 -101 -83 -160q-64 -59 -150 -59zM134 183q0 -56 27.5 -86.5
t78.5 -30.5q60 0 104 62q44 64 44 144q0 55 -27.5 83.5t-79.5 28.5q-61 0 -105 -60q-42 -58 -42 -141z" />
    <glyph glyph-name="ntilde" unicode="&#xf1;" horiz-adv-x="548" 
d="M337 422q-59 0 -153 -85l-65 -337h-87l95 490h87l-13 -69q86 79 161 79q71 0 106 -49.5t20 -128.5l-63 -322h-87l63 322q18 100 -64 100zM292 683q31 0 74 -31q31 -21 42 -21t20.5 9.5t25.5 36.5l57 -23q-48 -95 -109 -95q-34 0 -78 33q-27 19 -38 19q-12 0 -21 -9
t-25 -37l-58 23q27 51 52.5 73t57.5 22z" />
    <glyph glyph-name="ograve" unicode="&#xf2;" horiz-adv-x="524" 
d="M474 296q0 92 -51 148q-50 56 -133 56q-102 0 -172 -90q-69 -88 -69 -216q0 -93 50 -148.5t134 -55.5q101 0 171 90q70 91 70 216zM137 194q0 99 43 164q44 66 108 66q98 0 98 -128q0 -95 -44 -163q-43 -67 -107 -67q-98 0 -98 128zM278 551l-112 97l58 54l135 -151h-81z
" />
    <glyph glyph-name="oacute" unicode="&#xf3;" horiz-adv-x="524" 
d="M474 296q0 -125 -70 -216q-70 -90 -171 -90q-84 0 -134 55.5t-50 148.5q0 128 69 216q70 90 172 90q83 0 133 -56q51 -56 51 -148zM137 194q0 -128 98 -128q64 0 107 67q44 68 44 163q0 128 -98 128q-64 0 -108 -66q-43 -65 -43 -164zM474 648l-112 -97h-81l135 151z" />
    <glyph glyph-name="ocircumflex" unicode="&#xf4;" horiz-adv-x="524" 
d="M474 296q0 -125 -70 -216q-70 -90 -171 -90q-84 0 -134 55.5t-50 148.5q0 128 69 216q70 90 172 90q83 0 133 -56q51 -56 51 -148zM137 194q0 -128 98 -128q64 0 107 67q44 68 44 163q0 128 -98 128q-64 0 -108 -66q-43 -65 -43 -164zM376 702l87 -151h-77l-51 77
l-81 -77h-85l145 151h62z" />
    <glyph glyph-name="otilde" unicode="&#xf5;" horiz-adv-x="524" 
d="M474 296q0 -125 -70 -216q-70 -90 -171 -90q-84 0 -134 55.5t-50 148.5q0 128 69 216q70 90 172 90q83 0 133 -56q51 -56 51 -148zM137 194q0 -128 98 -128q64 0 107 67q44 68 44 163q0 128 -98 128q-64 0 -108 -66q-43 -65 -43 -164zM275 683q31 0 74 -31q31 -21 42 -21
t20.5 9.5t25.5 36.5l57 -23q-48 -95 -109 -95q-34 0 -78 33q-27 19 -38 19q-12 0 -21 -9t-25 -37l-58 23q27 51 52.5 73t57.5 22z" />
    <glyph glyph-name="odieresis" unicode="&#xf6;" horiz-adv-x="524" 
d="M474 296q0 -125 -70 -216q-70 -90 -171 -90q-84 0 -134 55.5t-50 148.5q0 128 69 216q70 90 172 90q83 0 133 -56q51 -56 51 -148zM137 194q0 -128 98 -128q64 0 107 67q44 68 44 163q0 128 -98 128q-64 0 -108 -66q-43 -65 -43 -164zM298 626q0 -26 -16.5 -43t-42.5 -17
q-22 0 -35.5 13t-13.5 33q0 26 16.5 43t41.5 17q22 0 36 -13t14 -33zM468 626q0 -26 -16.5 -43t-42.5 -17q-22 0 -35.5 13t-13.5 33q0 26 16.5 43t41.5 17q22 0 36 -13t14 -33z" />
    <glyph glyph-name="divide" unicode="&#xf7;" horiz-adv-x="438" 
d="M323 509q0 -26 -17 -44t-43 -18q-22 0 -36 13.5t-14 34.5q0 27 16.5 44.5t42.5 17.5q23 0 37 -13.5t14 -34.5zM53 365h378l-15 -77h-378zM256 159q0 -26 -17 -44t-43 -18q-22 0 -36 13.5t-14 34.5q0 27 16.5 44.5t42.5 17.5q23 0 37 -13.5t14 -34.5z" />
    <glyph glyph-name="oslash" unicode="&#xf8;" horiz-adv-x="530" 
d="M291 425q-67 0 -110 -67q-43 -65 -43 -164q0 -8 3 -47l219 258q-25 20 -69 20zM238 65q65 0 108 67q45 68 45 164q0 7 -2 39l-215 -255q20 -15 64 -15zM477 296q0 -125 -70 -216q-71 -90 -171 -90q-67 0 -110 34l-53 -63l-54 41l62 73q-29 50 -29 119q0 128 69 216
q71 90 172 90q68 0 115 -38l56 67l54 -41l-67 -79q26 -47 26 -113z" />
    <glyph glyph-name="ugrave" unicode="&#xf9;" horiz-adv-x="541" 
d="M413 0l95 490h-87l-65 -337q-93 -85 -150 -85q-38 0 -54 26t-6 75l62 321h-87l-62 -321q-15 -79 19 -129t103 -50q70 0 158 78l-13 -68h87zM287 551l-112 97l58 54l135 -151h-81z" />
    <glyph glyph-name="uacute" unicode="&#xfa;" horiz-adv-x="541" 
d="M508 490l-95 -490h-87l13 68q-88 -78 -158 -78q-69 0 -103 50t-19 129l62 321h87l-62 -321q-10 -49 6 -75t54 -26q57 0 150 85l65 337h87zM483 648l-112 -97h-81l135 151z" />
    <glyph glyph-name="ucircumflex" unicode="&#xfb;" horiz-adv-x="541" 
d="M508 490l-95 -490h-87l13 68q-88 -78 -158 -78q-69 0 -103 50t-19 129l62 321h87l-62 -321q-10 -49 6 -75t54 -26q57 0 150 85l65 337h87zM390 702l87 -151h-77l-51 77l-81 -77h-85l145 151h62z" />
    <glyph glyph-name="udieresis" unicode="&#xfc;" horiz-adv-x="541" 
d="M508 490l-95 -490h-87l13 68q-88 -78 -158 -78q-69 0 -103 50t-19 129l62 321h87l-62 -321q-10 -49 6 -75t54 -26q57 0 150 85l65 337h87zM312 626q0 -26 -16.5 -43t-42.5 -17q-22 0 -35.5 13t-13.5 33q0 26 16.5 43t41.5 17q22 0 36 -13t14 -33zM482 626
q0 -26 -16.5 -43t-42.5 -17q-22 0 -35.5 13t-13.5 33q0 26 16.5 43t41.5 17q22 0 36 -13t14 -33z" />
    <glyph glyph-name="yacute" unicode="&#xfd;" horiz-adv-x="465" 
d="M405 490h89l-344 -685h-89l102 195h-48l-50 490h85l40 -433zM444 648l-112 -97h-81l135 151z" />
    <glyph glyph-name="thorn" unicode="&#xfe;" 
d="M251 67q71 0 116 73q46 73 46 177q0 105 -89 105q-75 0 -145 -111l-38 -196q44 -48 110 -48zM501 319q0 -139 -73 -234q-72 -95 -177 -95q-75 0 -124 49l-46 -234h-87l170 873h87l-49 -252q63 74 142 74q69 0 113 -50t44 -131z" />
    <glyph glyph-name="ydieresis" unicode="&#xff;" horiz-adv-x="465" 
d="M405 490h89l-344 -685h-89l102 195h-48l-50 490h85l40 -433zM273 626q0 -26 -16.5 -43t-42.5 -17q-22 0 -35.5 13t-13.5 33q0 26 16.5 43t41.5 17q22 0 36 -13t14 -33zM443 626q0 -26 -16.5 -43t-42.5 -17q-22 0 -35.5 13t-13.5 33q0 26 16.5 43t41.5 17q22 0 36 -13
t14 -33z" />
    <glyph glyph-name="Amacron" unicode="&#x100;" horiz-adv-x="562" 
d="M348 583l-160 -325h192zM422 648l74 -648h-90l-18 180h-238l-88 -180h-92l326 648h126zM245 732l14 74h260l-14 -74h-260z" />
    <glyph glyph-name="amacron" unicode="&#x101;" 
d="M135 173q0 -105 89 -105q76 0 145 112l38 194q-43 49 -110 49q-71 0 -117 -73q-45 -74 -45 -177zM516 490l-95 -490h-87l13 65q-65 -75 -143 -75q-69 0 -113 50t-44 131q0 139 72 233q73 96 178 96q73 0 125 -49l7 39h87zM209 574l14 74h260l-14 -74h-260z" />
    <glyph glyph-name="Abreve" unicode="&#x102;" horiz-adv-x="562" 
d="M348 583l-160 -325h192zM422 648l74 -648h-90l-18 180h-238l-88 -180h-92l326 648h126zM444 838h71l-3 -24q-14 -109 -135 -109q-56 0 -85.5 31.5t-20.5 79.5l4 22h71l-4 -22q-5 -22 6.5 -34.5t35.5 -12.5q48 0 56 45z" />
    <glyph glyph-name="abreve" unicode="&#x103;" 
d="M135 173q0 -105 89 -105q76 0 145 112l38 194q-43 49 -110 49q-71 0 -117 -73q-45 -74 -45 -177zM516 490l-95 -490h-87l13 65q-65 -75 -143 -75q-69 0 -113 50t-44 131q0 139 72 233q73 96 178 96q73 0 125 -49l7 39h87zM408 680h71l-3 -24q-14 -109 -135 -109
q-56 0 -85.5 31.5t-20.5 79.5l4 22h71l-4 -22q-5 -22 6.5 -34.5t35.5 -12.5q48 0 56 45z" />
    <glyph glyph-name="Aogonek" unicode="&#x104;" horiz-adv-x="562" 
d="M456 -133l4 -52q-33 -14 -65 -14q-40 0 -64 21.5t-24 57.5q0 38 23.5 66.5t75.5 55.5l-18 178h-238l-88 -180h-92l326 648h126l74 -648l-23 -13q-85 -48 -85 -96q0 -30 33 -30q15 0 35 6zM348 583l-160 -325h192z" />
    <glyph glyph-name="aogonek" unicode="&#x105;" 
d="M381 -133l4 -52q-33 -14 -65 -14q-40 0 -64 21.5t-24 57.5q0 72 103 124l12 61q-65 -75 -143 -75q-69 0 -113 50t-44 131q0 139 72 233q73 96 178 96q73 0 125 -49l7 39h87l-95 -490l-23 -13q-85 -48 -85 -96q0 -30 33 -30q16 0 35 6zM135 173q0 -105 89 -105
q76 0 145 112l38 194q-43 49 -110 49q-71 0 -117 -73q-45 -74 -45 -177z" />
    <glyph glyph-name="Cacute" unicode="&#x106;" horiz-adv-x="525" 
d="M298 -10q-108 0 -171 68t-63 186q0 175 91 294q92 120 229 120q100 0 176 -56l-49 -69q-62 43 -133 43q-92 0 -157 -98q-63 -98 -63 -232q0 -85 36 -129.5t104 -44.5q64 0 146 47l31 -66q-88 -63 -177 -63zM515 806l-112 -97h-81l135 151z" />
    <glyph glyph-name="cacute" unicode="&#x107;" horiz-adv-x="446" 
d="M243 -10q-90 0 -142 51.5t-52 142.5q0 136 72 226t189 90q85 0 142 -38l-41 -70q-51 30 -106 30q-74 0 -121 -68t-47 -170q0 -55 29 -85t82 -30q47 0 106 27l19 -70q-59 -36 -130 -36zM435 648l-112 -97h-81l135 151z" />
    <glyph glyph-name="Ccircumflex" unicode="&#x108;" horiz-adv-x="525" 
d="M298 -10q-108 0 -171 68t-63 186q0 175 91 294q92 120 229 120q100 0 176 -56l-49 -69q-62 43 -133 43q-92 0 -157 -98q-63 -98 -63 -232q0 -85 36 -129.5t104 -44.5q64 0 146 47l31 -66q-88 -63 -177 -63zM422 860l87 -151h-77l-51 77l-81 -77h-85l145 151h62z" />
    <glyph glyph-name="ccircumflex" unicode="&#x109;" horiz-adv-x="446" 
d="M243 -10q-90 0 -142 51.5t-52 142.5q0 136 72 226t189 90q85 0 142 -38l-41 -70q-51 30 -106 30q-74 0 -121 -68t-47 -170q0 -55 29 -85t82 -30q47 0 106 27l19 -70q-59 -36 -130 -36zM352 702l87 -151h-77l-51 77l-81 -77h-85l145 151h62z" />
    <glyph glyph-name="Cdotaccent" unicode="&#x10a;" horiz-adv-x="525" 
d="M298 -10q-108 0 -171 68t-63 186q0 175 91 294q92 120 229 120q100 0 176 -56l-49 -69q-62 43 -133 43q-92 0 -157 -98q-63 -98 -63 -232q0 -85 36 -129.5t104 -44.5q64 0 146 47l31 -66q-88 -63 -177 -63zM429 784q0 -26 -16.5 -43t-42.5 -17q-22 0 -35.5 13t-13.5 33
q0 26 16.5 43t41.5 17q22 0 36 -13t14 -33z" />
    <glyph glyph-name="cdotaccent" unicode="&#x10b;" horiz-adv-x="446" 
d="M243 -10q-90 0 -142 51.5t-52 142.5q0 136 72 226t189 90q85 0 142 -38l-41 -70q-51 30 -106 30q-74 0 -121 -68t-47 -170q0 -55 29 -85t82 -30q47 0 106 27l19 -70q-59 -36 -130 -36zM359 626q0 -26 -16.5 -43t-42.5 -17q-22 0 -35.5 13t-13.5 33q0 26 16.5 43t41.5 17
q22 0 36 -13t14 -33z" />
    <glyph glyph-name="Ccaron" unicode="&#x10c;" horiz-adv-x="525" 
d="M298 -10q-108 0 -171 68t-63 186q0 175 91 294q92 120 229 120q100 0 176 -56l-49 -69q-62 43 -133 43q-92 0 -157 -98q-63 -98 -63 -232q0 -85 36 -129.5t104 -44.5q64 0 146 47l31 -66q-88 -63 -177 -63zM453 860h85l-145 -151h-62l-87 151h77l51 -77z" />
    <glyph glyph-name="ccaron" unicode="&#x10d;" horiz-adv-x="446" 
d="M243 -10q-90 0 -142 51.5t-52 142.5q0 136 72 226t189 90q85 0 142 -38l-41 -70q-51 30 -106 30q-74 0 -121 -68t-47 -170q0 -55 29 -85t82 -30q47 0 106 27l19 -70q-59 -36 -130 -36zM383 702h85l-145 -151h-62l-87 151h77l51 -77z" />
    <glyph glyph-name="Dcaron" unicode="&#x10e;" horiz-adv-x="617" 
d="M271 0h-229l126 648h181q108 0 171 -69q64 -67 64 -182q0 -161 -93 -279q-91 -118 -220 -118zM490 397q0 82 -37 125.5t-106 43.5h-106l-94 -484h126q90 0 153 95q64 94 64 220zM489 860h85l-145 -151h-62l-87 151h77l51 -77z" />
    <glyph glyph-name="dcaron" unicode="&#x10f;" horiz-adv-x="630" 
d="M135 173q0 -105 89 -105q76 0 146 113l37 193q-44 49 -110 49q-71 0 -117 -73q-45 -74 -45 -177zM553 678l-132 -678h-87l13 65q-65 -75 -143 -75q-69 0 -113 50t-44 131q0 139 72 233q73 96 178 96q73 0 125 -49l44 227h87zM714 678l-50 -168h-68l33 168h85z" />
    <glyph glyph-name="Dcroat" unicode="&#x110;" horiz-adv-x="636" 
d="M290 0h-229l57 295h-70l15 75h70l54 278h181q108 0 171 -69q64 -67 64 -182q0 -161 -93 -279q-91 -118 -220 -118zM222 370h148l-15 -75h-148l-41 -213h126q90 0 153 95q64 94 64 220q0 82 -37 125.5t-106 43.5h-106z" />
    <glyph glyph-name="dslash" unicode="&#x111;" 
d="M135 173q0 -105 89 -105q76 0 146 113l37 193q-44 49 -110 49q-71 0 -117 -73q-45 -74 -45 -177zM526 540l-105 -540h-87l13 65q-65 -75 -143 -75q-69 0 -113 50t-44 131q0 139 72 233q73 96 178 96q73 0 125 -49l17 89h-97l13 68h97l14 70h87l-14 -70h70l-13 -68h-70z
" />
    <glyph glyph-name="Emacron" unicode="&#x112;" horiz-adv-x="506" 
d="M429 80l-16 -80h-371l126 648h371l-16 -80h-282l-38 -200h235l-16 -80h-235l-40 -208h282zM237 732l14 74h260l-14 -74h-260z" />
    <glyph glyph-name="emacron" unicode="&#x113;" horiz-adv-x="505" 
d="M384 102l25 -64q-77 -48 -157 -48q-95 0 -150 55t-55 150q0 127 71 216t172 89q80 0 127.5 -47t47.5 -126q0 -44 -15 -84l-28 -27h-287q-1 -5 -1 -21q0 -63 32 -95.5t93 -32.5q54 0 125 35zM384 324q0 102 -96 102q-48 0 -86.5 -37.5t-55.5 -101.5h234q4 20 4 37z
M186 574l14 74h260l-14 -74h-260z" />
    <glyph glyph-name="Ebreve" unicode="&#x114;" horiz-adv-x="506" 
d="M429 80l-16 -80h-371l126 648h371l-16 -80h-282l-38 -200h235l-16 -80h-235l-40 -208h282zM431 838h71l-3 -24q-14 -109 -135 -109q-56 0 -85.5 31.5t-20.5 79.5l4 22h71l-4 -22q-5 -22 6.5 -34.5t35.5 -12.5q48 0 56 45z" />
    <glyph glyph-name="ebreve" unicode="&#x115;" horiz-adv-x="505" 
d="M384 102l25 -64q-77 -48 -157 -48q-95 0 -150 55t-55 150q0 127 71 216t172 89q80 0 127.5 -47t47.5 -126q0 -44 -15 -84l-28 -27h-287q-1 -5 -1 -21q0 -63 32 -95.5t93 -32.5q54 0 125 35zM384 324q0 102 -96 102q-48 0 -86.5 -37.5t-55.5 -101.5h234q4 20 4 37z
M385 680h71l-3 -24q-14 -109 -135 -109q-56 0 -85.5 31.5t-20.5 79.5l4 22h71l-4 -22q-5 -22 6.5 -34.5t35.5 -12.5q48 0 56 45z" />
    <glyph glyph-name="Edotaccent" unicode="&#x116;" horiz-adv-x="506" 
d="M429 80l-16 -80h-371l126 648h371l-16 -80h-282l-38 -200h235l-16 -80h-235l-40 -208h282zM429 784q0 -26 -16.5 -43t-42.5 -17q-22 0 -35.5 13t-13.5 33q0 26 16.5 43t41.5 17q22 0 36 -13t14 -33z" />
    <glyph glyph-name="edotaccent" unicode="&#x117;" horiz-adv-x="505" 
d="M384 102l25 -64q-77 -48 -157 -48q-95 0 -150 55t-55 150q0 127 71 216t172 89q80 0 127.5 -47t47.5 -126q0 -44 -15 -84l-28 -27h-287q-1 -5 -1 -21q0 -63 32 -95.5t93 -32.5q54 0 125 35zM384 324q0 102 -96 102q-48 0 -86.5 -37.5t-55.5 -101.5h234q4 20 4 37z
M378 626q0 -26 -16.5 -43t-42.5 -17q-22 0 -35.5 13t-13.5 33q0 26 16.5 43t41.5 17q22 0 36 -13t14 -33z" />
    <glyph glyph-name="Eogonek" unicode="&#x118;" horiz-adv-x="506" 
d="M373 -133l4 -52q-33 -14 -65 -14q-40 0 -64 21.5t-24 57.5q0 37 22.5 65.5t72.5 54.5h-277l126 648h371l-16 -80h-282l-38 -200h235l-16 -80h-235l-40 -208h282l-16 -80l-23 -13q-85 -48 -85 -96q0 -30 33 -30q16 0 35 6z" />
    <glyph glyph-name="eogonek" unicode="&#x119;" horiz-adv-x="505" 
d="M252 -133l4 -52q-33 -14 -65 -14q-40 0 -64 21.5t-24 57.5q0 68 90 116q-70 16 -108 68t-38 131q0 127 71 216t172 89q80 0 127.5 -47t47.5 -126q0 -44 -15 -84l-28 -27h-287q-1 -5 -1 -21q0 -128 124 -128q57 0 126 35l25 -64q-37 -22 -85 -40q-40 -16 -63 -26l-23 -11
q-54 -31 -54 -70q0 -30 33 -30q16 0 35 6zM384 324q0 102 -96 102q-48 0 -86.5 -37.5t-55.5 -101.5h234q4 20 4 37z" />
    <glyph glyph-name="Ecaron" unicode="&#x11a;" horiz-adv-x="506" 
d="M429 80l-16 -80h-371l126 648h371l-16 -80h-282l-38 -200h235l-16 -80h-235l-40 -208h282zM453 860h85l-145 -151h-62l-87 151h77l51 -77z" />
    <glyph glyph-name="ecaron" unicode="&#x11b;" horiz-adv-x="505" 
d="M384 102l25 -64q-77 -48 -157 -48q-95 0 -150 55t-55 150q0 127 71 216t172 89q80 0 127.5 -47t47.5 -126q0 -44 -15 -84l-28 -27h-287q-1 -5 -1 -21q0 -63 32 -95.5t93 -32.5q54 0 125 35zM384 324q0 102 -96 102q-48 0 -86.5 -37.5t-55.5 -101.5h234q4 20 4 37z
M402 702h85l-145 -151h-62l-87 151h77l51 -77z" />
    <glyph glyph-name="Gcircumflex" unicode="&#x11c;" horiz-adv-x="566" 
d="M437 314h86l-52 -267q-77 -57 -169 -57q-111 0 -174.5 67.5t-63.5 186.5q0 172 92 293q93 121 230 121q97 0 176 -56l-49 -69q-61 43 -130 43q-95 0 -160 -98t-65 -232q0 -85 37 -129.5t107 -44.5q53 0 92 20zM432 860l87 -151h-77l-51 77l-81 -77h-85l145 151h62z" />
    <glyph glyph-name="gcircumflex" unicode="&#x11d;" 
d="M135 173q0 -105 89 -105q76 0 145 112l38 194q-43 49 -110 49q-71 0 -117 -73q-45 -74 -45 -177zM174 -205q-99 0 -166 40l35 70q58 -33 131 -33q134 0 162 138l11 55q-65 -75 -143 -75q-69 0 -113 50t-44 131q0 139 72 233q73 96 178 96q73 0 125 -49l7 39h87l-93 -480
q-20 -104 -85 -159.5t-164 -55.5zM384 702l87 -151h-77l-51 77l-81 -77h-85l145 151h62z" />
    <glyph glyph-name="Gbreve" unicode="&#x11e;" horiz-adv-x="566" 
d="M437 314h86l-52 -267q-77 -57 -169 -57q-111 0 -174.5 67.5t-63.5 186.5q0 172 92 293q93 121 230 121q97 0 176 -56l-49 -69q-61 43 -130 43q-95 0 -160 -98t-65 -232q0 -85 37 -129.5t107 -44.5q53 0 92 20zM446 838h71l-3 -24q-14 -109 -135 -109q-56 0 -85.5 31.5
t-20.5 79.5l4 22h71l-4 -22q-5 -22 6.5 -34.5t35.5 -12.5q48 0 56 45z" />
    <glyph glyph-name="gbreve" unicode="&#x11f;" 
d="M135 173q0 -105 89 -105q76 0 145 112l38 194q-43 49 -110 49q-71 0 -117 -73q-45 -74 -45 -177zM174 -205q-99 0 -166 40l35 70q58 -33 131 -33q134 0 162 138l11 55q-65 -75 -143 -75q-69 0 -113 50t-44 131q0 139 72 233q73 96 178 96q73 0 125 -49l7 39h87l-93 -480
q-20 -104 -85 -159.5t-164 -55.5zM398 680h71l-3 -24q-14 -109 -135 -109q-56 0 -85.5 31.5t-20.5 79.5l4 22h71l-4 -22q-5 -22 6.5 -34.5t35.5 -12.5q48 0 56 45z" />
    <glyph glyph-name="Gdotaccent" unicode="&#x120;" horiz-adv-x="566" 
d="M437 314h86l-52 -267q-77 -57 -169 -57q-111 0 -174.5 67.5t-63.5 186.5q0 172 92 293q93 121 230 121q97 0 176 -56l-49 -69q-61 43 -130 43q-95 0 -160 -98t-65 -232q0 -85 37 -129.5t107 -44.5q53 0 92 20zM439 784q0 -26 -16.5 -43t-42.5 -17q-22 0 -35.5 13
t-13.5 33q0 26 16.5 43t41.5 17q22 0 36 -13t14 -33z" />
    <glyph glyph-name="gdotaccent" unicode="&#x121;" 
d="M135 173q0 -105 89 -105q76 0 145 112l38 194q-43 49 -110 49q-71 0 -117 -73q-45 -74 -45 -177zM174 -205q-99 0 -166 40l35 70q58 -33 131 -33q134 0 162 138l11 55q-65 -75 -143 -75q-69 0 -113 50t-44 131q0 139 72 233q73 96 178 96q73 0 125 -49l7 39h87l-93 -480
q-20 -104 -85 -159.5t-164 -55.5zM391 626q0 -26 -16.5 -43t-42.5 -17q-22 0 -35.5 13t-13.5 33q0 26 16.5 43t41.5 17q22 0 36 -13t14 -33z" />
    <glyph glyph-name="Gcommaaccent" unicode="&#x122;" horiz-adv-x="566" 
d="M437 314h86l-52 -267q-77 -57 -169 -57q-111 0 -174.5 67.5t-63.5 186.5q0 172 92 293q93 121 230 121q97 0 176 -56l-49 -69q-61 43 -130 43q-95 0 -160 -98t-65 -232q0 -85 37 -129.5t107 -44.5q53 0 92 20zM297 -55l-52 -168h-70l37 168h85z" />
    <glyph glyph-name="gcommaaccent" unicode="&#x123;" 
d="M135 173q0 -105 89 -105q76 0 145 112l38 194q-43 49 -110 49q-71 0 -117 -73q-45 -74 -45 -177zM174 -205q-99 0 -166 40l35 70q58 -33 131 -33q134 0 162 138l11 55q-65 -75 -143 -75q-69 0 -113 50t-44 131q0 139 72 233q73 96 178 96q73 0 125 -49l7 39h87l-93 -480
q-20 -104 -85 -159.5t-164 -55.5zM281 551l52 168h70l-37 -168h-85z" />
    <glyph glyph-name="Hcircumflex" unicode="&#x124;" horiz-adv-x="654" 
d="M642 648l-126 -648h-89l58 300h-296l-58 -300h-89l126 648h89l-53 -270h296l53 270h89zM476 860l87 -151h-77l-51 77l-81 -77h-85l145 151h62z" />
    <glyph glyph-name="hcircumflex" unicode="&#x125;" horiz-adv-x="548" 
d="M337 422q-59 0 -152 -85l-66 -337h-87l132 678h87l-50 -256q88 78 161 78q71 0 106 -49.5t20 -128.5l-63 -322h-87l63 322q18 100 -64 100zM383 890l87 -151h-77l-51 77l-81 -77h-85l145 151h62z" />
    <glyph glyph-name="Hbar" unicode="&#x126;" horiz-adv-x="692" 
d="M245 490l-21 -112h296l21 112h-296zM630 490l-95 -490h-89l58 300h-296l-58 -300h-89l95 490h-80l13 67h80l18 91h89l-18 -91h296l18 91h89l-18 -91h80l-13 -67h-80z" />
    <glyph glyph-name="hbar" unicode="&#x127;" horiz-adv-x="548" 
d="M337 422q-59 0 -152 -85l-66 -337h-87l105 540h-70l13 68h70l14 70h87l-14 -70h97l-13 -68h-97l-23 -118q88 78 161 78q71 0 106 -49.5t20 -128.5l-63 -322h-87l63 322q18 100 -64 100z" />
    <glyph glyph-name="Itilde" unicode="&#x128;" horiz-adv-x="269" 
d="M168 648h89l-126 -648h-89zM182 841q31 0 74 -31q31 -21 42 -21t20.5 9.5t25.5 36.5l57 -23q-48 -95 -109 -95q-34 0 -78 33q-27 19 -38 19q-12 0 -21 -9t-25 -37l-58 23q27 51 52.5 73t57.5 22z" />
    <glyph glyph-name="itilde" unicode="&#x129;" horiz-adv-x="247" 
d="M32 0l95 490h87l-95 -490h-87zM141 683q31 0 74 -31q31 -21 42 -21t20.5 9.5t25.5 36.5l57 -23q-48 -95 -109 -95q-34 0 -78 33q-27 19 -38 19q-12 0 -21 -9t-25 -37l-58 23q27 51 52.5 73t57.5 22z" />
    <glyph glyph-name="Imacron" unicode="&#x12a;" horiz-adv-x="269" 
d="M168 648h89l-126 -648h-89zM98 732l14 74h260l-14 -74h-260z" />
    <glyph glyph-name="imacron" unicode="&#x12b;" horiz-adv-x="247" 
d="M32 0l95 490h87l-95 -490h-87zM57 574l14 74h260l-14 -74h-260z" />
    <glyph glyph-name="Ibreve" unicode="&#x12c;" horiz-adv-x="269" 
d="M168 648h89l-126 -648h-89zM297 838h71l-3 -24q-14 -109 -135 -109q-56 0 -85.5 31.5t-20.5 79.5l4 22h71l-4 -22q-5 -22 6.5 -34.5t35.5 -12.5q48 0 56 45z" />
    <glyph glyph-name="ibreve" unicode="&#x12d;" horiz-adv-x="247" 
d="M32 0l95 490h87l-95 -490h-87zM256 680h71l-3 -24q-14 -109 -135 -109q-56 0 -85.5 31.5t-20.5 79.5l4 22h71l-4 -22q-5 -22 6.5 -34.5t35.5 -12.5q48 0 56 45z" />
    <glyph glyph-name="Iogonek" unicode="&#x12e;" horiz-adv-x="269" 
d="M91 -133l4 -52q-33 -14 -65 -14q-40 0 -64 21.5t-24 57.5q0 72 101 123l125 645h89l-126 -648l-23 -13q-85 -48 -85 -96q0 -30 33 -30q16 0 35 6z" />
    <glyph glyph-name="iogonek" unicode="&#x12f;" horiz-adv-x="247" 
d="M142 612q0 27 16 43.5t42 16.5q22 0 36 -13t14 -33q0 -27 -16 -43.5t-42 -16.5q-22 0 -36 13t-14 33zM79 -133l4 -52q-33 -14 -65 -14q-40 0 -64 21.5t-24 57.5q0 72 103 124l94 486h87l-95 -490l-23 -13q-85 -48 -85 -96q0 -30 33 -30q16 0 35 6z" />
    <glyph glyph-name="Idot" unicode="&#x130;" horiz-adv-x="269" 
d="M168 648h89l-126 -648h-89zM290 784q0 -26 -16.5 -43t-42.5 -17q-22 0 -35.5 13t-13.5 33q0 26 16.5 43t41.5 17q22 0 36 -13t14 -33z" />
    <glyph glyph-name="dotlessi" unicode="&#x131;" horiz-adv-x="247" 
d="M32 0l95 490h87l-95 -490h-87z" />
    <glyph glyph-name="IJ" unicode="&#x132;" horiz-adv-x="538" 
d="M168 648h89l-126 -648h-89zM324 67l113 581h89l-112 -575q-18 -94 -61 -155q-43 -62 -135 -123l-42 60q72 52 103 98q31 47 45 114z" />
    <glyph glyph-name="ij" unicode="&#x133;" horiz-adv-x="494" 
d="M142 612q0 27 16 43.5t42 16.5q22 0 36 -13t14 -33q0 -27 -16 -43.5t-42 -16.5q-22 0 -36 13t-14 33zM32 0l95 490h87l-95 -490h-87zM389 612q0 27 16 43.5t42 16.5q22 0 36 -13t14 -33q0 -27 -16 -43.5t-42 -16.5q-22 0 -36 13t-14 33zM292 67l82 423h87l-81 -417
q-20 -96 -61 -155q-41 -60 -135 -123l-43 62q75 54 106 99t45 111z" />
    <glyph glyph-name="Jcircumflex" unicode="&#x134;" horiz-adv-x="269" 
d="M55 67l113 581h89l-112 -575q-18 -94 -61 -155q-44 -62 -135 -123l-42 60q72 52 103 98q32 47 45 114zM283 860l87 -151h-77l-51 77l-81 -77h-85l145 151h62z" />
    <glyph glyph-name="jcircumflex" unicode="&#x135;" horiz-adv-x="247" 
d="M45 67l82 423h87l-81 -417q-20 -96 -61 -155q-40 -60 -135 -123l-43 62q75 54 106 99q32 45 45 111zM242 702l87 -151h-77l-51 77l-81 -77h-85l145 151h62z" />
    <glyph glyph-name="Kcommaaccent" unicode="&#x136;" horiz-adv-x="569" 
d="M355 374l158 -374h-95l-130 311l-120 -120l-37 -191h-89l126 648h89l-64 -331l326 331h102zM286 -55l-52 -168h-70l37 168h85z" />
    <glyph glyph-name="kcommaaccent" unicode="&#x137;" horiz-adv-x="490" 
d="M315 295l115 -295h-91l-91 237l-101 -91l-28 -146h-87l132 678h87l-83 -424l253 236h99zM247 -55l-52 -168h-70l37 168h85z" />
    <glyph glyph-name="kgreenlandic" unicode="&#x138;" horiz-adv-x="490" 
d="M315 295l115 -295h-91l-91 237l-101 -91l-28 -146h-87l95 490h87l-46 -236l253 236h99z" />
    <glyph glyph-name="Lacute" unicode="&#x139;" horiz-adv-x="491" 
d="M439 80l-16 -80h-381l126 648h89l-110 -568h292zM376 806l-112 -97h-81l135 151z" />
    <glyph glyph-name="lacute" unicode="&#x13a;" horiz-adv-x="247" 
d="M32 0l132 678h87l-132 -678h-87zM372 836l-112 -97h-81l135 151z" />
    <glyph glyph-name="Lcommaaccent" unicode="&#x13b;" horiz-adv-x="491" 
d="M439 80l-16 -80h-381l126 648h89l-110 -568h292zM269 -55l-52 -168h-70l37 168h85z" />
    <glyph glyph-name="lcommaaccent" unicode="&#x13c;" horiz-adv-x="247" 
d="M32 0l132 678h87l-132 -678h-87zM107 -55l-52 -168h-70l37 168h85z" />
    <glyph glyph-name="Lcaron" unicode="&#x13d;" horiz-adv-x="491" 
d="M439 80l-16 -80h-381l126 648h89l-110 -568h292zM480 648l-50 -168h-68l33 168h85z" />
    <glyph glyph-name="lcaron" unicode="&#x13e;" horiz-adv-x="328" 
d="M32 0l132 678h87l-132 -678h-87zM412 678l-50 -168h-68l33 168h85z" />
    <glyph glyph-name="Ldot" unicode="&#x13f;" horiz-adv-x="491" 
d="M439 80l-16 -80h-381l126 648h89l-110 -568h292zM450 356q0 -26 -16.5 -43t-42.5 -17q-22 0 -35.5 13t-13.5 33q0 26 16.5 43t41.5 17q22 0 36 -13t14 -33z" />
    <glyph glyph-name="ldot" unicode="&#x140;" horiz-adv-x="372" 
d="M32 0l132 678h87l-132 -678h-87zM382 356q0 -26 -16.5 -43t-42.5 -17q-22 0 -35.5 13t-13.5 33q0 26 16.5 43t41.5 17q22 0 36 -13t14 -33z" />
    <glyph glyph-name="Lslash" unicode="&#x141;" horiz-adv-x="508" 
d="M456 80l-16 -80h-371l53 273l-75 -29l-22 63l112 43l58 298h89l-51 -261l132 50l21 -63l-168 -64l-44 -230h282z" />
    <glyph glyph-name="lslash" unicode="&#x142;" horiz-adv-x="303" 
d="M317 343l-111 -41l-59 -302h-87l52 268l-64 -24l-22 65l101 37l65 332h87l-58 -298l76 28z" />
    <glyph glyph-name="Nacute" unicode="&#x143;" horiz-adv-x="649" 
d="M637 648l-126 -648h-118l-160 542l-105 -542h-86l126 648h118l160 -542l105 542h86zM567 806l-112 -97h-81l135 151z" />
    <glyph glyph-name="nacute" unicode="&#x144;" horiz-adv-x="548" 
d="M337 422q-59 0 -153 -85l-65 -337h-87l95 490h87l-13 -69q86 79 161 79q71 0 106 -49.5t20 -128.5l-63 -322h-87l63 322q18 100 -64 100zM486 648l-112 -97h-81l135 151z" />
    <glyph glyph-name="Ncommaaccent" unicode="&#x145;" horiz-adv-x="649" 
d="M637 648l-126 -648h-118l-160 542l-105 -542h-86l126 648h118l160 -542l105 542h86zM319 -55l-52 -168h-70l37 168h85z" />
    <glyph glyph-name="ncommaaccent" unicode="&#x146;" horiz-adv-x="548" 
d="M337 422q-59 0 -153 -85l-65 -337h-87l95 490h87l-13 -69q86 79 161 79q71 0 106 -49.5t20 -128.5l-63 -322h-87l63 322q18 100 -64 100zM258 -55l-52 -168h-70l37 168h85z" />
    <glyph glyph-name="Ncaron" unicode="&#x147;" horiz-adv-x="649" 
d="M637 648l-126 -648h-118l-160 542l-105 -542h-86l126 648h118l160 -542l105 542h86zM505 860h85l-145 -151h-62l-87 151h77l51 -77z" />
    <glyph glyph-name="ncaron" unicode="&#x148;" horiz-adv-x="548" 
d="M337 422q-59 0 -153 -85l-65 -337h-87l95 490h87l-13 -69q86 79 161 79q71 0 106 -49.5t20 -128.5l-63 -322h-87l63 322q18 100 -64 100zM424 702h85l-145 -151h-62l-87 151h77l51 -77z" />
    <glyph glyph-name="napostrophe" unicode="&#x149;" horiz-adv-x="548" 
d="M337 422q-59 0 -153 -85l-65 -337h-87l95 490h87l-13 -69q86 79 161 79q71 0 106 -49.5t20 -128.5l-63 -322h-87l63 322q18 100 -64 100zM262 719l-52 -168h-70l37 168h85z" />
    <glyph glyph-name="Eng" unicode="&#x14a;" horiz-adv-x="649" 
d="M329 -205l-40 60q60 43 87 75q26 29 44 73l-185 549l-107 -552h-86l126 648h120l167 -494l96 494h86l-112 -575q-20 -98 -61 -155q-40 -60 -135 -123z" />
    <glyph glyph-name="eng" unicode="&#x14b;" horiz-adv-x="548" 
d="M243 -205l-43 62q74 53 106 99q32 45 45 111l50 255q10 48 -7 74t-57 26q-59 0 -153 -85l-65 -337h-87l95 490h87l-13 -69q86 79 161 79q71 0 106 -49.5t20 -128.5l-49 -249q-18 -95 -59 -154q-41 -60 -137 -124z" />
    <glyph glyph-name="Omacron" unicode="&#x14c;" horiz-adv-x="646" 
d="M532 129q-45 -66 -106 -102.5t-127 -36.5q-107 0 -172 71q-63 71 -63 190q0 151 80 268q45 66 106 102.5t127 36.5q108 0 171 -71q64 -70 64 -190q0 -151 -80 -268zM158 251q0 -85 37.5 -132t105.5 -47q90 0 153 98q64 97 64 227q0 86 -37 132.5t-106 46.5
q-89 0 -154 -98q-63 -98 -63 -227zM287 732l14 74h260l-14 -74h-260z" />
    <glyph glyph-name="omacron" unicode="&#x14d;" horiz-adv-x="524" 
d="M474 296q0 -125 -70 -216q-70 -90 -171 -90q-84 0 -134 55.5t-50 148.5q0 128 69 216q70 90 172 90q83 0 133 -56q51 -56 51 -148zM137 194q0 -128 98 -128q64 0 107 67q44 68 44 163q0 128 -98 128q-64 0 -108 -66q-43 -65 -43 -164zM191 574l14 74h260l-14 -74h-260z
" />
    <glyph glyph-name="Obreve" unicode="&#x14e;" horiz-adv-x="646" 
d="M532 129q-45 -66 -106 -102.5t-127 -36.5q-107 0 -172 71q-63 71 -63 190q0 151 80 268q45 66 106 102.5t127 36.5q108 0 171 -71q64 -70 64 -190q0 -151 -80 -268zM158 251q0 -85 37.5 -132t105.5 -47q90 0 153 98q64 97 64 227q0 86 -37 132.5t-106 46.5
q-89 0 -154 -98q-63 -98 -63 -227zM486 838h71l-3 -24q-14 -109 -135 -109q-56 0 -85.5 31.5t-20.5 79.5l4 22h71l-4 -22q-5 -22 6.5 -34.5t35.5 -12.5q48 0 56 45z" />
    <glyph glyph-name="obreve" unicode="&#x14f;" horiz-adv-x="524" 
d="M474 296q0 -125 -70 -216q-70 -90 -171 -90q-84 0 -134 55.5t-50 148.5q0 128 69 216q70 90 172 90q83 0 133 -56q51 -56 51 -148zM137 194q0 -128 98 -128q64 0 107 67q44 68 44 163q0 128 -98 128q-64 0 -108 -66q-43 -65 -43 -164zM390 680h71l-3 -24
q-14 -109 -135 -109q-56 0 -85.5 31.5t-20.5 79.5l4 22h71l-4 -22q-5 -22 6.5 -34.5t35.5 -12.5q48 0 56 45z" />
    <glyph glyph-name="Ohungarumlaut" unicode="&#x150;" horiz-adv-x="646" 
d="M532 129q-45 -66 -106 -102.5t-127 -36.5q-107 0 -172 71q-63 71 -63 190q0 151 80 268q45 66 106 102.5t127 36.5q108 0 171 -71q64 -70 64 -190q0 -151 -80 -268zM158 251q0 -85 37.5 -132t105.5 -47q90 0 153 98q64 97 64 227q0 86 -37 132.5t-106 46.5
q-89 0 -154 -98q-63 -98 -63 -227zM467 806l-85 -97h-77l105 151zM613 806l-105 -97h-77l125 151z" />
    <glyph glyph-name="ohungarumlaut" unicode="&#x151;" horiz-adv-x="524" 
d="M474 296q0 -125 -70 -216q-70 -90 -171 -90q-84 0 -134 55.5t-50 148.5q0 128 69 216q70 90 172 90q83 0 133 -56q51 -56 51 -148zM137 194q0 -128 98 -128q64 0 107 67q44 68 44 163q0 128 -98 128q-64 0 -108 -66q-43 -65 -43 -164zM376 648l-85 -97h-77l105 151z
M522 648l-105 -97h-77l125 151z" />
    <glyph glyph-name="OE" unicode="&#x152;" horiz-adv-x="904" 
d="M158 251q0 -86 36 -132.5t102 -46.5q88 0 150 98t62 227q0 87 -35.5 133t-102.5 46q-88 0 -150 -98t-62 -227zM827 80l-16 -80h-371l13 66q-73 -76 -159 -76q-106 0 -168 71t-62 190q0 151 78 267q44 67 104 103.5t126 36.5q121 0 175 -105l19 95h371l-16 -80h-282
l-38 -200h235l-16 -80h-235l-40 -208h282z" />
    <glyph glyph-name="oe" unicode="&#x153;" horiz-adv-x="829" 
d="M708 102l25 -64q-77 -48 -150 -48q-126 0 -174 103q-69 -103 -176 -103q-84 0 -134 55.5t-50 148.5q0 128 69 216q70 90 172 90q110 0 158 -99q68 99 166 99q80 0 127.5 -47t47.5 -126q0 -44 -15 -84l-28 -27h-275q-1 -5 -1 -21q0 -128 120 -128q48 0 118 35zM708 324
q0 102 -96 102q-44 0 -79.5 -37.5t-51.5 -101.5h223q4 20 4 37zM137 194q0 -128 98 -128q64 0 107 67q44 68 44 163q0 128 -98 128q-64 0 -108 -66q-43 -65 -43 -164z" />
    <glyph glyph-name="Racute" unicode="&#x154;" horiz-adv-x="574" 
d="M475 476q0 44 -27.5 68t-76.5 24h-130l-42 -217h140q60 0 98 35t38 90zM400 280l88 -280h-94l-80 271h-130l-53 -271h-89l126 648h209q85 0 137.5 -45t52.5 -120q0 -74 -45 -128.5t-122 -74.5zM529 806l-112 -97h-81l135 151z" />
    <glyph glyph-name="racute" unicode="&#x155;" horiz-adv-x="338" 
d="M187 348l-68 -348h-87l95 490h87l-13 -67q52 43 88.5 60t80.5 17l-16 -83q-49 -4 -85 -19t-82 -50zM381 648l-112 -97h-81l135 151z" />
    <glyph glyph-name="Rcommaaccent" unicode="&#x156;" horiz-adv-x="574" 
d="M475 476q0 44 -27.5 68t-76.5 24h-130l-42 -217h140q60 0 98 35t38 90zM400 280l88 -280h-94l-80 271h-130l-53 -271h-89l126 648h209q85 0 137.5 -45t52.5 -120q0 -74 -45 -128.5t-122 -74.5zM291 -55l-52 -168h-70l37 168h85z" />
    <glyph glyph-name="rcommaaccent" unicode="&#x157;" horiz-adv-x="338" 
d="M187 348l-68 -348h-87l95 490h87l-13 -67q52 43 88.5 60t80.5 17l-16 -83q-49 -4 -85 -19t-82 -50zM107 -55l-52 -168h-70l37 168h85z" />
    <glyph glyph-name="Rcaron" unicode="&#x158;" horiz-adv-x="574" 
d="M475 476q0 44 -27.5 68t-76.5 24h-130l-42 -217h140q60 0 98 35t38 90zM400 280l88 -280h-94l-80 271h-130l-53 -271h-89l126 648h209q85 0 137.5 -45t52.5 -120q0 -74 -45 -128.5t-122 -74.5zM467 860h85l-145 -151h-62l-87 151h77l51 -77z" />
    <glyph glyph-name="rcaron" unicode="&#x159;" horiz-adv-x="338" 
d="M187 348l-68 -348h-87l95 490h87l-13 -67q52 43 88.5 60t80.5 17l-16 -83q-49 -4 -85 -19t-82 -50zM319 702h85l-145 -151h-62l-87 151h77l51 -77z" />
    <glyph glyph-name="Sacute" unicode="&#x15a;" horiz-adv-x="482" 
d="M425 177q0 -82 -61 -134q-61 -53 -154 -53q-122 0 -214 70l47 69q78 -60 167 -60q57 0 91.5 28t34.5 72q0 32 -20 58q-20 28 -85 69q-81 52 -106 90t-25 88q0 79 58 131q59 53 150 53q110 0 191 -59l-48 -69q-67 49 -146 49q-54 0 -86 -28t-32 -73q0 -28 19 -53
q21 -26 82 -65q83 -53 110 -93q27 -41 27 -90zM483 806l-112 -97h-81l135 151z" />
    <glyph glyph-name="sacute" unicode="&#x15b;" horiz-adv-x="414" 
d="M352 148q0 -71 -52 -114q-53 -44 -134 -44q-96 0 -168 56l43 67q64 -48 135 -48q42 0 66.5 20t24.5 52q0 19 -15 34.5t-61 39.5q-70 38 -92 67t-22 70q0 66 49 109t128 43q86 0 153 -49l-44 -67q-53 41 -113 41q-41 0 -64.5 -18t-23.5 -49q0 -20 16 -36.5t62 -40.5
q67 -34 90 -65q22 -28 22 -68zM419 648l-112 -97h-81l135 151z" />
    <glyph glyph-name="Scircumflex" unicode="&#x15c;" horiz-adv-x="482" 
d="M425 177q0 -82 -61 -134q-61 -53 -154 -53q-122 0 -214 70l47 69q78 -60 167 -60q57 0 91.5 28t34.5 72q0 32 -20 58q-20 28 -85 69q-81 52 -106 90t-25 88q0 79 58 131q59 53 150 53q110 0 191 -59l-48 -69q-67 49 -146 49q-54 0 -86 -28t-32 -73q0 -28 19 -53
q21 -26 82 -65q83 -53 110 -93q27 -41 27 -90zM390 860l87 -151h-77l-51 77l-81 -77h-85l145 151h62z" />
    <glyph glyph-name="scircumflex" unicode="&#x15d;" horiz-adv-x="414" 
d="M352 148q0 -71 -52 -114q-53 -44 -134 -44q-96 0 -168 56l43 67q64 -48 135 -48q42 0 66.5 20t24.5 52q0 19 -15 34.5t-61 39.5q-70 38 -92 67t-22 70q0 66 49 109t128 43q86 0 153 -49l-44 -67q-53 41 -113 41q-41 0 -64.5 -18t-23.5 -49q0 -20 16 -36.5t62 -40.5
q67 -34 90 -65q22 -28 22 -68zM326 702l87 -151h-77l-51 77l-81 -77h-85l145 151h62z" />
    <glyph glyph-name="Scedilla" unicode="&#x15e;" horiz-adv-x="482" 
d="M286 -120q0 -39 -31.5 -64t-82.5 -25q-50 0 -95 20l28 52q26 -14 58 -14q47 0 47 28q0 22 -38 22q-18 0 -38 -6l-16 29l40 72q-93 12 -162 66l47 69q78 -60 167 -60q57 0 91.5 28t34.5 72q0 32 -20 58q-20 28 -85 69q-81 52 -106 90t-25 88q0 79 58 131q59 53 150 53
q110 0 191 -59l-48 -69q-67 49 -146 49q-54 0 -86 -28t-32 -73q0 -28 19 -53q21 -26 82 -65q83 -53 110 -93q27 -41 27 -90q0 -79 -58 -131q-58 -53 -147 -56l-17 -36q38 -1 60.5 -21t22.5 -53z" />
    <glyph glyph-name="scedilla" unicode="&#x15f;" horiz-adv-x="414" 
d="M242 -120q0 -39 -31.5 -64t-82.5 -25q-50 0 -95 20l28 52q26 -14 58 -14q47 0 47 28q0 22 -38 22q-18 0 -38 -6l-16 29l41 73q-67 12 -117 51l43 67q64 -48 135 -48q42 0 66.5 20t24.5 52q0 19 -15 34.5t-61 39.5q-70 38 -92 67t-22 70q0 66 49 109t128 43q86 0 153 -49
l-44 -67q-53 41 -113 41q-41 0 -64.5 -18t-23.5 -49q0 -20 16 -36.5t62 -40.5q67 -34 90 -65q22 -28 22 -68q0 -68 -49 -111q-50 -44 -127 -47l-17 -36q38 -1 60.5 -21t22.5 -53z" />
    <glyph glyph-name="Scaron" unicode="&#x160;" horiz-adv-x="482" 
d="M425 177q0 -82 -61 -134q-61 -53 -154 -53q-122 0 -214 70l47 69q78 -60 167 -60q57 0 91.5 28t34.5 72q0 32 -20 58q-20 28 -85 69q-81 52 -106 90t-25 88q0 79 58 131q59 53 150 53q110 0 191 -59l-48 -69q-67 49 -146 49q-54 0 -86 -28t-32 -73q0 -28 19 -53
q21 -26 82 -65q83 -53 110 -93q27 -41 27 -90zM421 860h85l-145 -151h-62l-87 151h77l51 -77z" />
    <glyph glyph-name="scaron" unicode="&#x161;" horiz-adv-x="414" 
d="M352 148q0 -71 -52 -114q-53 -44 -134 -44q-96 0 -168 56l43 67q64 -48 135 -48q42 0 66.5 20t24.5 52q0 19 -15 34.5t-61 39.5q-70 38 -92 67t-22 70q0 66 49 109t128 43q86 0 153 -49l-44 -67q-53 41 -113 41q-41 0 -64.5 -18t-23.5 -49q0 -20 16 -36.5t62 -40.5
q67 -34 90 -65q22 -28 22 -68zM357 702h85l-145 -151h-62l-87 151h77l51 -77z" />
    <glyph glyph-name="uni0162" unicode="&#x162;" horiz-adv-x="493" 
d="M93 648h463l-16 -80h-187l-110 -568h-89l110 568h-187zM231 -55l-52 -168h-70l37 168h85z" />
    <glyph glyph-name="uni0163" unicode="&#x163;" horiz-adv-x="380" 
d="M213 -10q-72 0 -107.5 43.5t-21.5 115.5l53 270h-88l12 57l89 14l47 125h64l-24 -125h156l-14 -71h-156l-53 -270q-9 -42 5.5 -61.5t54.5 -19.5q32 0 80 18l11 -68q-53 -28 -108 -28zM182 -55l-52 -168h-70l37 168h85z" />
    <glyph glyph-name="Tcaron" unicode="&#x164;" horiz-adv-x="493" 
d="M93 648h463l-16 -80h-187l-110 -568h-89l110 568h-187zM427 860h85l-145 -151h-62l-87 151h77l51 -77z" />
    <glyph glyph-name="tcaron" unicode="&#x165;" horiz-adv-x="380" 
d="M213 -10q-72 0 -107.5 43.5t-21.5 115.5l53 270h-88l12 57l89 14l47 125h64l-24 -125h156l-14 -71h-156l-53 -270q-9 -42 5.5 -61.5t54.5 -19.5q32 0 80 18l11 -68q-53 -28 -108 -28zM416 718l-50 -168h-68l33 168h85z" />
    <glyph glyph-name="Tbar" unicode="&#x166;" horiz-adv-x="493" 
d="M312 356h115l-15 -78h-115l-54 -278h-89l54 278h-115l15 78h115l41 212h-187l16 80h463l-16 -80h-187z" />
    <glyph glyph-name="tbar" unicode="&#x167;" horiz-adv-x="380" 
d="M310 86l11 -68q-53 -28 -108 -28q-72 0 -107.5 43.5t-21.5 115.5l14 74h-86l13 67h87l25 129h-88l12 57l89 14l47 125h64l-24 -125h156l-14 -71h-156l-25 -129h127l-13 -67h-128l-14 -74q-9 -42 5.5 -61.5t54.5 -19.5q32 0 80 18z" />
    <glyph glyph-name="Utilde" unicode="&#x168;" horiz-adv-x="618" 
d="M289 68q127 0 157 152l83 428h89l-83 -428q-21 -109 -86 -169.5t-160 -60.5q-111 0 -173 69q-61 70 -41 171l81 418h89l-81 -418q-14 -74 19.5 -118t105.5 -44zM357 841q31 0 74 -31q31 -21 42 -21t20.5 9.5t25.5 36.5l57 -23q-48 -95 -109 -95q-34 0 -78 33
q-27 19 -38 19q-12 0 -21 -9t-25 -37l-58 23q27 51 52.5 73t57.5 22z" />
    <glyph glyph-name="utilde" unicode="&#x169;" horiz-adv-x="541" 
d="M508 490l-95 -490h-87l13 68q-88 -78 -158 -78q-69 0 -103 50t-19 129l62 321h87l-62 -321q-10 -49 6 -75t54 -26q57 0 150 85l65 337h87zM289 683q31 0 74 -31q31 -21 42 -21t20.5 9.5t25.5 36.5l57 -23q-48 -95 -109 -95q-34 0 -78 33q-27 19 -38 19q-12 0 -21 -9
t-25 -37l-58 23q27 51 52.5 73t57.5 22z" />
    <glyph glyph-name="Umacron" unicode="&#x16a;" horiz-adv-x="618" 
d="M289 68q127 0 157 152l83 428h89l-83 -428q-21 -109 -86 -169.5t-160 -60.5q-111 0 -173 69q-61 70 -41 171l81 418h89l-81 -418q-14 -74 19.5 -118t105.5 -44zM273 732l14 74h260l-14 -74h-260z" />
    <glyph glyph-name="umacron" unicode="&#x16b;" horiz-adv-x="541" 
d="M508 490l-95 -490h-87l13 68q-88 -78 -158 -78q-69 0 -103 50t-19 129l62 321h87l-62 -321q-10 -49 6 -75t54 -26q57 0 150 85l65 337h87zM205 574l14 74h260l-14 -74h-260z" />
    <glyph glyph-name="Ubreve" unicode="&#x16c;" horiz-adv-x="618" 
d="M289 68q127 0 157 152l83 428h89l-83 -428q-21 -109 -86 -169.5t-160 -60.5q-111 0 -173 69q-61 70 -41 171l81 418h89l-81 -418q-14 -74 19.5 -118t105.5 -44zM472 838h71l-3 -24q-14 -109 -135 -109q-56 0 -85.5 31.5t-20.5 79.5l4 22h71l-4 -22q-5 -22 6.5 -34.5
t35.5 -12.5q48 0 56 45z" />
    <glyph glyph-name="ubreve" unicode="&#x16d;" horiz-adv-x="541" 
d="M508 490l-95 -490h-87l13 68q-88 -78 -158 -78q-69 0 -103 50t-19 129l62 321h87l-62 -321q-10 -49 6 -75t54 -26q57 0 150 85l65 337h87zM404 680h71l-3 -24q-14 -109 -135 -109q-56 0 -85.5 31.5t-20.5 79.5l4 22h71l-4 -22q-5 -22 6.5 -34.5t35.5 -12.5q48 0 56 45z
" />
    <glyph glyph-name="Uring" unicode="&#x16e;" horiz-adv-x="618" 
d="M289 68q127 0 157 152l83 428h89l-83 -428q-21 -109 -86 -169.5t-160 -60.5q-111 0 -173 69q-61 70 -41 171l81 418h89l-81 -418q-14 -74 19.5 -118t105.5 -44zM302 793q0 48 34 78t89 30q46 0 75.5 -25t29.5 -63q0 -48 -34 -78t-89 -30q-46 0 -75.5 25t-29.5 63z
M462 806q0 38 -44 38q-20 0 -34 -12.5t-14 -31.5q0 -38 44 -38q20 0 34 12.5t14 31.5z" />
    <glyph glyph-name="uring" unicode="&#x16f;" horiz-adv-x="541" 
d="M508 490l-95 -490h-87l13 68q-88 -78 -158 -78q-69 0 -103 50t-19 129l62 321h87l-62 -321q-10 -49 6 -75t54 -26q57 0 150 85l65 337h87zM234 635q0 48 34 78t89 30q46 0 75.5 -25t29.5 -63q0 -48 -34 -78t-89 -30q-46 0 -75.5 25t-29.5 63zM394 648q0 38 -44 38
q-20 0 -34 -12.5t-14 -31.5q0 -38 44 -38q20 0 34 12.5t14 31.5z" />
    <glyph glyph-name="Uhungarumlaut" unicode="&#x170;" horiz-adv-x="618" 
d="M289 68q127 0 157 152l83 428h89l-83 -428q-21 -109 -86 -169.5t-160 -60.5q-111 0 -173 69q-61 70 -41 171l81 418h89l-81 -418q-14 -74 19.5 -118t105.5 -44zM453 806l-85 -97h-77l105 151zM599 806l-105 -97h-77l125 151z" />
    <glyph glyph-name="uhungarumlaut" unicode="&#x171;" horiz-adv-x="541" 
d="M508 490l-95 -490h-87l13 68q-88 -78 -158 -78q-69 0 -103 50t-19 129l62 321h87l-62 -321q-10 -49 6 -75t54 -26q57 0 150 85l65 337h87zM385 648l-85 -97h-77l105 151zM531 648l-105 -97h-77l125 151z" />
    <glyph glyph-name="Uogonek" unicode="&#x172;" horiz-adv-x="618" 
d="M247 -199q-40 0 -64 21.5t-24 57.5q0 33 19.5 58.5t64.5 55.5q-92 15 -139 81q-46 66 -29 155l81 418h89l-81 -418q-14 -74 19.5 -118t105.5 -44q127 0 157 152l83 428h89l-83 -428q-16 -84 -58 -138q-41 -53 -132 -92q-54 -24 -79.5 -47.5t-25.5 -51.5q0 -30 33 -30
q15 0 35 6l4 -52q-33 -14 -65 -14z" />
    <glyph glyph-name="uogonek" unicode="&#x173;" horiz-adv-x="541" 
d="M373 -133l4 -52q-33 -14 -65 -14q-40 0 -64 21.5t-24 57.5q0 72 103 124l12 64q-88 -78 -158 -78q-69 0 -103 50t-19 129l62 321h87l-62 -321q-10 -49 6 -75t54 -26q57 0 150 85l65 337h87l-95 -490l-23 -13q-85 -48 -85 -96q0 -30 33 -30q16 0 35 6z" />
    <glyph glyph-name="Wcircumflex" unicode="&#x174;" horiz-adv-x="858" 
d="M908 648l-286 -648h-125l-44 377l-190 -377h-123l-34 648h91l21 -573l220 439l-16 134h92l57 -574l245 574h92zM578 860l87 -151h-77l-51 77l-81 -77h-85l145 151h62z" />
    <glyph glyph-name="wcircumflex" unicode="&#x175;" horiz-adv-x="720" 
d="M371 298l-155 -298h-109l-39 490h86l21 -425l181 351l-9 74h86l39 -426l186 426h88l-229 -490h-109zM472 702l87 -151h-77l-51 77l-81 -77h-85l145 151h62z" />
    <glyph glyph-name="Ycircumflex" unicode="&#x176;" horiz-adv-x="516" 
d="M589 648l-284 -394l-49 -254h-89l49 254l-133 394h91l100 -306l218 306h97zM407 860l87 -151h-77l-51 77l-81 -77h-85l145 151h62z" />
    <glyph glyph-name="ycircumflex" unicode="&#x177;" horiz-adv-x="465" 
d="M405 490h89l-344 -685h-89l102 195h-48l-50 490h85l40 -433zM351 702l87 -151h-77l-51 77l-81 -77h-85l145 151h62z" />
    <glyph glyph-name="Ydieresis" unicode="&#x178;" horiz-adv-x="516" 
d="M589 648l-284 -394l-49 -254h-89l49 254l-133 394h91l100 -306l218 306h97zM329 784q0 -26 -16.5 -43t-42.5 -17q-22 0 -35.5 13t-13.5 33q0 26 16.5 43t41.5 17q22 0 36 -13t14 -33zM499 784q0 -26 -16.5 -43t-42.5 -17q-22 0 -35.5 13t-13.5 33q0 26 16.5 43t41.5 17
q22 0 36 -13t14 -33z" />
    <glyph glyph-name="Zacute" unicode="&#x179;" horiz-adv-x="466" 
d="M110 76h293l-15 -76h-406l10 52l389 520h-283l15 76h396l-10 -52zM455 806l-112 -97h-81l135 151z" />
    <glyph glyph-name="zacute" unicode="&#x17a;" horiz-adv-x="403" 
d="M105 69h233l-13 -69h-341l10 52l301 369h-224l13 69h331l-10 -52zM403 648l-112 -97h-81l135 151z" />
    <glyph glyph-name="Zdotaccent" unicode="&#x17b;" horiz-adv-x="466" 
d="M110 76h293l-15 -76h-406l10 52l389 520h-283l15 76h396l-10 -52zM379 784q0 -26 -16.5 -43t-42.5 -17q-22 0 -35.5 13t-13.5 33q0 26 16.5 43t41.5 17q22 0 36 -13t14 -33z" />
    <glyph glyph-name="zdotaccent" unicode="&#x17c;" horiz-adv-x="403" 
d="M105 69h233l-13 -69h-341l10 52l301 369h-224l13 69h331l-10 -52zM322 626q0 -26 -16.5 -43t-42.5 -17q-22 0 -35.5 13t-13.5 33q0 26 16.5 43t41.5 17q22 0 36 -13t14 -33z" />
    <glyph glyph-name="Zcaron" unicode="&#x17d;" horiz-adv-x="466" 
d="M110 76h293l-15 -76h-406l10 52l389 520h-283l15 76h396l-10 -52zM413 860h85l-145 -151h-62l-87 151h77l51 -77z" />
    <glyph glyph-name="zcaron" unicode="&#x17e;" horiz-adv-x="403" 
d="M105 69h233l-13 -69h-341l10 52l301 369h-224l13 69h331l-10 -52zM351 702h85l-145 -151h-62l-87 151h77l51 -77z" />
    <glyph glyph-name="uni0191" unicode="&#x191;" horiz-adv-x="491" 
d="M420 280h-235l-40 -207q-18 -94 -61 -155q-44 -62 -135 -123l-42 60q72 52 103 98q32 47 45 114l113 581h371l-16 -80h-282l-40 -208h235z" />
    <glyph glyph-name="uni0192" unicode="&#x192;" horiz-adv-x="338" 
d="M364 419h-138l-67 -346q-20 -96 -61 -155q-40 -60 -135 -123l-43 62q75 54 106 99q32 45 45 111l68 352h-87l12 57l89 14l5 25q34 173 202 173q44 0 81 -14l-26 -67q-32 8 -58 8q-50 0 -75.5 -22.5t-36.5 -78.5l-5 -24h138z" />
    <glyph glyph-name="uni0218" unicode="&#x218;" horiz-adv-x="482" 
d="M425 177q0 -82 -61 -134q-61 -53 -154 -53q-122 0 -214 70l47 69q78 -60 167 -60q57 0 91.5 28t34.5 72q0 32 -20 58q-20 28 -85 69q-81 52 -106 90t-25 88q0 79 58 131q59 53 150 53q110 0 191 -59l-48 -69q-67 49 -146 49q-54 0 -86 -28t-32 -73q0 -28 19 -53
q21 -26 82 -65q83 -53 110 -93q27 -41 27 -90zM225 -55l-52 -168h-70l37 168h85z" />
    <glyph glyph-name="uni0219" unicode="&#x219;" horiz-adv-x="414" 
d="M352 148q0 -71 -52 -114q-53 -44 -134 -44q-96 0 -168 56l43 67q64 -48 135 -48q42 0 66.5 20t24.5 52q0 19 -15 34.5t-61 39.5q-70 38 -92 67t-22 70q0 66 49 109t128 43q86 0 153 -49l-44 -67q-53 41 -113 41q-41 0 -64.5 -18t-23.5 -49q0 -20 16 -36.5t62 -40.5
q67 -34 90 -65q22 -28 22 -68zM191 -55l-52 -168h-70l37 168h85z" />
    <glyph glyph-name="uni021A" unicode="&#x21a;" horiz-adv-x="493" 
d="M93 648h463l-16 -80h-187l-110 -568h-89l110 568h-187zM231 -55l-52 -168h-70l37 168h85z" />
    <glyph glyph-name="uni021B" unicode="&#x21b;" horiz-adv-x="380" 
d="M213 -10q-72 0 -107.5 43.5t-21.5 115.5l53 270h-88l12 57l89 14l47 125h64l-24 -125h156l-14 -71h-156l-53 -270q-9 -42 5.5 -61.5t54.5 -19.5q32 0 80 18l11 -68q-53 -28 -108 -28zM182 -55l-52 -168h-70l37 168h85z" />
    <glyph glyph-name="dotlessj" unicode="&#x237;" horiz-adv-x="247" 
d="M45 67l82 423h87l-81 -417q-20 -96 -61 -155q-40 -60 -135 -123l-43 62q75 54 106 99q32 45 45 111z" />
    <glyph glyph-name="circumflex" unicode="&#x2c6;" horiz-adv-x="500" 
d="M369 702l87 -151h-77l-51 77l-81 -77h-85l145 151h62z" />
    <glyph glyph-name="caron" unicode="&#x2c7;" horiz-adv-x="500" 
d="M400 702h85l-145 -151h-62l-87 151h77l51 -77z" />
    <glyph glyph-name="breve" unicode="&#x2d8;" horiz-adv-x="500" 
d="M384 680h71l-3 -24q-14 -109 -135 -109q-56 0 -85.5 31.5t-20.5 79.5l4 22h71l-4 -22q-5 -22 6.5 -34.5t35.5 -12.5q48 0 56 45z" />
    <glyph glyph-name="dotaccent" unicode="&#x2d9;" horiz-adv-x="500" 
d="M376 626q0 -26 -16.5 -43t-42.5 -17q-22 0 -35.5 13t-13.5 33q0 26 16.5 43t41.5 17q22 0 36 -13t14 -33z" />
    <glyph glyph-name="ring" unicode="&#x2da;" horiz-adv-x="500" 
d="M213 635q0 48 34 78t89 30q46 0 75.5 -25t29.5 -63q0 -48 -34 -78t-89 -30q-46 0 -75.5 25t-29.5 63zM373 648q0 38 -44 38q-20 0 -34 -12.5t-14 -31.5q0 -38 44 -38q20 0 34 12.5t14 31.5z" />
    <glyph glyph-name="ogonek" unicode="&#x2db;" horiz-adv-x="500" 
d="M262 31l27 -31l-23 -13q-85 -48 -85 -96q0 -30 33 -30q15 0 35 6l4 -52q-33 -14 -65 -14q-40 0 -64 21.5t-24 57.5q0 42 31.5 75t100.5 63z" />
    <glyph glyph-name="tilde" unicode="&#x2dc;" horiz-adv-x="500" 
d="M268 683q31 0 74 -31q31 -21 42 -21t20.5 9.5t25.5 36.5l57 -23q-48 -95 -109 -95q-34 0 -78 33q-27 19 -38 19q-12 0 -21 -9t-25 -37l-58 23q27 51 52.5 73t57.5 22z" />
    <glyph glyph-name="hungarumlaut" unicode="&#x2dd;" horiz-adv-x="500" 
d="M364 648l-85 -97h-77l105 151zM510 648l-105 -97h-77l125 151z" />
    <glyph glyph-name="pi" unicode="&#x3c0;" horiz-adv-x="570" 
d="M511 69l8 -62q-38 -17 -79 -17q-50 0 -75 34t-15 88l58 298h-199l-80 -410h-87l80 410h-75l15 80h536l-15 -80h-88l-60 -307q-8 -43 31 -43q22 0 45 9z" />
    <glyph glyph-name="Wgrave" unicode="&#x1e80;" horiz-adv-x="858" 
d="M622 0l286 648h-92l-245 -574l-57 574h-92l16 -134l-220 -439l-21 573h-91l34 -648h123l190 377l44 -377h125zM475 709l-112 97l58 54l135 -151h-81z" />
    <glyph glyph-name="wgrave" unicode="&#x1e81;" horiz-adv-x="720" 
d="M216 0l155 298l37 -298h109l229 490h-88l-186 -426l-39 426h-86l9 -74l-181 -351l-21 425h-86l39 -490h109zM369 551l-112 97l58 54l135 -151h-81z" />
    <glyph glyph-name="Wacute" unicode="&#x1e82;" horiz-adv-x="858" 
d="M908 648l-286 -648h-125l-44 377l-190 -377h-123l-34 648h91l21 -573l220 439l-16 134h92l57 -574l245 574h92zM671 806l-112 -97h-81l135 151z" />
    <glyph glyph-name="wacute" unicode="&#x1e83;" horiz-adv-x="720" 
d="M371 298l-155 -298h-109l-39 490h86l21 -425l181 351l-9 74h86l39 -426l186 426h88l-229 -490h-109zM565 648l-112 -97h-81l135 151z" />
    <glyph glyph-name="Wdieresis" unicode="&#x1e84;" horiz-adv-x="858" 
d="M908 648l-286 -648h-125l-44 377l-190 -377h-123l-34 648h91l21 -573l220 439l-16 134h92l57 -574l245 574h92zM500 784q0 -26 -16.5 -43t-42.5 -17q-22 0 -35.5 13t-13.5 33q0 26 16.5 43t41.5 17q22 0 36 -13t14 -33zM670 784q0 -26 -16.5 -43t-42.5 -17
q-22 0 -35.5 13t-13.5 33q0 26 16.5 43t41.5 17q22 0 36 -13t14 -33z" />
    <glyph glyph-name="wdieresis" unicode="&#x1e85;" horiz-adv-x="720" 
d="M371 298l-155 -298h-109l-39 490h86l21 -425l181 351l-9 74h86l39 -426l186 426h88l-229 -490h-109zM394 626q0 -26 -16.5 -43t-42.5 -17q-22 0 -35.5 13t-13.5 33q0 26 16.5 43t41.5 17q22 0 36 -13t14 -33zM564 626q0 -26 -16.5 -43t-42.5 -17q-22 0 -35.5 13t-13.5 33
q0 26 16.5 43t41.5 17q22 0 36 -13t14 -33z" />
    <glyph glyph-name="uni1E9E" unicode="&#x1e9e;" horiz-adv-x="646" 
d="M593 164q0 -76 -52 -125t-134 -49q-87 0 -160 44l40 69q58 -38 120 -38q45 0 71.5 26t26.5 69q0 51 -34 93.5t-116 92.5l128 215q-41 17 -96 17q-148 0 -182 -173l-79 -405h-89l79 405q24 124 95 188.5t181 64.5q112 0 200 -61l-133 -224q71 -51 102.5 -100t31.5 -109z
" />
    <glyph glyph-name="Ygrave" unicode="&#x1ef2;" horiz-adv-x="516" 
d="M305 254l284 394h-97l-218 -306l-100 306h-91l133 -394l-49 -254h89zM304 709l-112 97l58 54l135 -151h-81z" />
    <glyph glyph-name="ygrave" unicode="&#x1ef3;" horiz-adv-x="465" 
d="M494 490h-89l-215 -433l-40 433h-85l50 -490h48l-102 -195h89zM248 551l-112 97l58 54l135 -151h-81z" />
    <glyph glyph-name="endash" unicode="&#x2013;" horiz-adv-x="500" 
d="M78 316h370l-14 -74h-370z" />
    <glyph glyph-name="emdash" unicode="&#x2014;" horiz-adv-x="1000" 
d="M78 316h870l-14 -74h-870z" />
    <glyph glyph-name="quoteleft" unicode="&#x2018;" horiz-adv-x="240" 
d="M223 491q0 -27 -16.5 -44.5t-42.5 -17.5q-23 0 -37 14t-14 38q0 48 31 94.5t87 82.5l27 -35q-34 -29 -50 -48q-11 -14 -20 -38q16 -4 25.5 -16.5t9.5 -29.5z" />
    <glyph glyph-name="quoteright" unicode="&#x2019;" horiz-adv-x="240" 
d="M242 606q0 -48 -31 -94.5t-87 -82.5l-27 35q34 29 50 48q11 14 20 38q-16 4 -25.5 16.5t-9.5 29.5q0 27 16.5 44.5t42.5 17.5q23 0 37 -14t14 -38z" />
    <glyph glyph-name="quotesinglbase" unicode="&#x201a;" horiz-adv-x="240" 
d="M134 48q0 -48 -31 -94.5t-87 -82.5l-27 35q34 29 50 48q11 14 20 38q-16 4 -25.5 16.5t-9.5 29.5q0 27 16.5 44.5t42.5 17.5q23 0 37 -14t14 -38z" />
    <glyph glyph-name="quotedblleft" unicode="&#x201c;" horiz-adv-x="410" 
d="M223 491q0 -27 -16.5 -44.5t-42.5 -17.5q-23 0 -37 14t-14 38q0 48 31 94.5t87 82.5l27 -35q-34 -29 -50 -48q-11 -14 -20 -38q16 -4 25.5 -16.5t9.5 -29.5zM393 491q0 -27 -16.5 -44.5t-42.5 -17.5q-23 0 -37 14t-14 38q0 48 31 94.5t87 82.5l27 -35q-34 -29 -50 -48
q-11 -14 -20 -38q16 -4 25.5 -16.5t9.5 -29.5z" />
    <glyph glyph-name="quotedblright" unicode="&#x201d;" horiz-adv-x="410" 
d="M242 606q0 -48 -31 -94.5t-87 -82.5l-27 35q34 29 50 48q11 14 20 38q-16 4 -25.5 16.5t-9.5 29.5q0 27 16.5 44.5t42.5 17.5q23 0 37 -14t14 -38zM412 606q0 -48 -31 -94.5t-87 -82.5l-27 35q34 29 50 48q11 14 20 38q-16 4 -25.5 16.5t-9.5 29.5q0 27 16.5 44.5
t42.5 17.5q23 0 37 -14t14 -38z" />
    <glyph glyph-name="quotedblbase" unicode="&#x201e;" horiz-adv-x="410" 
d="M134 48q0 -48 -31 -94.5t-87 -82.5l-27 35q34 29 50 48q11 14 20 38q-16 4 -25.5 16.5t-9.5 29.5q0 27 16.5 44.5t42.5 17.5q23 0 37 -14t14 -38zM304 48q0 -48 -31 -94.5t-87 -82.5l-27 35q34 29 50 48q11 14 20 38q-16 4 -25.5 16.5t-9.5 29.5q0 27 16.5 44.5
t42.5 17.5q23 0 37 -14t14 -38z" />
    <glyph glyph-name="dagger" unicode="&#x2020;" horiz-adv-x="414" 
d="M348 412l-74 13l-45 -297l-25 -128h-90l25 128l70 297l-79 -13h-78l15 78h78l73 -13l7 93l15 78h90l-15 -78l-29 -93l77 13h78l-15 -78h-78z" />
    <glyph glyph-name="daggerdbl" unicode="&#x2021;" horiz-adv-x="454" 
d="M319 158l-73 13l-7 -93l-15 -78h-90l15 78l29 93l-77 -13h-78l15 78h78l72 -12l9 100l30 100l-77 -12h-78l15 78h78l73 -13l7 93l15 78h90l-15 -78l-29 -93l77 13h78l-15 -78h-78l-72 12l-9 -100l-30 -100l77 12h78l-15 -78h-78z" />
    <glyph glyph-name="bullet" unicode="&#x2022;" horiz-adv-x="284" 
d="M67 324q0 43 28.5 73t70.5 30q36 0 60.5 -23t24.5 -57q0 -43 -28.5 -73t-70.5 -30q-36 0 -60.5 23t-24.5 57z" />
    <glyph glyph-name="ellipsis" unicode="&#x2026;" horiz-adv-x="680" 
d="M136 52q0 -26 -17 -44t-43 -18q-22 0 -36 13.5t-14 34.5q0 27 16.5 44.5t42.5 17.5q23 0 37 -13.5t14 -34.5zM356 52q0 -26 -17 -44t-43 -18q-22 0 -36 13.5t-14 34.5q0 27 16.5 44.5t42.5 17.5q23 0 37 -13.5t14 -34.5zM576 52q0 -26 -17 -44t-43 -18q-22 0 -36 13.5
t-14 34.5q0 27 16.5 44.5t42.5 17.5q23 0 37 -13.5t14 -34.5z" />
    <glyph glyph-name="perthousand" unicode="&#x2030;" horiz-adv-x="1081" 
d="M367 527q0 -81 -48 -138q-47 -57 -117 -57q-56 0 -91 36.5t-35 94.5q0 80 47 138q48 57 118 57q56 0 91 -36.5t35 -94.5zM601 648h93l-524 -648h-93zM151 470q0 -73 55 -73q35 0 61 36q25 37 25 87q0 73 -56 73q-35 0 -60 -37q-25 -35 -25 -86zM754 121q0 80 47 138
q48 57 118 57q56 0 91 -36.5t35 -94.5q0 -81 -48 -138q-47 -57 -117 -57q-56 0 -91 36.5t-35 94.5zM404 121q0 80 47 138q48 57 118 57q56 0 91 -36.5t35 -94.5q0 -81 -48 -138q-47 -57 -117 -57q-56 0 -91 36.5t-35 94.5zM970 178q0 73 -56 73q-35 0 -60 -37
q-25 -35 -25 -86q0 -73 55 -73q36 0 61 36q25 37 25 87zM620 178q0 73 -56 73q-35 0 -60 -37q-25 -35 -25 -86q0 -73 55 -73q36 0 61 36q25 37 25 87z" />
    <glyph glyph-name="guilsinglleft" unicode="&#x2039;" horiz-adv-x="320" 
d="M114 249l133 -97l-18 -92l-191 149l17 88l249 149l-19 -101z" />
    <glyph glyph-name="guilsinglright" unicode="&#x203a;" horiz-adv-x="320" 
d="M285 297l-17 -88l-249 -149l19 101l171 96l-133 97l18 92z" />
    <glyph glyph-name="fraction" unicode="&#x2044;" horiz-adv-x="177" 
d="M322 648h85l-522 -648h-85z" />
    <glyph glyph-name="zerosuperior" unicode="&#x2070;" horiz-adv-x="344" 
d="M382 616q0 -80 -47 -139q-46 -58 -113 -58q-57 0 -92 37.5t-35 100.5q0 80 46 138q47 59 114 59q57 0 92 -37.5t35 -100.5zM167 560q0 -75 59 -75q36 0 60 38q24 37 24 90q0 75 -59 75q-36 0 -60 -37t-24 -91z" />
    <glyph glyph-name="foursuperior" unicode="&#x2074;" horiz-adv-x="307" 
d="M297 532h45l-11 -56h-45l-10 -52h-66l10 52h-153l3 43q87 130 193 229h76zM146 532h85l28 142q-63 -68 -113 -142z" />
    <glyph glyph-name="fivesuperior" unicode="&#x2075;" horiz-adv-x="295" 
d="M318 539q0 -53 -38.5 -86.5t-100.5 -33.5q-59 0 -107 25l29 55q35 -17 78 -17q33 0 51.5 13.5t18.5 36.5q0 39 -49 39q-24 0 -63 -15l-25 13l48 179h194l-12 -62h-138l-17 -63q15 7 36 7q41 0 68 -25.5t27 -65.5z" />
    <glyph glyph-name="sixsuperior" unicode="&#x2076;" horiz-adv-x="290" 
d="M325 543q0 -52 -36 -88t-90 -36q-50 0 -82 31.5t-32 80.5q0 70 47.5 128t137.5 97l23 -48q-96 -44 -126 -103q29 29 70 29q38 0 63 -25.5t25 -65.5zM151 528q0 -23 13.5 -37t36.5 -14q25 0 41.5 16.5t16.5 42.5q0 40 -43 40q-29 0 -64 -25q-1 -5 -1 -23z" />
    <glyph glyph-name="sevensuperior" unicode="&#x2077;" horiz-adv-x="252" 
d="M182 442l-3 -18h-72l3 18q22 104 129 247h-136l12 59h218l-6 -31q-123 -166 -145 -275z" />
    <glyph glyph-name="eightsuperior" unicode="&#x2078;" horiz-adv-x="303" 
d="M323 519q0 -43 -36 -71.5t-89 -28.5t-84.5 22.5t-31.5 59.5q0 59 74 91q-32 29 -32 68q0 40 31.5 66.5t79.5 26.5q47 0 75.5 -21t28.5 -55q0 -56 -64 -87q48 -29 48 -71zM234 701q-21 0 -34.5 -10.5t-13.5 -26.5q0 -27 44 -50q47 26 47 54q0 33 -43 33zM146 511
q0 -19 14.5 -29.5t39.5 -10.5q26 0 42.5 12.5t16.5 31.5q0 11 -9 20q-8 9 -52 31q-52 -25 -52 -55z" />
    <glyph glyph-name="ninesuperior" unicode="&#x2079;" horiz-adv-x="290" 
d="M97 629q0 52 36 88t90 36q50 0 82 -31.5t32 -80.5q0 -70 -47.5 -128t-137.5 -97l-23 48q96 44 126 103q-29 -29 -70 -29q-38 0 -63 25.5t-25 65.5zM271 644q0 23 -13.5 37t-36.5 14q-25 0 -41.5 -16.5t-16.5 -42.5q0 -40 43 -40q29 0 64 25q1 5 1 23z" />
    <glyph glyph-name="zeroinferior" unicode="&#x2080;" horiz-adv-x="344" 
d="M280 92q0 -79 -47 -138t-113 -59q-57 0 -92 37.5t-35 100.5q0 80 46 138q47 59 114 59q57 0 92 -37.5t35 -100.5zM65 36q0 -75 59 -75q36 0 60 38q24 37 24 90q0 75 -59 75q-36 0 -60 -37t-24 -91z" />
    <glyph glyph-name="oneinferior" unicode="&#x2081;" horiz-adv-x="254" 
d="M115 -38h60l-12 -62h-200l12 62h70l39 200h-70l12 62h140z" />
    <glyph glyph-name="twoinferior" unicode="&#x2082;" horiz-adv-x="286" 
d="M73 -38h123l-12 -62h-227l9 48q102 72 144 113q41 41 41 72q0 34 -43 34q-27 0 -75 -20l-17 58q55 24 100 24q49 0 77.5 -23.5t28.5 -63.5q0 -46 -33 -85.5t-116 -94.5z" />
    <glyph glyph-name="threeinferior" unicode="&#x2083;" horiz-adv-x="288" 
d="M206 2q0 -49 -36.5 -78t-98.5 -29q-54 0 -107 24l28 57q42 -19 81 -19q64 0 64 45q0 35 -43 35h-65l11 58h62q53 0 53 40q0 32 -48 32q-34 0 -71 -15l-12 57q55 20 93 20q52 0 81 -21t29 -60q0 -28 -17 -49.5t-47 -31.5q43 -18 43 -65z" />
    <glyph glyph-name="fourinferior" unicode="&#x2084;" horiz-adv-x="307" 
d="M196 8h45l-11 -56h-45l-10 -52h-66l10 52h-153l3 43q87 130 193 229h76zM45 8h85l28 142q-63 -68 -113 -142z" />
    <glyph glyph-name="fiveinferior" unicode="&#x2085;" horiz-adv-x="294" 
d="M216 15q0 -53 -38.5 -86.5t-100.5 -33.5q-59 0 -107 25l29 55q35 -17 78 -17q33 0 51.5 13.5t18.5 36.5q0 39 -49 39q-24 0 -63 -15l-25 13l48 179h194l-12 -62h-138l-17 -63q15 7 36 7q41 0 68 -25.5t27 -65.5z" />
    <glyph glyph-name="sixinferior" unicode="&#x2086;" horiz-adv-x="290" 
d="M223 19q0 -52 -36 -88t-90 -36q-50 0 -82 31.5t-32 80.5q0 70 47.5 128t137.5 97l23 -48q-96 -44 -126 -103q29 29 70 29q38 0 63 -25.5t25 -65.5zM49 4q0 -23 13.5 -37t36.5 -14q25 0 41.5 16.5t16.5 42.5q0 40 -43 40q-29 0 -64 -25q-1 -5 -1 -23z" />
    <glyph glyph-name="seveninferior" unicode="&#x2087;" horiz-adv-x="252" 
d="M81 -82l-3 -18h-72l3 18q22 104 129 247h-136l12 59h218l-6 -31q-123 -166 -145 -275z" />
    <glyph glyph-name="eightinferior" unicode="&#x2088;" horiz-adv-x="301" 
d="M220 -5q0 -43 -36 -71.5t-89 -28.5t-84.5 22.5t-31.5 59.5q0 59 74 91q-32 29 -32 68q0 40 31.5 66.5t79.5 26.5q47 0 75.5 -21t28.5 -55q0 -56 -64 -87q48 -29 48 -71zM131 177q-21 0 -34.5 -10.5t-13.5 -26.5q0 -27 44 -50q47 26 47 54q0 33 -43 33zM43 -13
q0 -19 14.5 -29.5t39.5 -10.5q26 0 42.5 12.5t16.5 31.5q0 11 -9 20t-52 31q-52 -25 -52 -55z" />
    <glyph glyph-name="nineinferior" unicode="&#x2089;" horiz-adv-x="290" 
d="M-5 105q0 52 36 88t90 36q50 0 82 -31.5t32 -80.5q0 -70 -47.5 -128t-137.5 -97l-23 48q96 44 126 103q-29 -29 -70 -29q-38 0 -63 25.5t-25 65.5zM169 120q0 23 -13.5 37t-36.5 14q-25 0 -41.5 -16.5t-16.5 -42.5q0 -40 43 -40q29 0 64 25q1 5 1 23z" />
    <glyph glyph-name="colonmonetary" unicode="&#x20a1;" horiz-adv-x="525" 
d="M444 119l31 -66q-76 -54 -153 -62l-27 -91l-73 7l26 87q-29 5 -50 15l-33 -109l-73 7l43 143q-71 66 -71 194q0 145 66 256q67 111 174 146l30 102l73 -6l-25 -84h2q32 0 52 -4l28 94l73 -6l-32 -108q27 -11 55 -32l-49 -69q-62 43 -133 43q-92 0 -157 -98
q-63 -98 -63 -232q0 -85 36 -129.5t104 -44.5q64 0 146 47z" />
    <glyph glyph-name="uni20A9" unicode="&#x20a9;" horiz-adv-x="968" 
d="M774 220l-97 -220h-125l-40 385l-194 -385h-123l-12 220h-126l13 70h110l-4 70h-112l14 70h94l-11 218h91l21 -575l225 450l-13 125h92l49 -573l245 573h92l-96 -218h95l-14 -70h-112l-31 -70h109l-13 -70h-127z" />
    <glyph glyph-name="uni20AA" unicode="&#x20aa;" horiz-adv-x="826" 
d="M564 302l-24 -122h-87l25 131q11 57 -20.5 83t-113.5 26q-80 0 -154 -24l-77 -396h-89l88 454q126 46 237 46q124 0 179 -50.5t36 -147.5zM258 188l24 122h87l-25 -131q-11 -57 20.5 -83t113.5 -26q80 0 154 24l77 396h89l-88 -454q-126 -46 -237 -46q-124 0 -179 50.5
t-36 147.5z" />
    <glyph glyph-name="dong" unicode="&#x20ab;" horiz-adv-x="572" 
d="M130 173q0 -105 89 -105q76 0 146 113l37 193q-44 49 -110 49q-71 0 -117 -73q-45 -74 -45 -177zM521 540l-105 -540h-87l13 65q-65 -75 -143 -75q-69 0 -113 50t-44 131q0 139 72 233q74 96 178 96q73 0 125 -49l17 89h-99l13 68h99l14 70h87l-14 -70h68l-13 -68h-68z
M17 -62h387l-14 -74h-387z" />
    <glyph glyph-name="Euro" unicode="&#x20ac;" horiz-adv-x="586" 
d="M505 116l31 -63q-88 -63 -177 -63q-102 0 -164.5 61t-68.5 169h-101l13 70h89q5 42 10 70h-84l13 70h92q40 106 116 167t171 61q100 0 176 -56l-47 -66q-62 43 -133 43q-58 0 -107 -39t-81 -110h233l-15 -70h-241q-11 -35 -12 -70h220l-13 -70h-208q12 -151 142 -151
q64 0 146 47z" />
    <glyph glyph-name="uni20AD" unicode="&#x20ad;" horiz-adv-x="617" 
d="M397 330l139 -330h-95l-129 309l-114 -114l-38 -195h-89l64 330h-90l14 70h90l48 248h89l-64 -328l323 328h102l-240 -248h186l-14 -70h-182z" />
    <glyph glyph-name="uni20AE" unicode="&#x20ae;" horiz-adv-x="511" 
d="M304 269l97 37l23 -63l-135 -52l-37 -191h-89l30 154l-107 -41l-24 63l146 56l14 72l-107 -41l-24 63l146 56l36 186h-187l16 80h463l-16 -80h-187l-29 -149l97 37l23 -63l-135 -52z" />
    <glyph glyph-name="uni20B1" unicode="&#x20b1;" horiz-adv-x="694" 
d="M360 251h-135l-49 -251h-89l68 350h-90l14 70h90l13 70h-90l14 70h90l17 88h198q59 0 105 -23t69 -65h135l-14 -70h-101q1 -4 1 -16q0 -28 -6 -54h73l-14 -70h-90q-69 -99 -209 -99zM515 469q0 47 -27.5 73t-76.5 26h-125l-46 -237h125q66 0 108 38.5t42 99.5z" />
    <glyph glyph-name="uni20B4" unicode="&#x20b4;" horiz-adv-x="565" 
d="M433 121l29 -70q-101 -61 -201 -61q-90 0 -142 41.5t-52 112.5q0 46 25 81h-52l13 70h118q32 21 35 22q15 8 98 48h-217l14 70h299q34 34 34 74q0 33 -23.5 51.5t-66.5 18.5q-72 0 -157 -46l-26 70q98 55 184 55q83 0 130 -39t47 -107q0 -41 -23 -77h53l-14 -70h-107
q-42 -32 -125 -70h198l-13 -70h-302q-34 -30 -34 -74q0 -40 28.5 -61t81.5 -21q43 0 76 10q36 11 92 42z" />
    <glyph glyph-name="uni20B5" unicode="&#x20b5;" horiz-adv-x="525" 
d="M298 -10h-1l-17 -89h-75l19 99q-76 21 -118 85t-42 159q0 162 81 279q81 118 207 133l17 92h75l-18 -92q69 -7 134 -54l-49 -69q-62 43 -133 43q-92 0 -157 -98q-63 -98 -63 -232q0 -85 36 -129.5t104 -44.5q64 0 146 47l31 -66q-88 -63 -177 -63z" />
    <glyph glyph-name="uni20B8" unicode="&#x20b8;" horiz-adv-x="533" 
d="M97 568l16 80h463l-16 -80h-463zM84 498h463l-16 -80h-187l-81 -418h-89l81 418h-187z" />
    <glyph glyph-name="uni20B9" unicode="&#x20b9;" horiz-adv-x="555" 
d="M453 498h103l-14 -70h-95q-14 -54 -53 -93t-96 -54l88 -281h-94l-80 271h-155l15 80h165q41 0 72.5 20.5t45.5 56.5h-268l14 70h260q-14 70 -102 70h-145l16 80h475l-14 -70h-172q30 -34 34 -80z" />
    <glyph glyph-name="uni20BA" unicode="&#x20ba;" horiz-adv-x="540" 
d="M330 0h-244l39 203l-78 -30l-24 63l118 45l14 72l-79 -30l-24 63l118 45l42 217h89l-35 -180l125 48l23 -63l-163 -63l-14 -72l125 48l23 -63l-163 -63l-31 -160h152q61 0 69 48l7 35h80l-7 -35q-12 -66 -51.5 -97t-110.5 -31z" />
    <glyph glyph-name="uni20BC" unicode="&#x20bc;" horiz-adv-x="791" 
d="M146 251l-49 -251h-89l49 252q25 127 106 184q81 58 237 63l29 149h89l-29 -150q138 -11 203 -75.5t44 -170.5l-49 -252h-89l49 251q15 78 -27 118.5t-147 47.5l-65 -337h-89l65 337q-111 -6 -166.5 -44.5t-71.5 -121.5z" />
    <glyph glyph-name="uni20BD" unicode="&#x20bd;" horiz-adv-x="586" 
d="M193 170h186l-14 -70h-186l-19 -100h-89l19 100h-90l14 70h90l16 81h-89l15 80h89l62 317h198q87 0 141 -48t54 -126q0 -97 -69 -160t-177 -63h-135zM499 469q0 47 -27.5 73t-76.5 26h-125l-46 -237h125q66 0 108 38.5t42 99.5z" />
    <glyph glyph-name="uni2113" unicode="&#x2113;" horiz-adv-x="414" 
d="M188 -10q-67 0 -101.5 42.5t-21.5 111.5l69 355q31 159 153 159q57 0 90.5 -32.5t33.5 -87.5q0 -94 -67 -180q-69 -87 -180 -145l-13 -69q-16 -76 52 -76q35 0 92 21l8 -66q-57 -33 -115 -33zM284 585q-47 0 -65 -89l-38 -197q69 52 107 114t38 123q0 49 -42 49z" />
    <glyph glyph-name="uni2116" unicode="&#x2116;" horiz-adv-x="1002" 
d="M707 467q0 76 44 134q45 57 111 57q59 0 94.5 -36.5t35.5 -98.5q0 -77 -45 -134q-43 -57 -110 -57q-60 0 -95 36.5t-35 98.5zM917 521q0 72 -56 72q-34 0 -56 -37q-23 -38 -23 -87q0 -72 56 -72q34 0 56 37q23 38 23 87zM637 648l-126 -648h-118l-160 542l-105 -542h-86
l126 648h118l160 -542l105 542h86zM668 263h272l-14 -73h-272z" />
    <glyph glyph-name="trademark" unicode="&#x2122;" horiz-adv-x="617" 
d="M98 648h212l-11 -58h-71l-45 -232h-70l45 232h-71zM585 570l-76 -115h-65l-31 115l-41 -212h-65l56 290h81l38 -142l94 142h89l-56 -290h-65z" />
    <glyph glyph-name="Omega" unicode="&#x2126;" horiz-adv-x="771" 
d="M182 341q0 -69 27 -128q29 -58 105 -128l-21 -85h-241l14 71h187q-166 114 -166 265q0 136 96 229q97 93 242 93q133 0 216 -76q85 -75 85 -190q0 -99 -68.5 -182t-194.5 -139h174l-14 -71h-241l13 85q108 51 172 130t64 169q0 88 -57 143q-56 55 -151 55
q-105 0 -173 -71t-68 -170z" />
    <glyph glyph-name="estimated" unicode="&#x212e;" horiz-adv-x="712" 
d="M662 264v-7h-496q-4 0 -4 -3v-150q0 -11 7 -18q77 -80 188 -80q116 0 197 90h44q-43 -50 -107 -78.5t-135 -28.5q-126 0 -217 80q-89 81 -89 195q0 115 89 196q90 81 217 81q128 0 216 -81q90 -81 90 -196zM550 276v151q0 11 -8 19q-75 78 -185 78q-112 0 -187 -81
q-8 -6 -8 -19v-148q0 -4 4 -4h381q3 0 3 4z" />
    <glyph glyph-name="onethird" unicode="&#x2153;" horiz-adv-x="723" 
d="M197 386h60l-12 -62h-200l12 62h70l39 200h-70l12 62h140zM576 648h85l-522 -648h-85zM661 102q0 -49 -36.5 -78t-98.5 -29q-54 0 -107 24l28 57q42 -19 81 -19q64 0 64 45q0 35 -43 35h-65l11 58h62q53 0 53 40q0 32 -48 32q-34 0 -71 -15l-12 57q55 20 93 20
q52 0 81 -21t29 -60q0 -28 -17 -49.5t-47 -31.5q43 -18 43 -65z" />
    <glyph glyph-name="twothirds" unicode="&#x2154;" horiz-adv-x="755" 
d="M155 386h123l-12 -62h-227l9 48q102 72 144 113q41 41 41 72q0 34 -43 34q-27 0 -75 -20l-17 58q55 24 100 24q49 0 77.5 -23.5t28.5 -63.5q0 -46 -33 -85.5t-116 -94.5zM608 648h85l-522 -648h-85zM693 102q0 -49 -36.5 -78t-98.5 -29q-54 0 -107 24l28 57
q42 -19 81 -19q64 0 64 45q0 35 -43 35h-65l11 58h62q53 0 53 40q0 32 -48 32q-34 0 -71 -15l-12 57q55 20 93 20q52 0 81 -21t29 -60q0 -28 -17 -49.5t-47 -31.5q43 -18 43 -65z" />
    <glyph glyph-name="oneeighth" unicode="&#x215b;" horiz-adv-x="716" 
d="M197 386h60l-12 -62h-200l12 62h70l39 200h-70l12 62h140zM576 648h85l-522 -648h-85zM655 95q0 -43 -36 -71.5t-89 -28.5t-84.5 22.5t-31.5 59.5q0 59 74 91q-32 29 -32 68q0 40 31.5 66.5t79.5 26.5q47 0 75.5 -21t28.5 -55q0 -56 -64 -87q48 -29 48 -71zM566 277
q-21 0 -34.5 -10.5t-13.5 -26.5q0 -27 44 -50q47 26 47 54q0 33 -43 33zM478 87q0 -19 14.5 -29.5t39.5 -10.5q26 0 42.5 12.5t16.5 31.5q0 11 -9 20q-8 9 -52 31q-52 -25 -52 -55z" />
    <glyph glyph-name="threeeighths" unicode="&#x215c;" horiz-adv-x="750" 
d="M289 426q0 -49 -36.5 -78t-98.5 -29q-55 0 -107 24l28 57q42 -19 81 -19q64 0 64 45q0 35 -43 35h-65l11 58h62q53 0 53 40q0 32 -48 32q-34 0 -71 -15l-12 57q55 20 93 20q52 0 81 -21t29 -60q0 -28 -17 -49.5t-47 -31.5q43 -18 43 -65zM610 648h85l-522 -648h-85z
M689 95q0 -43 -36 -71.5t-89 -28.5t-84.5 22.5t-31.5 59.5q0 59 74 91q-32 29 -32 68q0 40 31.5 66.5t79.5 26.5q47 0 75.5 -21t28.5 -55q0 -56 -64 -87q48 -29 48 -71zM600 277q-21 0 -34.5 -10.5t-13.5 -26.5q0 -27 44 -50q47 26 47 54q0 33 -43 33zM512 87
q0 -19 14.5 -29.5t39.5 -10.5q26 0 42.5 12.5t16.5 31.5q0 11 -9 20q-8 9 -52 31q-52 -25 -52 -55z" />
    <glyph glyph-name="fiveeighths" unicode="&#x215d;" horiz-adv-x="756" 
d="M298 439q0 -53 -38.5 -86.5t-100.5 -33.5q-59 0 -107 25l29 55q35 -17 78 -17q33 0 51.5 13.5t18.5 36.5q0 39 -49 39q-24 0 -63 -15l-25 13l48 179h194l-12 -62h-138l-17 -63q15 7 36 7q41 0 68 -25.5t27 -65.5zM616 648h85l-522 -648h-85zM695 95q0 -43 -36 -71.5
t-89 -28.5t-84.5 22.5t-31.5 59.5q0 59 74 91q-32 29 -32 68q0 40 31.5 66.5t79.5 26.5q47 0 75.5 -21t28.5 -55q0 -56 -64 -87q48 -29 48 -71zM606 277q-21 0 -34.5 -10.5t-13.5 -26.5q0 -27 44 -50q47 26 47 54q0 33 -43 33zM518 87q0 -19 14.5 -29.5t39.5 -10.5
q26 0 42.5 12.5t16.5 31.5q0 11 -9 20q-8 9 -52 31q-52 -25 -52 -55z" />
    <glyph glyph-name="seveneighths" unicode="&#x215e;" horiz-adv-x="714" 
d="M163 342l-3 -18h-72l3 18q22 104 129 247h-136l12 59h218l-6 -31q-123 -166 -145 -275zM574 648h85l-522 -648h-85zM653 95q0 -43 -36 -71.5t-89 -28.5t-84.5 22.5t-31.5 59.5q0 59 74 91q-32 29 -32 68q0 40 31.5 66.5t79.5 26.5q47 0 75.5 -21t28.5 -55q0 -56 -64 -87
q48 -29 48 -71zM564 277q-21 0 -34.5 -10.5t-13.5 -26.5q0 -27 44 -50q47 26 47 54q0 33 -43 33zM476 87q0 -19 14.5 -29.5t39.5 -10.5q26 0 42.5 12.5t16.5 31.5q0 11 -9 20q-8 9 -52 31q-52 -25 -52 -55z" />
    <glyph glyph-name="arrowleft" unicode="&#x2190;" horiz-adv-x="512" 
d="M477 301h-338l100 -83l-44 -57l-165 147v62l165 147l44 -57l-100 -83h338v-76z" />
    <glyph glyph-name="arrowup" unicode="&#x2191;" horiz-adv-x="512" 
d="M218 91v338l-83 -100l-57 44l147 165h62l147 -165l-57 -44l-83 100v-338h-76z" />
    <glyph glyph-name="arrowright" unicode="&#x2192;" horiz-adv-x="512" 
d="M35 337h338l-100 83l44 57l165 -147v-62l-165 -147l-44 57l100 83h-338v76z" />
    <glyph glyph-name="arrowdown" unicode="&#x2193;" horiz-adv-x="512" 
d="M294 562v-338l83 100l57 -44l-147 -165h-62l-147 165l57 44l83 -100v338h76z" />
    <glyph glyph-name="uni2194" unicode="&#x2194;" horiz-adv-x="614" 
d="M594 370v-62l-165 -147l-44 57l100 83h-356l100 -83l-44 -57l-165 147v62l165 147l44 -57l-100 -83h356l-100 83l44 57z" />
    <glyph glyph-name="uni2195" unicode="&#x2195;" horiz-adv-x="512" 
d="M377 241l57 -44l-147 -165h-62l-147 165l57 44l83 -100v356l-83 -100l-57 44l147 165h62l147 -165l-57 -44l-83 100v-356z" />
    <glyph glyph-name="uni2196" unicode="&#x2196;" horiz-adv-x="512" 
d="M342 419l-135 4l245 -245l-53 -53l-245 245l5 -144h-72v220l44 44h211v-71z" />
    <glyph glyph-name="uni2197" unicode="&#x2197;" horiz-adv-x="512" 
d="M358 370l-245 -245l-53 53l245 245l-135 -4v71h211l44 -44v-220h-72z" />
    <glyph glyph-name="uni2198" unicode="&#x2198;" horiz-adv-x="512" 
d="M170 196l135 -4l-245 245l53 53l245 -245l-5 144h72v-220l-44 -44h-211v71z" />
    <glyph glyph-name="uni2199" unicode="&#x2199;" horiz-adv-x="512" 
d="M154 245l245 245l53 -53l-245 -245l135 4v-71h-211l-44 44v220h72z" />
    <glyph glyph-name="partialdiff" unicode="&#x2202;" horiz-adv-x="540" 
d="M447 162q-45 -82 -105.5 -127t-126.5 -45q-82 0 -133 49t-51 128q0 101 73 187q75 86 179 86q54 0 92 -25t53 -70q11 51 11 111q0 66 -28.5 97.5t-88.5 31.5q-22 0 -49 -7l-6 70q27 10 73 10q82 0 130.5 -55.5t48.5 -149.5q0 -161 -72 -291zM120 171q0 -49 26.5 -77
t72.5 -28q60 0 110 65q49 64 49 138q0 45 -25 70t-70 25q-67 0 -115 -62t-48 -131z" />
    <glyph glyph-name="increment" unicode="&#x2206;" horiz-adv-x="562" 
d="M422 648l74 -648h-526l326 648h126zM348 583l-248 -505h298z" />
    <glyph glyph-name="product" unicode="&#x220f;" horiz-adv-x="654" 
d="M642 648l-150 -770h-89l135 692h-296l-135 -692h-89l150 770h474z" />
    <glyph glyph-name="summation" unicode="&#x2211;" horiz-adv-x="491" 
d="M351 266l-255 -310h323l-15 -78h-441l12 62l278 333l-149 316l12 59h425l-15 -78h-319z" />
    <glyph glyph-name="minus" unicode="&#x2212;" horiz-adv-x="438" 
d="M49 344h378l-15 -77h-378z" />
    <glyph glyph-name="uni2215" unicode="&#x2215;" horiz-adv-x="177" 
d="M322 648h85l-522 -648h-85z" />
    <glyph glyph-name="radical" unicode="&#x221a;" horiz-adv-x="560" 
d="M663 698l-370 -698h-114l-58 398l-71 -20l-12 65l160 47l50 -420l326 628h89z" />
    <glyph glyph-name="infinity" unicode="&#x221e;" horiz-adv-x="708" 
d="M698 349q0 -91 -54 -156q-54 -64 -135 -64q-108 0 -152 110q-78 -110 -165 -110q-69 0 -110.5 45t-41.5 119q0 93 55 157q56 65 135 65q108 0 151 -116q42 62 81.5 89t84.5 27q67 0 109 -46t42 -120zM119 299q0 -43 21 -67.5t57 -24.5q31 0 59.5 24t70.5 87
q-20 68 -42.5 93.5t-59.5 25.5q-46 0 -76 -39t-30 -99zM410 320q21 -64 43.5 -88.5t60.5 -24.5q48 0 76 37.5t28 98.5q0 44 -20 69t-56 25q-31 0 -59.5 -25t-72.5 -92z" />
    <glyph glyph-name="integral" unicode="&#x222b;" horiz-adv-x="417" 
d="M-24 -205q-44 0 -81 14l26 67q32 -8 58 -8q51 0 76.5 22.5t35.5 76.5l100 518q31 173 202 173q44 0 81 -14l-26 -67q-32 8 -58 8q-51 0 -76.5 -22.5t-35.5 -76.5l-100 -518q-31 -173 -202 -173z" />
    <glyph glyph-name="approxequal" unicode="&#x2248;" horiz-adv-x="438" 
d="M259 455q51 -21 76 -21q34 0 79 35l34 -54q-62 -59 -118 -59q-35 0 -96 26q-46 19 -65 19q-30 0 -79 -35l-33 54q65 59 117 59q32 0 85 -24zM225 283q51 -21 76 -21q34 0 79 35l34 -54q-62 -59 -118 -59q-35 0 -96 26q-46 19 -65 19q-30 0 -79 -35l-33 54q65 59 117 59
q32 0 85 -24z" />
    <glyph glyph-name="notequal" unicode="&#x2260;" horiz-adv-x="438" 
d="M245 274h168l-15 -77h-193l-51 -97h-82l51 97h-103l15 77h129l53 103h-162l15 77h188l49 94h82l-50 -94h109l-15 -77h-134z" />
    <glyph glyph-name="lessequal" unicode="&#x2264;" horiz-adv-x="438" 
d="M133 358l262 -127l-18 -91l-335 179l16 82l405 179l-19 -96zM-6 74h370l-14 -74h-370z" />
    <glyph glyph-name="greaterequal" unicode="&#x2265;" horiz-adv-x="439" 
d="M440 401l-16 -82l-405 -179l19 96l311 126l-262 127l18 91zM377 74l-15 -74h-370l15 74h370z" />
    <glyph glyph-name="lozenge" unicode="&#x25ca;" horiz-adv-x="466" 
d="M259 648h104l103 -324l-229 -324h-104l-103 324zM304 587l-184 -271l74 -255l184 271z" />
    <glyph glyph-name="commaaccent" unicode="&#xf6c3;" horiz-adv-x="500" 
d="M234 -55l-52 -168h-70l37 168h85z" />
    <glyph glyph-name="kgreenlandic.case" horiz-adv-x="718" 
d="M734 491q0 -27 -16.5 -44.5t-42.5 -17.5q-23 0 -37 14t-14 38q0 48 31 94.5t87 82.5l27 -35q-34 -29 -50 -48q-11 -14 -20 -38q16 -4 25.5 -16.5t9.5 -29.5zM355 374l158 -374h-95l-130 311l-120 -120l-37 -191h-89l126 648h89l-64 -331l326 331h102z" />
    <glyph glyph-name="napostrophe.case" horiz-adv-x="741" 
d="M729 648l-126 -648h-118l-160 542l-105 -542h-86l126 648h118l160 -542l105 542h86zM197 648l-52 -168h-70l37 168h85z" />
    <glyph glyph-name="i.dot" horiz-adv-x="247" 
d="M142 612q0 27 16 43.5t42 16.5q22 0 36 -13t14 -33q0 -27 -16 -43.5t-42 -16.5q-22 0 -36 13t-14 33zM32 0l95 490h87l-95 -490h-87z" />
    <glyph glyph-name="caron.alt" horiz-adv-x="500" 
d="M377 678l-50 -168h-68l33 168h85z" />
    <glyph glyph-name="revcommaaccent" horiz-adv-x="500" 
d="M266 551l52 168h70l-37 -168h-85z" />
    <glyph glyph-name="zero.tlf" horiz-adv-x="550" 
d="M464 146q-86 -156 -220 -156q-92 0 -144 62.5t-52 173.5q0 152 67 275q41 76 98 116.5t123 40.5q92 0 144 -63t52 -174q0 -153 -68 -275zM141 234q0 -162 103 -162q81 0 138 103t57 238q0 163 -103 163q-80 0 -138 -105q-57 -103 -57 -237z" />
    <glyph glyph-name="one.tlf" horiz-adv-x="550" 
d="M296 78h121l-15 -78h-346l15 78h136l96 492h-136l15 78h225z" />
    <glyph glyph-name="two.tlf" horiz-adv-x="550" 
d="M163 78h274l-15 -78h-398l13 65q130 100 221 186q80 75 113.5 129t33.5 109q0 43 -28 66.5t-79 23.5q-62 0 -136 -30l-19 73q92 36 163 36q91 0 141.5 -43.5t50.5 -120.5q0 -89 -77 -184q-75 -93 -258 -232z" />
    <glyph glyph-name="three.tlf" horiz-adv-x="550" 
d="M456 200q0 -91 -71 -151q-71 -59 -181 -59q-98 0 -179 41l37 72q69 -34 142 -34q75 0 118 35.5t43 98.5q0 44 -29 67.5t-84 23.5h-93l16 80h85q65 0 102.5 32.5t37.5 86.5q0 41 -30 63.5t-85 22.5q-48 0 -123 -26l-19 72q79 33 158 33q89 0 139.5 -41.5t50.5 -114.5
q0 -58 -35 -102t-97 -66q97 -35 97 -134z" />
    <glyph glyph-name="four.tlf" horiz-adv-x="550" 
d="M417 215h92l-15 -77h-92l-27 -138h-84l27 138h-300l2 60q75 110 177 230q97 115 205 220h99zM121 215h212l65 337q-165 -172 -277 -337z" />
    <glyph glyph-name="five.tlf" horiz-adv-x="550" 
d="M471 225q0 -106 -74 -171q-73 -64 -194 -64q-102 0 -182 37l38 72q73 -30 141 -30q84 0 133 40t49 110q0 107 -123 107q-49 0 -114 -23l-31 22l83 323h330l-15 -78h-258l-47 -182q35 13 74 13q85 0 137 -49q53 -50 53 -127z" />
    <glyph glyph-name="six.tlf" horiz-adv-x="550" 
d="M495 224q0 -95 -67 -165q-66 -69 -162 -69q-89 0 -146 60q-56 62 -56 158q0 138 95 260q97 123 269 196l31 -67q-218 -96 -283 -253q69 63 149 63q75 0 122 -51q48 -51 48 -132zM151 205q0 -67 30.5 -103.5t84.5 -36.5q61 0 102 44q40 43 40 113q0 52 -27 81t-75 29
q-79 0 -153 -86q-2 -40 -2 -41z" />
    <glyph glyph-name="seven.tlf" horiz-adv-x="550" 
d="M246 16l-3 -16h-91l3 15q25 128 90 250q65 123 201 305h-313l15 78h405l-12 -63q-139 -186 -205 -313q-66 -126 -90 -256z" />
    <glyph glyph-name="eight.tlf" horiz-adv-x="550" 
d="M486 177q0 -79 -67 -133q-66 -54 -169 -54q-92 0 -156 47q-63 47 -63 118q0 63 45.5 113t129.5 79q-84 57 -84 137q0 74 60 124q61 50 150 50q87 0 139.5 -41.5t52.5 -108.5q0 -104 -145 -173q57 -35 82 -72t25 -86zM331 590q-55 0 -88.5 -28.5t-33.5 -74.5
q0 -34 23.5 -60t86.5 -59q64 30 91 61t27 74q0 40 -28 63.5t-78 23.5zM121 162q0 -48 36 -76t96 -28q63 0 104.5 34t41.5 85q0 46 -47 83l-26 17q-13 9 -61 35q-144 -52 -144 -150z" />
    <glyph glyph-name="nine.tlf" horiz-adv-x="550" 
d="M85 424q0 95 66 164q67 70 163 70q90 0 145 -61q57 -60 57 -157q0 -138 -96 -260q-95 -122 -268 -196l-31 67q218 96 283 253q-69 -63 -149 -63q-75 0 -123 51q-47 52 -47 132zM429 443q0 67 -30.5 103.5t-84.5 36.5q-61 0 -102 -44q-40 -43 -40 -113q0 -52 27 -81
t75 -29q79 0 153 86q2 40 2 41z" />
    <glyph glyph-name="zero.posf" horiz-adv-x="524" 
d="M484 291q0 -125 -70 -213t-177 -88q-92 0 -145 56t-53 154q0 123 70 211q71 89 177 89q93 0 145.5 -55.5t52.5 -153.5zM127 204q0 -67 28.5 -102.5t81.5 -35.5q69 0 114 66t45 155q0 66 -28.5 101.5t-81.5 35.5q-69 0 -114 -65t-45 -155z" />
    <glyph glyph-name="one.posf" horiz-adv-x="396" 
d="M225 78h123l-15 -78h-346l15 78h136l65 334h-136l15 78h223z" />
    <glyph glyph-name="two.posf" horiz-adv-x="475" 
d="M150 78h247l-15 -78h-390l13 65q124 70 195 119q77 52 108.5 89.5t31.5 78.5q0 33 -26 51t-73 18q-59 0 -138 -32l-21 73q90 38 164 38q85 0 135 -37.5t50 -102.5q0 -76 -63 -138q-61 -59 -218 -144z" />
    <glyph glyph-name="three.posf" horiz-adv-x="478" 
d="M390 42q0 -91 -71 -150q-71 -60 -181 -60q-98 0 -179 41l37 72q69 -34 142 -34q75 0 118 35.5t43 98.5q0 44 -29 67.5t-84 23.5h-93l16 80h85q65 0 102.5 32.5t37.5 86.5q0 41 -30 63.5t-85 22.5q-48 0 -123 -26l-19 72q79 33 158 33q89 0 139.5 -41.5t50.5 -114.5
q0 -58 -35 -102t-97 -66q97 -35 97 -134z" />
    <glyph glyph-name="four.posf" horiz-adv-x="536" 
d="M390 77h92l-15 -77h-92l-31 -158h-84l31 158h-300l3 60q70 104 173 222q99 113 204 208h99zM94 77h212l62 320q-157 -153 -274 -320z" />
    <glyph glyph-name="five.posf" horiz-adv-x="504" 
d="M419 67q0 -106 -74 -171q-73 -64 -194 -64q-102 0 -182 37l38 72q73 -30 141 -30q84 0 133 40t49 110q0 107 -123 107q-49 0 -114 -23l-31 22l83 323h330l-15 -78h-258l-47 -182q35 13 74 13q85 0 137 -49q53 -50 53 -127z" />
    <glyph glyph-name="six.posf" horiz-adv-x="522" 
d="M477 224q0 -95 -67 -165q-66 -69 -162 -69q-89 0 -146 60q-56 62 -56 158q0 138 95 260q97 123 269 196l31 -67q-218 -96 -283 -253q69 63 149 63q75 0 122 -51q48 -51 48 -132zM133 205q0 -67 30.5 -103.5t84.5 -36.5q61 0 102 44q40 43 40 113q0 52 -27 81t-75 29
q-79 0 -153 -86q-2 -40 -2 -41z" />
    <glyph glyph-name="seven.posf" horiz-adv-x="444" 
d="M163 -142l-3 -16h-91l3 15q25 128 90 250q65 123 201 305h-313l15 78h405l-12 -63q-139 -186 -205 -313q-66 -126 -90 -256z" />
    <glyph glyph-name="eight.posf" horiz-adv-x="547" 
d="M485 177q0 -79 -67 -133q-66 -54 -169 -54q-92 0 -156 47q-63 47 -63 118q0 63 45.5 113t129.5 79q-84 57 -84 137q0 74 60 124q61 50 150 50q87 0 139.5 -41.5t52.5 -108.5q0 -104 -145 -173q57 -35 82 -72t25 -86zM330 590q-55 0 -88.5 -28.5t-33.5 -74.5
q0 -34 23.5 -60t86.5 -59q64 30 91 61t27 74q0 40 -28 63.5t-78 23.5zM120 162q0 -48 36 -76t96 -28q63 0 104.5 34t41.5 85q0 46 -47 83l-26 17q-13 9 -61 35q-144 -52 -144 -150z" />
    <glyph glyph-name="nine.posf" horiz-adv-x="522" 
d="M44 266q0 95 66 164q67 70 163 70q90 0 145 -61q57 -60 57 -157q0 -138 -96 -260q-95 -122 -268 -196l-31 67q218 96 283 253q-69 -63 -149 -63q-75 0 -123 51q-47 52 -47 132zM388 285q0 67 -30.5 103.5t-84.5 36.5q-61 0 -102 -44q-40 -43 -40 -113q0 -52 27 -81
t75 -29q79 0 153 86q2 40 2 41z" />
    <glyph glyph-name="zero.numerator" horiz-adv-x="344" 
d="M362 516q0 -80 -47 -139q-46 -58 -113 -58q-57 0 -92 37.5t-35 100.5q0 80 46 138q47 59 114 59q57 0 92 -37.5t35 -100.5zM147 460q0 -75 59 -75q36 0 60 38q24 37 24 90q0 75 -59 75q-36 0 -60 -37t-24 -91z" />
    <glyph glyph-name="one.numerator" horiz-adv-x="254" 
d="M197 386h60l-12 -62h-200l12 62h70l39 200h-70l12 62h140z" />
    <glyph glyph-name="two.numerator" horiz-adv-x="286" 
d="M155 386h123l-12 -62h-227l9 48q102 72 144 113q41 41 41 72q0 34 -43 34q-27 0 -75 -20l-17 58q55 24 100 24q49 0 77.5 -23.5t28.5 -63.5q0 -46 -33 -85.5t-116 -94.5z" />
    <glyph glyph-name="three.numerator" horiz-adv-x="288" 
d="M289 426q0 -49 -36.5 -78t-98.5 -29q-55 0 -107 24l28 57q42 -19 81 -19q64 0 64 45q0 35 -43 35h-65l11 58h62q53 0 53 40q0 32 -48 32q-34 0 -71 -15l-12 57q55 20 93 20q52 0 81 -21t29 -60q0 -28 -17 -49.5t-47 -31.5q43 -18 43 -65z" />
    <glyph glyph-name="four.numerator" horiz-adv-x="307" 
d="M278 432h45l-11 -56h-45l-10 -52h-66l10 52h-153l3 43q87 130 193 229h76zM127 432h85l28 142q-63 -68 -113 -142z" />
    <glyph glyph-name="five.numerator" horiz-adv-x="294" 
d="M298 439q0 -53 -38.5 -86.5t-100.5 -33.5q-59 0 -107 25l29 55q35 -17 78 -17q33 0 51.5 13.5t18.5 36.5q0 39 -49 39q-24 0 -63 -15l-25 13l48 179h194l-12 -62h-138l-17 -63q15 7 36 7q41 0 68 -25.5t27 -65.5z" />
    <glyph glyph-name="six.numerator" horiz-adv-x="289" 
d="M305 443q0 -52 -36 -88t-90 -36q-50 0 -82 31.5t-32 80.5q0 70 47.5 128t137.5 97l23 -48q-96 -44 -126 -103q29 29 70 29q38 0 63 -25.5t25 -65.5zM131 428q0 -23 13.5 -37t36.5 -14q25 0 41.5 16.5t16.5 42.5q0 40 -43 40q-29 0 -64 -25q-1 -5 -1 -23z" />
    <glyph glyph-name="seven.numerator" horiz-adv-x="252" 
d="M163 342l-3 -18h-72l3 18q22 104 129 247h-136l12 59h218l-6 -31q-123 -166 -145 -275z" />
    <glyph glyph-name="eight.numerator" horiz-adv-x="301" 
d="M303 419q0 -43 -36 -71.5t-89 -28.5t-84.5 22.5t-31.5 59.5q0 59 74 91q-32 29 -32 68q0 40 31.5 66.5t79.5 26.5q47 0 75.5 -21t28.5 -55q0 -56 -64 -87q48 -29 48 -71zM214 601q-21 0 -34.5 -10.5t-13.5 -26.5q0 -27 44 -50q47 26 47 54q0 33 -43 33zM126 411
q0 -19 14.5 -29.5t39.5 -10.5q26 0 42.5 12.5t16.5 31.5q0 11 -9 20q-8 9 -52 31q-52 -25 -52 -55z" />
    <glyph glyph-name="nine.numerator" horiz-adv-x="289" 
d="M77 529q0 52 36 88t90 36q50 0 82 -31.5t32 -80.5q0 -70 -47.5 -128t-137.5 -97l-23 48q96 44 126 103q-29 -29 -70 -29q-38 0 -63 25.5t-25 65.5zM251 544q0 23 -13.5 37t-36.5 14q-25 0 -41.5 -16.5t-16.5 -42.5q0 -40 43 -40q29 0 64 25q1 5 1 23z" />
    <glyph glyph-name="zero.denominator" horiz-adv-x="344" 
d="M299 192q0 -80 -47 -139q-46 -58 -113 -58q-57 0 -92 37.5t-35 100.5q0 80 46 138q47 59 114 59q57 0 92 -37.5t35 -100.5zM84 136q0 -75 59 -75q36 0 60 38q24 37 24 90q0 75 -59 75q-36 0 -60 -37t-24 -91z" />
    <glyph glyph-name="one.denominator" horiz-adv-x="254" 
d="M134 62h60l-12 -62h-200l12 62h70l39 200h-70l12 62h140z" />
    <glyph glyph-name="two.denominator" horiz-adv-x="286" 
d="M92 62h123l-12 -62h-227l9 48q102 72 144 113q41 41 41 72q0 34 -43 34q-27 0 -75 -20l-17 58q55 24 100 24q49 0 77.5 -23.5t28.5 -63.5q0 -46 -33 -85.5t-116 -94.5z" />
    <glyph glyph-name="three.denominator" horiz-adv-x="288" 
d="M226 102q0 -49 -36.5 -78t-98.5 -29q-54 0 -107 24l28 57q42 -19 81 -19q64 0 64 45q0 35 -43 35h-65l11 58h62q53 0 53 40q0 32 -48 32q-34 0 -71 -15l-12 57q55 20 93 20q52 0 81 -21t29 -60q0 -28 -17 -49.5t-47 -31.5q43 -18 43 -65z" />
    <glyph glyph-name="four.denominator" horiz-adv-x="307" 
d="M215 108h45l-11 -56h-45l-10 -52h-66l10 52h-153l3 43q87 130 193 229h76zM64 108h85l28 142q-63 -68 -113 -142z" />
    <glyph glyph-name="five.denominator" horiz-adv-x="294" 
d="M235 115q0 -53 -38.5 -86.5t-100.5 -33.5q-59 0 -107 25l29 55q35 -17 78 -17q33 0 51.5 13.5t18.5 36.5q0 39 -49 39q-24 0 -63 -15l-25 13l48 179h194l-12 -62h-138l-17 -63q15 7 36 7q41 0 68 -25.5t27 -65.5z" />
    <glyph glyph-name="six.denominator" horiz-adv-x="289" 
d="M242 119q0 -52 -36 -88t-90 -36q-50 0 -82 31.5t-32 80.5q0 70 47.5 128t137.5 97l23 -48q-96 -44 -126 -103q29 29 70 29q38 0 63 -25.5t25 -65.5zM68 104q0 -23 13.5 -37t36.5 -14q25 0 41.5 16.5t16.5 42.5q0 40 -43 40q-29 0 -64 -25q-1 -5 -1 -23z" />
    <glyph glyph-name="seven.denominator" horiz-adv-x="252" 
d="M100 18l-3 -18h-72l3 18q22 104 129 247h-136l12 59h218l-6 -31q-123 -166 -145 -275z" />
    <glyph glyph-name="eight.denominator" horiz-adv-x="301" 
d="M240 95q0 -43 -36 -71.5t-89 -28.5t-84.5 22.5t-31.5 59.5q0 59 74 91q-32 29 -32 68q0 40 31.5 66.5t79.5 26.5q47 0 75.5 -21t28.5 -55q0 -56 -64 -87q48 -29 48 -71zM151 277q-21 0 -34.5 -10.5t-13.5 -26.5q0 -27 44 -50q47 26 47 54q0 33 -43 33zM63 87
q0 -19 14.5 -29.5t39.5 -10.5q26 0 42.5 12.5t16.5 31.5q0 11 -9 20q-8 9 -52 31q-52 -25 -52 -55z" />
    <glyph glyph-name="nine.denominator" horiz-adv-x="289" 
d="M14 205q0 52 36 88t90 36q50 0 82 -31.5t32 -80.5q0 -70 -47.5 -128t-137.5 -97l-23 48q96 44 126 103q-29 -29 -70 -29q-38 0 -63 25.5t-25 65.5zM188 220q0 23 -13.5 37t-36.5 14q-25 0 -41.5 -16.5t-16.5 -42.5q0 -40 43 -40q29 0 64 25q1 5 1 23z" />
    <glyph glyph-name="onefifth" horiz-adv-x="719" 
d="M197 386h60l-12 -62h-200l12 62h70l39 200h-70l12 62h140zM576 648h85l-522 -648h-85zM660 115q0 -53 -38.5 -86.5t-100.5 -33.5q-59 0 -107 25l29 55q35 -17 78 -17q33 0 51.5 13.5t18.5 36.5q0 39 -49 39q-24 0 -63 -15l-25 13l48 179h194l-12 -62h-138l-17 -63
q15 7 36 7q41 0 68 -25.5t27 -65.5z" />
    <glyph glyph-name="onesixth" horiz-adv-x="694" 
d="M197 386h60l-12 -62h-200l12 62h70l39 200h-70l12 62h140zM576 648h85l-522 -648h-85zM647 119q0 -52 -36 -88t-90 -36q-50 0 -82 31.5t-32 80.5q0 70 47.5 128t137.5 97l23 -48q-96 -44 -126 -103q29 29 70 29q38 0 63 -25.5t25 -65.5zM473 104q0 -23 13.5 -37t36.5 -14
q25 0 41.5 16.5t16.5 42.5q0 40 -43 40q-29 0 -64 -25q-1 -5 -1 -23z" />
    <glyph glyph-name="oneseventh" horiz-adv-x="697" 
d="M197 386h60l-12 -62h-200l12 62h70l39 200h-70l12 62h140zM576 648h85l-522 -648h-85zM545 18l-3 -18h-72l3 18q22 104 129 247h-136l12 59h218l-6 -31q-123 -166 -145 -275z" />
    <glyph glyph-name="oneninth" horiz-adv-x="734" 
d="M197 386h60l-12 -62h-200l12 62h70l39 200h-70l12 62h140zM576 648h85l-522 -648h-85zM459 205q0 52 36 88t90 36q50 0 82 -31.5t32 -80.5q0 -70 -47.5 -128t-137.5 -97l-23 48q96 44 126 103q-29 -29 -70 -29q-38 0 -63 25.5t-25 65.5zM633 220q0 23 -13.5 37t-36.5 14
q-25 0 -41.5 -16.5t-16.5 -42.5q0 -40 43 -40q29 0 64 25q1 5 1 23z" />
    <glyph glyph-name="twofifths" horiz-adv-x="751" 
d="M155 386h123l-12 -62h-227l9 48q102 72 144 113q41 41 41 72q0 34 -43 34q-27 0 -75 -20l-17 58q55 24 100 24q49 0 77.5 -23.5t28.5 -63.5q0 -46 -33 -85.5t-116 -94.5zM608 648h85l-522 -648h-85zM692 115q0 -53 -38.5 -86.5t-100.5 -33.5q-59 0 -107 25l29 55
q35 -17 78 -17q33 0 51.5 13.5t18.5 36.5q0 39 -49 39q-24 0 -63 -15l-25 13l48 179h194l-12 -62h-138l-17 -63q15 7 36 7q41 0 68 -25.5t27 -65.5z" />
    <glyph glyph-name="twosevenths" horiz-adv-x="729" 
d="M155 386h123l-12 -62h-227l9 48q102 72 144 113q41 41 41 72q0 34 -43 34q-27 0 -75 -20l-17 58q55 24 100 24q49 0 77.5 -23.5t28.5 -63.5q0 -46 -33 -85.5t-116 -94.5zM608 648h85l-522 -648h-85zM577 18l-3 -18h-72l3 18q22 104 129 247h-136l12 59h218l-6 -31
q-123 -166 -145 -275z" />
    <glyph glyph-name="twoninths" horiz-adv-x="766" 
d="M155 386h123l-12 -62h-227l9 48q102 72 144 113q41 41 41 72q0 34 -43 34q-27 0 -75 -20l-17 58q55 24 100 24q49 0 77.5 -23.5t28.5 -63.5q0 -46 -33 -85.5t-116 -94.5zM608 648h85l-522 -648h-85zM491 205q0 52 36 88t90 36q50 0 82 -31.5t32 -80.5q0 -70 -47.5 -128
t-137.5 -97l-23 48q96 44 126 103q-29 -29 -70 -29q-38 0 -63 25.5t-25 65.5zM665 220q0 23 -13.5 37t-36.5 14q-25 0 -41.5 -16.5t-16.5 -42.5q0 -40 43 -40q29 0 64 25q1 5 1 23z" />
    <glyph glyph-name="threefifths" horiz-adv-x="753" 
d="M289 426q0 -49 -36.5 -78t-98.5 -29q-55 0 -107 24l28 57q42 -19 81 -19q64 0 64 45q0 35 -43 35h-65l11 58h62q53 0 53 40q0 32 -48 32q-34 0 -71 -15l-12 57q55 20 93 20q52 0 81 -21t29 -60q0 -28 -17 -49.5t-47 -31.5q43 -18 43 -65zM610 648h85l-522 -648h-85z
M694 115q0 -53 -38.5 -86.5t-100.5 -33.5q-59 0 -107 25l29 55q35 -17 78 -17q33 0 51.5 13.5t18.5 36.5q0 39 -49 39q-24 0 -63 -15l-25 13l48 179h194l-12 -62h-138l-17 -63q15 7 36 7q41 0 68 -25.5t27 -65.5z" />
    <glyph glyph-name="threesevenths" horiz-adv-x="731" 
d="M289 426q0 -49 -36.5 -78t-98.5 -29q-55 0 -107 24l28 57q42 -19 81 -19q64 0 64 45q0 35 -43 35h-65l11 58h62q53 0 53 40q0 32 -48 32q-34 0 -71 -15l-12 57q55 20 93 20q52 0 81 -21t29 -60q0 -28 -17 -49.5t-47 -31.5q43 -18 43 -65zM610 648h85l-522 -648h-85z
M579 18l-3 -18h-72l3 18q22 104 129 247h-136l12 59h218l-6 -31q-123 -166 -145 -275z" />
    <glyph glyph-name="fourfifths" horiz-adv-x="778" 
d="M278 432h45l-11 -56h-45l-10 -52h-66l10 52h-153l3 43q87 130 193 229h76zM127 432h85l28 142q-63 -68 -113 -142zM635 648h85l-522 -648h-85zM719 115q0 -53 -38.5 -86.5t-100.5 -33.5q-59 0 -107 25l29 55q35 -17 78 -17q33 0 51.5 13.5t18.5 36.5q0 39 -49 39
q-24 0 -63 -15l-25 13l48 179h194l-12 -62h-138l-17 -63q15 7 36 7q41 0 68 -25.5t27 -65.5z" />
    <glyph glyph-name="foursevenths" horiz-adv-x="756" 
d="M278 432h45l-11 -56h-45l-10 -52h-66l10 52h-153l3 43q87 130 193 229h76zM127 432h85l28 142q-63 -68 -113 -142zM635 648h85l-522 -648h-85zM604 18l-3 -18h-72l3 18q22 104 129 247h-136l12 59h218l-6 -31q-123 -166 -145 -275z" />
    <glyph glyph-name="fourninths" horiz-adv-x="793" 
d="M278 432h45l-11 -56h-45l-10 -52h-66l10 52h-153l3 43q87 130 193 229h76zM127 432h85l28 142q-63 -68 -113 -142zM635 648h85l-522 -648h-85zM518 205q0 52 36 88t90 36q50 0 82 -31.5t32 -80.5q0 -70 -47.5 -128t-137.5 -97l-23 48q96 44 126 103q-29 -29 -70 -29
q-38 0 -63 25.5t-25 65.5zM692 220q0 23 -13.5 37t-36.5 14q-25 0 -41.5 -16.5t-16.5 -42.5q0 -40 43 -40q29 0 64 25q1 5 1 23z" />
    <glyph glyph-name="fivesixths" horiz-adv-x="734" 
d="M298 439q0 -53 -38.5 -86.5t-100.5 -33.5q-59 0 -107 25l29 55q35 -17 78 -17q33 0 51.5 13.5t18.5 36.5q0 39 -49 39q-24 0 -63 -15l-25 13l48 179h194l-12 -62h-138l-17 -63q15 7 36 7q41 0 68 -25.5t27 -65.5zM616 648h85l-522 -648h-85zM687 119q0 -52 -36 -88
t-90 -36q-50 0 -82 31.5t-32 80.5q0 70 47.5 128t137.5 97l23 -48q-96 -44 -126 -103q29 29 70 29q38 0 63 -25.5t25 -65.5zM513 104q0 -23 13.5 -37t36.5 -14q25 0 41.5 16.5t16.5 42.5q0 40 -43 40q-29 0 -64 -25q-1 -5 -1 -23z" />
    <glyph glyph-name="fivesevenths" horiz-adv-x="737" 
d="M298 439q0 -53 -38.5 -86.5t-100.5 -33.5q-59 0 -107 25l29 55q35 -17 78 -17q33 0 51.5 13.5t18.5 36.5q0 39 -49 39q-24 0 -63 -15l-25 13l48 179h194l-12 -62h-138l-17 -63q15 7 36 7q41 0 68 -25.5t27 -65.5zM616 648h85l-522 -648h-85zM585 18l-3 -18h-72l3 18
q22 104 129 247h-136l12 59h218l-6 -31q-123 -166 -145 -275z" />
    <glyph glyph-name="fiveninths" horiz-adv-x="774" 
d="M298 439q0 -53 -38.5 -86.5t-100.5 -33.5q-59 0 -107 25l29 55q35 -17 78 -17q33 0 51.5 13.5t18.5 36.5q0 39 -49 39q-24 0 -63 -15l-25 13l48 179h194l-12 -62h-138l-17 -63q15 7 36 7q41 0 68 -25.5t27 -65.5zM616 648h85l-522 -648h-85zM499 205q0 52 36 88t90 36
q50 0 82 -31.5t32 -80.5q0 -70 -47.5 -128t-137.5 -97l-23 48q96 44 126 103q-29 -29 -70 -29q-38 0 -63 25.5t-25 65.5zM673 220q0 23 -13.5 37t-36.5 14q-25 0 -41.5 -16.5t-16.5 -42.5q0 -40 43 -40q29 0 64 25q1 5 1 23z" />
    <glyph glyph-name="sixsevenths" horiz-adv-x="734" 
d="M305 443q0 -52 -36 -88t-90 -36q-50 0 -82 31.5t-32 80.5q0 70 47.5 128t137.5 97l23 -48q-96 -44 -126 -103q29 29 70 29q38 0 63 -25.5t25 -65.5zM131 428q0 -23 13.5 -37t36.5 -14q25 0 41.5 16.5t16.5 42.5q0 40 -43 40q-29 0 -64 -25q-1 -5 -1 -23zM613 648h85
l-522 -648h-85zM582 18l-3 -18h-72l3 18q22 104 129 247h-136l12 59h218l-6 -31q-123 -166 -145 -275z" />
    <glyph glyph-name="sevenninths" horiz-adv-x="732" 
d="M163 342l-3 -18h-72l3 18q22 104 129 247h-136l12 59h218l-6 -31q-123 -166 -145 -275zM574 648h85l-522 -648h-85zM457 205q0 52 36 88t90 36q50 0 82 -31.5t32 -80.5q0 -70 -47.5 -128t-137.5 -97l-23 48q96 44 126 103q-29 -29 -70 -29q-38 0 -63 25.5t-25 65.5z
M631 220q0 23 -13.5 37t-36.5 14q-25 0 -41.5 -16.5t-16.5 -42.5q0 -40 43 -40q29 0 64 25q1 5 1 23z" />
    <glyph glyph-name="eightninths" horiz-adv-x="781" 
d="M303 419q0 -43 -36 -71.5t-89 -28.5t-84.5 22.5t-31.5 59.5q0 59 74 91q-32 29 -32 68q0 40 31.5 66.5t79.5 26.5q47 0 75.5 -21t28.5 -55q0 -56 -64 -87q48 -29 48 -71zM214 601q-21 0 -34.5 -10.5t-13.5 -26.5q0 -27 44 -50q47 26 47 54q0 33 -43 33zM126 411
q0 -19 14.5 -29.5t39.5 -10.5q26 0 42.5 12.5t16.5 31.5q0 11 -9 20q-8 9 -52 31q-52 -25 -52 -55zM623 648h85l-522 -648h-85zM506 205q0 52 36 88t90 36q50 0 82 -31.5t32 -80.5q0 -70 -47.5 -128t-137.5 -97l-23 48q96 44 126 103q-29 -29 -70 -29q-38 0 -63 25.5
t-25 65.5zM680 220q0 23 -13.5 37t-36.5 14q-25 0 -41.5 -16.5t-16.5 -42.5q0 -40 43 -40q29 0 64 25q1 5 1 23z" />
    <glyph glyph-name="at.case" horiz-adv-x="927" 
d="M447 -108q-174 0 -280 100t-106 267q0 90 34.5 175.5t96.5 152.5q132 141 322 141q170 0 277 -95q106 -94 106 -247q0 -110 -59 -190q-33 -46 -77.5 -71.5t-90.5 -25.5q-43 0 -73 19t-41 53q-61 -73 -137 -73q-60 0 -97 42.5t-37 111.5q0 114 63 197t150 83q62 0 106 -42
l6 33h79l-56 -288q-14 -69 46 -69q57 0 98 65q42 66 42 155q0 123 -83 197t-222 74q-163 0 -270 -119q-105 -118 -105 -279q0 -137 85 -216q86 -80 227 -80q103 0 206 49l24 -60q-114 -60 -234 -60zM364 254q0 -87 72 -87q63 0 124 96l31 160q-36 41 -93 41t-96 -63
q-38 -62 -38 -147z" />
    <glyph glyph-name="questiondown.case" horiz-adv-x="438" 
d="M264 595q0 26 17 44t43 18q22 0 36 -13.5t14 -34.5q0 -27 -16.5 -44.5t-42.5 -17.5q-23 0 -37 13.5t-14 34.5zM209 -11q-87 0 -138.5 42t-51.5 113q0 78 49 129t152 81l10 3l25 90h66l-12 -112l-28 -31l-48 -16q-65 -22 -95.5 -54t-30.5 -80q0 -42 27.5 -64.5t79.5 -22.5
q48 0 123 31l23 -71q-78 -38 -151 -38z" />
    <glyph glyph-name="exclamdown.case" horiz-adv-x="260" 
d="M144 596q0 26 17 44t43 18q22 0 36 -13.5t14 -34.5q0 -27 -16.5 -44.5t-42.5 -17.5q-23 0 -37 13.5t-14 34.5zM158 158l-31 -158h-90l31 158l68 290h66z" />
    <glyph glyph-name="parenleft.case" horiz-adv-x="305" 
d="M80 321l2 12q26 160 91.5 274.5t159.5 166.5l18 10l31 -60l-16 -10q-69 -43 -122 -145q-52 -100 -75 -236l-2 -12q-48 -288 49 -383l11 -11l-44 -60l-14 11q-70 57 -93 170.5t4 272.5z" />
    <glyph glyph-name="parenright.case" horiz-adv-x="305" 
d="M256 330l-2 -12q-26 -161 -91.5 -275t-160.5 -166l-18 -10l-31 60l16 10q70 43 123 145q52 102 75 236l2 12q48 287 -50 383l-11 11l44 60l14 -11q70 -57 93.5 -170.5t-3.5 -272.5z" />
    <glyph glyph-name="braceleft.case" horiz-adv-x="324" 
d="M184 -59h55l-14 -70h-42q-68 0 -105.5 30.5t-37.5 85.5q0 24 10 51q12 31 43 90q46 85 46 118q0 41 -46 41h-30l15 77h30q71 0 71 83q0 24 -6 80q-7 71 -7 93q0 72 42 115t113 43h81l-14 -70h-67q-71 0 -71 -88q0 -18 4 -78q5 -61 5 -87q0 -62 -23.5 -92.5t-74.5 -37.5
q60 -12 60 -72q0 -23 -10 -50q-12 -32 -41 -89q-26 -51 -37 -80q-8 -26 -8 -40q0 -53 59 -53z" />
    <glyph glyph-name="braceright.case" horiz-adv-x="324" 
d="M188 29q0 -72 -42 -115t-113 -43h-81l14 70h67q71 0 71 88q0 18 -4 78q-5 61 -5 87q0 62 23.5 92.5t74.5 37.5q-60 12 -60 72q0 22 10 49q13 35 41 90t36 80q9 24 9 40q0 53 -59 53h-55l14 70h42q68 0 105.5 -30.5t37.5 -85.5q0 -24 -10 -51q-12 -31 -43 -90
q-46 -85 -46 -118q0 -41 46 -41h30l-15 -77h-30q-71 0 -71 -83q0 -24 6 -80q7 -71 7 -93z" />
    <glyph glyph-name="bracketleft.case" horiz-adv-x="294" 
d="M211 -54l-14 -70h-179l175 897h179l-14 -70h-95l-147 -757h95z" />
    <glyph glyph-name="bracketright.case" horiz-adv-x="294" 
d="M307 773l-175 -897h-179l14 70h95l147 757h-95l14 70h179z" />
    <glyph glyph-name="hyphen.case" horiz-adv-x="420" 
d="M66 376h290l-14 -74h-290z" />
    <glyph glyph-name="endash.case" horiz-adv-x="500" 
d="M66 376h370l-14 -74h-370z" />
    <glyph glyph-name="emdash.case" horiz-adv-x="1000" 
d="M66 376h870l-14 -74h-870z" />
    <glyph glyph-name="brokenbar.case" horiz-adv-x="269" 
d="M160 748h89l-73 -374h-89zM72 294h89l-73 -374h-89z" />
    <glyph glyph-name="bar.case" horiz-adv-x="269" 
d="M160 748h89l-161 -828h-89z" />
    <glyph glyph-name="guillemotleft.case" horiz-adv-x="545" 
d="M362 330l125 -97l-18 -93l-181 149l17 88l239 149l-20 -100zM129 329l133 -97l-18 -92l-191 149l17 88l249 149l-19 -101z" />
    <glyph glyph-name="guillemotright.case" horiz-adv-x="545" 
d="M290 377l-17 -88l-239 -149l20 100l162 96l-125 97l18 93zM525 377l-17 -88l-249 -149l19 101l171 96l-133 97l18 92z" />
    <glyph glyph-name="guilsinglleft.case" horiz-adv-x="320" 
d="M129 329l133 -97l-18 -92l-191 149l17 88l249 149l-19 -101z" />
    <glyph glyph-name="guilsinglright.case" horiz-adv-x="321" 
d="M303 386l-17 -88l-249 -149l19 101l171 96l-133 97l18 92z" />
    </font>
</defs>
</svg>
