<?xml version="1.0" standalone="no"?>
<!DOCTYPE svg PUBLIC "-//W3C//DTD SVG 1.1//EN" "http://www.w3.org/Graphics/SVG/1.1/DTD/svg11.dtd" >
<svg xmlns="http://www.w3.org/2000/svg" xmlns:xlink="http://www.w3.org/1999/xlink" version="1.1">
<metadata>
Created by FontForge 20170731 at Fri Oct 21 00:49:32 2016
 By Aleksey,,,
Copyright 2016 BlackFoundry
</metadata>
<defs>
<font id="Drive-MediumItalic" horiz-adv-x="561" >
  <font-face 
    font-family="Drive Medium Italic"
    font-weight="500"
    font-style="italic"
    font-stretch="normal"
    units-per-em="1000"
    panose-1="2 11 7 3 3 5 0 2 0 4"
    ascent="772"
    descent="-228"
    x-height="499"
    cap-height="648"
    bbox="-206 -223 1063 906"
    underline-thickness="45"
    underline-position="-200"
    slope="-11"
    unicode-range="U+000D-FB02"
  />
<missing-glyph horiz-adv-x="662" 
d="M655 648l-126 -648h-494l126 648h494zM261 539l-84 -431h251l84 431h-251z" />
    <glyph glyph-name="fi" unicode="fi" horiz-adv-x="628" 
d="M269 499h129l-19 -95h-128l-79 -404h-119l78 404h-83l15 76l86 19l3 13q35 176 213 176q48 0 92 -14l-35 -89q-32 8 -58 8q-42 0 -63 -19t-30 -65zM497 620q0 33 21 54t55 21q30 0 47.5 -16.5t17.5 -43.5q0 -32 -21.5 -53t-55.5 -21q-29 0 -46.5 16.5t-17.5 42.5zM386 0
l97 499h119l-97 -499h-119z" />
    <glyph glyph-name="fl" unicode="fl" horiz-adv-x="628" 
d="M269 499h129l-19 -95h-128l-79 -404h-119l78 404h-83l15 76l86 19l3 13q35 176 213 176q48 0 92 -14l-35 -89q-32 8 -58 8q-42 0 -63 -19t-30 -65zM386 0l131 678h120l-132 -678h-119z" />
    <glyph glyph-name=".notdef" horiz-adv-x="662" 
d="M655 648l-126 -648h-494l126 648h494zM261 539l-84 -431h251l84 431h-251z" />
    <glyph glyph-name=".null" horiz-adv-x="0" 
 />
    <glyph glyph-name="nonmarkingreturn" horiz-adv-x="333" 
 />
    <glyph glyph-name="NULL" horiz-adv-x="0" 
 />
    <glyph glyph-name="NULL" horiz-adv-x="0" 
 />
    <glyph glyph-name="CR" unicode="&#xd;" horiz-adv-x="0" 
 />
    <glyph glyph-name="space" unicode=" " horiz-adv-x="175" 
 />
    <glyph glyph-name="exclam" unicode="!" horiz-adv-x="286" 
d="M122 467l35 181h125l-35 -181l-71 -261h-84zM175 64q0 -32 -21 -53t-54 -21q-29 0 -47 16.5t-18 43.5q0 32 21 53.5t54 21.5q30 0 47.5 -16.5t17.5 -44.5z" />
    <glyph glyph-name="quotedbl" unicode="&#x22;" horiz-adv-x="413" 
d="M250 648l-19 -98l-44 -136h-81l8 136l19 98h117zM434 648l-19 -98l-45 -136h-81l8 136l20 98h117z" />
    <glyph glyph-name="numbersign" unicode="#" horiz-adv-x="670" 
d="M305 399l-45 -130h130l45 130h-130zM464 169l-59 -169h-109l59 169h-130l-59 -169h-109l59 169h-94l19 100h110l45 130h-110l20 100h125l52 149h109l-52 -149h130l52 149h109l-52 -149h102l-20 -100h-117l-45 -130h117l-19 -100h-133z" />
    <glyph glyph-name="dollar" unicode="$" horiz-adv-x="497" 
d="M257 -7l-16 -82h-108l16 85q-88 14 -156 65l60 93q82 -60 168 -60q46 0 73 22t27 58q0 26 -18 49q-15 22 -77 64q-81 53 -106 92q-25 40 -25 89q0 72 50 125q49 53 132 63l16 81h109l-17 -85q71 -13 131 -56l-60 -92q-70 49 -146 49q-44 0 -69 -20.5t-25 -55.5
q0 -24 16 -44q17 -22 75 -59q80 -54 109 -97q27 -41 27 -92q0 -77 -50.5 -129t-135.5 -63z" />
    <glyph glyph-name="percent" unicode="%" horiz-adv-x="754" 
d="M376 522q0 -80 -49 -135q-48 -55 -120 -55q-61 0 -98.5 36.5t-37.5 98.5q0 80 49 135q50 56 121 56q60 0 97.5 -37t37.5 -99zM601 648h107l-527 -648h-107zM164 471q0 -65 47 -65q30 0 51 32.5t21 79.5q0 65 -48 65q-30 0 -50.5 -32.5t-20.5 -79.5zM406 125q0 80 49 135
q50 56 120 56q61 0 98.5 -37t37.5 -99q0 -80 -49 -135t-121 -55q-61 0 -98 36.5t-37 98.5zM618 176q0 65 -48 65q-30 0 -50.5 -32.5t-20.5 -79.5q0 -65 47 -65q30 0 51 32.5t21 79.5z" />
    <glyph glyph-name="ampersand" unicode="&#x26;" horiz-adv-x="632" 
d="M570 213q0 -97 -80 -160t-207 -63q-114 0 -185 53q-70 54 -70 141q0 67 48 116q49 51 128 64q-37 18 -57.5 50t-20.5 71q0 77 62 125q63 48 168 48q92 0 164 -30l-46 -99q-63 22 -124 22q-49 0 -76 -20.5t-27 -57.5q0 -34 24 -52.5t68 -18.5h29l-20 -101h-67
q-59 0 -94 -28.5t-35 -74.5q0 -48 37 -75t103 -27q76 0 120.5 35.5t44.5 95.5q0 50 -34 81l37 73h192l-19 -96h-84q21 -29 21 -72z" />
    <glyph glyph-name="quotesingle" unicode="'" horiz-adv-x="230" 
d="M250 648l-19 -98l-44 -136h-81l8 136l19 98h117z" />
    <glyph glyph-name="parenleft" unicode="(" horiz-adv-x="316" 
d="M49 250l2 15q54 330 268 456l18 10l46 -82l-16 -11q-158 -108 -200 -373l-2 -15q-22 -137 -9 -225.5t64 -144.5l12 -12l-61 -81l-14 11q-160 130 -108 452z" />
    <glyph glyph-name="parenright" unicode=")" horiz-adv-x="316" 
d="M270 266l-2 -15q-52 -325 -268 -455l-18 -10l-46 82l16 11q158 108 200 372l2 15q22 137 9 226t-65 145l-11 12l60 81l14 -11q162 -132 109 -453z" />
    <glyph glyph-name="asterisk" unicode="*" horiz-adv-x="412" 
d="M333 415l34 -63l-82 -52l-33 61l-14 42l-27 -41l-57 -63l-66 58l53 58l42 34l-47 7l-67 24l45 89l67 -24l39 -23l2 50l14 76h94l-15 -76l-19 -50l45 22l76 24l14 -88l-77 -24l-50 -7z" />
    <glyph glyph-name="plus" unicode="+" horiz-adv-x="438" 
d="M293 356h135l-20 -102h-135l-27 -142h-109l27 142h-134l20 102h134l26 134h109z" />
    <glyph glyph-name="comma" unicode="," horiz-adv-x="247" 
d="M154 57q0 -57 -33 -111t-94 -97l-39 47q57 46 73 96q-22 5 -34.5 20.5t-12.5 37.5q0 32 21 53.5t53 21.5q30 0 48 -18.5t18 -49.5z" />
    <glyph glyph-name="hyphen" unicode="-" horiz-adv-x="420" 
d="M79 325h290l-20 -102h-290z" />
    <glyph glyph-name="period" unicode="." horiz-adv-x="247" 
d="M156 64q0 -32 -21 -53t-54 -21q-29 0 -47 16.5t-18 43.5q0 32 21 53.5t54 21.5q30 0 47.5 -16.5t17.5 -44.5z" />
    <glyph glyph-name="slash" unicode="/" horiz-adv-x="458" 
d="M409 738h124l-456 -828h-123z" />
    <glyph glyph-name="zero" unicode="0" horiz-adv-x="604" 
d="M502 139q-43 -72 -103.5 -110.5t-129.5 -38.5q-98 0 -155.5 64.5t-57.5 176.5q0 157 73 277q92 150 233 150q99 0 156.5 -65t57.5 -177q0 -158 -74 -277zM183 236q0 -141 90 -141q71 0 123 96q53 98 53 219q0 143 -90 143q-72 0 -124 -97t-52 -220z" />
    <glyph glyph-name="one" unicode="1" horiz-adv-x="401" 
d="M246 101h112l-20 -101h-354l19 101h123l86 446h-122l19 101h243z" />
    <glyph glyph-name="two" unicode="2" horiz-adv-x="484" 
d="M166 101h248l-19 -101h-408l16 85q121 97 202 173q75 71 106.5 120t31.5 97q0 36 -23.5 56t-66.5 20q-58 0 -132 -30l-17 99q94 38 174 38q91 0 143.5 -44t52.5 -120q0 -89 -71 -178q-72 -90 -237 -215z" />
    <glyph glyph-name="three" unicode="3" horiz-adv-x="497" 
d="M439 199q0 -93 -73 -151t-192 -58q-104 0 -187 42l47 94q69 -34 142 -34q65 0 102.5 30t37.5 82q0 37 -26 57t-75 20h-95l20 103h90q56 0 89 27t33 71q0 35 -26.5 54.5t-74.5 19.5q-51 0 -126 -26l-14 95q82 33 165 33q94 0 147.5 -42t53.5 -116q0 -57 -36 -101.5
t-100 -65.5q98 -36 98 -134z" />
    <glyph glyph-name="four" unicode="4" horiz-adv-x="551" 
d="M434 225h90l-19 -97h-90l-25 -128h-115l25 128h-292l2 74q70 104 175 228q98 117 202 218h129zM137 225h182l57 295q-131 -140 -239 -295z" />
    <glyph glyph-name="five" unicode="5" horiz-adv-x="511" 
d="M460 225q0 -108 -75 -172q-73 -63 -200 -63q-108 0 -188 37l48 95q67 -30 138 -30q72 0 113.5 32.5t41.5 90.5q0 90 -110 90q-43 0 -103 -20l-43 31l86 332h348l-20 -101h-250l-39 -152q26 9 59 9q87 0 140 -50q54 -50 54 -129z" />
    <glyph glyph-name="six" unicode="6" horiz-adv-x="530" 
d="M492 227q0 -97 -69 -168q-69 -69 -170 -69q-96 0 -155 62q-58 61 -58 165q0 141 96 259q97 119 270 188l38 -87q-201 -78 -262 -226q63 57 137 57q76 0 124 -51q49 -49 49 -130zM157 213q0 -128 98 -128q51 0 85.5 38.5t34.5 96.5q0 43 -24 67.5t-67 24.5q-67 0 -126 -73
q-1 -7 -1 -26z" />
    <glyph glyph-name="seven" unicode="7" horiz-adv-x="456" 
d="M218 16l-3 -16h-127l3 15q26 131 88 247q66 121 193 285h-296l19 101h417l-16 -82q-125 -166 -189 -289q-64 -126 -89 -261z" />
    <glyph glyph-name="eight" unicode="8" horiz-adv-x="553" 
d="M496 186q0 -85 -70 -140q-70 -56 -177 -56q-99 0 -161 46q-63 47 -63 119q0 60 42 107t122 74q-78 59 -78 140q0 76 63 129q64 53 157 53q91 0 147 -42t56 -109q0 -105 -138 -170q100 -61 100 -151zM331 569q-46 0 -73.5 -24t-27.5 -64q0 -28 20.5 -51.5t73.5 -52.5
q51 28 73 55.5t22 62.5t-23 54.5t-65 19.5zM143 166q0 -41 29.5 -64.5t80.5 -23.5q54 0 89 28t35 71q0 39 -45 72l-19 13q-11 8 -57 33q-113 -53 -113 -129z" />
    <glyph glyph-name="nine" unicode="9" horiz-adv-x="530" 
d="M66 421q0 98 69 167q69 70 170 70q95 0 154 -62t59 -165q0 -141 -96 -259q-97 -119 -270 -188l-38 87q201 78 262 226q-63 -57 -137 -57q-75 0 -125 50q-48 51 -48 131zM401 435q0 128 -98 128q-51 0 -85.5 -38.5t-34.5 -96.5q0 -43 24 -67.5t67 -24.5q67 0 126 73
q1 7 1 26z" />
    <glyph glyph-name="colon" unicode=":" horiz-adv-x="247" 
d="M156 64q0 -32 -21 -53t-54 -21q-29 0 -47 16.5t-18 43.5q0 32 21 53.5t54 21.5q30 0 47.5 -16.5t17.5 -44.5zM230 447q0 -32 -21 -53t-54 -21q-29 0 -47 16.5t-18 43.5q0 32 21 53.5t54 21.5q30 0 47.5 -16.5t17.5 -44.5z" />
    <glyph glyph-name="semicolon" unicode=";" horiz-adv-x="247" 
d="M154 57q0 -57 -33 -111t-94 -97l-39 47q57 46 73 96q-22 5 -34.5 20.5t-12.5 37.5q0 32 21 53.5t53 21.5q30 0 48 -18.5t18 -49.5zM230 447q0 -32 -21 -53t-54 -21q-29 0 -47 16.5t-18 43.5q0 32 21 53.5t54 21.5q30 0 47.5 -16.5t17.5 -44.5z" />
    <glyph glyph-name="less" unicode="&#x3c;" horiz-adv-x="438" 
d="M146 313l242 -113l-24 -122l-335 179l23 119l405 179l-26 -130z" />
    <glyph glyph-name="equal" unicode="=" horiz-adv-x="438" 
d="M71 465h378l-20 -102h-378zM33 269h378l-20 -102h-378z" />
    <glyph glyph-name="greater" unicode="&#x3e;" horiz-adv-x="438" 
d="M317 321l-242 113l24 122l335 -179l-23 -119l-405 -179l26 130z" />
    <glyph glyph-name="question" unicode="?" horiz-adv-x="442" 
d="M256 295l-3 -1l-27 -88h-85l10 113l34 41l44 13q107 35 107 111q0 73 -91 73q-53 0 -124 -32l-19 95q78 38 160 38q90 0 142 -42.5t52 -114.5q0 -154 -200 -206zM223 64q0 -32 -21 -53t-54 -21q-29 0 -47 16.5t-18 43.5q0 32 21 53.5t54 21.5q30 0 47.5 -16.5t17.5 -44.5
z" />
    <glyph glyph-name="at" unicode="@" horiz-adv-x="910" 
d="M430 -178q-178 0 -284 100t-106 267q0 193 130 329q129 140 321 140q170 0 276 -97q107 -96 107 -250q0 -117 -69 -200q-69 -82 -162 -82q-43 0 -74.5 18t-43.5 51q-55 -71 -126 -71q-61 0 -98.5 43.5t-37.5 117.5q0 114 60 193q62 80 147 80q59 0 101 -39l6 31h95
l-54 -279q-12 -60 40 -60q50 0 86 57t36 139q0 120 -79 190q-77 70 -210 70q-154 0 -254 -109q-101 -109 -101 -269q0 -131 81 -206q80 -76 220 -76q101 0 203 44l25 -77q-114 -55 -235 -55zM363 191q0 -76 62 -76q52 0 99 74l29 153q-34 34 -77 34q-50 0 -81 -54
q-32 -55 -32 -131z" />
    <glyph glyph-name="A" unicode="A" horiz-adv-x="574" 
d="M348 564l-141 -306h164zM450 648l60 -648h-120l-11 152h-221l-71 -152h-120l311 648h172z" />
    <glyph glyph-name="B" unicode="B" horiz-adv-x="601" 
d="M290 0h-255l126 648h214q93 0 146 -40.5t53 -111.5q0 -55 -35 -98t-96 -62q103 -32 103 -129q0 -91 -71 -150q-71 -57 -185 -57zM449 476q0 71 -92 71h-95l-32 -165h106q51 0 82 26t31 68zM421 205q0 80 -108 80h-102l-36 -185h113q60 0 96.5 28.5t36.5 76.5z" />
    <glyph glyph-name="C" unicode="C" horiz-adv-x="526" 
d="M302 -10q-114 0 -180.5 69.5t-66.5 191.5q0 173 93 290t235 117q105 0 182 -57l-66 -94q-61 41 -121 41q-82 0 -139 -87t-57 -209q0 -75 33 -114t95 -39q55 0 130 39l35 -93q-87 -55 -173 -55z" />
    <glyph glyph-name="D" unicode="D" horiz-adv-x="626" 
d="M278 0h-243l126 648h197q111 0 175 -70q65 -71 65 -187q0 -161 -93 -276t-227 -115zM471 391q0 74 -30.5 113t-88.5 39h-90l-86 -439h106q78 0 133 87q56 89 56 200z" />
    <glyph glyph-name="E" unicode="E" horiz-adv-x="513" 
d="M436 103l-20 -103h-381l126 648h381l-20 -103h-260l-32 -164h222l-20 -103h-222l-34 -175h260z" />
    <glyph glyph-name="F" unicode="F" horiz-adv-x="497" 
d="M227 367h222l-20 -103h-222l-51 -264h-121l126 648h381l-20 -103h-260z" />
    <glyph glyph-name="G" unicode="G" horiz-adv-x="575" 
d="M422 318h112l-53 -277q-83 -51 -177 -51q-114 0 -182 69q-67 70 -67 192q0 173 94 289q94 118 235 118q105 0 189 -59l-66 -94q-60 43 -126 43q-83 0 -141 -87q-58 -86 -58 -209q0 -75 33.5 -114t97.5 -39q33 0 69 12z" />
    <glyph glyph-name="H" unicode="H" horiz-adv-x="662" 
d="M655 648l-126 -648h-122l55 281h-251l-55 -281h-121l126 648h121l-50 -258h251l50 258h122z" />
    <glyph glyph-name="I" unicode="I" horiz-adv-x="289" 
d="M161 648h121l-126 -648h-121z" />
    <glyph glyph-name="J" unicode="J" horiz-adv-x="289" 
d="M49 71l112 577h121l-112 -575q-18 -95 -60 -153q-40 -58 -136 -125l-59 81q65 52 94 93q28 40 40 102z" />
    <glyph glyph-name="K" unicode="K" horiz-adv-x="595" 
d="M396 374l143 -374h-130l-109 288l-110 -115l-34 -173h-121l126 648h121l-60 -308l291 308h138z" />
    <glyph glyph-name="L" unicode="L" horiz-adv-x="488" 
d="M439 103l-20 -103h-384l126 648h121l-106 -545h263z" />
    <glyph glyph-name="M" unicode="M" horiz-adv-x="775" 
d="M624 486l-202 -306h-97l-84 306l-94 -486h-112l126 648h134l96 -351l228 351h149l-126 -648h-113z" />
    <glyph glyph-name="N" unicode="N" horiz-adv-x="658" 
d="M651 648l-126 -648h-152l-131 495l-96 -495h-111l126 648h150l132 -497l96 497h112z" />
    <glyph glyph-name="O" unicode="O" horiz-adv-x="642" 
d="M531 125q-93 -135 -235 -135q-110 0 -174 72q-65 73 -65 193q0 149 82 267q93 136 235 136q110 0 174 -73q65 -73 65 -193q0 -149 -82 -267zM184 253q0 -75 29.5 -114.5t84.5 -39.5q76 0 132 89q56 91 56 206q0 154 -114 154q-78 0 -133 -90q-55 -88 -55 -205z" />
    <glyph glyph-name="P" unicode="P" horiz-adv-x="567" 
d="M578 464q0 -100 -72 -164q-72 -63 -188 -63h-116l-46 -237h-121l126 648h205q94 0 153 -50t59 -134zM454 458q0 42 -24.5 64.5t-68.5 22.5h-99l-40 -205h99q60 0 96.5 32.5t36.5 85.5z" />
    <glyph glyph-name="Q" unicode="Q" horiz-adv-x="642" 
d="M448 40l54 -103l-106 -57l-57 114q-17 -4 -43 -4q-110 0 -174 72q-65 73 -65 193q0 149 82 267q94 136 235 136q110 0 174 -73q65 -73 65 -193q0 -107 -45 -203q-45 -95 -120 -149zM184 253q0 -75 29.5 -114.5t84.5 -39.5q76 0 132 89q56 91 56 206q0 154 -114 154
q-78 0 -133 -90q-55 -88 -55 -205z" />
    <glyph glyph-name="R" unicode="R" horiz-adv-x="594" 
d="M457 463q0 82 -98 82h-97l-37 -190h111q55 0 88 29.5t33 78.5zM427 271l90 -271h-127l-77 252h-108l-49 -252h-121l126 648h210q96 0 153 -47.5t57 -128.5q0 -72 -41 -125.5t-113 -75.5z" />
    <glyph glyph-name="S" unicode="S" horiz-adv-x="497" 
d="M443 186q0 -86 -62 -142q-61 -54 -163 -54q-130 0 -225 73l60 93q85 -62 168 -62q46 0 73 22t27 58q0 26 -18 49q-16 23 -77 63q-81 53 -106 92q-25 38 -25 88q0 84 61 138q62 54 158 54q116 0 202 -62l-60 -92q-74 49 -146 49q-43 0 -68.5 -21t-25.5 -56q0 -22 17 -44
q16 -20 74 -60q82 -55 109 -96q27 -40 27 -90z" />
    <glyph glyph-name="T" unicode="T" horiz-adv-x="498" 
d="M92 648h468l-20 -103h-174l-106 -545h-121l106 545h-174z" />
    <glyph glyph-name="U" unicode="U" horiz-adv-x="619" 
d="M292 96q108 0 132 126l83 426h117l-83 -426q-21 -113 -87 -172.5t-169 -59.5q-113 0 -175 69q-61 70 -42 173l81 416h121l-81 -421q-12 -60 16 -95.5t87 -35.5z" />
    <glyph glyph-name="V" unicode="V" horiz-adv-x="574" 
d="M512 648h124l-312 -648h-172l-60 648h122l40 -557z" />
    <glyph glyph-name="W" unicode="W" horiz-adv-x="868" 
d="M923 648l-282 -648h-157l-33 338l-166 -338h-157l-30 648h119l13 -548l203 416l-13 132h117l41 -545l225 545h120z" />
    <glyph glyph-name="X" unicode="X" horiz-adv-x="533" 
d="M348 325l120 -325h-125l-82 228l-161 -228h-128l240 331l-120 317h125l81 -226l160 226h129z" />
    <glyph glyph-name="Y" unicode="Y" horiz-adv-x="532" 
d="M606 648l-280 -405l-47 -243h-122l47 243l-125 405h122l82 -293l196 293h127z" />
    <glyph glyph-name="Z" unicode="Z" horiz-adv-x="489" 
d="M157 100h270l-20 -100h-422l14 70l356 477h-259l19 101h413l-13 -71z" />
    <glyph glyph-name="bracketleft" unicode="[" horiz-adv-x="314" 
d="M222 -104l-18 -93h-207l177 911h207l-18 -93h-95l-142 -725h96z" />
    <glyph glyph-name="backslash" unicode="\" horiz-adv-x="458" 
d="M230 738l142 -828h-116l-142 828h116z" />
    <glyph glyph-name="bracketright" unicode="]" horiz-adv-x="314" 
d="M320 714l-178 -911h-206l18 93h94l142 725h-96l18 93h208z" />
    <glyph glyph-name="asciicircum" unicode="^" horiz-adv-x="438" 
d="M343 549l53 -430h-113l-30 301l-139 -301h-124l220 430h133z" />
    <glyph glyph-name="underscore" unicode="_" horiz-adv-x="420" 
d="M-33 -52h369l-19 -92h-369z" />
    <glyph glyph-name="grave" unicode="`" horiz-adv-x="500" 
d="M253 551l-108 97l80 65l136 -162h-108z" />
    <glyph glyph-name="a" unicode="a" 
d="M163 185q0 -90 74 -90q62 0 120 91l35 182q-41 41 -94 41q-59 0 -97 -65t-38 -159zM536 499l-97 -499h-115l13 64q-58 -74 -135 -74q-72 0 -116 52.5t-44 139.5q0 137 71 232t176 95q77 0 125 -48l7 38h115z" />
    <glyph glyph-name="b" unicode="b" horiz-adv-x="559" 
d="M516 316q0 -141 -73 -233q-72 -93 -184 -93q-126 0 -224 72l119 616h119l-46 -235q59 66 130 66q70 0 114.5 -53t44.5 -140zM260 90q61 0 98 64q38 65 38 159q0 90 -75 90q-63 0 -119 -89l-38 -196q40 -28 96 -28z" />
    <glyph glyph-name="c" unicode="c" horiz-adv-x="449" 
d="M248 -10q-94 0 -149.5 56.5t-55.5 154.5q0 135 73 221q74 87 193 87q83 0 150 -39l-53 -93q-47 27 -100 27q-64 0 -103 -56t-39 -144q0 -108 101 -108q46 0 99 23l20 -93q-63 -36 -136 -36z" />
    <glyph glyph-name="d" unicode="d" 
d="M163 185q0 -90 74 -90q62 0 120 91l35 182q-41 41 -94 41q-59 0 -97 -65t-38 -159zM571 678l-132 -678h-115l13 63q-57 -73 -135 -73q-72 0 -116 52.5t-44 139.5q0 137 71 232t176 95q72 0 122 -45l41 214h119z" />
    <glyph glyph-name="e" unicode="e" horiz-adv-x="516" 
d="M401 123l26 -86q-79 -47 -166 -47q-102 0 -161 57.5t-59 158.5q0 126 75 214q75 89 182 89q85 0 135.5 -49t50.5 -130q0 -40 -14 -80l-39 -38h-272v-6q0 -116 115 -116q60 0 127 33zM376 319q3 46 -18 70.5t-64 24.5q-41 0 -73.5 -31t-48.5 -84h202q0 4 0.5 7.5t1 5.5
t0.5 4v3z" />
    <glyph glyph-name="f" unicode="f" horiz-adv-x="362" 
d="M269 499h129l-19 -95h-128l-79 -404h-119l78 404h-83l15 76l86 19l3 13q35 176 213 176q48 0 92 -14l-35 -89q-32 8 -58 8q-42 0 -63 -19t-30 -65z" />
    <glyph glyph-name="g" unicode="g" 
d="M163 190q0 -88 74 -88q62 0 121 88l34 178q-41 41 -94 41q-60 0 -97 -64q-38 -64 -38 -155zM180 -205q-101 0 -175 45l46 93q60 -37 131 -37q121 0 145 118l12 55q-60 -72 -135 -72q-73 0 -117.5 52t-44.5 138q0 135 71 229q70 93 176 93q77 0 125 -48l7 38h115l-94 -485
q-43 -219 -262 -219z" />
    <glyph glyph-name="h" unicode="h" horiz-adv-x="564" 
d="M336 400q-54 0 -129 -70l-64 -330h-119l132 678h119l-47 -242q82 73 153 73q73 0 109 -51.5t20 -135.5l-63 -322h-120l63 319q14 81 -54 81z" />
    <glyph glyph-name="i" unicode="i" horiz-adv-x="265" 
d="M135 620q0 33 21 54t55 21q30 0 47.5 -16.5t17.5 -43.5q0 -32 -21.5 -53t-55.5 -21q-29 0 -46.5 16.5t-17.5 42.5zM24 0l97 499h119l-97 -499h-119z" />
    <glyph glyph-name="j" unicode="j" horiz-adv-x="265" 
d="M134 620q0 33 21.5 54t55.5 21q29 0 47 -16.5t18 -43.5q0 -33 -21.5 -53.5t-56.5 -20.5q-29 0 -46.5 16.5t-17.5 42.5zM39 76l82 423h119l-81 -417q-19 -98 -62 -161q-42 -61 -135 -126l-62 83q69 50 97 92q28 40 42 106z" />
    <glyph glyph-name="k" unicode="k" horiz-adv-x="520" 
d="M354 300l106 -300h-123l-78 225l-89 -86l-27 -139h-119l131 678h120l-78 -400l224 221h132z" />
    <glyph glyph-name="l" unicode="l" horiz-adv-x="265" 
d="M24 0l131 678h120l-132 -678h-119z" />
    <glyph glyph-name="m" unicode="m" horiz-adv-x="847" 
d="M326 400q-46 0 -117 -63l-66 -337h-119l97 499h114l-12 -67q80 77 148 77q46 0 78.5 -22t46.5 -62q88 84 169 84q73 0 109 -52t19 -135l-63 -322h-119l63 319q14 81 -54 81q-45 0 -118 -64q0 -1 -0.5 -3t-1 -5t-0.5 -6l-63 -322h-120l63 319q14 81 -54 81z" />
    <glyph glyph-name="n" unicode="n" horiz-adv-x="564" 
d="M336 400q-54 0 -129 -70l-64 -330h-119l97 499h114l-13 -68q84 78 159 78q73 0 109 -51.5t20 -135.5l-63 -322h-120l63 319q14 81 -54 81z" />
    <glyph glyph-name="o" unicode="o" horiz-adv-x="533" 
d="M489 299q0 -127 -72 -219q-72 -90 -177 -90q-90 0 -144 57q-54 59 -54 153q0 127 71 218q72 91 178 91q90 0 144 -58q54 -57 54 -152zM163 201q0 -111 79 -111q53 0 89 60q37 61 37 147q0 111 -79 111q-53 0 -90 -60q-36 -60 -36 -147z" />
    <glyph glyph-name="p" unicode="p" 
d="M262 90q60 0 97 64q38 65 38 159q0 90 -75 90q-62 0 -117 -87l-37 -187q39 -39 94 -39zM517 316q0 -137 -71 -232q-70 -94 -176 -94q-70 0 -120 44l-45 -229h-118l134 694h114l-12 -63q57 73 135 73q70 0 114.5 -53t44.5 -140z" />
    <glyph glyph-name="q" unicode="q" horiz-adv-x="560" 
d="M421 499h115l-135 -694h-119l49 251q-57 -66 -129 -66t-116 52.5t-44 139.5q0 137 71 232t176 95q77 0 125 -48zM163 185q0 -90 74 -90q63 0 119 90l36 183q-41 41 -94 41q-59 0 -97 -65t-38 -159z" />
    <glyph glyph-name="r" unicode="r" horiz-adv-x="369" 
d="M208 330l-65 -330h-119l97 499h114l-13 -73q47 44 88.5 63.5t89.5 19.5l-23 -116q-53 -2 -91 -16.5t-78 -46.5z" />
    <glyph glyph-name="s" unicode="s" horiz-adv-x="437" 
d="M378 154q0 -72 -54 -119q-52 -45 -140 -45q-110 0 -189 61l56 89q67 -52 139 -52q34 0 53 14t19 39q0 16 -14 29.5t-57 36.5q-71 37 -96 70q-24 33 -24 75q0 69 51.5 113t135.5 44q98 0 174 -54l-56 -88q-61 43 -123 43q-31 0 -48.5 -13t-17.5 -35q0 -16 14 -30t58 -37
q73 -38 95 -69q24 -32 24 -72z" />
    <glyph glyph-name="t" unicode="t" horiz-adv-x="402" 
d="M331 111l9 -93q-59 -28 -121 -28q-78 0 -115.5 47t-21.5 127l46 240h-83l15 76l92 19l56 120h80l-23 -120h148l-18 -95h-149l-47 -240q-7 -37 5.5 -53t48.5 -16t78 16z" />
    <glyph glyph-name="u" unicode="u" horiz-adv-x="558" 
d="M532 499l-96 -499h-115l13 68q-82 -78 -158 -78q-72 0 -106 51.5t-17 135.5l62 322h119l-62 -320q-8 -39 5.5 -60t44.5 -21q51 0 127 70l64 331h119z" />
    <glyph glyph-name="v" unicode="v" horiz-adv-x="502" 
d="M536 499l-256 -499h-155l-63 499h121l34 -414l194 414h125z" />
    <glyph glyph-name="w" unicode="w" horiz-adv-x="749" 
d="M377 269l-133 -269h-142l-35 499h117l8 -416l168 339l-8 77h111l26 -416l170 416h118l-229 -499h-142z" />
    <glyph glyph-name="x" unicode="x" horiz-adv-x="467" 
d="M297 253l107 -253h-118l-71 173l-125 -173h-124l202 257l-103 242h118l66 -164l123 164h125z" />
    <glyph glyph-name="y" unicode="y" horiz-adv-x="498" 
d="M408 499h121l-337 -694h-119l100 195h-61l-48 499h120l26 -427z" />
    <glyph glyph-name="z" unicode="z" horiz-adv-x="431" 
d="M154 96h215l-19 -96h-363l13 70l275 333h-205l18 96h354l-14 -71z" />
    <glyph glyph-name="braceleft" unicode="{" horiz-adv-x="331" 
d="M187 -110h51l-18 -93h-46q-72 0 -113 32t-41 88q0 23 9 51q13 34 41 87q42 83 42 113q0 41 -46 41h-29l20 100h28q71 0 71 79q0 20 -5 74q-5 59 -5 87q0 80 47.5 126t130.5 46h76l-18 -93h-58q-69 0 -69 -83q0 -29 3 -72q4 -44 4 -79q0 -122 -101 -135q61 -14 61 -77
q0 -20 -9 -49q-8 -26 -38 -87q-41 -81 -41 -112q0 -44 53 -44z" />
    <glyph glyph-name="bar" unicode="|" horiz-adv-x="301" 
d="M172 678h122l-161 -828h-122z" />
    <glyph glyph-name="braceright" unicode="}" horiz-adv-x="331" 
d="M188 -31q0 -80 -47.5 -126t-130.5 -46h-75l18 93h57q68 0 68 83q0 30 -3 70q-3 45 -3 80q0 122 101 135q-61 14 -61 77q0 21 9 49q8 24 38 88q41 81 41 112q0 44 -53 44h-52l19 93h46q72 0 113 -32t41 -89q0 -42 -50 -138q-42 -83 -42 -113q0 -41 46 -41h29l-20 -100h-28
q-71 0 -71 -79q0 -21 5 -75q5 -59 5 -85z" />
    <glyph glyph-name="asciitilde" unicode="~" horiz-adv-x="438" 
d="M245 365q48 -21 71 -21q34 0 79 38l42 -70q-69 -72 -134 -72q-32 0 -91 25q-46 20 -66 20q-32 0 -81 -37l-40 72q72 69 133 69q33 0 87 -24z" />
    <glyph glyph-name="uni00A0" unicode="&#xa0;" horiz-adv-x="175" 
 />
    <glyph glyph-name="exclamdown" unicode="&#xa1;" horiz-adv-x="285" 
d="M108 434q0 32 21.5 53.5t54.5 21.5q29 0 47 -17t18 -44q0 -32 -21 -53.5t-54 -21.5q-30 0 -48 16.5t-18 44.5zM161 32l-35 -180h-125l35 180l71 260h85z" />
    <glyph glyph-name="cent" unicode="&#xa2;" horiz-adv-x="445" 
d="M374 207l17 -95q-58 -30 -124 -32l-17 -85h-102l20 101q-55 22 -84.5 71.5t-29.5 119.5q0 103 55 179q56 78 147 97l18 90h102l-17 -87q62 -8 105 -34l-53 -94q-47 26 -96 26q-63 0 -101.5 -48t-38.5 -124q0 -106 102 -106q48 0 97 21z" />
    <glyph glyph-name="sterling" unicode="&#xa3;" horiz-adv-x="517" 
d="M191 98h270l-19 -98h-444l18 93l26 4q55 8 80.5 37.5t25.5 86.5q0 22 -4 55h-93l17 89h63q-4 44 -4 65q0 105 63 166.5t171 61.5q107 0 184 -57l-60 -90q-61 45 -125 45q-113 0 -113 -124q0 -33 5 -67h186l-17 -89h-157q0 -5 1 -14t1.5 -16t0.5 -14q0 -101 -76 -134z" />
    <glyph glyph-name="currency" unicode="&#xa4;" horiz-adv-x="474" 
d="M193 326q0 -26 17 -44.5t41 -18.5t41.5 18.5t17.5 44.5t-17 43.5t-42 17.5t-41.5 -17.5t-16.5 -43.5zM423 207l47 -47l-69 -69l-47 47l-39 54q-31 -15 -64 -15q-34 0 -65 16l-38 -55l-47 -48l-69 69l47 48l50 35q-26 37 -26 84q0 44 24 80l-48 35l-47 47l69 70l47 -48
l37 -53q31 16 66 16q38 0 66 -16l37 52l47 48l69 -69l-47 -48l-48 -33q26 -35 26 -81q0 -47 -27 -85z" />
    <glyph glyph-name="yen" unicode="&#xa5;" horiz-adv-x="567" 
d="M358 264h135l-17 -88h-146l-34 -176h-121l34 176h-145l17 88h135l-18 59h-126l17 88h81l-73 237h121l83 -292l195 292h128l-164 -237h81l-17 -88h-125z" />
    <glyph glyph-name="brokenbar" unicode="&#xa6;" horiz-adv-x="301" 
d="M172 678h122l-73 -374h-121zM84 224h122l-73 -374h-122z" />
    <glyph glyph-name="section" unicode="&#xa7;" horiz-adv-x="491" 
d="M248 305l-29 17q-61 -23 -61 -73q0 -35 45 -65q1 -1 40 -26q30 -17 31 -17q59 23 59 73q0 36 -42 65q-19 14 -43 26zM392 -16q0 -86 -60.5 -137.5t-162.5 -51.5q-126 0 -222 69l58 95q88 -59 172 -59q44 0 68.5 19.5t24.5 53.5q0 24 -18 43q-18 21 -79 55q-82 46 -110 82
q-26 37 -26 80q0 93 114 135q-53 46 -53 112q0 78 59 128q61 50 154 50q111 0 203 -63l-59 -91q-74 49 -146 49q-41 0 -65 -17.5t-24 -46.5q0 -22 17 -42q16 -17 78 -53q85 -47 111 -82q28 -35 28 -82q0 -94 -111 -137q49 -46 49 -109z" />
    <glyph glyph-name="dieresis" unicode="&#xa8;" horiz-adv-x="500" 
d="M297 634q0 -31 -21 -52t-53 -21q-28 0 -45.5 16t-17.5 41q0 31 20.5 52t52.5 21q29 0 46.5 -16t17.5 -41zM484 634q0 -31 -21 -52t-53 -21q-28 0 -45.5 16t-17.5 41q0 31 20.5 52t52.5 21q29 0 46.5 -16t17.5 -41z" />
    <glyph glyph-name="copyright" unicode="&#xa9;" horiz-adv-x="776" 
d="M744 357q0 -153 -107 -260t-260 -107q-137 0 -228 85q-90 85 -90 215q0 153 107 260q106 108 260 108q136 0 227 -86q91 -85 91 -215zM656 354q0 97 -65 159q-65 63 -166 63q-119 0 -199 -81q-79 -80 -79 -202q0 -97 65 -160q65 -62 166 -62q119 0 199 80q79 80 79 203z
M402 156q-64 0 -104.5 40.5t-40.5 106.5q0 83 50 139q51 55 128 55q54 0 97 -28l-35 -68q-32 20 -69 20q-38 0 -61.5 -31t-23.5 -81q0 -37 18 -57t51 -20q34 0 75 18l13 -68q-45 -26 -98 -26z" />
    <glyph glyph-name="ordfeminine" unicode="&#xaa;" horiz-adv-x="378" 
d="M166 474q0 -50 43 -50q34 0 64 44l20 99q-19 22 -51 22t-54 -33.5t-22 -81.5zM392 652l-56 -294h-79l6 34q-33 -40 -80 -40q-45 0 -73 32.5t-28 86.5q0 76 44 132q45 55 109 55q46 0 73 -27l4 21h80z" />
    <glyph glyph-name="guillemotleft" unicode="&#xab;" 
d="M373 253l116 -85l-22 -114l-190 149l21 108l248 149l-24 -122zM128 253l120 -85l-22 -114l-195 149l21 108l253 149l-23 -122z" />
    <glyph glyph-name="logicalnot" unicode="&#xac;" horiz-adv-x="438" 
d="M50 356h378l-47 -244h-109l27 142h-269z" />
    <glyph glyph-name="uni00AD" unicode="&#xad;" horiz-adv-x="0" 
 />
    <glyph glyph-name="registered" unicode="&#xae;" horiz-adv-x="776" 
d="M744 357q0 -153 -107 -260t-260 -107q-135 0 -227 86q-91 85 -91 214q0 153 107 260q106 108 260 108q136 0 227 -87q91 -85 91 -214zM147 293q0 -97 65 -160q65 -62 166 -62q119 0 199 80q79 80 79 203q0 97 -65 159q-65 63 -166 63q-119 0 -199 -81q-79 -80 -79 -202z
M478 388q0 33 -42 33h-56l-15 -82h61q52 0 52 49zM486 289l33 -121h-80l-27 107h-60l-20 -107h-78l61 319h130q53 0 83 -25t30 -69q0 -36 -19 -63.5t-53 -40.5z" />
    <glyph glyph-name="overscore" unicode="&#xaf;" horiz-adv-x="500" 
d="M182 572l17 89h260l-17 -89h-260z" />
    <glyph glyph-name="degree" unicode="&#xb0;" horiz-adv-x="314" 
d="M338 547q0 -57 -39 -95q-38 -38 -94 -38q-52 0 -86 31.5t-34 79.5q0 57 38 95q40 38 95 38q52 0 86 -31.5t34 -79.5zM257 541q0 19 -11.5 31t-30.5 12q-20 0 -34.5 -16t-14.5 -38q0 -19 11.5 -30.5t30.5 -11.5q20 0 34.5 15.5t14.5 37.5z" />
    <glyph glyph-name="plusminus" unicode="&#xb1;" horiz-adv-x="438" 
d="M305 418h135l-20 -102h-135l-27 -142h-109l27 142h-134l20 102h134l26 134h109zM1 102h378l-20 -102h-378z" />
    <glyph glyph-name="twosuperior" unicode="&#xb2;" horiz-adv-x="309" 
d="M202 498h119l-14 -74h-242l12 63q98 66 136.5 101t38.5 61q0 28 -37 28q-28 0 -81 -22l-15 72q60 26 111 26q54 0 85 -24t31 -65q0 -45 -33 -83t-111 -83z" />
    <glyph glyph-name="threesuperior" unicode="&#xb3;" horiz-adv-x="306" 
d="M325 526q0 -49 -38 -78t-103 -29q-66 0 -118 24l33 66q42 -18 81 -18q58 0 58 36q0 28 -37 28h-66l13 66h62q44 0 44 32q0 27 -41 27q-36 0 -77 -16l-8 68q55 21 104 21q53 0 82.5 -21t29.5 -60q0 -60 -65 -81q46 -18 46 -65z" />
    <glyph glyph-name="acute" unicode="&#xb4;" horiz-adv-x="500" 
d="M472 648l-108 -97h-108l136 162z" />
    <glyph glyph-name="mu" unicode="&#xb5;" horiz-adv-x="560" 
d="M179 -10q-20 0 -41 7l-38 -192h-116l133 694h120l-63 -320q-14 -81 52 -81q47 0 124 59l65 342h120l-97 -499h-115l13 65q-85 -75 -157 -75z" />
    <glyph glyph-name="paragraph" unicode="&#xb6;" horiz-adv-x="651" 
d="M644 648l-126 -648h-117l126 648h117zM313 648h133l-126 -648h-117l50 257q-78 6 -123 53.5t-45 123.5q0 94 64 154t164 60z" />
    <glyph glyph-name="middot" unicode="&#xb7;" horiz-adv-x="500" 
d="M341 370q0 -32 -21 -53t-55 -21q-29 0 -46.5 16.5t-17.5 43.5q0 32 21 53t54 21q29 0 47 -16.5t18 -43.5z" />
    <glyph glyph-name="cedilla" unicode="&#xb8;" horiz-adv-x="500" 
d="M298 -115q0 -41 -33 -67.5t-87 -26.5q-47 0 -92 19l30 59q26 -13 54 -13q42 0 42 24q0 19 -33 19q-15 0 -34 -5l-18 31l55 93h67l-28 -60q35 -3 56 -23t21 -50z" />
    <glyph glyph-name="onesuperior" unicode="&#xb9;" horiz-adv-x="277" 
d="M243 500h61l-15 -76h-222l15 76h70l33 173h-69l14 75h161z" />
    <glyph glyph-name="ordmasculine" unicode="&#xba;" horiz-adv-x="362" 
d="M86 478q0 75 46 127q47 53 113 53q58 0 93 -34.5t35 -92.5q0 -75 -46 -127q-45 -52 -113 -52q-59 0 -93.5 34t-34.5 92zM287 530q0 55 -45 55q-28 0 -48.5 -32t-20.5 -74q0 -55 45 -55q28 0 48.5 32t20.5 74z" />
    <glyph glyph-name="guillemotright" unicode="&#xbb;" 
d="M286 311l-22 -108l-248 -149l24 122l150 85l-117 85l22 114zM532 311l-21 -108l-254 -149l24 123l154 85l-121 85l22 113z" />
    <glyph glyph-name="onequarter" unicode="&#xbc;" horiz-adv-x="754" 
d="M224 400h61l-15 -76h-222l15 76h70l33 173h-69l14 75h161zM588 648h106l-516 -648h-106zM659 119h45l-13 -67h-45l-10 -52h-81l10 52h-151l2 48q82 121 190 224h93zM506 119h72l23 119q-62 -73 -95 -119z" />
    <glyph glyph-name="onehalf" unicode="&#xbd;" horiz-adv-x="762" 
d="M224 400h61l-15 -76h-222l15 76h70l33 173h-69l14 75h161zM588 648h106l-516 -648h-106zM571 74h119l-14 -74h-242l12 63q98 66 136.5 101t38.5 61q0 28 -37 28q-28 0 -81 -22l-15 72q60 26 111 26q54 0 85 -24t31 -65q0 -45 -33 -83t-111 -83z" />
    <glyph glyph-name="threequarters" unicode="&#xbe;" horiz-adv-x="782" 
d="M306 426q0 -49 -38 -78t-103 -29q-66 0 -118 24l33 66q42 -18 81 -18q58 0 58 36q0 28 -37 28h-66l13 66h62q44 0 44 32q0 27 -41 27q-36 0 -77 -16l-8 68q55 21 104 21q53 0 82.5 -21t29.5 -60q0 -60 -65 -81q46 -18 46 -65zM616 648h106l-516 -648h-106zM687 119h45
l-13 -67h-45l-10 -52h-81l10 52h-151l2 48q82 121 190 224h93zM534 119h72l23 119q-62 -73 -95 -119z" />
    <glyph glyph-name="questiondown" unicode="&#xbf;" horiz-adv-x="442" 
d="M217 433q0 33 21.5 54t54.5 21q30 0 47.5 -17t17.5 -44q0 -32 -21 -53.5t-54 -21.5q-30 0 -48 17t-18 44zM179 -159q-90 0 -141.5 42t-51.5 115q0 78 48.5 128t149.5 77l5 1l26 87h84l-9 -112l-34 -41l-44 -14q-56 -18 -81.5 -44.5t-25.5 -66.5q0 -71 90 -71q51 0 125 32
l19 -95q-81 -38 -160 -38z" />
    <glyph glyph-name="Agrave" unicode="&#xc0;" horiz-adv-x="574" 
d="M207 258l141 306l23 -306h-164zM510 0l-60 648h-172l-311 -648h120l71 152h221l11 -152h120zM318 699l-108 97l80 65l136 -162h-108z" />
    <glyph glyph-name="Aacute" unicode="&#xc1;" horiz-adv-x="574" 
d="M348 564l-141 -306h164zM450 648l60 -648h-120l-11 152h-221l-71 -152h-120l311 648h172zM537 796l-108 -97h-108l136 162z" />
    <glyph glyph-name="Acircumflex" unicode="&#xc2;" horiz-adv-x="574" 
d="M348 564l-141 -306h164zM450 648l60 -648h-120l-11 152h-221l-71 -152h-120l311 648h172zM450 850l83 -151h-98l-45 69l-72 -69h-106l142 151h96z" />
    <glyph glyph-name="Atilde" unicode="&#xc3;" horiz-adv-x="574" 
d="M348 564l-141 -306h164zM450 648l60 -648h-120l-11 152h-221l-71 -152h-120l311 648h172zM331 837q30 0 74 -28q30 -18 43 -18q20 0 43 40l66 -29q-29 -54 -55.5 -77t-58.5 -23q-34 0 -79 29q-26 17 -38 17q-18 0 -44 -40l-66 30q29 54 55.5 76.5t59.5 22.5z" />
    <glyph glyph-name="Adieresis" unicode="&#xc4;" horiz-adv-x="574" 
d="M348 564l-141 -306h164zM450 648l60 -648h-120l-11 152h-221l-71 -152h-120l311 648h172zM362 782q0 -31 -21 -52t-53 -21q-28 0 -45.5 16t-17.5 41q0 31 20.5 52t52.5 21q29 0 46.5 -16t17.5 -41zM549 782q0 -31 -21 -52t-53 -21q-28 0 -45.5 16t-17.5 41q0 31 20.5 52
t52.5 21q29 0 46.5 -16t17.5 -41z" />
    <glyph glyph-name="Aring" unicode="&#xc5;" horiz-adv-x="574" 
d="M348 564l-141 -306h164zM450 648l60 -648h-120l-11 152h-221l-71 -152h-120l311 648h172zM268 791q0 49 38 82t95 33q52 0 83.5 -26.5t31.5 -69.5q0 -49 -37.5 -82t-94.5 -33q-53 0 -84.5 26.5t-31.5 69.5zM436 804q0 35 -41 35q-20 0 -33 -12t-13 -30q0 -36 41 -36
q20 0 33 12.5t13 30.5z" />
    <glyph glyph-name="AE" unicode="&#xc6;" horiz-adv-x="814" 
d="M389 545l-161 -283h159l54 283h-52zM737 103l-20 -103h-381l31 160h-197l-91 -160h-121l378 648h506l-20 -103h-259l-32 -164h221l-20 -103h-221l-34 -175h260z" />
    <glyph glyph-name="Ccedilla" unicode="&#xc7;" horiz-adv-x="526" 
d="M330 -115q0 -41 -33 -67.5t-87 -26.5q-47 0 -92 19l30 59q26 -13 54 -13q42 0 42 24q0 19 -33 19q-15 0 -34 -5l-18 31l47 80q-72 25 -111.5 89t-39.5 157q0 173 93 290t235 117q105 0 182 -57l-66 -94q-61 41 -121 41q-82 0 -139 -87t-57 -209q0 -75 33 -114t95 -39
q55 0 130 39l35 -93q-87 -55 -173 -55q-4 0 -14 1t-19 1l-16 -34q35 -3 56 -23t21 -50z" />
    <glyph glyph-name="Egrave" unicode="&#xc8;" horiz-adv-x="513" 
d="M416 0l20 103h-260l34 175h222l20 103h-222l32 164h260l20 103h-381l-126 -648h381zM303 699l-108 97l80 65l136 -162h-108z" />
    <glyph glyph-name="Eacute" unicode="&#xc9;" horiz-adv-x="513" 
d="M436 103l-20 -103h-381l126 648h381l-20 -103h-260l-32 -164h222l-20 -103h-222l-34 -175h260zM507 796l-108 -97h-108l136 162z" />
    <glyph glyph-name="Ecircumflex" unicode="&#xca;" horiz-adv-x="513" 
d="M436 103l-20 -103h-381l126 648h381l-20 -103h-260l-32 -164h222l-20 -103h-222l-34 -175h260zM433 850l83 -151h-98l-45 69l-72 -69h-106l142 151h96z" />
    <glyph glyph-name="Edieresis" unicode="&#xcb;" horiz-adv-x="513" 
d="M436 103l-20 -103h-381l126 648h381l-20 -103h-260l-32 -164h222l-20 -103h-222l-34 -175h260zM345 782q0 -31 -21 -52t-53 -21q-28 0 -45.5 16t-17.5 41q0 31 20.5 52t52.5 21q29 0 46.5 -16t17.5 -41zM532 782q0 -31 -21 -52t-53 -21q-28 0 -45.5 16t-17.5 41
q0 31 20.5 52t52.5 21q29 0 46.5 -16t17.5 -41z" />
    <glyph glyph-name="Igrave" unicode="&#xcc;" horiz-adv-x="289" 
d="M282 648h-121l-126 -648h121zM177 699l-108 97l80 65l136 -162h-108z" />
    <glyph glyph-name="Iacute" unicode="&#xcd;" horiz-adv-x="289" 
d="M161 648h121l-126 -648h-121zM396 796l-108 -97h-108l136 162z" />
    <glyph glyph-name="Icircumflex" unicode="&#xce;" horiz-adv-x="289" 
d="M161 648h121l-126 -648h-121zM309 850l83 -151h-98l-45 69l-72 -69h-106l142 151h96z" />
    <glyph glyph-name="Idieresis" unicode="&#xcf;" horiz-adv-x="289" 
d="M161 648h121l-126 -648h-121zM221 782q0 -31 -21 -52t-53 -21q-28 0 -45.5 16t-17.5 41q0 31 20.5 52t52.5 21q29 0 46.5 -16t17.5 -41zM408 782q0 -31 -21 -52t-53 -21q-28 0 -45.5 16t-17.5 41q0 31 20.5 52t52.5 21q29 0 46.5 -16t17.5 -41z" />
    <glyph glyph-name="Eth" unicode="&#xd0;" horiz-adv-x="646" 
d="M298 0h-243l55 283h-69l20 98h68l52 267h198q110 0 174 -70q65 -70 65 -187q0 -161 -93 -276t-227 -115zM251 381h120l-19 -98h-120l-35 -179h106q77 0 132 87q56 88 56 200q0 74 -30.5 113t-87.5 39h-90z" />
    <glyph glyph-name="Ntilde" unicode="&#xd1;" horiz-adv-x="658" 
d="M651 648l-126 -648h-152l-131 495l-96 -495h-111l126 648h150l132 -497l96 497h112zM373 837q30 0 74 -28q30 -18 43 -18q20 0 43 40l66 -29q-29 -54 -55.5 -77t-58.5 -23q-34 0 -79 29q-26 17 -38 17q-18 0 -44 -40l-66 30q29 54 55.5 76.5t59.5 22.5z" />
    <glyph glyph-name="Ograve" unicode="&#xd2;" horiz-adv-x="642" 
d="M531 125q82 118 82 267q0 120 -65 193q-64 73 -174 73q-142 0 -235 -136q-82 -118 -82 -267q0 -120 65 -193q64 -72 174 -72q142 0 235 135zM184 253q0 117 55 205q55 90 133 90q114 0 114 -154q0 -115 -56 -206q-56 -89 -132 -89q-55 0 -84.5 39.5t-29.5 114.5zM348 699
l-108 97l80 65l136 -162h-108z" />
    <glyph glyph-name="Oacute" unicode="&#xd3;" horiz-adv-x="642" 
d="M531 125q-93 -135 -235 -135q-110 0 -174 72q-65 73 -65 193q0 149 82 267q93 136 235 136q110 0 174 -73q65 -73 65 -193q0 -149 -82 -267zM184 253q0 -75 29.5 -114.5t84.5 -39.5q76 0 132 89q56 91 56 206q0 154 -114 154q-78 0 -133 -90q-55 -88 -55 -205zM567 796
l-108 -97h-108l136 162z" />
    <glyph glyph-name="Ocircumflex" unicode="&#xd4;" horiz-adv-x="642" 
d="M531 125q-93 -135 -235 -135q-110 0 -174 72q-65 73 -65 193q0 149 82 267q93 136 235 136q110 0 174 -73q65 -73 65 -193q0 -149 -82 -267zM184 253q0 -75 29.5 -114.5t84.5 -39.5q76 0 132 89q56 91 56 206q0 154 -114 154q-78 0 -133 -90q-55 -88 -55 -205zM480 850
l83 -151h-98l-45 69l-72 -69h-106l142 151h96z" />
    <glyph glyph-name="Otilde" unicode="&#xd5;" horiz-adv-x="642" 
d="M531 125q-93 -135 -235 -135q-110 0 -174 72q-65 73 -65 193q0 149 82 267q93 136 235 136q110 0 174 -73q65 -73 65 -193q0 -149 -82 -267zM184 253q0 -75 29.5 -114.5t84.5 -39.5q76 0 132 89q56 91 56 206q0 154 -114 154q-78 0 -133 -90q-55 -88 -55 -205zM361 837
q30 0 74 -28q30 -18 43 -18q20 0 43 40l66 -29q-29 -54 -55.5 -77t-58.5 -23q-34 0 -79 29q-26 17 -38 17q-18 0 -44 -40l-66 30q29 54 55.5 76.5t59.5 22.5z" />
    <glyph glyph-name="Odieresis" unicode="&#xd6;" horiz-adv-x="642" 
d="M531 125q-93 -135 -235 -135q-110 0 -174 72q-65 73 -65 193q0 149 82 267q93 136 235 136q110 0 174 -73q65 -73 65 -193q0 -149 -82 -267zM184 253q0 -75 29.5 -114.5t84.5 -39.5q76 0 132 89q56 91 56 206q0 154 -114 154q-78 0 -133 -90q-55 -88 -55 -205zM392 782
q0 -31 -21 -52t-53 -21q-28 0 -45.5 16t-17.5 41q0 31 20.5 52t52.5 21q29 0 46.5 -16t17.5 -41zM579 782q0 -31 -21 -52t-53 -21q-28 0 -45.5 16t-17.5 41q0 31 20.5 52t52.5 21q29 0 46.5 -16t17.5 -41z" />
    <glyph glyph-name="multiply" unicode="&#xd7;" horiz-adv-x="438" 
d="M299 295l87 -111l-79 -67l-87 112l-134 -112l-62 78l135 112l-87 111l80 66l86 -111l133 111l62 -77z" />
    <glyph glyph-name="Oslash" unicode="&#xd8;" horiz-adv-x="642" 
d="M371 550q-79 0 -136 -91q-56 -91 -56 -207q0 -33 4 -50l263 324q-28 24 -75 24zM299 97q79 0 135 90q57 91 57 208q0 5 -3 44l-260 -320q28 -22 71 -22zM533 126q-46 -65 -108 -100.5t-130 -35.5q-78 0 -139 39l-65 -79l-70 52l74 91q-41 65 -41 159q0 152 83 269
q46 66 108 101.5t130 35.5q83 0 144 -43l65 81l71 -51l-77 -95q38 -65 38 -155q0 -150 -83 -269z" />
    <glyph glyph-name="Ugrave" unicode="&#xd9;" horiz-adv-x="619" 
d="M292 96q-59 0 -87 35.5t-16 95.5l81 421h-121l-81 -416q-19 -103 42 -173q62 -69 175 -69q103 0 169 59.5t87 172.5l83 426h-117l-83 -426q-24 -126 -132 -126zM340 699l-108 97l80 65l136 -162h-108z" />
    <glyph glyph-name="Uacute" unicode="&#xda;" horiz-adv-x="619" 
d="M292 96q108 0 132 126l83 426h117l-83 -426q-21 -113 -87 -172.5t-169 -59.5q-113 0 -175 69q-61 70 -42 173l81 416h121l-81 -421q-12 -60 16 -95.5t87 -35.5zM559 796l-108 -97h-108l136 162z" />
    <glyph glyph-name="Ucircumflex" unicode="&#xdb;" horiz-adv-x="619" 
d="M292 96q108 0 132 126l83 426h117l-83 -426q-21 -113 -87 -172.5t-169 -59.5q-113 0 -175 69q-61 70 -42 173l81 416h121l-81 -421q-12 -60 16 -95.5t87 -35.5zM472 850l83 -151h-98l-45 69l-72 -69h-106l142 151h96z" />
    <glyph glyph-name="Udieresis" unicode="&#xdc;" horiz-adv-x="619" 
d="M292 96q108 0 132 126l83 426h117l-83 -426q-21 -113 -87 -172.5t-169 -59.5q-113 0 -175 69q-61 70 -42 173l81 416h121l-81 -421q-12 -60 16 -95.5t87 -35.5zM384 782q0 -31 -21 -52t-53 -21q-28 0 -45.5 16t-17.5 41q0 31 20.5 52t52.5 21q29 0 46.5 -16t17.5 -41z
M571 782q0 -31 -21 -52t-53 -21q-28 0 -45.5 16t-17.5 41q0 31 20.5 52t52.5 21q29 0 46.5 -16t17.5 -41z" />
    <glyph glyph-name="Yacute" unicode="&#xdd;" horiz-adv-x="532" 
d="M606 648l-280 -405l-47 -243h-122l47 243l-125 405h122l82 -293l196 293h127zM516 796l-108 -97h-108l136 162z" />
    <glyph glyph-name="Thorn" unicode="&#xde;" horiz-adv-x="567" 
d="M556 356q0 -100 -72 -164q-72 -63 -187 -63h-116l-25 -129h-121l126 648h121l-21 -109h83q96 0 154 -49.5t58 -133.5zM433 350q0 41 -24.5 63.5t-68.5 22.5h-99l-40 -204h99q60 0 96.5 32.5t36.5 85.5z" />
    <glyph glyph-name="germandbls" unicode="&#xdf;" horiz-adv-x="573" 
d="M236 478l-93 -478h-119l93 478q20 103 77 156.5t148 53.5q84 0 134 -40q52 -40 52 -103q0 -32 -15.5 -60t-57.5 -66q-41 -37 -41 -57q0 -18 38 -65q41 -50 56.5 -84.5t15.5 -69.5q0 -69 -47 -111t-125 -42q-86 0 -150 42l51 89q50 -33 95 -33q60 0 60 53q0 38 -57 102
q-56 63 -56 101q0 21 12 41.5t47 56.5q34 35 45.5 54.5t11.5 39.5q0 26 -18 41t-50 15q-44 0 -69.5 -27.5t-37.5 -86.5z" />
    <glyph glyph-name="agrave" unicode="&#xe0;" 
d="M163 185q0 94 38 159t97 65q53 0 94 -41l-35 -182q-58 -91 -120 -91q-74 0 -74 90zM439 0l97 499h-115l-7 -38q-48 48 -125 48q-105 0 -176 -95t-71 -232q0 -87 44 -139.5t116 -52.5q77 0 135 74l-13 -64h115zM283 551l-108 97l80 65l136 -162h-108z" />
    <glyph glyph-name="aacute" unicode="&#xe1;" 
d="M163 185q0 -90 74 -90q62 0 120 91l35 182q-41 41 -94 41q-59 0 -97 -65t-38 -159zM536 499l-97 -499h-115l13 64q-58 -74 -135 -74q-72 0 -116 52.5t-44 139.5q0 137 71 232t176 95q77 0 125 -48l7 38h115zM502 648l-108 -97h-108l136 162z" />
    <glyph glyph-name="acircumflex" unicode="&#xe2;" 
d="M163 185q0 -90 74 -90q62 0 120 91l35 182q-41 41 -94 41q-59 0 -97 -65t-38 -159zM536 499l-97 -499h-115l13 64q-58 -74 -135 -74q-72 0 -116 52.5t-44 139.5q0 137 71 232t176 95q77 0 125 -48l7 38h115zM415 702l83 -151h-98l-45 69l-72 -69h-106l142 151h96z" />
    <glyph glyph-name="atilde" unicode="&#xe3;" 
d="M163 185q0 -90 74 -90q62 0 120 91l35 182q-41 41 -94 41q-59 0 -97 -65t-38 -159zM536 499l-97 -499h-115l13 64q-58 -74 -135 -74q-72 0 -116 52.5t-44 139.5q0 137 71 232t176 95q77 0 125 -48l7 38h115zM296 689q30 0 74 -28q30 -18 43 -18q20 0 43 40l66 -29
q-29 -54 -55.5 -77t-58.5 -23q-34 0 -79 29q-26 17 -38 17q-18 0 -44 -40l-66 30q29 54 55.5 76.5t59.5 22.5z" />
    <glyph glyph-name="adieresis" unicode="&#xe4;" 
d="M163 185q0 -90 74 -90q62 0 120 91l35 182q-41 41 -94 41q-59 0 -97 -65t-38 -159zM536 499l-97 -499h-115l13 64q-58 -74 -135 -74q-72 0 -116 52.5t-44 139.5q0 137 71 232t176 95q77 0 125 -48l7 38h115zM327 634q0 -31 -21 -52t-53 -21q-28 0 -45.5 16t-17.5 41
q0 31 20.5 52t52.5 21q29 0 46.5 -16t17.5 -41zM514 634q0 -31 -21 -52t-53 -21q-28 0 -45.5 16t-17.5 41q0 31 20.5 52t52.5 21q29 0 46.5 -16t17.5 -41z" />
    <glyph glyph-name="aring" unicode="&#xe5;" 
d="M163 185q0 -90 74 -90q62 0 120 91l35 182q-41 41 -94 41q-59 0 -97 -65t-38 -159zM536 499l-97 -499h-115l13 64q-58 -74 -135 -74q-72 0 -116 52.5t-44 139.5q0 137 71 232t176 95q77 0 125 -48l7 38h115zM233 643q0 49 38 82t95 33q52 0 83.5 -26.5t31.5 -69.5
q0 -49 -37.5 -82t-94.5 -33q-53 0 -84.5 26.5t-31.5 69.5zM401 656q0 35 -41 35q-20 0 -33 -12t-13 -30q0 -36 41 -36q20 0 33 12.5t13 30.5z" />
    <glyph glyph-name="ae" unicode="&#xe6;" horiz-adv-x="797" 
d="M682 123l26 -86q-77 -47 -163 -47q-115 0 -173 77q-78 -77 -179 -77q-78 0 -125.5 40t-47.5 105q0 68 50 109t135 41h134l5 24q18 94 -81 94q-57 0 -149 -39l-31 94q107 51 189 51q108 0 151 -66q68 66 156 66q85 0 135.5 -49t50.5 -130q0 -40 -14 -80l-39 -38h-266v-6
q0 -116 112 -116q52 0 124 33zM657 319q3 46 -18 70.5t-64 24.5q-39 0 -70 -30.5t-47 -84.5h197q2 10 2 20zM135 143q0 -28 19 -43.5t53 -15.5q62 0 131 59q-7 30 -7 61h-126q-33 0 -51.5 -16.5t-18.5 -44.5z" />
    <glyph glyph-name="ccedilla" unicode="&#xe7;" horiz-adv-x="449" 
d="M279 -115q0 -41 -33 -67.5t-87 -26.5q-47 0 -92 19l30 59q26 -13 54 -13q42 0 42 24q0 19 -33 19q-15 0 -34 -5l-18 31l49 82q-114 48 -114 194q0 135 73 221q74 87 193 87q83 0 150 -39l-53 -93q-47 27 -100 27q-64 0 -103 -56t-39 -144q0 -108 101 -108q46 0 99 23
l20 -93q-63 -36 -136 -36q-3 0 -7 0.5t-10.5 1t-12.5 0.5l-16 -34q35 -3 56 -23t21 -50z" />
    <glyph glyph-name="egrave" unicode="&#xe8;" horiz-adv-x="515" 
d="M401 123q-67 -33 -127 -33q-115 0 -115 116v6h272l39 38q14 40 14 80q0 81 -50.5 130t-135.5 49q-107 0 -182 -89q-75 -88 -75 -214q0 -101 59 -158.5t161 -57.5q87 0 166 47zM376 319v-3t-0.5 -4t-1 -5.5t-0.5 -7.5h-202q16 53 48.5 84t73.5 31q43 0 64 -24.5t18 -70.5z
M260 551l-108 97l80 65l136 -162h-108z" />
    <glyph glyph-name="eacute" unicode="&#xe9;" horiz-adv-x="515" 
d="M401 123l26 -86q-79 -47 -166 -47q-102 0 -161 57.5t-59 158.5q0 126 75 214q75 89 182 89q85 0 135.5 -49t50.5 -130q0 -40 -14 -80l-39 -38h-272v-6q0 -116 115 -116q60 0 127 33zM376 319q3 46 -18 70.5t-64 24.5q-41 0 -73.5 -31t-48.5 -84h202q0 4 0.5 7.5t1 5.5
t0.5 4v3zM479 648l-108 -97h-108l136 162z" />
    <glyph glyph-name="ecircumflex" unicode="&#xea;" horiz-adv-x="515" 
d="M401 123l26 -86q-79 -47 -166 -47q-102 0 -161 57.5t-59 158.5q0 126 75 214q75 89 182 89q85 0 135.5 -49t50.5 -130q0 -40 -14 -80l-39 -38h-272v-6q0 -116 115 -116q60 0 127 33zM376 319q3 46 -18 70.5t-64 24.5q-41 0 -73.5 -31t-48.5 -84h202q0 4 0.5 7.5t1 5.5
t0.5 4v3zM392 702l83 -151h-98l-45 69l-72 -69h-106l142 151h96z" />
    <glyph glyph-name="edieresis" unicode="&#xeb;" horiz-adv-x="515" 
d="M401 123l26 -86q-79 -47 -166 -47q-102 0 -161 57.5t-59 158.5q0 126 75 214q75 89 182 89q85 0 135.5 -49t50.5 -130q0 -40 -14 -80l-39 -38h-272v-6q0 -116 115 -116q60 0 127 33zM376 319q3 46 -18 70.5t-64 24.5q-41 0 -73.5 -31t-48.5 -84h202q0 4 0.5 7.5t1 5.5
t0.5 4v3zM304 634q0 -31 -21 -52t-53 -21q-28 0 -45.5 16t-17.5 41q0 31 20.5 52t52.5 21q29 0 46.5 -16t17.5 -41zM491 634q0 -31 -21 -52t-53 -21q-28 0 -45.5 16t-17.5 41q0 31 20.5 52t52.5 21q29 0 46.5 -16t17.5 -41z" />
    <glyph glyph-name="igrave" unicode="&#xec;" horiz-adv-x="265" 
d="M121 499l-97 -499h119l97 499h-119zM136 551l-108 97l80 65l136 -162h-108z" />
    <glyph glyph-name="iacute" unicode="&#xed;" horiz-adv-x="265" 
d="M24 0l97 499h119l-97 -499h-119zM355 648l-108 -97h-108l136 162z" />
    <glyph glyph-name="icircumflex" unicode="&#xee;" horiz-adv-x="265" 
d="M24 0l97 499h119l-97 -499h-119zM268 702l83 -151h-98l-45 69l-72 -69h-106l142 151h96z" />
    <glyph glyph-name="idieresis" unicode="&#xef;" horiz-adv-x="265" 
d="M24 0l97 499h119l-97 -499h-119zM180 634q0 -31 -21 -52t-53 -21q-28 0 -45.5 16t-17.5 41q0 31 20.5 52t52.5 21q29 0 46.5 -16t17.5 -41zM367 634q0 -31 -21 -52t-53 -21q-28 0 -45.5 16t-17.5 41q0 31 20.5 52t52.5 21q29 0 46.5 -16t17.5 -41z" />
    <glyph glyph-name="eth" unicode="&#xf0;" horiz-adv-x="542" 
d="M238 -10q-89 0 -144 52t-55 138q0 113 68 192q69 78 171 78q82 0 124 -46q8 94 -36 140l-63 -49l-40 49l49 38q-34 16 -69 22l36 81q69 -12 114 -40l62 48l42 -48l-53 -41q88 -97 48 -318l-13 -69q-18 -106 -82.5 -166.5t-158.5 -60.5zM154 186q0 -48 23.5 -74t66.5 -26
q52 0 88 51q37 50 37 119q0 47 -23.5 72.5t-66.5 25.5q-53 0 -89 -50t-36 -118z" />
    <glyph glyph-name="ntilde" unicode="&#xf1;" horiz-adv-x="564" 
d="M336 400q-54 0 -129 -70l-64 -330h-119l97 499h114l-13 -68q84 78 159 78q73 0 109 -51.5t20 -135.5l-63 -322h-120l63 319q14 81 -54 81zM298 689q30 0 74 -28q30 -18 43 -18q20 0 43 40l66 -29q-29 -54 -55.5 -77t-58.5 -23q-34 0 -79 29q-26 17 -38 17q-18 0 -44 -40
l-66 30q29 54 55.5 76.5t59.5 22.5z" />
    <glyph glyph-name="ograve" unicode="&#xf2;" horiz-adv-x="533" 
d="M489 299q0 95 -54 152q-54 58 -144 58q-106 0 -178 -91q-71 -91 -71 -218q0 -94 54 -153q54 -57 144 -57q105 0 177 90q72 92 72 219zM163 201q0 87 36 147q37 60 90 60q79 0 79 -111q0 -86 -37 -147q-36 -60 -89 -60q-79 0 -79 111zM265 551l-108 97l80 65l136 -162
h-108z" />
    <glyph glyph-name="oacute" unicode="&#xf3;" horiz-adv-x="533" 
d="M489 299q0 -127 -72 -219q-72 -90 -177 -90q-90 0 -144 57q-54 59 -54 153q0 127 71 218q72 91 178 91q90 0 144 -58q54 -57 54 -152zM163 201q0 -111 79 -111q53 0 89 60q37 61 37 147q0 111 -79 111q-53 0 -90 -60q-36 -60 -36 -147zM484 648l-108 -97h-108l136 162z
" />
    <glyph glyph-name="ocircumflex" unicode="&#xf4;" horiz-adv-x="533" 
d="M489 299q0 -127 -72 -219q-72 -90 -177 -90q-90 0 -144 57q-54 59 -54 153q0 127 71 218q72 91 178 91q90 0 144 -58q54 -57 54 -152zM163 201q0 -111 79 -111q53 0 89 60q37 61 37 147q0 111 -79 111q-53 0 -90 -60q-36 -60 -36 -147zM394 702l83 -151h-98l-45 69
l-72 -69h-106l142 151h96z" />
    <glyph glyph-name="otilde" unicode="&#xf5;" horiz-adv-x="533" 
d="M489 299q0 -127 -72 -219q-72 -90 -177 -90q-90 0 -144 57q-54 59 -54 153q0 127 71 218q72 91 178 91q90 0 144 -58q54 -57 54 -152zM163 201q0 -111 79 -111q53 0 89 60q37 61 37 147q0 111 -79 111q-53 0 -90 -60q-36 -60 -36 -147zM275 689q30 0 74 -28
q30 -18 43 -18q20 0 43 40l66 -29q-29 -54 -55.5 -77t-58.5 -23q-34 0 -79 29q-26 17 -38 17q-18 0 -44 -40l-66 30q29 54 55.5 76.5t59.5 22.5z" />
    <glyph glyph-name="odieresis" unicode="&#xf6;" horiz-adv-x="533" 
d="M489 299q0 -127 -72 -219q-72 -90 -177 -90q-90 0 -144 57q-54 59 -54 153q0 127 71 218q72 91 178 91q90 0 144 -58q54 -57 54 -152zM163 201q0 -111 79 -111q53 0 89 60q37 61 37 147q0 111 -79 111q-53 0 -90 -60q-36 -60 -36 -147zM306 634q0 -31 -21 -52t-53 -21
q-28 0 -45.5 16t-17.5 41q0 31 20.5 52t52.5 21q29 0 46.5 -16t17.5 -41zM493 634q0 -31 -21 -52t-53 -21q-28 0 -45.5 16t-17.5 41q0 31 20.5 52t52.5 21q29 0 46.5 -16t17.5 -41z" />
    <glyph glyph-name="divide" unicode="&#xf7;" horiz-adv-x="438" 
d="M337 508q0 -32 -21.5 -53.5t-54.5 -21.5q-29 0 -47 17t-18 44q0 32 21.5 53.5t54.5 21.5q29 0 47 -17t18 -44zM52 367h378l-20 -102h-378zM266 139q0 -32 -21.5 -53.5t-54.5 -21.5q-29 0 -47 17t-18 44q0 32 21 53.5t54 21.5q30 0 48 -16.5t18 -44.5z" />
    <glyph glyph-name="oslash" unicode="&#xf8;" horiz-adv-x="536" 
d="M291 411q-57 0 -94 -61q-38 -62 -38 -150q0 -21 1 -26l185 222q-18 15 -54 15zM243 88q57 0 94 61q39 62 39 149q0 16 -1 21l-181 -220q16 -11 49 -11zM491 299q0 -127 -72 -218t-178 -91q-62 0 -112 31l-57 -66l-62 48l65 75q-31 51 -31 122q0 127 71 218q72 91 178 91
q70 0 116 -34l60 70l62 -50l-68 -79q28 -47 28 -117z" />
    <glyph glyph-name="ugrave" unicode="&#xf9;" horiz-adv-x="558" 
d="M436 0l96 499h-119l-64 -331q-76 -70 -127 -70q-31 0 -44.5 21t-5.5 60l62 320h-119l-62 -322q-17 -84 17 -135.5t106 -51.5q76 0 158 78l-13 -68h115zM282 551l-108 97l80 65l136 -162h-108z" />
    <glyph glyph-name="uacute" unicode="&#xfa;" horiz-adv-x="558" 
d="M532 499l-96 -499h-115l13 68q-82 -78 -158 -78q-72 0 -106 51.5t-17 135.5l62 322h119l-62 -320q-8 -39 5.5 -60t44.5 -21q51 0 127 70l64 331h119zM501 648l-108 -97h-108l136 162z" />
    <glyph glyph-name="ucircumflex" unicode="&#xfb;" horiz-adv-x="558" 
d="M532 499l-96 -499h-115l13 68q-82 -78 -158 -78q-72 0 -106 51.5t-17 135.5l62 322h119l-62 -320q-8 -39 5.5 -60t44.5 -21q51 0 127 70l64 331h119zM414 702l83 -151h-98l-45 69l-72 -69h-106l142 151h96z" />
    <glyph glyph-name="udieresis" unicode="&#xfc;" horiz-adv-x="558" 
d="M532 499l-96 -499h-115l13 68q-82 -78 -158 -78q-72 0 -106 51.5t-17 135.5l62 322h119l-62 -320q-8 -39 5.5 -60t44.5 -21q51 0 127 70l64 331h119zM326 634q0 -31 -21 -52t-53 -21q-28 0 -45.5 16t-17.5 41q0 31 20.5 52t52.5 21q29 0 46.5 -16t17.5 -41zM513 634
q0 -31 -21 -52t-53 -21q-28 0 -45.5 16t-17.5 41q0 31 20.5 52t52.5 21q29 0 46.5 -16t17.5 -41z" />
    <glyph glyph-name="yacute" unicode="&#xfd;" horiz-adv-x="498" 
d="M408 499h121l-337 -694h-119l100 195h-61l-48 499h120l26 -427zM472 648l-108 -97h-108l136 162z" />
    <glyph glyph-name="thorn" unicode="&#xfe;" 
d="M262 90q60 0 97 64q38 65 38 159q0 90 -75 90q-62 0 -118 -87l-36 -186q40 -40 94 -40zM517 316q0 -137 -71 -232q-70 -94 -176 -94q-71 0 -120 44l-45 -229h-118l168 873h120l-46 -234q58 65 129 65q70 0 114.5 -53t44.5 -140z" />
    <glyph glyph-name="ydieresis" unicode="&#xff;" horiz-adv-x="498" 
d="M408 499h121l-337 -694h-119l100 195h-61l-48 499h120l26 -427zM297 634q0 -31 -21 -52t-53 -21q-28 0 -45.5 16t-17.5 41q0 31 20.5 52t52.5 21q29 0 46.5 -16t17.5 -41zM484 634q0 -31 -21 -52t-53 -21q-28 0 -45.5 16t-17.5 41q0 31 20.5 52t52.5 21q29 0 46.5 -16
t17.5 -41z" />
    <glyph glyph-name="Amacron" unicode="&#x100;" horiz-adv-x="574" 
d="M348 564l-141 -306h164zM450 648l60 -648h-120l-11 152h-221l-71 -152h-120l311 648h172zM247 720l17 89h260l-17 -89h-260z" />
    <glyph glyph-name="amacron" unicode="&#x101;" 
d="M163 185q0 -90 74 -90q62 0 120 91l35 182q-41 41 -94 41q-59 0 -97 -65t-38 -159zM536 499l-97 -499h-115l13 64q-58 -74 -135 -74q-72 0 -116 52.5t-44 139.5q0 137 71 232t176 95q77 0 125 -48l7 38h115zM212 572l17 89h260l-17 -89h-260z" />
    <glyph glyph-name="Abreve" unicode="&#x102;" horiz-adv-x="574" 
d="M348 564l-141 -306h164zM450 648l60 -648h-120l-11 152h-221l-71 -152h-120l311 648h172zM443 832h87l-3 -22q-14 -115 -144 -115q-63 0 -96 33t-23 85l4 19h86l-3 -20q-4 -19 6 -29.5t32 -10.5q44 0 50 39z" />
    <glyph glyph-name="abreve" unicode="&#x103;" 
d="M163 185q0 -90 74 -90q62 0 120 91l35 182q-41 41 -94 41q-59 0 -97 -65t-38 -159zM536 499l-97 -499h-115l13 64q-58 -74 -135 -74q-72 0 -116 52.5t-44 139.5q0 137 71 232t176 95q77 0 125 -48l7 38h115zM408 684h87l-3 -22q-14 -115 -144 -115q-63 0 -96 33t-23 85
l4 19h86l-3 -20q-4 -19 6 -29.5t32 -10.5q44 0 50 39z" />
    <glyph glyph-name="Aogonek" unicode="&#x104;" horiz-adv-x="574" 
d="M453 -120l3 -63q-33 -16 -74 -16t-66 21.5t-25 58.5q0 73 99 121l-11 150h-221l-71 -152h-120l311 648h172l60 -648h-18l-21 -11q-83 -47 -83 -87q0 -28 31 -28q11 0 34 6zM348 564l-141 -306h164z" />
    <glyph glyph-name="aogonek" unicode="&#x105;" 
d="M387 -120l3 -63q-33 -16 -74 -16t-66 21.5t-25 58.5q0 73 99 121l13 62q-58 -74 -135 -74q-72 0 -116 52.5t-44 139.5q0 137 71 232t176 95q77 0 125 -48l7 38h115l-97 -499h-13l-21 -11q-83 -47 -83 -87q0 -28 31 -28q11 0 34 6zM163 185q0 -90 74 -90q62 0 120 91
l35 182q-41 41 -94 41q-59 0 -97 -65t-38 -159z" />
    <glyph glyph-name="Cacute" unicode="&#x106;" horiz-adv-x="526" 
d="M302 -10q-114 0 -180.5 69.5t-66.5 191.5q0 173 93 290t235 117q105 0 182 -57l-66 -94q-61 41 -121 41q-82 0 -139 -87t-57 -209q0 -75 33 -114t95 -39q55 0 130 39l35 -93q-87 -55 -173 -55zM519 796l-108 -97h-108l136 162z" />
    <glyph glyph-name="cacute" unicode="&#x107;" horiz-adv-x="449" 
d="M248 -10q-94 0 -149.5 56.5t-55.5 154.5q0 135 73 221q74 87 193 87q83 0 150 -39l-53 -93q-47 27 -100 27q-64 0 -103 -56t-39 -144q0 -108 101 -108q46 0 99 23l20 -93q-63 -36 -136 -36zM447 648l-108 -97h-108l136 162z" />
    <glyph glyph-name="Ccircumflex" unicode="&#x108;" horiz-adv-x="526" 
d="M302 -10q-114 0 -180.5 69.5t-66.5 191.5q0 173 93 290t235 117q105 0 182 -57l-66 -94q-61 41 -121 41q-82 0 -139 -87t-57 -209q0 -75 33 -114t95 -39q55 0 130 39l35 -93q-87 -55 -173 -55zM432 850l83 -151h-98l-45 69l-72 -69h-106l142 151h96z" />
    <glyph glyph-name="ccircumflex" unicode="&#x109;" horiz-adv-x="449" 
d="M248 -10q-94 0 -149.5 56.5t-55.5 154.5q0 135 73 221q74 87 193 87q83 0 150 -39l-53 -93q-47 27 -100 27q-64 0 -103 -56t-39 -144q0 -108 101 -108q46 0 99 23l20 -93q-63 -36 -136 -36zM366 702l83 -151h-98l-45 69l-72 -69h-106l142 151h96z" />
    <glyph glyph-name="Cdotaccent" unicode="&#x10a;" horiz-adv-x="526" 
d="M302 -10q-114 0 -180.5 69.5t-66.5 191.5q0 173 93 290t235 117q105 0 182 -57l-66 -94q-61 41 -121 41q-82 0 -139 -87t-57 -209q0 -75 33 -114t95 -39q55 0 130 39l35 -93q-87 -55 -173 -55zM439 783q0 -32 -21 -53t-54 -21q-29 0 -46.5 16.5t-17.5 43.5q0 32 20.5 53
t53.5 21q30 0 47.5 -16.5t17.5 -43.5z" />
    <glyph glyph-name="cdotaccent" unicode="&#x10b;" horiz-adv-x="449" 
d="M248 -10q-94 0 -149.5 56.5t-55.5 154.5q0 135 73 221q74 87 193 87q83 0 150 -39l-53 -93q-47 27 -100 27q-64 0 -103 -56t-39 -144q0 -108 101 -108q46 0 99 23l20 -93q-63 -36 -136 -36zM373 635q0 -32 -21 -53t-54 -21q-29 0 -46.5 16.5t-17.5 43.5q0 32 20.5 53
t53.5 21q30 0 47.5 -16.5t17.5 -43.5z" />
    <glyph glyph-name="Ccaron" unicode="&#x10c;" horiz-adv-x="526" 
d="M302 -10q-114 0 -180.5 69.5t-66.5 191.5q0 173 93 290t235 117q105 0 182 -57l-66 -94q-61 41 -121 41q-82 0 -139 -87t-57 -209q0 -75 33 -114t95 -39q55 0 130 39l35 -93q-87 -55 -173 -55zM438 850h107l-142 -151h-96l-84 151h98l45 -69z" />
    <glyph glyph-name="ccaron" unicode="&#x10d;" horiz-adv-x="449" 
d="M248 -10q-94 0 -149.5 56.5t-55.5 154.5q0 135 73 221q74 87 193 87q83 0 150 -39l-53 -93q-47 27 -100 27q-64 0 -103 -56t-39 -144q0 -108 101 -108q46 0 99 23l20 -93q-63 -36 -136 -36zM372 702h107l-142 -151h-96l-84 151h98l45 -69z" />
    <glyph glyph-name="Dcaron" unicode="&#x10e;" horiz-adv-x="626" 
d="M278 0h-243l126 648h197q111 0 175 -70q65 -71 65 -187q0 -161 -93 -276t-227 -115zM471 391q0 74 -30.5 113t-88.5 39h-90l-86 -439h106q78 0 133 87q56 89 56 200zM482 850h107l-142 -151h-96l-84 151h98l45 -69z" />
    <glyph glyph-name="dcaron" unicode="&#x10f;" horiz-adv-x="653" 
d="M163 185q0 -90 74 -90q62 0 120 91l35 182q-41 41 -94 41q-59 0 -97 -65t-38 -159zM571 678l-132 -678h-115l13 63q-57 -73 -135 -73q-72 0 -116 52.5t-44 139.5q0 137 71 232t176 95q72 0 122 -45l41 214h119zM742 678l-48 -168h-90l32 168h106z" />
    <glyph glyph-name="Dcroat" unicode="&#x110;" horiz-adv-x="646" 
d="M298 0h-243l55 283h-69l20 98h68l52 267h198q110 0 174 -70q65 -70 65 -187q0 -161 -93 -276t-227 -115zM251 381h120l-19 -98h-120l-35 -179h106q77 0 132 87q56 88 56 200q0 74 -30.5 113t-87.5 39h-90z" />
    <glyph glyph-name="dslash" unicode="&#x111;" horiz-adv-x="556" 
d="M163 185q0 -90 74 -90q62 0 120 91l35 182q-41 41 -94 41q-59 0 -97 -65t-38 -159zM545 542l-106 -542h-115l13 64q-58 -74 -135 -74q-72 0 -116 52.5t-44 139.5q0 137 71 232t176 95q72 0 122 -45l15 78h-92l15 81h92l11 55h119l-11 -55h57l-16 -81h-56z" />
    <glyph glyph-name="Emacron" unicode="&#x112;" horiz-adv-x="513" 
d="M436 103l-20 -103h-381l126 648h381l-20 -103h-260l-32 -164h222l-20 -103h-222l-34 -175h260zM232 720l17 89h260l-17 -89h-260z" />
    <glyph glyph-name="emacron" unicode="&#x113;" horiz-adv-x="515" 
d="M401 123l26 -86q-79 -47 -166 -47q-102 0 -161 57.5t-59 158.5q0 126 75 214q75 89 182 89q85 0 135.5 -49t50.5 -130q0 -40 -14 -80l-39 -38h-272v-6q0 -116 115 -116q60 0 127 33zM376 319q3 46 -18 70.5t-64 24.5q-41 0 -73.5 -31t-48.5 -84h202q0 4 0.5 7.5t1 5.5
t0.5 4v3zM189 572l17 89h260l-17 -89h-260z" />
    <glyph glyph-name="Ebreve" unicode="&#x114;" horiz-adv-x="513" 
d="M436 103l-20 -103h-381l126 648h381l-20 -103h-260l-32 -164h222l-20 -103h-222l-34 -175h260zM424 832h87l-3 -22q-14 -115 -144 -115q-63 0 -96 33t-23 85l4 19h86l-3 -20q-4 -19 6 -29.5t32 -10.5q44 0 50 39z" />
    <glyph glyph-name="ebreve" unicode="&#x115;" horiz-adv-x="515" 
d="M401 123l26 -86q-79 -47 -166 -47q-102 0 -161 57.5t-59 158.5q0 126 75 214q75 89 182 89q85 0 135.5 -49t50.5 -130q0 -40 -14 -80l-39 -38h-272v-6q0 -116 115 -116q60 0 127 33zM376 319q3 46 -18 70.5t-64 24.5q-41 0 -73.5 -31t-48.5 -84h202q0 4 0.5 7.5t1 5.5
t0.5 4v3zM385 684h87l-3 -22q-14 -115 -144 -115q-63 0 -96 33t-23 85l4 19h86l-3 -20q-4 -19 6 -29.5t32 -10.5q44 0 50 39z" />
    <glyph glyph-name="Edotaccent" unicode="&#x116;" horiz-adv-x="513" 
d="M436 103l-20 -103h-381l126 648h381l-20 -103h-260l-32 -164h222l-20 -103h-222l-34 -175h260zM442 783q0 -32 -21 -53t-54 -21q-29 0 -46.5 16.5t-17.5 43.5q0 32 20.5 53t53.5 21q30 0 47.5 -16.5t17.5 -43.5z" />
    <glyph glyph-name="edotaccent" unicode="&#x117;" horiz-adv-x="515" 
d="M401 123l26 -86q-79 -47 -166 -47q-102 0 -161 57.5t-59 158.5q0 126 75 214q75 89 182 89q85 0 135.5 -49t50.5 -130q0 -40 -14 -80l-39 -38h-272v-6q0 -116 115 -116q60 0 127 33zM376 319q3 46 -18 70.5t-64 24.5q-41 0 -73.5 -31t-48.5 -84h202q0 4 0.5 7.5t1 5.5
t0.5 4v3zM399 635q0 -32 -21 -53t-54 -21q-29 0 -46.5 16.5t-17.5 43.5q0 32 20.5 53t53.5 21q30 0 47.5 -16.5t17.5 -43.5z" />
    <glyph glyph-name="Eogonek" unicode="&#x118;" horiz-adv-x="513" 
d="M377 -120l3 -63q-33 -16 -74 -16t-66 21.5t-25 58.5q0 71 95 119h-275l126 648h381l-20 -103h-260l-32 -164h222l-20 -103h-222l-34 -175h260l-20 -103l-21 -11q-83 -47 -83 -87q0 -28 31 -28q11 0 34 6z" />
    <glyph glyph-name="eogonek" unicode="&#x119;" horiz-adv-x="516" 
d="M280 -120l4 -63q-33 -16 -74 -16t-66 21.5t-25 58.5q0 66 86 114q-77 15 -120.5 70.5t-43.5 140.5q0 126 75 214q75 89 182 89q85 0 135.5 -49t50.5 -130q0 -40 -14 -80l-39 -38h-272v-6q0 -116 114 -116q58 0 128 33l26 -86q-27 -16 -79 -37l-58 -24l-22 -11
q-52 -29 -52 -63q0 -28 31 -28q15 0 33 6zM376 319q6 95 -82 95q-41 0 -73.5 -31t-48.5 -84h202q2 10 2 20z" />
    <glyph glyph-name="Ecaron" unicode="&#x11a;" horiz-adv-x="513" 
d="M436 103l-20 -103h-381l126 648h381l-20 -103h-260l-32 -164h222l-20 -103h-222l-34 -175h260zM441 850h107l-142 -151h-96l-84 151h98l45 -69z" />
    <glyph glyph-name="ecaron" unicode="&#x11b;" horiz-adv-x="515" 
d="M401 123l26 -86q-79 -47 -166 -47q-102 0 -161 57.5t-59 158.5q0 126 75 214q75 89 182 89q85 0 135.5 -49t50.5 -130q0 -40 -14 -80l-39 -38h-272v-6q0 -116 115 -116q60 0 127 33zM376 319q3 46 -18 70.5t-64 24.5q-41 0 -73.5 -31t-48.5 -84h202q0 4 0.5 7.5t1 5.5
t0.5 4v3zM398 702h107l-142 -151h-96l-84 151h98l45 -69z" />
    <glyph glyph-name="Gcircumflex" unicode="&#x11c;" horiz-adv-x="575" 
d="M422 318h112l-53 -277q-83 -51 -177 -51q-114 0 -182 69q-67 70 -67 192q0 173 94 289q94 118 235 118q105 0 189 -59l-66 -94q-60 43 -126 43q-83 0 -141 -87q-58 -86 -58 -209q0 -75 33.5 -114t97.5 -39q33 0 69 12zM450 850l83 -151h-98l-45 69l-72 -69h-106l142 151
h96z" />
    <glyph glyph-name="gcircumflex" unicode="&#x11d;" 
d="M163 190q0 -88 74 -88q62 0 121 88l34 178q-41 41 -94 41q-60 0 -97 -64q-38 -64 -38 -155zM180 -205q-101 0 -175 45l46 93q60 -37 131 -37q121 0 145 118l12 55q-60 -72 -135 -72q-73 0 -117.5 52t-44.5 138q0 135 71 229q70 93 176 93q77 0 125 -48l7 38h115l-94 -485
q-43 -219 -262 -219zM410 702l83 -151h-98l-45 69l-72 -69h-106l142 151h96z" />
    <glyph glyph-name="Gbreve" unicode="&#x11e;" horiz-adv-x="575" 
d="M422 318h112l-53 -277q-83 -51 -177 -51q-114 0 -182 69q-67 70 -67 192q0 173 94 289q94 118 235 118q105 0 189 -59l-66 -94q-60 43 -126 43q-83 0 -141 -87q-58 -86 -58 -209q0 -75 33.5 -114t97.5 -39q33 0 69 12zM443 832h87l-3 -22q-14 -115 -144 -115
q-63 0 -96 33t-23 85l4 19h86l-3 -20q-4 -19 6 -29.5t32 -10.5q44 0 50 39z" />
    <glyph glyph-name="gbreve" unicode="&#x11f;" 
d="M163 190q0 -88 74 -88q62 0 121 88l34 178q-41 41 -94 41q-60 0 -97 -64q-38 -64 -38 -155zM180 -205q-101 0 -175 45l46 93q60 -37 131 -37q121 0 145 118l12 55q-60 -72 -135 -72q-73 0 -117.5 52t-44.5 138q0 135 71 229q70 93 176 93q77 0 125 -48l7 38h115l-94 -485
q-43 -219 -262 -219zM403 684h87l-3 -22q-14 -115 -144 -115q-63 0 -96 33t-23 85l4 19h86l-3 -20q-4 -19 6 -29.5t32 -10.5q44 0 50 39z" />
    <glyph glyph-name="Gdotaccent" unicode="&#x120;" horiz-adv-x="575" 
d="M422 318h112l-53 -277q-83 -51 -177 -51q-114 0 -182 69q-67 70 -67 192q0 173 94 289q94 118 235 118q105 0 189 -59l-66 -94q-60 43 -126 43q-83 0 -141 -87q-58 -86 -58 -209q0 -75 33.5 -114t97.5 -39q33 0 69 12zM457 783q0 -32 -21 -53t-54 -21q-29 0 -46.5 16.5
t-17.5 43.5q0 32 20.5 53t53.5 21q30 0 47.5 -16.5t17.5 -43.5z" />
    <glyph glyph-name="gdotaccent" unicode="&#x121;" 
d="M163 190q0 -88 74 -88q62 0 121 88l34 178q-41 41 -94 41q-60 0 -97 -64q-38 -64 -38 -155zM180 -205q-101 0 -175 45l46 93q60 -37 131 -37q121 0 145 118l12 55q-60 -72 -135 -72q-73 0 -117.5 52t-44.5 138q0 135 71 229q70 93 176 93q77 0 125 -48l7 38h115l-94 -485
q-43 -219 -262 -219zM417 635q0 -32 -21 -53t-54 -21q-29 0 -46.5 16.5t-17.5 43.5q0 32 20.5 53t53.5 21q30 0 47.5 -16.5t17.5 -43.5z" />
    <glyph glyph-name="Gcommaaccent" unicode="&#x122;" horiz-adv-x="575" 
d="M422 318h112l-53 -277q-83 -51 -177 -51q-114 0 -182 69q-67 70 -67 192q0 173 94 289q94 118 235 118q105 0 189 -59l-66 -94q-60 43 -126 43q-83 0 -141 -87q-58 -86 -58 -209q0 -75 33.5 -114t97.5 -39q33 0 69 12zM310 -50l-52 -173h-94l38 173h108z" />
    <glyph glyph-name="gcommaaccent" unicode="&#x123;" 
d="M163 190q0 -88 74 -88q62 0 121 88l34 178q-41 41 -94 41q-60 0 -97 -64q-38 -64 -38 -155zM180 -205q-101 0 -175 45l46 93q60 -37 131 -37q121 0 145 118l12 55q-60 -72 -135 -72q-73 0 -117.5 52t-44.5 138q0 135 71 229q70 93 176 93q77 0 125 -48l7 38h115l-94 -485
q-43 -219 -262 -219zM279 550l52 173h94l-38 -173h-108z" />
    <glyph glyph-name="Hcircumflex" unicode="&#x124;" horiz-adv-x="662" 
d="M655 648l-126 -648h-122l55 281h-251l-55 -281h-121l126 648h121l-50 -258h251l50 258h122zM494 850l83 -151h-98l-45 69l-72 -69h-106l142 151h96z" />
    <glyph glyph-name="hcircumflex" unicode="&#x125;" horiz-adv-x="564" 
d="M336 400q-54 0 -129 -70l-64 -330h-119l132 678h119l-47 -242q82 73 153 73q73 0 109 -51.5t20 -135.5l-63 -322h-120l63 319q14 81 -54 81zM404 885l83 -151h-98l-45 69l-72 -69h-106l142 151h96z" />
    <glyph glyph-name="Hbar" unicode="&#x126;" horiz-adv-x="690" 
d="M264 483l-18 -93h251l18 93h-251zM637 483l-94 -483h-122l55 281h-251l-55 -281h-121l94 483h-74l16 85h74l16 80h121l-16 -80h251l16 80h122l-16 -80h74l-16 -85h-74z" />
    <glyph glyph-name="hbar" unicode="&#x127;" horiz-adv-x="559" 
d="M336 400q-54 0 -129 -70l-64 -330h-119l106 542h-60l15 81h60l11 55h119l-11 -55h89l-16 -81h-88l-21 -106q82 73 153 73q73 0 109 -51.5t20 -135.5l-63 -322h-120l63 319q14 81 -54 81z" />
    <glyph glyph-name="Itilde" unicode="&#x128;" horiz-adv-x="289" 
d="M161 648h121l-126 -648h-121zM190 837q30 0 74 -28q30 -18 43 -18q20 0 43 40l66 -29q-29 -54 -55.5 -77t-58.5 -23q-34 0 -79 29q-26 17 -38 17q-18 0 -44 -40l-66 30q29 54 55.5 76.5t59.5 22.5z" />
    <glyph glyph-name="itilde" unicode="&#x129;" horiz-adv-x="265" 
d="M24 0l97 499h119l-97 -499h-119zM149 689q30 0 74 -28q30 -18 43 -18q20 0 43 40l66 -29q-29 -54 -55.5 -77t-58.5 -23q-34 0 -79 29q-26 17 -38 17q-18 0 -44 -40l-66 30q29 54 55.5 76.5t59.5 22.5z" />
    <glyph glyph-name="Imacron" unicode="&#x12a;" horiz-adv-x="289" 
d="M161 648h121l-126 -648h-121zM106 720l17 89h260l-17 -89h-260z" />
    <glyph glyph-name="imacron" unicode="&#x12b;" horiz-adv-x="265" 
d="M24 0l97 499h119l-97 -499h-119zM65 572l17 89h260l-17 -89h-260z" />
    <glyph glyph-name="Ibreve" unicode="&#x12c;" horiz-adv-x="289" 
d="M161 648h121l-126 -648h-121zM302 832h87l-3 -22q-14 -115 -144 -115q-63 0 -96 33t-23 85l4 19h86l-3 -20q-4 -19 6 -29.5t32 -10.5q44 0 50 39z" />
    <glyph glyph-name="ibreve" unicode="&#x12d;" horiz-adv-x="265" 
d="M24 0l97 499h119l-97 -499h-119zM261 684h87l-3 -22q-14 -115 -144 -115q-63 0 -96 33t-23 85l4 19h86l-3 -20q-4 -19 6 -29.5t32 -10.5q44 0 50 39z" />
    <glyph glyph-name="Iogonek" unicode="&#x12e;" horiz-adv-x="289" 
d="M94 -120l3 -63q-33 -16 -74 -16t-66 21.5t-25 58.5q0 71 104 124l125 643h121l-126 -648h-23l-21 -11q-83 -47 -83 -87q0 -28 31 -28q12 0 34 6z" />
    <glyph glyph-name="iogonek" unicode="&#x12f;" horiz-adv-x="265" 
d="M135 620q0 33 21 54t55 21q30 0 47.5 -16.5t17.5 -43.5q0 -32 -21.5 -53t-55.5 -21q-29 0 -46.5 16.5t-17.5 42.5zM82 -120l3 -63q-33 -16 -74 -16t-66 21.5t-25 58.5q0 73 105 124l96 494h119l-97 -499h-22l-21 -11q-83 -47 -83 -87q0 -28 31 -28q12 0 34 6z" />
    <glyph glyph-name="Idot" unicode="&#x130;" horiz-adv-x="289" 
d="M161 648h121l-126 -648h-121zM316 783q0 -32 -21 -53t-54 -21q-29 0 -46.5 16.5t-17.5 43.5q0 32 20.5 53t53.5 21q30 0 47.5 -16.5t17.5 -43.5z" />
    <glyph glyph-name="dotlessi" unicode="&#x131;" horiz-adv-x="265" 
d="M24 0l97 499h119l-97 -499h-119z" />
    <glyph glyph-name="IJ" unicode="&#x132;" horiz-adv-x="579" 
d="M161 648h121l-126 -648h-121zM338 71l112 577h121l-112 -575q-18 -95 -60 -153q-40 -58 -136 -125l-59 81q65 52 94 93q28 40 40 102z" />
    <glyph glyph-name="ij" unicode="&#x133;" horiz-adv-x="530" 
d="M135 620q0 33 21 54t55 21q30 0 47.5 -16.5t17.5 -43.5q0 -32 -21.5 -53t-55.5 -21q-29 0 -46.5 16.5t-17.5 42.5zM24 0l97 499h119l-97 -499h-119zM399 620q0 33 21.5 54t55.5 21q29 0 47 -16.5t18 -43.5q0 -33 -21.5 -53.5t-56.5 -20.5q-29 0 -46.5 16.5t-17.5 42.5z
M304 76l82 423h119l-81 -417q-19 -98 -62 -161q-42 -61 -135 -126l-62 83q69 50 97 92q28 40 42 106z" />
    <glyph glyph-name="Jcircumflex" unicode="&#x134;" horiz-adv-x="289" 
d="M49 71l112 577h121l-112 -575q-18 -95 -60 -153q-40 -58 -136 -125l-59 81q65 52 94 93q28 40 40 102zM309 850l83 -151h-98l-45 69l-72 -69h-106l142 151h96z" />
    <glyph glyph-name="jcircumflex" unicode="&#x135;" horiz-adv-x="265" 
d="M39 76l82 423h119l-81 -417q-19 -98 -62 -161q-42 -61 -135 -126l-62 83q69 50 97 92q28 40 42 106zM268 702l83 -151h-98l-45 69l-72 -69h-106l142 151h96z" />
    <glyph glyph-name="Kcommaaccent" unicode="&#x136;" horiz-adv-x="595" 
d="M396 374l143 -374h-130l-109 288l-110 -115l-34 -173h-121l126 648h121l-60 -308l291 308h138zM310 -50l-52 -173h-94l38 173h108z" />
    <glyph glyph-name="kcommaaccent" unicode="&#x137;" horiz-adv-x="520" 
d="M354 300l106 -300h-123l-78 225l-89 -86l-27 -139h-119l131 678h120l-78 -400l224 221h132zM270 -50l-52 -173h-94l38 173h108z" />
    <glyph glyph-name="kgreenlandic" unicode="&#x138;" horiz-adv-x="520" 
d="M354 300l106 -300h-123l-77 224l-90 -86l-27 -138h-119l97 499h119l-43 -220l224 220h132z" />
    <glyph glyph-name="Lacute" unicode="&#x139;" horiz-adv-x="488" 
d="M439 103l-20 -103h-384l126 648h121l-106 -545h263zM395 796l-108 -97h-108l136 162z" />
    <glyph glyph-name="lacute" unicode="&#x13a;" horiz-adv-x="265" 
d="M24 0l131 678h120l-132 -678h-119zM388 826l-108 -97h-108l136 162z" />
    <glyph glyph-name="Lcommaaccent" unicode="&#x13b;" horiz-adv-x="488" 
d="M439 103l-20 -103h-384l126 648h121l-106 -545h263zM274 -50l-52 -173h-94l38 173h108z" />
    <glyph glyph-name="lcommaaccent" unicode="&#x13c;" horiz-adv-x="265" 
d="M24 0l131 678h120l-132 -678h-119zM128 -50l-52 -173h-94l38 173h108z" />
    <glyph glyph-name="Lcaron" unicode="&#x13d;" horiz-adv-x="488" 
d="M439 103l-20 -103h-384l126 648h121l-106 -545h263zM502 648l-48 -168h-90l32 168h106z" />
    <glyph glyph-name="lcaron" unicode="&#x13e;" horiz-adv-x="356" 
d="M24 0l131 678h120l-132 -678h-119zM446 678l-48 -168h-90l32 168h106z" />
    <glyph glyph-name="Ldot" unicode="&#x13f;" horiz-adv-x="488" 
d="M439 103l-20 -103h-384l126 648h121l-106 -545h263zM479 370q0 -32 -21 -53t-55 -21q-29 0 -46.5 16.5t-17.5 43.5q0 32 21 53t54 21q29 0 47 -16.5t18 -43.5z" />
    <glyph glyph-name="ldot" unicode="&#x140;" horiz-adv-x="429" 
d="M24 0l131 678h120l-132 -678h-119zM438 370q0 -32 -21 -53t-55 -21q-29 0 -46.5 16.5t-17.5 43.5q0 32 21 53t54 21q29 0 47 -16.5t18 -43.5z" />
    <glyph glyph-name="Lslash" unicode="&#x141;" horiz-adv-x="512" 
d="M463 103l-20 -103h-380l52 266l-73 -24l-18 86l110 37l55 283h122l-47 -240l122 41l17 -86l-158 -53l-40 -207h258z" />
    <glyph glyph-name="lslash" unicode="&#x142;" horiz-adv-x="316" 
d="M340 348l-111 -39l-60 -309h-120l52 265l-60 -21l-26 78l104 36l62 320h119l-53 -276l69 24z" />
    <glyph glyph-name="Nacute" unicode="&#x143;" horiz-adv-x="658" 
d="M651 648l-126 -648h-152l-131 495l-96 -495h-111l126 648h150l132 -497l96 497h112zM579 796l-108 -97h-108l136 162z" />
    <glyph glyph-name="nacute" unicode="&#x144;" horiz-adv-x="564" 
d="M336 400q-54 0 -129 -70l-64 -330h-119l97 499h114l-13 -68q84 78 159 78q73 0 109 -51.5t20 -135.5l-63 -322h-120l63 319q14 81 -54 81zM504 648l-108 -97h-108l136 162z" />
    <glyph glyph-name="Ncommaaccent" unicode="&#x145;" horiz-adv-x="658" 
d="M651 648l-126 -648h-152l-131 495l-96 -495h-111l126 648h150l132 -497l96 497h112zM341 -50l-52 -173h-94l38 173h108z" />
    <glyph glyph-name="ncommaaccent" unicode="&#x146;" horiz-adv-x="564" 
d="M336 400q-54 0 -129 -70l-64 -330h-119l97 499h114l-13 -68q84 78 159 78q73 0 109 -51.5t20 -135.5l-63 -322h-120l63 319q14 81 -54 81zM277 -50l-52 -173h-94l38 173h108z" />
    <glyph glyph-name="Ncaron" unicode="&#x147;" horiz-adv-x="658" 
d="M651 648l-126 -648h-152l-131 495l-96 -495h-111l126 648h150l132 -497l96 497h112zM498 850h107l-142 -151h-96l-84 151h98l45 -69z" />
    <glyph glyph-name="ncaron" unicode="&#x148;" horiz-adv-x="564" 
d="M336 400q-54 0 -129 -70l-64 -330h-119l97 499h114l-13 -68q84 78 159 78q73 0 109 -51.5t20 -135.5l-63 -322h-120l63 319q14 81 -54 81zM423 702h107l-142 -151h-96l-84 151h98l45 -69z" />
    <glyph glyph-name="napostrophe" unicode="&#x149;" horiz-adv-x="564" 
d="M336 400q-54 0 -129 -70l-64 -330h-119l97 499h114l-13 -68q84 78 159 78q73 0 109 -51.5t20 -135.5l-63 -322h-120l63 319q14 81 -54 81zM283 724l-52 -173h-94l38 173h108z" />
    <glyph glyph-name="Eng" unicode="&#x14a;" horiz-adv-x="658" 
d="M341 -205l-57 79q52 39 79 67.5t42 61.5l-160 508l-99 -511h-111l126 648h151l141 -442l86 442h112l-112 -575q-19 -96 -60 -153q-39 -57 -138 -125z" />
    <glyph glyph-name="eng" unicode="&#x14b;" horiz-adv-x="564" 
d="M265 -205l-62 83q68 51 98 93q29 41 41 105l48 243q8 39 -6 60t-48 21q-54 0 -129 -70l-64 -330h-119l97 499h114l-13 -68q84 78 159 78q73 0 109 -51.5t20 -135.5l-48 -240q-20 -99 -61 -160q-44 -64 -136 -127z" />
    <glyph glyph-name="Omacron" unicode="&#x14c;" horiz-adv-x="642" 
d="M531 125q-93 -135 -235 -135q-110 0 -174 72q-65 73 -65 193q0 149 82 267q93 136 235 136q110 0 174 -73q65 -73 65 -193q0 -149 -82 -267zM184 253q0 -75 29.5 -114.5t84.5 -39.5q76 0 132 89q56 91 56 206q0 154 -114 154q-78 0 -133 -90q-55 -88 -55 -205zM277 720
l17 89h260l-17 -89h-260z" />
    <glyph glyph-name="omacron" unicode="&#x14d;" horiz-adv-x="533" 
d="M489 299q0 -127 -72 -219q-72 -90 -177 -90q-90 0 -144 57q-54 59 -54 153q0 127 71 218q72 91 178 91q90 0 144 -58q54 -57 54 -152zM163 201q0 -111 79 -111q53 0 89 60q37 61 37 147q0 111 -79 111q-53 0 -90 -60q-36 -60 -36 -147zM191 572l17 89h260l-17 -89h-260z
" />
    <glyph glyph-name="Obreve" unicode="&#x14e;" horiz-adv-x="642" 
d="M531 125q-93 -135 -235 -135q-110 0 -174 72q-65 73 -65 193q0 149 82 267q93 136 235 136q110 0 174 -73q65 -73 65 -193q0 -149 -82 -267zM184 253q0 -75 29.5 -114.5t84.5 -39.5q76 0 132 89q56 91 56 206q0 154 -114 154q-78 0 -133 -90q-55 -88 -55 -205zM473 832
h87l-3 -22q-14 -115 -144 -115q-63 0 -96 33t-23 85l4 19h86l-3 -20q-4 -19 6 -29.5t32 -10.5q44 0 50 39z" />
    <glyph glyph-name="obreve" unicode="&#x14f;" horiz-adv-x="533" 
d="M489 299q0 -127 -72 -219q-72 -90 -177 -90q-90 0 -144 57q-54 59 -54 153q0 127 71 218q72 91 178 91q90 0 144 -58q54 -57 54 -152zM163 201q0 -111 79 -111q53 0 89 60q37 61 37 147q0 111 -79 111q-53 0 -90 -60q-36 -60 -36 -147zM387 684h87l-3 -22
q-14 -115 -144 -115q-63 0 -96 33t-23 85l4 19h86l-3 -20q-4 -19 6 -29.5t32 -10.5q44 0 50 39z" />
    <glyph glyph-name="Ohungarumlaut" unicode="&#x150;" horiz-adv-x="642" 
d="M531 125q-93 -135 -235 -135q-110 0 -174 72q-65 73 -65 193q0 149 82 267q93 136 235 136q110 0 174 -73q65 -73 65 -193q0 -149 -82 -267zM184 253q0 -75 29.5 -114.5t84.5 -39.5q76 0 132 89q56 91 56 206q0 154 -114 154q-78 0 -133 -90q-55 -88 -55 -205zM457 796
l-83 -97h-99l110 162zM619 796l-95 -97h-98l121 162z" />
    <glyph glyph-name="ohungarumlaut" unicode="&#x151;" horiz-adv-x="533" 
d="M489 299q0 -127 -72 -219q-72 -90 -177 -90q-90 0 -144 57q-54 59 -54 153q0 127 71 218q72 91 178 91q90 0 144 -58q54 -57 54 -152zM163 201q0 -111 79 -111q53 0 89 60q37 61 37 147q0 111 -79 111q-53 0 -90 -60q-36 -60 -36 -147zM374 648l-83 -97h-99l110 162z
M536 648l-95 -97h-98l121 162z" />
    <glyph glyph-name="OE" unicode="&#x152;" horiz-adv-x="890" 
d="M182 252q0 -74 29.5 -113.5t84.5 -39.5q76 0 130 90q55 89 55 206q0 153 -113 153q-76 0 -131 -90q-55 -88 -55 -206zM813 103l-20 -103h-377l10 51q-66 -61 -145 -61q-103 0 -165 71q-62 73 -62 191q0 148 82 268q46 66 106.5 102t127.5 36q107 0 158 -82l14 72h377
l-20 -103h-260l-32 -164h222l-20 -103h-222l-34 -175h260z" />
    <glyph glyph-name="oe" unicode="&#x153;" horiz-adv-x="835" 
d="M721 123l26 -86q-77 -47 -163 -47q-120 0 -176 82q-68 -82 -168 -82q-89 0 -143 57q-54 59 -54 153q0 127 71 218q72 91 178 91q105 0 159 -79q70 79 167 79q85 0 135.5 -49t50.5 -130q0 -40 -14 -80l-39 -38h-266v-6q0 -116 112 -116q48 0 124 33zM696 319
q3 46 -18 70.5t-64 24.5q-39 0 -70 -30.5t-47 -84.5h197q0 4 0.5 7.5t1 5.5t0.5 4v3zM163 201q0 -111 80 -111q53 0 89 61q37 61 37 146q0 111 -80 111q-53 0 -90 -60q-36 -60 -36 -147z" />
    <glyph glyph-name="Racute" unicode="&#x154;" horiz-adv-x="594" 
d="M457 463q0 82 -98 82h-97l-37 -190h111q55 0 88 29.5t33 78.5zM427 271l90 -271h-127l-77 252h-108l-49 -252h-121l126 648h210q96 0 153 -47.5t57 -128.5q0 -72 -41 -125.5t-113 -75.5zM547 796l-108 -97h-108l136 162z" />
    <glyph glyph-name="racute" unicode="&#x155;" horiz-adv-x="369" 
d="M208 330l-65 -330h-119l97 499h114l-13 -73q47 44 88.5 63.5t89.5 19.5l-23 -116q-53 -2 -91 -16.5t-78 -46.5zM407 648l-108 -97h-108l136 162z" />
    <glyph glyph-name="Rcommaaccent" unicode="&#x156;" horiz-adv-x="594" 
d="M457 463q0 82 -98 82h-97l-37 -190h111q55 0 88 29.5t33 78.5zM427 271l90 -271h-127l-77 252h-108l-49 -252h-121l126 648h210q96 0 153 -47.5t57 -128.5q0 -72 -41 -125.5t-113 -75.5zM314 -50l-52 -173h-94l38 173h108z" />
    <glyph glyph-name="rcommaaccent" unicode="&#x157;" horiz-adv-x="369" 
d="M208 330l-65 -330h-119l97 499h114l-13 -73q47 44 88.5 63.5t89.5 19.5l-23 -116q-53 -2 -91 -16.5t-78 -46.5zM128 -50l-52 -173h-94l38 173h108z" />
    <glyph glyph-name="Rcaron" unicode="&#x158;" horiz-adv-x="594" 
d="M457 463q0 82 -98 82h-97l-37 -190h111q55 0 88 29.5t33 78.5zM427 271l90 -271h-127l-77 252h-108l-49 -252h-121l126 648h210q96 0 153 -47.5t57 -128.5q0 -72 -41 -125.5t-113 -75.5zM466 850h107l-142 -151h-96l-84 151h98l45 -69z" />
    <glyph glyph-name="rcaron" unicode="&#x159;" horiz-adv-x="369" 
d="M208 330l-65 -330h-119l97 499h114l-13 -73q47 44 88.5 63.5t89.5 19.5l-23 -116q-53 -2 -91 -16.5t-78 -46.5zM326 702h107l-142 -151h-96l-84 151h98l45 -69z" />
    <glyph glyph-name="Sacute" unicode="&#x15a;" horiz-adv-x="497" 
d="M443 186q0 -86 -62 -142q-61 -54 -163 -54q-130 0 -225 73l60 93q85 -62 168 -62q46 0 73 22t27 58q0 26 -18 49q-16 23 -77 63q-81 53 -106 92q-25 38 -25 88q0 84 61 138q62 54 158 54q116 0 202 -62l-60 -92q-74 49 -146 49q-43 0 -68.5 -21t-25.5 -56q0 -22 17 -44
q16 -20 74 -60q82 -55 109 -96q27 -40 27 -90zM498 796l-108 -97h-108l136 162z" />
    <glyph glyph-name="sacute" unicode="&#x15b;" horiz-adv-x="437" 
d="M378 154q0 -72 -54 -119q-52 -45 -140 -45q-110 0 -189 61l56 89q67 -52 139 -52q34 0 53 14t19 39q0 16 -14 29.5t-57 36.5q-71 37 -96 70q-24 33 -24 75q0 69 51.5 113t135.5 44q98 0 174 -54l-56 -88q-61 43 -123 43q-31 0 -48.5 -13t-17.5 -35q0 -16 14 -30t58 -37
q73 -38 95 -69q24 -32 24 -72zM441 648l-108 -97h-108l136 162z" />
    <glyph glyph-name="Scircumflex" unicode="&#x15c;" horiz-adv-x="497" 
d="M443 186q0 -86 -62 -142q-61 -54 -163 -54q-130 0 -225 73l60 93q85 -62 168 -62q46 0 73 22t27 58q0 26 -18 49q-16 23 -77 63q-81 53 -106 92q-25 38 -25 88q0 84 61 138q62 54 158 54q116 0 202 -62l-60 -92q-74 49 -146 49q-43 0 -68.5 -21t-25.5 -56q0 -22 17 -44
q16 -20 74 -60q82 -55 109 -96q27 -40 27 -90zM411 850l83 -151h-98l-45 69l-72 -69h-106l142 151h96z" />
    <glyph glyph-name="scircumflex" unicode="&#x15d;" horiz-adv-x="437" 
d="M378 154q0 -72 -54 -119q-52 -45 -140 -45q-110 0 -189 61l56 89q67 -52 139 -52q34 0 53 14t19 39q0 16 -14 29.5t-57 36.5q-71 37 -96 70q-24 33 -24 75q0 69 51.5 113t135.5 44q98 0 174 -54l-56 -88q-61 43 -123 43q-31 0 -48.5 -13t-17.5 -35q0 -16 14 -30t58 -37
q73 -38 95 -69q24 -32 24 -72zM354 702l83 -151h-98l-45 69l-72 -69h-106l142 151h96z" />
    <glyph glyph-name="Scedilla" unicode="&#x15e;" horiz-adv-x="497" 
d="M298 -115q0 -41 -33 -67.5t-87 -26.5q-47 0 -92 19l30 59q26 -13 54 -13q42 0 42 24q0 19 -33 19q-15 0 -34 -5l-18 31l40 68q-99 12 -174 70l60 93q85 -62 168 -62q46 0 73 22t27 58q0 26 -18 49q-16 23 -77 63q-81 53 -106 92q-25 38 -25 88q0 84 61 138q62 54 158 54
q116 0 202 -62l-60 -92q-74 49 -146 49q-43 0 -68.5 -21t-25.5 -56q0 -22 17 -44q16 -20 74 -60q82 -55 109 -96q27 -40 27 -90q0 -83 -57 -137q-56 -55 -150 -59l-15 -32q35 -3 56 -23t21 -50z" />
    <glyph glyph-name="scedilla" unicode="&#x15f;" horiz-adv-x="437" 
d="M258 -115q0 -41 -33 -67.5t-87 -26.5q-47 0 -92 19l30 59q26 -13 54 -13q42 0 42 24q0 19 -33 19q-15 0 -34 -5l-18 31l41 70q-78 13 -133 56l56 89q67 -52 139 -52q34 0 53 14t19 39q0 16 -14 29.5t-57 36.5q-71 37 -96 70q-24 33 -24 75q0 69 51.5 113t135.5 44
q98 0 174 -54l-56 -88q-61 43 -123 43q-31 0 -48.5 -13t-17.5 -35q0 -16 14 -30t58 -37q73 -38 95 -69q24 -32 24 -72q0 -70 -49.5 -115t-132.5 -49l-15 -32q35 -3 56 -23t21 -50z" />
    <glyph glyph-name="Scaron" unicode="&#x160;" horiz-adv-x="497" 
d="M443 186q0 -86 -62 -142q-61 -54 -163 -54q-130 0 -225 73l60 93q85 -62 168 -62q46 0 73 22t27 58q0 26 -18 49q-16 23 -77 63q-81 53 -106 92q-25 38 -25 88q0 84 61 138q62 54 158 54q116 0 202 -62l-60 -92q-74 49 -146 49q-43 0 -68.5 -21t-25.5 -56q0 -22 17 -44
q16 -20 74 -60q82 -55 109 -96q27 -40 27 -90zM417 850h107l-142 -151h-96l-84 151h98l45 -69z" />
    <glyph glyph-name="scaron" unicode="&#x161;" horiz-adv-x="437" 
d="M378 154q0 -72 -54 -119q-52 -45 -140 -45q-110 0 -189 61l56 89q67 -52 139 -52q34 0 53 14t19 39q0 16 -14 29.5t-57 36.5q-71 37 -96 70q-24 33 -24 75q0 69 51.5 113t135.5 44q98 0 174 -54l-56 -88q-61 43 -123 43q-31 0 -48.5 -13t-17.5 -35q0 -16 14 -30t58 -37
q73 -38 95 -69q24 -32 24 -72zM360 702h107l-142 -151h-96l-84 151h98l45 -69z" />
    <glyph glyph-name="uni0162" unicode="&#x162;" horiz-adv-x="498" 
d="M92 648h468l-20 -103h-174l-106 -545h-121l106 545h-174zM245 -50l-52 -173h-94l38 173h108z" />
    <glyph glyph-name="uni0163" unicode="&#x163;" horiz-adv-x="402" 
d="M331 111l9 -93q-59 -28 -121 -28q-78 0 -115.5 47t-21.5 127l46 240h-83l15 76l92 19l56 120h80l-23 -120h148l-18 -95h-149l-47 -240q-7 -37 5.5 -53t48.5 -16t78 16zM213 -50l-52 -173h-94l38 173h108z" />
    <glyph glyph-name="Tcaron" unicode="&#x164;" horiz-adv-x="498" 
d="M92 648h468l-20 -103h-174l-106 -545h-121l106 545h-174zM418 850h107l-142 -151h-96l-84 151h98l45 -69z" />
    <glyph glyph-name="tcaron" unicode="&#x165;" horiz-adv-x="402" 
d="M331 111l9 -93q-59 -28 -121 -28q-78 0 -115.5 47t-21.5 127l46 240h-83l15 76l92 19l56 120h80l-23 -120h148l-18 -95h-149l-47 -240q-7 -37 5.5 -53t48.5 -16t78 16zM473 733l-48 -168h-90l32 168h106z" />
    <glyph glyph-name="Tbar" unicode="&#x166;" horiz-adv-x="498" 
d="M327 347h107l-17 -86h-106l-51 -261h-121l51 261h-106l16 86h106l39 198h-174l21 103h468l-21 -103h-173z" />
    <glyph glyph-name="tbar" unicode="&#x167;" horiz-adv-x="402" 
d="M331 111l9 -93q-59 -28 -121 -28q-78 0 -115.5 47t-21.5 127l10 54h-72l16 85h73l19 101h-84l16 76l92 19l56 120h80l-23 -120h148l-18 -95h-149l-20 -101h115l-16 -85h-115l-11 -54q-7 -37 5.5 -53t48.5 -16t78 16z" />
    <glyph glyph-name="Utilde" unicode="&#x168;" horiz-adv-x="619" 
d="M292 96q108 0 132 126l83 426h117l-83 -426q-21 -113 -87 -172.5t-169 -59.5q-113 0 -175 69q-61 70 -42 173l81 416h121l-81 -421q-12 -60 16 -95.5t87 -35.5zM353 837q30 0 74 -28q30 -18 43 -18q20 0 43 40l66 -29q-29 -54 -55.5 -77t-58.5 -23q-34 0 -79 29
q-26 17 -38 17q-18 0 -44 -40l-66 30q29 54 55.5 76.5t59.5 22.5z" />
    <glyph glyph-name="utilde" unicode="&#x169;" horiz-adv-x="558" 
d="M532 499l-96 -499h-115l13 68q-82 -78 -158 -78q-72 0 -106 51.5t-17 135.5l62 322h119l-62 -320q-8 -39 5.5 -60t44.5 -21q51 0 127 70l64 331h119zM295 689q30 0 74 -28q30 -18 43 -18q20 0 43 40l66 -29q-29 -54 -55.5 -77t-58.5 -23q-34 0 -79 29q-26 17 -38 17
q-18 0 -44 -40l-66 30q29 54 55.5 76.5t59.5 22.5z" />
    <glyph glyph-name="Umacron" unicode="&#x16a;" horiz-adv-x="619" 
d="M292 96q108 0 132 126l83 426h117l-83 -426q-21 -113 -87 -172.5t-169 -59.5q-113 0 -175 69q-61 70 -42 173l81 416h121l-81 -421q-12 -60 16 -95.5t87 -35.5zM269 720l17 89h260l-17 -89h-260z" />
    <glyph glyph-name="umacron" unicode="&#x16b;" horiz-adv-x="558" 
d="M532 499l-96 -499h-115l13 68q-82 -78 -158 -78q-72 0 -106 51.5t-17 135.5l62 322h119l-62 -320q-8 -39 5.5 -60t44.5 -21q51 0 127 70l64 331h119zM211 572l17 89h260l-17 -89h-260z" />
    <glyph glyph-name="Ubreve" unicode="&#x16c;" horiz-adv-x="619" 
d="M292 96q108 0 132 126l83 426h117l-83 -426q-21 -113 -87 -172.5t-169 -59.5q-113 0 -175 69q-61 70 -42 173l81 416h121l-81 -421q-12 -60 16 -95.5t87 -35.5zM465 832h87l-3 -22q-14 -115 -144 -115q-63 0 -96 33t-23 85l4 19h86l-3 -20q-4 -19 6 -29.5t32 -10.5
q44 0 50 39z" />
    <glyph glyph-name="ubreve" unicode="&#x16d;" horiz-adv-x="558" 
d="M532 499l-96 -499h-115l13 68q-82 -78 -158 -78q-72 0 -106 51.5t-17 135.5l62 322h119l-62 -320q-8 -39 5.5 -60t44.5 -21q51 0 127 70l64 331h119zM407 684h87l-3 -22q-14 -115 -144 -115q-63 0 -96 33t-23 85l4 19h86l-3 -20q-4 -19 6 -29.5t32 -10.5q44 0 50 39z" />
    <glyph glyph-name="Uring" unicode="&#x16e;" horiz-adv-x="619" 
d="M292 96q108 0 132 126l83 426h117l-83 -426q-21 -113 -87 -172.5t-169 -59.5q-113 0 -175 69q-61 70 -42 173l81 416h121l-81 -421q-12 -60 16 -95.5t87 -35.5zM290 791q0 49 38 82t95 33q52 0 83.5 -26.5t31.5 -69.5q0 -49 -37.5 -82t-94.5 -33q-53 0 -84.5 26.5
t-31.5 69.5zM458 804q0 35 -41 35q-20 0 -33 -12t-13 -30q0 -36 41 -36q20 0 33 12.5t13 30.5z" />
    <glyph glyph-name="uring" unicode="&#x16f;" horiz-adv-x="558" 
d="M532 499l-96 -499h-115l13 68q-82 -78 -158 -78q-72 0 -106 51.5t-17 135.5l62 322h119l-62 -320q-8 -39 5.5 -60t44.5 -21q51 0 127 70l64 331h119zM232 643q0 49 38 82t95 33q52 0 83.5 -26.5t31.5 -69.5q0 -49 -37.5 -82t-94.5 -33q-53 0 -84.5 26.5t-31.5 69.5z
M400 656q0 35 -41 35q-20 0 -33 -12t-13 -30q0 -36 41 -36q20 0 33 12.5t13 30.5z" />
    <glyph glyph-name="Uhungarumlaut" unicode="&#x170;" horiz-adv-x="619" 
d="M292 96q108 0 132 126l83 426h117l-83 -426q-21 -113 -87 -172.5t-169 -59.5q-113 0 -175 69q-61 70 -42 173l81 416h121l-81 -421q-12 -60 16 -95.5t87 -35.5zM449 796l-83 -97h-99l110 162zM611 796l-95 -97h-98l121 162z" />
    <glyph glyph-name="uhungarumlaut" unicode="&#x171;" horiz-adv-x="558" 
d="M532 499l-96 -499h-115l13 68q-82 -78 -158 -78q-72 0 -106 51.5t-17 135.5l62 322h119l-62 -320q-8 -39 5.5 -60t44.5 -21q51 0 127 70l64 331h119zM391 648l-83 -97h-99l110 162zM553 648l-95 -97h-98l121 162z" />
    <glyph glyph-name="Uogonek" unicode="&#x172;" horiz-adv-x="619" 
d="M234 -199q-42 0 -67 21.5t-25 58.5q0 35 21.5 61t70.5 53q-91 15 -137 82q-46 66 -29 155l81 416h121l-81 -421q-12 -60 16 -95.5t87 -35.5q108 0 132 126l83 426h117l-83 -426q-18 -92 -62 -145.5t-134 -85.5q-105 -40 -105 -89q0 -28 31 -28q15 0 33 6l4 -63
q-33 -16 -74 -16z" />
    <glyph glyph-name="uogonek" unicode="&#x173;" horiz-adv-x="558" 
d="M378 -120l3 -63q-33 -16 -74 -16t-66 21.5t-25 58.5q0 73 106 125l12 62q-82 -78 -158 -78q-72 0 -106 51.5t-17 135.5l62 322h119l-62 -320q-8 -39 5.5 -60t44.5 -21q51 0 127 70l64 331h119l-96 -499h-19l-21 -11q-83 -47 -83 -87q0 -28 31 -28q12 0 34 6z" />
    <glyph glyph-name="Wcircumflex" unicode="&#x174;" horiz-adv-x="868" 
d="M923 648l-282 -648h-157l-33 338l-166 -338h-157l-30 648h119l13 -548l203 416l-13 132h117l41 -545l225 545h120zM597 850l83 -151h-98l-45 69l-72 -69h-106l142 151h96z" />
    <glyph glyph-name="wcircumflex" unicode="&#x175;" horiz-adv-x="749" 
d="M377 269l-133 -269h-142l-35 499h117l8 -416l168 339l-8 77h111l26 -416l170 416h118l-229 -499h-142zM504 702l83 -151h-98l-45 69l-72 -69h-106l142 151h96z" />
    <glyph glyph-name="Ycircumflex" unicode="&#x176;" horiz-adv-x="532" 
d="M606 648l-280 -405l-47 -243h-122l47 243l-125 405h122l82 -293l196 293h127zM429 850l83 -151h-98l-45 69l-72 -69h-106l142 151h96z" />
    <glyph glyph-name="ycircumflex" unicode="&#x177;" horiz-adv-x="498" 
d="M408 499h121l-337 -694h-119l100 195h-61l-48 499h120l26 -427zM385 702l83 -151h-98l-45 69l-72 -69h-106l142 151h96z" />
    <glyph glyph-name="Ydieresis" unicode="&#x178;" horiz-adv-x="532" 
d="M606 648l-280 -405l-47 -243h-122l47 243l-125 405h122l82 -293l196 293h127zM341 782q0 -31 -21 -52t-53 -21q-28 0 -45.5 16t-17.5 41q0 31 20.5 52t52.5 21q29 0 46.5 -16t17.5 -41zM528 782q0 -31 -21 -52t-53 -21q-28 0 -45.5 16t-17.5 41q0 31 20.5 52t52.5 21
q29 0 46.5 -16t17.5 -41z" />
    <glyph glyph-name="Zacute" unicode="&#x179;" horiz-adv-x="489" 
d="M157 100h270l-20 -100h-422l14 70l356 477h-259l19 101h413l-13 -71zM479 796l-108 -97h-108l136 162z" />
    <glyph glyph-name="zacute" unicode="&#x17a;" horiz-adv-x="431" 
d="M154 96h215l-19 -96h-363l13 70l275 333h-205l18 96h354l-14 -71zM432 648l-108 -97h-108l136 162z" />
    <glyph glyph-name="Zdotaccent" unicode="&#x17b;" horiz-adv-x="489" 
d="M157 100h270l-20 -100h-422l14 70l356 477h-259l19 101h413l-13 -71zM404 783q0 -32 -21 -53t-54 -21q-29 0 -46.5 16.5t-17.5 43.5q0 32 20.5 53t53.5 21q30 0 47.5 -16.5t17.5 -43.5z" />
    <glyph glyph-name="zdotaccent" unicode="&#x17c;" horiz-adv-x="431" 
d="M154 96h215l-19 -96h-363l13 70l275 333h-205l18 96h354l-14 -71zM355 635q0 -32 -21 -53t-54 -21q-29 0 -46.5 16.5t-17.5 43.5q0 32 20.5 53t53.5 21q30 0 47.5 -16.5t17.5 -43.5z" />
    <glyph glyph-name="Zcaron" unicode="&#x17d;" horiz-adv-x="489" 
d="M157 100h270l-20 -100h-422l14 70l356 477h-259l19 101h413l-13 -71zM413 850h107l-142 -151h-96l-84 151h98l45 -69z" />
    <glyph glyph-name="zcaron" unicode="&#x17e;" horiz-adv-x="431" 
d="M154 96h215l-19 -96h-363l13 70l275 333h-205l18 96h354l-14 -71zM357 702h107l-142 -151h-96l-84 151h98l45 -69z" />
    <glyph glyph-name="uni0191" unicode="&#x191;" horiz-adv-x="497" 
d="M428 264h-221l-37 -191q-18 -95 -60 -153q-40 -58 -136 -125l-59 81q65 52 94 93q28 40 40 102l112 577h381l-20 -103h-260l-35 -178h221z" />
    <glyph glyph-name="uni0192" unicode="&#x192;" horiz-adv-x="362" 
d="M379 404h-128l-63 -322q-19 -98 -62 -161q-42 -61 -135 -126l-61 83q68 51 96 93t42 105l63 328h-83l15 76l86 19l3 13q35 176 213 176q48 0 92 -14l-35 -89q-32 8 -58 8q-42 0 -63 -19.5t-30 -66.5l-2 -8h129z" />
    <glyph glyph-name="uni0218" unicode="&#x218;" horiz-adv-x="497" 
d="M443 186q0 -86 -62 -142q-61 -54 -163 -54q-130 0 -225 73l60 93q85 -62 168 -62q46 0 73 22t27 58q0 26 -18 49q-16 23 -77 63q-81 53 -106 92q-25 38 -25 88q0 84 61 138q62 54 158 54q116 0 202 -62l-60 -92q-74 49 -146 49q-43 0 -68.5 -21t-25.5 -56q0 -22 17 -44
q16 -20 74 -60q82 -55 109 -96q27 -40 27 -90zM248 -50l-52 -173h-94l38 173h108z" />
    <glyph glyph-name="uni0219" unicode="&#x219;" horiz-adv-x="437" 
d="M378 154q0 -72 -54 -119q-52 -45 -140 -45q-110 0 -189 61l56 89q67 -52 139 -52q34 0 53 14t19 39q0 16 -14 29.5t-57 36.5q-71 37 -96 70q-24 33 -24 75q0 69 51.5 113t135.5 44q98 0 174 -54l-56 -88q-61 43 -123 43q-31 0 -48.5 -13t-17.5 -35q0 -16 14 -30t58 -37
q73 -38 95 -69q24 -32 24 -72zM214 -50l-52 -173h-94l38 173h108z" />
    <glyph glyph-name="uni021A" unicode="&#x21a;" horiz-adv-x="498" 
d="M92 648h468l-20 -103h-174l-106 -545h-121l106 545h-174zM245 -50l-52 -173h-94l38 173h108z" />
    <glyph glyph-name="uni021B" unicode="&#x21b;" horiz-adv-x="402" 
d="M331 111l9 -93q-59 -28 -121 -28q-78 0 -115.5 47t-21.5 127l46 240h-83l15 76l92 19l56 120h80l-23 -120h148l-18 -95h-149l-47 -240q-7 -37 5.5 -53t48.5 -16t78 16zM213 -50l-52 -173h-94l38 173h108z" />
    <glyph glyph-name="dotlessj" unicode="&#x237;" horiz-adv-x="265" 
d="M39 76l82 423h119l-81 -417q-19 -98 -62 -161q-42 -61 -135 -126l-62 83q69 50 97 92q28 40 42 106z" />
    <glyph glyph-name="circumflex" unicode="&#x2c6;" horiz-adv-x="500" 
d="M385 702l83 -151h-98l-45 69l-72 -69h-106l142 151h96z" />
    <glyph glyph-name="caron" unicode="&#x2c7;" horiz-adv-x="500" 
d="M391 702h107l-142 -151h-96l-84 151h98l45 -69z" />
    <glyph glyph-name="breve" unicode="&#x2d8;" horiz-adv-x="500" 
d="M379 684h87l-3 -22q-14 -115 -144 -115q-63 0 -96 33t-23 85l4 19h86l-3 -20q-4 -19 6 -29.5t32 -10.5q44 0 50 39z" />
    <glyph glyph-name="dotaccent" unicode="&#x2d9;" horiz-adv-x="500" 
d="M392 635q0 -32 -21 -53t-54 -21q-29 0 -46.5 16.5t-17.5 43.5q0 32 20.5 53t53.5 21q30 0 47.5 -16.5t17.5 -43.5z" />
    <glyph glyph-name="ring" unicode="&#x2da;" horiz-adv-x="500" 
d="M203 643q0 49 38 82t95 33q52 0 83.5 -26.5t31.5 -69.5q0 -49 -37.5 -82t-94.5 -33q-53 0 -84.5 26.5t-31.5 69.5zM371 656q0 35 -41 35q-20 0 -33 -12t-13 -30q0 -36 41 -36q20 0 33 12.5t13 30.5z" />
    <glyph glyph-name="ogonek" unicode="&#x2db;" horiz-adv-x="500" 
d="M250 29l43 -29l-21 -11q-83 -47 -83 -87q0 -28 31 -28q12 0 34 6l3 -63q-33 -16 -74 -16t-66 21.5t-25 58.5q0 83 134 137z" />
    <glyph glyph-name="tilde" unicode="&#x2dc;" horiz-adv-x="500" 
d="M266 689q30 0 74 -28q30 -18 43 -18q20 0 43 40l66 -29q-29 -54 -55.5 -77t-58.5 -23q-34 0 -79 29q-26 17 -38 17q-18 0 -44 -40l-66 30q29 54 55.5 76.5t59.5 22.5z" />
    <glyph glyph-name="hungarumlaut" unicode="&#x2dd;" horiz-adv-x="500" 
d="M362 648l-83 -97h-99l110 162zM524 648l-95 -97h-98l121 162z" />
    <glyph glyph-name="pi" unicode="&#x3c0;" horiz-adv-x="590" 
d="M525 96l6 -88q-47 -18 -88 -18q-60 0 -88.5 39t-15.5 105l48 248h-148l-75 -382h-119l74 382h-70l21 108h536l-21 -108h-79l-49 -253q-6 -41 29 -41q13 0 39 8z" />
    <glyph glyph-name="Wgrave" unicode="&#x1e80;" horiz-adv-x="868" 
d="M641 0l282 648h-120l-225 -545l-41 545h-117l13 -132l-203 -416l-13 548h-119l30 -648h157l166 338l33 -338h157zM465 699l-108 97l80 65l136 -162h-108z" />
    <glyph glyph-name="wgrave" unicode="&#x1e81;" horiz-adv-x="749" 
d="M244 0l133 269l29 -269h142l229 499h-118l-170 -416l-26 416h-111l8 -77l-168 -339l-8 416h-117l35 -499h142zM372 551l-108 97l80 65l136 -162h-108z" />
    <glyph glyph-name="Wacute" unicode="&#x1e82;" horiz-adv-x="868" 
d="M923 648l-282 -648h-157l-33 338l-166 -338h-157l-30 648h119l13 -548l203 416l-13 132h117l41 -545l225 545h120zM684 796l-108 -97h-108l136 162z" />
    <glyph glyph-name="wacute" unicode="&#x1e83;" horiz-adv-x="749" 
d="M377 269l-133 -269h-142l-35 499h117l8 -416l168 339l-8 77h111l26 -416l170 416h118l-229 -499h-142zM591 648l-108 -97h-108l136 162z" />
    <glyph glyph-name="Wdieresis" unicode="&#x1e84;" horiz-adv-x="868" 
d="M923 648l-282 -648h-157l-33 338l-166 -338h-157l-30 648h119l13 -548l203 416l-13 132h117l41 -545l225 545h120zM509 782q0 -31 -21 -52t-53 -21q-28 0 -45.5 16t-17.5 41q0 31 20.5 52t52.5 21q29 0 46.5 -16t17.5 -41zM696 782q0 -31 -21 -52t-53 -21q-28 0 -45.5 16
t-17.5 41q0 31 20.5 52t52.5 21q29 0 46.5 -16t17.5 -41z" />
    <glyph glyph-name="wdieresis" unicode="&#x1e85;" horiz-adv-x="749" 
d="M377 269l-133 -269h-142l-35 499h117l8 -416l168 339l-8 77h111l26 -416l170 416h118l-229 -499h-142zM416 634q0 -31 -21 -52t-53 -21q-28 0 -45.5 16t-17.5 41q0 31 20.5 52t52.5 21q29 0 46.5 -16t17.5 -41zM603 634q0 -31 -21 -52t-53 -21q-28 0 -45.5 16t-17.5 41
q0 31 20.5 52t52.5 21q29 0 46.5 -16t17.5 -41z" />
    <glyph glyph-name="uni1E9E" unicode="&#x1e9e;" horiz-adv-x="671" 
d="M618 174q0 -79 -56 -132q-55 -52 -145 -52q-95 0 -161 41l54 92q55 -35 107 -35q37 0 59 21t22 57q0 45 -35 85.5t-113 85.5l123 197q-37 15 -88 15q-66 0 -104 -36.5t-53 -114.5l-78 -398h-121l77 398q25 128 97.5 194t187.5 66q132 0 233 -77l-135 -210
q67 -48 98 -94.5t31 -102.5z" />
    <glyph glyph-name="Ygrave" unicode="&#x1ef2;" horiz-adv-x="532" 
d="M326 243l280 405h-127l-196 -293l-82 293h-122l125 -405l-47 -243h122zM297 699l-108 97l80 65l136 -162h-108z" />
    <glyph glyph-name="ygrave" unicode="&#x1ef3;" horiz-adv-x="498" 
d="M529 499h-121l-198 -427l-26 427h-120l48 -499h61l-100 -195h119zM253 551l-108 97l80 65l136 -162h-108z" />
    <glyph glyph-name="endash" unicode="&#x2013;" horiz-adv-x="500" 
d="M79 325h370l-20 -102h-370z" />
    <glyph glyph-name="emdash" unicode="&#x2014;" horiz-adv-x="1000" 
d="M79 325h870l-20 -102h-870z" />
    <glyph glyph-name="quoteleft" unicode="&#x2018;" horiz-adv-x="247" 
d="M236 471q0 -32 -20.5 -53.5t-52.5 -21.5q-30 0 -48 18.5t-18 49.5q0 108 127 196l39 -47q-58 -44 -73 -83q46 -11 46 -59z" />
    <glyph glyph-name="quoteright" unicode="&#x2019;" horiz-adv-x="247" 
d="M256 590q0 -108 -127 -196l-38 47q36 29 50.5 45.5t21.5 37.5q-45 11 -45 59q0 32 20.5 53.5t52.5 21.5q30 0 47.5 -18.5t17.5 -49.5z" />
    <glyph glyph-name="quotesinglbase" unicode="&#x201a;" horiz-adv-x="247" 
d="M153 58q0 -52 -33 -103t-93 -92l-38 46q59 49 71 83q-45 11 -45 58q0 32 20.5 53.5t52.5 21.5q30 0 47.5 -18t17.5 -49z" />
    <glyph glyph-name="quotedblleft" unicode="&#x201c;" horiz-adv-x="440" 
d="M236 471q0 -32 -20.5 -53.5t-52.5 -21.5q-30 0 -48 18.5t-18 49.5q0 108 127 196l39 -47q-58 -44 -73 -83q46 -11 46 -59zM429 471q0 -32 -20.5 -53.5t-52.5 -21.5q-30 0 -48 18.5t-18 49.5q0 108 127 196l39 -47q-58 -44 -73 -83q46 -11 46 -59z" />
    <glyph glyph-name="quotedblright" unicode="&#x201d;" horiz-adv-x="440" 
d="M256 590q0 -108 -127 -196l-38 47q36 29 50.5 45.5t21.5 37.5q-45 11 -45 59q0 32 20.5 53.5t52.5 21.5q30 0 47.5 -18.5t17.5 -49.5zM449 590q0 -108 -127 -196l-38 47q36 29 50.5 45.5t21.5 37.5q-45 11 -45 59q0 32 20.5 53.5t52.5 21.5q30 0 47.5 -18.5t17.5 -49.5z
" />
    <glyph glyph-name="quotedblbase" unicode="&#x201e;" horiz-adv-x="440" 
d="M153 58q0 -52 -33 -103t-93 -92l-38 46q59 49 71 83q-45 11 -45 58q0 32 20.5 53.5t52.5 21.5q30 0 47.5 -18t17.5 -49zM346 58q0 -52 -33 -103t-93 -92l-38 46q59 49 71 83q-45 11 -45 58q0 32 20.5 53.5t52.5 21.5q30 0 47.5 -18t17.5 -49z" />
    <glyph glyph-name="dagger" unicode="&#x2020;" horiz-adv-x="432" 
d="M356 389l-64 15l-39 -276l-25 -128h-122l25 128l67 276l-69 -15h-83l21 105h82l61 -14l6 90l16 78h122l-15 -78l-29 -90l67 14h82l-20 -105h-83z" />
    <glyph glyph-name="daggerdbl" unicode="&#x2021;" horiz-adv-x="454" 
d="M314 141l-56 13l-4 -76l-15 -78h-123l16 78l25 76l-61 -13h-87l20 106h88l56 -13l6 90l28 86l-61 -12h-87l20 105h88l56 -12l4 79l15 78h123l-16 -78l-26 -79l62 12h87l-21 -105h-87l-56 12l-6 -86l-29 -90l62 13h87l-21 -106h-87z" />
    <glyph glyph-name="bullet" unicode="&#x2022;" horiz-adv-x="302" 
d="M61 323q0 49 33 83q34 34 82 34q42 0 70 -26.5t28 -66.5q0 -49 -34 -83t-82 -34q-42 0 -69.5 26.5t-27.5 66.5z" />
    <glyph glyph-name="ellipsis" unicode="&#x2026;" horiz-adv-x="703" 
d="M156 64q0 -32 -21 -53t-54 -21q-29 0 -47 16.5t-18 43.5q0 32 21 53.5t54 21.5q30 0 47.5 -16.5t17.5 -44.5zM383 64q0 -32 -21 -53t-54 -21q-29 0 -47 16.5t-18 43.5q0 32 21 53.5t54 21.5q30 0 47.5 -16.5t17.5 -44.5zM611 64q0 -32 -21 -53t-54 -21q-29 0 -47 16.5
t-18 43.5q0 32 21 53.5t54 21.5q30 0 47.5 -16.5t17.5 -44.5z" />
    <glyph glyph-name="perthousand" unicode="&#x2030;" horiz-adv-x="1099" 
d="M376 522q0 -80 -49 -135q-48 -55 -120 -55q-61 0 -98.5 36.5t-37.5 98.5q0 80 49 135q50 56 121 56q60 0 97.5 -37t37.5 -99zM601 648h107l-527 -648h-107zM164 471q0 -65 47 -65q30 0 51 32.5t21 79.5q0 65 -48 65q-30 0 -50.5 -32.5t-20.5 -79.5zM758 125q0 80 49 135
q50 56 121 56q60 0 97.5 -37t37.5 -99q0 -80 -49 -135q-48 -55 -120 -55q-61 0 -98.5 36.5t-37.5 98.5zM406 125q0 80 49 135q50 56 120 56q61 0 98.5 -37t37.5 -99q0 -80 -49 -135t-121 -55q-61 0 -98 36.5t-37 98.5zM970 176q0 65 -48 65q-29 0 -49.5 -32.5t-20.5 -79.5
q0 -65 47 -65q30 0 50.5 33t20.5 79zM618 176q0 65 -48 65q-30 0 -50.5 -32.5t-20.5 -79.5q0 -65 47 -65q30 0 51 32.5t21 79.5z" />
    <glyph glyph-name="guilsinglleft" unicode="&#x2039;" horiz-adv-x="320" 
d="M128 253l120 -85l-22 -114l-195 149l21 108l253 149l-23 -122z" />
    <glyph glyph-name="guilsinglright" unicode="&#x203a;" horiz-adv-x="320" 
d="M291 311l-21 -108l-254 -149l24 123l154 85l-121 85l22 113z" />
    <glyph glyph-name="fraction" unicode="&#x2044;" horiz-adv-x="181" 
d="M310 648h106l-516 -648h-106z" />
    <glyph glyph-name="zerosuperior" unicode="&#x2070;" horiz-adv-x="366" 
d="M403 611q0 -81 -49 -137q-50 -56 -121 -56q-64 0 -102 38.5t-38 103.5q0 81 49 136q49 57 122 57q63 0 101 -38.5t38 -103.5zM189 562q0 -64 48 -64q30 0 50 32.5t20 78.5q0 64 -48 64q-30 0 -50 -32.5t-20 -78.5z" />
    <glyph glyph-name="foursuperior" unicode="&#x2074;" horiz-adv-x="328" 
d="M315 543h45l-13 -67h-45l-10 -52h-81l10 52h-151l2 48q82 121 190 224h93zM162 543h72l23 119q-62 -73 -95 -119z" />
    <glyph glyph-name="fivesuperior" unicode="&#x2075;" horiz-adv-x="307" 
d="M328 540q0 -55 -39.5 -88t-105.5 -33q-64 0 -112 24l34 67q34 -17 78 -17q28 0 43.5 10.5t15.5 28.5q0 31 -44 31q-23 0 -59 -12l-29 18l48 179h201l-13 -73h-134l-13 -47q9 3 24 3q48 0 76.5 -25t28.5 -66z" />
    <glyph glyph-name="sixsuperior" unicode="&#x2076;" horiz-adv-x="301" 
d="M333 544q0 -53 -37 -89q-38 -36 -91 -36q-54 0 -87 32t-33 84q0 69 50.5 127.5t142.5 93.5l24 -60q-79 -30 -114 -79q25 16 56 16q40 0 64.5 -24.5t24.5 -64.5zM164 531q0 -20 11.5 -32t30.5 -12q22 0 35.5 14t13.5 36q0 33 -38 33q-26 0 -52 -20q-1 -4 -1 -19z" />
    <glyph glyph-name="sevensuperior" unicode="&#x2077;" horiz-adv-x="269" 
d="M198 438l-3 -14h-92l3 14q11 56 38 106q29 53 89 131h-130l14 73h231l-8 -41q-65 -83 -97 -143q-31 -62 -45 -126z" />
    <glyph glyph-name="eightsuperior" unicode="&#x2078;" horiz-adv-x="324" 
d="M339 519q0 -43 -37.5 -71.5t-96.5 -28.5q-56 0 -88.5 22t-32.5 59q0 56 75 87q-34 30 -34 68q0 42 34 70t86 28q49 0 79.5 -21.5t30.5 -55.5q0 -52 -66 -83q50 -32 50 -74zM243 694q-18 0 -29 -9t-11 -23q0 -22 37 -43q38 23 38 46q0 13 -9.5 21t-25.5 8zM165 511
q0 -34 43 -34q21 0 34 10.5t13 27.5q0 11 -10 20t-40 24q-40 -22 -40 -48z" />
    <glyph glyph-name="ninesuperior" unicode="&#x2079;" horiz-adv-x="301" 
d="M98 628q0 53 37 89q38 36 91 36q54 0 87 -32t33 -84q0 -69 -50.5 -127.5t-142.5 -93.5l-24 60q79 30 114 79q-25 -16 -56 -16q-40 0 -64.5 24.5t-24.5 64.5zM267 641q0 20 -11.5 32t-30.5 12q-22 0 -35.5 -14t-13.5 -36q0 -33 38 -33q26 0 52 20q1 4 1 19z" />
    <glyph glyph-name="zeroinferior" unicode="&#x2080;" horiz-adv-x="366" 
d="M301 87q0 -81 -49 -136q-50 -57 -121 -57q-64 0 -102 38.5t-38 103.5q0 81 49 136q50 57 122 57q63 0 101 -38.5t38 -103.5zM87 38q0 -64 48 -64q30 0 50 32.5t20 78.5q0 64 -48 64q-30 0 -50 -32.5t-20 -78.5z" />
    <glyph glyph-name="oneinferior" unicode="&#x2081;" horiz-adv-x="278" 
d="M142 -24h61l-15 -76h-222l15 76h70l33 173h-69l14 75h161z" />
    <glyph glyph-name="twoinferior" unicode="&#x2082;" horiz-adv-x="310" 
d="M101 -26h119l-14 -74h-242l12 63q98 66 136.5 101t38.5 61q0 28 -37 28q-28 0 -81 -22l-15 72q60 26 111 26q54 0 85 -24t31 -65q0 -45 -33 -83t-111 -83z" />
    <glyph glyph-name="threeinferior" unicode="&#x2083;" horiz-adv-x="306" 
d="M223 2q0 -49 -38 -78t-103 -29t-118 24l33 66q42 -18 81 -18q58 0 58 36q0 28 -37 28h-66l13 66h62q44 0 44 32q0 27 -41 27q-36 0 -77 -16l-8 68q55 21 104 21q53 0 82.5 -21t29.5 -60q0 -60 -65 -81q46 -18 46 -65z" />
    <glyph glyph-name="fourinferior" unicode="&#x2084;" horiz-adv-x="328" 
d="M214 19h45l-13 -67h-45l-10 -52h-81l10 52h-151l2 48q82 121 190 224h93zM61 19h72l23 119q-62 -73 -95 -119z" />
    <glyph glyph-name="fiveinferior" unicode="&#x2085;" horiz-adv-x="307" 
d="M226 16q0 -55 -39.5 -88t-105.5 -33q-64 0 -112 24l34 67q34 -17 78 -17q28 0 43.5 10.5t15.5 28.5q0 31 -44 31q-23 0 -59 -12l-29 18l48 179h201l-13 -73h-134l-13 -47q9 3 24 3q48 0 76.5 -25t28.5 -66z" />
    <glyph glyph-name="sixinferior" unicode="&#x2086;" horiz-adv-x="301" 
d="M232 20q0 -53 -37 -89t-91 -36t-87 32t-33 84q0 69 50.5 127.5t142.5 93.5l24 -60q-79 -30 -114 -79q25 16 56 16q40 0 64.5 -24.5t24.5 -64.5zM63 7q0 -20 11.5 -32t30.5 -12q22 0 35.5 14t13.5 36q0 33 -38 33q-26 0 -52 -20q-1 -4 -1 -19z" />
    <glyph glyph-name="seveninferior" unicode="&#x2087;" horiz-adv-x="270" 
d="M97 -86l-3 -14h-92l3 14q11 56 38 106q29 53 89 131h-130l14 73h231l-8 -41q-65 -83 -97 -143q-32 -62 -45 -126z" />
    <glyph glyph-name="eightinferior" unicode="&#x2088;" horiz-adv-x="322" 
d="M237 -5q0 -43 -37.5 -71.5t-96.5 -28.5q-56 0 -88.5 22t-32.5 59q0 56 75 87q-34 30 -34 68q0 42 34 70t86 28q49 0 79.5 -21.5t30.5 -55.5q0 -52 -66 -83q50 -32 50 -74zM141 170q-18 0 -29 -9t-11 -23q0 -22 37 -43q38 23 38 46q0 13 -9.5 21t-25.5 8zM63 -13
q0 -34 43 -34q21 0 34 10.5t13 27.5q0 11 -10 20t-40 24q-40 -22 -40 -48z" />
    <glyph glyph-name="nineinferior" unicode="&#x2089;" horiz-adv-x="301" 
d="M-3 104q0 53 37 89t91 36t87 -32t33 -84q0 -69 -50.5 -127.5t-142.5 -93.5l-24 60q79 30 114 79q-25 -16 -56 -16q-40 0 -64.5 24.5t-24.5 64.5zM166 117q0 20 -11.5 32t-30.5 12q-22 0 -35.5 -14t-13.5 -36q0 -33 38 -33q26 0 52 20q1 4 1 19z" />
    <glyph glyph-name="colonmonetary" unicode="&#x20a1;" horiz-adv-x="533" 
d="M443 138l32 -93q-75 -46 -142 -53l-28 -93l-94 10l27 88q-24 5 -45 14l-32 -103l-94 11l47 149q-58 67 -58 183q0 136 61 242t162 145l34 111l94 -10l-25 -81h3q31 0 46 -3l26 85l94 -10l-31 -100q23 -11 47 -28l-68 -95q-58 41 -121 41q-84 0 -139 -87q-56 -86 -56 -209
q0 -75 33.5 -114t97.5 -39q58 0 129 39z" />
    <glyph glyph-name="uni20A9" unicode="&#x20a9;" horiz-adv-x="983" 
d="M788 205l-89 -205h-158l-29 339l-170 -339h-156l-9 205h-125l18 93h102l-2 58h-109l19 93h85l-9 199h119l13 -549l208 419l-11 130h117l34 -545l225 545h120l-87 -199h86l-18 -93h-108l-25 -58h102l-18 -93h-125z" />
    <glyph glyph-name="uni20AA" unicode="&#x20aa;" horiz-adv-x="842" 
d="M583 294l-20 -103h-114l21 108q11 53 -18 77t-102 24q-64 0 -140 -21l-74 -379h-118l88 458q141 51 255 51q128 0 185.5 -55.5t36.5 -159.5zM256 204l20 103h113l-21 -108q-10 -53 19 -77t102 -24q60 0 139 21l74 380h119l-89 -458q-136 -51 -254 -51q-129 0 -186 55
t-36 159z" />
    <glyph glyph-name="dong" unicode="&#x20ab;" horiz-adv-x="577" 
d="M160 185q0 -90 75 -90q61 0 119 91l35 182q-40 41 -94 41q-59 0 -97 -65t-38 -159zM542 542l-106 -542h-114l13 64q-59 -74 -136 -74q-72 0 -115.5 52.5t-43.5 139.5q0 138 70 232q71 95 176 95q72 0 122 -45l15 78h-93l16 81h92l11 55h119l-11 -55h56l-15 -81h-56z
M9 -57h416l-18 -92h-415z" />
    <glyph glyph-name="Euro" unicode="&#x20ac;" horiz-adv-x="576" 
d="M493 132l31 -87q-87 -55 -174 -55q-101 0 -164.5 57t-75.5 160h-88l17 88h71q1 23 8 59h-67l17 88h76q41 102 117.5 159t171.5 57q102 0 182 -57l-63 -88q-57 41 -123 41q-99 0 -157 -112h207l-18 -88h-222q-1 -2 -9 -59h200l-17 -88h-182q18 -114 131 -114q57 0 131 39z
" />
    <glyph glyph-name="uni20AD" unicode="&#x20ad;" horiz-adv-x="640" 
d="M441 319l122 -319h-131l-109 287l-105 -111l-34 -176h-121l62 319h-84l18 93h84l46 236h121l-59 -304l285 304h139l-219 -236h158l-18 -93h-155z" />
    <glyph glyph-name="uni20AE" unicode="&#x20ae;" horiz-adv-x="527" 
d="M327 267l100 32l16 -83l-134 -42l-34 -174h-121l26 133l-108 -34l-16 83l142 45l12 61l-108 -34l-16 83l142 44l32 164h-174l21 103h468l-20 -103h-174l-24 -123l100 31l16 -83l-134 -42z" />
    <glyph glyph-name="uni20B1" unicode="&#x20b1;" horiz-adv-x="712" 
d="M362 237h-116l-46 -237h-122l64 330h-84l18 89h83l12 58h-84l17 88h84l16 83h205q128 0 183 -83h147l-17 -88h-101v-13q0 -29 -4 -45h74l-17 -89h-97q-70 -93 -215 -93zM498 458q0 41 -24.5 64t-68.5 23h-99l-40 -205h99q60 0 96.5 32.5t36.5 85.5z" />
    <glyph glyph-name="uni20B4" unicode="&#x20b4;" horiz-adv-x="580" 
d="M445 145l31 -96q-109 -59 -215 -59q-93 0 -145.5 42t-52.5 116q0 38 18 69h-47l16 83h118q45 32 106 59h-192l16 84h291q24 24 24 54q0 56 -77 56q-68 0 -153 -43l-28 96q103 52 191 52t138.5 -40t50.5 -109q0 -30 -17 -66h55l-17 -84h-110q-35 -29 -96 -59h175l-17 -83
h-296q-27 -27 -27 -60q0 -30 22.5 -46.5t64.5 -16.5q74 0 173 51z" />
    <glyph glyph-name="uni20B5" unicode="&#x20b5;" horiz-adv-x="532" 
d="M443 138l32 -93q-84 -53 -164 -55l-17 -84h-105l19 99q-73 25 -113 89t-40 157q0 157 78 269q78 113 201 134l18 88h105l-17 -88q72 -12 127 -52l-68 -95q-57 41 -121 41q-83 0 -140 -87q-56 -86 -56 -209q0 -75 34 -114t97 -39q55 0 130 39z" />
    <glyph glyph-name="uni20B8" unicode="&#x20b8;" horiz-adv-x="541" 
d="M93 545l20 103h468l-20 -103h-468zM82 486h468l-20 -103h-173l-75 -383h-121l74 383h-173z" />
    <glyph glyph-name="uni20B9" unicode="&#x20b9;" horiz-adv-x="555" 
d="M460 492h93l-15 -80h-85q-13 -49 -48 -85t-87 -54l91 -273h-127l-77 252h-153l20 103h151q76 0 106 57h-246l15 80h238q-17 53 -95 53h-133l21 103h475l-16 -80h-158q26 -36 30 -76z" />
    <glyph glyph-name="uni20BA" unicode="&#x20ba;" horiz-adv-x="583" 
d="M354 0h-263l38 195l-85 -27l-16 83l119 38l12 61l-85 -27l-16 83l119 37l40 205h122l-32 -164l122 38l16 -82l-156 -49l-12 -61l122 38l16 -83l-156 -49l-26 -133h135q58 0 66 48l7 35h105l-7 -35q-15 -79 -59 -115t-126 -36z" />
    <glyph glyph-name="uni20BC" unicode="&#x20bc;" horiz-adv-x="810" 
d="M172 244l-48 -244h-122l48 242q26 135 107.5 197.5t236.5 68.5l27 140h121l-28 -143q141 -14 202.5 -81.5t39.5 -181.5l-47 -242h-122l48 244q14 70 -20 106t-122 44l-61 -314h-121l61 315q-92 -7 -139 -42.5t-61 -108.5z" />
    <glyph glyph-name="uni20BD" unicode="&#x20bd;" horiz-adv-x="599" 
d="M217 169h157l-17 -88h-157l-16 -81h-122l16 81h-83l16 88h84l13 68h-83l20 103h83l60 308h205q94 0 153 -50t59 -134q0 -100 -72 -164q-72 -63 -187 -63h-116zM482 458q0 41 -24.5 64t-68.5 23h-99l-40 -205h99q60 0 96.5 32.5t36.5 85.5z" />
    <glyph glyph-name="uni2113" unicode="&#x2113;" horiz-adv-x="431" 
d="M193 -10q-75 0 -111.5 47t-21.5 125l64 329q35 180 179 180q64 0 103 -36t39 -97q0 -92 -72 -181q-69 -85 -190 -145l-10 -52q-13 -74 47 -74q34 0 81 20l14 -83q-61 -33 -122 -33zM298 585q-42 0 -60 -88l-36 -185q63 48 98 108t35 120q0 45 -37 45z" />
    <glyph glyph-name="uni2116" unicode="&#x2116;" horiz-adv-x="1019" 
d="M709 470q0 76 47 132q48 56 120 56q63 0 101 -38t38 -100q0 -78 -48 -133t-120 -55q-63 0 -100.5 37.5t-37.5 100.5zM921 518q0 65 -49 65q-30 0 -50 -33t-20 -79q0 -65 49 -65q29 0 49.5 33.5t20.5 78.5zM651 648l-126 -648h-152l-131 495l-96 -495h-111l126 648h150
l132 -497l96 497h112zM672 264h290l-19 -97h-290z" />
    <glyph glyph-name="trademark" unicode="&#x2122;" horiz-adv-x="621" 
d="M97 648h212l-14 -68h-66l-44 -222h-78l43 222h-67zM577 559l-71 -118h-64l-26 119l-39 -202h-74l56 290h96l30 -130l80 130h103l-57 -290h-73z" />
    <glyph glyph-name="Omega" unicode="&#x2126;" horiz-adv-x="747" 
d="M200 330q0 -63 26 -116t83 -106l-25 -108h-250l19 95h163q-68 43 -105 106t-37 136q0 134 96 227q95 94 239 94q135 0 220 -76q85 -75 85 -190q0 -92 -58.5 -170.5t-162.5 -126.5h140l-19 -95h-250l17 108q92 42 147 115q57 73 57 157q0 78 -48.5 126t-128.5 48
q-90 0 -149 -66q-59 -65 -59 -158z" />
    <glyph glyph-name="estimated" unicode="&#x212e;" horiz-adv-x="712" 
d="M662 264v-7h-496q-4 0 -4 -3v-150q0 -11 7 -18q77 -80 188 -80q116 0 197 90h44q-43 -50 -107 -78.5t-135 -28.5q-126 0 -217 80q-89 81 -89 195q0 115 89 196q90 81 217 81q128 0 216 -81q90 -81 90 -196zM550 276v151q0 11 -8 19q-75 78 -185 78q-112 0 -187 -81
q-8 -6 -8 -19v-148q0 -4 4 -4h381q3 0 3 4z" />
    <glyph glyph-name="onethird" unicode="&#x2153;" horiz-adv-x="758" 
d="M224 400h61l-15 -76h-222l15 76h70l33 173h-69l14 75h161zM588 648h106l-516 -648h-106zM694 102q0 -49 -38 -78t-103 -29t-118 24l33 66q42 -18 81 -18q58 0 58 36q0 28 -37 28h-66l13 66h62q44 0 44 32q0 27 -41 27q-36 0 -77 -16l-8 68q55 21 104 21q53 0 82.5 -21
t29.5 -60q0 -60 -65 -81q46 -18 46 -65z" />
    <glyph glyph-name="twothirds" unicode="&#x2154;" horiz-adv-x="790" 
d="M182 398h119l-14 -74h-242l12 63q98 66 136.5 101t38.5 61q0 28 -37 28q-28 0 -81 -22l-15 72q60 26 111 26q54 0 85 -24t31 -65q0 -45 -33 -83t-111 -83zM619 648h106l-516 -648h-106zM726 102q0 -49 -38 -78t-103 -29t-118 24l33 66q42 -18 81 -18q58 0 58 36
q0 28 -37 28h-66l13 66h62q44 0 44 32q0 27 -41 27q-36 0 -77 -16l-8 68q55 21 104 21q53 0 82.5 -21t29.5 -60q0 -60 -65 -81q46 -18 46 -65z" />
    <glyph glyph-name="oneeighth" unicode="&#x215b;" horiz-adv-x="764" 
d="M224 400h61l-15 -76h-222l15 76h70l33 173h-69l14 75h161zM588 648h106l-516 -648h-106zM698 95q0 -43 -37.5 -71.5t-96.5 -28.5q-56 0 -88.5 22t-32.5 59q0 56 75 87q-34 30 -34 68q0 42 34 70t86 28q49 0 79.5 -21.5t30.5 -55.5q0 -52 -66 -83q50 -32 50 -74zM602 270
q-18 0 -29 -9t-11 -23q0 -22 37 -43q38 23 38 46q0 13 -9.5 21t-25.5 8zM524 87q0 -34 43 -34q21 0 34 10.5t13 27.5q0 11 -10 20t-40 24q-40 -22 -40 -48z" />
    <glyph glyph-name="threeeighths" unicode="&#x215c;" horiz-adv-x="792" 
d="M306 426q0 -49 -38 -78t-103 -29q-66 0 -118 24l33 66q42 -18 81 -18q58 0 58 36q0 28 -37 28h-66l13 66h62q44 0 44 32q0 27 -41 27q-36 0 -77 -16l-8 68q55 21 104 21q53 0 82.5 -21t29.5 -60q0 -60 -65 -81q46 -18 46 -65zM616 648h106l-516 -648h-106zM726 95
q0 -43 -37.5 -71.5t-96.5 -28.5q-56 0 -88.5 22t-32.5 59q0 56 75 87q-34 30 -34 68q0 42 34 70t86 28q49 0 79.5 -21.5t30.5 -55.5q0 -52 -66 -83q50 -32 50 -74zM630 270q-18 0 -29 -9t-11 -23q0 -22 37 -43q38 23 38 46q0 13 -9.5 21t-25.5 8zM552 87q0 -34 43 -34
q21 0 34 10.5t13 27.5q0 11 -10 20t-40 24q-40 -22 -40 -48z" />
    <glyph glyph-name="fiveeighths" unicode="&#x215d;" horiz-adv-x="793" 
d="M309 440q0 -55 -39.5 -88t-105.5 -33q-64 0 -112 24l34 67q34 -17 78 -17q28 0 43.5 10.5t15.5 28.5q0 31 -44 31q-23 0 -59 -12l-29 18l48 179h201l-13 -73h-134l-13 -47q9 3 24 3q48 0 76.5 -25t28.5 -66zM616 648h106l-516 -648h-106zM727 95q0 -43 -37.5 -71.5
t-96.5 -28.5q-56 0 -88.5 22t-32.5 59q0 56 75 87q-34 30 -34 68q0 42 34 70t86 28q49 0 79.5 -21.5t30.5 -55.5q0 -52 -66 -83q50 -32 50 -74zM631 270q-18 0 -29 -9t-11 -23q0 -22 37 -43q38 23 38 46q0 13 -9.5 21t-25.5 8zM553 87q0 -34 43 -34q21 0 34 10.5t13 27.5
q0 11 -10 20t-40 24q-40 -22 -40 -48z" />
    <glyph glyph-name="seveneighths" unicode="&#x215e;" horiz-adv-x="756" 
d="M179 338l-3 -14h-92l3 14q11 56 38 106q29 53 89 131h-130l14 73h231l-8 -41q-65 -83 -97 -143q-32 -62 -45 -126zM579 648h106l-516 -648h-106zM690 95q0 -43 -37.5 -71.5t-96.5 -28.5q-56 0 -88.5 22t-32.5 59q0 56 75 87q-34 30 -34 68q0 42 34 70t86 28
q49 0 79.5 -21.5t30.5 -55.5q0 -52 -66 -83q50 -32 50 -74zM594 270q-18 0 -29 -9t-11 -23q0 -22 37 -43q38 23 38 46q0 13 -9.5 21t-25.5 8zM516 87q0 -34 43 -34q21 0 34 10.5t13 27.5q0 11 -10 20t-40 24q-40 -22 -40 -48z" />
    <glyph glyph-name="arrowleft" unicode="&#x2190;" horiz-adv-x="544" 
d="M509 278h-340l95 -81l-60 -71l-174 163v81l174 163l60 -71l-95 -81h340v-103z" />
    <glyph glyph-name="arrowup" unicode="&#x2191;" horiz-adv-x="544" 
d="M220 81v340l-81 -95l-71 60l163 174h81l163 -174l-71 -60l-81 95v-340h-103z" />
    <glyph glyph-name="arrowright" unicode="&#x2192;" horiz-adv-x="544" 
d="M35 359h339l-95 81l61 71l174 -163v-80l-174 -164l-61 71l95 81h-339v103z" />
    <glyph glyph-name="arrowdown" unicode="&#x2193;" horiz-adv-x="544" 
d="M323 564v-340l81 95l71 -60l-163 -174h-81l-163 174l71 60l81 -95v340h103z" />
    <glyph glyph-name="uni2194" unicode="&#x2194;" horiz-adv-x="671" 
d="M646 370v-81l-174 -163l-60 71l95 81h-344l95 -81l-60 -71l-174 163v81l174 163l60 -71l-95 -81h344l-95 81l60 71z" />
    <glyph glyph-name="uni2195" unicode="&#x2195;" horiz-adv-x="544" 
d="M404 251l71 -60l-163 -174h-81l-163 174l71 60l81 -95v343l-81 -95l-71 60l163 175h81l163 -175l-71 -60l-81 95v-343z" />
    <glyph glyph-name="uni2196" unicode="&#x2196;" horiz-adv-x="544" 
d="M370 424l-124 4l244 -244l-72 -72l-244 244l5 -135h-92v238l56 57h233z" />
    <glyph glyph-name="uni2197" unicode="&#x2197;" horiz-adv-x="544" 
d="M369 356l-244 -244l-72 72l244 244l-123 -4l-7 92h233l57 -57v-238h-93z" />
    <glyph glyph-name="uni2198" unicode="&#x2198;" horiz-adv-x="544" 
d="M174 204l123 -5l-244 244l72 73l244 -244l-5 135h93v-238l-57 -57h-233z" />
    <glyph glyph-name="uni2199" unicode="&#x2199;" horiz-adv-x="544" 
d="M174 272l244 244l72 -73l-244 -244l124 5l6 -92h-233l-56 57v238h92z" />
    <glyph glyph-name="partialdiff" unicode="&#x2202;" horiz-adv-x="540" 
d="M448 153q-45 -77 -106 -120t-127 -43q-84 0 -139 50q-53 51 -53 132q0 107 73 187q74 81 175 81q49 0 85 -21t51 -58q8 45 8 82q0 114 -99 114q-22 0 -49 -7l1 98q29 10 69 10q85 0 135 -59.5t50 -160.5q0 -154 -74 -285zM140 179q0 -43 21.5 -66.5t59.5 -23.5
q50 0 89 53q39 52 39 114q0 40 -21 62.5t-58 22.5q-53 0 -92 -51q-38 -52 -38 -111z" />
    <glyph glyph-name="increment" unicode="&#x2206;" horiz-adv-x="574" 
d="M450 648l60 -648h-543l311 648h172zM348 564l-212 -459h246z" />
    <glyph glyph-name="product" unicode="&#x220f;" horiz-adv-x="662" 
d="M655 648l-150 -770h-122l129 661h-251l-128 -661h-122l150 770h494z" />
    <glyph glyph-name="summation" unicode="&#x2211;" horiz-adv-x="505" 
d="M365 265l-225 -282h293l-20 -105h-449l16 85l252 309l-133 294l16 82h435l-21 -109h-289z" />
    <glyph glyph-name="minus" unicode="&#x2212;" horiz-adv-x="438" 
d="M50 356h378l-20 -102h-378z" />
    <glyph glyph-name="uni2215" unicode="&#x2215;" horiz-adv-x="181" 
d="M310 648h106l-516 -648h-106z" />
    <glyph glyph-name="radical" unicode="&#x221a;" horiz-adv-x="575" 
d="M676 698l-356 -698h-154l-46 382l-74 -19l-10 87l189 53l36 -395l295 590h120z" />
    <glyph glyph-name="infinity" unicode="&#x221e;" horiz-adv-x="736" 
d="M724 343q0 -91 -55 -152q-56 -62 -137 -62q-111 0 -159 101q-80 -101 -166 -101q-76 0 -122 46.5t-46 123.5q0 91 56 153q57 63 140 63q109 0 156 -104q81 104 168 104q74 0 119.5 -47.5t45.5 -124.5zM148 306q0 -35 18.5 -55t50.5 -20q24 0 49.5 20.5t61.5 71.5
q-21 50 -41.5 69.5t-51.5 19.5q-37 0 -62 -30.5t-25 -75.5zM434 317q20 -47 41.5 -66.5t52.5 -19.5q39 0 62.5 29t23.5 75q0 36 -17 56.5t-48 20.5q-26 0 -51.5 -20.5t-63.5 -74.5z" />
    <glyph glyph-name="integral" unicode="&#x222b;" horiz-adv-x="388" 
d="M-37 -205q-47 0 -91 14l34 89q34 -8 59 -8q41 0 62 19t30 65l98 508q35 175 213 175q47 0 91 -14l-34 -89q-32 8 -58 8q-42 0 -63 -18.5t-31 -65.5l-98 -507q-32 -176 -212 -176z" />
    <glyph glyph-name="approxequal" unicode="&#x2248;" horiz-adv-x="438" 
d="M264 462q48 -21 71 -21q32 0 79 39l42 -71q-65 -71 -134 -71q-32 0 -92 25q-44 20 -66 20q-29 0 -80 -37l-40 72q74 68 133 68q33 0 87 -24zM227 273q48 -21 71 -21q35 0 79 39l42 -71q-69 -72 -134 -72q-32 0 -91 25q-46 20 -66 20q-31 0 -81 -37l-40 73q74 68 133 68
q33 0 87 -24z" />
    <glyph glyph-name="notequal" unicode="&#x2260;" horiz-adv-x="438" 
d="M256 269h155l-20 -102h-187l-41 -80h-100l41 80h-91l20 102h123l48 94h-153l20 102h185l40 78h100l-40 -78h93l-20 -102h-125z" />
    <glyph glyph-name="lessequal" unicode="&#x2264;" horiz-adv-x="438" 
d="M159 368l243 -94l-24 -121l-338 160l23 119l401 161l-26 -131zM-1 100h369l-19 -100h-369z" />
    <glyph glyph-name="greaterequal" unicode="&#x2265;" horiz-adv-x="438" 
d="M445 432l-23 -119l-402 -160l26 130l281 94l-245 95l24 121zM381 100l-20 -100h-369l19 100h370z" />
    <glyph glyph-name="lozenge" unicode="&#x25ca;" horiz-adv-x="472" 
d="M254 648h118l103 -324l-229 -324h-118l-103 324zM298 547l-158 -232l63 -213l159 232z" />
    <glyph glyph-name="commaaccent" unicode="&#xf6c3;" horiz-adv-x="500" 
d="M245 -50l-52 -173h-94l38 173h108z" />
    <glyph glyph-name="kgreenlandic.case" horiz-adv-x="750" 
d="M764 471q0 -32 -20.5 -53.5t-52.5 -21.5q-30 0 -48 18.5t-18 49.5q0 108 127 196l39 -47q-58 -44 -73 -83q46 -11 46 -59zM396 374l143 -374h-130l-109 288l-110 -115l-34 -173h-121l126 648h121l-60 -308l291 308h138z" />
    <glyph glyph-name="napostrophe.case" horiz-adv-x="773" 
d="M766 648l-126 -648h-152l-131 495l-96 -495h-111l126 648h150l132 -497l96 497h112zM214 648l-52 -173h-94l38 173h108z" />
    <glyph glyph-name="i.dot" horiz-adv-x="265" 
d="M135 620q0 33 21 54t55 21q30 0 47.5 -16.5t17.5 -43.5q0 -32 -21.5 -53t-55.5 -21q-29 0 -46.5 16.5t-17.5 42.5zM24 0l97 499h119l-97 -499h-119z" />
    <glyph glyph-name="caron.alt" horiz-adv-x="500" 
d="M385 678l-48 -168h-90l32 168h106z" />
    <glyph glyph-name="revcommaaccent" horiz-adv-x="499" 
d="M254 550l52 173h94l-38 -173h-108z" />
    <glyph glyph-name="zero.tlf" horiz-adv-x="559" 
d="M473 141q-43 -72 -102 -111.5t-126 -39.5q-94 0 -148.5 64.5t-54.5 176.5q0 150 71 275q43 73 102 112.5t126 39.5q93 0 148 -65t55 -177q0 -150 -71 -275zM169 236q0 -141 81 -141q68 0 117 97q50 98 50 218q0 143 -81 143q-68 0 -117 -99q-50 -98 -50 -218z" />
    <glyph glyph-name="one.tlf" horiz-adv-x="559" 
d="M320 101h112l-19 -101h-356l20 101h123l86 446h-122l19 101h243z" />
    <glyph glyph-name="two.tlf" horiz-adv-x="559" 
d="M201 101h248l-19 -101h-408l16 85q121 97 202 173q75 71 106.5 120t31.5 97q0 36 -23.5 56t-66.5 20q-58 0 -132 -30l-17 99q94 38 174 38q91 0 143.5 -44t52.5 -120q0 -89 -71 -178q-72 -90 -237 -215z" />
    <glyph glyph-name="three.tlf" horiz-adv-x="559" 
d="M471 199q0 -93 -73 -151t-192 -58q-104 0 -187 42l47 94q69 -34 142 -34q65 0 102.5 30t37.5 82q0 37 -26 57t-75 20h-95l20 103h90q56 0 89 27t33 71q0 35 -26.5 54.5t-74.5 19.5q-51 0 -126 -26l-14 95q82 33 165 33q94 0 147.5 -42t53.5 -116q0 -57 -36 -101.5
t-100 -65.5q98 -36 98 -134z" />
    <glyph glyph-name="four.tlf" horiz-adv-x="559" 
d="M435 225h90l-19 -97h-90l-25 -128h-115l25 128h-292l2 74q70 104 175 228q98 117 202 218h129zM138 225h182l57 295q-131 -140 -239 -295z" />
    <glyph glyph-name="five.tlf" horiz-adv-x="559" 
d="M485 225q0 -108 -75 -172q-74 -63 -200 -63q-108 0 -188 37l48 95q67 -30 138 -30q72 0 113.5 32.5t41.5 90.5q0 90 -110 90q-43 0 -103 -20l-43 31l86 332h348l-20 -101h-250l-39 -152q26 9 59 9q87 0 140 -50q54 -50 54 -129z" />
    <glyph glyph-name="six.tlf" horiz-adv-x="559" 
d="M507 227q0 -97 -69 -168q-69 -69 -170 -69q-96 0 -155 62q-58 61 -58 165q0 141 96 259q97 119 270 188l38 -87q-201 -78 -262 -226q63 57 137 57q76 0 124 -51q49 -49 49 -130zM172 213q0 -128 98 -128q51 0 85.5 38.5t34.5 96.5q0 43 -24 67.5t-67 24.5q-67 0 -126 -73
q-1 -7 -1 -26z" />
    <glyph glyph-name="seven.tlf" horiz-adv-x="559" 
d="M266 16l-3 -16h-127l3 15q26 131 88 247q66 121 193 285h-296l19 101h417l-16 -82q-125 -166 -189 -289q-64 -126 -89 -261z" />
    <glyph glyph-name="eight.tlf" horiz-adv-x="559" 
d="M498 186q0 -85 -70 -140q-70 -56 -177 -56q-99 0 -161 46q-63 47 -63 119q0 60 42 107t122 74q-78 59 -78 140q0 76 63 129q64 53 157 53q91 0 147 -42t56 -109q0 -105 -138 -170q100 -61 100 -151zM333 569q-46 0 -73.5 -24t-27.5 -64q0 -28 20.5 -51.5t73.5 -52.5
q51 28 73 55.5t22 62.5t-23 54.5t-65 19.5zM145 166q0 -41 29.5 -64.5t80.5 -23.5q54 0 89 28t35 71q0 39 -45 72l-19 13q-11 8 -57 33q-113 -53 -113 -129z" />
    <glyph glyph-name="nine.tlf" horiz-adv-x="559" 
d="M80 421q0 98 69 167q69 70 170 70q95 0 154 -62t59 -165q0 -141 -96 -259q-97 -119 -270 -188l-38 87q201 78 262 226q-63 -57 -137 -57q-75 0 -125 50q-48 51 -48 131zM415 435q0 128 -98 128q-51 0 -85.5 -38.5t-34.5 -96.5q0 -43 24 -67.5t67 -24.5q67 0 126 73
q1 7 1 26z" />
    <glyph glyph-name="zero.posf" horiz-adv-x="534" 
d="M500 292q0 -122 -74 -213q-74 -89 -184 -89q-96 0 -152.5 58.5t-56.5 158.5q0 121 74 212q75 90 184 90q97 0 153 -58t56 -159zM153 211q0 -120 90 -120q58 0 97 60q40 59 40 137q0 58 -23.5 88.5t-67.5 30.5q-56 0 -97 -60q-39 -59 -39 -136z" />
    <glyph glyph-name="one.posf" horiz-adv-x="400" 
d="M246 101h113l-20 -101h-354l18 101h124l57 297h-123l20 101h242z" />
    <glyph glyph-name="two.posf" horiz-adv-x="481" 
d="M185 101h224l-20 -101h-398l15 85q118 68 178 109q71 48 100.5 82t29.5 69q0 27 -22 42t-62 15q-52 0 -135 -31l-23 99q94 39 181 39q89 0 139.5 -38.5t50.5 -105.5q0 -74 -60 -134q-61 -61 -198 -130z" />
    <glyph glyph-name="three.posf" horiz-adv-x="487" 
d="M403 51q0 -92 -73 -150q-74 -59 -192 -59q-104 0 -187 42l47 94q69 -34 142 -34q65 0 102.5 30t37.5 82q0 37 -26 57t-75 20h-95l20 103h90q56 0 89 27t33 71q0 35 -26.5 54.5t-74.5 19.5q-51 0 -126 -26l-14 95q82 33 165 33q94 0 147.5 -42t53.5 -116q0 -57 -36 -101.5
t-100 -65.5q98 -36 98 -134z" />
    <glyph glyph-name="four.posf" horiz-adv-x="543" 
d="M411 96h90l-18 -96h-91l-29 -148h-114l29 148h-292l3 73q67 101 165 213q99 112 207 213h128zM114 96h183l54 280q-139 -140 -237 -280z" />
    <glyph glyph-name="five.posf" horiz-adv-x="505" 
d="M430 77q0 -108 -75 -171q-73 -64 -200 -64q-108 0 -188 37l48 95q67 -30 138 -30q72 0 113.5 32.5t41.5 90.5q0 90 -110 90q-43 0 -103 -20l-43 31l86 332h348l-20 -101h-250l-39 -152q26 9 59 9q87 0 140 -50q54 -50 54 -129z" />
    <glyph glyph-name="six.posf" horiz-adv-x="531" 
d="M492 227q0 -97 -69 -168q-69 -69 -170 -69q-96 0 -155 62q-58 61 -58 165q0 141 96 259q97 119 270 188l38 -87q-201 -78 -262 -226q63 57 137 57q76 0 124 -51q49 -49 49 -130zM157 213q0 -128 98 -128q51 0 85.5 38.5t34.5 96.5q0 43 -24 67.5t-67 24.5q-67 0 -126 -73
q-1 -7 -1 -26z" />
    <glyph glyph-name="seven.posf" horiz-adv-x="456" 
d="M190 -132l-3 -16h-127l3 15q26 131 88 247q66 121 193 285h-296l19 101h417l-16 -82q-125 -166 -189 -289q-64 -126 -89 -261z" />
    <glyph glyph-name="eight.posf" horiz-adv-x="552" 
d="M495 186q0 -85 -70 -140q-70 -56 -177 -56q-99 0 -161 46q-63 47 -63 119q0 60 42 107t122 74q-78 59 -78 140q0 76 63 129q64 53 157 53q92 0 147 -42q56 -42 56 -109q0 -105 -138 -170q100 -61 100 -151zM330 569q-46 0 -73.5 -24t-27.5 -64q0 -28 20.5 -51.5
t73.5 -52.5q51 28 73 55.5t22 62.5t-23 54.5t-65 19.5zM142 166q0 -41 29.5 -64.5t80.5 -23.5q54 0 89 28t35 71q0 39 -45 72l-19 13q-10 8 -57 33q-113 -53 -113 -129z" />
    <glyph glyph-name="nine.posf" horiz-adv-x="531" 
d="M39 272q0 98 69 167q69 70 170 70q95 0 154 -62t59 -165q0 -140 -96 -259q-97 -119 -270 -188l-38 87q201 78 262 226q-63 -57 -137 -57q-75 0 -125 50q-48 51 -48 131zM374 286q0 128 -98 128q-51 0 -85.5 -38.5t-34.5 -96.5q0 -43 24 -67.5t67 -24.5q67 0 126 73
q1 7 1 26z" />
    <glyph glyph-name="zero.numerator" horiz-adv-x="366" 
d="M383 511q0 -81 -49 -137q-50 -56 -121 -56q-64 0 -102 38.5t-38 103.5q0 81 49 136q50 57 122 57q63 0 101 -38.5t38 -103.5zM169 462q0 -64 48 -64q30 0 50 32.5t20 78.5q0 64 -48 64q-30 0 -50 -32.5t-20 -78.5z" />
    <glyph glyph-name="one.numerator" horiz-adv-x="278" 
d="M224 400h61l-15 -76h-222l15 76h70l33 173h-69l14 75h161z" />
    <glyph glyph-name="two.numerator" horiz-adv-x="309" 
d="M182 398h119l-14 -74h-242l12 63q98 66 136.5 101t38.5 61q0 28 -37 28q-28 0 -81 -22l-15 72q60 26 111 26q54 0 85 -24t31 -65q0 -45 -33 -83t-111 -83z" />
    <glyph glyph-name="three.numerator" horiz-adv-x="306" 
d="M306 426q0 -49 -38 -78t-103 -29q-66 0 -118 24l33 66q42 -18 81 -18q58 0 58 36q0 28 -37 28h-66l13 66h62q44 0 44 32q0 27 -41 27q-36 0 -77 -16l-8 68q55 21 104 21q53 0 82.5 -21t29.5 -60q0 -60 -65 -81q46 -18 46 -65z" />
    <glyph glyph-name="four.numerator" horiz-adv-x="328" 
d="M296 443h45l-13 -67h-45l-10 -52h-81l10 52h-151l2 48q82 121 190 224h93zM143 443h72l23 119q-62 -73 -95 -119z" />
    <glyph glyph-name="five.numerator" horiz-adv-x="306" 
d="M309 440q0 -55 -39.5 -88t-105.5 -33q-64 0 -112 24l34 67q34 -17 78 -17q28 0 43.5 10.5t15.5 28.5q0 31 -44 31q-23 0 -59 -12l-29 18l48 179h201l-13 -73h-134l-13 -47q9 3 24 3q48 0 76.5 -25t28.5 -66z" />
    <glyph glyph-name="six.numerator" horiz-adv-x="300" 
d="M312 444q0 -53 -37 -89t-91 -36t-87 32t-33 84q0 69 50.5 127.5t142.5 93.5l24 -60q-79 -30 -114 -79q25 16 56 16q40 0 64.5 -24.5t24.5 -64.5zM143 431q0 -20 11.5 -32t30.5 -12q22 0 35.5 14t13.5 36q0 33 -38 33q-26 0 -52 -20q-1 -4 -1 -19z" />
    <glyph glyph-name="seven.numerator" horiz-adv-x="269" 
d="M179 338l-3 -14h-92l3 14q11 56 38 106q29 53 89 131h-130l14 73h231l-8 -41q-65 -83 -97 -143q-32 -62 -45 -126z" />
    <glyph glyph-name="eight.numerator" horiz-adv-x="323" 
d="M320 419q0 -43 -37.5 -71.5t-96.5 -28.5q-56 0 -88.5 22t-32.5 59q0 56 75 87q-34 30 -34 68q0 42 34 70t86 28q49 0 79.5 -21.5t30.5 -55.5q0 -52 -66 -83q50 -32 50 -74zM224 594q-18 0 -29 -9t-11 -23q0 -22 37 -43q38 23 38 46q0 13 -9.5 21t-25.5 8zM146 411
q0 -34 43 -34q21 0 34 10.5t13 27.5q0 11 -10 20t-40 24q-40 -22 -40 -48z" />
    <glyph glyph-name="nine.numerator" horiz-adv-x="301" 
d="M80 528q0 53 37 89t91 36t87 -32t33 -84q0 -69 -50.5 -127.5t-142.5 -93.5l-24 60q79 30 114 79q-25 -16 -56 -16q-40 0 -64.5 24.5t-24.5 64.5zM249 541q0 20 -11.5 32t-30.5 12q-22 0 -35.5 -14t-13.5 -36q0 -33 38 -33q26 0 52 20q1 4 1 19z" />
    <glyph glyph-name="zero.denominator" horiz-adv-x="366" 
d="M320 187q0 -81 -49 -137q-50 -56 -121 -56q-64 0 -102 38.5t-38 103.5q0 81 49 136q49 57 122 57q63 0 101 -38.5t38 -103.5zM106 138q0 -64 48 -64q30 0 50 32.5t20 78.5q0 64 -48 64q-30 0 -50 -32.5t-20 -78.5z" />
    <glyph glyph-name="one.denominator" horiz-adv-x="278" 
d="M161 76h61l-15 -76h-222l15 76h70l33 173h-69l14 75h161z" />
    <glyph glyph-name="two.denominator" horiz-adv-x="310" 
d="M120 74h119l-14 -74h-242l12 63q98 66 136.5 101t38.5 61q0 28 -37 28q-28 0 -81 -22l-15 72q60 26 111 26q54 0 85 -24t31 -65q0 -45 -33 -83t-111 -83z" />
    <glyph glyph-name="three.denominator" horiz-adv-x="307" 
d="M243 102q0 -49 -38 -78t-103 -29t-118 24l33 66q42 -18 81 -18q58 0 58 36q0 28 -37 28h-66l13 66h62q44 0 44 32q0 27 -41 27q-36 0 -77 -16l-8 68q55 21 104 21q53 0 82.5 -21t29.5 -60q0 -60 -65 -81q46 -18 46 -65z" />
    <glyph glyph-name="four.denominator" horiz-adv-x="328" 
d="M233 119h45l-13 -67h-45l-10 -52h-81l10 52h-151l2 48q82 121 190 224h93zM80 119h72l23 119q-62 -73 -95 -119z" />
    <glyph glyph-name="five.denominator" horiz-adv-x="306" 
d="M245 116q0 -55 -39.5 -88t-105.5 -33q-64 0 -112 24l34 67q34 -17 78 -17q28 0 43.5 10.5t15.5 28.5q0 31 -44 31q-23 0 -59 -12l-29 18l48 179h201l-13 -73h-134l-13 -47q9 3 24 3q48 0 76.5 -25t28.5 -66z" />
    <glyph glyph-name="six.denominator" horiz-adv-x="300" 
d="M251 120q0 -53 -37 -89q-38 -36 -91 -36q-54 0 -87 32t-33 84q0 69 50.5 127.5t142.5 93.5l24 -60q-79 -30 -114 -79q25 16 56 16q40 0 64.5 -24.5t24.5 -64.5zM82 107q0 -20 11.5 -32t30.5 -12q22 0 35.5 14t13.5 36q0 33 -38 33q-26 0 -52 -20q-1 -4 -1 -19z" />
    <glyph glyph-name="seven.denominator" horiz-adv-x="269" 
d="M116 14l-3 -14h-92l3 14q11 56 38 106q29 53 89 131h-130l14 73h231l-8 -41q-65 -83 -97 -143q-31 -62 -45 -126z" />
    <glyph glyph-name="eight.denominator" horiz-adv-x="323" 
d="M257 95q0 -43 -37.5 -71.5t-96.5 -28.5q-56 0 -88.5 22t-32.5 59q0 56 75 87q-34 30 -34 68q0 42 34 70t86 28q49 0 79.5 -21.5t30.5 -55.5q0 -52 -66 -83q50 -32 50 -74zM161 270q-18 0 -29 -9t-11 -23q0 -22 37 -43q38 23 38 46q0 13 -9.5 21t-25.5 8zM83 87
q0 -34 43 -34q21 0 34 10.5t13 27.5q0 11 -10 20t-40 24q-40 -22 -40 -48z" />
    <glyph glyph-name="nine.denominator" horiz-adv-x="301" 
d="M16 204q0 53 37 89t91 36t87 -32t33 -84q0 -69 -50.5 -127.5t-142.5 -93.5l-24 60q79 30 114 79q-25 -16 -56 -16q-40 0 -64.5 24.5t-24.5 64.5zM185 217q0 20 -11.5 32t-30.5 12q-22 0 -35.5 -14t-13.5 -36q0 -33 38 -33q26 0 52 20q1 4 1 19z" />
    <glyph glyph-name="onefifth" horiz-adv-x="763" 
d="M224 400h61l-15 -76h-222l15 76h70l33 173h-69l14 75h161zM588 648h106l-516 -648h-106zM701 116q0 -55 -39.5 -88t-105.5 -33q-64 0 -112 24l34 67q34 -17 78 -17q28 0 43.5 10.5t15.5 28.5q0 31 -44 31q-23 0 -59 -12l-29 18l48 179h201l-13 -73h-134l-13 -47q9 3 24 3
q48 0 76.5 -25t28.5 -66z" />
    <glyph glyph-name="onesixth" horiz-adv-x="737" 
d="M224 400h61l-15 -76h-222l15 76h70l33 173h-69l14 75h161zM588 648h106l-516 -648h-106zM686 120q0 -53 -37 -89t-91 -36t-87 32t-33 84q0 69 50.5 127.5t142.5 93.5l24 -60q-79 -30 -114 -79q25 16 56 16q40 0 64.5 -24.5t24.5 -64.5zM517 107q0 -20 11.5 -32t30.5 -12
q22 0 35.5 14t13.5 36q0 33 -38 33q-26 0 -52 -20q-1 -4 -1 -19z" />
    <glyph glyph-name="oneseventh" horiz-adv-x="737" 
d="M224 400h61l-15 -76h-222l15 76h70l33 173h-69l14 75h161zM588 648h106l-516 -648h-106zM583 14l-3 -14h-92l3 14q11 56 38 106q29 53 89 131h-130l14 73h231l-8 -41q-65 -83 -97 -143q-32 -62 -45 -126z" />
    <glyph glyph-name="oneninth" horiz-adv-x="768" 
d="M224 400h61l-15 -76h-222l15 76h70l33 173h-69l14 75h161zM588 648h106l-516 -648h-106zM482 204q0 53 37 89t91 36t87 -32t33 -84q0 -69 -50.5 -127.5t-142.5 -93.5l-24 60q79 30 114 79q-25 -16 -56 -16q-40 0 -64.5 24.5t-24.5 64.5zM651 217q0 20 -11.5 32t-30.5 12
q-22 0 -35.5 -14t-13.5 -36q0 -33 38 -33q26 0 52 20q1 4 1 19z" />
    <glyph glyph-name="twofifths" horiz-adv-x="794" 
d="M182 398h119l-14 -74h-242l12 63q98 66 136.5 101t38.5 61q0 28 -37 28q-28 0 -81 -22l-15 72q60 26 111 26q54 0 85 -24t31 -65q0 -45 -33 -83t-111 -83zM619 648h106l-516 -648h-106zM732 116q0 -55 -39.5 -88t-105.5 -33q-64 0 -112 24l34 67q34 -17 78 -17
q28 0 43.5 10.5t15.5 28.5q0 31 -44 31q-23 0 -59 -12l-29 18l48 179h201l-13 -73h-134l-13 -47q9 3 24 3q48 0 76.5 -25t28.5 -66z" />
    <glyph glyph-name="twosevenths" horiz-adv-x="768" 
d="M182 398h119l-14 -74h-242l12 63q98 66 136.5 101t38.5 61q0 28 -37 28q-28 0 -81 -22l-15 72q60 26 111 26q54 0 85 -24t31 -65q0 -45 -33 -83t-111 -83zM619 648h106l-516 -648h-106zM614 14l-3 -14h-92l3 14q11 56 38 106q29 53 89 131h-130l14 73h231l-8 -41
q-65 -83 -97 -143q-31 -62 -45 -126z" />
    <glyph glyph-name="twoninths" horiz-adv-x="799" 
d="M182 398h119l-14 -74h-242l12 63q98 66 136.5 101t38.5 61q0 28 -37 28q-28 0 -81 -22l-15 72q60 26 111 26q54 0 85 -24t31 -65q0 -45 -33 -83t-111 -83zM619 648h106l-516 -648h-106zM514 204q0 53 37 89q38 36 91 36q54 0 87 -32t33 -84q0 -69 -50.5 -127.5
t-142.5 -93.5l-24 60q79 30 114 79q-25 -16 -56 -16q-40 0 -64.5 24.5t-24.5 64.5zM683 217q0 20 -11.5 32t-30.5 12q-22 0 -35.5 -14t-13.5 -36q0 -33 38 -33q26 0 52 20q1 4 1 19z" />
    <glyph glyph-name="threefifths" horiz-adv-x="791" 
d="M306 426q0 -49 -38 -78t-103 -29q-66 0 -118 24l33 66q42 -18 81 -18q58 0 58 36q0 28 -37 28h-66l13 66h62q44 0 44 32q0 27 -41 27q-36 0 -77 -16l-8 68q55 21 104 21q53 0 82.5 -21t29.5 -60q0 -60 -65 -81q46 -18 46 -65zM616 648h106l-516 -648h-106zM729 116
q0 -55 -39.5 -88t-105.5 -33q-64 0 -112 24l34 67q34 -17 78 -17q28 0 43.5 10.5t15.5 28.5q0 31 -44 31q-23 0 -59 -12l-29 18l48 179h201l-13 -73h-134l-13 -47q9 3 24 3q48 0 76.5 -25t28.5 -66z" />
    <glyph glyph-name="threesevenths" horiz-adv-x="765" 
d="M306 426q0 -49 -38 -78t-103 -29q-66 0 -118 24l33 66q42 -18 81 -18q58 0 58 36q0 28 -37 28h-66l13 66h62q44 0 44 32q0 27 -41 27q-36 0 -77 -16l-8 68q55 21 104 21q53 0 82.5 -21t29.5 -60q0 -60 -65 -81q46 -18 46 -65zM616 648h106l-516 -648h-106zM611 14l-3 -14
h-92l3 14q11 56 38 106q29 53 89 131h-130l14 73h231l-8 -41q-65 -83 -97 -143q-32 -62 -45 -126z" />
    <glyph glyph-name="fourfifths" horiz-adv-x="818" 
d="M296 443h45l-13 -67h-45l-10 -52h-81l10 52h-151l2 48q82 121 190 224h93zM143 443h72l23 119q-62 -73 -95 -119zM644 648h106l-516 -648h-106zM757 116q0 -55 -39.5 -88t-105.5 -33q-64 0 -112 24l34 67q34 -17 78 -17q28 0 43.5 10.5t15.5 28.5q0 31 -44 31
q-23 0 -59 -12l-29 18l48 179h201l-13 -73h-134l-13 -47q9 3 24 3q48 0 76.5 -25t28.5 -66z" />
    <glyph glyph-name="foursevenths" horiz-adv-x="792" 
d="M296 443h45l-13 -67h-45l-10 -52h-81l10 52h-151l2 48q82 121 190 224h93zM143 443h72l23 119q-62 -73 -95 -119zM644 648h106l-516 -648h-106zM638 14l-3 -14h-92l3 14q11 56 38 106q29 53 89 131h-130l14 73h231l-8 -41q-65 -83 -97 -143q-31 -62 -45 -126z" />
    <glyph glyph-name="fourninths" horiz-adv-x="823" 
d="M296 443h45l-13 -67h-45l-10 -52h-81l10 52h-151l2 48q82 121 190 224h93zM143 443h72l23 119q-62 -73 -95 -119zM644 648h106l-516 -648h-106zM538 204q0 53 37 89t91 36t87 -32t33 -84q0 -69 -50.5 -127.5t-142.5 -93.5l-24 60q79 30 114 79q-25 -16 -56 -16
q-40 0 -64.5 24.5t-24.5 64.5zM707 217q0 20 -11.5 32t-30.5 12q-22 0 -35.5 -14t-13.5 -36q0 -33 38 -33q26 0 52 20q1 4 1 19z" />
    <glyph glyph-name="fivesixths" horiz-adv-x="765" 
d="M309 440q0 -55 -39.5 -88t-105.5 -33q-64 0 -112 24l34 67q34 -17 78 -17q28 0 43.5 10.5t15.5 28.5q0 31 -44 31q-23 0 -59 -12l-29 18l48 179h201l-13 -73h-134l-13 -47q9 3 24 3q48 0 76.5 -25t28.5 -66zM616 648h106l-516 -648h-106zM715 120q0 -53 -37 -89
q-38 -36 -91 -36q-54 0 -87 32t-33 84q0 69 50.5 127.5t142.5 93.5l24 -60q-79 -30 -114 -79q25 16 56 16q40 0 64.5 -24.5t24.5 -64.5zM546 107q0 -20 11.5 -32t30.5 -12q22 0 35.5 14t13.5 36q0 33 -38 33q-26 0 -52 -20q-1 -4 -1 -19z" />
    <glyph glyph-name="fivesevenths" horiz-adv-x="765" 
d="M309 440q0 -55 -39.5 -88t-105.5 -33q-64 0 -112 24l34 67q34 -17 78 -17q28 0 43.5 10.5t15.5 28.5q0 31 -44 31q-23 0 -59 -12l-29 18l48 179h201l-13 -73h-134l-13 -47q9 3 24 3q48 0 76.5 -25t28.5 -66zM616 648h106l-516 -648h-106zM611 14l-3 -14h-92l3 14
q11 56 38 106q29 53 89 131h-130l14 73h231l-8 -41q-65 -83 -97 -143q-32 -62 -45 -126z" />
    <glyph glyph-name="fiveninths" horiz-adv-x="796" 
d="M309 440q0 -55 -39.5 -88t-105.5 -33q-64 0 -112 24l34 67q34 -17 78 -17q28 0 43.5 10.5t15.5 28.5q0 31 -44 31q-23 0 -59 -12l-29 18l48 179h201l-13 -73h-134l-13 -47q9 3 24 3q48 0 76.5 -25t28.5 -66zM616 648h106l-516 -648h-106zM511 204q0 53 37 89q38 36 91 36
q54 0 87 -32t33 -84q0 -69 -50.5 -127.5t-142.5 -93.5l-24 60q79 30 114 79q-25 -16 -56 -16q-40 0 -64.5 24.5t-24.5 64.5zM680 217q0 20 -11.5 32t-30.5 12q-22 0 -35.5 -14t-13.5 -36q0 -33 38 -33q26 0 52 20q1 4 1 19z" />
    <glyph glyph-name="sixsevenths" horiz-adv-x="760" 
d="M312 444q0 -53 -37 -89t-91 -36t-87 32t-33 84q0 69 50.5 127.5t142.5 93.5l24 -60q-79 -30 -114 -79q25 16 56 16q40 0 64.5 -24.5t24.5 -64.5zM143 431q0 -20 11.5 -32t30.5 -12q22 0 35.5 14t13.5 36q0 33 -38 33q-26 0 -52 -20q-1 -4 -1 -19zM612 648h106l-516 -648
h-106zM606 14l-3 -14h-92l3 14q11 56 38 106q29 53 89 131h-130l14 73h231l-8 -41q-65 -83 -97 -143q-31 -62 -45 -126z" />
    <glyph glyph-name="sevenninths" horiz-adv-x="759" 
d="M179 338l-3 -14h-92l3 14q11 56 38 106q29 53 89 131h-130l14 73h231l-8 -41q-65 -83 -97 -143q-32 -62 -45 -126zM579 648h106l-516 -648h-106zM474 204q0 53 37 89t91 36t87 -32t33 -84q0 -69 -50.5 -127.5t-142.5 -93.5l-24 60q79 30 114 79q-25 -16 -56 -16
q-40 0 -64.5 24.5t-24.5 64.5zM643 217q0 20 -11.5 32t-30.5 12q-22 0 -35.5 -14t-13.5 -36q0 -33 38 -33q26 0 52 20q1 4 1 19z" />
    <glyph glyph-name="eightninths" horiz-adv-x="812" 
d="M320 419q0 -43 -37.5 -71.5t-96.5 -28.5q-56 0 -88.5 22t-32.5 59q0 56 75 87q-34 30 -34 68q0 42 34 70t86 28q49 0 79.5 -21.5t30.5 -55.5q0 -52 -66 -83q50 -32 50 -74zM224 594q-18 0 -29 -9t-11 -23q0 -22 37 -43q38 23 38 46q0 13 -9.5 21t-25.5 8zM146 411
q0 -34 43 -34q21 0 34 10.5t13 27.5q0 11 -10 20t-40 24q-40 -22 -40 -48zM633 648h106l-516 -648h-106zM527 204q0 53 37 89q38 36 91 36q54 0 87 -32t33 -84q0 -69 -50.5 -127.5t-142.5 -93.5l-24 60q79 30 114 79q-25 -16 -56 -16q-40 0 -64.5 24.5t-24.5 64.5zM696 217
q0 20 -11.5 32t-30.5 12q-22 0 -35.5 -14t-13.5 -36q0 -33 38 -33q26 0 52 20q1 4 1 19z" />
    <glyph glyph-name="at.case" horiz-adv-x="910" 
d="M443 -108q-178 0 -284 100t-106 267q0 193 130 329q129 140 321 140q170 0 276 -97q107 -96 107 -250q0 -117 -69 -200q-69 -82 -162 -82q-43 0 -74.5 18t-43.5 51q-55 -71 -126 -71q-61 0 -98.5 43.5t-37.5 117.5q0 114 60 193q62 80 147 80q59 0 101 -39l6 31h95
l-54 -279q-12 -60 40 -60q50 0 86 57t36 139q0 120 -79 190q-77 70 -210 70q-154 0 -254 -109q-101 -109 -101 -269q0 -130 81 -207q81 -75 220 -75q101 0 203 44l25 -77q-114 -55 -235 -55zM376 261q0 -76 62 -76q52 0 99 74l29 153q-34 34 -77 34q-49 0 -81 -54
q-32 -55 -32 -131z" />
    <glyph glyph-name="questiondown.case" horiz-adv-x="442" 
d="M245 581q0 33 21.5 54t54.5 21q30 0 47.5 -17t17.5 -44q0 -32 -21 -53.5t-54 -21.5q-30 0 -48 17t-18 44zM207 -11q-90 0 -141.5 42t-51.5 115q0 78 48.5 128t149.5 77l5 1l26 87h84l-9 -112l-34 -41l-44 -14q-56 -18 -81.5 -44.5t-25.5 -66.5q0 -71 90 -71q51 0 125 32
l19 -95q-81 -38 -160 -38z" />
    <glyph glyph-name="exclamdown.case" horiz-adv-x="285" 
d="M137 582q0 32 21.5 53.5t54.5 21.5q29 0 47 -17t18 -44q0 -32 -21 -53.5t-54 -21.5q-30 0 -48 16.5t-18 44.5zM190 180l-35 -180h-125l35 180l71 260h85z" />
    <glyph glyph-name="parenleft.case" horiz-adv-x="316" 
d="M62 320l2 15q54 330 268 456l18 10l46 -82l-16 -11q-158 -108 -200 -373l-2 -15q-22 -137 -9 -225.5t64 -144.5l12 -12l-61 -81l-14 11q-160 130 -108 452z" />
    <glyph glyph-name="parenright.case" horiz-adv-x="316" 
d="M283 336l-2 -15q-52 -325 -268 -455l-18 -10l-46 82l16 11q158 108 200 372l2 15q22 137 9 226t-65 145l-11 12l60 81l14 -11q162 -132 109 -453z" />
    <glyph glyph-name="braceleft.case" horiz-adv-x="332" 
d="M200 -40h51l-18 -93h-46q-72 0 -113 32t-41 88q0 21 9 50q14 38 41 88q42 83 42 113q0 41 -46 41h-29l20 100h28q71 0 71 79q0 20 -5 74q-5 59 -5 87q0 80 47.5 126t130.5 46h76l-18 -93h-58q-69 0 -69 -83q0 -29 3 -72q4 -44 4 -79q0 -122 -101 -135q61 -14 61 -77
q0 -20 -9 -49q-8 -26 -38 -87q-41 -81 -41 -112q0 -44 53 -44z" />
    <glyph glyph-name="braceright.case" horiz-adv-x="332" 
d="M202 39q0 -80 -47.5 -126t-130.5 -46h-75l18 93h57q68 0 68 83q0 30 -3 70q-3 45 -3 80q0 122 101 135q-61 14 -61 77q0 20 9 49q8 24 38 88q41 81 41 112q0 44 -53 44h-52l19 93h46q72 0 113 -32t41 -89q0 -42 -50 -138q-42 -83 -42 -113q0 -41 46 -41h29l-20 -100h-28
q-71 0 -71 -79q0 -21 5 -75q5 -59 5 -85z" />
    <glyph glyph-name="bracketleft.case" horiz-adv-x="314" 
d="M236 -34l-18 -93h-207l177 911h207l-18 -93h-95l-142 -725h96z" />
    <glyph glyph-name="bracketright.case" horiz-adv-x="314" 
d="M334 784l-178 -911h-206l18 93h94l142 725h-96l18 93h208z" />
    <glyph glyph-name="hyphen.case" horiz-adv-x="420" 
d="M78 380h290l-20 -102h-290z" />
    <glyph glyph-name="endash.case" horiz-adv-x="500" 
d="M78 380h370l-20 -102h-370z" />
    <glyph glyph-name="emdash.case" horiz-adv-x="1000" 
d="M78 380h870l-20 -102h-870z" />
    <glyph glyph-name="brokenbar.case" horiz-adv-x="301" 
d="M158 748h122l-73 -374h-121zM70 294h122l-73 -374h-122z" />
    <glyph glyph-name="bar.case" horiz-adv-x="301" 
d="M158 748h122l-161 -828h-122z" />
    <glyph glyph-name="guillemotleft.case" 
d="M387 328l116 -85l-22 -114l-190 149l21 108l248 149l-24 -122zM142 328l120 -85l-22 -114l-195 149l21 108l253 149l-23 -122z" />
    <glyph glyph-name="guillemotright.case" 
d="M300 386l-22 -108l-248 -149l24 122l150 85l-117 85l22 114zM546 386l-21 -108l-254 -149l24 123l154 85l-121 85l22 113z" />
    <glyph glyph-name="guilsinglleft.case" horiz-adv-x="320" 
d="M142 328l120 -85l-22 -114l-195 149l21 108l253 149l-23 -122z" />
    <glyph glyph-name="guilsinglright.case" horiz-adv-x="320" 
d="M307 391l-21 -108l-254 -149l24 123l154 85l-121 85l22 113z" />
    </font>
</defs>
</svg>
