<?xml version="1.0" standalone="no"?>
<!DOCTYPE svg PUBLIC "-//W3C//DTD SVG 1.1//EN" "http://www.w3.org/Graphics/SVG/1.1/DTD/svg11.dtd" >
<svg xmlns="http://www.w3.org/2000/svg" xmlns:xlink="http://www.w3.org/1999/xlink" version="1.1">
<metadata>
Created by FontForge 20170731 at Fri Oct 21 00:49:22 2016
 By Aleksey,,,
Copyright 2016 BlackFoundry
</metadata>
<defs>
<font id="Drive-Medium" horiz-adv-x="500" >
  <font-face 
    font-family="Drive Medium"
    font-weight="500"
    font-stretch="normal"
    units-per-em="1000"
    panose-1="2 11 7 3 3 5 0 2 0 4"
    ascent="772"
    descent="-228"
    x-height="499"
    cap-height="648"
    bbox="-157 -223 1084 906"
    underline-thickness="45"
    underline-position="-200"
    unicode-range="U+000D-FB02"
  />
<missing-glyph horiz-adv-x="662" 
d="M578 648v-648h-494v648h494zM205 539v-431h251v431h-251z" />
    <glyph glyph-name="fi" unicode="fi" horiz-adv-x="628" 
d="M221 499h129v-95h-129v-404h-119v404h-83v76l83 19v10q0 84 48 131.5t133 47.5q53 0 92 -14l-18 -89q-34 8 -60 8q-43 0 -59.5 -18t-16.5 -66v-10zM563 628q0 -30 -18.5 -48.5t-50.5 -18.5t-50.5 18.5t-18.5 48.5t19 48.5t50 18.5t50 -18.5t19 -48.5zM435 0v499h119v-499
h-119z" />
    <glyph glyph-name="fl" unicode="fl" horiz-adv-x="628" 
d="M221 499h129v-95h-129v-404h-119v404h-83v76l83 19v10q0 84 48 131.5t133 47.5q53 0 92 -14l-18 -89q-34 8 -60 8q-43 0 -59.5 -18t-16.5 -66v-10zM435 0v678h119v-678h-119z" />
    <glyph glyph-name=".notdef" horiz-adv-x="662" 
d="M578 648v-648h-494v648h494zM205 539v-431h251v431h-251z" />
    <glyph glyph-name=".null" horiz-adv-x="0" 
 />
    <glyph glyph-name="nonmarkingreturn" horiz-adv-x="333" 
 />
    <glyph glyph-name="NULL" horiz-adv-x="0" 
 />
    <glyph glyph-name="NULL" horiz-adv-x="0" 
 />
    <glyph glyph-name="CR" unicode="&#xd;" horiz-adv-x="0" 
 />
    <glyph glyph-name="space" unicode=" " horiz-adv-x="175" 
 />
    <glyph glyph-name="exclam" unicode="!" horiz-adv-x="286" 
d="M80 467v181h125v-181l-20 -261h-84zM213 57q0 -30 -19.5 -48.5t-51.5 -18.5t-51 18.5t-19 48.5t19 49t51 19t51.5 -19t19.5 -49z" />
    <glyph glyph-name="quotedbl" unicode="&#x22;" horiz-adv-x="413" 
d="M173 648v-98l-18 -136h-81l-18 136v98h117zM357 648v-98l-18 -136h-81l-18 136v98h117z" />
    <glyph glyph-name="numbersign" unicode="#" horiz-adv-x="670" 
d="M277 399l-20 -130h130l20 130h-130zM479 169l-26 -169h-108l26 169h-130l-26 -169h-108l26 169h-95v100h111l20 130h-111v100h126l23 149h108l-23 -149h130l23 149h108l-23 -149h103v-100h-118l-20 -130h118v-100h-134z" />
    <glyph glyph-name="dollar" unicode="$" horiz-adv-x="497" 
d="M309 -4v-85h-108v82q-93 11 -173 62l46 96q96 -57 175 -57q42 0 65.5 19.5t23.5 54.5q0 30 -22 52q-22 25 -94 59q-54 26 -76 40q-26 18 -41 33q-52 51 -52 126q0 67 40 114t108 61v84h108v-83q79 -11 143 -54l-44 -96q-83 49 -148 49q-40 0 -62.5 -18t-22.5 -50
q0 -28 21 -52q23 -23 96 -59q77 -37 115 -72q53 -49 53 -121q0 -74 -39.5 -122.5t-111.5 -62.5z" />
    <glyph glyph-name="percent" unicode="%" horiz-adv-x="754" 
d="M325 494q0 -76 -40 -119t-110 -43q-73 0 -111.5 42t-38.5 122q0 76 40 119t110 43q73 0 111.5 -42t38.5 -122zM525 648h106l-402 -648h-106zM118 496q0 -90 57 -90t57 88q0 89 -57 89t-57 -87zM729 152q0 -76 -40 -119t-110 -43q-73 0 -111.5 42t-38.5 122q0 76 40 119
t110 43q72 0 111 -42t39 -122zM522 154q0 -90 57 -90t57 88q0 89 -57 89t-57 -87z" />
    <glyph glyph-name="ampersand" unicode="&#x26;" horiz-adv-x="632" 
d="M577 194q0 -88 -75 -146q-74 -58 -191 -58q-125 0 -198 54t-73 146q0 58 36 102t99 63q-92 42 -92 136q0 76 58 121.5t154 45.5q81 0 152 -25l-27 -102q-63 20 -117 20q-98 0 -98 -75q0 -74 93 -74h41v-101h-56q-56 0 -87.5 -26.5t-31.5 -71.5q0 -50 39.5 -78.5
t107.5 -28.5q71 0 111.5 32t40.5 87q0 54 -50 93l22 73h192v-96h-82q32 -41 32 -91z" />
    <glyph glyph-name="quotesingle" unicode="'" horiz-adv-x="230" 
d="M173 648v-98l-18 -136h-81l-18 136v98h117z" />
    <glyph glyph-name="parenleft" unicode="(" horiz-adv-x="316" 
d="M47 254v8q0 155 53 278q52 120 145 181l16 10l45 -82l-13 -11q-62 -49 -96 -146.5t-34 -229.5v-8q0 -132 34 -229t96 -146l13 -11l-45 -82l-16 10q-93 61 -145 181q-53 121 -53 277z" />
    <glyph glyph-name="parenright" unicode=")" horiz-adv-x="316" 
d="M268 262v-8q0 -156 -53 -277q-52 -121 -144 -181l-16 -10l-46 82l14 11q62 49 95.5 145.5t33.5 229.5v8q0 133 -33.5 230t-95.5 146l-14 11l46 82l16 -10q92 -60 144 -181q53 -123 53 -278z" />
    <glyph glyph-name="asterisk" unicode="*" horiz-adv-x="412" 
d="M302 415l44 -61l-76 -55l-44 61l-20 40l-21 -40l-45 -61l-75 55l44 61l34 34l-46 7l-73 24l29 89l73 -24l41 -22l-8 49v76h94v-76l-9 -49l41 21l73 24l29 -88l-73 -24l-47 -7z" />
    <glyph glyph-name="plus" unicode="+" horiz-adv-x="438" 
d="M273 356h135v-102h-135v-142h-109v142h-134v102h134v134h109v-134z" />
    <glyph glyph-name="comma" unicode="," horiz-adv-x="247" 
d="M194 33q0 -108 -93 -184l-42 44q50 47 54 98q-28 3 -44 21t-16 45q0 30 19 49t51 19q34 0 52.5 -24t18.5 -68z" />
    <glyph glyph-name="hyphen" unicode="-" horiz-adv-x="420" 
d="M65 325h290v-102h-290v102z" />
    <glyph glyph-name="period" unicode="." horiz-adv-x="247" 
d="M194 57q0 -30 -19.5 -48.5t-51.5 -18.5t-51 18.5t-19 48.5t19 49t51 19t51.5 -19t19.5 -49z" />
    <glyph glyph-name="slash" unicode="/" horiz-adv-x="458" 
d="M320 738h118l-300 -828h-118z" />
    <glyph glyph-name="zero" unicode="0" horiz-adv-x="604" 
d="M554 322q0 -157 -66.5 -244.5t-185.5 -87.5q-123 0 -187.5 86t-64.5 251q0 156 66.5 243.5t185.5 87.5q123 0 187.5 -86t64.5 -250zM175 327q0 -232 127 -232q126 0 126 227q0 231 -126 231q-127 0 -127 -226z" />
    <glyph glyph-name="one" unicode="1" horiz-adv-x="401" 
d="M275 101h112v-101h-355v101h123v446h-123v101h243v-547z" />
    <glyph glyph-name="two" unicode="2" horiz-adv-x="484" 
d="M186 101h257v-101h-409v85q144 139 205 225q61 83 61 150q0 43 -27 67t-75 24q-61 0 -134 -30l-30 96q94 41 179 41q100 0 156.5 -49t56.5 -136q0 -83 -54 -165t-186 -207z" />
    <glyph glyph-name="three" unicode="3" horiz-adv-x="497" 
d="M453 190q0 -95 -65 -147.5t-181 -52.5q-103 0 -180 35l31 95q69 -28 146 -28q61 0 93.5 26.5t32.5 76.5q0 41 -31.5 63.5t-87.5 22.5h-97v103h88q52 0 81 24t29 68q0 80 -104 80q-66 0 -139 -26l-25 92q83 36 169 36q103 0 162.5 -45t59.5 -124q0 -104 -110 -149
q62 -17 95 -56t33 -94z" />
    <glyph glyph-name="four" unicode="4" horiz-adv-x="551" 
d="M439 225h90v-97h-90v-128h-115v128h-292l-12 74q54 111 130 228q81 125 160 218h129v-423zM139 225h185v298q-108 -145 -185 -298z" />
    <glyph glyph-name="five" unicode="5" horiz-adv-x="511" 
d="M470 210q0 -102 -68 -161t-183 -59q-95 0 -179 37l30 95q74 -30 147 -30q63 0 97 29t34 84q0 47 -32 73.5t-90 26.5q-48 0 -108 -20l-48 31l21 332h348v-101h-251l-9 -154q33 11 75 11q99 0 157.5 -52.5t58.5 -141.5z" />
    <glyph glyph-name="six" unicode="6" horiz-adv-x="530" 
d="M501 212q0 -94 -65 -159q-64 -63 -162 -63q-105 0 -170 69q-63 71 -63 186q0 132 75 241t215 178l50 -86q-89 -48 -138.5 -100t-68.5 -117q57 47 130 47q88 0 142 -54q55 -54 55 -142zM274 85q49 0 79.5 33.5t30.5 90.5q0 49 -27.5 76t-77.5 27q-66 0 -121 -67v-15
q0 -66 32 -105.5t84 -39.5z" />
    <glyph glyph-name="seven" unicode="7" horiz-adv-x="456" 
d="M264 15v-15h-127v15q0 121 42 246q45 129 136 286h-297v101h417v-82q-91 -163 -130 -287q-41 -131 -41 -264z" />
    <glyph glyph-name="eight" unicode="8" horiz-adv-x="553" 
d="M511 181q0 -84 -66 -138q-65 -53 -169 -53q-106 0 -170 46t-64 125q0 107 120 165q-95 61 -95 155q0 77 60 127q62 50 155 50q91 0 146 -46q57 -45 57 -115q0 -94 -104 -154q69 -33 99.5 -71.5t30.5 -90.5zM282 569q-44 0 -70 -21.5t-26 -55.5q0 -33 24.5 -57.5
t86.5 -53.5q74 56 74 111q0 34 -24.5 55.5t-64.5 21.5zM160 174q0 -45 31 -70.5t85 -25.5q51 0 83 25.5t32 67.5q0 41 -57 74q-11 6 -90 41q-45 -27 -64.5 -53t-19.5 -59z" />
    <glyph glyph-name="nine" unicode="9" horiz-adv-x="530" 
d="M489 402q0 -132 -75 -240t-215 -178l-50 85q89 48 138 99.5t69 118.5q-58 -48 -130 -48q-88 0 -143 54q-54 54 -54 142q0 94 65 159q64 64 162 64q105 0 169 -70t64 -186zM146 439q0 -50 27.5 -77t77.5 -27q67 0 121 68v14q0 66 -32 105.5t-84 39.5q-49 0 -79.5 -33.5
t-30.5 -89.5z" />
    <glyph glyph-name="colon" unicode=":" horiz-adv-x="247" 
d="M194 57q0 -30 -19.5 -48.5t-51.5 -18.5t-51 18.5t-19 48.5t19 49t51 19t51.5 -19t19.5 -49zM194 440q0 -30 -19.5 -48.5t-51.5 -18.5t-51 18.5t-19 48.5t19 49t51 19t51.5 -19t19.5 -49z" />
    <glyph glyph-name="semicolon" unicode=";" horiz-adv-x="247" 
d="M194 440q0 -30 -19.5 -48.5t-51.5 -18.5t-51 18.5t-19 48.5t19 49t51 19t51.5 -19t19.5 -49zM194 33q0 -108 -93 -184l-42 44q50 47 54 98q-28 3 -44 21t-16 45q0 30 19 49t51 19q34 0 52.5 -24t18.5 -68z" />
    <glyph glyph-name="less" unicode="&#x3c;" horiz-adv-x="438" 
d="M135 320l263 -113v-129l-370 179v119l370 179v-122z" />
    <glyph glyph-name="equal" unicode="=" horiz-adv-x="438" 
d="M30 465h378v-102h-378v102zM30 269h378v-102h-378v102z" />
    <glyph glyph-name="greater" unicode="&#x3e;" horiz-adv-x="438" 
d="M303 314l-263 113v129l370 -179v-119l-370 -179v122z" />
    <glyph glyph-name="question" unicode="?" horiz-adv-x="451" 
d="M248 295l-9 -89h-84l-13 113l27 41l39 12q88 29 88 105q0 38 -24.5 59t-70.5 21q-63 0 -135 -32l-31 95q74 38 172 38q100 0 154.5 -45t54.5 -127q0 -143 -168 -191zM266 57q0 -30 -19.5 -48.5t-51.5 -18.5t-51 18.5t-19 48.5t19 49t51 19t51.5 -19t19.5 -49z" />
    <glyph glyph-name="at" unicode="@" horiz-adv-x="910" 
d="M469 -178q-192 0 -310 110q-116 110 -116 297q0 188 122 308q122 121 314 121q170 0 280 -101t110 -258q0 -125 -53 -197.5t-142 -72.5q-78 0 -115 51q-61 -55 -135 -55q-63 0 -101 34.5t-38 92.5t42 91.5t117 33.5h88v18q0 39 -17.5 56.5t-56.5 17.5q-56 0 -127 -34
l-30 79q82 47 171 47q157 0 157 -160v-121q0 -66 56 -66q43 0 66 46t23 133q0 123 -83 200t-212 77q-152 0 -246 -94t-94 -247q0 -147 89 -233t241 -86q126 0 225 55l36 -77q-112 -66 -261 -66zM379 157q0 -51 59 -51q50 0 96 42q-2 24 -2 31v27h-88q-31 0 -48 -13t-17 -36z
" />
    <glyph glyph-name="A" unicode="A" horiz-adv-x="574" 
d="M284 564l-83 -306h165zM373 648l186 -648h-124l-41 152h-221l-41 -152h-117l186 648h172z" />
    <glyph glyph-name="B" unicode="B" horiz-adv-x="601" 
d="M334 0h-250v648h233q103 0 158.5 -42.5t55.5 -122.5q0 -103 -99 -142q125 -37 125 -152q0 -89 -60 -139t-163 -50zM405 470q0 77 -106 77h-94v-165h91q109 0 109 88zM430 195q0 90 -124 90h-101v-185h106q119 0 119 95z" />
    <glyph glyph-name="C" unicode="C" horiz-adv-x="526" 
d="M323 -10q-135 0 -205 85.5t-70 251.5q0 157 71 244t199 87q103 0 184 -51l-51 -98q-62 39 -128 39q-76 0 -112 -54t-36 -167q0 -116 37.5 -172t115.5 -56q69 0 136 39l46 -93q-78 -55 -187 -55z" />
    <glyph glyph-name="D" unicode="D" horiz-adv-x="626" 
d="M303 0h-219v648h219q136 0 205.5 -82t69.5 -243q0 -155 -71.5 -239t-203.5 -84zM451 323q0 220 -146 220h-100v-439h100q146 0 146 219z" />
    <glyph glyph-name="E" unicode="E" horiz-adv-x="513" 
d="M465 103v-103h-381v648h381v-103h-260v-164h221v-103h-221v-175h260z" />
    <glyph glyph-name="F" unicode="F" horiz-adv-x="497" 
d="M205 367h221v-103h-221v-264h-121v648h381v-103h-260v-178z" />
    <glyph glyph-name="G" unicode="G" horiz-adv-x="575" 
d="M409 318h113v-272q-82 -56 -197 -56q-136 0 -206.5 86t-70.5 251q0 157 72 244t201 87q114 0 188 -49l-51 -97q-61 36 -133 36q-77 0 -113.5 -54t-36.5 -167q0 -116 38 -172t117 -56q45 0 79 10v209z" />
    <glyph glyph-name="H" unicode="H" horiz-adv-x="662" 
d="M578 648v-648h-122v281h-251v-281h-121v648h121v-258h251v258h122z" />
    <glyph glyph-name="I" unicode="I" horiz-adv-x="289" 
d="M84 648h121v-648h-121v648z" />
    <glyph glyph-name="J" unicode="J" horiz-adv-x="289" 
d="M84 71v577h121v-575q0 -94 -31 -153q-31 -61 -115 -125l-71 79q59 53 77 92q19 38 19 105z" />
    <glyph glyph-name="K" unicode="K" horiz-adv-x="595" 
d="M371 379l217 -379h-141l-163 283l-79 -105v-178h-121v648h121v-309l232 309h134z" />
    <glyph glyph-name="L" unicode="L" horiz-adv-x="488" 
d="M468 103v-103h-384v648h121v-545h263z" />
    <glyph glyph-name="M" unicode="M" horiz-adv-x="775" 
d="M578 486l-142 -306h-97l-143 306v-486h-112v648h143l164 -351l160 351h140v-648h-113v486z" />
    <glyph glyph-name="N" unicode="N" horiz-adv-x="658" 
d="M574 648v-648h-153l-226 489v-489h-111v648h151l227 -492v492h112z" />
    <glyph glyph-name="O" unicode="O" horiz-adv-x="642" 
d="M593 321q0 -157 -71.5 -244t-201.5 -87q-134 0 -203 85.5t-69 251.5q0 157 71.5 244t200.5 87q135 0 204 -85.5t69 -251.5zM175 327q0 -228 145 -228q146 0 146 222q0 227 -146 227q-145 0 -145 -221z" />
    <glyph glyph-name="P" unicode="P" horiz-adv-x="567" 
d="M539 447q0 -98 -61 -154t-167 -56h-106v-237h-121v648h227q105 0 166.5 -54t61.5 -147zM416 444q0 48 -30 74.5t-82 26.5h-99v-205h99q54 0 83 27t29 77z" />
    <glyph glyph-name="Q" unicode="Q" horiz-adv-x="642" 
d="M491 46l73 -101l-97 -65l-82 116q-31 -6 -65 -6q-134 0 -203 85.5t-69 251.5q0 157 71.5 244t200.5 87q135 0 204.5 -85t69.5 -250q0 -192 -103 -277zM175 327q0 -228 145 -228q147 0 147 224q0 225 -147 225q-145 0 -145 -221z" />
    <glyph glyph-name="R" unicode="R" horiz-adv-x="594" 
d="M416 452q0 44 -29 68.5t-80 24.5h-102v-190h102q52 0 80.5 25t28.5 72zM422 276l144 -276h-137l-125 252h-99v-252h-121v648h230q103 0 164 -52t61 -142q0 -133 -117 -178z" />
    <glyph glyph-name="S" unicode="S" horiz-adv-x="497" 
d="M460 177q0 -88 -57 -137.5t-158 -49.5q-120 0 -218 64l47 97q90 -57 171 -57q44 0 68.5 19t24.5 54q0 29 -21 51t-93 60q-80 41 -117 75q-52 53 -52 126q0 80 55 129q56 50 147 50q110 0 198 -57l-45 -97q-82 49 -149 49q-39 0 -61.5 -18.5t-22.5 -49.5q0 -27 21 -49
t93 -60q80 -43 115 -75q54 -53 54 -124z" />
    <glyph glyph-name="T" unicode="T" horiz-adv-x="498" 
d="M15 648h468v-103h-174v-545h-121v545h-173v103z" />
    <glyph glyph-name="U" unicode="U" horiz-adv-x="619" 
d="M312 96q54 0 86 34t32 92v426h117v-426q0 -103 -65 -168q-64 -64 -170 -64t-173 64t-67 168v426h121v-426q0 -58 32 -92t87 -34z" />
    <glyph glyph-name="V" unicode="V" horiz-adv-x="574" 
d="M439 648h120l-186 -648h-172l-186 648h125l150 -558z" />
    <glyph glyph-name="W" unicode="W" horiz-adv-x="868" 
d="M846 648l-156 -648h-157l-93 324l-107 -324h-156l-156 648h123l121 -553l127 396l-45 157h120l143 -544l118 544h118z" />
    <glyph glyph-name="X" unicode="X" horiz-adv-x="533" 
d="M334 329l183 -329h-133l-123 227l-118 -227h-124l177 324l-182 324h133l121 -226l119 226h123z" />
    <glyph glyph-name="Y" unicode="Y" horiz-adv-x="532" 
d="M529 648l-202 -405v-243h-121v243l-204 405h129l140 -292l138 292h120z" />
    <glyph glyph-name="Z" unicode="Z" horiz-adv-x="489" 
d="M185 103h271v-103h-423v70l267 475h-262v103h413v-71z" />
    <glyph glyph-name="bracketleft" unicode="[" horiz-adv-x="314" 
d="M291 -104v-93h-207v911h207v-93h-95v-725h95z" />
    <glyph glyph-name="backslash" unicode="\" horiz-adv-x="458" 
d="M138 738l300 -828h-118l-300 828h118z" />
    <glyph glyph-name="bracketright" unicode="]" horiz-adv-x="314" 
d="M230 714v-911h-208v93h96v725h-96v93h208z" />
    <glyph glyph-name="asciicircum" unicode="^" horiz-adv-x="438" 
d="M285 549l137 -430h-118l-88 301l-81 -301h-120l137 430h133z" />
    <glyph glyph-name="underscore" unicode="_" horiz-adv-x="420" 
d="M25 -52h370v-92h-370v92z" />
    <glyph glyph-name="grave" unicode="`" 
d="M197 551l-89 97l93 65l104 -162h-108z" />
    <glyph glyph-name="a" unicode="a" horiz-adv-x="517" 
d="M155 146q0 -62 68 -62q53 0 110 46v74h-105q-73 0 -73 -58zM450 324v-324h-113v55q-61 -65 -146 -65q-67 0 -109 40.5t-42 106.5q0 69 48.5 108.5t132.5 39.5h112v30q0 47 -20.5 67.5t-68.5 20.5q-62 0 -150 -41l-37 90q100 57 204 57q96 0 142.5 -45.5t46.5 -139.5z" />
    <glyph glyph-name="b" unicode="b" horiz-adv-x="559" 
d="M512 250q0 -260 -239 -260q-117 0 -202 51v637h119v-229q59 60 134 60q91 0 139.5 -66.5t48.5 -192.5zM276 90q64 0 90 36.5t26 123.5q0 84 -23 118.5t-80 34.5q-52 0 -99 -37v-257q44 -19 86 -19z" />
    <glyph glyph-name="c" unicode="c" horiz-adv-x="449" 
d="M273 -10q-117 0 -172 62.5t-55 195.5q0 127 60.5 194t173.5 67q80 0 140 -36l-35 -95q-54 26 -102 26q-61 0 -89 -37.5t-28 -118.5q0 -82 28 -117t93 -35q52 0 104 24l29 -94q-63 -36 -147 -36z" />
    <glyph glyph-name="d" unicode="d" horiz-adv-x="561" 
d="M167 248q0 -82 23 -117.5t79 -35.5q53 0 100 37v258q-44 19 -86 19q-63 0 -89.5 -37t-26.5 -124zM488 678v-678h-115v53q-60 -63 -138 -63q-92 0 -140 65.5t-48 192.5q0 125 56.5 193t158.5 68q54 0 107 -24v193h119z" />
    <glyph glyph-name="e" unicode="e" horiz-adv-x="516" 
d="M431 123l34 -83q-75 -50 -178 -50q-119 0 -181 65t-62 190q0 122 61 192q61 72 165 72q92 0 147 -60q56 -61 56 -160q0 -28 -3 -39l-31 -38h-276q5 -63 37 -92.5t97 -29.5q64 0 134 33zM270 414q-48 0 -74 -28t-32 -87h201q-2 115 -95 115z" />
    <glyph glyph-name="f" unicode="f" horiz-adv-x="362" 
d="M221 499h129v-95h-129v-404h-119v404h-83v76l83 19v10q0 84 48 131.5t133 47.5q53 0 92 -14l-18 -89q-34 8 -60 8q-43 0 -59.5 -18t-16.5 -66v-10z" />
    <glyph glyph-name="g" unicode="g" horiz-adv-x="529" 
d="M176 342q0 -85 85 -85t85 83q0 85 -85 85t-85 -83zM497 -13q0 -85 -75 -138q-75 -54 -195 -54q-93 0 -147 34.5t-54 92.5q0 71 75 103q-48 31 -48 84q0 65 72 100q-62 44 -62 133q0 76 53.5 121.5t144.5 45.5q43 0 83 -12l156 50l23 -95l-97 -21q32 -37 32 -91
q0 -77 -53 -122.5t-144 -45.5q-24 0 -56 5q-44 -17 -44 -43q0 -29 42 -29h138q76 0 116 -30t40 -88zM138 -57q0 -30 25.5 -47t72.5 -17q63 0 106 23.5t43 57.5q0 22 -14.5 31t-48.5 9h-120q-20 0 -25 1q-39 -20 -39 -58z" />
    <glyph glyph-name="h" unicode="h" horiz-adv-x="564" 
d="M310 400q-56 0 -118 -47v-353h-119v678h119v-237q75 68 154 68q72 0 111 -43.5t39 -124.5v-341h-120v323q0 77 -66 77z" />
    <glyph glyph-name="i" unicode="i" horiz-adv-x="265" 
d="M201 628q0 -30 -18.5 -48.5t-50.5 -18.5t-50.5 18.5t-18.5 48.5t19 48.5t50 18.5t50 -18.5t19 -48.5zM73 0v499h119v-499h-119z" />
    <glyph glyph-name="j" unicode="j" horiz-adv-x="265" 
d="M201 628q0 -30 -18.5 -48.5t-50.5 -18.5t-50.5 18.5t-18.5 48.5t19 48.5t50 18.5t50 -18.5t19 -48.5zM73 76v423h119v-417q0 -98 -31 -159q-30 -62 -113 -128l-74 82q58 51 79 94q20 42 20 105z" />
    <glyph glyph-name="k" unicode="k" horiz-adv-x="520" 
d="M343 304l166 -304h-132l-118 221l-67 -80v-141h-119v678h119v-399l181 220h127z" />
    <glyph glyph-name="l" unicode="l" horiz-adv-x="265" 
d="M73 0v678h119v-678h-119z" />
    <glyph glyph-name="m" unicode="m" horiz-adv-x="847" 
d="M302 400q-50 0 -110 -47v-353h-119v499h114v-61q41 38 76 54.5t76 16.5q98 0 130 -78q45 42 82 60t81 18q71 0 109 -43.5t38 -124.5v-341h-119v324q0 76 -64 76q-50 0 -110 -47v-353h-120v324q0 76 -64 76z" />
    <glyph glyph-name="n" unicode="n" horiz-adv-x="564" 
d="M310 400q-56 0 -118 -47v-353h-119v499h114v-62q79 72 159 72q72 0 111 -43.5t39 -124.5v-341h-120v324q0 76 -66 76z" />
    <glyph glyph-name="o" unicode="o" horiz-adv-x="533" 
d="M487 248q0 -124 -57.5 -191t-163.5 -67q-220 0 -220 261q0 123 57.5 190.5t162.5 67.5q221 0 221 -261zM165 251q0 -161 101 -161t101 158q0 160 -101 160q-52 0 -76.5 -38t-24.5 -119z" />
    <glyph glyph-name="p" unicode="p" horiz-adv-x="561" 
d="M278 90q64 0 90 36.5t26 123.5q0 82 -23.5 117.5t-79.5 35.5q-52 0 -99 -37v-258q43 -18 86 -18zM514 250q0 -124 -56.5 -192t-157.5 -68q-56 0 -108 24v-209h-119v694h114v-55q59 65 139 65q91 0 139.5 -66.5t48.5 -192.5z" />
    <glyph glyph-name="q" unicode="q" horiz-adv-x="560" 
d="M488 460v-655h-119v244q-59 -59 -134 -59q-92 0 -140 65.5t-48 192.5q0 261 239 261q115 0 202 -49zM167 248q0 -82 23 -117.5t79 -35.5q53 0 100 37v258q-44 19 -86 19q-63 0 -89.5 -37t-26.5 -124z" />
    <glyph glyph-name="r" unicode="r" horiz-adv-x="369" 
d="M192 348v-348h-119v499h114v-66q41 41 78.5 58.5t83.5 17.5v-115q-92 -4 -157 -46z" />
    <glyph glyph-name="s" unicode="s" horiz-adv-x="437" 
d="M400 144q0 -72 -48.5 -113t-134.5 -41q-104 0 -184 55l40 92q81 -49 148 -49q63 0 63 46q0 18 -16.5 32t-67.5 34q-89 36 -119 72q-30 38 -30 89q0 66 48.5 107t128.5 41q92 0 168 -46l-41 -93q-67 40 -128 40q-60 0 -60 -42q0 -19 17 -33.5t70 -36.5q88 -36 117 -71
t29 -83z" />
    <glyph glyph-name="t" unicode="t" horiz-adv-x="396" 
d="M356 111l25 -88q-64 -33 -131 -33q-76 0 -115.5 42.5t-39.5 123.5v248h-83v76l89 19l28 120h83v-120h150v-95h-150v-240q0 -37 14.5 -53t49.5 -16q39 0 80 16z" />
    <glyph glyph-name="u" unicode="u" horiz-adv-x="558" 
d="M484 499v-499h-114v61q-80 -71 -154 -71q-72 0 -110.5 43.5t-38.5 124.5v341h119v-324q0 -40 16 -58.5t51 -18.5q50 0 112 47v354h119z" />
    <glyph glyph-name="v" unicode="v" horiz-adv-x="502" 
d="M488 499l-160 -499h-154l-160 499h125l114 -414l114 414h121z" />
    <glyph glyph-name="w" unicode="w" horiz-adv-x="749" 
d="M373 274l-82 -274h-140l-132 499h121l90 -419l100 337l-24 82h112l105 -415l89 415h117l-132 -499h-142z" />
    <glyph glyph-name="x" unicode="x" horiz-adv-x="467" 
d="M299 256l154 -256h-124l-103 173l-94 -173h-118l151 251l-149 248h124l98 -168l94 168h118z" />
    <glyph glyph-name="y" unicode="y" horiz-adv-x="498" 
d="M363 499h118l-203 -694h-115l61 195h-63l-145 499h122l109 -424z" />
    <glyph glyph-name="z" unicode="z" horiz-adv-x="431" 
d="M180 96h219v-96h-364v70l214 333h-209v96h354v-71z" />
    <glyph glyph-name="braceleft" unicode="{" horiz-adv-x="331" 
d="M250 -110h59v-93h-60q-78 0 -121 35.5t-43 99.5q0 38 25 122q20 70 20 94q0 61 -56 61h-29v100h29q56 0 56 61q0 23 -20 93q-25 84 -25 123q0 64 42.5 99.5t118.5 35.5h63v-93h-59q-55 0 -55 -54q0 -22 20 -101q23 -86 23 -118q0 -37 -19 -63t-54 -33q35 -7 54 -32
t19 -64q0 -34 -23 -120q-20 -74 -20 -99q0 -54 55 -54z" />
    <glyph glyph-name="bar" unicode="|" horiz-adv-x="301" 
d="M90 678h121v-828h-121v828z" />
    <glyph glyph-name="braceright" unicode="}" horiz-adv-x="331" 
d="M246 -68q0 -64 -43 -99.5t-121 -35.5h-60v93h58q56 0 56 54q0 25 -20 99q-23 86 -23 120q0 39 19 64.5t54 32.5q-73 14 -73 95q0 32 23 118q20 79 20 101q0 54 -56 54h-58v93h62q77 0 119.5 -35.5t42.5 -99.5q0 -39 -25 -123q-20 -70 -20 -93q0 -61 56 -61h28v-100h-28
q-56 0 -56 -61q0 -24 20 -94q25 -84 25 -122z" />
    <glyph glyph-name="asciitilde" unicode="~" horiz-adv-x="438" 
d="M233 364q44 -20 65 -20q33 0 75 38l53 -70q-54 -72 -132 -72q-34 0 -95 26q-43 19 -60 19q-31 0 -76 -37l-52 72q61 69 132 69q31 0 90 -25z" />
    <glyph glyph-name="uni00A0" unicode="&#xa0;" horiz-adv-x="175" 
 />
    <glyph glyph-name="exclamdown" unicode="&#xa1;" horiz-adv-x="286" 
d="M72 441q0 31 19.5 49.5t51.5 18.5t51 -19t19 -49t-19 -49t-51 -19t-51.5 19t-19.5 49zM205 32v-180h-125v180l20 260h85z" />
    <glyph glyph-name="cent" unicode="&#xa2;" horiz-adv-x="445" 
d="M386 210l29 -93q-46 -28 -115 -36v-86h-102v92q-152 31 -152 236q0 194 152 235v95h102v-86q60 -4 110 -32l-35 -96q-50 24 -94 24q-60 0 -87.5 -33.5t-27.5 -106.5q0 -74 27.5 -105.5t91.5 -31.5q50 0 101 24z" />
    <glyph glyph-name="sterling" unicode="&#xa3;" horiz-adv-x="517" 
d="M221 98h270v-98h-445v93l26 4q46 7 66.5 27t20.5 58q0 36 -19 94h-94v89h63q-21 60 -21 112q0 81 58 130q58 51 151 51q98 0 181 -57l-45 -90q-67 45 -127 45q-98 0 -98 -84q0 -29 24 -107h184v-89h-154q14 -54 14 -76q0 -76 -55 -102z" />
    <glyph glyph-name="currency" unicode="&#xa4;" horiz-adv-x="474" 
d="M179 326q0 -26 16.5 -44.5t40.5 -18.5q25 0 42.5 18.5t17.5 44.5t-17 43.5t-43 17.5q-25 0 -41 -17.5t-16 -43.5zM172 192l-38 -54l-47 -48l-69 69l47 48l50 35q-26 38 -26 84q0 44 24 80l-48 35l-47 47l69 70l47 -48l37 -53q29 16 65 16t67 -16l37 52l47 48l69 -69
l-48 -48l-47 -33q25 -38 25 -81q0 -47 -27 -85l49 -34l48 -47l-69 -69l-47 47l-39 54q-32 -15 -65 -15q-32 0 -64 15z" />
    <glyph glyph-name="yen" unicode="&#xa5;" horiz-adv-x="567" 
d="M355 264h135v-88h-145v-176h-122v176h-145v88h135l-29 59h-126v88h81l-119 237h129l140 -293l138 293h120l-118 -237h81v-88h-125z" />
    <glyph glyph-name="brokenbar" unicode="&#xa6;" horiz-adv-x="301" 
d="M90 678h121v-374h-121v374zM90 224h121v-374h-121v374z" />
    <glyph glyph-name="section" unicode="&#xa7;" horiz-adv-x="491" 
d="M205 316q-41 -14 -41 -56q0 -38 55 -72q7 -5 50 -26l35 -16q38 17 38 55q0 43 -52 73q-21 14 -85 42zM449 -26q0 -82 -56.5 -130.5t-153.5 -48.5q-117 0 -217 66l45 96q96 -57 174 -57q41 0 64 17t23 47q0 25 -22 46q-21 22 -95 56q-98 45 -133 85q-33 39 -33 89
q0 81 83 120q-71 49 -71 130q0 75 55 121q56 47 145 47q111 0 196 -58l-44 -96q-83 49 -147 49q-40 0 -62 -15t-22 -42q0 -24 21 -45q22 -20 94 -54q101 -48 134 -87q34 -38 34 -90q0 -82 -80 -120q68 -53 68 -126z" />
    <glyph glyph-name="dieresis" unicode="&#xa8;" 
d="M223 626q0 -29 -18 -47t-49 -18q-30 0 -48.5 18t-18.5 47q0 28 18.5 46.5t48.5 18.5t48.5 -18.5t18.5 -46.5zM410 626q0 -29 -18 -47t-49 -18q-30 0 -48.5 18t-18.5 47q0 28 18.5 46.5t48.5 18.5t48.5 -18.5t18.5 -46.5z" />
    <glyph glyph-name="copyright" unicode="&#xa9;" horiz-adv-x="776" 
d="M47 324q0 138 100 235q101 99 240 99q145 0 242 -94q99 -94 99 -235q0 -138 -101 -239q-100 -100 -240 -100q-142 0 -241 96t-99 238zM641 329q0 107 -73 177q-71 70 -181 70q-105 0 -179 -74t-74 -178q0 -110 72 -182q74 -71 181 -71t180 75q74 76 74 183zM404 156
q-75 0 -116 44.5t-41 125.5q0 79 42.5 125t114.5 46q50 0 96 -25l-23 -71q-46 20 -73 20q-33 0 -53 -25.5t-20 -69.5q0 -43 20 -68.5t53 -25.5q12 0 30 2q12 3 49 18l21 -69q-38 -27 -100 -27z" />
    <glyph glyph-name="ordfeminine" unicode="&#xaa;" horiz-adv-x="378" 
d="M130 446q0 -30 35 -30q32 0 66 31v27h-66q-35 0 -35 -28zM315 539v-181h-81v31q-36 -37 -88 -37q-42 0 -68.5 24.5t-26.5 63.5q0 42 29 66t81 24h70v7q0 25 -12.5 36t-41.5 11q-41 0 -90 -24l-27 64q59 34 125 34q67 0 98.5 -29t31.5 -90z" />
    <glyph glyph-name="guillemotleft" unicode="&#xab;" horiz-adv-x="561" 
d="M372 261l134 -85v-122l-220 149v108l220 149v-114zM128 261l137 -85v-122l-225 149v108l225 149v-114z" />
    <glyph glyph-name="logicalnot" unicode="&#xac;" horiz-adv-x="438" 
d="M30 356h378v-244h-109v142h-269v102z" />
    <glyph glyph-name="uni00AD" unicode="&#xad;" horiz-adv-x="0" 
 />
    <glyph glyph-name="registered" unicode="&#xae;" horiz-adv-x="776" 
d="M47 324q0 138 100 235q101 99 240 99q145 0 242 -94q99 -94 99 -235q0 -138 -101 -239q-100 -100 -240 -100q-142 0 -241 96t-99 238zM641 329q0 107 -73 177q-71 70 -181 70q-105 0 -179 -74t-74 -178q0 -110 72 -182q74 -71 181 -71t180 75q74 76 74 183zM452 383
q0 38 -47 38h-57v-82h58q46 0 46 44zM477 292l58 -124h-86l-46 107h-55v-107h-79v319h147q53 0 84.5 -27.5t31.5 -75.5q0 -63 -55 -92z" />
    <glyph glyph-name="overscore" unicode="&#xaf;" 
d="M120 572v89h260v-89h-260z" />
    <glyph glyph-name="degree" unicode="&#xb0;" horiz-adv-x="314" 
d="M283 536q0 -50 -38 -86q-37 -36 -89 -36t-89 36t-37 86t37 86t89 36t89 -36q38 -36 38 -86zM111 536q0 -20 13 -34t32 -14q20 0 33 14t13 34q0 21 -13 34.5t-33 13.5q-19 0 -32 -14t-13 -34z" />
    <glyph glyph-name="plusminus" unicode="&#xb1;" horiz-adv-x="438" 
d="M273 418h135v-102h-135v-142h-109v142h-134v102h134v134h109v-134zM30 102h378v-102h-378v102z" />
    <glyph glyph-name="twosuperior" unicode="&#xb2;" horiz-adv-x="309" 
d="M154 498h119v-74h-242v63q89 70 114 98q29 32 29 59q0 33 -40 33q-34 0 -84 -22l-23 70q57 28 118 28q58 0 90 -27t32 -76q0 -41 -25 -74t-88 -78z" />
    <glyph glyph-name="threesuperior" unicode="&#xb3;" horiz-adv-x="306" 
d="M273 519q0 -47 -34 -73.5t-95 -26.5q-64 0 -115 22l20 67q47 -17 88 -17q49 0 49 35q0 29 -43 29h-67v66h62q39 0 39 32q0 27 -41 27q-37 0 -82 -16l-17 66q50 23 109 23q56 0 87.5 -22.5t31.5 -63.5q0 -54 -49 -74q57 -19 57 -74z" />
    <glyph glyph-name="acute" unicode="&#xb4;" 
d="M395 648l-89 -97h-108l104 162z" />
    <glyph glyph-name="mu" unicode="&#xb5;" horiz-adv-x="563" 
d="M245 -6q-32 -5 -55 5v-194h-117v694h119v-324q0 -77 66 -77q51 0 113 47v354h119v-499h-115v60q-67 -60 -130 -66z" />
    <glyph glyph-name="paragraph" unicode="&#xb6;" horiz-adv-x="651" 
d="M252 648h117v-648h-117v256q-94 0 -150.5 54t-56.5 146q0 89 56.5 140.5t150.5 51.5zM567 648v-648h-117v648h117z" />
    <glyph glyph-name="middot" unicode="&#xb7;" 
d="M319 363q0 -30 -19 -48.5t-51 -18.5q-31 0 -50 18.5t-19 48.5q0 29 19 48t50 19t50.5 -19t19.5 -48z" />
    <glyph glyph-name="cedilla" unicode="&#xb8;" 
d="M370 -119q0 -41 -29.5 -65.5t-79.5 -24.5q-49 0 -89 17l18 59q28 -11 57 -11q38 0 38 23q0 20 -32 20q-18 0 -38 -5l-24 31l39 93h67l-19 -59q42 -1 67 -22t25 -56z" />
    <glyph glyph-name="onesuperior" unicode="&#xb9;" horiz-adv-x="278" 
d="M195 500h61v-76h-222v76h70v173h-70v75h161v-248z" />
    <glyph glyph-name="ordmasculine" unicode="&#xba;" horiz-adv-x="362" 
d="M321 504q0 -72 -37 -112t-103 -40q-69 0 -105 39t-36 115q0 72 37 112t104 40q68 0 104 -39.5t36 -114.5zM127 506q0 -82 54 -82q53 0 53 80q0 81 -53 81q-54 0 -54 -79z" />
    <glyph glyph-name="guillemotright" unicode="&#xbb;" horiz-adv-x="561" 
d="M274 311v-108l-219 -149v115l133 85l-133 85v121zM520 311v-108l-224 -149v115l136 85l-136 85v121z" />
    <glyph glyph-name="onequarter" unicode="&#xbc;" horiz-adv-x="754" 
d="M195 400h61v-76h-222v76h70v173h-70v75h161v-248zM513 648h104l-392 -648h-104zM685 119h45v-67h-45v-52h-81v52h-151l-7 48q59 123 146 224h93v-205zM529 119h75v122q-28 -39 -75 -122z" />
    <glyph glyph-name="onehalf" unicode="&#xbd;" horiz-adv-x="762" 
d="M195 400h61v-76h-222v76h70v173h-70v75h161v-248zM513 648h104l-392 -648h-104zM606 74h119v-74h-242v63q89 70 114 98q29 32 29 59q0 33 -40 33q-34 0 -84 -22l-23 70q57 28 118 28q58 0 90 -27t32 -76q0 -41 -25 -74t-88 -78z" />
    <glyph glyph-name="threequarters" unicode="&#xbe;" horiz-adv-x="782" 
d="M273 419q0 -47 -34 -73.5t-95 -26.5q-64 0 -115 22l20 67q47 -17 88 -17q49 0 49 35q0 29 -43 29h-67v66h62q39 0 39 32q0 27 -41 27q-37 0 -82 -16l-17 66q50 23 109 23q56 0 87.5 -22.5t31.5 -63.5q0 -54 -49 -74q57 -19 57 -74zM541 648h104l-392 -648h-104zM713 119
h45v-67h-45v-52h-81v52h-151l-7 48q59 123 146 224h93v-205zM557 119h75v122q-28 -39 -75 -122z" />
    <glyph glyph-name="questiondown" unicode="&#xbf;" horiz-adv-x="451" 
d="M185 441q0 31 19.5 49.5t51.5 18.5t51 -19t19 -49t-19 -49t-51 -19t-51.5 19t-19.5 49zM244 -158q-100 0 -154.5 44.5t-54.5 125.5q0 143 168 192l9 88h84l13 -113l-27 -40l-39 -13q-88 -29 -88 -105q0 -78 95 -78q66 0 135 31l31 -94q-74 -38 -172 -38z" />
    <glyph glyph-name="Agrave" unicode="&#xc0;" horiz-adv-x="574" 
d="M201 258l83 306l82 -306h-165zM559 0l-186 648h-172l-186 -648h117l41 152h221l41 -152h124zM232 699l-89 97l93 65l104 -162h-108z" />
    <glyph glyph-name="Aacute" unicode="&#xc1;" horiz-adv-x="574" 
d="M284 564l-83 -306h165zM373 648l186 -648h-124l-41 152h-221l-41 -152h-117l186 648h172zM430 796l-89 -97h-108l104 162z" />
    <glyph glyph-name="Acircumflex" unicode="&#xc2;" horiz-adv-x="574" 
d="M284 564l-83 -306h165zM373 648l186 -648h-124l-41 152h-221l-41 -152h-117l186 648h172zM333 850l112 -151h-104l-58 70l-59 -70h-100l112 151h97z" />
    <glyph glyph-name="Atilde" unicode="&#xc3;" horiz-adv-x="574" 
d="M284 564l-83 -306h165zM373 648l186 -648h-124l-41 152h-221l-41 -152h-117l186 648h172zM226 837q31 0 76 -29q26 -17 39 -17q18 0 36 40l72 -29q-37 -100 -106 -100q-34 0 -80 30q-26 16 -35 16q-18 0 -36 -40l-72 30q38 99 106 99z" />
    <glyph glyph-name="Adieresis" unicode="&#xc4;" horiz-adv-x="574" 
d="M284 564l-83 -306h165zM373 648l186 -648h-124l-41 152h-221l-41 -152h-117l186 648h172zM258 774q0 -29 -18 -47t-49 -18q-30 0 -48.5 18t-18.5 47q0 28 18.5 46.5t48.5 18.5t48.5 -18.5t18.5 -46.5zM445 774q0 -29 -18 -47t-49 -18q-30 0 -48.5 18t-18.5 47
q0 28 18.5 46.5t48.5 18.5t48.5 -18.5t18.5 -46.5z" />
    <glyph glyph-name="Aring" unicode="&#xc5;" horiz-adv-x="574" 
d="M284 564l-83 -306h165zM373 648l186 -648h-124l-41 152h-221l-41 -152h-117l186 648h172zM407 799q0 -46 -34 -75t-88 -29q-58 0 -90.5 27.5t-32.5 78.5q0 47 33.5 76t89.5 29q58 0 90 -28t32 -79zM242 801q0 -40 43 -40q42 0 42 38q0 40 -42 40q-43 0 -43 -38z" />
    <glyph glyph-name="AE" unicode="&#xc6;" horiz-adv-x="814" 
d="M330 545l-106 -283h160v283h-54zM765 103v-103h-381v160h-198l-60 -160h-120l253 648h506v-103h-259v-164h221v-103h-221v-175h259z" />
    <glyph glyph-name="Ccedilla" unicode="&#xc7;" horiz-adv-x="526" 
d="M404 -119q0 -41 -29.5 -65.5t-79.5 -24.5q-49 0 -89 17l18 59q28 -11 57 -11q38 0 38 23q0 20 -32 20q-18 0 -38 -5l-24 31l30 71q-207 43 -207 331q0 157 71 244t199 87q103 0 184 -51l-51 -98q-62 39 -128 39q-76 0 -112 -54t-36 -167q0 -116 37.5 -172t115.5 -56
q69 0 136 39l46 -93q-78 -55 -187 -55h-1l-10 -31q42 -1 67 -22t25 -56z" />
    <glyph glyph-name="Egrave" unicode="&#xc8;" horiz-adv-x="513" 
d="M465 0v103h-260v175h221v103h-221v164h260v103h-381v-648h381zM228 699l-89 97l93 65l104 -162h-108z" />
    <glyph glyph-name="Eacute" unicode="&#xc9;" horiz-adv-x="513" 
d="M465 103v-103h-381v648h381v-103h-260v-164h221v-103h-221v-175h260zM400 796l-89 -97h-108l104 162z" />
    <glyph glyph-name="Ecircumflex" unicode="&#xca;" horiz-adv-x="513" 
d="M465 103v-103h-381v648h381v-103h-260v-164h221v-103h-221v-175h260zM324 850l112 -151h-104l-58 70l-59 -70h-100l112 151h97z" />
    <glyph glyph-name="Edieresis" unicode="&#xcb;" horiz-adv-x="513" 
d="M465 103v-103h-381v648h381v-103h-260v-164h221v-103h-221v-175h260zM249 774q0 -29 -18 -47t-49 -18q-30 0 -48.5 18t-18.5 47q0 28 18.5 46.5t48.5 18.5t48.5 -18.5t18.5 -46.5zM436 774q0 -29 -18 -47t-49 -18q-30 0 -48.5 18t-18.5 47q0 28 18.5 46.5t48.5 18.5
t48.5 -18.5t18.5 -46.5z" />
    <glyph glyph-name="Igrave" unicode="&#xcc;" horiz-adv-x="289" 
d="M205 648h-121v-648h121v648zM92 699l-89 97l93 65l104 -162h-108z" />
    <glyph glyph-name="Iacute" unicode="&#xcd;" horiz-adv-x="289" 
d="M84 648h121v-648h-121v648zM290 796l-89 -97h-108l104 162z" />
    <glyph glyph-name="Icircumflex" unicode="&#xce;" horiz-adv-x="289" 
d="M84 648h121v-648h-121v648zM193 850l112 -151h-104l-58 70l-59 -70h-100l112 151h97z" />
    <glyph glyph-name="Idieresis" unicode="&#xcf;" horiz-adv-x="289" 
d="M84 648h121v-648h-121v648zM118 774q0 -29 -18 -47t-49 -18q-30 0 -48.5 18t-18.5 47q0 28 18.5 46.5t48.5 18.5t48.5 -18.5t18.5 -46.5zM305 774q0 -29 -18 -47t-49 -18q-30 0 -48.5 18t-18.5 47q0 28 18.5 46.5t48.5 18.5t48.5 -18.5t18.5 -46.5z" />
    <glyph glyph-name="Eth" unicode="&#xd0;" horiz-adv-x="646" 
d="M324 0h-220v283h-74v98h74v267h220q136 0 205.5 -82t69.5 -243q0 -155 -71.5 -239t-203.5 -84zM226 381h120v-98h-120v-179h99q146 0 146 219q0 220 -146 220h-99v-162z" />
    <glyph glyph-name="Ntilde" unicode="&#xd1;" horiz-adv-x="658" 
d="M574 648v-648h-153l-226 489v-489h-111v648h151l227 -492v492h112zM270 837q31 0 76 -29q26 -17 39 -17q18 0 36 40l72 -29q-37 -100 -106 -100q-34 0 -80 30q-26 16 -35 16q-18 0 -36 -40l-72 30q38 99 106 99z" />
    <glyph glyph-name="Ograve" unicode="&#xd2;" horiz-adv-x="642" 
d="M593 321q0 166 -69 251.5t-204 85.5q-129 0 -200.5 -87t-71.5 -244q0 -166 69 -251.5t203 -85.5q130 0 201.5 87t71.5 244zM175 327q0 221 145 221q146 0 146 -227q0 -222 -146 -222q-145 0 -145 228zM268 699l-89 97l93 65l104 -162h-108z" />
    <glyph glyph-name="Oacute" unicode="&#xd3;" horiz-adv-x="642" 
d="M593 321q0 -157 -71.5 -244t-201.5 -87q-134 0 -203 85.5t-69 251.5q0 157 71.5 244t200.5 87q135 0 204 -85.5t69 -251.5zM175 327q0 -228 145 -228q146 0 146 222q0 227 -146 227q-145 0 -145 -221zM466 796l-89 -97h-108l104 162z" />
    <glyph glyph-name="Ocircumflex" unicode="&#xd4;" horiz-adv-x="642" 
d="M593 321q0 -157 -71.5 -244t-201.5 -87q-134 0 -203 85.5t-69 251.5q0 157 71.5 244t200.5 87q135 0 204 -85.5t69 -251.5zM175 327q0 -228 145 -228q146 0 146 222q0 227 -146 227q-145 0 -145 -221zM369 850l112 -151h-104l-58 70l-59 -70h-100l112 151h97z" />
    <glyph glyph-name="Otilde" unicode="&#xd5;" horiz-adv-x="642" 
d="M593 321q0 -157 -71.5 -244t-201.5 -87q-134 0 -203 85.5t-69 251.5q0 157 71.5 244t200.5 87q135 0 204 -85.5t69 -251.5zM175 327q0 -228 145 -228q146 0 146 222q0 227 -146 227q-145 0 -145 -221zM262 837q31 0 76 -29q26 -17 39 -17q18 0 36 40l72 -29
q-37 -100 -106 -100q-34 0 -80 30q-26 16 -35 16q-18 0 -36 -40l-72 30q38 99 106 99z" />
    <glyph glyph-name="Odieresis" unicode="&#xd6;" horiz-adv-x="642" 
d="M593 321q0 -157 -71.5 -244t-201.5 -87q-134 0 -203 85.5t-69 251.5q0 157 71.5 244t200.5 87q135 0 204 -85.5t69 -251.5zM175 327q0 -228 145 -228q146 0 146 222q0 227 -146 227q-145 0 -145 -221zM294 774q0 -29 -18 -47t-49 -18q-30 0 -48.5 18t-18.5 47
q0 28 18.5 46.5t48.5 18.5t48.5 -18.5t18.5 -46.5zM481 774q0 -29 -18 -47t-49 -18q-30 0 -48.5 18t-18.5 47q0 28 18.5 46.5t48.5 18.5t48.5 -18.5t18.5 -46.5z" />
    <glyph glyph-name="multiply" unicode="&#xd7;" horiz-adv-x="438" 
d="M292 305l112 -111l-74 -75l-112 111l-110 -110l-73 73l110 111l-111 110l75 74l110 -110l108 109l74 -73z" />
    <glyph glyph-name="Oslash" unicode="&#xd8;" horiz-adv-x="642" 
d="M320 549q-146 0 -146 -222q0 -79 17 -129l204 331q-31 20 -75 20zM320 98q148 0 148 225q0 69 -15 122l-203 -330q30 -17 70 -17zM594 323q0 -159 -71.5 -246t-202.5 -87q-77 0 -130 27l-41 -67l-80 50l47 77q-68 85 -68 250q0 157 71.5 244t200.5 87q76 0 136 -29l41 67
l80 -48l-49 -80q66 -84 66 -245z" />
    <glyph glyph-name="Ugrave" unicode="&#xd9;" horiz-adv-x="619" 
d="M312 96q-55 0 -87 34t-32 92v426h-121v-426q0 -104 67 -168t173 -64t170 64q65 65 65 168v426h-117v-426q0 -58 -32 -92t-86 -34zM256 699l-89 97l93 65l104 -162h-108z" />
    <glyph glyph-name="Uacute" unicode="&#xda;" horiz-adv-x="619" 
d="M312 96q54 0 86 34t32 92v426h117v-426q0 -103 -65 -168q-64 -64 -170 -64t-173 64t-67 168v426h121v-426q0 -58 32 -92t87 -34zM454 796l-89 -97h-108l104 162z" />
    <glyph glyph-name="Ucircumflex" unicode="&#xdb;" horiz-adv-x="619" 
d="M312 96q54 0 86 34t32 92v426h117v-426q0 -103 -65 -168q-64 -64 -170 -64t-173 64t-67 168v426h121v-426q0 -58 32 -92t87 -34zM357 850l112 -151h-104l-58 70l-59 -70h-100l112 151h97z" />
    <glyph glyph-name="Udieresis" unicode="&#xdc;" horiz-adv-x="619" 
d="M312 96q54 0 86 34t32 92v426h117v-426q0 -103 -65 -168q-64 -64 -170 -64t-173 64t-67 168v426h121v-426q0 -58 32 -92t87 -34zM282 774q0 -29 -18 -47t-49 -18q-30 0 -48.5 18t-18.5 47q0 28 18.5 46.5t48.5 18.5t48.5 -18.5t18.5 -46.5zM469 774q0 -29 -18 -47
t-49 -18q-30 0 -48.5 18t-18.5 47q0 28 18.5 46.5t48.5 18.5t48.5 -18.5t18.5 -46.5z" />
    <glyph glyph-name="Yacute" unicode="&#xdd;" horiz-adv-x="532" 
d="M529 648l-202 -405v-243h-121v243l-204 405h129l140 -292l138 292h120zM414 796l-89 -97h-108l104 162z" />
    <glyph glyph-name="Thorn" unicode="&#xde;" horiz-adv-x="567" 
d="M539 338q0 -98 -61 -153.5t-167 -55.5h-106v-129h-121v648h121v-109h106q106 0 167 -53t61 -148zM417 336q0 48 -30 74t-82 26h-100v-204h101q54 0 82.5 26.5t28.5 77.5z" />
    <glyph glyph-name="germandbls" unicode="&#xdf;" horiz-adv-x="573" 
d="M192 478v-478h-119v478q0 99 54.5 154.5t152.5 55.5q87 0 140 -42.5t53 -111.5q0 -53 -51 -115q-29 -35 -29 -52q0 -18 50 -63q63 -56 83 -93q21 -38 21 -76q0 -66 -44.5 -105.5t-119.5 -39.5q-84 0 -143 38l39 93q52 -33 100 -33q52 0 52 42q0 18 -13.5 37t-55.5 56
q-52 47 -69 72q-16 25 -16 51q0 35 40 90q39 55 39 87q0 33 -20.5 51t-56.5 18q-46 0 -66.5 -27.5t-20.5 -86.5z" />
    <glyph glyph-name="agrave" unicode="&#xe0;" horiz-adv-x="517" 
d="M155 146q0 58 73 58h105v-74q-57 -46 -110 -46q-68 0 -68 62zM450 0v324q0 94 -46.5 139.5t-142.5 45.5q-104 0 -204 -57l37 -90q88 41 150 41q48 0 68.5 -20.5t20.5 -67.5v-30h-112q-84 0 -132.5 -39.5t-48.5 -108.5q0 -66 42 -106.5t109 -40.5q85 0 146 65v-55h113z
M204 551l-89 97l93 65l104 -162h-108z" />
    <glyph glyph-name="aacute" unicode="&#xe1;" horiz-adv-x="517" 
d="M155 146q0 -62 68 -62q53 0 110 46v74h-105q-73 0 -73 -58zM450 324v-324h-113v55q-61 -65 -146 -65q-67 0 -109 40.5t-42 106.5q0 69 48.5 108.5t132.5 39.5h112v30q0 47 -20.5 67.5t-68.5 20.5q-62 0 -150 -41l-37 90q100 57 204 57q96 0 142.5 -45.5t46.5 -139.5z
M402 648l-89 -97h-108l104 162z" />
    <glyph glyph-name="acircumflex" unicode="&#xe2;" horiz-adv-x="517" 
d="M155 146q0 -62 68 -62q53 0 110 46v74h-105q-73 0 -73 -58zM450 324v-324h-113v55q-61 -65 -146 -65q-67 0 -109 40.5t-42 106.5q0 69 48.5 108.5t132.5 39.5h112v30q0 47 -20.5 67.5t-68.5 20.5q-62 0 -150 -41l-37 90q100 57 204 57q96 0 142.5 -45.5t46.5 -139.5z
M305 702l112 -151h-104l-58 70l-59 -70h-100l112 151h97z" />
    <glyph glyph-name="atilde" unicode="&#xe3;" horiz-adv-x="517" 
d="M155 146q0 -62 68 -62q53 0 110 46v74h-105q-73 0 -73 -58zM450 324v-324h-113v55q-61 -65 -146 -65q-67 0 -109 40.5t-42 106.5q0 69 48.5 108.5t132.5 39.5h112v30q0 47 -20.5 67.5t-68.5 20.5q-62 0 -150 -41l-37 90q100 57 204 57q96 0 142.5 -45.5t46.5 -139.5z
M198 689q31 0 76 -29q26 -17 39 -17q18 0 36 40l72 -29q-37 -100 -106 -100q-34 0 -80 30q-26 16 -35 16q-18 0 -36 -40l-72 30q38 99 106 99z" />
    <glyph glyph-name="adieresis" unicode="&#xe4;" horiz-adv-x="517" 
d="M155 146q0 -62 68 -62q53 0 110 46v74h-105q-73 0 -73 -58zM450 324v-324h-113v55q-61 -65 -146 -65q-67 0 -109 40.5t-42 106.5q0 69 48.5 108.5t132.5 39.5h112v30q0 47 -20.5 67.5t-68.5 20.5q-62 0 -150 -41l-37 90q100 57 204 57q96 0 142.5 -45.5t46.5 -139.5z
M230 626q0 -29 -18 -47t-49 -18q-30 0 -48.5 18t-18.5 47q0 28 18.5 46.5t48.5 18.5t48.5 -18.5t18.5 -46.5zM417 626q0 -29 -18 -47t-49 -18q-30 0 -48.5 18t-18.5 47q0 28 18.5 46.5t48.5 18.5t48.5 -18.5t18.5 -46.5z" />
    <glyph glyph-name="aring" unicode="&#xe5;" horiz-adv-x="517" 
d="M155 146q0 -62 68 -62q53 0 110 46v74h-105q-73 0 -73 -58zM450 324v-324h-113v55q-61 -65 -146 -65q-67 0 -109 40.5t-42 106.5q0 69 48.5 108.5t132.5 39.5h112v30q0 47 -20.5 67.5t-68.5 20.5q-62 0 -150 -41l-37 90q100 57 204 57q96 0 142.5 -45.5t46.5 -139.5z
M379 651q0 -46 -34 -75t-88 -29q-58 0 -90.5 27.5t-32.5 78.5q0 47 33.5 76t89.5 29q58 0 90 -28t32 -79zM214 653q0 -40 43 -40q42 0 42 38q0 40 -42 40q-43 0 -43 -38z" />
    <glyph glyph-name="ae" unicode="&#xe6;" horiz-adv-x="797" 
d="M712 123l34 -83q-77 -50 -176 -50q-131 0 -191 78q-78 -78 -179 -78q-71 0 -115.5 40.5t-44.5 106.5q0 69 48.5 108.5t132.5 39.5h109v30q0 47 -20 67.5t-67 20.5q-62 0 -149 -41l-37 90q100 57 198 57q106 0 149 -70q58 70 149 70t146 -60t55 -160q0 -28 -3 -39l-31 -38
h-270q4 -63 35.5 -92.5t95.5 -29.5q59 0 131 33zM553 414q-90 0 -102 -116h195q-2 116 -93 116zM155 146q0 -62 69 -62q61 0 119 59q-8 27 -10 61h-105q-73 0 -73 -58z" />
    <glyph glyph-name="ccedilla" unicode="&#xe7;" horiz-adv-x="449" 
d="M360 -119q0 -41 -29.5 -65.5t-79.5 -24.5q-49 0 -89 17l18 59q28 -11 57 -11q38 0 38 23q0 20 -32 20q-18 0 -38 -5l-24 31l29 70q-84 15 -124 77t-40 176q0 127 60.5 194t173.5 67q80 0 140 -36l-35 -95q-54 26 -102 26q-61 0 -89 -37.5t-28 -118.5q0 -82 28 -117
t93 -35q52 0 104 24l29 -94q-69 -36 -142 -36l-10 -31q42 -1 67 -22t25 -56z" />
    <glyph glyph-name="egrave" unicode="&#xe8;" horiz-adv-x="516" 
d="M431 123q-70 -33 -134 -33q-65 0 -97 29.5t-37 92.5h276l31 38q3 11 3 39q0 99 -56 160q-55 60 -147 60q-104 0 -165 -72q-61 -70 -61 -192q0 -125 62 -190t181 -65q103 0 178 50zM270 414q93 0 95 -115h-201q6 59 32 87t74 28zM204 551l-89 97l93 65l104 -162h-108z" />
    <glyph glyph-name="eacute" unicode="&#xe9;" horiz-adv-x="516" 
d="M431 123l34 -83q-75 -50 -178 -50q-119 0 -181 65t-62 190q0 122 61 192q61 72 165 72q92 0 147 -60q56 -61 56 -160q0 -28 -3 -39l-31 -38h-276q5 -63 37 -92.5t97 -29.5q64 0 134 33zM270 414q-48 0 -74 -28t-32 -87h201q-2 115 -95 115zM402 648l-89 -97h-108l104 162
z" />
    <glyph glyph-name="ecircumflex" unicode="&#xea;" horiz-adv-x="516" 
d="M431 123l34 -83q-75 -50 -178 -50q-119 0 -181 65t-62 190q0 122 61 192q61 72 165 72q92 0 147 -60q56 -61 56 -160q0 -28 -3 -39l-31 -38h-276q5 -63 37 -92.5t97 -29.5q64 0 134 33zM270 414q-48 0 -74 -28t-32 -87h201q-2 115 -95 115zM305 702l112 -151h-104l-58 70
l-59 -70h-100l112 151h97z" />
    <glyph glyph-name="edieresis" unicode="&#xeb;" horiz-adv-x="516" 
d="M431 123l34 -83q-75 -50 -178 -50q-119 0 -181 65t-62 190q0 122 61 192q61 72 165 72q92 0 147 -60q56 -61 56 -160q0 -28 -3 -39l-31 -38h-276q5 -63 37 -92.5t97 -29.5q64 0 134 33zM270 414q-48 0 -74 -28t-32 -87h201q-2 115 -95 115zM231 626q0 -29 -18 -47
t-49 -18q-30 0 -48.5 18t-18.5 47q0 28 18.5 46.5t48.5 18.5t48.5 -18.5t18.5 -46.5zM418 626q0 -29 -18 -47t-49 -18q-30 0 -48.5 18t-18.5 47q0 28 18.5 46.5t48.5 18.5t48.5 -18.5t18.5 -46.5z" />
    <glyph glyph-name="igrave" unicode="&#xec;" horiz-adv-x="265" 
d="M73 499v-499h119v499h-119zM80 551l-89 97l93 65l104 -162h-108z" />
    <glyph glyph-name="iacute" unicode="&#xed;" horiz-adv-x="265" 
d="M73 0v499h119v-499h-119zM278 648l-89 -97h-108l104 162z" />
    <glyph glyph-name="icircumflex" unicode="&#xee;" horiz-adv-x="265" 
d="M73 0v499h119v-499h-119zM181 702l112 -151h-104l-58 70l-59 -70h-100l112 151h97z" />
    <glyph glyph-name="idieresis" unicode="&#xef;" horiz-adv-x="265" 
d="M73 0v499h119v-499h-119zM106 626q0 -29 -18 -47t-49 -18q-30 0 -48.5 18t-18.5 47q0 28 18.5 46.5t48.5 18.5t48.5 -18.5t18.5 -46.5zM293 626q0 -29 -18 -47t-49 -18q-30 0 -48.5 18t-18.5 47q0 28 18.5 46.5t48.5 18.5t48.5 -18.5t18.5 -46.5z" />
    <glyph glyph-name="eth" unicode="&#xf0;" horiz-adv-x="542" 
d="M485 291v-75q-1 -107 -58.5 -166.5t-160.5 -59.5q-107 0 -163 59t-56 173q0 105 57.5 166.5t156.5 61.5q73 0 111 -42q-11 86 -61 134l-53 -48l-47 50l40 37q-27 13 -74 23l25 81q66 -8 122 -37l49 45l50 -49l-41 -37q104 -99 103 -316zM162 222q0 -136 104 -136
q103 0 103 133q0 135 -103 135q-104 0 -104 -132z" />
    <glyph glyph-name="ntilde" unicode="&#xf1;" horiz-adv-x="564" 
d="M310 400q-56 0 -118 -47v-353h-119v499h114v-62q79 72 159 72q72 0 111 -43.5t39 -124.5v-341h-120v324q0 76 -66 76zM223 689q31 0 76 -29q26 -17 39 -17q18 0 36 40l72 -29q-37 -100 -106 -100q-34 0 -80 30q-26 16 -35 16q-18 0 -36 -40l-72 30q38 99 106 99z" />
    <glyph glyph-name="ograve" unicode="&#xf2;" horiz-adv-x="533" 
d="M487 248q0 261 -221 261q-105 0 -162.5 -67.5t-57.5 -190.5q0 -261 220 -261q106 0 163.5 67t57.5 191zM165 251q0 81 24.5 119t76.5 38q101 0 101 -160q0 -158 -101 -158t-101 161zM214 551l-89 97l93 65l104 -162h-108z" />
    <glyph glyph-name="oacute" unicode="&#xf3;" horiz-adv-x="533" 
d="M487 248q0 -124 -57.5 -191t-163.5 -67q-220 0 -220 261q0 123 57.5 190.5t162.5 67.5q221 0 221 -261zM165 251q0 -161 101 -161t101 158q0 160 -101 160q-52 0 -76.5 -38t-24.5 -119zM412 648l-89 -97h-108l104 162z" />
    <glyph glyph-name="ocircumflex" unicode="&#xf4;" horiz-adv-x="533" 
d="M487 248q0 -124 -57.5 -191t-163.5 -67q-220 0 -220 261q0 123 57.5 190.5t162.5 67.5q221 0 221 -261zM165 251q0 -161 101 -161t101 158q0 160 -101 160q-52 0 -76.5 -38t-24.5 -119zM315 702l112 -151h-104l-58 70l-59 -70h-100l112 151h97z" />
    <glyph glyph-name="otilde" unicode="&#xf5;" horiz-adv-x="533" 
d="M487 248q0 -124 -57.5 -191t-163.5 -67q-220 0 -220 261q0 123 57.5 190.5t162.5 67.5q221 0 221 -261zM165 251q0 -161 101 -161t101 158q0 160 -101 160q-52 0 -76.5 -38t-24.5 -119zM208 689q31 0 76 -29q26 -17 39 -17q18 0 36 40l72 -29q-37 -100 -106 -100
q-34 0 -80 30q-26 16 -35 16q-18 0 -36 -40l-72 30q38 99 106 99z" />
    <glyph glyph-name="odieresis" unicode="&#xf6;" horiz-adv-x="533" 
d="M487 248q0 -124 -57.5 -191t-163.5 -67q-220 0 -220 261q0 123 57.5 190.5t162.5 67.5q221 0 221 -261zM165 251q0 -161 101 -161t101 158q0 160 -101 160q-52 0 -76.5 -38t-24.5 -119zM240 626q0 -29 -18 -47t-49 -18q-30 0 -48.5 18t-18.5 47q0 28 18.5 46.5t48.5 18.5
t48.5 -18.5t18.5 -46.5zM427 626q0 -29 -18 -47t-49 -18q-30 0 -48.5 18t-18.5 47q0 28 18.5 46.5t48.5 18.5t48.5 -18.5t18.5 -46.5z" />
    <glyph glyph-name="divide" unicode="&#xf7;" horiz-adv-x="438" 
d="M289 501q0 -31 -19.5 -49.5t-51.5 -18.5t-51 19t-19 49t19.5 49t50.5 19q32 0 51.5 -19t19.5 -49zM30 367h378v-102h-378v102zM289 132q0 -31 -19.5 -49.5t-51.5 -18.5t-51 19t-19 49t19.5 49t50.5 19q32 0 51.5 -19t19.5 -49z" />
    <glyph glyph-name="oslash" unicode="&#xf8;" horiz-adv-x="539" 
d="M269 411q-54 0 -79.5 -39t-25.5 -121q0 -54 7 -83l149 233q-21 10 -51 10zM269 88q55 0 80.5 39t25.5 121q0 50 -7 79l-146 -231q19 -8 47 -8zM490 248q0 -124 -57.5 -191t-163.5 -67q-60 0 -103 20l-36 -55l-73 47l41 61q-49 67 -49 188q0 123 57.5 190.5t162.5 67.5
q59 0 106 -21l37 57l73 -48l-43 -64q48 -65 48 -185z" />
    <glyph glyph-name="ugrave" unicode="&#xf9;" horiz-adv-x="558" 
d="M484 0v499h-119v-354q-62 -47 -112 -47q-35 0 -51 18.5t-16 58.5v324h-119v-341q0 -81 38.5 -124.5t110.5 -43.5q74 0 154 71v-61h114zM225 551l-89 97l93 65l104 -162h-108z" />
    <glyph glyph-name="uacute" unicode="&#xfa;" horiz-adv-x="558" 
d="M484 499v-499h-114v61q-80 -71 -154 -71q-72 0 -110.5 43.5t-38.5 124.5v341h119v-324q0 -40 16 -58.5t51 -18.5q50 0 112 47v354h119zM423 648l-89 -97h-108l104 162z" />
    <glyph glyph-name="ucircumflex" unicode="&#xfb;" horiz-adv-x="558" 
d="M484 499v-499h-114v61q-80 -71 -154 -71q-72 0 -110.5 43.5t-38.5 124.5v341h119v-324q0 -40 16 -58.5t51 -18.5q50 0 112 47v354h119zM326 702l112 -151h-104l-58 70l-59 -70h-100l112 151h97z" />
    <glyph glyph-name="udieresis" unicode="&#xfc;" horiz-adv-x="558" 
d="M484 499v-499h-114v61q-80 -71 -154 -71q-72 0 -110.5 43.5t-38.5 124.5v341h119v-324q0 -40 16 -58.5t51 -18.5q50 0 112 47v354h119zM251 626q0 -29 -18 -47t-49 -18q-30 0 -48.5 18t-18.5 47q0 28 18.5 46.5t48.5 18.5t48.5 -18.5t18.5 -46.5zM438 626q0 -29 -18 -47
t-49 -18q-30 0 -48.5 18t-18.5 47q0 28 18.5 46.5t48.5 18.5t48.5 -18.5t18.5 -46.5z" />
    <glyph glyph-name="yacute" unicode="&#xfd;" horiz-adv-x="498" 
d="M363 499h118l-203 -694h-115l61 195h-63l-145 499h122l109 -424zM394 648l-89 -97h-108l104 162z" />
    <glyph glyph-name="thorn" unicode="&#xfe;" horiz-adv-x="561" 
d="M278 90q64 0 90 36.5t26 123.5q0 82 -23.5 117.5t-79.5 35.5q-52 0 -99 -37v-258q43 -18 86 -18zM514 250q0 -124 -56.5 -192t-157.5 -68q-56 0 -108 24v-209h-119v873h119v-228q59 59 134 59q91 0 139.5 -66.5t48.5 -192.5z" />
    <glyph glyph-name="ydieresis" unicode="&#xff;" horiz-adv-x="498" 
d="M363 499h118l-203 -694h-115l61 195h-63l-145 499h122l109 -424zM222 626q0 -29 -18 -47t-49 -18q-30 0 -48.5 18t-18.5 47q0 28 18.5 46.5t48.5 18.5t48.5 -18.5t18.5 -46.5zM409 626q0 -29 -18 -47t-49 -18q-30 0 -48.5 18t-18.5 47q0 28 18.5 46.5t48.5 18.5
t48.5 -18.5t18.5 -46.5z" />
    <glyph glyph-name="Amacron" unicode="&#x100;" horiz-adv-x="574" 
d="M284 564l-83 -306h165zM373 648l186 -648h-124l-41 152h-221l-41 -152h-117l186 648h172zM155 720v89h260v-89h-260z" />
    <glyph glyph-name="amacron" unicode="&#x101;" horiz-adv-x="517" 
d="M155 146q0 -62 68 -62q53 0 110 46v74h-105q-73 0 -73 -58zM450 324v-324h-113v55q-61 -65 -146 -65q-67 0 -109 40.5t-42 106.5q0 69 48.5 108.5t132.5 39.5h112v30q0 47 -20.5 67.5t-68.5 20.5q-62 0 -150 -41l-37 90q100 57 204 57q96 0 142.5 -45.5t46.5 -139.5z
M127 572v89h260v-89h-260z" />
    <glyph glyph-name="Abreve" unicode="&#x102;" horiz-adv-x="574" 
d="M284 564l-83 -306h165zM373 648l186 -648h-124l-41 152h-221l-41 -152h-117l186 648h172zM329 832h87v-22q0 -52 -35.5 -83.5t-95.5 -31.5q-63 0 -97.5 30.5t-34.5 86.5v20h87v-20q0 -40 45 -40q44 0 44 39v21z" />
    <glyph glyph-name="abreve" unicode="&#x103;" horiz-adv-x="517" 
d="M155 146q0 -62 68 -62q53 0 110 46v74h-105q-73 0 -73 -58zM450 324v-324h-113v55q-61 -65 -146 -65q-67 0 -109 40.5t-42 106.5q0 69 48.5 108.5t132.5 39.5h112v30q0 47 -20.5 67.5t-68.5 20.5q-62 0 -150 -41l-37 90q100 57 204 57q96 0 142.5 -45.5t46.5 -139.5z
M301 684h87v-22q0 -52 -35.5 -83.5t-95.5 -31.5q-63 0 -97.5 30.5t-34.5 86.5v20h87v-20q0 -40 45 -40q44 0 44 39v21z" />
    <glyph glyph-name="Aogonek" unicode="&#x104;" horiz-adv-x="574" 
d="M520 -118l16 -62q-31 -19 -75 -19q-46 0 -74.5 24.5t-28.5 65.5q0 63 77 110l-41 151h-221l-41 -152h-117l186 648h172l186 -648h-23l-19 -11q-36 -23 -51 -41.5t-15 -39.5q0 -34 34 -34q17 0 35 8zM284 564l-83 -306h165z" />
    <glyph glyph-name="aogonek" unicode="&#x105;" horiz-adv-x="517" 
d="M417 -118l16 -62q-31 -19 -75 -19q-46 0 -74.5 24.5t-28.5 65.5q0 65 82 113v51q-61 -65 -146 -65q-67 0 -109 40.5t-42 106.5q0 69 48.5 108.5t132.5 39.5h112v30q0 47 -20.5 67.5t-68.5 20.5q-62 0 -150 -41l-37 90q100 57 204 57q96 0 142.5 -45.5t46.5 -139.5v-324
h-17l-19 -11q-36 -23 -51 -41.5t-15 -39.5q0 -34 34 -34q17 0 35 8zM155 146q0 -62 68 -62q53 0 110 46v74h-105q-73 0 -73 -58z" />
    <glyph glyph-name="Cacute" unicode="&#x106;" horiz-adv-x="526" 
d="M323 -10q-135 0 -205 85.5t-70 251.5q0 157 71 244t199 87q103 0 184 -51l-51 -98q-62 39 -128 39q-76 0 -112 -54t-36 -167q0 -116 37.5 -172t115.5 -56q69 0 136 39l46 -93q-78 -55 -187 -55zM422 796l-89 -97h-108l104 162z" />
    <glyph glyph-name="cacute" unicode="&#x107;" horiz-adv-x="449" 
d="M273 -10q-117 0 -172 62.5t-55 195.5q0 127 60.5 194t173.5 67q80 0 140 -36l-35 -95q-54 26 -102 26q-61 0 -89 -37.5t-28 -118.5q0 -82 28 -117t93 -35q52 0 104 24l29 -94q-63 -36 -147 -36zM383 648l-89 -97h-108l104 162z" />
    <glyph glyph-name="Ccircumflex" unicode="&#x108;" horiz-adv-x="526" 
d="M323 -10q-135 0 -205 85.5t-70 251.5q0 157 71 244t199 87q103 0 184 -51l-51 -98q-62 39 -128 39q-76 0 -112 -54t-36 -167q0 -116 37.5 -172t115.5 -56q69 0 136 39l46 -93q-78 -55 -187 -55zM347 850l112 -151h-104l-58 70l-59 -70h-100l112 151h97z" />
    <glyph glyph-name="ccircumflex" unicode="&#x109;" horiz-adv-x="449" 
d="M273 -10q-117 0 -172 62.5t-55 195.5q0 127 60.5 194t173.5 67q80 0 140 -36l-35 -95q-54 26 -102 26q-61 0 -89 -37.5t-28 -118.5q0 -82 28 -117t93 -35q52 0 104 24l29 -94q-63 -36 -147 -36zM301 702l112 -151h-104l-58 70l-59 -70h-100l112 151h97z" />
    <glyph glyph-name="Cdotaccent" unicode="&#x10a;" horiz-adv-x="526" 
d="M323 -10q-135 0 -205 85.5t-70 251.5q0 157 71 244t199 87q103 0 184 -51l-51 -98q-62 39 -128 39q-76 0 -112 -54t-36 -167q0 -116 37.5 -172t115.5 -56q69 0 136 39l46 -93q-78 -55 -187 -55zM368 776q0 -30 -18.5 -48.5t-50.5 -18.5t-51 18.5t-19 48.5q0 29 19.5 48
t50.5 19t50 -18.5t19 -48.5z" />
    <glyph glyph-name="cdotaccent" unicode="&#x10b;" horiz-adv-x="449" 
d="M273 -10q-117 0 -172 62.5t-55 195.5q0 127 60.5 194t173.5 67q80 0 140 -36l-35 -95q-54 26 -102 26q-61 0 -89 -37.5t-28 -118.5q0 -82 28 -117t93 -35q52 0 104 24l29 -94q-63 -36 -147 -36zM322 628q0 -30 -18.5 -48.5t-50.5 -18.5t-51 18.5t-19 48.5q0 29 19.5 48
t50.5 19t50 -18.5t19 -48.5z" />
    <glyph glyph-name="Ccaron" unicode="&#x10c;" horiz-adv-x="526" 
d="M323 -10q-135 0 -205 85.5t-70 251.5q0 157 71 244t199 87q103 0 184 -51l-51 -98q-62 39 -128 39q-76 0 -112 -54t-36 -167q0 -116 37.5 -172t115.5 -56q69 0 136 39l46 -93q-78 -55 -187 -55zM358 850h101l-112 -151h-97l-112 151h103l59 -70z" />
    <glyph glyph-name="ccaron" unicode="&#x10d;" horiz-adv-x="449" 
d="M273 -10q-117 0 -172 62.5t-55 195.5q0 127 60.5 194t173.5 67q80 0 140 -36l-35 -95q-54 26 -102 26q-61 0 -89 -37.5t-28 -118.5q0 -82 28 -117t93 -35q52 0 104 24l29 -94q-63 -36 -147 -36zM312 702h101l-112 -151h-97l-112 151h103l59 -70z" />
    <glyph glyph-name="Dcaron" unicode="&#x10e;" horiz-adv-x="626" 
d="M303 0h-219v648h219q136 0 205.5 -82t69.5 -243q0 -155 -71.5 -239t-203.5 -84zM451 323q0 220 -146 220h-100v-439h100q146 0 146 219zM372 850h101l-112 -151h-97l-112 151h103l59 -70z" />
    <glyph glyph-name="dcaron" unicode="&#x10f;" horiz-adv-x="653" 
d="M167 248q0 -82 23 -117.5t79 -35.5q53 0 100 37v258q-44 19 -86 19q-63 0 -89.5 -37t-26.5 -124zM488 678v-678h-115v53q-60 -63 -138 -63q-92 0 -140 65.5t-48 192.5q0 125 56.5 193t158.5 68q54 0 107 -24v193h119zM659 678l-15 -168h-91v168h106z" />
    <glyph glyph-name="Dcroat" unicode="&#x110;" horiz-adv-x="646" 
d="M324 0h-220v283h-74v98h74v267h220q136 0 205.5 -82t69.5 -243q0 -155 -71.5 -239t-203.5 -84zM226 381h120v-98h-120v-179h99q146 0 146 219q0 220 -146 220h-99v-162z" />
    <glyph glyph-name="dslash" unicode="&#x111;" horiz-adv-x="561" 
d="M167 248q0 -82 23 -117.5t79 -35.5q53 0 100 37v258q-44 19 -86 19q-63 0 -89.5 -37t-26.5 -124zM488 542v-542h-115v53q-60 -63 -138 -63q-92 0 -140 65.5t-48 192.5q0 125 56.5 193t158.5 68q54 0 107 -24v57h-88v81h88v55h119v-55h61v-81h-61z" />
    <glyph glyph-name="Emacron" unicode="&#x112;" horiz-adv-x="513" 
d="M465 103v-103h-381v648h381v-103h-260v-164h221v-103h-221v-175h260zM146 720v89h260v-89h-260z" />
    <glyph glyph-name="emacron" unicode="&#x113;" horiz-adv-x="516" 
d="M431 123l34 -83q-75 -50 -178 -50q-119 0 -181 65t-62 190q0 122 61 192q61 72 165 72q92 0 147 -60q56 -61 56 -160q0 -28 -3 -39l-31 -38h-276q5 -63 37 -92.5t97 -29.5q64 0 134 33zM270 414q-48 0 -74 -28t-32 -87h201q-2 115 -95 115zM133 572v89h260v-89h-260z" />
    <glyph glyph-name="Ebreve" unicode="&#x114;" horiz-adv-x="513" 
d="M465 103v-103h-381v648h381v-103h-260v-164h221v-103h-221v-175h260zM320 832h87v-22q0 -52 -35.5 -83.5t-95.5 -31.5q-63 0 -97.5 30.5t-34.5 86.5v20h87v-20q0 -40 45 -40q44 0 44 39v21z" />
    <glyph glyph-name="ebreve" unicode="&#x115;" horiz-adv-x="516" 
d="M431 123l34 -83q-75 -50 -178 -50q-119 0 -181 65t-62 190q0 122 61 192q61 72 165 72q92 0 147 -60q56 -61 56 -160q0 -28 -3 -39l-31 -38h-276q5 -63 37 -92.5t97 -29.5q64 0 134 33zM270 414q-48 0 -74 -28t-32 -87h201q-2 115 -95 115zM307 684h87v-22
q0 -52 -35.5 -83.5t-95.5 -31.5q-63 0 -97.5 30.5t-34.5 86.5v20h87v-20q0 -40 45 -40q44 0 44 39v21z" />
    <glyph glyph-name="Edotaccent" unicode="&#x116;" horiz-adv-x="513" 
d="M465 103v-103h-381v648h381v-103h-260v-164h221v-103h-221v-175h260zM345 776q0 -30 -18.5 -48.5t-50.5 -18.5t-51 18.5t-19 48.5q0 29 19.5 48t50.5 19t50 -18.5t19 -48.5z" />
    <glyph glyph-name="edotaccent" unicode="&#x117;" horiz-adv-x="516" 
d="M431 123l34 -83q-75 -50 -178 -50q-119 0 -181 65t-62 190q0 122 61 192q61 72 165 72q92 0 147 -60q56 -61 56 -160q0 -28 -3 -39l-31 -38h-276q5 -63 37 -92.5t97 -29.5q64 0 134 33zM270 414q-48 0 -74 -28t-32 -87h201q-2 115 -95 115zM332 628q0 -30 -18.5 -48.5
t-50.5 -18.5t-51 18.5t-19 48.5q0 29 19.5 48t50.5 19t50 -18.5t19 -48.5z" />
    <glyph glyph-name="Eogonek" unicode="&#x118;" horiz-adv-x="513" 
d="M449 -118l16 -62q-31 -19 -75 -19q-46 0 -74.5 24.5t-28.5 65.5q0 62 75 109h-278v648h381v-103h-260v-164h221v-103h-221v-175h260v-103l-19 -11q-36 -23 -51 -41.5t-15 -39.5q0 -34 34 -34q17 0 35 8z" />
    <glyph glyph-name="eogonek" unicode="&#x119;" horiz-adv-x="515" 
d="M343 -118l16 -62q-31 -19 -75 -19q-46 0 -74.5 24.5t-28.5 65.5q0 55 63 101q-97 11 -148.5 76t-51.5 177q0 122 61 192q62 72 164 72q93 0 148 -60q56 -61 56 -160q0 -22 -4 -39l-31 -38h-275q5 -63 37 -92.5t97 -29.5q61 0 134 33l34 -83q-29 -20 -88 -43
q-65 -25 -84 -45q-19 -19 -19 -44q0 -34 34 -34q17 0 35 8zM269 414q-93 0 -105 -115h200q-2 115 -95 115z" />
    <glyph glyph-name="Ecaron" unicode="&#x11a;" horiz-adv-x="513" 
d="M465 103v-103h-381v648h381v-103h-260v-164h221v-103h-221v-175h260zM335 850h101l-112 -151h-97l-112 151h103l59 -70z" />
    <glyph glyph-name="ecaron" unicode="&#x11b;" horiz-adv-x="516" 
d="M431 123l34 -83q-75 -50 -178 -50q-119 0 -181 65t-62 190q0 122 61 192q61 72 165 72q92 0 147 -60q56 -61 56 -160q0 -28 -3 -39l-31 -38h-276q5 -63 37 -92.5t97 -29.5q64 0 134 33zM270 414q-48 0 -74 -28t-32 -87h201q-2 115 -95 115zM322 702h101l-112 -151h-97
l-112 151h103l59 -70z" />
    <glyph glyph-name="Gcircumflex" unicode="&#x11c;" horiz-adv-x="575" 
d="M409 318h113v-272q-82 -56 -197 -56q-136 0 -206.5 86t-70.5 251q0 157 72 244t201 87q114 0 188 -49l-51 -97q-61 36 -133 36q-77 0 -113.5 -54t-36.5 -167q0 -116 38 -172t117 -56q45 0 79 10v209zM346 850l112 -151h-104l-58 70l-59 -70h-100l112 151h97z" />
    <glyph glyph-name="gcircumflex" unicode="&#x11d;" horiz-adv-x="529" 
d="M176 342q0 -85 85 -85t85 83q0 85 -85 85t-85 -83zM497 -13q0 -85 -75 -138q-75 -54 -195 -54q-93 0 -147 34.5t-54 92.5q0 71 75 103q-48 31 -48 84q0 65 72 100q-62 44 -62 133q0 76 53.5 121.5t144.5 45.5q43 0 83 -12l156 50l23 -95l-97 -21q32 -37 32 -91
q0 -77 -53 -122.5t-144 -45.5q-24 0 -56 5q-44 -17 -44 -43q0 -29 42 -29h138q76 0 116 -30t40 -88zM138 -57q0 -30 25.5 -47t72.5 -17q63 0 106 23.5t43 57.5q0 22 -14.5 31t-48.5 9h-120q-20 0 -25 1q-39 -20 -39 -58zM311 702l112 -151h-104l-58 70l-59 -70h-100l112 151
h97z" />
    <glyph glyph-name="Gbreve" unicode="&#x11e;" horiz-adv-x="575" 
d="M409 318h113v-272q-82 -56 -197 -56q-136 0 -206.5 86t-70.5 251q0 157 72 244t201 87q114 0 188 -49l-51 -97q-61 36 -133 36q-77 0 -113.5 -54t-36.5 -167q0 -116 38 -172t117 -56q45 0 79 10v209zM342 832h87v-22q0 -52 -35.5 -83.5t-95.5 -31.5q-63 0 -97.5 30.5
t-34.5 86.5v20h87v-20q0 -40 45 -40q44 0 44 39v21z" />
    <glyph glyph-name="gbreve" unicode="&#x11f;" horiz-adv-x="529" 
d="M176 342q0 -85 85 -85t85 83q0 85 -85 85t-85 -83zM497 -13q0 -85 -75 -138q-75 -54 -195 -54q-93 0 -147 34.5t-54 92.5q0 71 75 103q-48 31 -48 84q0 65 72 100q-62 44 -62 133q0 76 53.5 121.5t144.5 45.5q43 0 83 -12l156 50l23 -95l-97 -21q32 -37 32 -91
q0 -77 -53 -122.5t-144 -45.5q-24 0 -56 5q-44 -17 -44 -43q0 -29 42 -29h138q76 0 116 -30t40 -88zM138 -57q0 -30 25.5 -47t72.5 -17q63 0 106 23.5t43 57.5q0 22 -14.5 31t-48.5 9h-120q-20 0 -25 1q-39 -20 -39 -58zM309 684h87v-22q0 -52 -35.5 -83.5t-95.5 -31.5
q-63 0 -97.5 30.5t-34.5 86.5v20h87v-20q0 -40 45 -40q44 0 44 39v21z" />
    <glyph glyph-name="Gdotaccent" unicode="&#x120;" horiz-adv-x="575" 
d="M409 318h113v-272q-82 -56 -197 -56q-136 0 -206.5 86t-70.5 251q0 157 72 244t201 87q114 0 188 -49l-51 -97q-61 36 -133 36q-77 0 -113.5 -54t-36.5 -167q0 -116 38 -172t117 -56q45 0 79 10v209zM367 776q0 -30 -18.5 -48.5t-50.5 -18.5t-51 18.5t-19 48.5
q0 29 19.5 48t50.5 19t50 -18.5t19 -48.5z" />
    <glyph glyph-name="gdotaccent" unicode="&#x121;" horiz-adv-x="529" 
d="M176 342q0 -85 85 -85t85 83q0 85 -85 85t-85 -83zM497 -13q0 -85 -75 -138q-75 -54 -195 -54q-93 0 -147 34.5t-54 92.5q0 71 75 103q-48 31 -48 84q0 65 72 100q-62 44 -62 133q0 76 53.5 121.5t144.5 45.5q43 0 83 -12l156 50l23 -95l-97 -21q32 -37 32 -91
q0 -77 -53 -122.5t-144 -45.5q-24 0 -56 5q-44 -17 -44 -43q0 -29 42 -29h138q76 0 116 -30t40 -88zM138 -57q0 -30 25.5 -47t72.5 -17q63 0 106 23.5t43 57.5q0 22 -14.5 31t-48.5 9h-120q-20 0 -25 1q-39 -20 -39 -58zM330 628q0 -30 -18.5 -48.5t-50.5 -18.5t-51 18.5
t-19 48.5q0 29 19.5 48t50.5 19t50 -18.5t19 -48.5z" />
    <glyph glyph-name="Gcommaaccent" unicode="&#x122;" horiz-adv-x="575" 
d="M409 318h113v-272q-82 -56 -197 -56q-136 0 -206.5 86t-70.5 251q0 157 72 244t201 87q114 0 188 -49l-51 -97q-61 36 -133 36q-77 0 -113.5 -54t-36.5 -167q0 -116 38 -172t117 -56q45 0 79 10v209zM362 -50l-21 -173h-92l5 173h108z" />
    <glyph glyph-name="gcommaaccent" unicode="&#x123;" horiz-adv-x="529" 
d="M176 342q0 -85 85 -85t85 83q0 85 -85 85t-85 -83zM497 -13q0 -85 -75 -138q-75 -54 -195 -54q-93 0 -147 34.5t-54 92.5q0 71 75 103q-48 31 -48 84q0 65 72 100q-62 44 -62 133q0 76 53.5 121.5t144.5 45.5q43 0 83 -12l156 50l23 -95l-97 -21q32 -37 32 -91
q0 -77 -53 -122.5t-144 -45.5q-24 0 -56 5q-44 -17 -44 -43q0 -29 42 -29h138q76 0 116 -30t40 -88zM138 -57q0 -30 25.5 -47t72.5 -17q63 0 106 23.5t43 57.5q0 22 -14.5 31t-48.5 9h-120q-20 0 -25 1q-39 -20 -39 -58zM207 550l21 173h92l-5 -173h-108z" />
    <glyph glyph-name="Hcircumflex" unicode="&#x124;" horiz-adv-x="662" 
d="M578 648v-648h-122v281h-251v-281h-121v648h121v-258h251v258h122zM379 850l112 -151h-104l-58 70l-59 -70h-100l112 151h97z" />
    <glyph glyph-name="hcircumflex" unicode="&#x125;" horiz-adv-x="564" 
d="M310 400q-56 0 -118 -47v-353h-119v678h119v-237q75 68 154 68q72 0 111 -43.5t39 -124.5v-341h-120v323q0 77 -66 77zM282 885l112 -151h-104l-58 70l-59 -70h-100l112 151h97z" />
    <glyph glyph-name="Hbar" unicode="&#x126;" horiz-adv-x="690" 
d="M219 483v-93h251v93h-251zM592 483v-483h-122v281h-251v-281h-122v483h-74v85h74v80h122v-80h251v80h122v-80h74v-85h-74z" />
    <glyph glyph-name="hbar" unicode="&#x127;" horiz-adv-x="564" 
d="M310 400q-56 0 -118 -47v-353h-119v542h-61v81h61v55h119v-55h88v-81h-88v-101q75 68 154 68q72 0 111 -43.5t39 -124.5v-341h-120v323q0 77 -66 77z" />
    <glyph glyph-name="Itilde" unicode="&#x128;" horiz-adv-x="289" 
d="M84 648h121v-648h-121v648zM86 837q31 0 76 -29q26 -17 39 -17q18 0 36 40l72 -29q-37 -100 -106 -100q-34 0 -80 30q-26 16 -35 16q-18 0 -36 -40l-72 30q38 99 106 99z" />
    <glyph glyph-name="itilde" unicode="&#x129;" horiz-adv-x="265" 
d="M73 0v499h119v-499h-119zM74 689q31 0 76 -29q26 -17 39 -17q18 0 36 40l72 -29q-37 -100 -106 -100q-34 0 -80 30q-26 16 -35 16q-18 0 -36 -40l-72 30q38 99 106 99z" />
    <glyph glyph-name="Imacron" unicode="&#x12a;" horiz-adv-x="289" 
d="M84 648h121v-648h-121v648zM15 720v89h260v-89h-260z" />
    <glyph glyph-name="imacron" unicode="&#x12b;" horiz-adv-x="265" 
d="M73 0v499h119v-499h-119zM3 572v89h260v-89h-260z" />
    <glyph glyph-name="Ibreve" unicode="&#x12c;" horiz-adv-x="289" 
d="M84 648h121v-648h-121v648zM189 832h87v-22q0 -52 -35.5 -83.5t-95.5 -31.5q-63 0 -97.5 30.5t-34.5 86.5v20h87v-20q0 -40 45 -40q44 0 44 39v21z" />
    <glyph glyph-name="ibreve" unicode="&#x12d;" horiz-adv-x="265" 
d="M73 0v499h119v-499h-119zM177 684h87v-22q0 -52 -35.5 -83.5t-95.5 -31.5q-63 0 -97.5 30.5t-34.5 86.5v20h87v-20q0 -40 45 -40q44 0 44 39v21z" />
    <glyph glyph-name="Iogonek" unicode="&#x12e;" horiz-adv-x="289" 
d="M166 -118l16 -62q-31 -19 -75 -19q-46 0 -74.5 24.5t-28.5 65.5q0 65 80 112v645h121v-648h-23l-19 -11q-36 -23 -51 -41.5t-15 -39.5q0 -34 34 -34q17 0 35 8z" />
    <glyph glyph-name="iogonek" unicode="&#x12f;" horiz-adv-x="265" 
d="M201 628q0 -30 -18.5 -48.5t-50.5 -18.5t-50.5 18.5t-18.5 48.5t19 48.5t50 18.5t50 -18.5t19 -48.5zM154 -118l16 -62q-31 -19 -75 -19q-46 0 -74.5 24.5t-28.5 65.5q0 66 81 113v495h119v-499h-22l-19 -11q-36 -23 -51 -41.5t-15 -39.5q0 -34 34 -34q17 0 35 8z" />
    <glyph glyph-name="Idot" unicode="&#x130;" horiz-adv-x="289" 
d="M84 648h121v-648h-121v648zM214 776q0 -30 -18.5 -48.5t-50.5 -18.5t-51 18.5t-19 48.5q0 29 19.5 48t50.5 19t50 -18.5t19 -48.5z" />
    <glyph glyph-name="dotlessi" unicode="&#x131;" horiz-adv-x="265" 
d="M73 0v499h119v-499h-119z" />
    <glyph glyph-name="IJ" unicode="&#x132;" horiz-adv-x="579" 
d="M84 648h121v-648h-121v648zM373 71v577h121v-575q0 -94 -31 -153q-31 -61 -115 -125l-71 79q59 53 77 92q19 38 19 105z" />
    <glyph glyph-name="ij" unicode="&#x133;" horiz-adv-x="530" 
d="M201 628q0 -30 -18.5 -48.5t-50.5 -18.5t-50.5 18.5t-18.5 48.5t19 48.5t50 18.5t50 -18.5t19 -48.5zM73 0v499h119v-499h-119zM466 628q0 -30 -18.5 -48.5t-50.5 -18.5t-50.5 18.5t-18.5 48.5t19 48.5t50 18.5t50 -18.5t19 -48.5zM338 76v423h119v-417q0 -98 -31 -159
q-30 -62 -113 -128l-74 82q58 51 79 94q20 42 20 105z" />
    <glyph glyph-name="Jcircumflex" unicode="&#x134;" horiz-adv-x="289" 
d="M84 71v577h121v-575q0 -94 -31 -153q-31 -61 -115 -125l-71 79q59 53 77 92q19 38 19 105zM194 850l112 -151h-104l-58 70l-59 -70h-100l112 151h97z" />
    <glyph glyph-name="jcircumflex" unicode="&#x135;" horiz-adv-x="265" 
d="M73 76v423h119v-417q0 -98 -31 -159q-30 -62 -113 -128l-74 82q58 51 79 94q20 42 20 105zM182 702l112 -151h-104l-58 70l-59 -70h-100l112 151h97z" />
    <glyph glyph-name="Kcommaaccent" unicode="&#x136;" horiz-adv-x="595" 
d="M371 379l217 -379h-141l-163 283l-79 -105v-178h-121v648h121v-309l232 309h134zM369 -50l-21 -173h-92l5 173h108z" />
    <glyph glyph-name="kcommaaccent" unicode="&#x137;" horiz-adv-x="520" 
d="M343 304l166 -304h-132l-118 221l-67 -80v-141h-119v678h119v-399l181 220h127zM329 -50l-21 -173h-92l5 173h108z" />
    <glyph glyph-name="kgreenlandic" unicode="&#x138;" horiz-adv-x="520" 
d="M343 304l166 -304h-133l-118 219l-66 -79v-140h-119v499h119v-219l181 219h127z" />
    <glyph glyph-name="Lacute" unicode="&#x139;" horiz-adv-x="488" 
d="M468 103v-103h-384v648h121v-545h263zM290 797l-89 -97h-108l104 162z" />
    <glyph glyph-name="lacute" unicode="&#x13a;" horiz-adv-x="265" 
d="M73 0v678h119v-678h-119zM278 826l-89 -97h-108l104 162z" />
    <glyph glyph-name="Lcommaaccent" unicode="&#x13b;" horiz-adv-x="488" 
d="M468 103v-103h-384v648h121v-545h263zM333 -50l-21 -173h-92l5 173h108z" />
    <glyph glyph-name="lcommaaccent" unicode="&#x13c;" horiz-adv-x="265" 
d="M73 0v678h119v-678h-119zM187 -50l-21 -173h-92l5 173h108z" />
    <glyph glyph-name="Lcaron" unicode="&#x13d;" horiz-adv-x="488" 
d="M468 103v-103h-384v648h121v-545h263zM419 648l-15 -168h-91v168h106z" />
    <glyph glyph-name="lcaron" unicode="&#x13e;" horiz-adv-x="356" 
d="M73 0v678h119v-678h-119zM363 678l-15 -168h-91v168h106z" />
    <glyph glyph-name="Ldot" unicode="&#x13f;" horiz-adv-x="488" 
d="M468 103v-103h-384v648h121v-545h263zM456 363q0 -30 -19 -48.5t-51 -18.5q-31 0 -50 18.5t-19 48.5q0 29 19 48t50 19t50.5 -19t19.5 -48z" />
    <glyph glyph-name="ldot" unicode="&#x140;" horiz-adv-x="429" 
d="M73 0v678h119v-678h-119zM416 354q0 -30 -19 -48.5t-51 -18.5q-31 0 -50 18.5t-19 48.5q0 29 19 48t50 19t50.5 -19t19.5 -48z" />
    <glyph glyph-name="Lslash" unicode="&#x141;" horiz-adv-x="512" 
d="M492 103v-103h-380v267l-70 -25l-31 87l101 36v283h122v-239l115 42l30 -88l-145 -52v-208h258z" />
    <glyph glyph-name="lslash" unicode="&#x142;" horiz-adv-x="316" 
d="M315 345l-97 -36v-309h-120v264l-59 -22l-31 82l90 33v321h120v-276l68 25z" />
    <glyph glyph-name="Nacute" unicode="&#x143;" horiz-adv-x="658" 
d="M574 648v-648h-153l-226 489v-489h-111v648h151l227 -492v492h112zM474 796l-89 -97h-108l104 162z" />
    <glyph glyph-name="nacute" unicode="&#x144;" horiz-adv-x="564" 
d="M310 400q-56 0 -118 -47v-353h-119v499h114v-62q79 72 159 72q72 0 111 -43.5t39 -124.5v-341h-120v324q0 76 -66 76zM427 648l-89 -97h-108l104 162z" />
    <glyph glyph-name="Ncommaaccent" unicode="&#x145;" horiz-adv-x="658" 
d="M574 648v-648h-153l-226 489v-489h-111v648h151l227 -492v492h112zM383 -50l-21 -173h-92l5 173h108z" />
    <glyph glyph-name="ncommaaccent" unicode="&#x146;" horiz-adv-x="564" 
d="M310 400q-56 0 -118 -47v-353h-119v499h114v-62q79 72 159 72q72 0 111 -43.5t39 -124.5v-341h-120v324q0 76 -66 76zM336 -50l-21 -173h-92l5 173h108z" />
    <glyph glyph-name="Ncaron" unicode="&#x147;" horiz-adv-x="658" 
d="M574 648v-648h-153l-226 489v-489h-111v648h151l227 -492v492h112zM388 850h101l-112 -151h-97l-112 151h103l59 -70z" />
    <glyph glyph-name="ncaron" unicode="&#x148;" horiz-adv-x="564" 
d="M310 400q-56 0 -118 -47v-353h-119v499h114v-62q79 72 159 72q72 0 111 -43.5t39 -124.5v-341h-120v324q0 76 -66 76zM341 702h101l-112 -151h-97l-112 151h103l59 -70z" />
    <glyph glyph-name="napostrophe" unicode="&#x149;" horiz-adv-x="564" 
d="M310 400q-56 0 -118 -47v-353h-119v499h114v-62q79 72 159 72q72 0 111 -43.5t39 -124.5v-341h-120v324q0 76 -66 76zM196 724l-21 -173h-92l5 173h108z" />
    <glyph glyph-name="Eng" unicode="&#x14a;" horiz-adv-x="658" 
d="M427 -205l-71 79q48 41 68 68.5t29 60.5l-258 503v-506h-111v648h151l227 -443v443h112v-575q0 -94 -31 -152q-32 -61 -116 -126z" />
    <glyph glyph-name="eng" unicode="&#x14b;" horiz-adv-x="564" 
d="M352 -205l-75 82q59 52 79 93q20 42 20 106v248q0 76 -66 76q-56 0 -118 -47v-353h-119v499h114v-62q79 72 159 72q72 0 111 -43.5t39 -124.5v-259q0 -98 -31 -159q-30 -62 -113 -128z" />
    <glyph glyph-name="Omacron" unicode="&#x14c;" horiz-adv-x="642" 
d="M593 321q0 -157 -71.5 -244t-201.5 -87q-134 0 -203 85.5t-69 251.5q0 157 71.5 244t200.5 87q135 0 204 -85.5t69 -251.5zM175 327q0 -228 145 -228q146 0 146 222q0 227 -146 227q-145 0 -145 -221zM191 720v89h260v-89h-260z" />
    <glyph glyph-name="omacron" unicode="&#x14d;" horiz-adv-x="533" 
d="M487 248q0 -124 -57.5 -191t-163.5 -67q-220 0 -220 261q0 123 57.5 190.5t162.5 67.5q221 0 221 -261zM165 251q0 -161 101 -161t101 158q0 160 -101 160q-52 0 -76.5 -38t-24.5 -119zM137 572v89h260v-89h-260z" />
    <glyph glyph-name="Obreve" unicode="&#x14e;" horiz-adv-x="642" 
d="M593 321q0 -157 -71.5 -244t-201.5 -87q-134 0 -203 85.5t-69 251.5q0 157 71.5 244t200.5 87q135 0 204 -85.5t69 -251.5zM175 327q0 -228 145 -228q146 0 146 222q0 227 -146 227q-145 0 -145 -221zM365 832h87v-22q0 -52 -35.5 -83.5t-95.5 -31.5q-63 0 -97.5 30.5
t-34.5 86.5v20h87v-20q0 -40 45 -40q44 0 44 39v21z" />
    <glyph glyph-name="obreve" unicode="&#x14f;" horiz-adv-x="533" 
d="M487 248q0 -124 -57.5 -191t-163.5 -67q-220 0 -220 261q0 123 57.5 190.5t162.5 67.5q221 0 221 -261zM165 251q0 -161 101 -161t101 158q0 160 -101 160q-52 0 -76.5 -38t-24.5 -119zM311 684h87v-22q0 -52 -35.5 -83.5t-95.5 -31.5q-63 0 -97.5 30.5t-34.5 86.5v20h87
v-20q0 -40 45 -40q44 0 44 39v21z" />
    <glyph glyph-name="Ohungarumlaut" unicode="&#x150;" horiz-adv-x="642" 
d="M593 321q0 -157 -71.5 -244t-201.5 -87q-134 0 -203 85.5t-69 251.5q0 157 71.5 244t200.5 87q135 0 204 -85.5t69 -251.5zM175 327q0 -228 145 -228q146 0 146 222q0 227 -146 227q-145 0 -145 -221zM356 796l-65 -97h-98l78 162zM518 796l-76 -97h-98l89 162z" />
    <glyph glyph-name="ohungarumlaut" unicode="&#x151;" horiz-adv-x="533" 
d="M487 248q0 -124 -57.5 -191t-163.5 -67q-220 0 -220 261q0 123 57.5 190.5t162.5 67.5q221 0 221 -261zM165 251q0 -161 101 -161t101 158q0 160 -101 160q-52 0 -76.5 -38t-24.5 -119zM302 648l-65 -97h-98l78 162zM464 648l-76 -97h-98l89 162z" />
    <glyph glyph-name="OE" unicode="&#x152;" horiz-adv-x="890" 
d="M175 327q0 -228 143 -228q142 0 142 224q0 225 -142 225q-143 0 -143 -221zM842 103v-103h-377v55q-59 -65 -153 -65q-128 0 -196 86.5t-68 250.5q0 155 70 243t194 88q98 0 153 -60v50h377v-103h-260v-164h222v-103h-222v-175h260z" />
    <glyph glyph-name="oe" unicode="&#x153;" horiz-adv-x="835" 
d="M751 123l34 -83q-77 -50 -176 -50q-123 0 -181 72q-54 -72 -161 -72q-221 0 -221 261q0 124 57.5 191t163.5 67q114 0 168 -78q57 78 157 78q91 0 146 -60t55 -160q0 -28 -3 -39l-31 -38h-270q4 -63 35.5 -92.5t95.5 -29.5q55 0 131 33zM592 414q-90 0 -102 -116h195
q-2 116 -93 116zM166 251q0 -160 101 -160q100 0 100 157q0 159 -100 159q-52 0 -76.5 -38t-24.5 -118z" />
    <glyph glyph-name="Racute" unicode="&#x154;" horiz-adv-x="594" 
d="M416 452q0 44 -29 68.5t-80 24.5h-102v-190h102q52 0 80.5 25t28.5 72zM422 276l144 -276h-137l-125 252h-99v-252h-121v648h230q103 0 164 -52t61 -142q0 -133 -117 -178zM442 796l-89 -97h-108l104 162z" />
    <glyph glyph-name="racute" unicode="&#x155;" horiz-adv-x="369" 
d="M192 348v-348h-119v499h114v-66q41 41 78.5 58.5t83.5 17.5v-115q-92 -4 -157 -46zM327 648l-89 -97h-108l104 162z" />
    <glyph glyph-name="Rcommaaccent" unicode="&#x156;" horiz-adv-x="594" 
d="M416 452q0 44 -29 68.5t-80 24.5h-102v-190h102q52 0 80.5 25t28.5 72zM422 276l144 -276h-137l-125 252h-99v-252h-121v648h230q103 0 164 -52t61 -142q0 -133 -117 -178zM365 -50l-21 -173h-92l5 173h108z" />
    <glyph glyph-name="rcommaaccent" unicode="&#x157;" horiz-adv-x="369" 
d="M192 348v-348h-119v499h114v-66q41 41 78.5 58.5t83.5 17.5v-115q-92 -4 -157 -46zM187 -50l-21 -173h-92l5 173h108z" />
    <glyph glyph-name="Rcaron" unicode="&#x158;" horiz-adv-x="594" 
d="M416 452q0 44 -29 68.5t-80 24.5h-102v-190h102q52 0 80.5 25t28.5 72zM422 276l144 -276h-137l-125 252h-99v-252h-121v648h230q103 0 164 -52t61 -142q0 -133 -117 -178zM356 850h101l-112 -151h-97l-112 151h103l59 -70z" />
    <glyph glyph-name="rcaron" unicode="&#x159;" horiz-adv-x="369" 
d="M192 348v-348h-119v499h114v-66q41 41 78.5 58.5t83.5 17.5v-115q-92 -4 -157 -46zM247 702h101l-112 -151h-97l-112 151h103l59 -70z" />
    <glyph glyph-name="Sacute" unicode="&#x15a;" horiz-adv-x="497" 
d="M460 177q0 -88 -57 -137.5t-158 -49.5q-120 0 -218 64l47 97q90 -57 171 -57q44 0 68.5 19t24.5 54q0 29 -21 51t-93 60q-80 41 -117 75q-52 53 -52 126q0 80 55 129q56 50 147 50q110 0 198 -57l-45 -97q-82 49 -149 49q-39 0 -61.5 -18.5t-22.5 -49.5q0 -27 21 -49
t93 -60q80 -43 115 -75q54 -53 54 -124zM395 796l-89 -97h-108l104 162z" />
    <glyph glyph-name="sacute" unicode="&#x15b;" horiz-adv-x="437" 
d="M400 144q0 -72 -48.5 -113t-134.5 -41q-104 0 -184 55l40 92q81 -49 148 -49q63 0 63 46q0 18 -16.5 32t-67.5 34q-89 36 -119 72q-30 38 -30 89q0 66 48.5 107t128.5 41q92 0 168 -46l-41 -93q-67 40 -128 40q-60 0 -60 -42q0 -19 17 -33.5t70 -36.5q88 -36 117 -71
t29 -83zM365 648l-89 -97h-108l104 162z" />
    <glyph glyph-name="Scircumflex" unicode="&#x15c;" horiz-adv-x="497" 
d="M460 177q0 -88 -57 -137.5t-158 -49.5q-120 0 -218 64l47 97q90 -57 171 -57q44 0 68.5 19t24.5 54q0 29 -21 51t-93 60q-80 41 -117 75q-52 53 -52 126q0 80 55 129q56 50 147 50q110 0 198 -57l-45 -97q-82 49 -149 49q-39 0 -61.5 -18.5t-22.5 -49.5q0 -27 21 -49
t93 -60q80 -43 115 -75q54 -53 54 -124zM298 850l112 -151h-104l-58 70l-59 -70h-100l112 151h97z" />
    <glyph glyph-name="scircumflex" unicode="&#x15d;" horiz-adv-x="437" 
d="M400 144q0 -72 -48.5 -113t-134.5 -41q-104 0 -184 55l40 92q81 -49 148 -49q63 0 63 46q0 18 -16.5 32t-67.5 34q-89 36 -119 72q-30 38 -30 89q0 66 48.5 107t128.5 41q92 0 168 -46l-41 -93q-67 40 -128 40q-60 0 -60 -42q0 -19 17 -33.5t70 -36.5q88 -36 117 -71
t29 -83zM268 702l112 -151h-104l-58 70l-59 -70h-100l112 151h97z" />
    <glyph glyph-name="Scedilla" unicode="&#x15e;" horiz-adv-x="497" 
d="M363 -119q0 -41 -29.5 -65.5t-79.5 -24.5q-49 0 -89 17l18 59q27 -11 57 -11q38 0 38 23q0 20 -32 20q-18 0 -38 -5l-24 31l28 66q-100 7 -185 63l47 97q90 -57 171 -57q44 0 68.5 19t24.5 54q0 29 -21 51t-93 60q-80 41 -117 75q-52 53 -52 126q0 80 55 129
q56 50 147 50q110 0 198 -57l-45 -97q-82 49 -149 49q-39 0 -61.5 -18.5t-22.5 -49.5q0 -27 21 -49t93 -60q80 -43 115 -75q54 -53 54 -124q0 -79 -46.5 -127.5t-131.5 -57.5l-11 -33q42 -1 67 -22t25 -56z" />
    <glyph glyph-name="scedilla" unicode="&#x15f;" horiz-adv-x="437" 
d="M335 -119q0 -41 -29.5 -65.5t-79.5 -24.5q-49 0 -89 17l18 59q27 -11 57 -11q38 0 38 23q0 20 -32 20q-18 0 -38 -5l-24 31l28 67q-84 8 -151 53l40 92q81 -49 148 -49q63 0 63 46q0 18 -16.5 32t-67.5 34q-89 36 -119 72q-30 38 -30 89q0 66 48.5 107t128.5 41
q92 0 168 -46l-41 -93q-67 40 -128 40q-60 0 -60 -42q0 -19 17 -33.5t70 -36.5q88 -36 117 -71t29 -83q0 -63 -38.5 -103t-107.5 -49l-11 -33q42 -1 67 -22t25 -56z" />
    <glyph glyph-name="Scaron" unicode="&#x160;" horiz-adv-x="497" 
d="M460 177q0 -88 -57 -137.5t-158 -49.5q-120 0 -218 64l47 97q90 -57 171 -57q44 0 68.5 19t24.5 54q0 29 -21 51t-93 60q-80 41 -117 75q-52 53 -52 126q0 80 55 129q56 50 147 50q110 0 198 -57l-45 -97q-82 49 -149 49q-39 0 -61.5 -18.5t-22.5 -49.5q0 -27 21 -49
t93 -60q80 -43 115 -75q54 -53 54 -124zM309 850h101l-112 -151h-97l-112 151h103l59 -70z" />
    <glyph glyph-name="scaron" unicode="&#x161;" horiz-adv-x="437" 
d="M400 144q0 -72 -48.5 -113t-134.5 -41q-104 0 -184 55l40 92q81 -49 148 -49q63 0 63 46q0 18 -16.5 32t-67.5 34q-89 36 -119 72q-30 38 -30 89q0 66 48.5 107t128.5 41q92 0 168 -46l-41 -93q-67 40 -128 40q-60 0 -60 -42q0 -19 17 -33.5t70 -36.5q88 -36 117 -71
t29 -83zM279 702h101l-112 -151h-97l-112 151h103l59 -70z" />
    <glyph glyph-name="uni0162" unicode="&#x162;" horiz-adv-x="498" 
d="M15 648h468v-103h-174v-545h-121v545h-173v103zM297 -50l-21 -173h-92l5 173h108z" />
    <glyph glyph-name="uni0163" unicode="&#x163;" horiz-adv-x="396" 
d="M356 111l25 -88q-64 -33 -131 -33q-76 0 -115.5 42.5t-39.5 123.5v248h-83v76l89 19l28 120h83v-120h150v-95h-150v-240q0 -37 14.5 -53t49.5 -16q39 0 80 16zM272 -50l-21 -173h-92l5 173h108z" />
    <glyph glyph-name="Tcaron" unicode="&#x164;" horiz-adv-x="498" 
d="M15 648h468v-103h-174v-545h-121v545h-173v103zM300 850h101l-112 -151h-97l-112 151h103l59 -70z" />
    <glyph glyph-name="tcaron" unicode="&#x165;" horiz-adv-x="396" 
d="M356 111l25 -88q-64 -33 -131 -33q-76 0 -115.5 42.5t-39.5 123.5v248h-83v76l89 19l28 120h83v-120h150v-95h-150v-240q0 -37 14.5 -53t49.5 -16q39 0 80 16zM384 733l-15 -168h-91v168h106z" />
    <glyph glyph-name="Tbar" unicode="&#x166;" horiz-adv-x="498" 
d="M309 347h106v-86h-106v-261h-121v261h-106v86h106v198h-173v103h468v-103h-174v-198z" />
    <glyph glyph-name="tbar" unicode="&#x167;" horiz-adv-x="396" 
d="M356 111l25 -88q-64 -33 -131 -33q-76 0 -115.5 42.5t-39.5 123.5v62h-72v85h72v101h-83v76l89 19l23 120h88v-120h150v-95h-150v-101h115v-85h-115v-54q0 -37 14.5 -53t49.5 -16q39 0 80 16z" />
    <glyph glyph-name="Utilde" unicode="&#x168;" horiz-adv-x="619" 
d="M312 96q54 0 86 34t32 92v426h117v-426q0 -103 -65 -168q-64 -64 -170 -64t-173 64t-67 168v426h121v-426q0 -58 32 -92t87 -34zM250 837q31 0 76 -29q26 -17 39 -17q18 0 36 40l72 -29q-37 -100 -106 -100q-34 0 -80 30q-26 16 -35 16q-18 0 -36 -40l-72 30
q38 99 106 99z" />
    <glyph glyph-name="utilde" unicode="&#x169;" horiz-adv-x="558" 
d="M484 499v-499h-114v61q-80 -71 -154 -71q-72 0 -110.5 43.5t-38.5 124.5v341h119v-324q0 -40 16 -58.5t51 -18.5q50 0 112 47v354h119zM219 689q31 0 76 -29q26 -17 39 -17q18 0 36 40l72 -29q-37 -100 -106 -100q-34 0 -80 30q-26 16 -35 16q-18 0 -36 -40l-72 30
q38 99 106 99z" />
    <glyph glyph-name="Umacron" unicode="&#x16a;" horiz-adv-x="619" 
d="M312 96q54 0 86 34t32 92v426h117v-426q0 -103 -65 -168q-64 -64 -170 -64t-173 64t-67 168v426h121v-426q0 -58 32 -92t87 -34zM179 720v89h260v-89h-260z" />
    <glyph glyph-name="umacron" unicode="&#x16b;" horiz-adv-x="558" 
d="M484 499v-499h-114v61q-80 -71 -154 -71q-72 0 -110.5 43.5t-38.5 124.5v341h119v-324q0 -40 16 -58.5t51 -18.5q50 0 112 47v354h119zM148 572v89h260v-89h-260z" />
    <glyph glyph-name="Ubreve" unicode="&#x16c;" horiz-adv-x="619" 
d="M312 96q54 0 86 34t32 92v426h117v-426q0 -103 -65 -168q-64 -64 -170 -64t-173 64t-67 168v426h121v-426q0 -58 32 -92t87 -34zM353 832h87v-22q0 -52 -35.5 -83.5t-95.5 -31.5q-63 0 -97.5 30.5t-34.5 86.5v20h87v-20q0 -40 45 -40q44 0 44 39v21z" />
    <glyph glyph-name="ubreve" unicode="&#x16d;" horiz-adv-x="558" 
d="M484 499v-499h-114v61q-80 -71 -154 -71q-72 0 -110.5 43.5t-38.5 124.5v341h119v-324q0 -40 16 -58.5t51 -18.5q50 0 112 47v354h119zM322 684h87v-22q0 -52 -35.5 -83.5t-95.5 -31.5q-63 0 -97.5 30.5t-34.5 86.5v20h87v-20q0 -40 45 -40q44 0 44 39v21z" />
    <glyph glyph-name="Uring" unicode="&#x16e;" horiz-adv-x="619" 
d="M312 96q54 0 86 34t32 92v426h117v-426q0 -103 -65 -168q-64 -64 -170 -64t-173 64t-67 168v426h121v-426q0 -58 32 -92t87 -34zM431 799q0 -46 -34 -75t-88 -29q-58 0 -90.5 27.5t-32.5 78.5q0 47 33.5 76t89.5 29q58 0 90 -28t32 -79zM266 801q0 -40 43 -40q42 0 42 38
q0 40 -42 40q-43 0 -43 -38z" />
    <glyph glyph-name="uring" unicode="&#x16f;" horiz-adv-x="558" 
d="M484 499v-499h-114v61q-80 -71 -154 -71q-72 0 -110.5 43.5t-38.5 124.5v341h119v-324q0 -40 16 -58.5t51 -18.5q50 0 112 47v354h119zM400 651q0 -46 -34 -75t-88 -29q-58 0 -90.5 27.5t-32.5 78.5q0 47 33.5 76t89.5 29q58 0 90 -28t32 -79zM235 653q0 -40 43 -40
q42 0 42 38q0 40 -42 40q-43 0 -43 -38z" />
    <glyph glyph-name="Uhungarumlaut" unicode="&#x170;" horiz-adv-x="619" 
d="M312 96q54 0 86 34t32 92v426h117v-426q0 -103 -65 -168q-64 -64 -170 -64t-173 64t-67 168v426h121v-426q0 -58 32 -92t87 -34zM344 796l-65 -97h-98l78 162zM506 796l-76 -97h-98l89 162z" />
    <glyph glyph-name="uhungarumlaut" unicode="&#x171;" horiz-adv-x="558" 
d="M484 499v-499h-114v61q-80 -71 -154 -71q-72 0 -110.5 43.5t-38.5 124.5v341h119v-324q0 -40 16 -58.5t51 -18.5q50 0 112 47v354h119zM313 648l-65 -97h-98l78 162zM475 648l-76 -97h-98l89 162z" />
    <glyph glyph-name="Uogonek" unicode="&#x172;" horiz-adv-x="619" 
d="M311 -199q-47 0 -75 24t-28 66q0 54 64 102q-92 11 -146 74t-54 155v426h121v-426q0 -58 32 -92t87 -34q54 0 86 34t32 92v426h117v-426q0 -85 -43 -143q-36 -45 -120 -88q-51 -27 -67.5 -44t-16.5 -39q0 -16 9.5 -25t25.5 -9q11 0 35 8l15 -62q-33 -19 -74 -19z" />
    <glyph glyph-name="uogonek" unicode="&#x173;" horiz-adv-x="558" 
d="M450 -118l16 -62q-31 -19 -75 -19q-46 0 -74.5 24.5t-28.5 65.5q0 65 82 113v57q-80 -71 -154 -71q-72 0 -110.5 43.5t-38.5 124.5v341h119v-324q0 -40 16 -58.5t51 -18.5q50 0 112 47v354h119v-499h-18l-19 -11q-36 -23 -51 -41.5t-15 -39.5q0 -34 34 -34q17 0 35 8z
" />
    <glyph glyph-name="Wcircumflex" unicode="&#x174;" horiz-adv-x="868" 
d="M846 648l-156 -648h-157l-93 324l-107 -324h-156l-156 648h123l121 -553l127 396l-45 157h120l143 -544l118 544h118zM479 850l112 -151h-104l-58 70l-59 -70h-100l112 151h97z" />
    <glyph glyph-name="wcircumflex" unicode="&#x175;" horiz-adv-x="749" 
d="M373 274l-82 -274h-140l-132 499h121l90 -419l100 337l-24 82h112l105 -415l89 415h117l-132 -499h-142zM418 702l112 -151h-104l-58 70l-59 -70h-100l112 151h97z" />
    <glyph glyph-name="Ycircumflex" unicode="&#x176;" horiz-adv-x="532" 
d="M529 648l-202 -405v-243h-121v243l-204 405h129l140 -292l138 292h120zM311 850l112 -151h-104l-58 70l-59 -70h-100l112 151h97z" />
    <glyph glyph-name="ycircumflex" unicode="&#x177;" horiz-adv-x="498" 
d="M363 499h118l-203 -694h-115l61 195h-63l-145 499h122l109 -424zM297 702l112 -151h-104l-58 70l-59 -70h-100l112 151h97z" />
    <glyph glyph-name="Ydieresis" unicode="&#x178;" horiz-adv-x="532" 
d="M529 648l-202 -405v-243h-121v243l-204 405h129l140 -292l138 292h120zM236 774q0 -29 -18 -47t-49 -18q-30 0 -48.5 18t-18.5 47q0 28 18.5 46.5t48.5 18.5t48.5 -18.5t18.5 -46.5zM423 774q0 -29 -18 -47t-49 -18q-30 0 -48.5 18t-18.5 47q0 28 18.5 46.5t48.5 18.5
t48.5 -18.5t18.5 -46.5z" />
    <glyph glyph-name="Zacute" unicode="&#x179;" horiz-adv-x="489" 
d="M185 103h271v-103h-423v70l267 475h-262v103h413v-71zM386 796l-89 -97h-108l104 162z" />
    <glyph glyph-name="zacute" unicode="&#x17a;" horiz-adv-x="431" 
d="M180 96h219v-96h-364v70l214 333h-209v96h354v-71zM361 648l-89 -97h-108l104 162z" />
    <glyph glyph-name="Zdotaccent" unicode="&#x17b;" horiz-adv-x="489" 
d="M185 103h271v-103h-423v70l267 475h-262v103h413v-71zM310 776q0 -30 -18.5 -48.5t-50.5 -18.5t-51 18.5t-19 48.5q0 29 19.5 48t50.5 19t50 -18.5t19 -48.5z" />
    <glyph glyph-name="zdotaccent" unicode="&#x17c;" horiz-adv-x="431" 
d="M180 96h219v-96h-364v70l214 333h-209v96h354v-71zM285 628q0 -30 -18.5 -48.5t-50.5 -18.5t-51 18.5t-19 48.5q0 29 19.5 48t50.5 19t50 -18.5t19 -48.5z" />
    <glyph glyph-name="Zcaron" unicode="&#x17d;" horiz-adv-x="489" 
d="M185 103h271v-103h-423v70l267 475h-262v103h413v-71zM300 850h101l-112 -151h-97l-112 151h103l59 -70z" />
    <glyph glyph-name="zcaron" unicode="&#x17e;" horiz-adv-x="431" 
d="M180 96h219v-96h-364v70l214 333h-209v96h354v-71zM275 702h101l-112 -151h-97l-112 151h103l59 -70z" />
    <glyph glyph-name="uni0191" unicode="&#x191;" horiz-adv-x="497" 
d="M426 264h-221v-191q0 -94 -31 -153q-31 -61 -115 -125l-71 79q59 53 77 92q19 38 19 105v577h381v-103h-260v-178h221v-103z" />
    <glyph glyph-name="uni0192" unicode="&#x192;" horiz-adv-x="362" 
d="M350 404h-129v-322q0 -98 -31 -159q-30 -62 -113 -128l-75 82q59 50 80 94q20 42 20 105v328h-83v76l83 19v10q0 84 48 131.5t133 47.5q53 0 92 -14l-18 -89q-34 8 -60 8q-43 0 -59.5 -18t-16.5 -66v-10h129v-95z" />
    <glyph glyph-name="uni0218" unicode="&#x218;" horiz-adv-x="497" 
d="M460 177q0 -88 -57 -137.5t-158 -49.5q-120 0 -218 64l47 97q90 -57 171 -57q44 0 68.5 19t24.5 54q0 29 -21 51t-93 60q-80 41 -117 75q-52 53 -52 126q0 80 55 129q56 50 147 50q110 0 198 -57l-45 -97q-82 49 -149 49q-39 0 -61.5 -18.5t-22.5 -49.5q0 -27 21 -49
t93 -60q80 -43 115 -75q54 -53 54 -124zM304 -50l-21 -173h-92l5 173h108z" />
    <glyph glyph-name="uni0219" unicode="&#x219;" horiz-adv-x="437" 
d="M400 144q0 -72 -48.5 -113t-134.5 -41q-104 0 -184 55l40 92q81 -49 148 -49q63 0 63 46q0 18 -16.5 32t-67.5 34q-89 36 -119 72q-30 38 -30 89q0 66 48.5 107t128.5 41q92 0 168 -46l-41 -93q-67 40 -128 40q-60 0 -60 -42q0 -19 17 -33.5t70 -36.5q88 -36 117 -71
t29 -83zM274 -50l-21 -173h-92l5 173h108z" />
    <glyph glyph-name="uni021A" unicode="&#x21a;" horiz-adv-x="498" 
d="M15 648h468v-103h-174v-545h-121v545h-173v103zM297 -50l-21 -173h-92l5 173h108z" />
    <glyph glyph-name="uni021B" unicode="&#x21b;" horiz-adv-x="396" 
d="M356 111l25 -88q-64 -33 -131 -33q-76 0 -115.5 42.5t-39.5 123.5v248h-83v76l89 19l28 120h83v-120h150v-95h-150v-240q0 -37 14.5 -53t49.5 -16q39 0 80 16zM272 -50l-21 -173h-92l5 173h108z" />
    <glyph glyph-name="dotlessj" unicode="&#x237;" horiz-adv-x="265" 
d="M73 76v423h119v-417q0 -98 -31 -159q-30 -62 -113 -128l-74 82q58 51 79 94q20 42 20 105z" />
    <glyph glyph-name="circumflex" unicode="&#x2c6;" 
d="M298 702l112 -151h-104l-58 70l-59 -70h-100l112 151h97z" />
    <glyph glyph-name="caron" unicode="&#x2c7;" 
d="M309 702h101l-112 -151h-97l-112 151h103l59 -70z" />
    <glyph glyph-name="breve" unicode="&#x2d8;" 
d="M294 684h87v-22q0 -52 -35.5 -83.5t-95.5 -31.5q-63 0 -97.5 30.5t-34.5 86.5v20h87v-20q0 -40 45 -40q44 0 44 39v21z" />
    <glyph glyph-name="dotaccent" unicode="&#x2d9;" 
d="M319 628q0 -30 -18.5 -48.5t-50.5 -18.5t-51 18.5t-19 48.5q0 29 19.5 48t50.5 19t50 -18.5t19 -48.5z" />
    <glyph glyph-name="ring" unicode="&#x2da;" 
d="M372 651q0 -46 -34 -75t-88 -29q-58 0 -90.5 27.5t-32.5 78.5q0 47 33.5 76t89.5 29q58 0 90 -28t32 -79zM207 653q0 -40 43 -40q42 0 42 38q0 40 -42 40q-43 0 -43 -38z" />
    <glyph glyph-name="ogonek" unicode="&#x2db;" 
d="M257 -92q0 -34 34 -34q17 0 35 8l16 -62q-31 -19 -75 -19q-46 0 -74.5 24.5t-28.5 65.5q0 74 107 127l23 11l48 -29l-19 -11q-36 -23 -51 -41.5t-15 -39.5z" />
    <glyph glyph-name="tilde" unicode="&#x2dc;" 
d="M191 689q31 0 76 -29q26 -17 39 -17q18 0 36 40l72 -29q-37 -100 -106 -100q-34 0 -80 30q-26 16 -35 16q-18 0 -36 -40l-72 30q38 99 106 99z" />
    <glyph glyph-name="hungarumlaut" unicode="&#x2dd;" 
d="M285 648l-65 -97h-98l78 162zM447 648l-76 -97h-98l89 162z" />
    <glyph glyph-name="pi" unicode="&#x3c0;" horiz-adv-x="590" 
d="M558 96l20 -86q-42 -20 -90 -20q-126 0 -126 143v249h-149v-382h-119v382h-70v108h536v-108h-79v-249q0 -45 39 -45q19 0 38 8z" />
    <glyph glyph-name="Wgrave" unicode="&#x1e80;" horiz-adv-x="868" 
d="M690 0l156 648h-118l-118 -544l-143 544h-120l45 -157l-127 -396l-121 553h-123l156 -648h156l107 324l93 -324h157zM378 699l-89 97l93 65l104 -162h-108z" />
    <glyph glyph-name="wgrave" unicode="&#x1e81;" horiz-adv-x="749" 
d="M291 0l82 274l82 -274h142l132 499h-117l-89 -415l-105 415h-112l24 -82l-100 -337l-90 419h-121l132 -499h140zM317 551l-89 97l93 65l104 -162h-108z" />
    <glyph glyph-name="Wacute" unicode="&#x1e82;" horiz-adv-x="868" 
d="M846 648l-156 -648h-157l-93 324l-107 -324h-156l-156 648h123l121 -553l127 396l-45 157h120l143 -544l118 544h118zM576 796l-89 -97h-108l104 162z" />
    <glyph glyph-name="wacute" unicode="&#x1e83;" horiz-adv-x="749" 
d="M373 274l-82 -274h-140l-132 499h121l90 -419l100 337l-24 82h112l105 -415l89 415h117l-132 -499h-142zM515 648l-89 -97h-108l104 162z" />
    <glyph glyph-name="Wdieresis" unicode="&#x1e84;" horiz-adv-x="868" 
d="M846 648l-156 -648h-157l-93 324l-107 -324h-156l-156 648h123l121 -553l127 396l-45 157h120l143 -544l118 544h118zM404 774q0 -29 -18 -47t-49 -18q-30 0 -48.5 18t-18.5 47q0 28 18.5 46.5t48.5 18.5t48.5 -18.5t18.5 -46.5zM591 774q0 -29 -18 -47t-49 -18
q-30 0 -48.5 18t-18.5 47q0 28 18.5 46.5t48.5 18.5t48.5 -18.5t18.5 -46.5z" />
    <glyph glyph-name="wdieresis" unicode="&#x1e85;" horiz-adv-x="749" 
d="M373 274l-82 -274h-140l-132 499h121l90 -419l100 337l-24 82h112l105 -415l89 415h117l-132 -499h-142zM343 626q0 -29 -18 -47t-49 -18q-30 0 -48.5 18t-18.5 47q0 28 18.5 46.5t48.5 18.5t48.5 -18.5t18.5 -46.5zM530 626q0 -29 -18 -47t-49 -18q-30 0 -48.5 18
t-18.5 47q0 28 18.5 46.5t48.5 18.5t48.5 -18.5t18.5 -46.5z" />
    <glyph glyph-name="uni1E9E" unicode="&#x1e9e;" horiz-adv-x="671" 
d="M631 161q0 -81 -48 -126t-136 -45q-86 0 -149 38l40 95q56 -33 105 -33q33 0 51 17t18 48q0 47 -41.5 87.5t-138.5 93.5l86 198q-38 15 -92 15q-127 0 -127 -151v-398h-121v398q0 121 67 190.5t185 69.5q129 0 230 -64l-93 -212q88 -54 126 -105.5t38 -115.5z" />
    <glyph glyph-name="Ygrave" unicode="&#x1ef2;" horiz-adv-x="532" 
d="M327 243l202 405h-120l-138 -292l-140 292h-129l204 -405v-243h121v243zM216 699l-89 97l93 65l104 -162h-108z" />
    <glyph glyph-name="ygrave" unicode="&#x1ef3;" horiz-adv-x="498" 
d="M481 499h-118l-116 -424l-109 424h-122l145 -499h63l-61 -195h115zM200 551l-89 97l93 65l104 -162h-108z" />
    <glyph glyph-name="endash" unicode="&#x2013;" 
d="M65 325h370v-102h-370v102z" />
    <glyph glyph-name="emdash" unicode="&#x2014;" horiz-adv-x="1000" 
d="M65 325h870v-102h-870v102z" />
    <glyph glyph-name="quoteleft" unicode="&#x2018;" horiz-adv-x="247" 
d="M194 464q0 -30 -19.5 -49t-50.5 -19q-33 0 -52.5 23.5t-19.5 64.5q0 102 97 176l41 -43q-51 -46 -56 -86q28 -3 44 -21t16 -46z" />
    <glyph glyph-name="quoteright" unicode="&#x2019;" horiz-adv-x="247" 
d="M194 570q0 -102 -96 -176l-41 43q51 46 56 86q-28 3 -44 21t-16 46q0 30 19.5 49t50.5 19q33 0 52 -23.5t19 -64.5z" />
    <glyph glyph-name="quotesinglbase" unicode="&#x201a;" horiz-adv-x="247" 
d="M194 33q0 -95 -96 -170l-41 43q50 45 56 85q-28 3 -44 21t-16 45q0 30 19 49t51 19q34 0 52.5 -24t18.5 -68z" />
    <glyph glyph-name="quotedblleft" unicode="&#x201c;" horiz-adv-x="440" 
d="M194 464q0 -30 -19.5 -49t-50.5 -19q-33 0 -52.5 23.5t-19.5 64.5q0 102 97 176l41 -43q-51 -46 -56 -86q28 -3 44 -21t16 -46zM387 464q0 -30 -19.5 -49t-50.5 -19q-33 0 -52.5 23.5t-19.5 64.5q0 102 97 176l41 -43q-51 -46 -56 -86q28 -3 44 -21t16 -46z" />
    <glyph glyph-name="quotedblright" unicode="&#x201d;" horiz-adv-x="440" 
d="M194 570q0 -102 -96 -176l-41 43q51 46 56 86q-28 3 -44 21t-16 46q0 30 19.5 49t50.5 19q33 0 52 -23.5t19 -64.5zM387 570q0 -102 -96 -176l-41 43q51 46 56 86q-28 3 -44 21t-16 46q0 30 19.5 49t50.5 19q33 0 52 -23.5t19 -64.5z" />
    <glyph glyph-name="quotedblbase" unicode="&#x201e;" horiz-adv-x="440" 
d="M194 33q0 -95 -96 -170l-41 43q50 45 56 85q-28 3 -44 21t-16 45q0 30 19 49t51 19q34 0 52.5 -24t18.5 -68zM387 33q0 -95 -96 -170l-41 43q50 45 56 85q-28 3 -44 21t-16 45q0 30 19 49t51 19q34 0 52.5 -24t18.5 -68z" />
    <glyph glyph-name="dagger" unicode="&#x2020;" horiz-adv-x="432" 
d="M329 389l-66 14l14 -275v-128h-122v128l14 276l-67 -15h-82v105h82l64 -14l-11 90v78h122v-78l-11 -90l63 14h83v-105h-83z" />
    <glyph glyph-name="daggerdbl" unicode="&#x2021;" horiz-adv-x="454" 
d="M336 141l-59 13l11 -76v-78h-123v78l11 76l-58 -13h-88v106h88l59 -13l-12 90l11 86l-58 -12h-88v105h88l59 -12l-12 79v78h123v-78l-12 -79l60 12h87v-105h-87l-59 12l11 -86l-12 -90l60 13h87v-106h-87z" />
    <glyph glyph-name="bullet" unicode="&#x2022;" horiz-adv-x="291" 
d="M246 336q0 -42 -29.5 -71.5t-71.5 -29.5q-41 0 -70.5 29.5t-29.5 71.5q0 40 29 69q30 30 71 30t71 -30q30 -29 30 -69z" />
    <glyph glyph-name="ellipsis" unicode="&#x2026;" horiz-adv-x="703" 
d="M194 57q0 -30 -19.5 -48.5t-51.5 -18.5t-51 18.5t-19 48.5t19 49t51 19t51.5 -19t19.5 -49zM421 57q0 -30 -19.5 -48.5t-51.5 -18.5t-51 18.5t-19 48.5t19 49t51 19t51.5 -19t19.5 -49zM649 57q0 -30 -19.5 -48.5t-51.5 -18.5t-51 18.5t-19 48.5t19 49t51 19t51.5 -19
t19.5 -49z" />
    <glyph glyph-name="perthousand" unicode="&#x2030;" horiz-adv-x="1099" 
d="M325 494q0 -76 -40 -119t-110 -43q-73 0 -111.5 42t-38.5 122q0 76 40 119t110 43q73 0 111.5 -42t38.5 -122zM525 648h106l-402 -648h-106zM118 496q0 -90 57 -90t57 88q0 89 -57 89t-57 -87zM729 152q0 -76 -40 -119t-110 -43q-73 0 -111.5 42t-38.5 122q0 76 40 119
t110 43q72 0 111 -42t39 -122zM1084 152q0 -76 -40.5 -119t-110.5 -43q-72 0 -111 42t-39 122q0 76 40 119t110 43q73 0 112 -42t39 -122zM522 154q0 -90 57 -90t57 88q0 89 -57 89t-57 -87zM877 154q0 -90 56 -90q57 0 57 88q0 89 -57 89q-56 0 -56 -87z" />
    <glyph glyph-name="guilsinglleft" unicode="&#x2039;" horiz-adv-x="320" 
d="M128 261l137 -85v-122l-225 149v108l225 149v-114z" />
    <glyph glyph-name="guilsinglright" unicode="&#x203a;" horiz-adv-x="320" 
d="M279 311v-108l-224 -149v115l136 85l-136 85v121z" />
    <glyph glyph-name="fraction" unicode="&#x2044;" horiz-adv-x="181" 
d="M235 648h104l-392 -648h-104z" />
    <glyph glyph-name="zerosuperior" unicode="&#x2070;" horiz-adv-x="366" 
d="M336 585q0 -77 -41.5 -122t-111.5 -45q-73 0 -113 44t-40 125q0 76 41 121t112 45q73 0 113 -44t40 -124zM125 587q0 -89 58 -89t58 87q0 88 -58 88t-58 -86z" />
    <glyph glyph-name="foursuperior" unicode="&#x2074;" horiz-adv-x="328" 
d="M259 543h45v-67h-45v-52h-81v52h-151l-7 48q59 123 146 224h93v-205zM103 543h75v122q-28 -39 -75 -122z" />
    <glyph glyph-name="fivesuperior" unicode="&#x2075;" horiz-adv-x="306" 
d="M274 530q0 -53 -34.5 -82t-97.5 -29q-55 0 -108 21l21 70q38 -17 81 -17q52 0 52 37q0 33 -48 33q-26 0 -58 -12l-33 18l13 179h202v-73h-134l-4 -49q15 5 33 5q54 0 84.5 -27t30.5 -74z" />
    <glyph glyph-name="sixsuperior" unicode="&#x2076;" horiz-adv-x="300" 
d="M279 532q0 -49 -36 -81t-89 -32q-57 0 -92.5 36t-35.5 94q0 66 40.5 119.5t117.5 87.5l30 -60q-72 -35 -93 -76q23 13 51 13q48 0 77.5 -27.5t29.5 -73.5zM154 487q20 0 32.5 12t12.5 33q0 38 -42 38q-27 0 -51 -18v-12q0 -24 13.5 -38.5t34.5 -14.5z" />
    <glyph glyph-name="sevensuperior" unicode="&#x2077;" horiz-adv-x="269" 
d="M162 437v-13h-92v13q0 95 82 238h-131v73h231v-41q-90 -164 -90 -270z" />
    <glyph glyph-name="eightsuperior" unicode="&#x2078;" horiz-adv-x="323" 
d="M289 518q0 -43 -35.5 -71t-91.5 -28q-59 0 -94 24t-35 65q0 46 54 75q-40 28 -40 75q0 42 32 68.5t82 26.5q51 0 82.5 -24t31.5 -62q0 -42 -47 -71q61 -27 61 -78zM161 694q-17 0 -27 -9t-10 -23q0 -22 45 -42q30 21 30 42q0 32 -38 32zM116 514q0 -17 12.5 -27t33.5 -10
q19 0 31.5 9.5t12.5 26.5q0 11 -10 18q-11 10 -55 25q-25 -18 -25 -42z" />
    <glyph glyph-name="ninesuperior" unicode="&#x2079;" horiz-adv-x="300" 
d="M21 640q0 49 36 81t89 32q57 0 92.5 -36t35.5 -94q0 -66 -40.5 -119.5t-117.5 -87.5l-30 60q72 35 93 76q-23 -13 -51 -13q-48 0 -77.5 27.5t-29.5 73.5zM146 685q-20 0 -32.5 -12t-12.5 -33q0 -38 42 -38q27 0 51 18v12q0 24 -13.5 38.5t-34.5 14.5z" />
    <glyph glyph-name="zeroinferior" unicode="&#x2080;" horiz-adv-x="366" 
d="M336 61q0 -77 -41.5 -122t-111.5 -45q-73 0 -113 44t-40 125q0 76 41 121t112 45q73 0 113 -44t40 -124zM125 63q0 -89 58 -89t58 87q0 88 -58 88t-58 -86z" />
    <glyph glyph-name="oneinferior" unicode="&#x2081;" horiz-adv-x="278" 
d="M195 -24h61v-76h-222v76h70v173h-70v75h161v-248z" />
    <glyph glyph-name="twoinferior" unicode="&#x2082;" horiz-adv-x="309" 
d="M154 -26h119v-74h-242v63q89 70 114 98q29 32 29 59q0 33 -40 33q-34 0 -84 -22l-23 70q57 28 118 28q58 0 90 -27t32 -76q0 -41 -25 -74t-88 -78z" />
    <glyph glyph-name="threeinferior" unicode="&#x2083;" horiz-adv-x="306" 
d="M273 -5q0 -47 -34 -73.5t-95 -26.5q-64 0 -115 22l20 67q47 -17 88 -17q49 0 49 35q0 29 -43 29h-67v66h62q39 0 39 32q0 27 -41 27q-37 0 -82 -16l-17 66q50 23 109 23q56 0 87.5 -22.5t31.5 -63.5q0 -54 -49 -74q57 -19 57 -74z" />
    <glyph glyph-name="fourinferior" unicode="&#x2084;" horiz-adv-x="328" 
d="M259 19h45v-67h-45v-52h-81v52h-151l-7 48q59 123 146 224h93v-205zM103 19h75v122q-28 -39 -75 -122z" />
    <glyph glyph-name="fiveinferior" unicode="&#x2085;" horiz-adv-x="306" 
d="M274 6q0 -53 -34.5 -82t-97.5 -29q-55 0 -108 21l21 70q38 -17 81 -17q52 0 52 37q0 33 -48 33q-26 0 -58 -12l-33 18l13 179h202v-73h-134l-4 -49q15 5 33 5q54 0 84.5 -27t30.5 -74z" />
    <glyph glyph-name="sixinferior" unicode="&#x2086;" horiz-adv-x="300" 
d="M279 8q0 -49 -36 -81t-89 -32q-57 0 -92.5 36t-35.5 94q0 66 40.5 119.5t117.5 87.5l30 -60q-72 -35 -93 -76q23 13 51 13q48 0 77.5 -27.5t29.5 -73.5zM154 -37q20 0 32.5 12t12.5 33q0 38 -42 38q-27 0 -51 -18v-12q0 -24 13.5 -38.5t34.5 -14.5z" />
    <glyph glyph-name="seveninferior" unicode="&#x2087;" horiz-adv-x="269" 
d="M162 -87v-13h-92v13q0 95 82 238h-131v73h231v-41q-90 -164 -90 -270z" />
    <glyph glyph-name="eightinferior" unicode="&#x2088;" horiz-adv-x="323" 
d="M289 -6q0 -43 -35.5 -71t-91.5 -28q-59 0 -94 24t-35 65q0 46 54 75q-40 28 -40 75q0 42 32 68.5t82 26.5q51 0 82.5 -24t31.5 -62q0 -42 -47 -71q61 -27 61 -78zM161 170q-17 0 -27 -9t-10 -23q0 -22 45 -42q30 21 30 42q0 32 -38 32zM116 -10q0 -17 12.5 -27t33.5 -10
q19 0 31.5 9.5t12.5 26.5q0 11 -10 18q-11 10 -55 25q-25 -18 -25 -42z" />
    <glyph glyph-name="nineinferior" unicode="&#x2089;" horiz-adv-x="300" 
d="M21 116q0 49 36 81t89 32q57 0 92.5 -36t35.5 -94q0 -66 -40.5 -119.5t-117.5 -87.5l-30 60q72 35 93 76q-23 -13 -51 -13q-48 0 -77.5 27.5t-29.5 73.5zM146 161q-20 0 -32.5 -12t-12.5 -33q0 -38 42 -38q27 0 51 18v12q0 24 -13.5 38.5t-34.5 14.5z" />
    <glyph glyph-name="colonmonetary" unicode="&#x20a1;" horiz-adv-x="533" 
d="M466 138l46 -93q-55 -40 -128 -51l-11 -95l-95 10l10 83q-34 4 -50 9l-11 -93l-95 11l16 128q-98 83 -98 280q0 115 39.5 194t113.5 113l13 115l96 -10l-9 -81h17q25 0 32 -1l10 83l96 -10l-11 -93q29 -12 57 -30l-51 -98q-62 39 -128 39q-76 0 -112 -54t-36 -167
q0 -116 37.5 -172t115.5 -56q69 0 136 39z" />
    <glyph glyph-name="uni20A9" unicode="&#x20a9;" horiz-adv-x="983" 
d="M797 205l-49 -205h-158l-92 326l-107 -326h-156l-49 205h-125v93h102l-14 58h-108v93h86l-48 199h123l121 -553l128 399l-43 154h120l140 -543l118 543h118l-48 -199h86v-93h-108l-14 -58h102v-93h-125z" />
    <glyph glyph-name="uni20AA" unicode="&#x20aa;" horiz-adv-x="842" 
d="M574 300v-109h-113v108q0 55 -31 78t-104 23q-68 0 -141 -21v-379h-119v458q141 51 260 51q127 0 187.5 -50.5t60.5 -158.5zM265 198v109h114v-108q0 -55 30.5 -78t104.5 -23q67 0 140 21v380h119v-458q-136 -51 -259 -51q-128 0 -188.5 50.5t-60.5 157.5z" />
    <glyph glyph-name="dong" unicode="&#x20ab;" horiz-adv-x="577" 
d="M164 248q0 -82 23.5 -117.5t79.5 -35.5q52 0 99 37v259q-44 18 -86 18q-63 0 -89.5 -37t-26.5 -124zM485 542v-542h-114v55q-61 -65 -139 -65q-91 0 -139.5 66t-48.5 192q0 125 56.5 193t158.5 68q55 0 107 -24v57h-93v81h93v55h119v-55h56v-81h-56zM69 -57h416v-92h-416
v92z" />
    <glyph glyph-name="Euro" unicode="&#x20ac;" horiz-adv-x="576" 
d="M518 132l42 -86q-79 -56 -186 -56q-217 0 -264 217h-80v88h70q-1 7 -1 32q0 20 1 27h-70v88h81q23 104 90 160t169 56q101 0 178 -48l-49 -91q-57 35 -125 35q-111 0 -142 -112h209v-88h-221q-1 -5 -1 -27q0 -25 1 -32h201v-88h-188q34 -114 146 -114q68 0 139 39z" />
    <glyph glyph-name="uni20AD" unicode="&#x20ad;" horiz-adv-x="640" 
d="M430 319l182 -319h-141l-162 282l-76 -100v-182h-121v319h-84v93h84v236h121v-306l227 306h134l-174 -236h163v-93h-153z" />
    <glyph glyph-name="uni20AE" unicode="&#x20ae;" horiz-adv-x="527" 
d="M324 268l99 33l27 -85l-126 -42v-174h-121v133l-102 -34l-27 85l129 43v61l-101 -34l-28 85l129 43v163h-174v103h469v-103h-174v-123l99 33l27 -85l-126 -42v-60z" />
    <glyph glyph-name="uni20B1" unicode="&#x20b1;" horiz-adv-x="712" 
d="M354 237h-105v-237h-122v330h-84v89h84v58h-84v88h84v83h227q133 0 194 -83h130v-88h-97q0 -6 0.5 -12.5t1 -10.5t0.5 -7q0 -21 -1 -28h76v-89h-105q-57 -93 -199 -93zM459 444q0 48 -30 74.5t-81 26.5h-99v-205h99q53 0 82 27t29 77z" />
    <glyph glyph-name="uni20B4" unicode="&#x20b4;" horiz-adv-x="580" 
d="M467 146l47 -97q-104 -59 -218 -59q-101 0 -158 50.5t-57 137.5q0 23 5 39h-45v83h117q37 30 94 59h-191v84h288q15 22 15 42q0 31 -22.5 49.5t-61.5 18.5q-62 0 -149 -44l-45 96q93 53 198 53q92 0 147 -51q56 -50 56 -131q0 -22 -3 -33h51v-84h-111q-30 -30 -83 -59
h174v-83h-290q-22 -23 -22 -53q0 -33 25 -52t68 -19q75 0 171 53z" />
    <glyph glyph-name="uni20B5" unicode="&#x20b5;" horiz-adv-x="532" 
d="M465 138l46 -93q-68 -46 -151 -53v-86h-105v91q-206 41 -206 330q0 134 53.5 219t152.5 106v90h105v-86q75 -6 143 -49l-51 -98q-59 39 -128 39q-75 0 -111 -54t-36 -167q0 -116 37 -172t115 -56q69 0 136 39z" />
    <glyph glyph-name="uni20B8" unicode="&#x20b8;" horiz-adv-x="541" 
d="M36 545v103h468v-103h-468zM36 486h468v-103h-173v-383h-121v383h-174v103z" />
    <glyph glyph-name="uni20B9" unicode="&#x20b9;" horiz-adv-x="555" 
d="M413 492h94v-80h-95q-17 -94 -102 -132l145 -280h-137l-124 252h-142v103h141q76 0 96 57h-237v80h236q-24 53 -95 53h-141v103h475v-80h-148q23 -29 34 -76z" />
    <glyph glyph-name="uni20BA" unicode="&#x20ba;" horiz-adv-x="583" 
d="M396 0h-256v195l-80 -27l-27 85l107 36v61l-80 -27l-27 85l107 36v204h122v-163l120 40l26 -85l-146 -49v-61l120 40l26 -85l-146 -49v-133h135q56 0 56 53v30h106v-30q0 -156 -163 -156z" />
    <glyph glyph-name="uni20BC" unicode="&#x20bc;" horiz-adv-x="810" 
d="M173 244v-244h-122v242q0 243 293 265v141h121v-141q293 -22 293 -265v-242h-122v244q0 71 -40.5 107t-130.5 44v-315h-121v315q-90 -8 -130.5 -44t-40.5 -107z" />
    <glyph glyph-name="uni20BD" unicode="&#x20bd;" horiz-adv-x="599" 
d="M233 169h157v-88h-157v-81h-122v81h-84v88h84v68h-84v103h84v308h227q105 0 167 -54t62 -147q0 -99 -61.5 -154.5t-167.5 -55.5h-105v-68zM443 444q0 48 -30 74.5t-81 26.5h-99v-205h99q53 0 82 27t29 77z" />
    <glyph glyph-name="uni2113" unicode="&#x2113;" horiz-adv-x="431" 
d="M228 -10q-74 0 -113 42.5t-39 124.5v314q0 93 43.5 146.5t119.5 53.5q69 0 111 -42t42 -114q0 -90 -53 -169.5t-149 -132.5v-51q0 -40 13.5 -58t46.5 -18q37 0 81 20l26 -83q-59 -33 -129 -33zM240 585q-50 0 -50 -108v-164q91 85 91 201q0 33 -11 52t-30 19z" />
    <glyph glyph-name="uni2116" unicode="&#x2116;" horiz-adv-x="1019" 
d="M965 494q0 -76 -40.5 -119t-110.5 -43q-72 0 -111 42t-39 122q0 76 40 119t110 43q73 0 112 -42t39 -122zM758 496q0 -90 56 -90q57 0 57 88q0 89 -57 89q-56 0 -56 -87zM574 648v-648h-153l-226 493v-493h-111v648h151l227 -494v494h112zM669 264h291v-97h-291v97z" />
    <glyph glyph-name="trademark" unicode="&#x2122;" horiz-adv-x="623" 
d="M20 648h212v-68h-67v-222h-79v222h-66v68zM517 558l-48 -117h-64l-49 118v-201h-74v290h100l55 -130l55 130h99v-290h-74v200z" />
    <glyph glyph-name="Omega" unicode="&#x2126;" horiz-adv-x="730" 
d="M182 354q0 -161 147 -246l-4 -108h-250v95h143q-79 40 -121 106.5t-42 152.5q0 127 87 215q89 89 223 89q135 0 222 -89q88 -88 88 -216q0 -173 -162 -258h142v-95h-250l-4 108q68 34 107.5 99t39.5 146q0 88 -52 144q-53 57 -133 57t-131 -57q-50 -56 -50 -143z" />
    <glyph glyph-name="estimated" unicode="&#x212e;" horiz-adv-x="712" 
d="M662 264v-7h-496q-4 0 -4 -3v-150q0 -11 7 -18q77 -80 188 -80q116 0 197 90h44q-43 -50 -107 -78.5t-135 -28.5q-126 0 -217 80q-89 81 -89 195q0 115 89 196q90 81 217 81q128 0 216 -81q90 -81 90 -196zM550 276v151q0 11 -8 19q-75 78 -185 78q-112 0 -187 -81
q-8 -6 -8 -19v-148q0 -4 4 -4h381q3 0 3 4z" />
    <glyph glyph-name="onethird" unicode="&#x2153;" horiz-adv-x="758" 
d="M195 400h61v-76h-222v76h70v173h-70v75h161v-248zM513 648h104l-392 -648h-104zM725 95q0 -47 -34 -73.5t-95 -26.5q-64 0 -115 22l20 67q47 -17 88 -17q49 0 49 35q0 29 -43 29h-67v66h62q39 0 39 32q0 27 -41 27q-37 0 -82 -16l-17 66q50 23 109 23q56 0 87.5 -22.5
t31.5 -63.5q0 -54 -49 -74q57 -19 57 -74z" />
    <glyph glyph-name="twothirds" unicode="&#x2154;" horiz-adv-x="790" 
d="M154 398h119v-74h-242v63q89 70 114 98q29 32 29 59q0 33 -40 33q-34 0 -84 -22l-23 70q57 28 118 28q58 0 90 -27t32 -76q0 -41 -25 -74t-88 -78zM544 648h104l-392 -648h-104zM757 95q0 -47 -34 -73.5t-95 -26.5q-64 0 -115 22l20 67q47 -17 88 -17q49 0 49 35
q0 29 -43 29h-67v66h62q39 0 39 32q0 27 -41 27q-37 0 -82 -16l-17 66q50 23 109 23q56 0 87.5 -22.5t31.5 -63.5q0 -54 -49 -74q57 -19 57 -74z" />
    <glyph glyph-name="oneeighth" unicode="&#x215b;" horiz-adv-x="764" 
d="M195 400h61v-76h-222v76h70v173h-70v75h161v-248zM513 648h104l-392 -648h-104zM730 94q0 -43 -35.5 -71t-91.5 -28q-59 0 -94 24t-35 65q0 46 54 75q-40 28 -40 75q0 42 32 68.5t82 26.5q51 0 82.5 -24t31.5 -62q0 -42 -47 -71q61 -27 61 -78zM602 270q-17 0 -27 -9
t-10 -23q0 -22 45 -42q30 21 30 42q0 32 -38 32zM557 90q0 -17 12.5 -27t33.5 -10q19 0 31.5 9.5t12.5 26.5q0 11 -10 18q-11 10 -55 25q-25 -18 -25 -42z" />
    <glyph glyph-name="threeeighths" unicode="&#x215c;" horiz-adv-x="792" 
d="M273 419q0 -47 -34 -73.5t-95 -26.5q-64 0 -115 22l20 67q47 -17 88 -17q49 0 49 35q0 29 -43 29h-67v66h62q39 0 39 32q0 27 -41 27q-37 0 -82 -16l-17 66q50 23 109 23q56 0 87.5 -22.5t31.5 -63.5q0 -54 -49 -74q57 -19 57 -74zM541 648h104l-392 -648h-104zM758 94
q0 -43 -35.5 -71t-91.5 -28q-59 0 -94 24t-35 65q0 46 54 75q-40 28 -40 75q0 42 32 68.5t82 26.5q51 0 82.5 -24t31.5 -62q0 -42 -47 -71q61 -27 61 -78zM630 270q-17 0 -27 -9t-10 -23q0 -22 45 -42q30 21 30 42q0 32 -38 32zM585 90q0 -17 12.5 -27t33.5 -10
q19 0 31.5 9.5t12.5 26.5q0 11 -10 18q-11 10 -55 25q-25 -18 -25 -42z" />
    <glyph glyph-name="fiveeighths" unicode="&#x215d;" horiz-adv-x="793" 
d="M274 430q0 -53 -34.5 -82t-97.5 -29q-55 0 -108 21l21 70q38 -17 81 -17q52 0 52 37q0 33 -48 33q-26 0 -58 -12l-33 18l13 179h202v-73h-134l-4 -49q15 5 33 5q54 0 84.5 -27t30.5 -74zM541 648h104l-392 -648h-104zM759 94q0 -43 -35.5 -71t-91.5 -28q-59 0 -94 24
t-35 65q0 46 54 75q-40 28 -40 75q0 42 32 68.5t82 26.5q51 0 82.5 -24t31.5 -62q0 -42 -47 -71q61 -27 61 -78zM631 270q-17 0 -27 -9t-10 -23q0 -22 45 -42q30 21 30 42q0 32 -38 32zM586 90q0 -17 12.5 -27t33.5 -10q19 0 31.5 9.5t12.5 26.5q0 11 -10 18q-11 10 -55 25
q-25 -18 -25 -42z" />
    <glyph glyph-name="seveneighths" unicode="&#x215e;" horiz-adv-x="756" 
d="M162 337v-13h-92v13q0 95 82 238h-131v73h231v-41q-90 -164 -90 -270zM504 648h104l-392 -648h-104zM722 94q0 -43 -35.5 -71t-91.5 -28q-59 0 -94 24t-35 65q0 46 54 75q-40 28 -40 75q0 42 32 68.5t82 26.5q51 0 82.5 -24t31.5 -62q0 -42 -47 -71q61 -27 61 -78z
M594 270q-17 0 -27 -9t-10 -23q0 -22 45 -42q30 21 30 42q0 32 -38 32zM549 90q0 -17 12.5 -27t33.5 -10q19 0 31.5 9.5t12.5 26.5q0 11 -10 18q-11 10 -55 25q-25 -18 -25 -42z" />
    <glyph glyph-name="arrowleft" unicode="&#x2190;" horiz-adv-x="544" 
d="M509 278h-340l95 -81l-60 -71l-174 163v81l174 163l60 -71l-94 -81h339v-103z" />
    <glyph glyph-name="arrowup" unicode="&#x2191;" horiz-adv-x="544" 
d="M221 81v340l-81 -95l-71 60l163 174h81l163 -174l-71 -60l-81 94v-339h-103z" />
    <glyph glyph-name="arrowright" unicode="&#x2192;" horiz-adv-x="544" 
d="M35 360h340l-95 81l60 71l174 -163v-81l-174 -163l-60 71l94 81h-339v103z" />
    <glyph glyph-name="arrowdown" unicode="&#x2193;" horiz-adv-x="544" 
d="M323 564v-340l81 95l71 -60l-163 -174h-81l-163 174l71 60l81 -94v339h103z" />
    <glyph glyph-name="uni2194" unicode="&#x2194;" horiz-adv-x="671" 
d="M646 370v-81l-174 -163l-60 71l95 81h-344l95 -81l-60 -71l-174 163v81l174 163l60 -71l-94 -81h342l-94 81l60 71z" />
    <glyph glyph-name="uni2195" unicode="&#x2195;" horiz-adv-x="544" 
d="M404 251l71 -60l-163 -174h-81l-163 174l71 60l81 -94v342l-81 -95l-71 60l163 175h81l163 -175l-71 -60l-81 95v-343z" />
    <glyph glyph-name="uni2196" unicode="&#x2196;" horiz-adv-x="544" 
d="M370 424l-125 5l245 -245l-72 -72l-244 244l5 -135h-92v238l56 57h233z" />
    <glyph glyph-name="uni2197" unicode="&#x2197;" horiz-adv-x="544" 
d="M299 429l-125 -5l-6 92h233l56 -57v-238h-92l5 135l-244 -244l-72 72z" />
    <glyph glyph-name="uni2198" unicode="&#x2198;" horiz-adv-x="544" 
d="M174 204l125 -5l-245 245l72 72l244 -244l-5 135h92v-238l-56 -57h-233z" />
    <glyph glyph-name="uni2199" unicode="&#x2199;" horiz-adv-x="544" 
d="M245 199l125 5l6 -92h-233l-56 57v238h92l-5 -135l244 244l72 -72z" />
    <glyph glyph-name="partialdiff" unicode="&#x2202;" horiz-adv-x="540" 
d="M497 369q0 -183 -67.5 -281t-192.5 -98q-92 0 -147 55q-56 56 -56 147q0 106 65 177q66 71 165 71q80 0 122 -48q-6 165 -124 165q-23 0 -47 -7l-13 98q29 10 63 10q112 0 172 -75t60 -214zM150 199q0 -51 25 -80.5t68 -29.5q48 0 81 44q33 43 33 102q0 51 -23.5 78.5
t-66.5 27.5q-51 0 -84 -40.5t-33 -101.5z" />
    <glyph glyph-name="increment" unicode="&#x2206;" horiz-adv-x="574" 
d="M373 648l186 -648h-544l186 648h172zM284 564l-124 -459h247z" />
    <glyph glyph-name="product" unicode="&#x220f;" horiz-adv-x="662" 
d="M578 648v-770h-122v661h-251v-661h-121v770h494z" />
    <glyph glyph-name="summation" unicode="&#x2211;" horiz-adv-x="505" 
d="M363 266l-176 -283h299v-105h-451v85l190 302l-187 301v82h435v-109h-279z" />
    <glyph glyph-name="minus" unicode="&#x2212;" horiz-adv-x="438" 
d="M30 356h378v-102h-378v102z" />
    <glyph glyph-name="uni2215" unicode="&#x2215;" horiz-adv-x="188" 
d="M235 648h104l-392 -648h-104z" />
    <glyph glyph-name="radical" unicode="&#x221a;" horiz-adv-x="575" 
d="M589 698l-220 -698h-154l-121 382l-72 -20l-24 88l186 53l113 -395l181 590h111z" />
    <glyph glyph-name="infinity" unicode="&#x221e;" horiz-adv-x="736" 
d="M706 324q0 -87 -48 -141t-127 -54q-53 0 -91.5 24t-70.5 78q-68 -102 -164 -102q-77 0 -126 54q-49 55 -49 141t49 138q50 53 126 53q99 0 162 -108q68 108 164 108q75 0 125 -54q50 -53 50 -137zM137 323q0 -42 20 -67t53 -25q28 0 51.5 20t55.5 72q-35 55 -57 72
t-48 17q-33 0 -54 -24t-21 -65zM418 313q51 -82 108 -82q33 0 52.5 25.5t19.5 67.5q0 37 -20 62.5t-52 25.5q-28 0 -52 -21.5t-56 -77.5z" />
    <glyph glyph-name="integral" unicode="&#x222b;" horiz-adv-x="388" 
d="M110 -26v505q0 84 48 131t134 47q52 0 91 -14l-17 -89q-34 8 -60 8q-43 0 -59.5 -18t-16.5 -66v-506q0 -83 -48.5 -130t-133.5 -47q-46 0 -90 14l17 89q37 -8 59 -8q42 0 59 18t17 66z" />
    <glyph glyph-name="approxequal" unicode="&#x2248;" horiz-adv-x="438" 
d="M233 461q44 -20 65 -20q32 0 75 39l53 -71q-55 -71 -132 -71q-34 0 -95 26q-43 19 -60 19q-31 0 -76 -37l-52 72q60 68 132 68q31 0 90 -25zM233 272q44 -20 65 -20q32 0 75 39l53 -71q-54 -72 -132 -72q-34 0 -95 26q-43 19 -60 19q-31 0 -76 -37l-52 73q60 68 132 68
q31 0 90 -25z" />
    <glyph glyph-name="notequal" unicode="&#x2260;" horiz-adv-x="438" 
d="M251 269h157v-102h-192l-27 -80h-98l27 80h-88v102h122l32 94h-154v102h189l26 78h99l-27 -78h91v-102h-125z" />
    <glyph glyph-name="lessequal" unicode="&#x2264;" horiz-adv-x="438" 
d="M135 377l263 -95v-129l-370 160v119l370 161v-122zM28 100h370v-100h-370v100z" />
    <glyph glyph-name="greaterequal" unicode="&#x2265;" horiz-adv-x="438" 
d="M410 432v-119l-370 -160v126l261 94l-261 94v126zM410 100v-100h-370v100h370z" />
    <glyph glyph-name="lozenge" unicode="&#x25ca;" horiz-adv-x="472" 
d="M177 648h118l166 -324l-166 -324h-118l-166 324zM346 324l-109 222l-109 -222l109 -222z" />
    <glyph glyph-name="commaaccent" unicode="&#xf6c3;" 
d="M304 -50l-21 -173h-92l5 173h108z" />
    <glyph glyph-name="kgreenlandic.case" horiz-adv-x="750" 
d="M722 464q0 -30 -19.5 -49t-50.5 -19q-33 0 -52.5 23.5t-19.5 64.5q0 102 97 176l41 -43q-51 -46 -56 -86q28 -3 44 -21t16 -46zM371 379l217 -379h-141l-163 283l-79 -105v-178h-121v648h121v-309l232 309h134z" />
    <glyph glyph-name="napostrophe.case" horiz-adv-x="773" 
d="M689 648v-648h-153l-226 489v-489h-111v648h151l227 -492v492h112zM138 648l-21 -173h-92l5 173h108z" />
    <glyph glyph-name="i.dot" horiz-adv-x="265" 
d="M201 628q0 -30 -18.5 -48.5t-50.5 -18.5t-50.5 18.5t-18.5 48.5t19 48.5t50 18.5t50 -18.5t19 -48.5zM73 0v499h119v-499h-119z" />
    <glyph glyph-name="caron.alt" 
d="M302 678l-15 -168h-91v168h106z" />
    <glyph glyph-name="revcommaaccent" 
d="M196 550l21 173h92l-5 -173h-108z" />
    <glyph glyph-name="zero.tlf" horiz-adv-x="559" 
d="M522 322q0 -161 -62.5 -246.5t-180.5 -85.5q-243 0 -243 337q0 160 63 245.5t180 85.5q243 0 243 -336zM162 327q0 -120 28 -176t89 -56q62 0 90 54.5t28 172.5q0 120 -28 175.5t-90 55.5t-89.5 -54t-27.5 -172z" />
    <glyph glyph-name="one.tlf" horiz-adv-x="559" 
d="M349 101h112v-101h-355v101h123v446h-123v101h243v-547z" />
    <glyph glyph-name="two.tlf" horiz-adv-x="559" 
d="M222 101h258v-101h-410v85q144 139 205 225q61 83 61 150q0 44 -26.5 67.5t-74.5 23.5q-61 0 -134 -30l-31 96q94 41 179 41q100 0 157 -49t57 -136q0 -84 -55 -166q-52 -80 -186 -206z" />
    <glyph glyph-name="three.tlf" horiz-adv-x="559" 
d="M486 190q0 -94 -65.5 -147t-181.5 -53q-102 0 -179 35l30 95q71 -28 147 -28q60 0 92.5 26.5t32.5 76.5q0 41 -31 63.5t-87 22.5h-97v103h87q53 0 82 24t29 68q0 80 -104 80q-70 0 -139 -26l-25 92q84 36 169 36q103 0 162.5 -45t59.5 -124q0 -50 -28.5 -88.5
t-81.5 -59.5q62 -18 95 -57t33 -94z" />
    <glyph glyph-name="four.tlf" horiz-adv-x="559" 
d="M440 225h91v-97h-91v-128h-114v128h-293l-11 74q54 111 130 228q81 125 160 218h128v-423zM141 225h185v298q-108 -145 -185 -298z" />
    <glyph glyph-name="five.tlf" horiz-adv-x="559" 
d="M496 210q0 -102 -69 -161q-68 -59 -183 -59q-95 0 -179 37l30 95q78 -30 147 -30q63 0 97 29t34 84q0 48 -32 74t-90 26q-50 0 -107 -20l-49 31l21 332h348v-101h-250l-10 -154q33 11 75 11q99 0 158 -52.5t59 -141.5z" />
    <glyph glyph-name="six.tlf" horiz-adv-x="559" 
d="M515 212q0 -94 -65 -159q-64 -63 -162 -63q-105 0 -170 69q-63 71 -63 186q0 132 75 240.5t215 178.5l50 -86q-89 -48 -138 -99.5t-69 -118.5q58 48 130 48q88 0 142 -54q55 -54 55 -142zM288 85q49 0 79.5 33.5t30.5 90.5q0 49 -27.5 76t-77.5 27q-67 0 -121 -68v-14
q0 -66 32 -105.5t84 -39.5z" />
    <glyph glyph-name="seven.tlf" horiz-adv-x="559" 
d="M313 15v-15h-127v15q0 121 42 246q45 129 136 286h-297v101h417v-82q-91 -163 -130 -287q-41 -131 -41 -264z" />
    <glyph glyph-name="eight.tlf" horiz-adv-x="559" 
d="M513 181q0 -84 -66 -138q-65 -53 -168 -53q-106 0 -170 46t-64 125q0 106 120 166q-95 60 -95 154q0 77 60 127q62 50 155 50q91 0 146 -46q57 -45 57 -115q0 -94 -104 -154q68 -33 98.5 -72t30.5 -90zM285 569q-44 0 -70 -21t-26 -56q0 -33 24.5 -57.5t86.5 -53.5
q74 54 74 111q0 34 -24.5 55.5t-64.5 21.5zM162 174q0 -45 31.5 -70.5t85.5 -25.5q51 0 83 25.5t32 67.5q0 41 -57 74q-11 6 -90 41q-45 -27 -65 -53t-20 -59z" />
    <glyph glyph-name="nine.tlf" horiz-adv-x="559" 
d="M503 402q0 -133 -75 -241t-215 -177l-50 85q89 48 138.5 100t68.5 117q-57 -47 -130 -47q-88 0 -143 54q-54 54 -54 142q0 94 65 159q65 64 162 64q105 0 169 -70t64 -186zM160 439q0 -50 27.5 -77t77.5 -27q66 0 121 67v15q0 66 -32 105.5t-84 39.5q-49 0 -79.5 -33.5
t-30.5 -89.5z" />
    <glyph glyph-name="zero.posf" horiz-adv-x="534" 
d="M498 248q0 -118 -63 -189q-61 -69 -168 -69q-110 0 -170.5 68t-60.5 193q0 119 62 188.5t169 69.5q110 0 170.5 -68t60.5 -193zM156 251q0 -160 111 -160q110 0 110 157q0 159 -110 159q-111 0 -111 -156z" />
    <glyph glyph-name="one.posf" horiz-adv-x="401" 
d="M275 101h112v-101h-355v101h124v297h-124v101h243v-398z" />
    <glyph glyph-name="two.posf" horiz-adv-x="481" 
d="M209 101h229v-101h-399v85q100 67 152 108q57 46 80.5 78.5t23.5 67.5q0 30 -24 46.5t-68 16.5q-66 0 -138 -30l-31 96q95 41 184 41q95 0 149 -41.5t54 -114.5q0 -70 -49 -126q-50 -58 -163 -126z" />
    <glyph glyph-name="three.posf" horiz-adv-x="487" 
d="M447 42q0 -95 -65 -147.5t-181 -52.5q-103 0 -180 35l31 95q69 -28 146 -28q61 0 93.5 26.5t32.5 76.5q0 41 -31.5 63.5t-87.5 22.5h-97v103h88q52 0 81 24t29 68q0 80 -104 80q-66 0 -139 -26l-25 92q82 36 169 36q103 0 162.5 -45t59.5 -124q0 -104 -110 -149
q62 -17 95 -56t33 -94z" />
    <glyph glyph-name="four.posf" horiz-adv-x="543" 
d="M441 96h91v-96h-91v-148h-114v148h-293l-11 73q48 101 125 214q78 115 165 212h128v-403zM142 96h185v283q-112 -142 -185 -283z" />
    <glyph glyph-name="five.posf" horiz-adv-x="505" 
d="M469 62q0 -102 -68 -161t-183 -59q-95 0 -179 37l30 95q74 -30 147 -30q63 0 97 29t34 84q0 47 -32 73.5t-90 26.5q-48 0 -108 -20l-48 31l21 332h348v-101h-251l-9 -154q33 11 75 11q99 0 157.5 -52.5t58.5 -141.5z" />
    <glyph glyph-name="six.posf" horiz-adv-x="531" 
d="M501 212q0 -94 -65 -159q-64 -63 -162 -63q-105 0 -170 69q-63 71 -63 186q0 132 75 241t215 178l50 -86q-89 -48 -138.5 -100t-68.5 -117q57 47 130 47q88 0 142 -54q55 -54 55 -142zM274 85q49 0 79.5 33.5t30.5 90.5q0 49 -27.5 76t-77.5 27q-66 0 -121 -67v-15
q0 -66 32 -105.5t84 -39.5z" />
    <glyph glyph-name="seven.posf" horiz-adv-x="456" 
d="M264 -133v-15h-127v15q0 121 42 246q45 129 136 286h-297v101h417v-82q-91 -163 -130 -287q-41 -131 -41 -264z" />
    <glyph glyph-name="eight.posf" horiz-adv-x="552" 
d="M511 181q0 -84 -66 -138q-65 -53 -169 -53q-106 0 -170 46t-64 125q0 107 120 165q-95 61 -95 155q0 77 60 127q62 50 155 50q91 0 146 -46q57 -45 57 -115q0 -94 -104 -154q69 -33 99.5 -71.5t30.5 -90.5zM282 569q-44 0 -70 -21.5t-26 -55.5q0 -33 24.5 -57.5
t86.5 -53.5q74 56 74 111q0 34 -24.5 55.5t-64.5 21.5zM160 174q0 -45 31 -70.5t85 -25.5q51 0 83 25.5t32 67.5q0 41 -57 74q-11 6 -90 41q-45 -27 -64.5 -53t-19.5 -59z" />
    <glyph glyph-name="nine.posf" horiz-adv-x="531" 
d="M489 254q0 -132 -75 -240t-215 -178l-50 85q89 48 138 99.5t69 118.5q-58 -48 -130 -48q-88 0 -143 54q-54 54 -54 142q0 94 65 159q64 64 162 64q105 0 169 -70t64 -186zM146 291q0 -50 27.5 -77t77.5 -27q67 0 121 68v14q0 66 -32 105.5t-84 39.5q-49 0 -79.5 -33.5
t-30.5 -89.5z" />
    <glyph glyph-name="zero.numerator" horiz-adv-x="366" 
d="M336 485q0 -77 -41.5 -122t-111.5 -45q-73 0 -113 44t-40 125q0 76 41 121t112 45q73 0 113 -44t40 -124zM125 487q0 -89 58 -89t58 87q0 88 -58 88t-58 -86z" />
    <glyph glyph-name="one.numerator" horiz-adv-x="278" 
d="M195 400h61v-76h-222v76h70v173h-70v75h161v-248z" />
    <glyph glyph-name="two.numerator" horiz-adv-x="309" 
d="M154 398h119v-74h-242v63q89 70 114 98q29 32 29 59q0 33 -40 33q-34 0 -84 -22l-23 70q57 28 118 28q58 0 90 -27t32 -76q0 -41 -25 -74t-88 -78z" />
    <glyph glyph-name="three.numerator" horiz-adv-x="306" 
d="M273 419q0 -47 -34 -73.5t-95 -26.5q-64 0 -115 22l20 67q47 -17 88 -17q49 0 49 35q0 29 -43 29h-67v66h62q39 0 39 32q0 27 -41 27q-37 0 -82 -16l-17 66q50 23 109 23q56 0 87.5 -22.5t31.5 -63.5q0 -54 -49 -74q57 -19 57 -74z" />
    <glyph glyph-name="four.numerator" horiz-adv-x="328" 
d="M259 443h45v-67h-45v-52h-81v52h-151l-7 48q59 123 146 224h93v-205zM103 443h75v122q-28 -39 -75 -122z" />
    <glyph glyph-name="five.numerator" horiz-adv-x="306" 
d="M274 430q0 -53 -34.5 -82t-97.5 -29q-55 0 -108 21l21 70q38 -17 81 -17q52 0 52 37q0 33 -48 33q-26 0 -58 -12l-33 18l13 179h202v-73h-134l-4 -49q15 5 33 5q54 0 84.5 -27t30.5 -74z" />
    <glyph glyph-name="six.numerator" horiz-adv-x="300" 
d="M279 432q0 -49 -36 -81t-89 -32q-57 0 -92.5 36t-35.5 94q0 66 40.5 119.5t117.5 87.5l30 -60q-72 -35 -93 -76q23 13 51 13q48 0 77.5 -27.5t29.5 -73.5zM154 387q20 0 32.5 12t12.5 33q0 38 -42 38q-27 0 -51 -18v-12q0 -24 13.5 -38.5t34.5 -14.5z" />
    <glyph glyph-name="seven.numerator" horiz-adv-x="269" 
d="M162 337v-13h-92v13q0 95 82 238h-131v73h231v-41q-90 -164 -90 -270z" />
    <glyph glyph-name="eight.numerator" horiz-adv-x="323" 
d="M289 418q0 -43 -35.5 -71t-91.5 -28q-59 0 -94 24t-35 65q0 46 54 75q-40 28 -40 75q0 42 32 68.5t82 26.5q51 0 82.5 -24t31.5 -62q0 -42 -47 -71q61 -27 61 -78zM161 594q-17 0 -27 -9t-10 -23q0 -22 45 -42q30 21 30 42q0 32 -38 32zM116 414q0 -17 12.5 -27t33.5 -10
q19 0 31.5 9.5t12.5 26.5q0 11 -10 18q-11 10 -55 25q-25 -18 -25 -42z" />
    <glyph glyph-name="nine.numerator" horiz-adv-x="300" 
d="M21 540q0 49 36 81t89 32q57 0 92.5 -36t35.5 -94q0 -66 -40.5 -119.5t-117.5 -87.5l-30 60q72 35 93 76q-23 -13 -51 -13q-48 0 -77.5 27.5t-29.5 73.5zM146 585q-20 0 -32.5 -12t-12.5 -33q0 -38 42 -38q27 0 51 18v12q0 24 -13.5 38.5t-34.5 14.5z" />
    <glyph glyph-name="zero.denominator" horiz-adv-x="366" 
d="M336 161q0 -77 -41.5 -122t-111.5 -45q-73 0 -113 44t-40 125q0 76 41 121t112 45q73 0 113 -44t40 -124zM125 163q0 -89 58 -89t58 87q0 88 -58 88t-58 -86z" />
    <glyph glyph-name="one.denominator" horiz-adv-x="278" 
d="M195 76h61v-76h-222v76h70v173h-70v75h161v-248z" />
    <glyph glyph-name="two.denominator" horiz-adv-x="309" 
d="M154 74h119v-74h-242v63q89 70 114 98q29 32 29 59q0 33 -40 33q-34 0 -84 -22l-23 70q57 28 118 28q58 0 90 -27t32 -76q0 -41 -25 -74t-88 -78z" />
    <glyph glyph-name="three.denominator" horiz-adv-x="306" 
d="M273 95q0 -47 -34 -73.5t-95 -26.5q-64 0 -115 22l20 67q47 -17 88 -17q49 0 49 35q0 29 -43 29h-67v66h62q39 0 39 32q0 27 -41 27q-37 0 -82 -16l-17 66q50 23 109 23q56 0 87.5 -22.5t31.5 -63.5q0 -54 -49 -74q57 -19 57 -74z" />
    <glyph glyph-name="four.denominator" horiz-adv-x="328" 
d="M259 119h45v-67h-45v-52h-81v52h-151l-7 48q59 123 146 224h93v-205zM103 119h75v122q-28 -39 -75 -122z" />
    <glyph glyph-name="five.denominator" horiz-adv-x="306" 
d="M274 106q0 -53 -34.5 -82t-97.5 -29q-55 0 -108 21l21 70q38 -17 81 -17q52 0 52 37q0 33 -48 33q-26 0 -58 -12l-33 18l13 179h202v-73h-134l-4 -49q15 5 33 5q54 0 84.5 -27t30.5 -74z" />
    <glyph glyph-name="six.denominator" horiz-adv-x="300" 
d="M279 108q0 -49 -36 -81t-89 -32q-57 0 -92.5 36t-35.5 94q0 66 40.5 119.5t117.5 87.5l30 -60q-72 -35 -93 -76q23 13 51 13q48 0 77.5 -27.5t29.5 -73.5zM154 63q20 0 32.5 12t12.5 33q0 38 -42 38q-27 0 -51 -18v-12q0 -24 13.5 -38.5t34.5 -14.5z" />
    <glyph glyph-name="seven.denominator" horiz-adv-x="269" 
d="M162 13v-13h-92v13q0 95 82 238h-131v73h231v-41q-90 -164 -90 -270z" />
    <glyph glyph-name="eight.denominator" horiz-adv-x="323" 
d="M289 94q0 -43 -35.5 -71t-91.5 -28q-59 0 -94 24t-35 65q0 46 54 75q-40 28 -40 75q0 42 32 68.5t82 26.5q51 0 82.5 -24t31.5 -62q0 -42 -47 -71q61 -27 61 -78zM161 270q-17 0 -27 -9t-10 -23q0 -22 45 -42q30 21 30 42q0 32 -38 32zM116 90q0 -17 12.5 -27t33.5 -10
q19 0 31.5 9.5t12.5 26.5q0 11 -10 18q-11 10 -55 25q-25 -18 -25 -42z" />
    <glyph glyph-name="nine.denominator" horiz-adv-x="300" 
d="M21 216q0 49 36 81t89 32q57 0 92.5 -36t35.5 -94q0 -66 -40.5 -119.5t-117.5 -87.5l-30 60q72 35 93 76q-23 -13 -51 -13q-48 0 -77.5 27.5t-29.5 73.5zM146 261q-20 0 -32.5 -12t-12.5 -33q0 -38 42 -38q27 0 51 18v12q0 24 -13.5 38.5t-34.5 14.5z" />
    <glyph glyph-name="onefifth" horiz-adv-x="763" 
d="M195 400h61v-76h-222v76h70v173h-70v75h161v-248zM513 648h104l-392 -648h-104zM730 106q0 -53 -34.5 -82t-97.5 -29q-55 0 -108 21l21 70q38 -17 81 -17q52 0 52 37q0 33 -48 33q-26 0 -58 -12l-33 18l13 179h202v-73h-134l-4 -49q15 5 33 5q54 0 84.5 -27t30.5 -74z
" />
    <glyph glyph-name="onesixth" horiz-adv-x="737" 
d="M195 400h61v-76h-222v76h70v173h-70v75h161v-248zM513 648h104l-392 -648h-104zM715 108q0 -49 -36 -81t-89 -32q-57 0 -92.5 36t-35.5 94q0 66 40.5 119.5t117.5 87.5l30 -60q-72 -35 -93 -76q23 13 51 13q48 0 77.5 -27.5t29.5 -73.5zM590 63q20 0 32.5 12t12.5 33
q0 38 -42 38q-27 0 -51 -18v-12q0 -24 13.5 -38.5t34.5 -14.5z" />
    <glyph glyph-name="oneseventh" horiz-adv-x="737" 
d="M195 400h61v-76h-222v76h70v173h-70v75h161v-248zM513 648h104l-392 -648h-104zM629 13v-13h-92v13q0 95 82 238h-131v73h231v-41q-90 -164 -90 -270z" />
    <glyph glyph-name="oneninth" horiz-adv-x="768" 
d="M195 400h61v-76h-222v76h70v173h-70v75h161v-248zM513 648h104l-392 -648h-104zM488 216q0 49 36 81t89 32q57 0 92.5 -36t35.5 -94q0 -66 -40.5 -119.5t-117.5 -87.5l-30 60q72 35 93 76q-23 -13 -51 -13q-48 0 -77.5 27.5t-29.5 73.5zM613 261q-20 0 -32.5 -12
t-12.5 -33q0 -38 42 -38q27 0 51 18v12q0 24 -13.5 38.5t-34.5 14.5z" />
    <glyph glyph-name="twofifths" horiz-adv-x="794" 
d="M154 398h119v-74h-242v63q89 70 114 98q29 32 29 59q0 33 -40 33q-34 0 -84 -22l-23 70q57 28 118 28q58 0 90 -27t32 -76q0 -41 -25 -74t-88 -78zM544 648h104l-392 -648h-104zM761 106q0 -53 -34.5 -82t-97.5 -29q-55 0 -108 21l21 70q38 -17 81 -17q52 0 52 37
q0 33 -48 33q-27 0 -58 -12l-33 18l13 179h202v-73h-134l-4 -49q15 5 33 5q54 0 84.5 -27t30.5 -74z" />
    <glyph glyph-name="twosevenths" horiz-adv-x="768" 
d="M154 398h119v-74h-242v63q89 70 114 98q29 32 29 59q0 33 -40 33q-34 0 -84 -22l-23 70q57 28 118 28q58 0 90 -27t32 -76q0 -41 -25 -74t-88 -78zM544 648h104l-392 -648h-104zM660 13v-13h-92v13q0 95 82 238h-131v73h231v-41q-90 -164 -90 -270z" />
    <glyph glyph-name="twoninths" horiz-adv-x="799" 
d="M154 398h119v-74h-242v63q89 70 114 98q29 32 29 59q0 33 -40 33q-34 0 -84 -22l-23 70q57 28 118 28q58 0 90 -27t32 -76q0 -41 -25 -74t-88 -78zM544 648h104l-392 -648h-104zM519 216q0 49 36 81t89 32q57 0 92.5 -36t35.5 -94q0 -66 -40.5 -119.5t-117.5 -87.5
l-30 60q72 35 93 76q-23 -13 -51 -13q-48 0 -77.5 27.5t-29.5 73.5zM644 261q-20 0 -32.5 -12t-12.5 -33q0 -38 42 -38q27 0 51 18v12q0 24 -13.5 38.5t-34.5 14.5z" />
    <glyph glyph-name="threefifths" horiz-adv-x="791" 
d="M273 419q0 -47 -34 -73.5t-95 -26.5q-64 0 -115 22l20 67q47 -17 88 -17q49 0 49 35q0 29 -43 29h-67v66h62q39 0 39 32q0 27 -41 27q-37 0 -82 -16l-17 66q50 23 109 23q56 0 87.5 -22.5t31.5 -63.5q0 -54 -49 -74q57 -19 57 -74zM541 648h104l-392 -648h-104zM758 106
q0 -53 -34.5 -82t-97.5 -29q-55 0 -108 21l21 70q38 -17 81 -17q52 0 52 37q0 33 -48 33q-26 0 -58 -12l-33 18l13 179h202v-73h-134l-4 -49q15 5 33 5q54 0 84.5 -27t30.5 -74z" />
    <glyph glyph-name="threesevenths" horiz-adv-x="765" 
d="M273 419q0 -47 -34 -73.5t-95 -26.5q-64 0 -115 22l20 67q47 -17 88 -17q49 0 49 35q0 29 -43 29h-67v66h62q39 0 39 32q0 27 -41 27q-37 0 -82 -16l-17 66q50 23 109 23q56 0 87.5 -22.5t31.5 -63.5q0 -54 -49 -74q57 -19 57 -74zM541 648h104l-392 -648h-104zM657 13
v-13h-92v13q0 95 82 238h-131v73h231v-41q-90 -164 -90 -270z" />
    <glyph glyph-name="fourfifths" horiz-adv-x="818" 
d="M259 443h45v-67h-45v-52h-81v52h-151l-7 48q59 123 146 224h93v-205zM103 443h75v122q-28 -39 -75 -122zM569 648h104l-392 -648h-104zM786 106q0 -53 -34.5 -82t-97.5 -29q-55 0 -108 21l21 70q38 -17 81 -17q52 0 52 37q0 33 -48 33q-26 0 -58 -12l-33 18l13 179h202
v-73h-134l-4 -49q15 5 33 5q54 0 84.5 -27t30.5 -74z" />
    <glyph glyph-name="foursevenths" horiz-adv-x="792" 
d="M259 443h45v-67h-45v-52h-81v52h-151l-7 48q59 123 146 224h93v-205zM103 443h75v122q-28 -39 -75 -122zM569 648h104l-392 -648h-104zM684 13v-13h-92v13q0 95 82 238h-131v73h231v-41q-90 -164 -90 -270z" />
    <glyph glyph-name="fourninths" horiz-adv-x="823" 
d="M259 443h45v-67h-45v-52h-81v52h-151l-7 48q59 123 146 224h93v-205zM103 443h75v122q-28 -39 -75 -122zM569 648h104l-392 -648h-104zM543 216q0 49 36 81t89 32q57 0 92.5 -36t35.5 -94q0 -66 -40.5 -119.5t-117.5 -87.5l-30 60q72 35 93 76q-23 -13 -51 -13
q-48 0 -77.5 27.5t-29.5 73.5zM668 261q-20 0 -32.5 -12t-12.5 -33q0 -38 42 -38q27 0 51 18v12q0 24 -13.5 38.5t-34.5 14.5z" />
    <glyph glyph-name="fivesixths" horiz-adv-x="765" 
d="M274 430q0 -53 -34.5 -82t-97.5 -29q-55 0 -108 21l21 70q38 -17 81 -17q52 0 52 37q0 33 -48 33q-26 0 -58 -12l-33 18l13 179h202v-73h-134l-4 -49q15 5 33 5q54 0 84.5 -27t30.5 -74zM541 648h104l-392 -648h-104zM743 108q0 -49 -36 -81t-89 -32q-57 0 -92.5 36
t-35.5 94q0 66 40.5 119.5t117.5 87.5l30 -60q-72 -35 -93 -76q23 13 51 13q48 0 77.5 -27.5t29.5 -73.5zM618 63q20 0 32.5 12t12.5 33q0 38 -42 38q-27 0 -51 -18v-12q0 -24 13.5 -38.5t34.5 -14.5z" />
    <glyph glyph-name="fivesevenths" horiz-adv-x="765" 
d="M274 430q0 -53 -34.5 -82t-97.5 -29q-55 0 -108 21l21 70q38 -17 81 -17q52 0 52 37q0 33 -48 33q-26 0 -58 -12l-33 18l13 179h202v-73h-134l-4 -49q15 5 33 5q54 0 84.5 -27t30.5 -74zM541 648h104l-392 -648h-104zM657 13v-13h-92v13q0 95 82 238h-131v73h231v-41
q-90 -164 -90 -270z" />
    <glyph glyph-name="fiveninths" horiz-adv-x="796" 
d="M274 430q0 -53 -34.5 -82t-97.5 -29q-55 0 -108 21l21 70q38 -17 81 -17q52 0 52 37q0 33 -48 33q-26 0 -58 -12l-33 18l13 179h202v-73h-134l-4 -49q15 5 33 5q54 0 84.5 -27t30.5 -74zM541 648h104l-392 -648h-104zM516 216q0 49 36 81t89 32q57 0 92.5 -36t35.5 -94
q0 -66 -40.5 -119.5t-117.5 -87.5l-30 60q72 35 93 76q-23 -13 -51 -13q-48 0 -77.5 27.5t-29.5 73.5zM641 261q-20 0 -32.5 -12t-12.5 -33q0 -38 42 -38q27 0 51 18v12q0 24 -13.5 38.5t-34.5 14.5z" />
    <glyph glyph-name="sixsevenths" horiz-adv-x="760" 
d="M279 432q0 -49 -36 -81t-89 -32q-57 0 -92.5 36t-35.5 94q0 66 40.5 119.5t117.5 87.5l30 -60q-72 -35 -93 -76q23 13 51 13q48 0 77.5 -27.5t29.5 -73.5zM154 387q20 0 32.5 12t12.5 33q0 38 -42 38q-27 0 -51 -18v-12q0 -24 13.5 -38.5t34.5 -14.5zM537 648h104
l-392 -648h-104zM652 13v-13h-92v13q0 95 82 238h-131v73h231v-41q-90 -164 -90 -270z" />
    <glyph glyph-name="sevenninths" horiz-adv-x="759" 
d="M162 337v-13h-92v13q0 95 82 238h-131v73h231v-41q-90 -164 -90 -270zM504 648h104l-392 -648h-104zM479 216q0 49 36 81t89 32q57 0 92.5 -36t35.5 -94q0 -66 -40.5 -119.5t-117.5 -87.5l-30 60q72 35 93 76q-23 -13 -51 -13q-48 0 -77.5 27.5t-29.5 73.5zM604 261
q-20 0 -32.5 -12t-12.5 -33q0 -38 42 -38q27 0 51 18v12q0 24 -13.5 38.5t-34.5 14.5z" />
    <glyph glyph-name="eightninths" horiz-adv-x="812" 
d="M289 418q0 -43 -35.5 -71t-91.5 -28q-59 0 -94 24t-35 65q0 46 54 75q-40 28 -40 75q0 42 32 68.5t82 26.5q51 0 82.5 -24t31.5 -62q0 -42 -47 -71q61 -27 61 -78zM161 594q-17 0 -27 -9t-10 -23q0 -22 45 -42q30 21 30 42q0 32 -38 32zM116 414q0 -17 12.5 -27t33.5 -10
q19 0 31.5 9.5t12.5 26.5q0 11 -10 18q-11 10 -55 25q-25 -18 -25 -42zM558 648h104l-392 -648h-104zM532 216q0 49 36 81t89 32q57 0 92.5 -36t35.5 -94q0 -66 -40.5 -119.5t-117.5 -87.5l-30 60q72 35 93 76q-23 -13 -51 -13q-48 0 -77.5 27.5t-29.5 73.5zM657 261
q-20 0 -32.5 -12t-12.5 -33q0 -38 42 -38q27 0 51 18v12q0 24 -13.5 38.5t-34.5 14.5z" />
    <glyph glyph-name="at.case" horiz-adv-x="910" 
d="M469 -108q-192 0 -310 110q-116 110 -116 297q0 188 122 308q122 121 314 121q170 0 280 -101t110 -258q0 -125 -53 -197.5t-142 -72.5q-78 0 -115 51q-61 -55 -135 -55q-63 0 -101 34.5t-38 92.5t42 91.5t117 33.5h88v18q0 39 -17.5 56.5t-56.5 17.5q-56 0 -127 -34
l-30 79q82 47 171 47q157 0 157 -160v-121q0 -66 56 -66q43 0 66 46t23 133q0 123 -83 200t-212 77q-152 0 -246 -94t-94 -247q0 -147 89 -233t241 -86q126 0 225 55l36 -77q-112 -66 -261 -66zM379 227q0 -51 59 -51q50 0 96 42q-2 24 -2 31v27h-88q-31 0 -48 -13t-17 -36z
" />
    <glyph glyph-name="questiondown.case" horiz-adv-x="451" 
d="M185 589q0 31 19.5 49.5t51.5 18.5t51 -19t19 -49t-19 -49t-51 -19t-51.5 19t-19.5 49zM244 -10q-100 0 -154.5 44.5t-54.5 125.5q0 143 168 192l9 88h84l13 -113l-27 -40l-39 -13q-88 -29 -88 -105q0 -78 95 -78q66 0 135 31l31 -94q-74 -38 -172 -38z" />
    <glyph glyph-name="exclamdown.case" horiz-adv-x="286" 
d="M72 589q0 31 19.5 49.5t51.5 18.5t51 -19t19 -49t-19 -49t-51 -19t-51.5 19t-19.5 49zM205 180v-180h-125v180l20 260h85z" />
    <glyph glyph-name="parenleft.case" horiz-adv-x="316" 
d="M47 324v8q0 155 53 278q52 120 145 181l16 10l45 -82l-13 -11q-62 -49 -96 -146.5t-34 -229.5v-8q0 -132 34 -229t96 -146l13 -11l-45 -82l-16 10q-93 61 -145 180q-53 123 -53 278z" />
    <glyph glyph-name="parenright.case" horiz-adv-x="316" 
d="M268 332v-8q0 -155 -53 -278q-53 -120 -144 -180l-16 -10l-46 82l14 11q62 49 95.5 145.5t33.5 229.5v8q0 133 -33.5 230t-95.5 146l-14 11l46 82l16 -10q92 -60 144 -181q53 -123 53 -278z" />
    <glyph glyph-name="braceleft.case" horiz-adv-x="331" 
d="M250 -40h59v-93h-60q-78 0 -121 35.5t-43 99.5q0 38 25 122q20 70 20 94q0 61 -56 61h-29v100h29q56 0 56 61q0 23 -20 93q-25 84 -25 123q0 64 42.5 99.5t118.5 35.5h63v-93h-59q-55 0 -55 -54q0 -22 20 -101q23 -86 23 -118q0 -37 -19 -63t-54 -33q35 -7 54 -32t19 -64
q0 -34 -23 -120q-20 -74 -20 -99q0 -54 55 -54z" />
    <glyph glyph-name="braceright.case" horiz-adv-x="331" 
d="M246 2q0 -64 -43 -99.5t-121 -35.5h-60v93h58q56 0 56 54q0 25 -20 99q-23 86 -23 120q0 39 19 64.5t54 32.5q-73 14 -73 95q0 32 23 118q20 79 20 101q0 54 -56 54h-58v93h62q77 0 119.5 -35.5t42.5 -99.5q0 -39 -25 -123q-20 -70 -20 -93q0 -61 56 -61h28v-100h-28
q-56 0 -56 -61q0 -24 20 -94q25 -84 25 -122z" />
    <glyph glyph-name="bracketleft.case" horiz-adv-x="314" 
d="M291 -34v-93h-207v911h207v-93h-95v-725h95z" />
    <glyph glyph-name="bracketright.case" horiz-adv-x="314" 
d="M230 784v-911h-208v93h96v725h-96v93h208z" />
    <glyph glyph-name="hyphen.case" horiz-adv-x="420" 
d="M65 380h290v-102h-290v102z" />
    <glyph glyph-name="endash.case" 
d="M65 380h370v-102h-370v102z" />
    <glyph glyph-name="emdash.case" horiz-adv-x="1000" 
d="M65 380h870v-102h-870v102z" />
    <glyph glyph-name="brokenbar.case" horiz-adv-x="301" 
d="M90 748h121v-374h-121v374zM90 294h121v-374h-121v374z" />
    <glyph glyph-name="bar.case" horiz-adv-x="301" 
d="M90 748h121v-828h-121v828z" />
    <glyph glyph-name="guillemotleft.case" horiz-adv-x="561" 
d="M372 336l134 -85v-122l-220 149v108l220 149v-114zM128 336l137 -85v-122l-225 149v108l225 149v-114z" />
    <glyph glyph-name="guillemotright.case" horiz-adv-x="561" 
d="M274 386v-108l-219 -149v115l133 85l-133 85v121zM520 386v-108l-224 -149v115l136 85l-136 85v121z" />
    <glyph glyph-name="guilsinglleft.case" horiz-adv-x="320" 
d="M128 336l137 -85v-122l-225 149v108l225 149v-114z" />
    <glyph glyph-name="guilsinglright.case" horiz-adv-x="320" 
d="M279 391v-108l-224 -149v115l136 85l-136 85v121z" />
    </font>
</defs>
</svg>
