<svg width="26" height="26" viewBox="0 0 26 26" fill="none" xmlns="http://www.w3.org/2000/svg">
<path d="M6.49998 10.8333C5.30831 10.8333 4.33331 11.8083 4.33331 13C4.33331 14.1917 5.30831 15.1667 6.49998 15.1667C7.69165 15.1667 8.66665 14.1917 8.66665 13C8.66665 11.8083 7.69165 10.8333 6.49998 10.8333ZM19.5 10.8333C18.3083 10.8333 17.3333 11.8083 17.3333 13C17.3333 14.1917 18.3083 15.1667 19.5 15.1667C20.6916 15.1667 21.6666 14.1917 21.6666 13C21.6666 11.8083 20.6916 10.8333 19.5 10.8333ZM13 10.8333C11.8083 10.8333 10.8333 11.8083 10.8333 13C10.8333 14.1917 11.8083 15.1667 13 15.1667C14.1916 15.1667 15.1666 14.1917 15.1666 13C15.1666 11.8083 14.1916 10.8333 13 10.8333Z" fill="#9FA2B4"/>
</svg>
