<svg width="524" height="373" viewBox="0 0 524 373" color="#CFCFCF" xmlns="http://www.w3.org/2000/svg">
<mask id="mask0" mask-type="alpha" maskUnits="userSpaceOnUse" x="4" y="0" width="516" height="373">
<rect x="4" width="516" height="373" fill="white"/>
</mask>
<g mask="url(#mask0)">
<path d="M479.505 177.206L433.264 164.816C427.469 163.263 421.492 166.714 419.939 172.509L410.083 209.292C408.53 215.087 411.981 221.064 417.776 222.617L453.639 232.226C455.09 232.615 456.582 231.754 456.97 230.303C457.359 228.852 456.498 227.36 455.047 226.972L445.37 224.379L441.429 214.923L467.096 195.704L476.167 213.4C476.679 214.402 477.756 214.983 478.875 214.864C479.993 214.745 480.923 213.95 481.214 212.863L487.198 190.531C488.751 184.736 485.3 178.759 479.505 177.206V177.206ZM477.787 204.636L470.467 190.354C470.102 189.641 469.439 189.123 468.659 188.945C467.878 188.765 467.058 188.937 466.416 189.418L439.27 209.744L434.786 198.985C434.462 198.207 433.795 197.623 432.98 197.405C432.979 197.405 432.979 197.404 432.978 197.404C432.163 197.186 431.293 197.359 430.623 197.872L422.827 203.839C421.634 204.753 421.407 206.46 422.32 207.652C423.233 208.846 424.94 209.072 426.133 208.159L431.124 204.339L438.736 222.601L419.184 217.362C416.287 216.586 414.561 213.597 415.338 210.7L425.194 173.917C425.97 171.02 428.959 169.294 431.856 170.071L478.097 182.461C480.994 183.237 482.72 186.226 481.943 189.123L477.787 204.636Z" fill="currentColor" fill-opacity="0.1"/>
<path d="M438.612 176.386C434.265 175.222 429.782 177.81 428.618 182.156C427.453 186.503 430.041 190.986 434.388 192.15C438.734 193.315 443.217 190.727 444.382 186.38C445.546 182.034 442.958 177.551 438.612 176.386ZM435.796 186.896C434.347 186.507 433.484 185.013 433.872 183.564C434.261 182.116 435.755 181.253 437.204 181.641C438.652 182.029 439.515 183.524 439.127 184.972C438.739 186.421 437.244 187.284 435.796 186.896Z" fill="currentColor" fill-opacity="0.1"/>
<path d="M473.633 218.286C473.628 218.277 473.622 218.266 473.616 218.257C472.71 216.673 471.242 215.542 469.484 215.071C467.731 214.601 465.901 214.844 464.327 215.755L457.914 219.399C456.608 220.141 456.151 221.802 456.894 223.108C457.635 224.414 459.296 224.871 460.602 224.129L464.895 221.69L460.944 236.436C460.555 237.888 461.416 239.379 462.867 239.768C464.318 240.156 465.809 239.295 466.198 237.844L470.128 223.178L472.478 227.406C472.851 228.077 473.465 228.528 474.152 228.712C474.81 228.888 475.535 228.819 476.177 228.462C477.49 227.732 477.963 226.076 477.233 224.763L473.633 218.286Z" fill="currentColor" fill-opacity="0.1"/>
<path d="M105.496 177.522L69.24 188.622C64.6963 190.013 62.1316 194.841 63.5226 199.384L72.3519 228.224C73.7429 232.768 78.5708 235.333 83.1145 233.942L111.233 225.333C112.371 224.985 113.011 223.78 112.663 222.643C112.314 221.505 111.11 220.865 109.972 221.213L102.385 223.536L95.7672 218.841L104.932 195.156L118.455 203.23C119.22 203.687 120.187 203.625 120.888 203.076C121.589 202.526 121.88 201.601 121.619 200.75L116.258 183.24C114.867 178.696 110.039 176.131 105.496 177.522V177.522ZM115.862 196.664L104.948 190.147C104.403 189.822 103.742 189.752 103.142 189.96C102.543 190.167 102.064 190.628 101.835 191.22L92.142 216.27L84.6127 210.929C84.068 210.542 83.3745 210.43 82.7356 210.626C82.7352 210.626 82.7348 210.626 82.7344 210.626C82.0956 210.822 81.5834 211.304 81.349 211.93L78.6197 219.211C78.2022 220.325 78.7667 221.567 79.8807 221.984C80.9952 222.402 82.2366 221.838 82.6546 220.723L84.4016 216.062L97.1828 225.129L81.8532 229.822C79.5815 230.517 77.1673 229.235 76.4719 226.963L67.6426 198.123C66.9472 195.852 68.2297 193.437 70.5013 192.742L106.757 181.642C109.029 180.947 111.443 182.229 112.138 184.501L115.862 196.664Z" fill="currentColor" fill-opacity="0.1"/>
<path d="M77.6903 194.146C74.2824 195.189 72.359 198.81 73.4023 202.218C74.4456 205.626 78.0664 207.549 81.4742 206.506C84.8821 205.463 86.8055 201.842 85.7622 198.434C84.7189 195.026 81.0981 193.103 77.6903 194.146ZM80.2129 202.386C79.0771 202.734 77.87 202.093 77.5222 200.957C77.1745 199.821 77.8158 198.614 78.9516 198.266C80.0874 197.918 81.2945 198.56 81.6422 199.695C81.99 200.831 81.3487 202.038 80.2129 202.386Z" fill="currentColor" fill-opacity="0.1"/>
<path d="M118.805 207.575C118.798 207.571 118.79 207.567 118.782 207.562C117.508 206.88 116.047 206.737 114.669 207.159C113.295 207.579 112.167 208.511 111.493 209.784L108.717 214.924C108.152 215.971 108.542 217.278 109.589 217.843C110.636 218.409 111.943 218.019 112.508 216.972L114.367 213.531L117.907 225.093C118.255 226.231 119.459 226.871 120.597 226.522C121.735 226.174 122.375 224.97 122.027 223.832L118.506 212.332L121.86 214.184C122.392 214.478 122.994 214.523 123.532 214.359C124.048 214.201 124.506 213.85 124.787 213.34C125.363 212.298 124.984 210.988 123.943 210.413L118.805 207.575Z" fill="currentColor" fill-opacity="0.1"/>
<path d="M120.126 40.6326L44.8644 -2.81978C35.4324 -8.26531 23.3294 -5.02232 17.8839 4.40961L-16.6805 64.2768C-22.126 73.7088 -18.883 85.8118 -9.45108 91.2573L48.9195 124.958C51.2814 126.321 54.3009 125.512 55.6646 123.15C57.0283 120.788 56.2192 117.769 53.8573 116.405L38.107 107.312L35.6392 88.88L89.6765 67.2392L97.2669 102.531C97.6953 104.527 99.31 106.053 101.327 106.37C103.344 106.686 105.349 105.729 106.37 103.961L127.355 67.613C132.801 58.1811 129.558 46.0781 120.126 40.6326V40.6326ZM104.226 87.9234L98.1008 59.4412C97.7951 58.0187 96.8771 56.8004 95.5927 56.1201C94.3085 55.4377 92.7883 55.3551 91.4371 55.8958L34.2871 78.783L31.4792 57.8119C31.2761 56.2948 30.3803 54.9569 29.054 54.1912C29.0532 54.1907 29.0523 54.1902 29.0515 54.1897C27.7247 53.4248 26.1169 53.3184 24.7013 53.9031L8.22694 60.7037C5.70595 61.7449 4.5061 64.6312 5.54647 67.1518C6.58719 69.6736 9.47405 70.8726 11.9954 69.8327L22.5418 65.4783L27.3087 101.077L-4.51331 82.7048C-9.22886 79.9823 -10.8505 73.9302 -8.12801 69.2146L26.4364 9.34738C29.1589 4.63183 35.211 3.01016 39.9266 5.73268L115.188 49.185C119.904 51.9076 121.525 57.9597 118.803 62.6753L104.226 87.9234Z" fill="currentColor" fill-opacity="0.12"/>
<path d="M48.805 19.9809C41.7309 15.8966 32.6539 18.3288 28.5697 25.4029C24.4854 32.4771 26.9176 41.554 33.9917 45.6383C41.0659 49.7225 50.1428 47.2904 54.2271 40.2162C58.3113 33.1421 55.8792 24.0651 48.805 19.9809ZM38.9295 37.0858C36.5717 35.7245 35.7609 32.6985 37.1221 30.3407C38.4834 27.9829 41.5095 27.1721 43.8672 28.5333C46.225 29.8946 47.0359 32.9207 45.6746 35.2784C44.3133 37.6362 41.2873 38.4471 38.9295 37.0858Z" fill="currentColor" fill-opacity="0.12"/>
<path d="M90.5288 109.908C90.5235 109.888 90.5187 109.867 90.5134 109.848C89.6673 106.645 87.6259 103.972 84.7645 102.32C81.9115 100.673 78.5872 100.239 75.4002 101.097L62.4427 104.474C59.8043 105.161 58.2226 107.858 58.9106 110.497C59.5978 113.136 62.2945 114.718 64.9334 114.03L73.6068 111.77L59.7497 135.772C58.386 138.134 59.1951 141.153 61.557 142.517C63.919 143.88 66.9385 143.071 68.3022 140.709L82.084 116.838L84.2188 125.356C84.5568 126.707 85.4222 127.787 86.5397 128.432C87.6113 129.051 88.9147 129.27 90.2087 128.946C92.8544 128.283 94.4606 125.601 93.7976 122.955L90.5288 109.908Z" fill="currentColor" fill-opacity="0.12"/>
<path d="M249.184 -23.5788L178.145 -4.12534C169.242 -1.6874 163.983 7.53836 166.421 16.4411L181.896 72.9491C184.334 81.8518 193.559 87.111 202.462 84.6731L257.557 69.5856C259.787 68.9751 261.099 66.6734 260.488 64.444C259.878 62.2146 257.576 60.9025 255.347 61.513L240.48 65.5841L227.903 56.0859L247.069 10.6266L272.858 27.0863C274.317 28.0183 276.198 27.9547 277.592 26.9282C278.984 25.9011 279.602 24.1225 279.145 22.4536L269.75 -11.8549C267.312 -20.7576 258.087 -26.0167 249.184 -23.5788V-23.5788ZM268.204 14.1872L247.391 0.902907C246.351 0.239228 245.07 0.0663561 243.895 0.434833C242.718 0.801947 241.762 1.66878 241.283 2.80517L221.013 50.8829L206.703 40.0763C205.668 39.2945 204.328 39.0369 203.076 39.3797C203.075 39.3799 203.074 39.3801 203.073 39.3804C201.822 39.724 200.799 40.6294 200.308 41.8308L194.587 55.811C193.712 57.9506 194.736 60.3939 196.875 61.2692C199.015 62.145 201.458 61.1201 202.334 58.981L205.996 50.0309L230.288 68.3752L200.251 76.6005C195.8 77.8193 191.187 75.1895 189.968 70.7385L174.494 14.2304C173.275 9.77949 175.905 5.1661 180.356 3.94724L251.395 -15.5062C255.845 -16.7251 260.459 -14.0952 261.678 -9.64425L268.204 14.1872Z" fill="currentColor" fill-opacity="0.14"/>
<path d="M194.233 7.08934C187.556 8.91785 183.611 15.8369 185.44 22.5141C187.268 29.1914 194.188 33.1356 200.865 31.3071C207.542 29.4786 211.486 22.5595 209.658 15.8823C207.829 9.20506 200.91 5.26083 194.233 7.08934ZM198.654 23.2345C196.429 23.8439 194.122 22.529 193.513 20.3035C192.903 18.078 194.218 15.7714 196.444 15.1619C198.669 14.5525 200.976 15.8674 201.585 18.0929C202.195 20.3184 200.88 22.6251 198.654 23.2345Z" fill="currentColor" fill-opacity="0.14"/>
<path d="M273.287 35.5436C273.272 35.535 273.257 35.5257 273.242 35.5171C270.808 34.1183 267.981 33.7553 265.28 34.4949C262.587 35.2324 260.344 36.977 258.962 39.4089L253.274 49.2292C252.116 51.2286 252.798 53.7891 254.799 54.9473C256.798 56.1057 259.359 55.424 260.517 53.4238L264.325 46.8506L270.528 69.5051C271.139 71.7345 273.44 73.0466 275.67 72.436C277.899 71.8255 279.211 69.5239 278.601 67.2944L272.431 44.763L278.836 48.5531C279.851 49.1546 281.018 49.2767 282.072 48.9879C283.084 48.7109 283.993 48.0561 284.569 47.0831C285.746 45.0938 285.087 42.5276 283.098 41.3503L273.287 35.5436Z" fill="currentColor" fill-opacity="0.14"/>
<path d="M465.378 -50.5989L350.996 -9.23409C336.661 -4.05018 329.217 11.8284 334.401 26.163L367.305 117.149C372.489 131.483 388.367 138.928 402.702 133.744L491.413 101.663C495.003 100.364 496.86 96.403 495.562 92.8133C494.264 89.2236 490.302 87.3664 486.713 88.6646L462.776 97.3211L440.823 83.3396L466.394 5.98656L511.012 29.6904C513.536 31.0327 516.625 30.6805 518.784 28.8075C520.941 26.9337 521.724 23.9246 520.753 21.2375L500.775 -34.004C495.591 -48.3386 479.713 -55.7828 465.378 -50.5989V-50.5989ZM501.654 9.06854L465.646 -10.0625C463.847 -11.0183 461.715 -11.1344 459.829 -10.3733C457.941 -9.61427 456.481 -8.06164 455.841 -6.12793L428.796 75.6807L403.819 59.7731C402.012 58.6223 399.772 58.3745 397.756 59.1034C397.755 59.1039 397.754 59.1043 397.752 59.1048C395.737 59.835 394.173 61.4599 393.522 63.5023L385.943 87.268C384.784 90.9052 386.791 94.7925 390.427 95.9521C394.065 97.1126 397.952 95.1041 399.113 91.4677L403.964 76.2528L446.364 103.256L398.001 120.746C390.835 123.337 382.895 119.615 380.303 112.448L347.399 21.4624C344.807 14.2958 348.53 6.35562 355.697 3.76389L470.079 -37.6009C477.245 -40.1926 485.186 -36.4701 487.777 -29.3034L501.654 9.06854Z" fill="currentColor" fill-opacity="0.12"/>
<path d="M378.954 7.11129C368.202 10.9993 362.619 22.9078 366.508 33.6591C370.396 44.4104 382.304 49.9933 393.055 46.1053C403.807 42.2172 409.39 30.3087 405.501 19.5575C401.613 8.8062 389.705 3.22325 378.954 7.11129ZM388.355 33.1073C384.771 34.4031 380.801 32.5419 379.506 28.9585C378.21 25.3752 380.071 21.4051 383.654 20.1093C387.238 18.8134 391.208 20.6747 392.504 24.258C393.799 27.8413 391.938 31.8114 388.355 33.1073Z" fill="currentColor" fill-opacity="0.12"/>
<path d="M512.831 43.5555C512.805 43.5434 512.779 43.53 512.753 43.5178C508.562 41.5353 503.86 41.3095 499.512 42.8822C495.176 44.4502 491.713 47.617 489.758 51.8021L481.686 68.7157C480.042 72.1594 481.502 76.2847 484.947 77.9282C488.391 79.5722 492.517 78.1132 494.16 74.6682L499.564 63.3471L512.755 99.824C514.053 103.414 518.015 105.271 521.604 103.973C525.194 102.675 527.051 98.7131 525.753 95.1234L512.633 58.8446L523.675 64.2415C525.426 65.0982 527.362 65.1458 529.06 64.5316C530.689 63.9426 532.099 62.7452 532.919 61.0678C534.595 57.6383 533.174 53.5005 529.744 51.8241L512.831 43.5555Z" fill="currentColor" fill-opacity="0.12"/>
</g>
</svg>
